<?xml version="1.0" encoding="utf-8" standalone="no"?>
<!DOCTYPE svg PUBLIC "-//W3C//DTD SVG 1.1//EN"
  "http://www.w3.org/Graphics/SVG/1.1/DTD/svg11.dtd">
<svg xmlns:xlink="http://www.w3.org/1999/xlink" width="403.97pt" height="312.30825pt" viewBox="0 0 403.97 312.30825" xmlns="http://www.w3.org/2000/svg" version="1.1">
 <metadata>
  <rdf:RDF xmlns:dc="http://purl.org/dc/elements/1.1/" xmlns:cc="http://creativecommons.org/ns#" xmlns:rdf="http://www.w3.org/1999/02/22-rdf-syntax-ns#">
   <cc:Work>
    <dc:type rdf:resource="http://purl.org/dc/dcmitype/StillImage"/>
    <dc:date>2024-03-15T15:44:12.879444</dc:date>
    <dc:format>image/svg+xml</dc:format>
    <dc:creator>
     <cc:Agent>
      <dc:title>Matplotlib v3.8.3, https://matplotlib.org/</dc:title>
     </cc:Agent>
    </dc:creator>
   </cc:Work>
  </rdf:RDF>
 </metadata>
 <defs>
  <style type="text/css">*{stroke-linejoin: round; stroke-linecap: butt}</style>
 </defs>
 <g id="figure_1">
  <g id="patch_1">
   <path d="M 0 312.30825 
L 403.97 312.30825 
L 403.97 0 
L 0 0 
z
" style="fill: #ffffff"/>
  </g>
  <g id="axes_1">
   <g id="patch_2">
    <path d="M 39.65 288.430125 
L 396.77 288.430125 
L 396.77 22.318125 
L 39.65 22.318125 
z
" style="fill: #ffffff"/>
   </g>
   <g id="matplotlib.axis_1">
    <g id="xtick_1">
     <g id="line2d_1">
      <defs>
       <path id="m86d54172d2" d="M 0 0 
L 0 3.5 
" style="stroke: #000000; stroke-width: 0.8"/>
      </defs>
      <g>
       <use xlink:href="#m86d54172d2" x="55.882727" y="288.430125" style="stroke: #000000; stroke-width: 0.8"/>
      </g>
     </g>
     <g id="text_1">
      <!-- 0 -->
      <g transform="translate(52.701477 303.028562) scale(0.1 -0.1)">
       <defs>
        <path id="DejaVuSans-30" d="M 2034 4250 
Q 1547 4250 1301 3770 
Q 1056 3291 1056 2328 
Q 1056 1369 1301 889 
Q 1547 409 2034 409 
Q 2525 409 2770 889 
Q 3016 1369 3016 2328 
Q 3016 3291 2770 3770 
Q 2525 4250 2034 4250 
z
M 2034 4750 
Q 2819 4750 3233 4129 
Q 3647 3509 3647 2328 
Q 3647 1150 3233 529 
Q 2819 -91 2034 -91 
Q 1250 -91 836 529 
Q 422 1150 422 2328 
Q 422 3509 836 4129 
Q 1250 4750 2034 4750 
z
" transform="scale(0.015625)"/>
       </defs>
       <use xlink:href="#DejaVuSans-30"/>
      </g>
     </g>
    </g>
    <g id="xtick_2">
     <g id="line2d_2">
      <g>
       <use xlink:href="#m86d54172d2" x="95.766578" y="288.430125" style="stroke: #000000; stroke-width: 0.8"/>
      </g>
     </g>
     <g id="text_2">
      <!-- 50 -->
      <g transform="translate(89.404078 303.028562) scale(0.1 -0.1)">
       <defs>
        <path id="DejaVuSans-35" d="M 691 4666 
L 3169 4666 
L 3169 4134 
L 1269 4134 
L 1269 2991 
Q 1406 3038 1543 3061 
Q 1681 3084 1819 3084 
Q 2600 3084 3056 2656 
Q 3513 2228 3513 1497 
Q 3513 744 3044 326 
Q 2575 -91 1722 -91 
Q 1428 -91 1123 -41 
Q 819 9 494 109 
L 494 744 
Q 775 591 1075 516 
Q 1375 441 1709 441 
Q 2250 441 2565 725 
Q 2881 1009 2881 1497 
Q 2881 1984 2565 2268 
Q 2250 2553 1709 2553 
Q 1456 2553 1204 2497 
Q 953 2441 691 2322 
L 691 4666 
z
" transform="scale(0.015625)"/>
       </defs>
       <use xlink:href="#DejaVuSans-35"/>
       <use xlink:href="#DejaVuSans-30" x="63.623047"/>
      </g>
     </g>
    </g>
    <g id="xtick_3">
     <g id="line2d_3">
      <g>
       <use xlink:href="#m86d54172d2" x="135.650429" y="288.430125" style="stroke: #000000; stroke-width: 0.8"/>
      </g>
     </g>
     <g id="text_3">
      <!-- 100 -->
      <g transform="translate(126.106679 303.028562) scale(0.1 -0.1)">
       <defs>
        <path id="DejaVuSans-31" d="M 794 531 
L 1825 531 
L 1825 4091 
L 703 3866 
L 703 4441 
L 1819 4666 
L 2450 4666 
L 2450 531 
L 3481 531 
L 3481 0 
L 794 0 
L 794 531 
z
" transform="scale(0.015625)"/>
       </defs>
       <use xlink:href="#DejaVuSans-31"/>
       <use xlink:href="#DejaVuSans-30" x="63.623047"/>
       <use xlink:href="#DejaVuSans-30" x="127.246094"/>
      </g>
     </g>
    </g>
    <g id="xtick_4">
     <g id="line2d_4">
      <g>
       <use xlink:href="#m86d54172d2" x="175.53428" y="288.430125" style="stroke: #000000; stroke-width: 0.8"/>
      </g>
     </g>
     <g id="text_4">
      <!-- 150 -->
      <g transform="translate(165.99053 303.028562) scale(0.1 -0.1)">
       <use xlink:href="#DejaVuSans-31"/>
       <use xlink:href="#DejaVuSans-35" x="63.623047"/>
       <use xlink:href="#DejaVuSans-30" x="127.246094"/>
      </g>
     </g>
    </g>
    <g id="xtick_5">
     <g id="line2d_5">
      <g>
       <use xlink:href="#m86d54172d2" x="215.41813" y="288.430125" style="stroke: #000000; stroke-width: 0.8"/>
      </g>
     </g>
     <g id="text_5">
      <!-- 200 -->
      <g transform="translate(205.87438 303.028562) scale(0.1 -0.1)">
       <defs>
        <path id="DejaVuSans-32" d="M 1228 531 
L 3431 531 
L 3431 0 
L 469 0 
L 469 531 
Q 828 903 1448 1529 
Q 2069 2156 2228 2338 
Q 2531 2678 2651 2914 
Q 2772 3150 2772 3378 
Q 2772 3750 2511 3984 
Q 2250 4219 1831 4219 
Q 1534 4219 1204 4116 
Q 875 4013 500 3803 
L 500 4441 
Q 881 4594 1212 4672 
Q 1544 4750 1819 4750 
Q 2544 4750 2975 4387 
Q 3406 4025 3406 3419 
Q 3406 3131 3298 2873 
Q 3191 2616 2906 2266 
Q 2828 2175 2409 1742 
Q 1991 1309 1228 531 
z
" transform="scale(0.015625)"/>
       </defs>
       <use xlink:href="#DejaVuSans-32"/>
       <use xlink:href="#DejaVuSans-30" x="63.623047"/>
       <use xlink:href="#DejaVuSans-30" x="127.246094"/>
      </g>
     </g>
    </g>
    <g id="xtick_6">
     <g id="line2d_6">
      <g>
       <use xlink:href="#m86d54172d2" x="255.301981" y="288.430125" style="stroke: #000000; stroke-width: 0.8"/>
      </g>
     </g>
     <g id="text_6">
      <!-- 250 -->
      <g transform="translate(245.758231 303.028562) scale(0.1 -0.1)">
       <use xlink:href="#DejaVuSans-32"/>
       <use xlink:href="#DejaVuSans-35" x="63.623047"/>
       <use xlink:href="#DejaVuSans-30" x="127.246094"/>
      </g>
     </g>
    </g>
    <g id="xtick_7">
     <g id="line2d_7">
      <g>
       <use xlink:href="#m86d54172d2" x="295.185832" y="288.430125" style="stroke: #000000; stroke-width: 0.8"/>
      </g>
     </g>
     <g id="text_7">
      <!-- 300 -->
      <g transform="translate(285.642082 303.028562) scale(0.1 -0.1)">
       <defs>
        <path id="DejaVuSans-33" d="M 2597 2516 
Q 3050 2419 3304 2112 
Q 3559 1806 3559 1356 
Q 3559 666 3084 287 
Q 2609 -91 1734 -91 
Q 1441 -91 1130 -33 
Q 819 25 488 141 
L 488 750 
Q 750 597 1062 519 
Q 1375 441 1716 441 
Q 2309 441 2620 675 
Q 2931 909 2931 1356 
Q 2931 1769 2642 2001 
Q 2353 2234 1838 2234 
L 1294 2234 
L 1294 2753 
L 1863 2753 
Q 2328 2753 2575 2939 
Q 2822 3125 2822 3475 
Q 2822 3834 2567 4026 
Q 2313 4219 1838 4219 
Q 1578 4219 1281 4162 
Q 984 4106 628 3988 
L 628 4550 
Q 988 4650 1302 4700 
Q 1616 4750 1894 4750 
Q 2613 4750 3031 4423 
Q 3450 4097 3450 3541 
Q 3450 3153 3228 2886 
Q 3006 2619 2597 2516 
z
" transform="scale(0.015625)"/>
       </defs>
       <use xlink:href="#DejaVuSans-33"/>
       <use xlink:href="#DejaVuSans-30" x="63.623047"/>
       <use xlink:href="#DejaVuSans-30" x="127.246094"/>
      </g>
     </g>
    </g>
    <g id="xtick_8">
     <g id="line2d_8">
      <g>
       <use xlink:href="#m86d54172d2" x="335.069683" y="288.430125" style="stroke: #000000; stroke-width: 0.8"/>
      </g>
     </g>
     <g id="text_8">
      <!-- 350 -->
      <g transform="translate(325.525933 303.028562) scale(0.1 -0.1)">
       <use xlink:href="#DejaVuSans-33"/>
       <use xlink:href="#DejaVuSans-35" x="63.623047"/>
       <use xlink:href="#DejaVuSans-30" x="127.246094"/>
      </g>
     </g>
    </g>
    <g id="xtick_9">
     <g id="line2d_9">
      <g>
       <use xlink:href="#m86d54172d2" x="374.953534" y="288.430125" style="stroke: #000000; stroke-width: 0.8"/>
      </g>
     </g>
     <g id="text_9">
      <!-- 400 -->
      <g transform="translate(365.409784 303.028562) scale(0.1 -0.1)">
       <defs>
        <path id="DejaVuSans-34" d="M 2419 4116 
L 825 1625 
L 2419 1625 
L 2419 4116 
z
M 2253 4666 
L 3047 4666 
L 3047 1625 
L 3713 1625 
L 3713 1100 
L 3047 1100 
L 3047 0 
L 2419 0 
L 2419 1100 
L 313 1100 
L 313 1709 
L 2253 4666 
z
" transform="scale(0.015625)"/>
       </defs>
       <use xlink:href="#DejaVuSans-34"/>
       <use xlink:href="#DejaVuSans-30" x="63.623047"/>
       <use xlink:href="#DejaVuSans-30" x="127.246094"/>
      </g>
     </g>
    </g>
   </g>
   <g id="matplotlib.axis_2">
    <g id="ytick_1">
     <g id="line2d_10">
      <defs>
       <path id="m9d32a2b93d" d="M 0 0 
L -3.5 0 
" style="stroke: #000000; stroke-width: 0.8"/>
      </defs>
      <g>
       <use xlink:href="#m9d32a2b93d" x="39.65" y="277.498149" style="stroke: #000000; stroke-width: 0.8"/>
      </g>
     </g>
     <g id="text_10">
      <!-- 0 -->
      <g transform="translate(26.2875 281.297368) scale(0.1 -0.1)">
       <use xlink:href="#DejaVuSans-30"/>
      </g>
     </g>
    </g>
    <g id="ytick_2">
     <g id="line2d_11">
      <g>
       <use xlink:href="#m9d32a2b93d" x="39.65" y="246.672196" style="stroke: #000000; stroke-width: 0.8"/>
      </g>
     </g>
     <g id="text_11">
      <!-- 250 -->
      <g transform="translate(13.5625 250.471414) scale(0.1 -0.1)">
       <use xlink:href="#DejaVuSans-32"/>
       <use xlink:href="#DejaVuSans-35" x="63.623047"/>
       <use xlink:href="#DejaVuSans-30" x="127.246094"/>
      </g>
     </g>
    </g>
    <g id="ytick_3">
     <g id="line2d_12">
      <g>
       <use xlink:href="#m9d32a2b93d" x="39.65" y="215.846242" style="stroke: #000000; stroke-width: 0.8"/>
      </g>
     </g>
     <g id="text_12">
      <!-- 500 -->
      <g transform="translate(13.5625 219.645461) scale(0.1 -0.1)">
       <use xlink:href="#DejaVuSans-35"/>
       <use xlink:href="#DejaVuSans-30" x="63.623047"/>
       <use xlink:href="#DejaVuSans-30" x="127.246094"/>
      </g>
     </g>
    </g>
    <g id="ytick_4">
     <g id="line2d_13">
      <g>
       <use xlink:href="#m9d32a2b93d" x="39.65" y="185.020288" style="stroke: #000000; stroke-width: 0.8"/>
      </g>
     </g>
     <g id="text_13">
      <!-- 750 -->
      <g transform="translate(13.5625 188.819507) scale(0.1 -0.1)">
       <defs>
        <path id="DejaVuSans-37" d="M 525 4666 
L 3525 4666 
L 3525 4397 
L 1831 0 
L 1172 0 
L 2766 4134 
L 525 4134 
L 525 4666 
z
" transform="scale(0.015625)"/>
       </defs>
       <use xlink:href="#DejaVuSans-37"/>
       <use xlink:href="#DejaVuSans-35" x="63.623047"/>
       <use xlink:href="#DejaVuSans-30" x="127.246094"/>
      </g>
     </g>
    </g>
    <g id="ytick_5">
     <g id="line2d_14">
      <g>
       <use xlink:href="#m9d32a2b93d" x="39.65" y="154.194335" style="stroke: #000000; stroke-width: 0.8"/>
      </g>
     </g>
     <g id="text_14">
      <!-- 1000 -->
      <g transform="translate(7.2 157.993554) scale(0.1 -0.1)">
       <use xlink:href="#DejaVuSans-31"/>
       <use xlink:href="#DejaVuSans-30" x="63.623047"/>
       <use xlink:href="#DejaVuSans-30" x="127.246094"/>
       <use xlink:href="#DejaVuSans-30" x="190.869141"/>
      </g>
     </g>
    </g>
    <g id="ytick_6">
     <g id="line2d_15">
      <g>
       <use xlink:href="#m9d32a2b93d" x="39.65" y="123.368381" style="stroke: #000000; stroke-width: 0.8"/>
      </g>
     </g>
     <g id="text_15">
      <!-- 1250 -->
      <g transform="translate(7.2 127.1676) scale(0.1 -0.1)">
       <use xlink:href="#DejaVuSans-31"/>
       <use xlink:href="#DejaVuSans-32" x="63.623047"/>
       <use xlink:href="#DejaVuSans-35" x="127.246094"/>
       <use xlink:href="#DejaVuSans-30" x="190.869141"/>
      </g>
     </g>
    </g>
    <g id="ytick_7">
     <g id="line2d_16">
      <g>
       <use xlink:href="#m9d32a2b93d" x="39.65" y="92.542428" style="stroke: #000000; stroke-width: 0.8"/>
      </g>
     </g>
     <g id="text_16">
      <!-- 1500 -->
      <g transform="translate(7.2 96.341646) scale(0.1 -0.1)">
       <use xlink:href="#DejaVuSans-31"/>
       <use xlink:href="#DejaVuSans-35" x="63.623047"/>
       <use xlink:href="#DejaVuSans-30" x="127.246094"/>
       <use xlink:href="#DejaVuSans-30" x="190.869141"/>
      </g>
     </g>
    </g>
    <g id="ytick_8">
     <g id="line2d_17">
      <g>
       <use xlink:href="#m9d32a2b93d" x="39.65" y="61.716474" style="stroke: #000000; stroke-width: 0.8"/>
      </g>
     </g>
     <g id="text_17">
      <!-- 1750 -->
      <g transform="translate(7.2 65.515693) scale(0.1 -0.1)">
       <use xlink:href="#DejaVuSans-31"/>
       <use xlink:href="#DejaVuSans-37" x="63.623047"/>
       <use xlink:href="#DejaVuSans-35" x="127.246094"/>
       <use xlink:href="#DejaVuSans-30" x="190.869141"/>
      </g>
     </g>
    </g>
    <g id="ytick_9">
     <g id="line2d_18">
      <g>
       <use xlink:href="#m9d32a2b93d" x="39.65" y="30.89052" style="stroke: #000000; stroke-width: 0.8"/>
      </g>
     </g>
     <g id="text_18">
      <!-- 2000 -->
      <g transform="translate(7.2 34.689739) scale(0.1 -0.1)">
       <use xlink:href="#DejaVuSans-32"/>
       <use xlink:href="#DejaVuSans-30" x="63.623047"/>
       <use xlink:href="#DejaVuSans-30" x="127.246094"/>
       <use xlink:href="#DejaVuSans-30" x="190.869141"/>
      </g>
     </g>
    </g>
   </g>
   <g id="line2d_19">
    <path d="M 55.882727 258.417082 
L 56.680404 271.140475 
L 57.478081 265.716903 
L 58.275758 276.255044 
L 61.466466 275.947234 
L 62.264143 275.948536 
L 63.06182 249.865476 
L 63.859497 266.513897 
L 64.657174 274.99139 
L 65.454851 274.932208 
L 66.252528 266.33175 
L 67.050205 247.688315 
L 67.847883 273.72266 
L 71.836268 273.635467 
L 72.633945 246.936361 
L 73.431622 263.206192 
L 74.229299 273.617302 
L 75.026976 273.61804 
L 75.824653 259.799967 
L 76.62233 236.380967 
L 77.420007 272.288506 
L 79.015361 272.438811 
L 80.610715 272.410748 
L 81.408392 271.835859 
L 82.206069 238.486978 
L 83.003746 259.667472 
L 83.801423 272.443886 
L 84.5991 272.444303 
L 85.396777 254.457181 
L 86.194454 220.994538 
L 86.992131 272.208419 
L 87.789808 272.133187 
L 88.587485 272.237144 
L 90.182839 272.73852 
L 90.980516 272.8085 
L 91.778193 235.810647 
L 92.57587 259.097222 
L 93.373547 273.172054 
L 94.171224 273.163199 
L 94.968901 259.120995 
L 95.766578 235.539532 
L 96.564255 272.151116 
L 98.957286 271.698185 
L 99.754963 271.555516 
L 100.55264 271.224316 
L 101.350317 220.603619 
L 102.147994 254.895491 
L 102.945671 271.96942 
L 103.743348 271.974668 
L 104.541025 255.274258 
L 105.338702 230.651488 
L 106.136379 271.478521 
L 107.731733 271.229106 
L 109.327087 271.262202 
L 110.124764 271.588822 
L 110.922441 213.24237 
L 111.720118 251.394588 
L 112.517795 272.530459 
L 113.315472 272.527076 
L 114.113149 251.425775 
L 114.910826 216.240031 
L 115.708503 271.520321 
L 116.50618 271.381031 
L 117.303857 271.911375 
L 118.101535 271.65384 
L 119.696889 271.873197 
L 120.494566 206.52082 
L 121.292243 246.557977 
L 122.08992 271.16973 
L 122.887597 271.168323 
L 123.685274 256.538346 
L 124.482951 221.530201 
L 125.280628 269.941034 
L 126.078305 270.492768 
L 126.875982 270.85417 
L 128.471336 271.257422 
L 129.269013 261.753459 
L 130.06669 228.459054 
L 130.864367 250.80754 
L 131.662044 263.871878 
L 132.459721 263.892344 
L 133.257398 223.260669 
L 134.055075 227.059917 
L 134.852752 263.412476 
L 135.650429 263.337386 
L 137.245783 262.647704 
L 138.04346 262.6269 
L 138.841137 262.76987 
L 139.638814 34.414125 
L 140.436491 179.769237 
L 141.234168 272.621581 
L 142.031845 272.648168 
L 142.829522 256.07942 
L 143.627199 215.924997 
L 144.424876 272.76411 
L 145.222553 272.515952 
L 146.02023 272.143509 
L 148.413261 272.099573 
L 149.210938 231.295307 
L 150.008615 254.973622 
L 150.806292 272.190526 
L 151.603969 272.174966 
L 152.401646 256.292559 
L 153.199323 226.574803 
L 153.997 271.833115 
L 156.390031 271.55755 
L 157.187708 271.69836 
L 157.985385 271.675942 
L 158.783062 208.287954 
L 159.580739 249.650822 
L 160.378416 272.165924 
L 161.176093 272.184282 
L 161.97377 258.087514 
L 162.771447 232.821664 
L 163.569124 271.90329 
L 164.366801 272.584561 
L 165.962155 272.644798 
L 167.557509 272.985301 
L 168.355187 234.363592 
L 169.152864 259.439397 
L 169.950541 273.420895 
L 170.748218 273.425954 
L 171.545895 259.291715 
L 172.343572 233.917476 
L 173.141249 272.812874 
L 173.938926 272.755669 
L 174.736603 272.55922 
L 175.53428 272.605782 
L 176.331957 272.820734 
L 177.129634 272.724149 
L 177.927311 229.57662 
L 178.724988 258.736154 
L 179.522665 272.135732 
L 180.320342 272.133022 
L 181.118019 252.940919 
L 181.915696 226.896438 
L 182.713373 270.44906 
L 185.106404 270.015383 
L 185.904081 270.444879 
L 186.701758 271.759532 
L 187.499435 225.7884 
L 188.297112 257.773835 
L 189.094789 272.966554 
L 189.892466 272.954322 
L 190.690143 257.34294 
L 191.48782 230.715378 
L 192.285497 273.138182 
L 193.880851 272.848333 
L 194.678528 272.905121 
L 195.476205 272.676397 
L 196.273882 272.72801 
L 197.071559 218.972107 
L 197.869236 255.029768 
L 198.666913 271.882905 
L 199.46459 271.887258 
L 200.262267 254.867588 
L 201.059944 229.254466 
L 201.857621 271.026967 
L 203.452975 271.393464 
L 205.048329 271.198825 
L 205.846006 270.862271 
L 206.643683 217.85187 
L 207.44136 252.66002 
L 208.239037 272.31074 
L 209.036714 272.315221 
L 209.834391 256.078214 
L 210.632068 230.173993 
L 211.429745 272.555499 
L 213.822776 272.219649 
L 214.620453 272.121851 
L 215.41813 272.144184 
L 216.215807 225.71978 
L 217.013484 257.250195 
L 217.811161 272.732675 
L 218.608839 272.733666 
L 219.406516 256.09354 
L 220.204193 225.643972 
L 221.00187 273.127769 
L 222.597224 273.196391 
L 224.990255 273.357905 
L 225.787932 235.601497 
L 226.585609 260.858603 
L 227.383286 273.797666 
L 228.180963 273.771117 
L 228.97864 259.955011 
L 229.776317 233.057488 
L 230.573994 272.855221 
L 231.371671 272.784566 
L 232.169348 272.832152 
L 232.967025 272.763106 
L 233.764702 272.979924 
L 234.562379 272.953579 
L 235.360056 237.172517 
L 236.157733 260.09207 
L 236.95541 273.426134 
L 237.753087 273.425569 
L 238.550764 258.189765 
L 239.348441 231.019198 
L 240.146118 272.349011 
L 240.943795 271.811135 
L 241.741472 271.688464 
L 242.539149 271.713437 
L 244.134503 271.919202 
L 244.93218 237.833718 
L 245.729857 258.237895 
L 246.527534 272.654535 
L 247.325211 272.666237 
L 248.122888 259.097208 
L 248.920565 237.841002 
L 249.718242 272.275778 
L 250.515919 271.964535 
L 251.313596 272.209799 
L 252.90895 272.149847 
L 253.706627 272.171654 
L 254.504304 227.594035 
L 255.301981 257.526912 
L 256.099658 273.152623 
L 256.897335 273.164163 
L 257.695012 258.285362 
L 258.492689 235.359637 
L 259.290366 272.932423 
L 260.088043 272.967214 
L 260.88572 272.831732 
L 262.481074 272.864007 
L 263.278751 273.003639 
L 264.076428 225.125321 
L 264.874105 256.250861 
L 265.671782 273.084316 
L 266.469459 273.117832 
L 267.267136 257.034326 
L 268.064813 231.399548 
L 268.862491 270.717271 
L 269.660168 272.090183 
L 270.457845 271.908219 
L 272.053199 272.09212 
L 272.850876 272.253554 
L 273.648553 235.671578 
L 274.44623 258.554021 
L 275.243907 272.926889 
L 276.041584 272.946422 
L 276.839261 259.307536 
L 277.636938 234.731598 
L 278.434615 272.832177 
L 279.232292 272.688954 
L 282.423 272.664957 
L 283.220677 224.837605 
L 284.018354 257.713977 
L 284.816031 272.394294 
L 285.613708 272.420972 
L 286.411385 254.35105 
L 287.209062 222.432381 
L 288.006739 272.287128 
L 291.995124 272.462908 
L 292.792801 226.906653 
L 293.590478 257.206627 
L 294.388155 272.652051 
L 295.185832 272.642326 
L 295.983509 257.670799 
L 296.781186 231.074002 
L 297.578863 272.439998 
L 299.971894 272.550369 
L 300.769571 272.705097 
L 301.567248 272.617046 
L 302.364925 236.561744 
L 303.162602 259.159965 
L 303.960279 272.515902 
L 304.757956 272.529708 
L 305.555633 251.623112 
L 306.35331 212.132405 
L 307.150987 272.644123 
L 308.746341 272.59721 
L 310.341695 272.601573 
L 311.139372 272.601731 
L 311.937049 240.282932 
L 312.734726 258.541359 
L 313.532403 272.992957 
L 314.33008 272.982477 
L 315.127757 260.796704 
L 315.925434 237.030183 
L 316.723111 272.45477 
L 319.116143 272.443943 
L 319.91382 272.430378 
L 320.711497 272.86936 
L 321.509174 221.524382 
L 322.306851 255.547298 
L 323.104528 272.730079 
L 323.902205 272.73135 
L 324.699882 259.969053 
L 325.497559 230.744416 
L 326.295236 271.933071 
L 327.092913 270.541043 
L 329.485944 270.654633 
L 330.283621 270.95827 
L 331.081298 223.579711 
L 331.878975 257.102482 
L 332.676652 271.276128 
L 333.474329 271.286434 
L 334.272006 250.780342 
L 335.069683 208.701087 
L 335.86736 272.300538 
L 336.665037 272.29548 
L 337.462714 272.421979 
L 338.260391 272.690072 
L 339.058068 272.794215 
L 339.855745 272.595463 
L 340.653422 232.640435 
L 341.451099 258.90017 
L 342.248776 272.457648 
L 343.046453 272.467257 
L 343.84413 257.239463 
L 344.641807 233.708592 
L 345.439484 272.416807 
L 348.630192 272.355589 
L 349.427869 272.424707 
L 350.225546 225.310442 
L 351.023223 255.532475 
L 351.8209 273.731701 
L 352.618577 273.729034 
L 353.416254 261.734336 
L 354.213931 242.179696 
L 355.011608 273.077074 
L 357.404639 273.239547 
L 358.202316 273.044361 
L 358.999993 273.153152 
L 359.79767 244.323077 
L 360.595347 262.579721 
L 361.393024 273.965269 
L 362.190701 273.999007 
L 362.988378 265.610329 
L 363.786055 250.516738 
L 364.583732 273.956074 
L 366.976763 274.15545 
L 368.572117 274.370066 
L 369.369795 255.973054 
L 370.167472 268.028459 
L 370.965149 275.593251 
L 371.762826 275.637866 
L 372.560503 270.845997 
L 373.35818 259.655289 
L 374.155857 276.334125 
L 374.953534 276.291634 
L 376.548888 275.449177 
L 378.144242 275.523991 
L 378.941919 266.795854 
L 379.739596 271.252598 
L 380.537273 258.444889 
L 380.537273 258.444889 
" clip-path="url(#p5bb966d0e9)" style="fill: none; stroke: #1f77b4; stroke-width: 1.5; stroke-linecap: square"/>
   </g>
   <g id="patch_3">
    <path d="M 39.65 288.430125 
L 39.65 22.318125 
" style="fill: none; stroke: #000000; stroke-width: 0.8; stroke-linejoin: miter; stroke-linecap: square"/>
   </g>
   <g id="patch_4">
    <path d="M 396.77 288.430125 
L 396.77 22.318125 
" style="fill: none; stroke: #000000; stroke-width: 0.8; stroke-linejoin: miter; stroke-linecap: square"/>
   </g>
   <g id="patch_5">
    <path d="M 39.65 288.430125 
L 396.77 288.430125 
" style="fill: none; stroke: #000000; stroke-width: 0.8; stroke-linejoin: miter; stroke-linecap: square"/>
   </g>
   <g id="patch_6">
    <path d="M 39.65 22.318125 
L 396.77 22.318125 
" style="fill: none; stroke: #000000; stroke-width: 0.8; stroke-linejoin: miter; stroke-linecap: square"/>
   </g>
   <g id="text_19">
    <!-- Fast Flux -->
    <g transform="translate(191.773438 16.318125) scale(0.12 -0.12)">
     <defs>
      <path id="DejaVuSans-46" d="M 628 4666 
L 3309 4666 
L 3309 4134 
L 1259 4134 
L 1259 2759 
L 3109 2759 
L 3109 2228 
L 1259 2228 
L 1259 0 
L 628 0 
L 628 4666 
z
" transform="scale(0.015625)"/>
      <path id="DejaVuSans-61" d="M 2194 1759 
Q 1497 1759 1228 1600 
Q 959 1441 959 1056 
Q 959 750 1161 570 
Q 1363 391 1709 391 
Q 2188 391 2477 730 
Q 2766 1069 2766 1631 
L 2766 1759 
L 2194 1759 
z
M 3341 1997 
L 3341 0 
L 2766 0 
L 2766 531 
Q 2569 213 2275 61 
Q 1981 -91 1556 -91 
Q 1019 -91 701 211 
Q 384 513 384 1019 
Q 384 1609 779 1909 
Q 1175 2209 1959 2209 
L 2766 2209 
L 2766 2266 
Q 2766 2663 2505 2880 
Q 2244 3097 1772 3097 
Q 1472 3097 1187 3025 
Q 903 2953 641 2809 
L 641 3341 
Q 956 3463 1253 3523 
Q 1550 3584 1831 3584 
Q 2591 3584 2966 3190 
Q 3341 2797 3341 1997 
z
" transform="scale(0.015625)"/>
      <path id="DejaVuSans-73" d="M 2834 3397 
L 2834 2853 
Q 2591 2978 2328 3040 
Q 2066 3103 1784 3103 
Q 1356 3103 1142 2972 
Q 928 2841 928 2578 
Q 928 2378 1081 2264 
Q 1234 2150 1697 2047 
L 1894 2003 
Q 2506 1872 2764 1633 
Q 3022 1394 3022 966 
Q 3022 478 2636 193 
Q 2250 -91 1575 -91 
Q 1294 -91 989 -36 
Q 684 19 347 128 
L 347 722 
Q 666 556 975 473 
Q 1284 391 1588 391 
Q 1994 391 2212 530 
Q 2431 669 2431 922 
Q 2431 1156 2273 1281 
Q 2116 1406 1581 1522 
L 1381 1569 
Q 847 1681 609 1914 
Q 372 2147 372 2553 
Q 372 3047 722 3315 
Q 1072 3584 1716 3584 
Q 2034 3584 2315 3537 
Q 2597 3491 2834 3397 
z
" transform="scale(0.015625)"/>
      <path id="DejaVuSans-74" d="M 1172 4494 
L 1172 3500 
L 2356 3500 
L 2356 3053 
L 1172 3053 
L 1172 1153 
Q 1172 725 1289 603 
Q 1406 481 1766 481 
L 2356 481 
L 2356 0 
L 1766 0 
Q 1100 0 847 248 
Q 594 497 594 1153 
L 594 3053 
L 172 3053 
L 172 3500 
L 594 3500 
L 594 4494 
L 1172 4494 
z
" transform="scale(0.015625)"/>
      <path id="DejaVuSans-20" transform="scale(0.015625)"/>
      <path id="DejaVuSans-6c" d="M 603 4863 
L 1178 4863 
L 1178 0 
L 603 0 
L 603 4863 
z
" transform="scale(0.015625)"/>
      <path id="DejaVuSans-75" d="M 544 1381 
L 544 3500 
L 1119 3500 
L 1119 1403 
Q 1119 906 1312 657 
Q 1506 409 1894 409 
Q 2359 409 2629 706 
Q 2900 1003 2900 1516 
L 2900 3500 
L 3475 3500 
L 3475 0 
L 2900 0 
L 2900 538 
Q 2691 219 2414 64 
Q 2138 -91 1772 -91 
Q 1169 -91 856 284 
Q 544 659 544 1381 
z
M 1991 3584 
L 1991 3584 
z
" transform="scale(0.015625)"/>
      <path id="DejaVuSans-78" d="M 3513 3500 
L 2247 1797 
L 3578 0 
L 2900 0 
L 1881 1375 
L 863 0 
L 184 0 
L 1544 1831 
L 300 3500 
L 978 3500 
L 1906 2253 
L 2834 3500 
L 3513 3500 
z
" transform="scale(0.015625)"/>
     </defs>
     <use xlink:href="#DejaVuSans-46"/>
     <use xlink:href="#DejaVuSans-61" x="48.394531"/>
     <use xlink:href="#DejaVuSans-73" x="109.673828"/>
     <use xlink:href="#DejaVuSans-74" x="161.773438"/>
     <use xlink:href="#DejaVuSans-20" x="200.982422"/>
     <use xlink:href="#DejaVuSans-46" x="232.769531"/>
     <use xlink:href="#DejaVuSans-6c" x="290.289062"/>
     <use xlink:href="#DejaVuSans-75" x="318.072266"/>
     <use xlink:href="#DejaVuSans-78" x="381.451172"/>
    </g>
   </g>
  </g>
 </g>
 <defs>
  <clipPath id="p5bb966d0e9">
   <rect x="39.65" y="22.318125" width="357.12" height="266.112"/>
  </clipPath>
 </defs>
</svg>
