<?xml version="1.0" encoding="utf-8" standalone="no"?>
<!DOCTYPE svg PUBLIC "-//W3C//DTD SVG 1.1//EN"
  "http://www.w3.org/Graphics/SVG/1.1/DTD/svg11.dtd">
<svg xmlns:xlink="http://www.w3.org/1999/xlink" width="407.148125pt" height="312.30825pt" viewBox="0 0 407.148125 312.30825" xmlns="http://www.w3.org/2000/svg" version="1.1">
 <metadata>
  <rdf:RDF xmlns:dc="http://purl.org/dc/elements/1.1/" xmlns:cc="http://creativecommons.org/ns#" xmlns:rdf="http://www.w3.org/1999/02/22-rdf-syntax-ns#">
   <cc:Work>
    <dc:type rdf:resource="http://purl.org/dc/dcmitype/StillImage"/>
    <dc:date>2024-03-22T10:08:29.373188</dc:date>
    <dc:format>image/svg+xml</dc:format>
    <dc:creator>
     <cc:Agent>
      <dc:title>Matplotlib v3.8.3, https://matplotlib.org/</dc:title>
     </cc:Agent>
    </dc:creator>
   </cc:Work>
  </rdf:RDF>
 </metadata>
 <defs>
  <style type="text/css">*{stroke-linejoin: round; stroke-linecap: butt}</style>
 </defs>
 <g id="figure_1">
  <g id="patch_1">
   <path d="M 0 312.30825 
L 407.148125 312.30825 
L 407.148125 0 
L 0 0 
z
" style="fill: #ffffff"/>
  </g>
  <g id="axes_1">
   <g id="patch_2">
    <path d="M 42.828125 288.430125 
L 399.948125 288.430125 
L 399.948125 22.318125 
L 42.828125 22.318125 
z
" style="fill: #ffffff"/>
   </g>
   <g id="matplotlib.axis_1">
    <g id="xtick_1">
     <g id="line2d_1">
      <defs>
       <path id="mfa51ca8f72" d="M 0 0 
L 0 3.5 
" style="stroke: #000000; stroke-width: 0.8"/>
      </defs>
      <g>
       <use xlink:href="#mfa51ca8f72" x="42.828125" y="288.430125" style="stroke: #000000; stroke-width: 0.8"/>
      </g>
     </g>
     <g id="text_1">
      <!-- 0 -->
      <g transform="translate(39.646875 303.028562) scale(0.1 -0.1)">
       <defs>
        <path id="DejaVuSans-30" d="M 2034 4250 
Q 1547 4250 1301 3770 
Q 1056 3291 1056 2328 
Q 1056 1369 1301 889 
Q 1547 409 2034 409 
Q 2525 409 2770 889 
Q 3016 1369 3016 2328 
Q 3016 3291 2770 3770 
Q 2525 4250 2034 4250 
z
M 2034 4750 
Q 2819 4750 3233 4129 
Q 3647 3509 3647 2328 
Q 3647 1150 3233 529 
Q 2819 -91 2034 -91 
Q 1250 -91 836 529 
Q 422 1150 422 2328 
Q 422 3509 836 4129 
Q 1250 4750 2034 4750 
z
" transform="scale(0.015625)"/>
       </defs>
       <use xlink:href="#DejaVuSans-30"/>
      </g>
     </g>
    </g>
    <g id="xtick_2">
     <g id="line2d_2">
      <g>
       <use xlink:href="#mfa51ca8f72" x="84.442742" y="288.430125" style="stroke: #000000; stroke-width: 0.8"/>
      </g>
     </g>
     <g id="text_2">
      <!-- 5 -->
      <g transform="translate(81.261492 303.028562) scale(0.1 -0.1)">
       <defs>
        <path id="DejaVuSans-35" d="M 691 4666 
L 3169 4666 
L 3169 4134 
L 1269 4134 
L 1269 2991 
Q 1406 3038 1543 3061 
Q 1681 3084 1819 3084 
Q 2600 3084 3056 2656 
Q 3513 2228 3513 1497 
Q 3513 744 3044 326 
Q 2575 -91 1722 -91 
Q 1428 -91 1123 -41 
Q 819 9 494 109 
L 494 744 
Q 775 591 1075 516 
Q 1375 441 1709 441 
Q 2250 441 2565 725 
Q 2881 1009 2881 1497 
Q 2881 1984 2565 2268 
Q 2250 2553 1709 2553 
Q 1456 2553 1204 2497 
Q 953 2441 691 2322 
L 691 4666 
z
" transform="scale(0.015625)"/>
       </defs>
       <use xlink:href="#DejaVuSans-35"/>
      </g>
     </g>
    </g>
    <g id="xtick_3">
     <g id="line2d_3">
      <g>
       <use xlink:href="#mfa51ca8f72" x="126.05736" y="288.430125" style="stroke: #000000; stroke-width: 0.8"/>
      </g>
     </g>
     <g id="text_3">
      <!-- 10 -->
      <g transform="translate(119.69486 303.028562) scale(0.1 -0.1)">
       <defs>
        <path id="DejaVuSans-31" d="M 794 531 
L 1825 531 
L 1825 4091 
L 703 3866 
L 703 4441 
L 1819 4666 
L 2450 4666 
L 2450 531 
L 3481 531 
L 3481 0 
L 794 0 
L 794 531 
z
" transform="scale(0.015625)"/>
       </defs>
       <use xlink:href="#DejaVuSans-31"/>
       <use xlink:href="#DejaVuSans-30" x="63.623047"/>
      </g>
     </g>
    </g>
    <g id="xtick_4">
     <g id="line2d_4">
      <g>
       <use xlink:href="#mfa51ca8f72" x="167.671977" y="288.430125" style="stroke: #000000; stroke-width: 0.8"/>
      </g>
     </g>
     <g id="text_4">
      <!-- 15 -->
      <g transform="translate(161.309477 303.028562) scale(0.1 -0.1)">
       <use xlink:href="#DejaVuSans-31"/>
       <use xlink:href="#DejaVuSans-35" x="63.623047"/>
      </g>
     </g>
    </g>
    <g id="xtick_5">
     <g id="line2d_5">
      <g>
       <use xlink:href="#mfa51ca8f72" x="209.286594" y="288.430125" style="stroke: #000000; stroke-width: 0.8"/>
      </g>
     </g>
     <g id="text_5">
      <!-- 20 -->
      <g transform="translate(202.924094 303.028562) scale(0.1 -0.1)">
       <defs>
        <path id="DejaVuSans-32" d="M 1228 531 
L 3431 531 
L 3431 0 
L 469 0 
L 469 531 
Q 828 903 1448 1529 
Q 2069 2156 2228 2338 
Q 2531 2678 2651 2914 
Q 2772 3150 2772 3378 
Q 2772 3750 2511 3984 
Q 2250 4219 1831 4219 
Q 1534 4219 1204 4116 
Q 875 4013 500 3803 
L 500 4441 
Q 881 4594 1212 4672 
Q 1544 4750 1819 4750 
Q 2544 4750 2975 4387 
Q 3406 4025 3406 3419 
Q 3406 3131 3298 2873 
Q 3191 2616 2906 2266 
Q 2828 2175 2409 1742 
Q 1991 1309 1228 531 
z
" transform="scale(0.015625)"/>
       </defs>
       <use xlink:href="#DejaVuSans-32"/>
       <use xlink:href="#DejaVuSans-30" x="63.623047"/>
      </g>
     </g>
    </g>
    <g id="xtick_6">
     <g id="line2d_6">
      <g>
       <use xlink:href="#mfa51ca8f72" x="250.901212" y="288.430125" style="stroke: #000000; stroke-width: 0.8"/>
      </g>
     </g>
     <g id="text_6">
      <!-- 25 -->
      <g transform="translate(244.538712 303.028562) scale(0.1 -0.1)">
       <use xlink:href="#DejaVuSans-32"/>
       <use xlink:href="#DejaVuSans-35" x="63.623047"/>
      </g>
     </g>
    </g>
    <g id="xtick_7">
     <g id="line2d_7">
      <g>
       <use xlink:href="#mfa51ca8f72" x="292.515829" y="288.430125" style="stroke: #000000; stroke-width: 0.8"/>
      </g>
     </g>
     <g id="text_7">
      <!-- 30 -->
      <g transform="translate(286.153329 303.028562) scale(0.1 -0.1)">
       <defs>
        <path id="DejaVuSans-33" d="M 2597 2516 
Q 3050 2419 3304 2112 
Q 3559 1806 3559 1356 
Q 3559 666 3084 287 
Q 2609 -91 1734 -91 
Q 1441 -91 1130 -33 
Q 819 25 488 141 
L 488 750 
Q 750 597 1062 519 
Q 1375 441 1716 441 
Q 2309 441 2620 675 
Q 2931 909 2931 1356 
Q 2931 1769 2642 2001 
Q 2353 2234 1838 2234 
L 1294 2234 
L 1294 2753 
L 1863 2753 
Q 2328 2753 2575 2939 
Q 2822 3125 2822 3475 
Q 2822 3834 2567 4026 
Q 2313 4219 1838 4219 
Q 1578 4219 1281 4162 
Q 984 4106 628 3988 
L 628 4550 
Q 988 4650 1302 4700 
Q 1616 4750 1894 4750 
Q 2613 4750 3031 4423 
Q 3450 4097 3450 3541 
Q 3450 3153 3228 2886 
Q 3006 2619 2597 2516 
z
" transform="scale(0.015625)"/>
       </defs>
       <use xlink:href="#DejaVuSans-33"/>
       <use xlink:href="#DejaVuSans-30" x="63.623047"/>
      </g>
     </g>
    </g>
    <g id="xtick_8">
     <g id="line2d_8">
      <g>
       <use xlink:href="#mfa51ca8f72" x="334.130446" y="288.430125" style="stroke: #000000; stroke-width: 0.8"/>
      </g>
     </g>
     <g id="text_8">
      <!-- 35 -->
      <g transform="translate(327.767946 303.028562) scale(0.1 -0.1)">
       <use xlink:href="#DejaVuSans-33"/>
       <use xlink:href="#DejaVuSans-35" x="63.623047"/>
      </g>
     </g>
    </g>
    <g id="xtick_9">
     <g id="line2d_9">
      <g>
       <use xlink:href="#mfa51ca8f72" x="375.745064" y="288.430125" style="stroke: #000000; stroke-width: 0.8"/>
      </g>
     </g>
     <g id="text_9">
      <!-- 40 -->
      <g transform="translate(369.382564 303.028562) scale(0.1 -0.1)">
       <defs>
        <path id="DejaVuSans-34" d="M 2419 4116 
L 825 1625 
L 2419 1625 
L 2419 4116 
z
M 2253 4666 
L 3047 4666 
L 3047 1625 
L 3713 1625 
L 3713 1100 
L 3047 1100 
L 3047 0 
L 2419 0 
L 2419 1100 
L 313 1100 
L 313 1709 
L 2253 4666 
z
" transform="scale(0.015625)"/>
       </defs>
       <use xlink:href="#DejaVuSans-34"/>
       <use xlink:href="#DejaVuSans-30" x="63.623047"/>
      </g>
     </g>
    </g>
   </g>
   <g id="matplotlib.axis_2">
    <g id="ytick_1">
     <g id="line2d_10">
      <defs>
       <path id="mcc41ab7197" d="M 0 0 
L -3.5 0 
" style="stroke: #000000; stroke-width: 0.8"/>
      </defs>
      <g>
       <use xlink:href="#mcc41ab7197" x="42.828125" y="281.589462" style="stroke: #000000; stroke-width: 0.8"/>
      </g>
     </g>
     <g id="text_10">
      <!-- 1.950 -->
      <g transform="translate(7.2 285.38868) scale(0.1 -0.1)">
       <defs>
        <path id="DejaVuSans-2e" d="M 684 794 
L 1344 794 
L 1344 0 
L 684 0 
L 684 794 
z
" transform="scale(0.015625)"/>
        <path id="DejaVuSans-39" d="M 703 97 
L 703 672 
Q 941 559 1184 500 
Q 1428 441 1663 441 
Q 2288 441 2617 861 
Q 2947 1281 2994 2138 
Q 2813 1869 2534 1725 
Q 2256 1581 1919 1581 
Q 1219 1581 811 2004 
Q 403 2428 403 3163 
Q 403 3881 828 4315 
Q 1253 4750 1959 4750 
Q 2769 4750 3195 4129 
Q 3622 3509 3622 2328 
Q 3622 1225 3098 567 
Q 2575 -91 1691 -91 
Q 1453 -91 1209 -44 
Q 966 3 703 97 
z
M 1959 2075 
Q 2384 2075 2632 2365 
Q 2881 2656 2881 3163 
Q 2881 3666 2632 3958 
Q 2384 4250 1959 4250 
Q 1534 4250 1286 3958 
Q 1038 3666 1038 3163 
Q 1038 2656 1286 2365 
Q 1534 2075 1959 2075 
z
" transform="scale(0.015625)"/>
       </defs>
       <use xlink:href="#DejaVuSans-31"/>
       <use xlink:href="#DejaVuSans-2e" x="63.623047"/>
       <use xlink:href="#DejaVuSans-39" x="95.410156"/>
       <use xlink:href="#DejaVuSans-35" x="159.033203"/>
       <use xlink:href="#DejaVuSans-30" x="222.65625"/>
      </g>
     </g>
    </g>
    <g id="ytick_2">
     <g id="line2d_11">
      <g>
       <use xlink:href="#mcc41ab7197" x="42.828125" y="236.512411" style="stroke: #000000; stroke-width: 0.8"/>
      </g>
     </g>
     <g id="text_11">
      <!-- 1.955 -->
      <g transform="translate(7.2 240.31163) scale(0.1 -0.1)">
       <use xlink:href="#DejaVuSans-31"/>
       <use xlink:href="#DejaVuSans-2e" x="63.623047"/>
       <use xlink:href="#DejaVuSans-39" x="95.410156"/>
       <use xlink:href="#DejaVuSans-35" x="159.033203"/>
       <use xlink:href="#DejaVuSans-35" x="222.65625"/>
      </g>
     </g>
    </g>
    <g id="ytick_3">
     <g id="line2d_12">
      <g>
       <use xlink:href="#mcc41ab7197" x="42.828125" y="191.435361" style="stroke: #000000; stroke-width: 0.8"/>
      </g>
     </g>
     <g id="text_12">
      <!-- 1.960 -->
      <g transform="translate(7.2 195.234579) scale(0.1 -0.1)">
       <defs>
        <path id="DejaVuSans-36" d="M 2113 2584 
Q 1688 2584 1439 2293 
Q 1191 2003 1191 1497 
Q 1191 994 1439 701 
Q 1688 409 2113 409 
Q 2538 409 2786 701 
Q 3034 994 3034 1497 
Q 3034 2003 2786 2293 
Q 2538 2584 2113 2584 
z
M 3366 4563 
L 3366 3988 
Q 3128 4100 2886 4159 
Q 2644 4219 2406 4219 
Q 1781 4219 1451 3797 
Q 1122 3375 1075 2522 
Q 1259 2794 1537 2939 
Q 1816 3084 2150 3084 
Q 2853 3084 3261 2657 
Q 3669 2231 3669 1497 
Q 3669 778 3244 343 
Q 2819 -91 2113 -91 
Q 1303 -91 875 529 
Q 447 1150 447 2328 
Q 447 3434 972 4092 
Q 1497 4750 2381 4750 
Q 2619 4750 2861 4703 
Q 3103 4656 3366 4563 
z
" transform="scale(0.015625)"/>
       </defs>
       <use xlink:href="#DejaVuSans-31"/>
       <use xlink:href="#DejaVuSans-2e" x="63.623047"/>
       <use xlink:href="#DejaVuSans-39" x="95.410156"/>
       <use xlink:href="#DejaVuSans-36" x="159.033203"/>
       <use xlink:href="#DejaVuSans-30" x="222.65625"/>
      </g>
     </g>
    </g>
    <g id="ytick_4">
     <g id="line2d_13">
      <g>
       <use xlink:href="#mcc41ab7197" x="42.828125" y="146.35831" style="stroke: #000000; stroke-width: 0.8"/>
      </g>
     </g>
     <g id="text_13">
      <!-- 1.965 -->
      <g transform="translate(7.2 150.157529) scale(0.1 -0.1)">
       <use xlink:href="#DejaVuSans-31"/>
       <use xlink:href="#DejaVuSans-2e" x="63.623047"/>
       <use xlink:href="#DejaVuSans-39" x="95.410156"/>
       <use xlink:href="#DejaVuSans-36" x="159.033203"/>
       <use xlink:href="#DejaVuSans-35" x="222.65625"/>
      </g>
     </g>
    </g>
    <g id="ytick_5">
     <g id="line2d_14">
      <g>
       <use xlink:href="#mcc41ab7197" x="42.828125" y="101.281259" style="stroke: #000000; stroke-width: 0.8"/>
      </g>
     </g>
     <g id="text_14">
      <!-- 1.970 -->
      <g transform="translate(7.2 105.080478) scale(0.1 -0.1)">
       <defs>
        <path id="DejaVuSans-37" d="M 525 4666 
L 3525 4666 
L 3525 4397 
L 1831 0 
L 1172 0 
L 2766 4134 
L 525 4134 
L 525 4666 
z
" transform="scale(0.015625)"/>
       </defs>
       <use xlink:href="#DejaVuSans-31"/>
       <use xlink:href="#DejaVuSans-2e" x="63.623047"/>
       <use xlink:href="#DejaVuSans-39" x="95.410156"/>
       <use xlink:href="#DejaVuSans-37" x="159.033203"/>
       <use xlink:href="#DejaVuSans-30" x="222.65625"/>
      </g>
     </g>
    </g>
    <g id="ytick_6">
     <g id="line2d_15">
      <g>
       <use xlink:href="#mcc41ab7197" x="42.828125" y="56.204209" style="stroke: #000000; stroke-width: 0.8"/>
      </g>
     </g>
     <g id="text_15">
      <!-- 1.975 -->
      <g transform="translate(7.2 60.003428) scale(0.1 -0.1)">
       <use xlink:href="#DejaVuSans-31"/>
       <use xlink:href="#DejaVuSans-2e" x="63.623047"/>
       <use xlink:href="#DejaVuSans-39" x="95.410156"/>
       <use xlink:href="#DejaVuSans-37" x="159.033203"/>
       <use xlink:href="#DejaVuSans-35" x="222.65625"/>
      </g>
     </g>
    </g>
    <g id="text_16">
     <!-- 1e17 -->
     <g transform="translate(42.828125 19.318125) scale(0.1 -0.1)">
      <defs>
       <path id="DejaVuSans-65" d="M 3597 1894 
L 3597 1613 
L 953 1613 
Q 991 1019 1311 708 
Q 1631 397 2203 397 
Q 2534 397 2845 478 
Q 3156 559 3463 722 
L 3463 178 
Q 3153 47 2828 -22 
Q 2503 -91 2169 -91 
Q 1331 -91 842 396 
Q 353 884 353 1716 
Q 353 2575 817 3079 
Q 1281 3584 2069 3584 
Q 2775 3584 3186 3129 
Q 3597 2675 3597 1894 
z
M 3022 2063 
Q 3016 2534 2758 2815 
Q 2500 3097 2075 3097 
Q 1594 3097 1305 2825 
Q 1016 2553 972 2059 
L 3022 2063 
z
" transform="scale(0.015625)"/>
      </defs>
      <use xlink:href="#DejaVuSans-31"/>
      <use xlink:href="#DejaVuSans-65" x="63.623047"/>
      <use xlink:href="#DejaVuSans-31" x="125.146484"/>
      <use xlink:href="#DejaVuSans-37" x="188.769531"/>
     </g>
    </g>
   </g>
   <g id="line2d_16">
    <path d="M 42.828125 269.09253 
L 43.785551 232.84225 
L 44.742978 142.378659 
L 45.700404 87.441267 
L 46.65783 61.431562 
L 47.615256 50.942057 
L 48.572683 59.399939 
L 49.530109 80.15528 
L 50.487535 132.601943 
L 51.444961 233.567619 
L 52.402388 265.310282 
L 53.359814 267.640578 
L 54.31724 237.049627 
L 55.274667 140.618618 
L 56.232093 85.007039 
L 57.189519 62.23899 
L 58.146945 52.358752 
L 59.104372 56.24462 
L 60.061798 81.548963 
L 61.019224 137.984478 
L 61.97665 236.025432 
L 62.934077 271.23152 
L 63.891503 271.059882 
L 64.848929 237.744909 
L 65.806356 143.565575 
L 66.763782 85.125996 
L 67.721208 61.510284 
L 68.678634 55.313358 
L 69.636061 59.071509 
L 70.593487 79.471326 
L 71.550913 137.08121 
L 72.508339 236.976157 
L 73.465766 268.465764 
L 74.423192 268.68459 
L 75.380618 234.908314 
L 76.338045 139.343491 
L 77.295471 77.282124 
L 78.252897 52.930487 
L 79.210323 47.859206 
L 80.16775 57.874032 
L 81.125176 79.494181 
L 82.082602 133.303097 
L 83.040028 235.149263 
L 83.997455 268.023001 
L 84.954881 269.450283 
L 85.912307 238.656687 
L 86.869734 140.8117 
L 87.82716 81.845 
L 88.784586 61.938829 
L 89.742012 50.69941 
L 90.699439 54.888691 
L 91.656865 77.153925 
L 92.614291 136.166089 
L 93.571717 233.197772 
L 94.529144 267.45756 
L 95.48657 265.228412 
L 96.443996 230.012695 
L 97.401423 133.404754 
L 98.358849 79.191565 
L 99.316275 59.172 
L 100.273701 49.437339 
L 101.231128 50.383812 
L 102.188554 80.489397 
L 103.14598 139.927741 
L 104.103407 235.658025 
L 105.060833 266.37388 
L 106.018259 263.725957 
L 106.975685 231.22431 
L 107.933112 138.445256 
L 108.890538 81.485539 
L 109.847964 53.187481 
L 110.80539 43.555271 
L 111.762817 55.144465 
L 112.720243 76.712032 
L 113.677669 131.13369 
L 114.635096 228.88668 
L 115.592522 263.110307 
L 116.549948 258.415214 
L 117.507374 227.077014 
L 118.464801 132.519745 
L 119.422227 74.185271 
L 120.379653 50.247179 
L 121.337079 43.788515 
L 122.294506 49.224763 
L 123.251932 75.55603 
L 124.209358 128.819425 
L 125.166785 230.304957 
L 126.124211 260.051681 
L 127.081637 265.898875 
L 128.039063 230.844445 
L 128.99649 132.760305 
L 129.953916 74.054639 
L 130.911342 53.354742 
L 131.868768 47.33808 
L 132.826195 52.929863 
L 133.783621 80.793584 
L 134.741047 138.546205 
L 135.698474 234.932572 
L 136.6559 266.46794 
L 137.613326 261.64984 
L 138.570752 227.023979 
L 139.528179 130.474152 
L 140.485605 76.754804 
L 141.443031 53.121729 
L 142.400457 44.335291 
L 143.357884 49.500777 
L 144.31531 77.194963 
L 145.272736 129.660163 
L 146.230163 227.514239 
L 147.187589 264.413015 
L 148.145015 265.795058 
L 149.102441 230.317103 
L 150.059868 130.184874 
L 151.017294 73.140195 
L 151.97472 45.893047 
L 152.932146 42.593373 
L 153.889573 45.191268 
L 154.846999 69.788863 
L 155.804425 125.449518 
L 156.761852 219.8965 
L 157.719278 260.078549 
L 158.676704 263.762979 
L 159.63413 226.256222 
L 160.591557 125.404033 
L 161.548983 67.365508 
L 162.506409 39.943908 
L 163.463835 34.414125 
L 164.421262 43.797692 
L 165.378688 69.935015 
L 166.336114 129.054398 
L 167.293541 224.606833 
L 168.250967 259.031644 
L 169.208393 260.781532 
L 170.165819 229.465199 
L 171.123246 129.943498 
L 172.080672 71.439308 
L 173.038098 43.811498 
L 173.995524 41.952316 
L 174.952951 52.448074 
L 175.910377 75.253758 
L 176.867803 126.119303 
L 177.82523 225.455303 
L 178.782656 259.021416 
L 179.740082 261.442515 
L 180.697508 227.857794 
L 181.654935 127.99705 
L 182.612361 67.398666 
L 183.569787 46.14198 
L 184.527213 36.416754 
L 185.48464 47.061146 
L 186.442066 72.767702 
L 187.399492 129.489515 
L 188.356919 227.346105 
L 189.314345 263.658651 
L 190.271771 260.059452 
L 191.229197 227.853849 
L 192.186624 130.899219 
L 193.14405 76.78845 
L 194.101476 48.675542 
L 195.058902 45.903808 
L 196.016329 50.51472 
L 196.973755 78.62601 
L 197.931181 133.434281 
L 198.888608 231.715839 
L 199.846034 263.939235 
L 200.80346 259.712504 
L 201.760886 227.014228 
L 202.718313 131.867208 
L 203.675739 80.340847 
L 204.633165 50.616747 
L 205.590591 40.017906 
L 206.548018 50.092037 
L 207.505444 70.008085 
L 208.46287 126.138121 
L 209.420297 228.399122 
L 210.377723 259.090646 
L 211.335149 257.004423 
L 212.292575 222.819193 
L 213.250002 124.983858 
L 214.207428 70.110014 
L 215.164854 50.631825 
L 216.12228 45.925087 
L 217.079707 49.379228 
L 218.037133 72.717044 
L 218.994559 128.276179 
L 219.951986 224.216948 
L 220.909412 257.743455 
L 221.866838 259.536099 
L 222.824264 225.099494 
L 223.781691 124.188305 
L 224.739117 72.758764 
L 225.696543 52.957326 
L 226.65397 45.31412 
L 227.611396 50.44225 
L 228.568822 76.251427 
L 229.526248 131.928036 
L 230.483675 223.216922 
L 231.441101 257.098188 
L 232.398527 257.653119 
L 233.355953 225.985579 
L 234.31338 132.443203 
L 235.270806 75.919466 
L 236.228232 46.816141 
L 237.185659 41.448117 
L 238.143085 48.904558 
L 239.100511 73.140996 
L 240.057937 126.957002 
L 241.015364 225.852305 
L 241.97279 261.709087 
L 242.930216 260.027858 
L 243.887642 224.677928 
L 244.845069 131.195949 
L 245.802495 73.883801 
L 246.759921 57.788331 
L 247.717348 51.803832 
L 248.674774 56.390857 
L 249.6322 76.325096 
L 250.589626 132.19482 
L 251.547053 231.696588 
L 252.504479 259.194357 
L 253.461905 260.167363 
L 254.419331 229.047496 
L 255.376758 132.691235 
L 256.334184 73.819378 
L 257.29161 49.822292 
L 258.249037 44.889527 
L 259.206463 56.188603 
L 260.163889 79.792192 
L 261.121315 135.849812 
L 262.078742 232.617824 
L 263.036168 264.297816 
L 263.993594 262.588144 
L 264.95102 229.989 
L 265.908447 137.117917 
L 266.865873 76.233675 
L 267.823299 49.312866 
L 268.780726 44.82715 
L 269.738152 54.762148 
L 270.695578 82.688814 
L 271.653004 136.478987 
L 272.610431 235.465117 
L 273.567857 267.75484 
L 274.525283 272.601293 
L 275.482709 237.983532 
L 276.440136 138.916299 
L 277.397562 80.797821 
L 278.354988 54.423403 
L 279.312415 45.958436 
L 280.269841 51.891045 
L 281.227267 75.936158 
L 282.184693 132.635942 
L 283.14212 229.376978 
L 284.099546 266.968832 
L 285.056972 266.346455 
L 286.014398 232.342803 
L 286.971825 135.275415 
L 287.929251 83.83399 
L 288.886677 57.494367 
L 289.844104 51.678781 
L 290.80153 56.104331 
L 291.758956 78.425969 
L 292.716382 140.16667 
L 293.673809 232.555571 
L 294.631235 270.848613 
L 295.588661 269.57639 
L 296.546087 239.773369 
L 297.503514 140.84492 
L 298.46094 81.393927 
L 299.418366 55.627503 
L 300.375793 52.300268 
L 301.333219 59.454757 
L 302.290645 80.875367 
L 303.248071 136.967304 
L 304.205498 231.647427 
L 305.162924 267.301266 
L 306.12035 268.278909 
L 307.077776 235.040372 
L 308.035203 133.932252 
L 308.992629 82.299495 
L 309.950055 59.936868 
L 310.907482 54.400009 
L 311.864908 57.404883 
L 312.822334 79.490007 
L 313.77976 139.004173 
L 314.737187 233.026649 
L 315.694613 264.459155 
L 316.652039 266.684759 
L 317.609465 233.30521 
L 318.566892 137.488283 
L 319.524318 82.612344 
L 320.481744 59.960495 
L 321.439171 51.579355 
L 322.396597 62.002962 
L 323.354023 86.425917 
L 324.311449 141.613207 
L 325.268876 241.403685 
L 326.226302 273.552846 
L 327.183728 276.334125 
L 328.141154 239.46097 
L 329.098581 145.871913 
L 330.056007 86.687952 
L 331.013433 61.429748 
L 331.97086 51.783102 
L 332.928286 57.353524 
L 333.885712 77.092619 
L 334.843138 131.218332 
L 335.800565 231.885509 
L 336.757991 267.658812 
L 337.715417 265.301316 
L 338.672843 233.17354 
L 339.63027 132.551299 
L 340.587696 77.402829 
L 341.545122 53.593495 
L 342.502549 48.402926 
L 343.459975 59.209189 
L 344.417401 78.875846 
L 345.374827 136.015815 
L 346.332254 232.741673 
L 347.28968 264.279728 
L 348.247106 267.142954 
L 349.204533 233.929613 
L 350.161959 135.857369 
L 351.119385 78.807462 
L 352.076811 58.248221 
L 353.034238 50.495066 
L 353.991664 55.841791 
L 354.94909 78.03871 
L 355.906516 130.557752 
L 356.863943 228.441627 
L 357.821369 264.803278 
L 358.778795 266.545826 
L 359.736222 232.7313 
L 360.693648 134.617638 
L 361.651074 74.950564 
L 362.6085 47.355938 
L 363.565927 39.012441 
L 364.523353 46.631113 
L 365.480779 72.445855 
L 366.438205 134.994198 
L 367.395632 230.884857 
L 368.353058 262.331758 
L 369.310484 260.866102 
L 370.267911 227.943591 
L 371.225337 133.408238 
L 372.182763 76.662709 
L 373.140189 53.266035 
L 374.097616 43.271886 
L 375.055042 55.647293 
L 376.012468 84.764604 
L 376.969894 134.296404 
L 377.927321 230.775839 
L 378.884747 263.29297 
L 379.842173 263.159199 
L 380.7996 229.420038 
L 381.757026 129.556937 
L 382.714452 76.330552 
L 383.671878 51.835427 
L 384.629305 42.743014 
L 385.586731 47.337036 
L 386.544157 75.829336 
L 387.501583 133.0099 
L 388.45901 229.256788 
L 389.416436 263.040586 
L 390.373862 262.076119 
L 391.331289 230.120329 
L 392.288715 132.396376 
L 393.246141 78.125389 
L 394.203567 55.635337 
L 395.160994 44.608557 
L 396.11842 53.781978 
L 397.075846 78.536018 
L 398.033272 134.451418 
L 398.990699 230.250897 
L 399.948125 267.518433 
L 399.948125 267.518433 
" clip-path="url(#p20c5bfa409)" style="fill: none; stroke: #1f77b4; stroke-width: 1.5; stroke-linecap: square"/>
   </g>
   <g id="line2d_17">
    <path d="M 42.828125 141.61468 
L 220.909412 141.61468 
L 221.866838 143.238685 
L 399.948125 143.238685 
L 399.948125 143.238685 
" clip-path="url(#p20c5bfa409)" style="fill: none; stroke: #ffa500; stroke-width: 1.5; stroke-linecap: square"/>
   </g>
   <g id="patch_3">
    <path d="M 42.828125 288.430125 
L 42.828125 22.318125 
" style="fill: none; stroke: #000000; stroke-width: 0.8; stroke-linejoin: miter; stroke-linecap: square"/>
   </g>
   <g id="patch_4">
    <path d="M 399.948125 288.430125 
L 399.948125 22.318125 
" style="fill: none; stroke: #000000; stroke-width: 0.8; stroke-linejoin: miter; stroke-linecap: square"/>
   </g>
   <g id="patch_5">
    <path d="M 42.828125 288.430125 
L 399.948125 288.430125 
" style="fill: none; stroke: #000000; stroke-width: 0.8; stroke-linejoin: miter; stroke-linecap: square"/>
   </g>
   <g id="patch_6">
    <path d="M 42.828125 22.318125 
L 399.948125 22.318125 
" style="fill: none; stroke: #000000; stroke-width: 0.8; stroke-linejoin: miter; stroke-linecap: square"/>
   </g>
   <g id="text_17">
    <!-- Fast Flux -->
    <g transform="translate(194.951562 16.318125) scale(0.12 -0.12)">
     <defs>
      <path id="DejaVuSans-46" d="M 628 4666 
L 3309 4666 
L 3309 4134 
L 1259 4134 
L 1259 2759 
L 3109 2759 
L 3109 2228 
L 1259 2228 
L 1259 0 
L 628 0 
L 628 4666 
z
" transform="scale(0.015625)"/>
      <path id="DejaVuSans-61" d="M 2194 1759 
Q 1497 1759 1228 1600 
Q 959 1441 959 1056 
Q 959 750 1161 570 
Q 1363 391 1709 391 
Q 2188 391 2477 730 
Q 2766 1069 2766 1631 
L 2766 1759 
L 2194 1759 
z
M 3341 1997 
L 3341 0 
L 2766 0 
L 2766 531 
Q 2569 213 2275 61 
Q 1981 -91 1556 -91 
Q 1019 -91 701 211 
Q 384 513 384 1019 
Q 384 1609 779 1909 
Q 1175 2209 1959 2209 
L 2766 2209 
L 2766 2266 
Q 2766 2663 2505 2880 
Q 2244 3097 1772 3097 
Q 1472 3097 1187 3025 
Q 903 2953 641 2809 
L 641 3341 
Q 956 3463 1253 3523 
Q 1550 3584 1831 3584 
Q 2591 3584 2966 3190 
Q 3341 2797 3341 1997 
z
" transform="scale(0.015625)"/>
      <path id="DejaVuSans-73" d="M 2834 3397 
L 2834 2853 
Q 2591 2978 2328 3040 
Q 2066 3103 1784 3103 
Q 1356 3103 1142 2972 
Q 928 2841 928 2578 
Q 928 2378 1081 2264 
Q 1234 2150 1697 2047 
L 1894 2003 
Q 2506 1872 2764 1633 
Q 3022 1394 3022 966 
Q 3022 478 2636 193 
Q 2250 -91 1575 -91 
Q 1294 -91 989 -36 
Q 684 19 347 128 
L 347 722 
Q 666 556 975 473 
Q 1284 391 1588 391 
Q 1994 391 2212 530 
Q 2431 669 2431 922 
Q 2431 1156 2273 1281 
Q 2116 1406 1581 1522 
L 1381 1569 
Q 847 1681 609 1914 
Q 372 2147 372 2553 
Q 372 3047 722 3315 
Q 1072 3584 1716 3584 
Q 2034 3584 2315 3537 
Q 2597 3491 2834 3397 
z
" transform="scale(0.015625)"/>
      <path id="DejaVuSans-74" d="M 1172 4494 
L 1172 3500 
L 2356 3500 
L 2356 3053 
L 1172 3053 
L 1172 1153 
Q 1172 725 1289 603 
Q 1406 481 1766 481 
L 2356 481 
L 2356 0 
L 1766 0 
Q 1100 0 847 248 
Q 594 497 594 1153 
L 594 3053 
L 172 3053 
L 172 3500 
L 594 3500 
L 594 4494 
L 1172 4494 
z
" transform="scale(0.015625)"/>
      <path id="DejaVuSans-20" transform="scale(0.015625)"/>
      <path id="DejaVuSans-6c" d="M 603 4863 
L 1178 4863 
L 1178 0 
L 603 0 
L 603 4863 
z
" transform="scale(0.015625)"/>
      <path id="DejaVuSans-75" d="M 544 1381 
L 544 3500 
L 1119 3500 
L 1119 1403 
Q 1119 906 1312 657 
Q 1506 409 1894 409 
Q 2359 409 2629 706 
Q 2900 1003 2900 1516 
L 2900 3500 
L 3475 3500 
L 3475 0 
L 2900 0 
L 2900 538 
Q 2691 219 2414 64 
Q 2138 -91 1772 -91 
Q 1169 -91 856 284 
Q 544 659 544 1381 
z
M 1991 3584 
L 1991 3584 
z
" transform="scale(0.015625)"/>
      <path id="DejaVuSans-78" d="M 3513 3500 
L 2247 1797 
L 3578 0 
L 2900 0 
L 1881 1375 
L 863 0 
L 184 0 
L 1544 1831 
L 300 3500 
L 978 3500 
L 1906 2253 
L 2834 3500 
L 3513 3500 
z
" transform="scale(0.015625)"/>
     </defs>
     <use xlink:href="#DejaVuSans-46"/>
     <use xlink:href="#DejaVuSans-61" x="48.394531"/>
     <use xlink:href="#DejaVuSans-73" x="109.673828"/>
     <use xlink:href="#DejaVuSans-74" x="161.773438"/>
     <use xlink:href="#DejaVuSans-20" x="200.982422"/>
     <use xlink:href="#DejaVuSans-46" x="232.769531"/>
     <use xlink:href="#DejaVuSans-6c" x="290.289062"/>
     <use xlink:href="#DejaVuSans-75" x="318.072266"/>
     <use xlink:href="#DejaVuSans-78" x="381.451172"/>
    </g>
   </g>
  </g>
 </g>
 <defs>
  <clipPath id="p20c5bfa409">
   <rect x="42.828125" y="22.318125" width="357.12" height="266.112"/>
  </clipPath>
 </defs>
</svg>
