<?xml version="1.0" encoding="utf-8" standalone="no"?>
<!DOCTYPE svg PUBLIC "-//W3C//DTD SVG 1.1//EN"
  "http://www.w3.org/Graphics/SVG/1.1/DTD/svg11.dtd">
<svg xmlns:xlink="http://www.w3.org/1999/xlink" width="397.6075pt" height="312.30825pt" viewBox="0 0 397.6075 312.30825" xmlns="http://www.w3.org/2000/svg" version="1.1">
 <metadata>
  <rdf:RDF xmlns:dc="http://purl.org/dc/elements/1.1/" xmlns:cc="http://creativecommons.org/ns#" xmlns:rdf="http://www.w3.org/1999/02/22-rdf-syntax-ns#">
   <cc:Work>
    <dc:type rdf:resource="http://purl.org/dc/dcmitype/StillImage"/>
    <dc:date>2024-03-15T09:45:44.333106</dc:date>
    <dc:format>image/svg+xml</dc:format>
    <dc:creator>
     <cc:Agent>
      <dc:title>Matplotlib v3.8.3, https://matplotlib.org/</dc:title>
     </cc:Agent>
    </dc:creator>
   </cc:Work>
  </rdf:RDF>
 </metadata>
 <defs>
  <style type="text/css">*{stroke-linejoin: round; stroke-linecap: butt}</style>
 </defs>
 <g id="figure_1">
  <g id="patch_1">
   <path d="M 0 312.30825 
L 397.6075 312.30825 
L 397.6075 0 
L 0 0 
z
" style="fill: #ffffff"/>
  </g>
  <g id="axes_1">
   <g id="patch_2">
    <path d="M 33.2875 288.430125 
L 390.4075 288.430125 
L 390.4075 22.318125 
L 33.2875 22.318125 
z
" style="fill: #ffffff"/>
   </g>
   <g id="matplotlib.axis_1">
    <g id="xtick_1">
     <g id="line2d_1">
      <defs>
       <path id="m421e853fd6" d="M 0 0 
L 0 3.5 
" style="stroke: #000000; stroke-width: 0.8"/>
      </defs>
      <g>
       <use xlink:href="#m421e853fd6" x="49.520227" y="288.430125" style="stroke: #000000; stroke-width: 0.8"/>
      </g>
     </g>
     <g id="text_1">
      <!-- 0 -->
      <g transform="translate(46.338977 303.028562) scale(0.1 -0.1)">
       <defs>
        <path id="DejaVuSans-30" d="M 2034 4250 
Q 1547 4250 1301 3770 
Q 1056 3291 1056 2328 
Q 1056 1369 1301 889 
Q 1547 409 2034 409 
Q 2525 409 2770 889 
Q 3016 1369 3016 2328 
Q 3016 3291 2770 3770 
Q 2525 4250 2034 4250 
z
M 2034 4750 
Q 2819 4750 3233 4129 
Q 3647 3509 3647 2328 
Q 3647 1150 3233 529 
Q 2819 -91 2034 -91 
Q 1250 -91 836 529 
Q 422 1150 422 2328 
Q 422 3509 836 4129 
Q 1250 4750 2034 4750 
z
" transform="scale(0.015625)"/>
       </defs>
       <use xlink:href="#DejaVuSans-30"/>
      </g>
     </g>
    </g>
    <g id="xtick_2">
     <g id="line2d_2">
      <g>
       <use xlink:href="#m421e853fd6" x="93.039603" y="288.430125" style="stroke: #000000; stroke-width: 0.8"/>
      </g>
     </g>
     <g id="text_2">
      <!-- 50 -->
      <g transform="translate(86.677103 303.028562) scale(0.1 -0.1)">
       <defs>
        <path id="DejaVuSans-35" d="M 691 4666 
L 3169 4666 
L 3169 4134 
L 1269 4134 
L 1269 2991 
Q 1406 3038 1543 3061 
Q 1681 3084 1819 3084 
Q 2600 3084 3056 2656 
Q 3513 2228 3513 1497 
Q 3513 744 3044 326 
Q 2575 -91 1722 -91 
Q 1428 -91 1123 -41 
Q 819 9 494 109 
L 494 744 
Q 775 591 1075 516 
Q 1375 441 1709 441 
Q 2250 441 2565 725 
Q 2881 1009 2881 1497 
Q 2881 1984 2565 2268 
Q 2250 2553 1709 2553 
Q 1456 2553 1204 2497 
Q 953 2441 691 2322 
L 691 4666 
z
" transform="scale(0.015625)"/>
       </defs>
       <use xlink:href="#DejaVuSans-35"/>
       <use xlink:href="#DejaVuSans-30" x="63.623047"/>
      </g>
     </g>
    </g>
    <g id="xtick_3">
     <g id="line2d_3">
      <g>
       <use xlink:href="#m421e853fd6" x="136.558979" y="288.430125" style="stroke: #000000; stroke-width: 0.8"/>
      </g>
     </g>
     <g id="text_3">
      <!-- 100 -->
      <g transform="translate(127.015229 303.028562) scale(0.1 -0.1)">
       <defs>
        <path id="DejaVuSans-31" d="M 794 531 
L 1825 531 
L 1825 4091 
L 703 3866 
L 703 4441 
L 1819 4666 
L 2450 4666 
L 2450 531 
L 3481 531 
L 3481 0 
L 794 0 
L 794 531 
z
" transform="scale(0.015625)"/>
       </defs>
       <use xlink:href="#DejaVuSans-31"/>
       <use xlink:href="#DejaVuSans-30" x="63.623047"/>
       <use xlink:href="#DejaVuSans-30" x="127.246094"/>
      </g>
     </g>
    </g>
    <g id="xtick_4">
     <g id="line2d_4">
      <g>
       <use xlink:href="#m421e853fd6" x="180.078355" y="288.430125" style="stroke: #000000; stroke-width: 0.8"/>
      </g>
     </g>
     <g id="text_4">
      <!-- 150 -->
      <g transform="translate(170.534605 303.028562) scale(0.1 -0.1)">
       <use xlink:href="#DejaVuSans-31"/>
       <use xlink:href="#DejaVuSans-35" x="63.623047"/>
       <use xlink:href="#DejaVuSans-30" x="127.246094"/>
      </g>
     </g>
    </g>
    <g id="xtick_5">
     <g id="line2d_5">
      <g>
       <use xlink:href="#m421e853fd6" x="223.597732" y="288.430125" style="stroke: #000000; stroke-width: 0.8"/>
      </g>
     </g>
     <g id="text_5">
      <!-- 200 -->
      <g transform="translate(214.053982 303.028562) scale(0.1 -0.1)">
       <defs>
        <path id="DejaVuSans-32" d="M 1228 531 
L 3431 531 
L 3431 0 
L 469 0 
L 469 531 
Q 828 903 1448 1529 
Q 2069 2156 2228 2338 
Q 2531 2678 2651 2914 
Q 2772 3150 2772 3378 
Q 2772 3750 2511 3984 
Q 2250 4219 1831 4219 
Q 1534 4219 1204 4116 
Q 875 4013 500 3803 
L 500 4441 
Q 881 4594 1212 4672 
Q 1544 4750 1819 4750 
Q 2544 4750 2975 4387 
Q 3406 4025 3406 3419 
Q 3406 3131 3298 2873 
Q 3191 2616 2906 2266 
Q 2828 2175 2409 1742 
Q 1991 1309 1228 531 
z
" transform="scale(0.015625)"/>
       </defs>
       <use xlink:href="#DejaVuSans-32"/>
       <use xlink:href="#DejaVuSans-30" x="63.623047"/>
       <use xlink:href="#DejaVuSans-30" x="127.246094"/>
      </g>
     </g>
    </g>
    <g id="xtick_6">
     <g id="line2d_6">
      <g>
       <use xlink:href="#m421e853fd6" x="267.117108" y="288.430125" style="stroke: #000000; stroke-width: 0.8"/>
      </g>
     </g>
     <g id="text_6">
      <!-- 250 -->
      <g transform="translate(257.573358 303.028562) scale(0.1 -0.1)">
       <use xlink:href="#DejaVuSans-32"/>
       <use xlink:href="#DejaVuSans-35" x="63.623047"/>
       <use xlink:href="#DejaVuSans-30" x="127.246094"/>
      </g>
     </g>
    </g>
    <g id="xtick_7">
     <g id="line2d_7">
      <g>
       <use xlink:href="#m421e853fd6" x="310.636484" y="288.430125" style="stroke: #000000; stroke-width: 0.8"/>
      </g>
     </g>
     <g id="text_7">
      <!-- 300 -->
      <g transform="translate(301.092734 303.028562) scale(0.1 -0.1)">
       <defs>
        <path id="DejaVuSans-33" d="M 2597 2516 
Q 3050 2419 3304 2112 
Q 3559 1806 3559 1356 
Q 3559 666 3084 287 
Q 2609 -91 1734 -91 
Q 1441 -91 1130 -33 
Q 819 25 488 141 
L 488 750 
Q 750 597 1062 519 
Q 1375 441 1716 441 
Q 2309 441 2620 675 
Q 2931 909 2931 1356 
Q 2931 1769 2642 2001 
Q 2353 2234 1838 2234 
L 1294 2234 
L 1294 2753 
L 1863 2753 
Q 2328 2753 2575 2939 
Q 2822 3125 2822 3475 
Q 2822 3834 2567 4026 
Q 2313 4219 1838 4219 
Q 1578 4219 1281 4162 
Q 984 4106 628 3988 
L 628 4550 
Q 988 4650 1302 4700 
Q 1616 4750 1894 4750 
Q 2613 4750 3031 4423 
Q 3450 4097 3450 3541 
Q 3450 3153 3228 2886 
Q 3006 2619 2597 2516 
z
" transform="scale(0.015625)"/>
       </defs>
       <use xlink:href="#DejaVuSans-33"/>
       <use xlink:href="#DejaVuSans-30" x="63.623047"/>
       <use xlink:href="#DejaVuSans-30" x="127.246094"/>
      </g>
     </g>
    </g>
    <g id="xtick_8">
     <g id="line2d_8">
      <g>
       <use xlink:href="#m421e853fd6" x="354.15586" y="288.430125" style="stroke: #000000; stroke-width: 0.8"/>
      </g>
     </g>
     <g id="text_8">
      <!-- 350 -->
      <g transform="translate(344.61211 303.028562) scale(0.1 -0.1)">
       <use xlink:href="#DejaVuSans-33"/>
       <use xlink:href="#DejaVuSans-35" x="63.623047"/>
       <use xlink:href="#DejaVuSans-30" x="127.246094"/>
      </g>
     </g>
    </g>
   </g>
   <g id="matplotlib.axis_2">
    <g id="ytick_1">
     <g id="line2d_9">
      <defs>
       <path id="m73de3b7075" d="M 0 0 
L -3.5 0 
" style="stroke: #000000; stroke-width: 0.8"/>
      </defs>
      <g>
       <use xlink:href="#m73de3b7075" x="33.2875" y="276.334125" style="stroke: #000000; stroke-width: 0.8"/>
      </g>
     </g>
     <g id="text_9">
      <!-- 0 -->
      <g transform="translate(19.925 280.133344) scale(0.1 -0.1)">
       <use xlink:href="#DejaVuSans-30"/>
      </g>
     </g>
    </g>
    <g id="ytick_2">
     <g id="line2d_10">
      <g>
       <use xlink:href="#m73de3b7075" x="33.2875" y="246.323033" style="stroke: #000000; stroke-width: 0.8"/>
      </g>
     </g>
     <g id="text_10">
      <!-- 50 -->
      <g transform="translate(13.5625 250.122252) scale(0.1 -0.1)">
       <use xlink:href="#DejaVuSans-35"/>
       <use xlink:href="#DejaVuSans-30" x="63.623047"/>
      </g>
     </g>
    </g>
    <g id="ytick_3">
     <g id="line2d_11">
      <g>
       <use xlink:href="#m73de3b7075" x="33.2875" y="216.311942" style="stroke: #000000; stroke-width: 0.8"/>
      </g>
     </g>
     <g id="text_11">
      <!-- 100 -->
      <g transform="translate(7.2 220.11116) scale(0.1 -0.1)">
       <use xlink:href="#DejaVuSans-31"/>
       <use xlink:href="#DejaVuSans-30" x="63.623047"/>
       <use xlink:href="#DejaVuSans-30" x="127.246094"/>
      </g>
     </g>
    </g>
    <g id="ytick_4">
     <g id="line2d_12">
      <g>
       <use xlink:href="#m73de3b7075" x="33.2875" y="186.30085" style="stroke: #000000; stroke-width: 0.8"/>
      </g>
     </g>
     <g id="text_12">
      <!-- 150 -->
      <g transform="translate(7.2 190.100069) scale(0.1 -0.1)">
       <use xlink:href="#DejaVuSans-31"/>
       <use xlink:href="#DejaVuSans-35" x="63.623047"/>
       <use xlink:href="#DejaVuSans-30" x="127.246094"/>
      </g>
     </g>
    </g>
    <g id="ytick_5">
     <g id="line2d_13">
      <g>
       <use xlink:href="#m73de3b7075" x="33.2875" y="156.289758" style="stroke: #000000; stroke-width: 0.8"/>
      </g>
     </g>
     <g id="text_13">
      <!-- 200 -->
      <g transform="translate(7.2 160.088977) scale(0.1 -0.1)">
       <use xlink:href="#DejaVuSans-32"/>
       <use xlink:href="#DejaVuSans-30" x="63.623047"/>
       <use xlink:href="#DejaVuSans-30" x="127.246094"/>
      </g>
     </g>
    </g>
    <g id="ytick_6">
     <g id="line2d_14">
      <g>
       <use xlink:href="#m73de3b7075" x="33.2875" y="126.278667" style="stroke: #000000; stroke-width: 0.8"/>
      </g>
     </g>
     <g id="text_14">
      <!-- 250 -->
      <g transform="translate(7.2 130.077886) scale(0.1 -0.1)">
       <use xlink:href="#DejaVuSans-32"/>
       <use xlink:href="#DejaVuSans-35" x="63.623047"/>
       <use xlink:href="#DejaVuSans-30" x="127.246094"/>
      </g>
     </g>
    </g>
    <g id="ytick_7">
     <g id="line2d_15">
      <g>
       <use xlink:href="#m73de3b7075" x="33.2875" y="96.267575" style="stroke: #000000; stroke-width: 0.8"/>
      </g>
     </g>
     <g id="text_15">
      <!-- 300 -->
      <g transform="translate(7.2 100.066794) scale(0.1 -0.1)">
       <use xlink:href="#DejaVuSans-33"/>
       <use xlink:href="#DejaVuSans-30" x="63.623047"/>
       <use xlink:href="#DejaVuSans-30" x="127.246094"/>
      </g>
     </g>
    </g>
    <g id="ytick_8">
     <g id="line2d_16">
      <g>
       <use xlink:href="#m73de3b7075" x="33.2875" y="66.256483" style="stroke: #000000; stroke-width: 0.8"/>
      </g>
     </g>
     <g id="text_16">
      <!-- 350 -->
      <g transform="translate(7.2 70.055702) scale(0.1 -0.1)">
       <use xlink:href="#DejaVuSans-33"/>
       <use xlink:href="#DejaVuSans-35" x="63.623047"/>
       <use xlink:href="#DejaVuSans-30" x="127.246094"/>
      </g>
     </g>
    </g>
    <g id="ytick_9">
     <g id="line2d_17">
      <g>
       <use xlink:href="#m73de3b7075" x="33.2875" y="36.245392" style="stroke: #000000; stroke-width: 0.8"/>
      </g>
     </g>
     <g id="text_17">
      <!-- 400 -->
      <g transform="translate(7.2 40.044611) scale(0.1 -0.1)">
       <defs>
        <path id="DejaVuSans-34" d="M 2419 4116 
L 825 1625 
L 2419 1625 
L 2419 4116 
z
M 2253 4666 
L 3047 4666 
L 3047 1625 
L 3713 1625 
L 3713 1100 
L 3047 1100 
L 3047 0 
L 2419 0 
L 2419 1100 
L 313 1100 
L 313 1709 
L 2253 4666 
z
" transform="scale(0.015625)"/>
       </defs>
       <use xlink:href="#DejaVuSans-34"/>
       <use xlink:href="#DejaVuSans-30" x="63.623047"/>
       <use xlink:href="#DejaVuSans-30" x="127.246094"/>
      </g>
     </g>
    </g>
   </g>
   <g id="line2d_18">
    <path d="M 49.520227 276.334125 
L 56.483327 276.334125 
L 57.353715 264.093769 
L 58.224102 261.230739 
L 59.09449 255.992453 
L 59.964878 236.182213 
L 60.835265 65.803244 
L 61.705653 120.725912 
L 62.57604 134.37331 
L 63.446428 139.108432 
L 64.316815 141.715581 
L 65.187203 140.851085 
L 66.05759 159.070661 
L 66.927978 263.839967 
L 67.798365 260.707817 
L 68.668753 256.001357 
L 69.53914 234.913107 
L 70.409528 55.767875 
L 71.279915 120.034596 
L 72.150303 138.424589 
L 73.02069 147.421467 
L 73.891078 150.340084 
L 74.761465 148.095435 
L 75.631853 163.912014 
L 76.50224 264.629192 
L 77.372628 261.445955 
L 78.243015 257.050267 
L 79.113403 233.793036 
L 79.983791 60.533495 
L 80.854178 127.305096 
L 81.724566 148.238215 
L 82.594953 150.693154 
L 83.465341 152.378735 
L 84.335728 153.788777 
L 85.206116 171.037982 
L 86.076503 265.071193 
L 86.946891 261.830414 
L 87.817278 257.472846 
L 88.687666 236.91062 
L 89.558053 42.047572 
L 90.428441 111.732952 
L 91.298828 131.116056 
L 92.169216 139.893208 
L 93.039603 143.995684 
L 93.909991 141.525407 
L 94.780378 158.489452 
L 95.650766 265.885651 
L 96.521153 263.039711 
L 97.391541 259.26173 
L 98.261928 238.690057 
L 99.132316 66.579379 
L 100.002704 131.221509 
L 100.873091 142.556021 
L 101.743479 150.262519 
L 102.613866 153.654915 
L 103.484254 159.903983 
L 104.354641 177.383194 
L 105.225029 264.905025 
L 106.095416 261.633432 
L 106.965804 256.966444 
L 107.836191 236.435173 
L 108.706579 69.025189 
L 109.576966 130.309015 
L 110.447354 144.838502 
L 111.317741 150.691401 
L 112.188129 151.820657 
L 113.058516 154.937852 
L 113.928904 171.048066 
L 114.799291 264.749998 
L 115.669679 260.881586 
L 116.540066 255.832018 
L 117.410454 235.464034 
L 118.280841 75.256751 
L 119.151229 125.160356 
L 120.021617 139.057951 
L 120.892004 149.07339 
L 121.762392 148.002469 
L 122.632779 147.575615 
L 123.503167 164.515748 
L 124.373554 265.734769 
L 125.243942 262.822024 
L 126.114329 258.152182 
L 126.984717 237.077921 
L 127.855104 53.805746 
L 128.725492 126.401821 
L 129.595879 150.442519 
L 130.466267 156.040289 
L 131.336654 155.232934 
L 132.207042 159.666712 
L 133.077429 175.252478 
L 133.947817 264.78809 
L 134.818204 261.584252 
L 135.688592 256.250128 
L 136.558979 234.284666 
L 137.429367 60.299281 
L 138.299754 127.127151 
L 139.170142 138.912655 
L 140.040529 143.796124 
L 140.910917 142.137847 
L 141.781305 140.98566 
L 142.651692 158.261736 
L 143.52208 264.471493 
L 144.392467 260.828129 
L 145.262855 255.640016 
L 146.133242 230.324836 
L 147.00363 53.253189 
L 147.874017 121.112776 
L 148.744405 134.108386 
L 149.614792 144.1519 
L 150.48518 143.34911 
L 151.355567 142.022534 
L 152.225955 158.991827 
L 153.096342 266.186454 
L 153.96673 263.168023 
L 154.837117 259.057467 
L 155.707505 236.740409 
L 156.577892 57.551464 
L 157.44828 119.434229 
L 158.318667 140.230767 
L 159.189055 145.185958 
L 160.059442 142.399817 
L 160.92983 145.320379 
L 161.800218 161.990206 
L 162.670605 264.538278 
L 163.540993 260.7634 
L 164.41138 255.733388 
L 165.281768 229.40959 
L 166.152155 34.414125 
L 167.022543 120.045704 
L 167.89293 139.395956 
L 168.763318 144.147755 
L 169.633705 147.745506 
L 170.504093 150.017965 
L 171.37448 167.387151 
L 172.244868 264.993621 
L 173.115255 261.746346 
L 173.985643 256.834287 
L 174.85603 241.62998 
L 175.726418 61.612366 
L 176.596805 124.555526 
L 177.467193 140.50746 
L 178.33758 144.193797 
L 179.207968 144.966261 
L 180.078355 145.547793 
L 180.948743 163.350652 
L 181.819131 265.231202 
L 182.689518 262.157154 
L 183.559906 257.69496 
L 184.430293 234.858797 
L 185.300681 80.129952 
L 186.171068 133.830577 
L 187.041456 143.863073 
L 187.911843 150.420297 
L 188.782231 149.424683 
L 189.652618 144.527255 
L 190.523006 163.040241 
L 191.393393 266.059947 
L 192.263781 262.824041 
L 193.134168 257.372633 
L 194.004556 229.419021 
L 194.874943 67.524556 
L 195.745331 126.184369 
L 196.615718 139.938727 
L 197.486106 145.352542 
L 198.356493 147.63171 
L 199.226881 154.411854 
L 200.097268 170.009997 
L 200.967656 264.951436 
L 201.838044 261.666574 
L 202.708431 256.774249 
L 203.578819 236.345696 
L 204.449206 49.646994 
L 205.319594 112.47018 
L 206.189981 133.714829 
L 207.060369 143.469945 
L 207.930756 145.573307 
L 208.801144 147.971002 
L 209.671531 165.089805 
L 210.541919 264.137186 
L 211.412306 260.533274 
L 212.282694 255.150369 
L 213.153081 229.468407 
L 214.023469 73.105963 
L 214.893856 135.109856 
L 215.764244 152.777329 
L 216.634631 158.94343 
L 217.505019 157.672084 
L 218.375406 160.1336 
L 219.245794 175.911398 
L 220.116181 266.14392 
L 220.986569 262.992577 
L 221.856956 259.27192 
L 222.727344 238.588771 
L 223.597732 54.791904 
L 224.468119 120.792475 
L 225.338507 133.780408 
L 226.208894 143.700897 
L 227.079282 145.482583 
L 227.949669 145.031848 
L 228.820057 160.232799 
L 229.690444 264.433842 
L 230.560832 261.021569 
L 231.431219 255.465303 
L 232.301607 234.230629 
L 233.171994 60.518364 
L 234.042382 125.745473 
L 234.912769 138.013285 
L 235.783157 144.830742 
L 236.653544 147.621208 
L 237.523932 151.537701 
L 238.394319 166.960756 
L 239.264707 264.310669 
L 240.135094 260.497852 
L 241.005482 256.088656 
L 241.875869 239.487847 
L 242.746257 52.68005 
L 243.616645 119.81017 
L 244.487032 138.626366 
L 245.35742 140.484407 
L 246.227807 138.94765 
L 247.098195 142.196395 
L 247.968582 159.401021 
L 248.83897 265.613211 
L 249.709357 262.59603 
L 250.579745 257.726335 
L 251.450132 228.014227 
L 252.32052 70.738485 
L 253.190907 131.796728 
L 254.061295 146.539283 
L 254.931682 153.460384 
L 255.80207 152.328657 
L 256.672457 149.803255 
L 257.542845 166.411532 
L 258.413232 264.329012 
L 259.28362 261.133332 
L 260.154007 255.601473 
L 261.024395 233.989179 
L 261.894782 59.935962 
L 262.76517 123.640741 
L 263.635558 139.919484 
L 264.505945 144.920945 
L 265.376333 142.520572 
L 266.24672 146.945831 
L 267.117108 165.414138 
L 267.987495 266.029133 
L 268.857883 262.992287 
L 269.72827 259.339862 
L 270.598658 234.283594 
L 271.469045 62.879312 
L 272.339433 128.927579 
L 273.20982 143.093423 
L 274.080208 147.490773 
L 274.950595 150.522002 
L 275.820983 154.513377 
L 276.69137 171.411843 
L 277.561758 264.429291 
L 278.432145 260.903169 
L 279.302533 255.08205 
L 280.17292 232.85922 
L 281.043308 49.52805 
L 281.913695 117.457525 
L 282.784083 136.924329 
L 283.654471 144.689495 
L 284.524858 148.061193 
L 285.395246 150.606128 
L 286.265633 167.103599 
L 287.136021 264.13865 
L 288.006408 260.445902 
L 288.876796 254.302257 
L 289.747183 234.800944 
L 290.617571 56.366127 
L 291.487958 122.557185 
L 292.358346 147.233266 
L 293.228733 151.955289 
L 294.099121 151.847387 
L 294.969508 151.467852 
L 295.839896 167.843167 
L 296.710283 263.999338 
L 297.580671 260.463285 
L 298.451058 255.572738 
L 299.321446 233.228996 
L 300.191833 63.804029 
L 301.062221 132.354921 
L 301.932608 154.176099 
L 302.802996 154.513768 
L 303.673383 150.185583 
L 304.543771 152.723205 
L 305.414159 170.522066 
L 306.284546 265.515936 
L 307.154934 262.172713 
L 308.025321 257.428055 
L 308.895709 235.511942 
L 309.766096 64.132961 
L 310.636484 134.159435 
L 311.506871 146.027823 
L 312.377259 146.835135 
L 313.247646 149.500593 
L 314.118034 154.352153 
L 314.988421 171.177641 
L 315.858809 264.651697 
L 316.729196 261.312489 
L 317.599584 257.120174 
L 318.469971 236.733572 
L 319.340359 67.901416 
L 320.210746 128.36416 
L 321.081134 143.945894 
L 321.951521 148.699736 
L 322.821909 148.038776 
L 323.692296 150.790178 
L 324.562684 167.247614 
L 325.433072 265.410683 
L 326.303459 262.278285 
L 327.173847 258.421555 
L 328.044234 236.407902 
L 328.914622 64.175805 
L 329.785009 131.480707 
L 330.655397 147.325256 
L 331.525784 149.890304 
L 332.396172 144.745193 
L 333.266559 149.509167 
L 334.136947 167.147147 
L 335.007334 264.603313 
L 335.877722 261.240963 
L 336.748109 255.694018 
L 337.618497 234.138544 
L 338.488884 75.222726 
L 339.359272 127.820788 
L 340.229659 140.840242 
L 341.100047 144.703012 
L 341.970434 146.596146 
L 342.840822 147.071594 
L 343.711209 164.450662 
L 344.581597 263.710588 
L 345.451985 260.099289 
L 346.322372 255.058777 
L 347.19276 227.262877 
L 348.063147 55.081519 
L 348.933535 117.132998 
L 349.803922 136.378213 
L 350.67431 146.675177 
L 351.544697 141.78113 
L 352.415085 142.497459 
L 353.285472 161.113197 
L 354.15586 264.208171 
L 355.026247 260.128225 
L 355.896635 254.956486 
L 356.767022 228.947537 
L 357.63741 58.260829 
L 358.507797 122.085185 
L 359.378185 132.311354 
L 360.248572 139.867848 
L 361.11896 134.9428 
L 361.989347 141.508593 
L 362.859735 158.267139 
L 363.730122 264.773953 
L 364.60051 261.281424 
L 365.470898 256.091547 
L 366.341285 237.457056 
L 367.211673 69.143863 
L 368.08206 123.672553 
L 368.952448 138.398521 
L 369.822835 146.495509 
L 370.693223 150.807099 
L 371.56361 157.746856 
L 372.433998 174.992908 
L 373.304385 276.334125 
L 374.174773 276.334125 
L 374.174773 276.334125 
" clip-path="url(#p17aced7165)" style="fill: none; stroke: #1f77b4; stroke-width: 1.5; stroke-linecap: square"/>
   </g>
   <g id="patch_3">
    <path d="M 33.2875 288.430125 
L 33.2875 22.318125 
" style="fill: none; stroke: #000000; stroke-width: 0.8; stroke-linejoin: miter; stroke-linecap: square"/>
   </g>
   <g id="patch_4">
    <path d="M 390.4075 288.430125 
L 390.4075 22.318125 
" style="fill: none; stroke: #000000; stroke-width: 0.8; stroke-linejoin: miter; stroke-linecap: square"/>
   </g>
   <g id="patch_5">
    <path d="M 33.2875 288.430125 
L 390.4075 288.430125 
" style="fill: none; stroke: #000000; stroke-width: 0.8; stroke-linejoin: miter; stroke-linecap: square"/>
   </g>
   <g id="patch_6">
    <path d="M 33.2875 22.318125 
L 390.4075 22.318125 
" style="fill: none; stroke: #000000; stroke-width: 0.8; stroke-linejoin: miter; stroke-linecap: square"/>
   </g>
   <g id="text_18">
    <!-- Fast Flux -->
    <g transform="translate(185.410938 16.318125) scale(0.12 -0.12)">
     <defs>
      <path id="DejaVuSans-46" d="M 628 4666 
L 3309 4666 
L 3309 4134 
L 1259 4134 
L 1259 2759 
L 3109 2759 
L 3109 2228 
L 1259 2228 
L 1259 0 
L 628 0 
L 628 4666 
z
" transform="scale(0.015625)"/>
      <path id="DejaVuSans-61" d="M 2194 1759 
Q 1497 1759 1228 1600 
Q 959 1441 959 1056 
Q 959 750 1161 570 
Q 1363 391 1709 391 
Q 2188 391 2477 730 
Q 2766 1069 2766 1631 
L 2766 1759 
L 2194 1759 
z
M 3341 1997 
L 3341 0 
L 2766 0 
L 2766 531 
Q 2569 213 2275 61 
Q 1981 -91 1556 -91 
Q 1019 -91 701 211 
Q 384 513 384 1019 
Q 384 1609 779 1909 
Q 1175 2209 1959 2209 
L 2766 2209 
L 2766 2266 
Q 2766 2663 2505 2880 
Q 2244 3097 1772 3097 
Q 1472 3097 1187 3025 
Q 903 2953 641 2809 
L 641 3341 
Q 956 3463 1253 3523 
Q 1550 3584 1831 3584 
Q 2591 3584 2966 3190 
Q 3341 2797 3341 1997 
z
" transform="scale(0.015625)"/>
      <path id="DejaVuSans-73" d="M 2834 3397 
L 2834 2853 
Q 2591 2978 2328 3040 
Q 2066 3103 1784 3103 
Q 1356 3103 1142 2972 
Q 928 2841 928 2578 
Q 928 2378 1081 2264 
Q 1234 2150 1697 2047 
L 1894 2003 
Q 2506 1872 2764 1633 
Q 3022 1394 3022 966 
Q 3022 478 2636 193 
Q 2250 -91 1575 -91 
Q 1294 -91 989 -36 
Q 684 19 347 128 
L 347 722 
Q 666 556 975 473 
Q 1284 391 1588 391 
Q 1994 391 2212 530 
Q 2431 669 2431 922 
Q 2431 1156 2273 1281 
Q 2116 1406 1581 1522 
L 1381 1569 
Q 847 1681 609 1914 
Q 372 2147 372 2553 
Q 372 3047 722 3315 
Q 1072 3584 1716 3584 
Q 2034 3584 2315 3537 
Q 2597 3491 2834 3397 
z
" transform="scale(0.015625)"/>
      <path id="DejaVuSans-74" d="M 1172 4494 
L 1172 3500 
L 2356 3500 
L 2356 3053 
L 1172 3053 
L 1172 1153 
Q 1172 725 1289 603 
Q 1406 481 1766 481 
L 2356 481 
L 2356 0 
L 1766 0 
Q 1100 0 847 248 
Q 594 497 594 1153 
L 594 3053 
L 172 3053 
L 172 3500 
L 594 3500 
L 594 4494 
L 1172 4494 
z
" transform="scale(0.015625)"/>
      <path id="DejaVuSans-20" transform="scale(0.015625)"/>
      <path id="DejaVuSans-6c" d="M 603 4863 
L 1178 4863 
L 1178 0 
L 603 0 
L 603 4863 
z
" transform="scale(0.015625)"/>
      <path id="DejaVuSans-75" d="M 544 1381 
L 544 3500 
L 1119 3500 
L 1119 1403 
Q 1119 906 1312 657 
Q 1506 409 1894 409 
Q 2359 409 2629 706 
Q 2900 1003 2900 1516 
L 2900 3500 
L 3475 3500 
L 3475 0 
L 2900 0 
L 2900 538 
Q 2691 219 2414 64 
Q 2138 -91 1772 -91 
Q 1169 -91 856 284 
Q 544 659 544 1381 
z
M 1991 3584 
L 1991 3584 
z
" transform="scale(0.015625)"/>
      <path id="DejaVuSans-78" d="M 3513 3500 
L 2247 1797 
L 3578 0 
L 2900 0 
L 1881 1375 
L 863 0 
L 184 0 
L 1544 1831 
L 300 3500 
L 978 3500 
L 1906 2253 
L 2834 3500 
L 3513 3500 
z
" transform="scale(0.015625)"/>
     </defs>
     <use xlink:href="#DejaVuSans-46"/>
     <use xlink:href="#DejaVuSans-61" x="48.394531"/>
     <use xlink:href="#DejaVuSans-73" x="109.673828"/>
     <use xlink:href="#DejaVuSans-74" x="161.773438"/>
     <use xlink:href="#DejaVuSans-20" x="200.982422"/>
     <use xlink:href="#DejaVuSans-46" x="232.769531"/>
     <use xlink:href="#DejaVuSans-6c" x="290.289062"/>
     <use xlink:href="#DejaVuSans-75" x="318.072266"/>
     <use xlink:href="#DejaVuSans-78" x="381.451172"/>
    </g>
   </g>
  </g>
 </g>
 <defs>
  <clipPath id="p17aced7165">
   <rect x="33.2875" y="22.318125" width="357.12" height="266.112"/>
  </clipPath>
 </defs>
</svg>
