<?xml version="1.0" encoding="utf-8" standalone="no"?>
<!DOCTYPE svg PUBLIC "-//W3C//DTD SVG 1.1//EN"
  "http://www.w3.org/Graphics/SVG/1.1/DTD/svg11.dtd">
<svg xmlns:xlink="http://www.w3.org/1999/xlink" width="410.3325pt" height="312.30825pt" viewBox="0 0 410.3325 312.30825" xmlns="http://www.w3.org/2000/svg" version="1.1">
 <metadata>
  <rdf:RDF xmlns:dc="http://purl.org/dc/elements/1.1/" xmlns:cc="http://creativecommons.org/ns#" xmlns:rdf="http://www.w3.org/1999/02/22-rdf-syntax-ns#">
   <cc:Work>
    <dc:type rdf:resource="http://purl.org/dc/dcmitype/StillImage"/>
    <dc:date>2024-03-13T14:48:06.897910</dc:date>
    <dc:format>image/svg+xml</dc:format>
    <dc:creator>
     <cc:Agent>
      <dc:title>Matplotlib v3.8.3, https://matplotlib.org/</dc:title>
     </cc:Agent>
    </dc:creator>
   </cc:Work>
  </rdf:RDF>
 </metadata>
 <defs>
  <style type="text/css">*{stroke-linejoin: round; stroke-linecap: butt}</style>
 </defs>
 <g id="figure_1">
  <g id="patch_1">
   <path d="M 0 312.30825 
L 410.3325 312.30825 
L 410.3325 0 
L 0 0 
z
" style="fill: #ffffff"/>
  </g>
  <g id="axes_1">
   <g id="patch_2">
    <path d="M 46.0125 288.430125 
L 403.1325 288.430125 
L 403.1325 22.318125 
L 46.0125 22.318125 
z
" style="fill: #ffffff"/>
   </g>
   <g id="matplotlib.axis_1">
    <g id="xtick_1">
     <g id="line2d_1">
      <defs>
       <path id="m1406834313" d="M 0 0 
L 0 3.5 
" style="stroke: #000000; stroke-width: 0.8"/>
      </defs>
      <g>
       <use xlink:href="#m1406834313" x="62.245227" y="288.430125" style="stroke: #000000; stroke-width: 0.8"/>
      </g>
     </g>
     <g id="text_1">
      <!-- 0 -->
      <g transform="translate(59.063977 303.028562) scale(0.1 -0.1)">
       <defs>
        <path id="DejaVuSans-30" d="M 2034 4250 
Q 1547 4250 1301 3770 
Q 1056 3291 1056 2328 
Q 1056 1369 1301 889 
Q 1547 409 2034 409 
Q 2525 409 2770 889 
Q 3016 1369 3016 2328 
Q 3016 3291 2770 3770 
Q 2525 4250 2034 4250 
z
M 2034 4750 
Q 2819 4750 3233 4129 
Q 3647 3509 3647 2328 
Q 3647 1150 3233 529 
Q 2819 -91 2034 -91 
Q 1250 -91 836 529 
Q 422 1150 422 2328 
Q 422 3509 836 4129 
Q 1250 4750 2034 4750 
z
" transform="scale(0.015625)"/>
       </defs>
       <use xlink:href="#DejaVuSans-30"/>
      </g>
     </g>
    </g>
    <g id="xtick_2">
     <g id="line2d_2">
      <g>
       <use xlink:href="#m1406834313" x="135.729733" y="288.430125" style="stroke: #000000; stroke-width: 0.8"/>
      </g>
     </g>
     <g id="text_2">
      <!-- 500 -->
      <g transform="translate(126.185983 303.028562) scale(0.1 -0.1)">
       <defs>
        <path id="DejaVuSans-35" d="M 691 4666 
L 3169 4666 
L 3169 4134 
L 1269 4134 
L 1269 2991 
Q 1406 3038 1543 3061 
Q 1681 3084 1819 3084 
Q 2600 3084 3056 2656 
Q 3513 2228 3513 1497 
Q 3513 744 3044 326 
Q 2575 -91 1722 -91 
Q 1428 -91 1123 -41 
Q 819 9 494 109 
L 494 744 
Q 775 591 1075 516 
Q 1375 441 1709 441 
Q 2250 441 2565 725 
Q 2881 1009 2881 1497 
Q 2881 1984 2565 2268 
Q 2250 2553 1709 2553 
Q 1456 2553 1204 2497 
Q 953 2441 691 2322 
L 691 4666 
z
" transform="scale(0.015625)"/>
       </defs>
       <use xlink:href="#DejaVuSans-35"/>
       <use xlink:href="#DejaVuSans-30" x="63.623047"/>
       <use xlink:href="#DejaVuSans-30" x="127.246094"/>
      </g>
     </g>
    </g>
    <g id="xtick_3">
     <g id="line2d_3">
      <g>
       <use xlink:href="#m1406834313" x="209.214238" y="288.430125" style="stroke: #000000; stroke-width: 0.8"/>
      </g>
     </g>
     <g id="text_3">
      <!-- 1000 -->
      <g transform="translate(196.489238 303.028562) scale(0.1 -0.1)">
       <defs>
        <path id="DejaVuSans-31" d="M 794 531 
L 1825 531 
L 1825 4091 
L 703 3866 
L 703 4441 
L 1819 4666 
L 2450 4666 
L 2450 531 
L 3481 531 
L 3481 0 
L 794 0 
L 794 531 
z
" transform="scale(0.015625)"/>
       </defs>
       <use xlink:href="#DejaVuSans-31"/>
       <use xlink:href="#DejaVuSans-30" x="63.623047"/>
       <use xlink:href="#DejaVuSans-30" x="127.246094"/>
       <use xlink:href="#DejaVuSans-30" x="190.869141"/>
      </g>
     </g>
    </g>
    <g id="xtick_4">
     <g id="line2d_4">
      <g>
       <use xlink:href="#m1406834313" x="282.698744" y="288.430125" style="stroke: #000000; stroke-width: 0.8"/>
      </g>
     </g>
     <g id="text_4">
      <!-- 1500 -->
      <g transform="translate(269.973744 303.028562) scale(0.1 -0.1)">
       <use xlink:href="#DejaVuSans-31"/>
       <use xlink:href="#DejaVuSans-35" x="63.623047"/>
       <use xlink:href="#DejaVuSans-30" x="127.246094"/>
       <use xlink:href="#DejaVuSans-30" x="190.869141"/>
      </g>
     </g>
    </g>
    <g id="xtick_5">
     <g id="line2d_5">
      <g>
       <use xlink:href="#m1406834313" x="356.183249" y="288.430125" style="stroke: #000000; stroke-width: 0.8"/>
      </g>
     </g>
     <g id="text_5">
      <!-- 2000 -->
      <g transform="translate(343.458249 303.028562) scale(0.1 -0.1)">
       <defs>
        <path id="DejaVuSans-32" d="M 1228 531 
L 3431 531 
L 3431 0 
L 469 0 
L 469 531 
Q 828 903 1448 1529 
Q 2069 2156 2228 2338 
Q 2531 2678 2651 2914 
Q 2772 3150 2772 3378 
Q 2772 3750 2511 3984 
Q 2250 4219 1831 4219 
Q 1534 4219 1204 4116 
Q 875 4013 500 3803 
L 500 4441 
Q 881 4594 1212 4672 
Q 1544 4750 1819 4750 
Q 2544 4750 2975 4387 
Q 3406 4025 3406 3419 
Q 3406 3131 3298 2873 
Q 3191 2616 2906 2266 
Q 2828 2175 2409 1742 
Q 1991 1309 1228 531 
z
" transform="scale(0.015625)"/>
       </defs>
       <use xlink:href="#DejaVuSans-32"/>
       <use xlink:href="#DejaVuSans-30" x="63.623047"/>
       <use xlink:href="#DejaVuSans-30" x="127.246094"/>
       <use xlink:href="#DejaVuSans-30" x="190.869141"/>
      </g>
     </g>
    </g>
   </g>
   <g id="matplotlib.axis_2">
    <g id="ytick_1">
     <g id="line2d_6">
      <defs>
       <path id="mf95a25668d" d="M 0 0 
L -3.5 0 
" style="stroke: #000000; stroke-width: 0.8"/>
      </defs>
      <g>
       <use xlink:href="#mf95a25668d" x="46.0125" y="276.273617" style="stroke: #000000; stroke-width: 0.8"/>
      </g>
     </g>
     <g id="text_6">
      <!-- 0 -->
      <g transform="translate(32.65 280.072835) scale(0.1 -0.1)">
       <use xlink:href="#DejaVuSans-30"/>
      </g>
     </g>
    </g>
    <g id="ytick_2">
     <g id="line2d_7">
      <g>
       <use xlink:href="#mf95a25668d" x="46.0125" y="218.401365" style="stroke: #000000; stroke-width: 0.8"/>
      </g>
     </g>
     <g id="text_7">
      <!-- 10000 -->
      <g transform="translate(7.2 222.200583) scale(0.1 -0.1)">
       <use xlink:href="#DejaVuSans-31"/>
       <use xlink:href="#DejaVuSans-30" x="63.623047"/>
       <use xlink:href="#DejaVuSans-30" x="127.246094"/>
       <use xlink:href="#DejaVuSans-30" x="190.869141"/>
       <use xlink:href="#DejaVuSans-30" x="254.492188"/>
      </g>
     </g>
    </g>
    <g id="ytick_3">
     <g id="line2d_8">
      <g>
       <use xlink:href="#mf95a25668d" x="46.0125" y="160.529112" style="stroke: #000000; stroke-width: 0.8"/>
      </g>
     </g>
     <g id="text_8">
      <!-- 20000 -->
      <g transform="translate(7.2 164.328331) scale(0.1 -0.1)">
       <use xlink:href="#DejaVuSans-32"/>
       <use xlink:href="#DejaVuSans-30" x="63.623047"/>
       <use xlink:href="#DejaVuSans-30" x="127.246094"/>
       <use xlink:href="#DejaVuSans-30" x="190.869141"/>
       <use xlink:href="#DejaVuSans-30" x="254.492188"/>
      </g>
     </g>
    </g>
    <g id="ytick_4">
     <g id="line2d_9">
      <g>
       <use xlink:href="#mf95a25668d" x="46.0125" y="102.65686" style="stroke: #000000; stroke-width: 0.8"/>
      </g>
     </g>
     <g id="text_9">
      <!-- 30000 -->
      <g transform="translate(7.2 106.456079) scale(0.1 -0.1)">
       <defs>
        <path id="DejaVuSans-33" d="M 2597 2516 
Q 3050 2419 3304 2112 
Q 3559 1806 3559 1356 
Q 3559 666 3084 287 
Q 2609 -91 1734 -91 
Q 1441 -91 1130 -33 
Q 819 25 488 141 
L 488 750 
Q 750 597 1062 519 
Q 1375 441 1716 441 
Q 2309 441 2620 675 
Q 2931 909 2931 1356 
Q 2931 1769 2642 2001 
Q 2353 2234 1838 2234 
L 1294 2234 
L 1294 2753 
L 1863 2753 
Q 2328 2753 2575 2939 
Q 2822 3125 2822 3475 
Q 2822 3834 2567 4026 
Q 2313 4219 1838 4219 
Q 1578 4219 1281 4162 
Q 984 4106 628 3988 
L 628 4550 
Q 988 4650 1302 4700 
Q 1616 4750 1894 4750 
Q 2613 4750 3031 4423 
Q 3450 4097 3450 3541 
Q 3450 3153 3228 2886 
Q 3006 2619 2597 2516 
z
" transform="scale(0.015625)"/>
       </defs>
       <use xlink:href="#DejaVuSans-33"/>
       <use xlink:href="#DejaVuSans-30" x="63.623047"/>
       <use xlink:href="#DejaVuSans-30" x="127.246094"/>
       <use xlink:href="#DejaVuSans-30" x="190.869141"/>
       <use xlink:href="#DejaVuSans-30" x="254.492188"/>
      </g>
     </g>
    </g>
    <g id="ytick_5">
     <g id="line2d_10">
      <g>
       <use xlink:href="#mf95a25668d" x="46.0125" y="44.784608" style="stroke: #000000; stroke-width: 0.8"/>
      </g>
     </g>
     <g id="text_10">
      <!-- 40000 -->
      <g transform="translate(7.2 48.583827) scale(0.1 -0.1)">
       <defs>
        <path id="DejaVuSans-34" d="M 2419 4116 
L 825 1625 
L 2419 1625 
L 2419 4116 
z
M 2253 4666 
L 3047 4666 
L 3047 1625 
L 3713 1625 
L 3713 1100 
L 3047 1100 
L 3047 0 
L 2419 0 
L 2419 1100 
L 313 1100 
L 313 1709 
L 2253 4666 
z
" transform="scale(0.015625)"/>
       </defs>
       <use xlink:href="#DejaVuSans-34"/>
       <use xlink:href="#DejaVuSans-30" x="63.623047"/>
       <use xlink:href="#DejaVuSans-30" x="127.246094"/>
       <use xlink:href="#DejaVuSans-30" x="190.869141"/>
       <use xlink:href="#DejaVuSans-30" x="254.492188"/>
      </g>
     </g>
    </g>
   </g>
   <g id="line2d_11">
    <path d="M 62.245227 276.273617 
L 85.172393 276.264509 
L 85.319362 276.161839 
L 85.466331 276.264443 
L 85.6133 276.16106 
L 85.760269 276.264405 
L 85.907238 276.160301 
L 86.054207 276.264374 
L 86.201176 276.15767 
L 86.348145 276.264261 
L 86.495114 276.156656 
L 86.642083 276.264223 
L 86.789052 276.156334 
L 86.936021 276.264152 
L 87.08299 276.155105 
L 87.229959 276.264111 
L 87.376928 276.154794 
L 87.523897 276.264054 
L 87.670866 276.153987 
L 87.817835 276.264021 
L 87.964804 276.15343 
L 88.111773 276.263971 
L 88.258742 276.152835 
L 88.405711 276.263913 
L 88.55268 276.152371 
L 88.699649 276.263885 
L 88.846618 276.150913 
L 88.993587 276.263842 
L 89.140556 276.150418 
L 89.287525 276.26378 
L 89.434494 276.149504 
L 89.581463 276.263734 
L 89.728432 276.148411 
L 89.875401 276.263702 
L 90.02237 276.147893 
L 90.169339 276.263657 
L 90.316308 276.147586 
L 90.463277 276.263607 
L 90.610246 276.146981 
L 90.757215 276.263572 
L 90.904184 276.146699 
L 91.051153 276.26353 
L 91.198122 276.146156 
L 91.345091 276.263408 
L 91.49206 276.144963 
L 91.49206 276.144963 
" clip-path="url(#pacde5774ac)" style="fill: none; stroke: #1f77b4; stroke-width: 1.5; stroke-linecap: square"/>
   </g>
   <g id="line2d_12">
    <path d="M 62.245227 276.273617 
L 64.008855 276.273617 
L 64.155824 275.025585 
L 64.302793 275.197575 
L 64.449762 274.094255 
L 64.596731 271.915706 
L 64.890669 273.79286 
L 65.184607 275.442502 
L 65.478546 276.101845 
L 65.625515 276.240756 
L 65.772484 275.282829 
L 65.919453 260.92442 
L 66.213391 268.590237 
L 66.36036 256.69917 
L 66.507329 268.149511 
L 66.801267 269.492273 
L 67.095205 276.060621 
L 67.242174 276.250271 
L 67.389143 274.477197 
L 67.683081 274.322897 
L 67.83005 273.632576 
L 67.977019 274.225722 
L 68.123988 273.284838 
L 68.270957 274.87561 
L 68.858833 276.260215 
L 69.152771 274.598673 
L 69.29974 271.25644 
L 69.446709 273.117725 
L 69.593678 271.781788 
L 70.034585 275.059949 
L 70.328523 276.143976 
L 70.475492 276.263583 
L 70.76943 275.756494 
L 70.916399 274.43348 
L 71.357306 276.037179 
L 71.504275 275.957996 
L 71.798213 276.273617 
L 72.092151 276.273617 
L 72.23912 275.860306 
L 72.533058 273.938928 
L 72.826996 274.926318 
L 72.973965 274.646877 
L 73.120934 275.613408 
L 73.70881 276.274419 
L 73.855779 273.777295 
L 74.002748 274.457727 
L 74.149717 274.57836 
L 74.296686 272.913474 
L 74.443655 274.061767 
L 74.590624 269.69267 
L 74.737593 273.780667 
L 74.884562 274.178581 
L 75.1785 276.309751 
L 75.325469 276.212197 
L 75.472438 274.371288 
L 75.619407 274.37452 
L 75.766376 274.128102 
L 75.913345 273.240159 
L 76.207283 274.468007 
L 76.354252 274.786413 
L 76.501221 275.587525 
L 76.64819 275.625698 
L 76.942128 276.197041 
L 77.089097 273.76774 
L 77.236066 273.609354 
L 77.383035 274.15224 
L 77.530004 270.110187 
L 77.823942 272.631869 
L 78.11788 275.601887 
L 78.264849 276.228005 
L 78.411818 276.334125 
L 78.558788 276.24744 
L 78.852726 273.700517 
L 78.999695 271.964349 
L 79.146664 273.933764 
L 79.293633 269.608292 
L 79.440602 91.618756 
L 79.587571 238.563206 
L 79.73454 238.895751 
L 79.881509 240.539949 
L 80.028478 240.642579 
L 80.175447 276.255878 
L 80.322416 276.082852 
L 80.616354 275.598478 
L 80.763323 275.480562 
L 80.910292 275.870592 
L 81.057261 275.838034 
L 81.351199 276.223779 
L 81.792106 276.273617 
L 81.939075 275.915451 
L 82.086044 275.129908 
L 82.233013 275.401047 
L 82.379982 276.089382 
L 82.526951 273.77579 
L 82.67392 273.568108 
L 82.967858 275.550139 
L 83.408765 276.293241 
L 83.849672 272.444989 
L 83.996641 274.730274 
L 84.14361 274.065371 
L 84.290579 274.543826 
L 84.437548 275.820693 
L 84.584517 275.932527 
L 84.731486 276.260701 
L 84.878455 276.205474 
L 85.025424 276.311196 
L 85.319362 274.592275 
L 85.466331 274.685607 
L 85.6133 268.631366 
L 85.760269 272.748769 
L 85.907238 272.883864 
L 86.201176 274.425824 
L 86.348145 274.681843 
L 86.495114 275.968915 
L 86.642083 276.174926 
L 86.789052 274.955997 
L 86.936021 271.31871 
L 87.08299 273.436547 
L 87.376928 269.794067 
L 87.670866 274.388323 
L 87.817835 274.726085 
L 88.111773 275.867993 
L 88.258742 276.082062 
L 88.55268 274.825155 
L 88.699649 272.637968 
L 88.846618 272.82687 
L 88.993587 273.750966 
L 89.140556 267.809515 
L 89.287525 273.284994 
L 89.581463 274.825437 
L 89.728432 276.27064 
L 89.875401 276.273617 
L 90.169339 274.638451 
L 90.316308 274.657543 
L 90.610246 275.547616 
L 90.904184 275.889082 
L 91.198122 276.273617 
L 91.49206 276.273617 
L 91.785998 275.622823 
L 91.932968 274.823532 
L 92.079937 273.395271 
L 92.226906 274.433321 
L 92.373875 274.067891 
L 92.520844 275.48941 
L 92.667813 275.503272 
L 92.814782 276.051159 
L 93.10872 276.091816 
L 93.255689 275.568392 
L 93.402658 275.518216 
L 93.696596 274.799441 
L 93.843565 273.221152 
L 93.990534 270.410501 
L 94.137503 273.409352 
L 94.284472 274.042851 
L 94.431441 275.504148 
L 94.725379 275.687428 
L 95.019317 274.717936 
L 95.166286 274.965503 
L 95.313255 274.587755 
L 95.607193 269.839613 
L 95.754162 275.337657 
L 96.195069 276.215364 
L 96.342038 276.121234 
L 96.489007 275.059393 
L 96.635976 275.128102 
L 96.782945 274.878654 
L 96.929914 273.945967 
L 97.076883 273.759124 
L 97.223852 272.808279 
L 97.51779 275.737954 
L 97.811728 276.029298 
L 97.958697 276.163974 
L 98.105666 34.414125 
L 98.546573 272.234176 
L 98.693542 274.170995 
L 98.840511 273.191944 
L 98.98748 275.163116 
L 99.428387 276.285947 
L 99.575356 276.273617 
L 99.869294 275.83171 
L 100.163232 275.575067 
L 100.310201 275.66933 
L 100.45717 274.847487 
L 100.604139 275.298775 
L 100.751108 276.263572 
L 101.192015 276.273617 
L 101.632922 275.038319 
L 101.779891 273.557718 
L 101.92686 274.347013 
L 102.073829 273.051536 
L 102.367767 275.463406 
L 102.514736 276.088167 
L 102.661705 275.973442 
L 102.808674 276.258072 
L 103.102612 274.58616 
L 103.249581 274.667385 
L 103.39655 274.838815 
L 103.690488 273.96497 
L 103.837457 275.300719 
L 103.984426 275.27752 
L 104.131395 275.859678 
L 104.278364 275.887477 
L 104.425333 276.282846 
L 104.572302 275.660685 
L 104.719271 273.600229 
L 104.86624 273.238671 
L 105.013209 273.945036 
L 105.160179 272.408326 
L 105.454117 274.604544 
L 105.748055 275.534001 
L 106.041993 276.214501 
L 106.188962 274.345785 
L 106.335931 275.037613 
L 106.629869 273.868607 
L 106.776838 274.268206 
L 106.923807 273.32748 
L 107.217745 275.362983 
L 107.658652 276.127096 
L 107.805621 272.676698 
L 107.95259 274.575068 
L 108.099559 274.234178 
L 108.246528 272.909761 
L 108.393497 270.167302 
L 108.834404 276.082503 
L 109.128342 276.273617 
L 109.275311 276.273617 
L 109.42228 276.058466 
L 109.569249 275.093843 
L 109.716218 275.088143 
L 110.010156 275.928573 
L 110.157125 275.832498 
L 110.598032 276.273617 
L 110.89197 276.273617 
L 111.038939 275.805853 
L 111.185908 274.378449 
L 111.332877 274.482891 
L 111.479846 274.189467 
L 111.626815 274.39792 
L 111.773784 274.29004 
L 112.214691 276.134475 
L 112.36166 276.106815 
L 112.508629 276.245751 
L 112.802567 274.245448 
L 113.096505 273.434788 
L 113.243474 272.750834 
L 113.390443 273.156716 
L 113.537412 274.813947 
L 113.684381 274.786608 
L 113.83135 275.995117 
L 113.978319 275.947937 
L 114.125288 276.291836 
L 114.419226 274.553538 
L 114.566195 273.790614 
L 114.713164 273.675731 
L 114.860133 273.75232 
L 115.007102 274.711136 
L 115.154071 273.50407 
L 115.594978 276.323172 
L 115.741947 276.253536 
L 116.035885 274.303223 
L 116.329823 270.805444 
L 116.476792 270.952558 
L 117.064668 276.189775 
L 117.211637 275.991951 
L 117.505575 276.243786 
L 118.093451 276.273617 
L 386.899773 276.273617 
L 386.899773 276.273617 
" clip-path="url(#pacde5774ac)" style="fill: none; stroke: #ff7f0e; stroke-width: 1.5; stroke-linecap: square"/>
   </g>
   <g id="patch_3">
    <path d="M 46.0125 288.430125 
L 46.0125 22.318125 
" style="fill: none; stroke: #000000; stroke-width: 0.8; stroke-linejoin: miter; stroke-linecap: square"/>
   </g>
   <g id="patch_4">
    <path d="M 403.1325 288.430125 
L 403.1325 22.318125 
" style="fill: none; stroke: #000000; stroke-width: 0.8; stroke-linejoin: miter; stroke-linecap: square"/>
   </g>
   <g id="patch_5">
    <path d="M 46.0125 288.430125 
L 403.1325 288.430125 
" style="fill: none; stroke: #000000; stroke-width: 0.8; stroke-linejoin: miter; stroke-linecap: square"/>
   </g>
   <g id="patch_6">
    <path d="M 46.0125 22.318125 
L 403.1325 22.318125 
" style="fill: none; stroke: #000000; stroke-width: 0.8; stroke-linejoin: miter; stroke-linecap: square"/>
   </g>
   <g id="text_11">
    <!-- Fast Flux -->
    <g transform="translate(198.135938 16.318125) scale(0.12 -0.12)">
     <defs>
      <path id="DejaVuSans-46" d="M 628 4666 
L 3309 4666 
L 3309 4134 
L 1259 4134 
L 1259 2759 
L 3109 2759 
L 3109 2228 
L 1259 2228 
L 1259 0 
L 628 0 
L 628 4666 
z
" transform="scale(0.015625)"/>
      <path id="DejaVuSans-61" d="M 2194 1759 
Q 1497 1759 1228 1600 
Q 959 1441 959 1056 
Q 959 750 1161 570 
Q 1363 391 1709 391 
Q 2188 391 2477 730 
Q 2766 1069 2766 1631 
L 2766 1759 
L 2194 1759 
z
M 3341 1997 
L 3341 0 
L 2766 0 
L 2766 531 
Q 2569 213 2275 61 
Q 1981 -91 1556 -91 
Q 1019 -91 701 211 
Q 384 513 384 1019 
Q 384 1609 779 1909 
Q 1175 2209 1959 2209 
L 2766 2209 
L 2766 2266 
Q 2766 2663 2505 2880 
Q 2244 3097 1772 3097 
Q 1472 3097 1187 3025 
Q 903 2953 641 2809 
L 641 3341 
Q 956 3463 1253 3523 
Q 1550 3584 1831 3584 
Q 2591 3584 2966 3190 
Q 3341 2797 3341 1997 
z
" transform="scale(0.015625)"/>
      <path id="DejaVuSans-73" d="M 2834 3397 
L 2834 2853 
Q 2591 2978 2328 3040 
Q 2066 3103 1784 3103 
Q 1356 3103 1142 2972 
Q 928 2841 928 2578 
Q 928 2378 1081 2264 
Q 1234 2150 1697 2047 
L 1894 2003 
Q 2506 1872 2764 1633 
Q 3022 1394 3022 966 
Q 3022 478 2636 193 
Q 2250 -91 1575 -91 
Q 1294 -91 989 -36 
Q 684 19 347 128 
L 347 722 
Q 666 556 975 473 
Q 1284 391 1588 391 
Q 1994 391 2212 530 
Q 2431 669 2431 922 
Q 2431 1156 2273 1281 
Q 2116 1406 1581 1522 
L 1381 1569 
Q 847 1681 609 1914 
Q 372 2147 372 2553 
Q 372 3047 722 3315 
Q 1072 3584 1716 3584 
Q 2034 3584 2315 3537 
Q 2597 3491 2834 3397 
z
" transform="scale(0.015625)"/>
      <path id="DejaVuSans-74" d="M 1172 4494 
L 1172 3500 
L 2356 3500 
L 2356 3053 
L 1172 3053 
L 1172 1153 
Q 1172 725 1289 603 
Q 1406 481 1766 481 
L 2356 481 
L 2356 0 
L 1766 0 
Q 1100 0 847 248 
Q 594 497 594 1153 
L 594 3053 
L 172 3053 
L 172 3500 
L 594 3500 
L 594 4494 
L 1172 4494 
z
" transform="scale(0.015625)"/>
      <path id="DejaVuSans-20" transform="scale(0.015625)"/>
      <path id="DejaVuSans-6c" d="M 603 4863 
L 1178 4863 
L 1178 0 
L 603 0 
L 603 4863 
z
" transform="scale(0.015625)"/>
      <path id="DejaVuSans-75" d="M 544 1381 
L 544 3500 
L 1119 3500 
L 1119 1403 
Q 1119 906 1312 657 
Q 1506 409 1894 409 
Q 2359 409 2629 706 
Q 2900 1003 2900 1516 
L 2900 3500 
L 3475 3500 
L 3475 0 
L 2900 0 
L 2900 538 
Q 2691 219 2414 64 
Q 2138 -91 1772 -91 
Q 1169 -91 856 284 
Q 544 659 544 1381 
z
M 1991 3584 
L 1991 3584 
z
" transform="scale(0.015625)"/>
      <path id="DejaVuSans-78" d="M 3513 3500 
L 2247 1797 
L 3578 0 
L 2900 0 
L 1881 1375 
L 863 0 
L 184 0 
L 1544 1831 
L 300 3500 
L 978 3500 
L 1906 2253 
L 2834 3500 
L 3513 3500 
z
" transform="scale(0.015625)"/>
     </defs>
     <use xlink:href="#DejaVuSans-46"/>
     <use xlink:href="#DejaVuSans-61" x="48.394531"/>
     <use xlink:href="#DejaVuSans-73" x="109.673828"/>
     <use xlink:href="#DejaVuSans-74" x="161.773438"/>
     <use xlink:href="#DejaVuSans-20" x="200.982422"/>
     <use xlink:href="#DejaVuSans-46" x="232.769531"/>
     <use xlink:href="#DejaVuSans-6c" x="290.289062"/>
     <use xlink:href="#DejaVuSans-75" x="318.072266"/>
     <use xlink:href="#DejaVuSans-78" x="381.451172"/>
    </g>
   </g>
  </g>
 </g>
 <defs>
  <clipPath id="pacde5774ac">
   <rect x="46.0125" y="22.318125" width="357.12" height="266.112"/>
  </clipPath>
 </defs>
</svg>
