<?xml version="1.0" encoding="utf-8" standalone="no"?>
<!DOCTYPE svg PUBLIC "-//W3C//DTD SVG 1.1//EN"
  "http://www.w3.org/Graphics/SVG/1.1/DTD/svg11.dtd">
<svg xmlns:xlink="http://www.w3.org/1999/xlink" width="403.97pt" height="312.30825pt" viewBox="0 0 403.97 312.30825" xmlns="http://www.w3.org/2000/svg" version="1.1">
 <metadata>
  <rdf:RDF xmlns:dc="http://purl.org/dc/elements/1.1/" xmlns:cc="http://creativecommons.org/ns#" xmlns:rdf="http://www.w3.org/1999/02/22-rdf-syntax-ns#">
   <cc:Work>
    <dc:type rdf:resource="http://purl.org/dc/dcmitype/StillImage"/>
    <dc:date>2024-03-14T14:52:06.568834</dc:date>
    <dc:format>image/svg+xml</dc:format>
    <dc:creator>
     <cc:Agent>
      <dc:title>Matplotlib v3.8.3, https://matplotlib.org/</dc:title>
     </cc:Agent>
    </dc:creator>
   </cc:Work>
  </rdf:RDF>
 </metadata>
 <defs>
  <style type="text/css">*{stroke-linejoin: round; stroke-linecap: butt}</style>
 </defs>
 <g id="figure_1">
  <g id="patch_1">
   <path d="M 0 312.30825 
L 403.97 312.30825 
L 403.97 0 
L 0 0 
z
" style="fill: #ffffff"/>
  </g>
  <g id="axes_1">
   <g id="patch_2">
    <path d="M 39.65 288.430125 
L 396.77 288.430125 
L 396.77 22.318125 
L 39.65 22.318125 
z
" style="fill: #ffffff"/>
   </g>
   <g id="matplotlib.axis_1">
    <g id="xtick_1">
     <g id="line2d_1">
      <defs>
       <path id="mf1d2a4a526" d="M 0 0 
L 0 3.5 
" style="stroke: #000000; stroke-width: 0.8"/>
      </defs>
      <g>
       <use xlink:href="#mf1d2a4a526" x="55.882727" y="288.430125" style="stroke: #000000; stroke-width: 0.8"/>
      </g>
     </g>
     <g id="text_1">
      <!-- 0 -->
      <g transform="translate(52.701477 303.028562) scale(0.1 -0.1)">
       <defs>
        <path id="DejaVuSans-30" d="M 2034 4250 
Q 1547 4250 1301 3770 
Q 1056 3291 1056 2328 
Q 1056 1369 1301 889 
Q 1547 409 2034 409 
Q 2525 409 2770 889 
Q 3016 1369 3016 2328 
Q 3016 3291 2770 3770 
Q 2525 4250 2034 4250 
z
M 2034 4750 
Q 2819 4750 3233 4129 
Q 3647 3509 3647 2328 
Q 3647 1150 3233 529 
Q 2819 -91 2034 -91 
Q 1250 -91 836 529 
Q 422 1150 422 2328 
Q 422 3509 836 4129 
Q 1250 4750 2034 4750 
z
" transform="scale(0.015625)"/>
       </defs>
       <use xlink:href="#DejaVuSans-30"/>
      </g>
     </g>
    </g>
    <g id="xtick_2">
     <g id="line2d_2">
      <g>
       <use xlink:href="#mf1d2a4a526" x="99.402103" y="288.430125" style="stroke: #000000; stroke-width: 0.8"/>
      </g>
     </g>
     <g id="text_2">
      <!-- 50 -->
      <g transform="translate(93.039603 303.028562) scale(0.1 -0.1)">
       <defs>
        <path id="DejaVuSans-35" d="M 691 4666 
L 3169 4666 
L 3169 4134 
L 1269 4134 
L 1269 2991 
Q 1406 3038 1543 3061 
Q 1681 3084 1819 3084 
Q 2600 3084 3056 2656 
Q 3513 2228 3513 1497 
Q 3513 744 3044 326 
Q 2575 -91 1722 -91 
Q 1428 -91 1123 -41 
Q 819 9 494 109 
L 494 744 
Q 775 591 1075 516 
Q 1375 441 1709 441 
Q 2250 441 2565 725 
Q 2881 1009 2881 1497 
Q 2881 1984 2565 2268 
Q 2250 2553 1709 2553 
Q 1456 2553 1204 2497 
Q 953 2441 691 2322 
L 691 4666 
z
" transform="scale(0.015625)"/>
       </defs>
       <use xlink:href="#DejaVuSans-35"/>
       <use xlink:href="#DejaVuSans-30" x="63.623047"/>
      </g>
     </g>
    </g>
    <g id="xtick_3">
     <g id="line2d_3">
      <g>
       <use xlink:href="#mf1d2a4a526" x="142.921479" y="288.430125" style="stroke: #000000; stroke-width: 0.8"/>
      </g>
     </g>
     <g id="text_3">
      <!-- 100 -->
      <g transform="translate(133.377729 303.028562) scale(0.1 -0.1)">
       <defs>
        <path id="DejaVuSans-31" d="M 794 531 
L 1825 531 
L 1825 4091 
L 703 3866 
L 703 4441 
L 1819 4666 
L 2450 4666 
L 2450 531 
L 3481 531 
L 3481 0 
L 794 0 
L 794 531 
z
" transform="scale(0.015625)"/>
       </defs>
       <use xlink:href="#DejaVuSans-31"/>
       <use xlink:href="#DejaVuSans-30" x="63.623047"/>
       <use xlink:href="#DejaVuSans-30" x="127.246094"/>
      </g>
     </g>
    </g>
    <g id="xtick_4">
     <g id="line2d_4">
      <g>
       <use xlink:href="#mf1d2a4a526" x="186.440855" y="288.430125" style="stroke: #000000; stroke-width: 0.8"/>
      </g>
     </g>
     <g id="text_4">
      <!-- 150 -->
      <g transform="translate(176.897105 303.028562) scale(0.1 -0.1)">
       <use xlink:href="#DejaVuSans-31"/>
       <use xlink:href="#DejaVuSans-35" x="63.623047"/>
       <use xlink:href="#DejaVuSans-30" x="127.246094"/>
      </g>
     </g>
    </g>
    <g id="xtick_5">
     <g id="line2d_5">
      <g>
       <use xlink:href="#mf1d2a4a526" x="229.960232" y="288.430125" style="stroke: #000000; stroke-width: 0.8"/>
      </g>
     </g>
     <g id="text_5">
      <!-- 200 -->
      <g transform="translate(220.416482 303.028562) scale(0.1 -0.1)">
       <defs>
        <path id="DejaVuSans-32" d="M 1228 531 
L 3431 531 
L 3431 0 
L 469 0 
L 469 531 
Q 828 903 1448 1529 
Q 2069 2156 2228 2338 
Q 2531 2678 2651 2914 
Q 2772 3150 2772 3378 
Q 2772 3750 2511 3984 
Q 2250 4219 1831 4219 
Q 1534 4219 1204 4116 
Q 875 4013 500 3803 
L 500 4441 
Q 881 4594 1212 4672 
Q 1544 4750 1819 4750 
Q 2544 4750 2975 4387 
Q 3406 4025 3406 3419 
Q 3406 3131 3298 2873 
Q 3191 2616 2906 2266 
Q 2828 2175 2409 1742 
Q 1991 1309 1228 531 
z
" transform="scale(0.015625)"/>
       </defs>
       <use xlink:href="#DejaVuSans-32"/>
       <use xlink:href="#DejaVuSans-30" x="63.623047"/>
       <use xlink:href="#DejaVuSans-30" x="127.246094"/>
      </g>
     </g>
    </g>
    <g id="xtick_6">
     <g id="line2d_6">
      <g>
       <use xlink:href="#mf1d2a4a526" x="273.479608" y="288.430125" style="stroke: #000000; stroke-width: 0.8"/>
      </g>
     </g>
     <g id="text_6">
      <!-- 250 -->
      <g transform="translate(263.935858 303.028562) scale(0.1 -0.1)">
       <use xlink:href="#DejaVuSans-32"/>
       <use xlink:href="#DejaVuSans-35" x="63.623047"/>
       <use xlink:href="#DejaVuSans-30" x="127.246094"/>
      </g>
     </g>
    </g>
    <g id="xtick_7">
     <g id="line2d_7">
      <g>
       <use xlink:href="#mf1d2a4a526" x="316.998984" y="288.430125" style="stroke: #000000; stroke-width: 0.8"/>
      </g>
     </g>
     <g id="text_7">
      <!-- 300 -->
      <g transform="translate(307.455234 303.028562) scale(0.1 -0.1)">
       <defs>
        <path id="DejaVuSans-33" d="M 2597 2516 
Q 3050 2419 3304 2112 
Q 3559 1806 3559 1356 
Q 3559 666 3084 287 
Q 2609 -91 1734 -91 
Q 1441 -91 1130 -33 
Q 819 25 488 141 
L 488 750 
Q 750 597 1062 519 
Q 1375 441 1716 441 
Q 2309 441 2620 675 
Q 2931 909 2931 1356 
Q 2931 1769 2642 2001 
Q 2353 2234 1838 2234 
L 1294 2234 
L 1294 2753 
L 1863 2753 
Q 2328 2753 2575 2939 
Q 2822 3125 2822 3475 
Q 2822 3834 2567 4026 
Q 2313 4219 1838 4219 
Q 1578 4219 1281 4162 
Q 984 4106 628 3988 
L 628 4550 
Q 988 4650 1302 4700 
Q 1616 4750 1894 4750 
Q 2613 4750 3031 4423 
Q 3450 4097 3450 3541 
Q 3450 3153 3228 2886 
Q 3006 2619 2597 2516 
z
" transform="scale(0.015625)"/>
       </defs>
       <use xlink:href="#DejaVuSans-33"/>
       <use xlink:href="#DejaVuSans-30" x="63.623047"/>
       <use xlink:href="#DejaVuSans-30" x="127.246094"/>
      </g>
     </g>
    </g>
    <g id="xtick_8">
     <g id="line2d_8">
      <g>
       <use xlink:href="#mf1d2a4a526" x="360.51836" y="288.430125" style="stroke: #000000; stroke-width: 0.8"/>
      </g>
     </g>
     <g id="text_8">
      <!-- 350 -->
      <g transform="translate(350.97461 303.028562) scale(0.1 -0.1)">
       <use xlink:href="#DejaVuSans-33"/>
       <use xlink:href="#DejaVuSans-35" x="63.623047"/>
       <use xlink:href="#DejaVuSans-30" x="127.246094"/>
      </g>
     </g>
    </g>
   </g>
   <g id="matplotlib.axis_2">
    <g id="ytick_1">
     <g id="line2d_9">
      <defs>
       <path id="ma9f2d079c3" d="M 0 0 
L -3.5 0 
" style="stroke: #000000; stroke-width: 0.8"/>
      </defs>
      <g>
       <use xlink:href="#ma9f2d079c3" x="39.65" y="276.437487" style="stroke: #000000; stroke-width: 0.8"/>
      </g>
     </g>
     <g id="text_9">
      <!-- 0 -->
      <g transform="translate(26.2875 280.236706) scale(0.1 -0.1)">
       <use xlink:href="#DejaVuSans-30"/>
      </g>
     </g>
    </g>
    <g id="ytick_2">
     <g id="line2d_10">
      <g>
       <use xlink:href="#ma9f2d079c3" x="39.65" y="241.817058" style="stroke: #000000; stroke-width: 0.8"/>
      </g>
     </g>
     <g id="text_10">
      <!-- 1000 -->
      <g transform="translate(7.2 245.616277) scale(0.1 -0.1)">
       <use xlink:href="#DejaVuSans-31"/>
       <use xlink:href="#DejaVuSans-30" x="63.623047"/>
       <use xlink:href="#DejaVuSans-30" x="127.246094"/>
       <use xlink:href="#DejaVuSans-30" x="190.869141"/>
      </g>
     </g>
    </g>
    <g id="ytick_3">
     <g id="line2d_11">
      <g>
       <use xlink:href="#ma9f2d079c3" x="39.65" y="207.19663" style="stroke: #000000; stroke-width: 0.8"/>
      </g>
     </g>
     <g id="text_11">
      <!-- 2000 -->
      <g transform="translate(7.2 210.995849) scale(0.1 -0.1)">
       <use xlink:href="#DejaVuSans-32"/>
       <use xlink:href="#DejaVuSans-30" x="63.623047"/>
       <use xlink:href="#DejaVuSans-30" x="127.246094"/>
       <use xlink:href="#DejaVuSans-30" x="190.869141"/>
      </g>
     </g>
    </g>
    <g id="ytick_4">
     <g id="line2d_12">
      <g>
       <use xlink:href="#ma9f2d079c3" x="39.65" y="172.576202" style="stroke: #000000; stroke-width: 0.8"/>
      </g>
     </g>
     <g id="text_12">
      <!-- 3000 -->
      <g transform="translate(7.2 176.37542) scale(0.1 -0.1)">
       <use xlink:href="#DejaVuSans-33"/>
       <use xlink:href="#DejaVuSans-30" x="63.623047"/>
       <use xlink:href="#DejaVuSans-30" x="127.246094"/>
       <use xlink:href="#DejaVuSans-30" x="190.869141"/>
      </g>
     </g>
    </g>
    <g id="ytick_5">
     <g id="line2d_13">
      <g>
       <use xlink:href="#ma9f2d079c3" x="39.65" y="137.955773" style="stroke: #000000; stroke-width: 0.8"/>
      </g>
     </g>
     <g id="text_13">
      <!-- 4000 -->
      <g transform="translate(7.2 141.754992) scale(0.1 -0.1)">
       <defs>
        <path id="DejaVuSans-34" d="M 2419 4116 
L 825 1625 
L 2419 1625 
L 2419 4116 
z
M 2253 4666 
L 3047 4666 
L 3047 1625 
L 3713 1625 
L 3713 1100 
L 3047 1100 
L 3047 0 
L 2419 0 
L 2419 1100 
L 313 1100 
L 313 1709 
L 2253 4666 
z
" transform="scale(0.015625)"/>
       </defs>
       <use xlink:href="#DejaVuSans-34"/>
       <use xlink:href="#DejaVuSans-30" x="63.623047"/>
       <use xlink:href="#DejaVuSans-30" x="127.246094"/>
       <use xlink:href="#DejaVuSans-30" x="190.869141"/>
      </g>
     </g>
    </g>
    <g id="ytick_6">
     <g id="line2d_14">
      <g>
       <use xlink:href="#ma9f2d079c3" x="39.65" y="103.335345" style="stroke: #000000; stroke-width: 0.8"/>
      </g>
     </g>
     <g id="text_14">
      <!-- 5000 -->
      <g transform="translate(7.2 107.134563) scale(0.1 -0.1)">
       <use xlink:href="#DejaVuSans-35"/>
       <use xlink:href="#DejaVuSans-30" x="63.623047"/>
       <use xlink:href="#DejaVuSans-30" x="127.246094"/>
       <use xlink:href="#DejaVuSans-30" x="190.869141"/>
      </g>
     </g>
    </g>
    <g id="ytick_7">
     <g id="line2d_15">
      <g>
       <use xlink:href="#ma9f2d079c3" x="39.65" y="68.714916" style="stroke: #000000; stroke-width: 0.8"/>
      </g>
     </g>
     <g id="text_15">
      <!-- 6000 -->
      <g transform="translate(7.2 72.514135) scale(0.1 -0.1)">
       <defs>
        <path id="DejaVuSans-36" d="M 2113 2584 
Q 1688 2584 1439 2293 
Q 1191 2003 1191 1497 
Q 1191 994 1439 701 
Q 1688 409 2113 409 
Q 2538 409 2786 701 
Q 3034 994 3034 1497 
Q 3034 2003 2786 2293 
Q 2538 2584 2113 2584 
z
M 3366 4563 
L 3366 3988 
Q 3128 4100 2886 4159 
Q 2644 4219 2406 4219 
Q 1781 4219 1451 3797 
Q 1122 3375 1075 2522 
Q 1259 2794 1537 2939 
Q 1816 3084 2150 3084 
Q 2853 3084 3261 2657 
Q 3669 2231 3669 1497 
Q 3669 778 3244 343 
Q 2819 -91 2113 -91 
Q 1303 -91 875 529 
Q 447 1150 447 2328 
Q 447 3434 972 4092 
Q 1497 4750 2381 4750 
Q 2619 4750 2861 4703 
Q 3103 4656 3366 4563 
z
" transform="scale(0.015625)"/>
       </defs>
       <use xlink:href="#DejaVuSans-36"/>
       <use xlink:href="#DejaVuSans-30" x="63.623047"/>
       <use xlink:href="#DejaVuSans-30" x="127.246094"/>
       <use xlink:href="#DejaVuSans-30" x="190.869141"/>
      </g>
     </g>
    </g>
    <g id="ytick_8">
     <g id="line2d_16">
      <g>
       <use xlink:href="#ma9f2d079c3" x="39.65" y="34.094488" style="stroke: #000000; stroke-width: 0.8"/>
      </g>
     </g>
     <g id="text_16">
      <!-- 7000 -->
      <g transform="translate(7.2 37.893706) scale(0.1 -0.1)">
       <defs>
        <path id="DejaVuSans-37" d="M 525 4666 
L 3525 4666 
L 3525 4397 
L 1831 0 
L 1172 0 
L 2766 4134 
L 525 4134 
L 525 4666 
z
" transform="scale(0.015625)"/>
       </defs>
       <use xlink:href="#DejaVuSans-37"/>
       <use xlink:href="#DejaVuSans-30" x="63.623047"/>
       <use xlink:href="#DejaVuSans-30" x="127.246094"/>
       <use xlink:href="#DejaVuSans-30" x="190.869141"/>
      </g>
     </g>
    </g>
   </g>
   <g id="line2d_17">
    <path d="M 55.882727 274.863619 
L 56.753115 274.478553 
L 57.623502 274.504887 
L 58.49389 276.334125 
L 61.97544 276.320063 
L 62.845827 257.761256 
L 63.716215 274.782823 
L 64.586602 276.156163 
L 65.45699 276.138578 
L 66.327378 272.481472 
L 67.197765 270.04149 
L 68.068153 275.21805 
L 68.93854 275.035305 
L 71.549703 275.133628 
L 72.42009 262.348218 
L 73.290478 270.306155 
L 74.160865 275.301421 
L 75.031253 275.307721 
L 75.90164 269.813739 
L 76.772028 262.639449 
L 77.642415 275.237161 
L 80.253578 275.211651 
L 81.123965 275.043204 
L 81.994353 259.237464 
L 82.86474 270.732127 
L 83.735128 275.648573 
L 84.605515 275.669275 
L 85.475903 242.63989 
L 86.346291 248.849317 
L 87.216678 274.628574 
L 88.087066 274.3326 
L 88.957453 274.513071 
L 90.698228 274.55418 
L 91.568616 255.542674 
L 92.439003 269.346248 
L 93.309391 275.355736 
L 94.179778 275.368069 
L 95.050166 265.102105 
L 95.920553 258.222173 
L 96.790941 274.770048 
L 99.402103 274.692232 
L 100.272491 275.190122 
L 101.142878 258.016869 
L 102.013266 267.616323 
L 102.883653 275.252778 
L 103.754041 275.277425 
L 104.624428 268.309834 
L 105.494816 248.989322 
L 106.365204 273.946948 
L 108.976366 273.684874 
L 109.846754 273.880548 
L 110.717141 229.473489 
L 111.587529 268.425444 
L 112.457916 275.374337 
L 113.328304 275.423111 
L 114.198691 262.241067 
L 115.069079 250.986873 
L 115.939466 274.401181 
L 117.680241 274.638386 
L 118.550629 274.576962 
L 119.421016 274.800357 
L 120.291404 262.232936 
L 122.032179 275.51433 
L 122.902566 275.534868 
L 123.772954 268.985575 
L 124.643341 260.481307 
L 125.513729 274.969935 
L 126.384117 274.64729 
L 127.254504 274.056131 
L 128.124892 273.287367 
L 128.995279 273.915371 
L 129.865667 256.57274 
L 130.736054 265.295321 
L 131.606442 275.252987 
L 132.476829 275.266855 
L 133.347217 268.681453 
L 134.217604 258.024872 
L 135.087992 274.755364 
L 135.958379 274.837475 
L 136.828767 275.073879 
L 137.699154 275.053919 
L 138.569542 275.268892 
L 139.439929 259.319518 
L 140.310317 265.065081 
L 141.180704 275.544558 
L 142.051092 275.57052 
L 142.921479 263.525589 
L 143.791867 260.437023 
L 144.662254 275.103441 
L 146.403029 275.061538 
L 147.273417 274.7511 
L 148.143805 274.963166 
L 149.014192 260.596829 
L 149.88458 208.057522 
L 150.754967 269.983557 
L 151.625355 269.996044 
L 153.36613 254.964787 
L 154.236517 275.061489 
L 155.106905 274.581828 
L 155.977292 274.802693 
L 156.84768 274.77266 
L 157.718067 274.934583 
L 158.588455 260.073996 
L 160.32923 274.77281 
L 161.199617 274.78242 
L 162.070005 268.291725 
L 162.940392 245.776027 
L 163.81078 275.150217 
L 167.29233 275.108634 
L 168.162718 260.53991 
L 169.033105 265.725015 
L 169.903493 274.998681 
L 170.77388 275.025326 
L 171.644268 266.676101 
L 172.514655 260.056309 
L 173.385043 275.323448 
L 175.996205 275.240029 
L 176.866593 275.337828 
L 177.73698 260.235594 
L 178.607368 262.686109 
L 179.477755 275.451322 
L 180.348143 275.473593 
L 181.21853 263.690186 
L 182.088918 260.527874 
L 182.959305 274.226897 
L 183.829693 274.852146 
L 186.440855 274.959042 
L 187.311243 257.652296 
L 188.181631 269.820011 
L 189.052018 275.210079 
L 189.922406 275.227583 
L 190.792793 266.520395 
L 191.663181 254.128176 
L 192.533568 274.561266 
L 195.144731 274.588869 
L 196.015118 274.774532 
L 196.885506 251.55916 
L 197.755893 265.833117 
L 198.626281 275.323226 
L 199.496668 275.342726 
L 201.237443 258.915656 
L 202.107831 275.02871 
L 203.848606 273.902067 
L 204.718993 273.899948 
L 205.589381 274.043665 
L 206.459768 257.81578 
L 207.330156 265.501896 
L 208.200544 275.400057 
L 209.070931 275.410842 
L 210.811706 257.245081 
L 211.682094 274.97029 
L 214.293256 274.677392 
L 215.163644 274.80951 
L 216.034031 258.951068 
L 216.904419 268.874694 
L 217.774806 275.225203 
L 218.645194 275.23616 
L 219.515581 268.179112 
L 220.385969 256.632673 
L 221.256356 274.782508 
L 222.126744 274.930311 
L 223.867519 275.002438 
L 224.737906 275.129091 
L 225.608294 253.910126 
L 226.478681 266.997553 
L 227.349069 275.073955 
L 228.219456 275.122588 
L 229.089844 265.660224 
L 229.960232 259.864582 
L 230.830619 274.950822 
L 234.312169 275.17073 
L 235.182557 260.092477 
L 236.923332 273.288907 
L 237.793719 273.303395 
L 238.664107 260.475222 
L 239.534494 260.576051 
L 240.404882 274.953628 
L 243.886432 274.843287 
L 244.756819 256.200806 
L 245.627207 266.39747 
L 246.497594 274.343305 
L 247.367982 274.37711 
L 248.238369 265.720819 
L 249.108757 260.880669 
L 249.979145 275.20928 
L 253.460695 275.246162 
L 254.331082 259.426079 
L 255.20147 269.881239 
L 256.071857 275.013733 
L 256.942245 275.047849 
L 257.812632 266.726534 
L 258.68302 257.213386 
L 259.553407 274.919925 
L 260.423795 274.751764 
L 261.294182 274.041216 
L 262.16457 274.84146 
L 263.034957 274.966973 
L 263.905345 260.477519 
L 264.775732 250.946964 
L 265.64612 274.878119 
L 266.516507 274.924865 
L 268.257282 252.461473 
L 269.12767 274.999745 
L 270.868445 274.854793 
L 271.738833 274.750544 
L 272.60922 275.001788 
L 273.479608 34.414125 
L 274.349995 269.407864 
L 275.220383 275.497443 
L 276.09077 275.50925 
L 276.961158 268.441256 
L 277.831545 256.454879 
L 278.701933 275.14982 
L 280.442708 275.035724 
L 281.313095 274.739442 
L 282.183483 274.754033 
L 283.05387 261.455215 
L 283.924258 266.481978 
L 284.794645 275.376187 
L 285.665033 275.394987 
L 286.53542 269.340159 
L 287.405808 256.111946 
L 288.276195 275.077706 
L 289.146583 274.913365 
L 291.757746 275.052022 
L 292.628133 249.539875 
L 293.498521 264.446558 
L 294.368908 274.340701 
L 295.239296 274.370818 
L 296.980071 249.361 
L 297.850458 273.978009 
L 299.591233 273.749099 
L 300.461621 273.866233 
L 301.332008 274.136302 
L 302.202396 258.641531 
L 303.072783 258.176058 
L 303.943171 275.181494 
L 304.813558 275.196532 
L 305.683946 269.121939 
L 306.554333 251.383808 
L 307.424721 274.780791 
L 309.165496 274.715895 
L 310.906271 274.826604 
L 311.776659 262.925687 
L 312.647046 269.837154 
L 313.517434 275.494129 
L 314.387821 275.530791 
L 315.258209 269.303118 
L 316.128596 259.813806 
L 316.998984 275.26492 
L 317.869371 275.096017 
L 318.739759 271.593031 
L 319.610146 273.74866 
L 320.480534 273.768903 
L 321.350921 257.18 
L 322.221309 264.721856 
L 323.091696 275.328011 
L 323.962084 275.353208 
L 324.832471 267.733128 
L 325.702859 228.651133 
L 326.573246 274.614575 
L 329.184409 274.652069 
L 330.054796 274.805425 
L 330.925184 196.728367 
L 331.795572 245.506117 
L 332.665959 266.771412 
L 333.536347 266.79642 
L 334.406734 267.839862 
L 335.277122 257.974742 
L 336.147509 274.850693 
L 337.017897 274.590031 
L 337.888284 274.466795 
L 338.758672 274.819327 
L 339.629059 274.850848 
L 340.499447 257.752643 
L 341.369834 261.274123 
L 342.240222 268.109317 
L 343.110609 268.127314 
L 343.980997 185.945015 
L 344.851384 260.333002 
L 345.721772 274.967298 
L 346.592159 274.883792 
L 347.462547 274.990467 
L 348.332934 274.966107 
L 349.203322 275.143316 
L 350.073709 231.4566 
L 350.944097 268.216505 
L 351.814485 275.516034 
L 352.684872 275.534974 
L 353.55526 262.595861 
L 354.425647 251.944818 
L 355.296035 273.109109 
L 356.166422 273.138449 
L 357.03681 272.497652 
L 357.907197 271.57946 
L 358.777585 273.510118 
L 359.647972 246.145626 
L 360.51836 268.824651 
L 361.388747 275.157674 
L 362.259135 275.446929 
L 363.129522 269.242754 
L 363.99991 258.406955 
L 364.870297 274.685727 
L 366.611072 274.54568 
L 368.351847 274.723243 
L 369.222235 261.124694 
L 370.092622 269.137134 
L 370.96301 275.607247 
L 371.833398 275.635255 
L 372.703785 272.452545 
L 373.574173 261.356624 
L 374.44456 275.594637 
L 375.314948 275.524243 
L 376.185335 275.222786 
L 377.92611 275.566086 
L 378.796498 272.719911 
L 379.666885 273.705411 
L 380.537273 270.16588 
L 380.537273 270.16588 
" clip-path="url(#p8e15b524db)" style="fill: none; stroke: #1f77b4; stroke-width: 1.5; stroke-linecap: square"/>
   </g>
   <g id="patch_3">
    <path d="M 39.65 288.430125 
L 39.65 22.318125 
" style="fill: none; stroke: #000000; stroke-width: 0.8; stroke-linejoin: miter; stroke-linecap: square"/>
   </g>
   <g id="patch_4">
    <path d="M 396.77 288.430125 
L 396.77 22.318125 
" style="fill: none; stroke: #000000; stroke-width: 0.8; stroke-linejoin: miter; stroke-linecap: square"/>
   </g>
   <g id="patch_5">
    <path d="M 39.65 288.430125 
L 396.77 288.430125 
" style="fill: none; stroke: #000000; stroke-width: 0.8; stroke-linejoin: miter; stroke-linecap: square"/>
   </g>
   <g id="patch_6">
    <path d="M 39.65 22.318125 
L 396.77 22.318125 
" style="fill: none; stroke: #000000; stroke-width: 0.8; stroke-linejoin: miter; stroke-linecap: square"/>
   </g>
   <g id="text_17">
    <!-- Fast Flux -->
    <g transform="translate(191.773438 16.318125) scale(0.12 -0.12)">
     <defs>
      <path id="DejaVuSans-46" d="M 628 4666 
L 3309 4666 
L 3309 4134 
L 1259 4134 
L 1259 2759 
L 3109 2759 
L 3109 2228 
L 1259 2228 
L 1259 0 
L 628 0 
L 628 4666 
z
" transform="scale(0.015625)"/>
      <path id="DejaVuSans-61" d="M 2194 1759 
Q 1497 1759 1228 1600 
Q 959 1441 959 1056 
Q 959 750 1161 570 
Q 1363 391 1709 391 
Q 2188 391 2477 730 
Q 2766 1069 2766 1631 
L 2766 1759 
L 2194 1759 
z
M 3341 1997 
L 3341 0 
L 2766 0 
L 2766 531 
Q 2569 213 2275 61 
Q 1981 -91 1556 -91 
Q 1019 -91 701 211 
Q 384 513 384 1019 
Q 384 1609 779 1909 
Q 1175 2209 1959 2209 
L 2766 2209 
L 2766 2266 
Q 2766 2663 2505 2880 
Q 2244 3097 1772 3097 
Q 1472 3097 1187 3025 
Q 903 2953 641 2809 
L 641 3341 
Q 956 3463 1253 3523 
Q 1550 3584 1831 3584 
Q 2591 3584 2966 3190 
Q 3341 2797 3341 1997 
z
" transform="scale(0.015625)"/>
      <path id="DejaVuSans-73" d="M 2834 3397 
L 2834 2853 
Q 2591 2978 2328 3040 
Q 2066 3103 1784 3103 
Q 1356 3103 1142 2972 
Q 928 2841 928 2578 
Q 928 2378 1081 2264 
Q 1234 2150 1697 2047 
L 1894 2003 
Q 2506 1872 2764 1633 
Q 3022 1394 3022 966 
Q 3022 478 2636 193 
Q 2250 -91 1575 -91 
Q 1294 -91 989 -36 
Q 684 19 347 128 
L 347 722 
Q 666 556 975 473 
Q 1284 391 1588 391 
Q 1994 391 2212 530 
Q 2431 669 2431 922 
Q 2431 1156 2273 1281 
Q 2116 1406 1581 1522 
L 1381 1569 
Q 847 1681 609 1914 
Q 372 2147 372 2553 
Q 372 3047 722 3315 
Q 1072 3584 1716 3584 
Q 2034 3584 2315 3537 
Q 2597 3491 2834 3397 
z
" transform="scale(0.015625)"/>
      <path id="DejaVuSans-74" d="M 1172 4494 
L 1172 3500 
L 2356 3500 
L 2356 3053 
L 1172 3053 
L 1172 1153 
Q 1172 725 1289 603 
Q 1406 481 1766 481 
L 2356 481 
L 2356 0 
L 1766 0 
Q 1100 0 847 248 
Q 594 497 594 1153 
L 594 3053 
L 172 3053 
L 172 3500 
L 594 3500 
L 594 4494 
L 1172 4494 
z
" transform="scale(0.015625)"/>
      <path id="DejaVuSans-20" transform="scale(0.015625)"/>
      <path id="DejaVuSans-6c" d="M 603 4863 
L 1178 4863 
L 1178 0 
L 603 0 
L 603 4863 
z
" transform="scale(0.015625)"/>
      <path id="DejaVuSans-75" d="M 544 1381 
L 544 3500 
L 1119 3500 
L 1119 1403 
Q 1119 906 1312 657 
Q 1506 409 1894 409 
Q 2359 409 2629 706 
Q 2900 1003 2900 1516 
L 2900 3500 
L 3475 3500 
L 3475 0 
L 2900 0 
L 2900 538 
Q 2691 219 2414 64 
Q 2138 -91 1772 -91 
Q 1169 -91 856 284 
Q 544 659 544 1381 
z
M 1991 3584 
L 1991 3584 
z
" transform="scale(0.015625)"/>
      <path id="DejaVuSans-78" d="M 3513 3500 
L 2247 1797 
L 3578 0 
L 2900 0 
L 1881 1375 
L 863 0 
L 184 0 
L 1544 1831 
L 300 3500 
L 978 3500 
L 1906 2253 
L 2834 3500 
L 3513 3500 
z
" transform="scale(0.015625)"/>
     </defs>
     <use xlink:href="#DejaVuSans-46"/>
     <use xlink:href="#DejaVuSans-61" x="48.394531"/>
     <use xlink:href="#DejaVuSans-73" x="109.673828"/>
     <use xlink:href="#DejaVuSans-74" x="161.773438"/>
     <use xlink:href="#DejaVuSans-20" x="200.982422"/>
     <use xlink:href="#DejaVuSans-46" x="232.769531"/>
     <use xlink:href="#DejaVuSans-6c" x="290.289062"/>
     <use xlink:href="#DejaVuSans-75" x="318.072266"/>
     <use xlink:href="#DejaVuSans-78" x="381.451172"/>
    </g>
   </g>
  </g>
 </g>
 <defs>
  <clipPath id="p8e15b524db">
   <rect x="39.65" y="22.318125" width="357.12" height="266.112"/>
  </clipPath>
 </defs>
</svg>
