<?xml version="1.0" encoding="utf-8" standalone="no"?>
<!DOCTYPE svg PUBLIC "-//W3C//DTD SVG 1.1//EN"
  "http://www.w3.org/Graphics/SVG/1.1/DTD/svg11.dtd">
<svg xmlns:xlink="http://www.w3.org/1999/xlink" width="403.97pt" height="312.30825pt" viewBox="0 0 403.97 312.30825" xmlns="http://www.w3.org/2000/svg" version="1.1">
 <metadata>
  <rdf:RDF xmlns:dc="http://purl.org/dc/elements/1.1/" xmlns:cc="http://creativecommons.org/ns#" xmlns:rdf="http://www.w3.org/1999/02/22-rdf-syntax-ns#">
   <cc:Work>
    <dc:type rdf:resource="http://purl.org/dc/dcmitype/StillImage"/>
    <dc:date>2024-03-16T12:28:44.624542</dc:date>
    <dc:format>image/svg+xml</dc:format>
    <dc:creator>
     <cc:Agent>
      <dc:title>Matplotlib v3.8.3, https://matplotlib.org/</dc:title>
     </cc:Agent>
    </dc:creator>
   </cc:Work>
  </rdf:RDF>
 </metadata>
 <defs>
  <style type="text/css">*{stroke-linejoin: round; stroke-linecap: butt}</style>
 </defs>
 <g id="figure_1">
  <g id="patch_1">
   <path d="M 0 312.30825 
L 403.97 312.30825 
L 403.97 0 
L 0 0 
z
" style="fill: #ffffff"/>
  </g>
  <g id="axes_1">
   <g id="patch_2">
    <path d="M 39.65 288.430125 
L 396.77 288.430125 
L 396.77 22.318125 
L 39.65 22.318125 
z
" style="fill: #ffffff"/>
   </g>
   <g id="matplotlib.axis_1">
    <g id="xtick_1">
     <g id="line2d_1">
      <defs>
       <path id="m49d183bd49" d="M 0 0 
L 0 3.5 
" style="stroke: #000000; stroke-width: 0.8"/>
      </defs>
      <g>
       <use xlink:href="#m49d183bd49" x="55.882727" y="288.430125" style="stroke: #000000; stroke-width: 0.8"/>
      </g>
     </g>
     <g id="text_1">
      <!-- 0 -->
      <g transform="translate(52.701477 303.028562) scale(0.1 -0.1)">
       <defs>
        <path id="DejaVuSans-30" d="M 2034 4250 
Q 1547 4250 1301 3770 
Q 1056 3291 1056 2328 
Q 1056 1369 1301 889 
Q 1547 409 2034 409 
Q 2525 409 2770 889 
Q 3016 1369 3016 2328 
Q 3016 3291 2770 3770 
Q 2525 4250 2034 4250 
z
M 2034 4750 
Q 2819 4750 3233 4129 
Q 3647 3509 3647 2328 
Q 3647 1150 3233 529 
Q 2819 -91 2034 -91 
Q 1250 -91 836 529 
Q 422 1150 422 2328 
Q 422 3509 836 4129 
Q 1250 4750 2034 4750 
z
" transform="scale(0.015625)"/>
       </defs>
       <use xlink:href="#DejaVuSans-30"/>
      </g>
     </g>
    </g>
    <g id="xtick_2">
     <g id="line2d_2">
      <g>
       <use xlink:href="#m49d183bd49" x="95.766578" y="288.430125" style="stroke: #000000; stroke-width: 0.8"/>
      </g>
     </g>
     <g id="text_2">
      <!-- 50 -->
      <g transform="translate(89.404078 303.028562) scale(0.1 -0.1)">
       <defs>
        <path id="DejaVuSans-35" d="M 691 4666 
L 3169 4666 
L 3169 4134 
L 1269 4134 
L 1269 2991 
Q 1406 3038 1543 3061 
Q 1681 3084 1819 3084 
Q 2600 3084 3056 2656 
Q 3513 2228 3513 1497 
Q 3513 744 3044 326 
Q 2575 -91 1722 -91 
Q 1428 -91 1123 -41 
Q 819 9 494 109 
L 494 744 
Q 775 591 1075 516 
Q 1375 441 1709 441 
Q 2250 441 2565 725 
Q 2881 1009 2881 1497 
Q 2881 1984 2565 2268 
Q 2250 2553 1709 2553 
Q 1456 2553 1204 2497 
Q 953 2441 691 2322 
L 691 4666 
z
" transform="scale(0.015625)"/>
       </defs>
       <use xlink:href="#DejaVuSans-35"/>
       <use xlink:href="#DejaVuSans-30" x="63.623047"/>
      </g>
     </g>
    </g>
    <g id="xtick_3">
     <g id="line2d_3">
      <g>
       <use xlink:href="#m49d183bd49" x="135.650429" y="288.430125" style="stroke: #000000; stroke-width: 0.8"/>
      </g>
     </g>
     <g id="text_3">
      <!-- 100 -->
      <g transform="translate(126.106679 303.028562) scale(0.1 -0.1)">
       <defs>
        <path id="DejaVuSans-31" d="M 794 531 
L 1825 531 
L 1825 4091 
L 703 3866 
L 703 4441 
L 1819 4666 
L 2450 4666 
L 2450 531 
L 3481 531 
L 3481 0 
L 794 0 
L 794 531 
z
" transform="scale(0.015625)"/>
       </defs>
       <use xlink:href="#DejaVuSans-31"/>
       <use xlink:href="#DejaVuSans-30" x="63.623047"/>
       <use xlink:href="#DejaVuSans-30" x="127.246094"/>
      </g>
     </g>
    </g>
    <g id="xtick_4">
     <g id="line2d_4">
      <g>
       <use xlink:href="#m49d183bd49" x="175.53428" y="288.430125" style="stroke: #000000; stroke-width: 0.8"/>
      </g>
     </g>
     <g id="text_4">
      <!-- 150 -->
      <g transform="translate(165.99053 303.028562) scale(0.1 -0.1)">
       <use xlink:href="#DejaVuSans-31"/>
       <use xlink:href="#DejaVuSans-35" x="63.623047"/>
       <use xlink:href="#DejaVuSans-30" x="127.246094"/>
      </g>
     </g>
    </g>
    <g id="xtick_5">
     <g id="line2d_5">
      <g>
       <use xlink:href="#m49d183bd49" x="215.41813" y="288.430125" style="stroke: #000000; stroke-width: 0.8"/>
      </g>
     </g>
     <g id="text_5">
      <!-- 200 -->
      <g transform="translate(205.87438 303.028562) scale(0.1 -0.1)">
       <defs>
        <path id="DejaVuSans-32" d="M 1228 531 
L 3431 531 
L 3431 0 
L 469 0 
L 469 531 
Q 828 903 1448 1529 
Q 2069 2156 2228 2338 
Q 2531 2678 2651 2914 
Q 2772 3150 2772 3378 
Q 2772 3750 2511 3984 
Q 2250 4219 1831 4219 
Q 1534 4219 1204 4116 
Q 875 4013 500 3803 
L 500 4441 
Q 881 4594 1212 4672 
Q 1544 4750 1819 4750 
Q 2544 4750 2975 4387 
Q 3406 4025 3406 3419 
Q 3406 3131 3298 2873 
Q 3191 2616 2906 2266 
Q 2828 2175 2409 1742 
Q 1991 1309 1228 531 
z
" transform="scale(0.015625)"/>
       </defs>
       <use xlink:href="#DejaVuSans-32"/>
       <use xlink:href="#DejaVuSans-30" x="63.623047"/>
       <use xlink:href="#DejaVuSans-30" x="127.246094"/>
      </g>
     </g>
    </g>
    <g id="xtick_6">
     <g id="line2d_6">
      <g>
       <use xlink:href="#m49d183bd49" x="255.301981" y="288.430125" style="stroke: #000000; stroke-width: 0.8"/>
      </g>
     </g>
     <g id="text_6">
      <!-- 250 -->
      <g transform="translate(245.758231 303.028562) scale(0.1 -0.1)">
       <use xlink:href="#DejaVuSans-32"/>
       <use xlink:href="#DejaVuSans-35" x="63.623047"/>
       <use xlink:href="#DejaVuSans-30" x="127.246094"/>
      </g>
     </g>
    </g>
    <g id="xtick_7">
     <g id="line2d_7">
      <g>
       <use xlink:href="#m49d183bd49" x="295.185832" y="288.430125" style="stroke: #000000; stroke-width: 0.8"/>
      </g>
     </g>
     <g id="text_7">
      <!-- 300 -->
      <g transform="translate(285.642082 303.028562) scale(0.1 -0.1)">
       <defs>
        <path id="DejaVuSans-33" d="M 2597 2516 
Q 3050 2419 3304 2112 
Q 3559 1806 3559 1356 
Q 3559 666 3084 287 
Q 2609 -91 1734 -91 
Q 1441 -91 1130 -33 
Q 819 25 488 141 
L 488 750 
Q 750 597 1062 519 
Q 1375 441 1716 441 
Q 2309 441 2620 675 
Q 2931 909 2931 1356 
Q 2931 1769 2642 2001 
Q 2353 2234 1838 2234 
L 1294 2234 
L 1294 2753 
L 1863 2753 
Q 2328 2753 2575 2939 
Q 2822 3125 2822 3475 
Q 2822 3834 2567 4026 
Q 2313 4219 1838 4219 
Q 1578 4219 1281 4162 
Q 984 4106 628 3988 
L 628 4550 
Q 988 4650 1302 4700 
Q 1616 4750 1894 4750 
Q 2613 4750 3031 4423 
Q 3450 4097 3450 3541 
Q 3450 3153 3228 2886 
Q 3006 2619 2597 2516 
z
" transform="scale(0.015625)"/>
       </defs>
       <use xlink:href="#DejaVuSans-33"/>
       <use xlink:href="#DejaVuSans-30" x="63.623047"/>
       <use xlink:href="#DejaVuSans-30" x="127.246094"/>
      </g>
     </g>
    </g>
    <g id="xtick_8">
     <g id="line2d_8">
      <g>
       <use xlink:href="#m49d183bd49" x="335.069683" y="288.430125" style="stroke: #000000; stroke-width: 0.8"/>
      </g>
     </g>
     <g id="text_8">
      <!-- 350 -->
      <g transform="translate(325.525933 303.028562) scale(0.1 -0.1)">
       <use xlink:href="#DejaVuSans-33"/>
       <use xlink:href="#DejaVuSans-35" x="63.623047"/>
       <use xlink:href="#DejaVuSans-30" x="127.246094"/>
      </g>
     </g>
    </g>
    <g id="xtick_9">
     <g id="line2d_9">
      <g>
       <use xlink:href="#m49d183bd49" x="374.953534" y="288.430125" style="stroke: #000000; stroke-width: 0.8"/>
      </g>
     </g>
     <g id="text_9">
      <!-- 400 -->
      <g transform="translate(365.409784 303.028562) scale(0.1 -0.1)">
       <defs>
        <path id="DejaVuSans-34" d="M 2419 4116 
L 825 1625 
L 2419 1625 
L 2419 4116 
z
M 2253 4666 
L 3047 4666 
L 3047 1625 
L 3713 1625 
L 3713 1100 
L 3047 1100 
L 3047 0 
L 2419 0 
L 2419 1100 
L 313 1100 
L 313 1709 
L 2253 4666 
z
" transform="scale(0.015625)"/>
       </defs>
       <use xlink:href="#DejaVuSans-34"/>
       <use xlink:href="#DejaVuSans-30" x="63.623047"/>
       <use xlink:href="#DejaVuSans-30" x="127.246094"/>
      </g>
     </g>
    </g>
   </g>
   <g id="matplotlib.axis_2">
    <g id="ytick_1">
     <g id="line2d_10">
      <defs>
       <path id="m5696d63c03" d="M 0 0 
L -3.5 0 
" style="stroke: #000000; stroke-width: 0.8"/>
      </defs>
      <g>
       <use xlink:href="#m5696d63c03" x="39.65" y="278.98006" style="stroke: #000000; stroke-width: 0.8"/>
      </g>
     </g>
     <g id="text_10">
      <!-- 0 -->
      <g transform="translate(26.2875 282.779279) scale(0.1 -0.1)">
       <use xlink:href="#DejaVuSans-30"/>
      </g>
     </g>
    </g>
    <g id="ytick_2">
     <g id="line2d_11">
      <g>
       <use xlink:href="#m5696d63c03" x="39.65" y="224.364507" style="stroke: #000000; stroke-width: 0.8"/>
      </g>
     </g>
     <g id="text_11">
      <!-- 500 -->
      <g transform="translate(13.5625 228.163726) scale(0.1 -0.1)">
       <use xlink:href="#DejaVuSans-35"/>
       <use xlink:href="#DejaVuSans-30" x="63.623047"/>
       <use xlink:href="#DejaVuSans-30" x="127.246094"/>
      </g>
     </g>
    </g>
    <g id="ytick_3">
     <g id="line2d_12">
      <g>
       <use xlink:href="#m5696d63c03" x="39.65" y="169.748955" style="stroke: #000000; stroke-width: 0.8"/>
      </g>
     </g>
     <g id="text_12">
      <!-- 1000 -->
      <g transform="translate(7.2 173.548174) scale(0.1 -0.1)">
       <use xlink:href="#DejaVuSans-31"/>
       <use xlink:href="#DejaVuSans-30" x="63.623047"/>
       <use xlink:href="#DejaVuSans-30" x="127.246094"/>
       <use xlink:href="#DejaVuSans-30" x="190.869141"/>
      </g>
     </g>
    </g>
    <g id="ytick_4">
     <g id="line2d_13">
      <g>
       <use xlink:href="#m5696d63c03" x="39.65" y="115.133402" style="stroke: #000000; stroke-width: 0.8"/>
      </g>
     </g>
     <g id="text_13">
      <!-- 1500 -->
      <g transform="translate(7.2 118.932621) scale(0.1 -0.1)">
       <use xlink:href="#DejaVuSans-31"/>
       <use xlink:href="#DejaVuSans-35" x="63.623047"/>
       <use xlink:href="#DejaVuSans-30" x="127.246094"/>
       <use xlink:href="#DejaVuSans-30" x="190.869141"/>
      </g>
     </g>
    </g>
    <g id="ytick_5">
     <g id="line2d_14">
      <g>
       <use xlink:href="#m5696d63c03" x="39.65" y="60.51785" style="stroke: #000000; stroke-width: 0.8"/>
      </g>
     </g>
     <g id="text_14">
      <!-- 2000 -->
      <g transform="translate(7.2 64.317068) scale(0.1 -0.1)">
       <use xlink:href="#DejaVuSans-32"/>
       <use xlink:href="#DejaVuSans-30" x="63.623047"/>
       <use xlink:href="#DejaVuSans-30" x="127.246094"/>
       <use xlink:href="#DejaVuSans-30" x="190.869141"/>
      </g>
     </g>
    </g>
   </g>
   <g id="line2d_15">
    <path d="M 55.882727 276.334125 
L 57.478081 245.455778 
L 58.275758 273.043625 
L 59.871112 272.30202 
L 61.466466 271.711542 
L 62.264143 271.486174 
L 63.06182 222.389139 
L 63.859497 252.660642 
L 64.657174 271.11563 
L 65.454851 271.160363 
L 66.252528 250.745427 
L 67.050205 210.943016 
L 67.847883 270.663744 
L 70.240914 270.85837 
L 71.038591 270.80559 
L 71.836268 270.910357 
L 72.633945 205.504418 
L 73.431622 246.831053 
L 74.229299 271.556242 
L 75.026976 271.576165 
L 75.824653 245.120226 
L 76.62233 199.742585 
L 77.420007 269.166515 
L 78.217684 268.692785 
L 79.015361 268.386308 
L 79.813038 268.356357 
L 80.610715 268.207132 
L 81.408392 268.238609 
L 82.206069 136.99378 
L 83.003746 226.087395 
L 83.801423 265.3408 
L 84.5991 265.265174 
L 85.396777 229.419002 
L 86.194454 159.453122 
L 86.992131 260.186426 
L 87.789808 260.163225 
L 88.587485 261.40569 
L 89.385162 264.044428 
L 90.182839 264.000018 
L 90.980516 263.491593 
L 91.778193 131.344217 
L 92.57587 217.806342 
L 93.373547 269.98504 
L 94.171224 269.991268 
L 94.968901 239.556275 
L 95.766578 173.690477 
L 96.564255 269.500071 
L 97.361932 269.462066 
L 98.159609 265.122048 
L 98.957286 264.987165 
L 99.754963 265.387043 
L 100.55264 265.296255 
L 101.350317 157.623189 
L 102.147994 223.456771 
L 102.945671 269.929583 
L 103.743348 269.92306 
L 104.541025 246.158931 
L 105.338702 186.445358 
L 106.136379 267.480489 
L 106.934056 268.236279 
L 108.52941 267.989564 
L 109.327087 268.142673 
L 110.124764 268.795154 
L 110.922441 194.026815 
L 111.720118 244.139922 
L 112.517795 269.501372 
L 113.315472 269.492581 
L 114.113149 239.513955 
L 114.910826 189.995079 
L 115.708503 269.682623 
L 116.50618 270.036776 
L 118.101535 270.328546 
L 118.899212 270.337152 
L 119.696889 270.129616 
L 120.494566 170.648835 
L 121.292243 239.855592 
L 122.08992 270.428166 
L 122.887597 270.459431 
L 123.685274 240.620621 
L 124.482951 169.67148 
L 125.280628 270.63135 
L 126.875982 270.580493 
L 128.471336 270.621267 
L 129.269013 270.717038 
L 130.06669 201.43782 
L 130.864367 245.059011 
L 131.662044 271.145798 
L 132.459721 271.183056 
L 133.257398 246.977216 
L 134.055075 196.656784 
L 134.852752 270.463194 
L 135.650429 269.328571 
L 136.448106 268.885058 
L 137.245783 268.80591 
L 138.04346 269.109111 
L 138.841137 269.926536 
L 139.638814 127.636388 
L 140.436491 224.986913 
L 141.234168 265.411301 
L 142.031845 265.40323 
L 142.829522 233.309006 
L 143.627199 150.811876 
L 144.424876 265.822702 
L 145.222553 265.514529 
L 146.817907 265.789285 
L 147.615584 269.790398 
L 148.413261 270.291892 
L 149.210938 211.653277 
L 150.008615 245.86911 
L 150.806292 267.836843 
L 151.603969 267.808507 
L 152.401646 226.520244 
L 153.199323 174.609504 
L 153.997 266.303604 
L 155.592354 265.808514 
L 157.985385 265.978488 
L 158.783062 139.551722 
L 159.580739 219.035388 
L 160.378416 269.508523 
L 161.176093 269.476044 
L 161.97377 241.422075 
L 162.771447 194.003872 
L 163.569124 269.301539 
L 164.366801 269.437066 
L 165.164478 269.298163 
L 165.962155 269.690556 
L 166.759832 269.766443 
L 167.557509 270.209368 
L 168.355187 184.562732 
L 169.152864 242.886969 
L 169.950541 271.252683 
L 170.748218 271.258634 
L 171.545895 242.666299 
L 172.343572 192.112979 
L 173.141249 270.68671 
L 175.53428 270.745637 
L 177.129634 271.706067 
L 177.927311 213.120992 
L 178.724988 248.270793 
L 179.522665 272.210351 
L 180.320342 272.138631 
L 181.118019 251.018425 
L 181.915696 211.84341 
L 182.713373 270.620646 
L 183.51105 270.466456 
L 185.106404 270.887186 
L 185.904081 270.746058 
L 186.701758 270.958392 
L 187.499435 214.152864 
L 188.297112 250.724683 
L 189.094789 271.877318 
L 189.892466 271.890042 
L 190.690143 250.410599 
L 191.48782 209.314873 
L 192.285497 271.166024 
L 194.678528 271.18391 
L 196.273882 271.50013 
L 197.071559 208.55984 
L 197.869236 250.370964 
L 198.666913 271.875566 
L 199.46459 271.879299 
L 200.262267 245.339617 
L 201.059944 197.835048 
L 201.857621 270.804431 
L 202.655298 270.643108 
L 205.846006 270.838661 
L 206.643683 204.271117 
L 207.44136 246.17156 
L 208.239037 271.10816 
L 209.036714 271.046151 
L 209.834391 236.858254 
L 210.632068 179.124264 
L 211.429745 268.69805 
L 212.227422 269.05146 
L 213.025099 269.142804 
L 215.41813 268.873924 
L 216.215807 182.208889 
L 217.013484 235.975195 
L 217.811161 268.772818 
L 218.608839 268.763513 
L 219.406516 241.450279 
L 220.204193 193.751996 
L 221.00187 268.671986 
L 221.799547 268.497665 
L 223.394901 267.937526 
L 224.192578 268.319357 
L 224.990255 269.422393 
L 225.787932 181.306938 
L 226.585609 240.968964 
L 227.383286 270.577543 
L 228.180963 270.578094 
L 228.97864 245.63095 
L 229.776317 197.733035 
L 230.573994 269.905052 
L 231.371671 270.143818 
L 232.169348 269.959932 
L 232.967025 270.322095 
L 233.764702 270.996807 
L 234.562379 271.198152 
L 235.360056 189.592918 
L 236.157733 243.972984 
L 236.95541 270.541535 
L 237.753087 270.559755 
L 238.550764 246.486599 
L 239.348441 197.842729 
L 240.146118 270.045622 
L 241.741472 269.607293 
L 242.539149 269.783016 
L 243.336826 269.792285 
L 244.134503 269.965377 
L 244.93218 210.459317 
L 245.729857 249.452729 
L 246.527534 272.257122 
L 247.325211 272.275218 
L 248.122888 226.200301 
L 248.920565 153.630609 
L 249.718242 263.54488 
L 250.515919 263.550998 
L 251.313596 263.747035 
L 252.111273 263.714036 
L 252.90895 262.729418 
L 253.706627 263.889486 
L 254.504304 206.96976 
L 255.301981 243.587256 
L 256.099658 269.040468 
L 256.897335 269.060838 
L 257.695012 242.38084 
L 258.492689 187.806108 
L 259.290366 270.936414 
L 260.088043 270.412061 
L 260.88572 270.144863 
L 262.481074 269.98957 
L 263.278751 269.761711 
L 264.076428 201.261407 
L 264.874105 246.34136 
L 265.671782 271.680536 
L 266.469459 271.716981 
L 267.267136 247.010327 
L 268.064813 210.27262 
L 268.862491 270.078791 
L 270.457845 270.699184 
L 272.850876 271.109397 
L 273.648553 199.34027 
L 274.44623 248.917535 
L 275.243907 271.838953 
L 276.041584 271.812163 
L 276.839261 246.841939 
L 277.636938 200.997607 
L 278.434615 270.573947 
L 279.232292 267.820913 
L 280.029969 267.365801 
L 280.827646 267.364462 
L 281.625323 267.58336 
L 282.423 267.591009 
L 283.220677 192.631733 
L 284.018354 246.256852 
L 284.816031 268.585108 
L 285.613708 268.612804 
L 286.411385 213.525112 
L 287.209062 150.617639 
L 288.006739 266.281398 
L 288.804416 266.435651 
L 290.39977 266.194422 
L 291.995124 266.213603 
L 292.792801 132.214055 
L 293.590478 234.194147 
L 294.388155 266.6847 
L 295.185832 266.687741 
L 295.983509 213.042299 
L 296.781186 97.603436 
L 297.578863 269.187532 
L 299.174217 270.887523 
L 299.971894 271.366166 
L 300.769571 271.444652 
L 301.567248 270.91052 
L 302.364925 200.624196 
L 303.162602 243.141281 
L 303.960279 270.327123 
L 304.757956 270.301258 
L 305.555633 248.247063 
L 306.35331 205.257885 
L 307.150987 269.51414 
L 307.948664 269.772046 
L 308.746341 269.766709 
L 309.544018 269.967303 
L 310.341695 270.347364 
L 311.139372 270.435285 
L 311.937049 34.414125 
L 312.734726 196.725993 
L 313.532403 257.299474 
L 314.33008 257.331247 
L 315.127757 231.788455 
L 315.925434 195.274175 
L 316.723111 270.338664 
L 319.116143 270.493008 
L 319.91382 270.927195 
L 320.711497 271.141456 
L 321.509174 190.209659 
L 322.306851 243.021799 
L 323.104528 270.329711 
L 323.902205 270.311679 
L 324.699882 244.838028 
L 325.497559 199.383214 
L 326.295236 269.788837 
L 327.89059 269.833966 
L 328.688267 270.276657 
L 329.485944 270.528174 
L 330.283621 269.901069 
L 331.081298 204.726656 
L 331.878975 243.62404 
L 332.676652 268.367173 
L 333.474329 268.380624 
L 334.272006 232.86186 
L 335.069683 176.893263 
L 335.86736 266.594811 
L 336.665037 266.456776 
L 337.462714 265.993989 
L 338.260391 265.922847 
L 339.058068 266.310263 
L 339.855745 266.52469 
L 340.653422 164.191809 
L 341.451099 229.525536 
L 342.248776 269.56609 
L 343.046453 269.567989 
L 343.84413 235.873736 
L 344.641807 168.523352 
L 345.439484 270.081478 
L 346.237161 269.803588 
L 348.630192 269.741041 
L 349.427869 269.979424 
L 350.225546 197.00876 
L 351.023223 241.007525 
L 351.8209 270.872279 
L 352.618577 270.867787 
L 353.416254 248.746011 
L 354.213931 202.340737 
L 355.011608 270.173346 
L 356.606962 270.094789 
L 358.999993 269.543934 
L 359.79767 195.757787 
L 360.595347 243.240482 
L 361.393024 269.941623 
L 362.190701 269.972165 
L 362.988378 239.066303 
L 363.786055 187.231697 
L 364.583732 268.710037 
L 365.381409 268.777989 
L 366.179086 269.195237 
L 366.976763 269.267215 
L 367.77444 269.692421 
L 368.572117 269.668503 
L 369.369795 192.799507 
L 370.167472 245.907819 
L 370.965149 270.59127 
L 371.762826 270.592716 
L 372.560503 249.301647 
L 373.35818 207.912611 
L 374.155857 271.374483 
L 374.953534 271.42264 
L 376.548888 271.789534 
L 377.346565 271.666406 
L 378.144242 272.18613 
L 378.941919 249.8164 
L 380.537273 276.167973 
L 380.537273 276.167973 
" clip-path="url(#pd54a23a82e)" style="fill: none; stroke: #1f77b4; stroke-width: 1.5; stroke-linecap: square"/>
   </g>
   <g id="patch_3">
    <path d="M 39.65 288.430125 
L 39.65 22.318125 
" style="fill: none; stroke: #000000; stroke-width: 0.8; stroke-linejoin: miter; stroke-linecap: square"/>
   </g>
   <g id="patch_4">
    <path d="M 396.77 288.430125 
L 396.77 22.318125 
" style="fill: none; stroke: #000000; stroke-width: 0.8; stroke-linejoin: miter; stroke-linecap: square"/>
   </g>
   <g id="patch_5">
    <path d="M 39.65 288.430125 
L 396.77 288.430125 
" style="fill: none; stroke: #000000; stroke-width: 0.8; stroke-linejoin: miter; stroke-linecap: square"/>
   </g>
   <g id="patch_6">
    <path d="M 39.65 22.318125 
L 396.77 22.318125 
" style="fill: none; stroke: #000000; stroke-width: 0.8; stroke-linejoin: miter; stroke-linecap: square"/>
   </g>
   <g id="text_15">
    <!-- Fast Flux -->
    <g transform="translate(191.773438 16.318125) scale(0.12 -0.12)">
     <defs>
      <path id="DejaVuSans-46" d="M 628 4666 
L 3309 4666 
L 3309 4134 
L 1259 4134 
L 1259 2759 
L 3109 2759 
L 3109 2228 
L 1259 2228 
L 1259 0 
L 628 0 
L 628 4666 
z
" transform="scale(0.015625)"/>
      <path id="DejaVuSans-61" d="M 2194 1759 
Q 1497 1759 1228 1600 
Q 959 1441 959 1056 
Q 959 750 1161 570 
Q 1363 391 1709 391 
Q 2188 391 2477 730 
Q 2766 1069 2766 1631 
L 2766 1759 
L 2194 1759 
z
M 3341 1997 
L 3341 0 
L 2766 0 
L 2766 531 
Q 2569 213 2275 61 
Q 1981 -91 1556 -91 
Q 1019 -91 701 211 
Q 384 513 384 1019 
Q 384 1609 779 1909 
Q 1175 2209 1959 2209 
L 2766 2209 
L 2766 2266 
Q 2766 2663 2505 2880 
Q 2244 3097 1772 3097 
Q 1472 3097 1187 3025 
Q 903 2953 641 2809 
L 641 3341 
Q 956 3463 1253 3523 
Q 1550 3584 1831 3584 
Q 2591 3584 2966 3190 
Q 3341 2797 3341 1997 
z
" transform="scale(0.015625)"/>
      <path id="DejaVuSans-73" d="M 2834 3397 
L 2834 2853 
Q 2591 2978 2328 3040 
Q 2066 3103 1784 3103 
Q 1356 3103 1142 2972 
Q 928 2841 928 2578 
Q 928 2378 1081 2264 
Q 1234 2150 1697 2047 
L 1894 2003 
Q 2506 1872 2764 1633 
Q 3022 1394 3022 966 
Q 3022 478 2636 193 
Q 2250 -91 1575 -91 
Q 1294 -91 989 -36 
Q 684 19 347 128 
L 347 722 
Q 666 556 975 473 
Q 1284 391 1588 391 
Q 1994 391 2212 530 
Q 2431 669 2431 922 
Q 2431 1156 2273 1281 
Q 2116 1406 1581 1522 
L 1381 1569 
Q 847 1681 609 1914 
Q 372 2147 372 2553 
Q 372 3047 722 3315 
Q 1072 3584 1716 3584 
Q 2034 3584 2315 3537 
Q 2597 3491 2834 3397 
z
" transform="scale(0.015625)"/>
      <path id="DejaVuSans-74" d="M 1172 4494 
L 1172 3500 
L 2356 3500 
L 2356 3053 
L 1172 3053 
L 1172 1153 
Q 1172 725 1289 603 
Q 1406 481 1766 481 
L 2356 481 
L 2356 0 
L 1766 0 
Q 1100 0 847 248 
Q 594 497 594 1153 
L 594 3053 
L 172 3053 
L 172 3500 
L 594 3500 
L 594 4494 
L 1172 4494 
z
" transform="scale(0.015625)"/>
      <path id="DejaVuSans-20" transform="scale(0.015625)"/>
      <path id="DejaVuSans-6c" d="M 603 4863 
L 1178 4863 
L 1178 0 
L 603 0 
L 603 4863 
z
" transform="scale(0.015625)"/>
      <path id="DejaVuSans-75" d="M 544 1381 
L 544 3500 
L 1119 3500 
L 1119 1403 
Q 1119 906 1312 657 
Q 1506 409 1894 409 
Q 2359 409 2629 706 
Q 2900 1003 2900 1516 
L 2900 3500 
L 3475 3500 
L 3475 0 
L 2900 0 
L 2900 538 
Q 2691 219 2414 64 
Q 2138 -91 1772 -91 
Q 1169 -91 856 284 
Q 544 659 544 1381 
z
M 1991 3584 
L 1991 3584 
z
" transform="scale(0.015625)"/>
      <path id="DejaVuSans-78" d="M 3513 3500 
L 2247 1797 
L 3578 0 
L 2900 0 
L 1881 1375 
L 863 0 
L 184 0 
L 1544 1831 
L 300 3500 
L 978 3500 
L 1906 2253 
L 2834 3500 
L 3513 3500 
z
" transform="scale(0.015625)"/>
     </defs>
     <use xlink:href="#DejaVuSans-46"/>
     <use xlink:href="#DejaVuSans-61" x="48.394531"/>
     <use xlink:href="#DejaVuSans-73" x="109.673828"/>
     <use xlink:href="#DejaVuSans-74" x="161.773438"/>
     <use xlink:href="#DejaVuSans-20" x="200.982422"/>
     <use xlink:href="#DejaVuSans-46" x="232.769531"/>
     <use xlink:href="#DejaVuSans-6c" x="290.289062"/>
     <use xlink:href="#DejaVuSans-75" x="318.072266"/>
     <use xlink:href="#DejaVuSans-78" x="381.451172"/>
    </g>
   </g>
  </g>
 </g>
 <defs>
  <clipPath id="pd54a23a82e">
   <rect x="39.65" y="22.318125" width="357.12" height="266.112"/>
  </clipPath>
 </defs>
</svg>
