<?xml version="1.0" encoding="utf-8" standalone="no"?>
<!DOCTYPE svg PUBLIC "-//W3C//DTD SVG 1.1//EN"
  "http://www.w3.org/Graphics/SVG/1.1/DTD/svg11.dtd">
<svg xmlns:xlink="http://www.w3.org/1999/xlink" width="397.6075pt" height="312.30825pt" viewBox="0 0 397.6075 312.30825" xmlns="http://www.w3.org/2000/svg" version="1.1">
 <metadata>
  <rdf:RDF xmlns:dc="http://purl.org/dc/elements/1.1/" xmlns:cc="http://creativecommons.org/ns#" xmlns:rdf="http://www.w3.org/1999/02/22-rdf-syntax-ns#">
   <cc:Work>
    <dc:type rdf:resource="http://purl.org/dc/dcmitype/StillImage"/>
    <dc:date>2024-03-15T10:05:35.436167</dc:date>
    <dc:format>image/svg+xml</dc:format>
    <dc:creator>
     <cc:Agent>
      <dc:title>Matplotlib v3.8.3, https://matplotlib.org/</dc:title>
     </cc:Agent>
    </dc:creator>
   </cc:Work>
  </rdf:RDF>
 </metadata>
 <defs>
  <style type="text/css">*{stroke-linejoin: round; stroke-linecap: butt}</style>
 </defs>
 <g id="figure_1">
  <g id="patch_1">
   <path d="M 0 312.30825 
L 397.6075 312.30825 
L 397.6075 0 
L 0 0 
z
" style="fill: #ffffff"/>
  </g>
  <g id="axes_1">
   <g id="patch_2">
    <path d="M 33.2875 288.430125 
L 390.4075 288.430125 
L 390.4075 22.318125 
L 33.2875 22.318125 
z
" style="fill: #ffffff"/>
   </g>
   <g id="matplotlib.axis_1">
    <g id="xtick_1">
     <g id="line2d_1">
      <defs>
       <path id="m0f42bb0fc6" d="M 0 0 
L 0 3.5 
" style="stroke: #000000; stroke-width: 0.8"/>
      </defs>
      <g>
       <use xlink:href="#m0f42bb0fc6" x="49.520227" y="288.430125" style="stroke: #000000; stroke-width: 0.8"/>
      </g>
     </g>
     <g id="text_1">
      <!-- 0 -->
      <g transform="translate(46.338977 303.028562) scale(0.1 -0.1)">
       <defs>
        <path id="DejaVuSans-30" d="M 2034 4250 
Q 1547 4250 1301 3770 
Q 1056 3291 1056 2328 
Q 1056 1369 1301 889 
Q 1547 409 2034 409 
Q 2525 409 2770 889 
Q 3016 1369 3016 2328 
Q 3016 3291 2770 3770 
Q 2525 4250 2034 4250 
z
M 2034 4750 
Q 2819 4750 3233 4129 
Q 3647 3509 3647 2328 
Q 3647 1150 3233 529 
Q 2819 -91 2034 -91 
Q 1250 -91 836 529 
Q 422 1150 422 2328 
Q 422 3509 836 4129 
Q 1250 4750 2034 4750 
z
" transform="scale(0.015625)"/>
       </defs>
       <use xlink:href="#DejaVuSans-30"/>
      </g>
     </g>
    </g>
    <g id="xtick_2">
     <g id="line2d_2">
      <g>
       <use xlink:href="#m0f42bb0fc6" x="93.039603" y="288.430125" style="stroke: #000000; stroke-width: 0.8"/>
      </g>
     </g>
     <g id="text_2">
      <!-- 50 -->
      <g transform="translate(86.677103 303.028562) scale(0.1 -0.1)">
       <defs>
        <path id="DejaVuSans-35" d="M 691 4666 
L 3169 4666 
L 3169 4134 
L 1269 4134 
L 1269 2991 
Q 1406 3038 1543 3061 
Q 1681 3084 1819 3084 
Q 2600 3084 3056 2656 
Q 3513 2228 3513 1497 
Q 3513 744 3044 326 
Q 2575 -91 1722 -91 
Q 1428 -91 1123 -41 
Q 819 9 494 109 
L 494 744 
Q 775 591 1075 516 
Q 1375 441 1709 441 
Q 2250 441 2565 725 
Q 2881 1009 2881 1497 
Q 2881 1984 2565 2268 
Q 2250 2553 1709 2553 
Q 1456 2553 1204 2497 
Q 953 2441 691 2322 
L 691 4666 
z
" transform="scale(0.015625)"/>
       </defs>
       <use xlink:href="#DejaVuSans-35"/>
       <use xlink:href="#DejaVuSans-30" x="63.623047"/>
      </g>
     </g>
    </g>
    <g id="xtick_3">
     <g id="line2d_3">
      <g>
       <use xlink:href="#m0f42bb0fc6" x="136.558979" y="288.430125" style="stroke: #000000; stroke-width: 0.8"/>
      </g>
     </g>
     <g id="text_3">
      <!-- 100 -->
      <g transform="translate(127.015229 303.028562) scale(0.1 -0.1)">
       <defs>
        <path id="DejaVuSans-31" d="M 794 531 
L 1825 531 
L 1825 4091 
L 703 3866 
L 703 4441 
L 1819 4666 
L 2450 4666 
L 2450 531 
L 3481 531 
L 3481 0 
L 794 0 
L 794 531 
z
" transform="scale(0.015625)"/>
       </defs>
       <use xlink:href="#DejaVuSans-31"/>
       <use xlink:href="#DejaVuSans-30" x="63.623047"/>
       <use xlink:href="#DejaVuSans-30" x="127.246094"/>
      </g>
     </g>
    </g>
    <g id="xtick_4">
     <g id="line2d_4">
      <g>
       <use xlink:href="#m0f42bb0fc6" x="180.078355" y="288.430125" style="stroke: #000000; stroke-width: 0.8"/>
      </g>
     </g>
     <g id="text_4">
      <!-- 150 -->
      <g transform="translate(170.534605 303.028562) scale(0.1 -0.1)">
       <use xlink:href="#DejaVuSans-31"/>
       <use xlink:href="#DejaVuSans-35" x="63.623047"/>
       <use xlink:href="#DejaVuSans-30" x="127.246094"/>
      </g>
     </g>
    </g>
    <g id="xtick_5">
     <g id="line2d_5">
      <g>
       <use xlink:href="#m0f42bb0fc6" x="223.597732" y="288.430125" style="stroke: #000000; stroke-width: 0.8"/>
      </g>
     </g>
     <g id="text_5">
      <!-- 200 -->
      <g transform="translate(214.053982 303.028562) scale(0.1 -0.1)">
       <defs>
        <path id="DejaVuSans-32" d="M 1228 531 
L 3431 531 
L 3431 0 
L 469 0 
L 469 531 
Q 828 903 1448 1529 
Q 2069 2156 2228 2338 
Q 2531 2678 2651 2914 
Q 2772 3150 2772 3378 
Q 2772 3750 2511 3984 
Q 2250 4219 1831 4219 
Q 1534 4219 1204 4116 
Q 875 4013 500 3803 
L 500 4441 
Q 881 4594 1212 4672 
Q 1544 4750 1819 4750 
Q 2544 4750 2975 4387 
Q 3406 4025 3406 3419 
Q 3406 3131 3298 2873 
Q 3191 2616 2906 2266 
Q 2828 2175 2409 1742 
Q 1991 1309 1228 531 
z
" transform="scale(0.015625)"/>
       </defs>
       <use xlink:href="#DejaVuSans-32"/>
       <use xlink:href="#DejaVuSans-30" x="63.623047"/>
       <use xlink:href="#DejaVuSans-30" x="127.246094"/>
      </g>
     </g>
    </g>
    <g id="xtick_6">
     <g id="line2d_6">
      <g>
       <use xlink:href="#m0f42bb0fc6" x="267.117108" y="288.430125" style="stroke: #000000; stroke-width: 0.8"/>
      </g>
     </g>
     <g id="text_6">
      <!-- 250 -->
      <g transform="translate(257.573358 303.028562) scale(0.1 -0.1)">
       <use xlink:href="#DejaVuSans-32"/>
       <use xlink:href="#DejaVuSans-35" x="63.623047"/>
       <use xlink:href="#DejaVuSans-30" x="127.246094"/>
      </g>
     </g>
    </g>
    <g id="xtick_7">
     <g id="line2d_7">
      <g>
       <use xlink:href="#m0f42bb0fc6" x="310.636484" y="288.430125" style="stroke: #000000; stroke-width: 0.8"/>
      </g>
     </g>
     <g id="text_7">
      <!-- 300 -->
      <g transform="translate(301.092734 303.028562) scale(0.1 -0.1)">
       <defs>
        <path id="DejaVuSans-33" d="M 2597 2516 
Q 3050 2419 3304 2112 
Q 3559 1806 3559 1356 
Q 3559 666 3084 287 
Q 2609 -91 1734 -91 
Q 1441 -91 1130 -33 
Q 819 25 488 141 
L 488 750 
Q 750 597 1062 519 
Q 1375 441 1716 441 
Q 2309 441 2620 675 
Q 2931 909 2931 1356 
Q 2931 1769 2642 2001 
Q 2353 2234 1838 2234 
L 1294 2234 
L 1294 2753 
L 1863 2753 
Q 2328 2753 2575 2939 
Q 2822 3125 2822 3475 
Q 2822 3834 2567 4026 
Q 2313 4219 1838 4219 
Q 1578 4219 1281 4162 
Q 984 4106 628 3988 
L 628 4550 
Q 988 4650 1302 4700 
Q 1616 4750 1894 4750 
Q 2613 4750 3031 4423 
Q 3450 4097 3450 3541 
Q 3450 3153 3228 2886 
Q 3006 2619 2597 2516 
z
" transform="scale(0.015625)"/>
       </defs>
       <use xlink:href="#DejaVuSans-33"/>
       <use xlink:href="#DejaVuSans-30" x="63.623047"/>
       <use xlink:href="#DejaVuSans-30" x="127.246094"/>
      </g>
     </g>
    </g>
    <g id="xtick_8">
     <g id="line2d_8">
      <g>
       <use xlink:href="#m0f42bb0fc6" x="354.15586" y="288.430125" style="stroke: #000000; stroke-width: 0.8"/>
      </g>
     </g>
     <g id="text_8">
      <!-- 350 -->
      <g transform="translate(344.61211 303.028562) scale(0.1 -0.1)">
       <use xlink:href="#DejaVuSans-33"/>
       <use xlink:href="#DejaVuSans-35" x="63.623047"/>
       <use xlink:href="#DejaVuSans-30" x="127.246094"/>
      </g>
     </g>
    </g>
   </g>
   <g id="matplotlib.axis_2">
    <g id="ytick_1">
     <g id="line2d_9">
      <defs>
       <path id="m74c7ab1813" d="M 0 0 
L -3.5 0 
" style="stroke: #000000; stroke-width: 0.8"/>
      </defs>
      <g>
       <use xlink:href="#m74c7ab1813" x="33.2875" y="276.334125" style="stroke: #000000; stroke-width: 0.8"/>
      </g>
     </g>
     <g id="text_9">
      <!-- 0 -->
      <g transform="translate(19.925 280.133344) scale(0.1 -0.1)">
       <use xlink:href="#DejaVuSans-30"/>
      </g>
     </g>
    </g>
    <g id="ytick_2">
     <g id="line2d_10">
      <g>
       <use xlink:href="#m74c7ab1813" x="33.2875" y="244.919443" style="stroke: #000000; stroke-width: 0.8"/>
      </g>
     </g>
     <g id="text_10">
      <!-- 50 -->
      <g transform="translate(13.5625 248.718661) scale(0.1 -0.1)">
       <use xlink:href="#DejaVuSans-35"/>
       <use xlink:href="#DejaVuSans-30" x="63.623047"/>
      </g>
     </g>
    </g>
    <g id="ytick_3">
     <g id="line2d_11">
      <g>
       <use xlink:href="#m74c7ab1813" x="33.2875" y="213.50476" style="stroke: #000000; stroke-width: 0.8"/>
      </g>
     </g>
     <g id="text_11">
      <!-- 100 -->
      <g transform="translate(7.2 217.303979) scale(0.1 -0.1)">
       <use xlink:href="#DejaVuSans-31"/>
       <use xlink:href="#DejaVuSans-30" x="63.623047"/>
       <use xlink:href="#DejaVuSans-30" x="127.246094"/>
      </g>
     </g>
    </g>
    <g id="ytick_4">
     <g id="line2d_12">
      <g>
       <use xlink:href="#m74c7ab1813" x="33.2875" y="182.090078" style="stroke: #000000; stroke-width: 0.8"/>
      </g>
     </g>
     <g id="text_12">
      <!-- 150 -->
      <g transform="translate(7.2 185.889297) scale(0.1 -0.1)">
       <use xlink:href="#DejaVuSans-31"/>
       <use xlink:href="#DejaVuSans-35" x="63.623047"/>
       <use xlink:href="#DejaVuSans-30" x="127.246094"/>
      </g>
     </g>
    </g>
    <g id="ytick_5">
     <g id="line2d_13">
      <g>
       <use xlink:href="#m74c7ab1813" x="33.2875" y="150.675396" style="stroke: #000000; stroke-width: 0.8"/>
      </g>
     </g>
     <g id="text_13">
      <!-- 200 -->
      <g transform="translate(7.2 154.474614) scale(0.1 -0.1)">
       <use xlink:href="#DejaVuSans-32"/>
       <use xlink:href="#DejaVuSans-30" x="63.623047"/>
       <use xlink:href="#DejaVuSans-30" x="127.246094"/>
      </g>
     </g>
    </g>
    <g id="ytick_6">
     <g id="line2d_14">
      <g>
       <use xlink:href="#m74c7ab1813" x="33.2875" y="119.260713" style="stroke: #000000; stroke-width: 0.8"/>
      </g>
     </g>
     <g id="text_14">
      <!-- 250 -->
      <g transform="translate(7.2 123.059932) scale(0.1 -0.1)">
       <use xlink:href="#DejaVuSans-32"/>
       <use xlink:href="#DejaVuSans-35" x="63.623047"/>
       <use xlink:href="#DejaVuSans-30" x="127.246094"/>
      </g>
     </g>
    </g>
    <g id="ytick_7">
     <g id="line2d_15">
      <g>
       <use xlink:href="#m74c7ab1813" x="33.2875" y="87.846031" style="stroke: #000000; stroke-width: 0.8"/>
      </g>
     </g>
     <g id="text_15">
      <!-- 300 -->
      <g transform="translate(7.2 91.64525) scale(0.1 -0.1)">
       <use xlink:href="#DejaVuSans-33"/>
       <use xlink:href="#DejaVuSans-30" x="63.623047"/>
       <use xlink:href="#DejaVuSans-30" x="127.246094"/>
      </g>
     </g>
    </g>
    <g id="ytick_8">
     <g id="line2d_16">
      <g>
       <use xlink:href="#m74c7ab1813" x="33.2875" y="56.431349" style="stroke: #000000; stroke-width: 0.8"/>
      </g>
     </g>
     <g id="text_16">
      <!-- 350 -->
      <g transform="translate(7.2 60.230567) scale(0.1 -0.1)">
       <use xlink:href="#DejaVuSans-33"/>
       <use xlink:href="#DejaVuSans-35" x="63.623047"/>
       <use xlink:href="#DejaVuSans-30" x="127.246094"/>
      </g>
     </g>
    </g>
    <g id="ytick_9">
     <g id="line2d_17">
      <g>
       <use xlink:href="#m74c7ab1813" x="33.2875" y="25.016666" style="stroke: #000000; stroke-width: 0.8"/>
      </g>
     </g>
     <g id="text_17">
      <!-- 400 -->
      <g transform="translate(7.2 28.815885) scale(0.1 -0.1)">
       <defs>
        <path id="DejaVuSans-34" d="M 2419 4116 
L 825 1625 
L 2419 1625 
L 2419 4116 
z
M 2253 4666 
L 3047 4666 
L 3047 1625 
L 3713 1625 
L 3713 1100 
L 3047 1100 
L 3047 0 
L 2419 0 
L 2419 1100 
L 313 1100 
L 313 1709 
L 2253 4666 
z
" transform="scale(0.015625)"/>
       </defs>
       <use xlink:href="#DejaVuSans-34"/>
       <use xlink:href="#DejaVuSans-30" x="63.623047"/>
       <use xlink:href="#DejaVuSans-30" x="127.246094"/>
      </g>
     </g>
    </g>
   </g>
   <g id="line2d_18">
    <path d="M 49.520227 276.334125 
L 56.483327 276.334125 
L 57.353715 263.940348 
L 58.224102 260.467788 
L 59.09449 256.220781 
L 59.964878 230.091701 
L 60.835265 57.863606 
L 61.705653 124.63492 
L 62.57604 139.752918 
L 63.446428 144.028969 
L 64.316815 144.70438 
L 65.187203 142.401926 
L 66.05759 158.854757 
L 66.927978 265.552129 
L 67.798365 262.656558 
L 68.668753 258.162088 
L 69.53914 237.021094 
L 70.409528 58.061698 
L 71.279915 128.947011 
L 72.150303 141.89336 
L 73.02069 150.103637 
L 73.891078 150.248012 
L 74.761465 155.670238 
L 75.631853 171.941825 
L 76.50224 264.191632 
L 77.372628 260.476611 
L 78.243015 254.926703 
L 79.113403 231.028998 
L 79.983791 66.982746 
L 80.854178 122.1288 
L 81.724566 143.571171 
L 82.594953 151.380221 
L 83.465341 150.168639 
L 84.335728 149.968713 
L 85.206116 166.899611 
L 86.076503 263.195855 
L 86.946891 259.779695 
L 87.817278 255.674256 
L 88.687666 236.524065 
L 89.558053 65.150377 
L 90.428441 123.90282 
L 91.298828 132.336944 
L 92.169216 145.277823 
L 93.039603 148.060408 
L 93.909991 150.224888 
L 94.780378 166.530847 
L 95.650766 264.523024 
L 97.391541 256.536544 
L 98.261928 230.174792 
L 99.132316 46.231424 
L 100.002704 119.336742 
L 100.873091 132.694386 
L 101.743479 139.98307 
L 102.613866 139.437583 
L 103.484254 144.092844 
L 104.354641 161.740657 
L 105.225029 265.400334 
L 106.095416 261.907987 
L 106.965804 256.638038 
L 107.836191 228.663666 
L 108.706579 49.565334 
L 109.576966 113.320728 
L 110.447354 128.824047 
L 111.317741 135.974193 
L 112.188129 138.739362 
L 113.058516 136.193059 
L 113.928904 153.9407 
L 114.799291 264.491106 
L 115.669679 260.917665 
L 116.540066 256.313469 
L 117.410454 230.822951 
L 118.280841 62.117545 
L 119.151229 124.403794 
L 120.021617 136.038133 
L 120.892004 135.727449 
L 121.762392 135.237629 
L 122.632779 137.65011 
L 123.503167 156.736435 
L 124.373554 264.710911 
L 125.243942 261.55008 
L 126.114329 257.340428 
L 126.984717 233.526876 
L 127.855104 35.718105 
L 128.725492 123.519203 
L 129.595879 138.442361 
L 130.466267 143.611612 
L 131.336654 135.066362 
L 132.207042 138.938383 
L 133.077429 157.838117 
L 133.947817 264.098576 
L 134.818204 260.210288 
L 135.688592 254.087968 
L 136.558979 229.623972 
L 137.429367 45.905984 
L 138.299754 121.612633 
L 139.170142 142.663387 
L 140.040529 146.980831 
L 140.910917 148.022025 
L 141.781305 148.773795 
L 142.651692 164.137842 
L 143.52208 263.979352 
L 144.392467 260.41 
L 145.262855 254.617381 
L 146.133242 226.170242 
L 147.00363 40.289558 
L 147.874017 112.13676 
L 148.744405 128.212515 
L 149.614792 133.97934 
L 150.48518 132.882935 
L 151.355567 134.645847 
L 152.225955 153.736653 
L 153.096342 265.545106 
L 153.96673 262.520333 
L 154.837117 257.829471 
L 155.707505 232.137265 
L 156.577892 58.171227 
L 157.44828 121.452903 
L 158.318667 136.34109 
L 159.189055 141.4737 
L 160.059442 142.250135 
L 160.92983 143.255498 
L 161.800218 160.782389 
L 162.670605 263.817629 
L 163.540993 260.684197 
L 164.41138 255.830846 
L 165.281768 231.370816 
L 166.152155 52.40532 
L 167.022543 122.931208 
L 167.89293 136.589043 
L 168.763318 144.089426 
L 169.633705 148.5377 
L 170.504093 146.251441 
L 171.37448 161.498516 
L 172.244868 263.367035 
L 173.115255 259.630041 
L 173.985643 253.001165 
L 174.85603 229.483539 
L 175.726418 67.296144 
L 176.596805 120.905512 
L 177.467193 137.760117 
L 178.33758 142.939451 
L 179.207968 138.478115 
L 180.078355 144.154574 
L 180.948743 161.199828 
L 181.819131 263.296762 
L 182.689518 259.974804 
L 183.559906 255.024893 
L 184.430293 233.75368 
L 185.300681 54.396023 
L 186.171068 115.003123 
L 187.041456 129.22093 
L 187.911843 137.258729 
L 188.782231 139.79746 
L 189.652618 140.273766 
L 190.523006 158.469112 
L 191.393393 265.043629 
L 192.263781 261.466124 
L 193.134168 257.251799 
L 194.004556 230.58694 
L 194.874943 41.252555 
L 195.745331 117.65106 
L 196.615718 129.571653 
L 197.486106 135.838633 
L 198.356493 138.256001 
L 199.226881 138.864974 
L 200.097268 155.870744 
L 200.967656 262.637902 
L 201.838044 258.687183 
L 202.708431 253.209365 
L 203.578819 233.445951 
L 204.449206 58.740513 
L 205.319594 124.404155 
L 206.189981 137.944305 
L 207.060369 145.188571 
L 207.930756 144.304376 
L 208.801144 150.777257 
L 209.671531 166.72039 
L 210.541919 265.665396 
L 211.412306 262.582487 
L 212.282694 258.100011 
L 213.153081 231.224998 
L 214.023469 42.963699 
L 214.893856 114.480013 
L 215.764244 129.401934 
L 216.634631 136.770016 
L 217.505019 142.231263 
L 218.375406 146.877809 
L 219.245794 164.164725 
L 220.116181 261.839906 
L 220.986569 257.847177 
L 221.856956 252.142258 
L 222.727344 230.163044 
L 223.597732 34.414125 
L 224.468119 112.682864 
L 225.338507 131.189579 
L 226.208894 142.048479 
L 227.079282 142.96558 
L 227.949669 142.772972 
L 228.820057 159.843487 
L 229.690444 264.107918 
L 230.560832 260.30328 
L 231.431219 255.319681 
L 232.301607 237.519335 
L 233.171994 44.898503 
L 234.042382 115.500575 
L 234.912769 137.203053 
L 235.783157 144.823578 
L 236.653544 144.051366 
L 237.523932 148.138672 
L 238.394319 166.394486 
L 239.264707 263.559238 
L 240.135094 259.942008 
L 241.005482 254.31588 
L 241.875869 231.968343 
L 242.746257 63.62956 
L 243.616645 121.54555 
L 244.487032 133.357663 
L 245.35742 142.634728 
L 246.227807 143.724312 
L 247.098195 141.883034 
L 247.968582 159.546807 
L 248.83897 265.217091 
L 249.709357 262.302224 
L 250.579745 257.054819 
L 251.450132 237.55348 
L 252.32052 42.870722 
L 253.190907 115.926265 
L 254.931682 140.749599 
L 255.80207 143.457286 
L 256.672457 148.716945 
L 257.542845 167.305076 
L 258.413232 263.501941 
L 259.28362 259.706117 
L 260.154007 254.668992 
L 261.024395 231.507873 
L 261.894782 63.983026 
L 262.76517 113.148041 
L 263.635558 127.891404 
L 264.505945 134.237036 
L 265.376333 136.304718 
L 266.24672 139.554281 
L 267.117108 156.073398 
L 267.987495 262.63609 
L 268.857883 258.745423 
L 269.72827 252.715963 
L 270.598658 233.160364 
L 271.469045 43.444092 
L 272.339433 114.782184 
L 273.20982 130.755773 
L 274.080208 142.469591 
L 274.950595 135.842034 
L 275.820983 140.615704 
L 276.69137 159.828137 
L 277.561758 262.151558 
L 278.432145 257.945328 
L 279.302533 252.470546 
L 280.17292 231.149897 
L 281.043308 45.348403 
L 281.913695 112.848669 
L 282.784083 129.276204 
L 283.654471 135.86942 
L 284.524858 134.788579 
L 285.395246 139.16096 
L 286.265633 157.269464 
L 287.136021 263.914664 
L 288.006408 259.830381 
L 288.876796 254.53522 
L 289.747183 224.200562 
L 290.617571 51.560476 
L 291.487958 121.550548 
L 292.358346 132.748378 
L 293.228733 141.31971 
L 294.099121 145.393203 
L 294.969508 143.971482 
L 295.839896 162.449686 
L 296.710283 263.806854 
L 297.580671 259.763484 
L 298.451058 254.343538 
L 299.321446 229.384945 
L 300.191833 46.840411 
L 301.062221 117.771082 
L 301.932608 134.357756 
L 302.802996 140.430992 
L 304.543771 139.211794 
L 305.414159 157.860825 
L 306.284546 264.655033 
L 307.154934 261.335653 
L 308.025321 256.727166 
L 308.895709 231.372351 
L 309.766096 46.746597 
L 310.636484 113.598812 
L 311.506871 125.635317 
L 312.377259 135.988503 
L 313.247646 137.9567 
L 314.118034 136.539159 
L 314.988421 154.277719 
L 315.858809 264.218923 
L 317.599584 256.127798 
L 318.469971 236.175685 
L 319.340359 54.41523 
L 320.210746 117.082009 
L 321.081134 131.656364 
L 321.951521 140.155262 
L 322.821909 147.453234 
L 323.692296 150.163126 
L 324.562684 165.770966 
L 325.433072 264.257581 
L 326.303459 260.84259 
L 327.173847 256.006514 
L 328.044234 237.207079 
L 328.914622 63.143529 
L 329.785009 126.142924 
L 330.655397 134.294263 
L 331.525784 139.425592 
L 332.396172 142.692513 
L 333.266559 148.024334 
L 334.136947 166.39466 
L 335.007334 263.697363 
L 335.877722 260.324384 
L 336.748109 255.988432 
L 337.618497 232.815179 
L 338.488884 71.485163 
L 339.359272 124.743388 
L 340.229659 140.065706 
L 341.100047 144.670626 
L 341.970434 141.27149 
L 342.840822 141.831711 
L 343.711209 160.502855 
L 344.581597 260.495304 
L 345.451985 256.644864 
L 346.322372 250.095048 
L 347.19276 228.193412 
L 348.063147 50.319999 
L 348.933535 119.061774 
L 349.803922 134.89505 
L 350.67431 140.330505 
L 351.544697 140.317064 
L 352.415085 142.397886 
L 353.285472 159.492861 
L 354.15586 264.118167 
L 355.026247 260.715238 
L 355.896635 255.950326 
L 356.767022 227.662535 
L 357.63741 55.486444 
L 358.507797 119.681074 
L 359.378185 130.27753 
L 360.248572 136.742007 
L 361.11896 135.67393 
L 361.989347 142.380188 
L 362.859735 161.080707 
L 363.730122 262.347856 
L 364.60051 259.267513 
L 365.470898 253.838301 
L 366.341285 231.364194 
L 367.211673 38.384792 
L 368.08206 114.955965 
L 368.952448 131.069584 
L 370.693223 138.892189 
L 371.56361 143.69707 
L 372.433998 160.949183 
L 373.304385 276.334125 
L 374.174773 276.334125 
L 374.174773 276.334125 
" clip-path="url(#pbda773f7d9)" style="fill: none; stroke: #1f77b4; stroke-width: 1.5; stroke-linecap: square"/>
   </g>
   <g id="patch_3">
    <path d="M 33.2875 288.430125 
L 33.2875 22.318125 
" style="fill: none; stroke: #000000; stroke-width: 0.8; stroke-linejoin: miter; stroke-linecap: square"/>
   </g>
   <g id="patch_4">
    <path d="M 390.4075 288.430125 
L 390.4075 22.318125 
" style="fill: none; stroke: #000000; stroke-width: 0.8; stroke-linejoin: miter; stroke-linecap: square"/>
   </g>
   <g id="patch_5">
    <path d="M 33.2875 288.430125 
L 390.4075 288.430125 
" style="fill: none; stroke: #000000; stroke-width: 0.8; stroke-linejoin: miter; stroke-linecap: square"/>
   </g>
   <g id="patch_6">
    <path d="M 33.2875 22.318125 
L 390.4075 22.318125 
" style="fill: none; stroke: #000000; stroke-width: 0.8; stroke-linejoin: miter; stroke-linecap: square"/>
   </g>
   <g id="text_18">
    <!-- Fast Flux -->
    <g transform="translate(185.410938 16.318125) scale(0.12 -0.12)">
     <defs>
      <path id="DejaVuSans-46" d="M 628 4666 
L 3309 4666 
L 3309 4134 
L 1259 4134 
L 1259 2759 
L 3109 2759 
L 3109 2228 
L 1259 2228 
L 1259 0 
L 628 0 
L 628 4666 
z
" transform="scale(0.015625)"/>
      <path id="DejaVuSans-61" d="M 2194 1759 
Q 1497 1759 1228 1600 
Q 959 1441 959 1056 
Q 959 750 1161 570 
Q 1363 391 1709 391 
Q 2188 391 2477 730 
Q 2766 1069 2766 1631 
L 2766 1759 
L 2194 1759 
z
M 3341 1997 
L 3341 0 
L 2766 0 
L 2766 531 
Q 2569 213 2275 61 
Q 1981 -91 1556 -91 
Q 1019 -91 701 211 
Q 384 513 384 1019 
Q 384 1609 779 1909 
Q 1175 2209 1959 2209 
L 2766 2209 
L 2766 2266 
Q 2766 2663 2505 2880 
Q 2244 3097 1772 3097 
Q 1472 3097 1187 3025 
Q 903 2953 641 2809 
L 641 3341 
Q 956 3463 1253 3523 
Q 1550 3584 1831 3584 
Q 2591 3584 2966 3190 
Q 3341 2797 3341 1997 
z
" transform="scale(0.015625)"/>
      <path id="DejaVuSans-73" d="M 2834 3397 
L 2834 2853 
Q 2591 2978 2328 3040 
Q 2066 3103 1784 3103 
Q 1356 3103 1142 2972 
Q 928 2841 928 2578 
Q 928 2378 1081 2264 
Q 1234 2150 1697 2047 
L 1894 2003 
Q 2506 1872 2764 1633 
Q 3022 1394 3022 966 
Q 3022 478 2636 193 
Q 2250 -91 1575 -91 
Q 1294 -91 989 -36 
Q 684 19 347 128 
L 347 722 
Q 666 556 975 473 
Q 1284 391 1588 391 
Q 1994 391 2212 530 
Q 2431 669 2431 922 
Q 2431 1156 2273 1281 
Q 2116 1406 1581 1522 
L 1381 1569 
Q 847 1681 609 1914 
Q 372 2147 372 2553 
Q 372 3047 722 3315 
Q 1072 3584 1716 3584 
Q 2034 3584 2315 3537 
Q 2597 3491 2834 3397 
z
" transform="scale(0.015625)"/>
      <path id="DejaVuSans-74" d="M 1172 4494 
L 1172 3500 
L 2356 3500 
L 2356 3053 
L 1172 3053 
L 1172 1153 
Q 1172 725 1289 603 
Q 1406 481 1766 481 
L 2356 481 
L 2356 0 
L 1766 0 
Q 1100 0 847 248 
Q 594 497 594 1153 
L 594 3053 
L 172 3053 
L 172 3500 
L 594 3500 
L 594 4494 
L 1172 4494 
z
" transform="scale(0.015625)"/>
      <path id="DejaVuSans-20" transform="scale(0.015625)"/>
      <path id="DejaVuSans-6c" d="M 603 4863 
L 1178 4863 
L 1178 0 
L 603 0 
L 603 4863 
z
" transform="scale(0.015625)"/>
      <path id="DejaVuSans-75" d="M 544 1381 
L 544 3500 
L 1119 3500 
L 1119 1403 
Q 1119 906 1312 657 
Q 1506 409 1894 409 
Q 2359 409 2629 706 
Q 2900 1003 2900 1516 
L 2900 3500 
L 3475 3500 
L 3475 0 
L 2900 0 
L 2900 538 
Q 2691 219 2414 64 
Q 2138 -91 1772 -91 
Q 1169 -91 856 284 
Q 544 659 544 1381 
z
M 1991 3584 
L 1991 3584 
z
" transform="scale(0.015625)"/>
      <path id="DejaVuSans-78" d="M 3513 3500 
L 2247 1797 
L 3578 0 
L 2900 0 
L 1881 1375 
L 863 0 
L 184 0 
L 1544 1831 
L 300 3500 
L 978 3500 
L 1906 2253 
L 2834 3500 
L 3513 3500 
z
" transform="scale(0.015625)"/>
     </defs>
     <use xlink:href="#DejaVuSans-46"/>
     <use xlink:href="#DejaVuSans-61" x="48.394531"/>
     <use xlink:href="#DejaVuSans-73" x="109.673828"/>
     <use xlink:href="#DejaVuSans-74" x="161.773438"/>
     <use xlink:href="#DejaVuSans-20" x="200.982422"/>
     <use xlink:href="#DejaVuSans-46" x="232.769531"/>
     <use xlink:href="#DejaVuSans-6c" x="290.289062"/>
     <use xlink:href="#DejaVuSans-75" x="318.072266"/>
     <use xlink:href="#DejaVuSans-78" x="381.451172"/>
    </g>
   </g>
  </g>
 </g>
 <defs>
  <clipPath id="pbda773f7d9">
   <rect x="33.2875" y="22.318125" width="357.12" height="266.112"/>
  </clipPath>
 </defs>
</svg>
