<?xml version="1.0" encoding="utf-8" standalone="no"?>
<!DOCTYPE svg PUBLIC "-//W3C//DTD SVG 1.1//EN"
  "http://www.w3.org/Graphics/SVG/1.1/DTD/svg11.dtd">
<svg xmlns:xlink="http://www.w3.org/1999/xlink" width="403.97pt" height="312.30825pt" viewBox="0 0 403.97 312.30825" xmlns="http://www.w3.org/2000/svg" version="1.1">
 <metadata>
  <rdf:RDF xmlns:dc="http://purl.org/dc/elements/1.1/" xmlns:cc="http://creativecommons.org/ns#" xmlns:rdf="http://www.w3.org/1999/02/22-rdf-syntax-ns#">
   <cc:Work>
    <dc:type rdf:resource="http://purl.org/dc/dcmitype/StillImage"/>
    <dc:date>2024-03-14T13:25:35.459874</dc:date>
    <dc:format>image/svg+xml</dc:format>
    <dc:creator>
     <cc:Agent>
      <dc:title>Matplotlib v3.8.3, https://matplotlib.org/</dc:title>
     </cc:Agent>
    </dc:creator>
   </cc:Work>
  </rdf:RDF>
 </metadata>
 <defs>
  <style type="text/css">*{stroke-linejoin: round; stroke-linecap: butt}</style>
 </defs>
 <g id="figure_1">
  <g id="patch_1">
   <path d="M 0 312.30825 
L 403.97 312.30825 
L 403.97 0 
L 0 0 
z
" style="fill: #ffffff"/>
  </g>
  <g id="axes_1">
   <g id="patch_2">
    <path d="M 39.65 288.430125 
L 396.77 288.430125 
L 396.77 22.318125 
L 39.65 22.318125 
z
" style="fill: #ffffff"/>
   </g>
   <g id="matplotlib.axis_1">
    <g id="xtick_1">
     <g id="line2d_1">
      <defs>
       <path id="m4fea2260e2" d="M 0 0 
L 0 3.5 
" style="stroke: #000000; stroke-width: 0.8"/>
      </defs>
      <g>
       <use xlink:href="#m4fea2260e2" x="55.882727" y="288.430125" style="stroke: #000000; stroke-width: 0.8"/>
      </g>
     </g>
     <g id="text_1">
      <!-- 0 -->
      <g transform="translate(52.701477 303.028562) scale(0.1 -0.1)">
       <defs>
        <path id="DejaVuSans-30" d="M 2034 4250 
Q 1547 4250 1301 3770 
Q 1056 3291 1056 2328 
Q 1056 1369 1301 889 
Q 1547 409 2034 409 
Q 2525 409 2770 889 
Q 3016 1369 3016 2328 
Q 3016 3291 2770 3770 
Q 2525 4250 2034 4250 
z
M 2034 4750 
Q 2819 4750 3233 4129 
Q 3647 3509 3647 2328 
Q 3647 1150 3233 529 
Q 2819 -91 2034 -91 
Q 1250 -91 836 529 
Q 422 1150 422 2328 
Q 422 3509 836 4129 
Q 1250 4750 2034 4750 
z
" transform="scale(0.015625)"/>
       </defs>
       <use xlink:href="#DejaVuSans-30"/>
      </g>
     </g>
    </g>
    <g id="xtick_2">
     <g id="line2d_2">
      <g>
       <use xlink:href="#m4fea2260e2" x="99.402103" y="288.430125" style="stroke: #000000; stroke-width: 0.8"/>
      </g>
     </g>
     <g id="text_2">
      <!-- 50 -->
      <g transform="translate(93.039603 303.028562) scale(0.1 -0.1)">
       <defs>
        <path id="DejaVuSans-35" d="M 691 4666 
L 3169 4666 
L 3169 4134 
L 1269 4134 
L 1269 2991 
Q 1406 3038 1543 3061 
Q 1681 3084 1819 3084 
Q 2600 3084 3056 2656 
Q 3513 2228 3513 1497 
Q 3513 744 3044 326 
Q 2575 -91 1722 -91 
Q 1428 -91 1123 -41 
Q 819 9 494 109 
L 494 744 
Q 775 591 1075 516 
Q 1375 441 1709 441 
Q 2250 441 2565 725 
Q 2881 1009 2881 1497 
Q 2881 1984 2565 2268 
Q 2250 2553 1709 2553 
Q 1456 2553 1204 2497 
Q 953 2441 691 2322 
L 691 4666 
z
" transform="scale(0.015625)"/>
       </defs>
       <use xlink:href="#DejaVuSans-35"/>
       <use xlink:href="#DejaVuSans-30" x="63.623047"/>
      </g>
     </g>
    </g>
    <g id="xtick_3">
     <g id="line2d_3">
      <g>
       <use xlink:href="#m4fea2260e2" x="142.921479" y="288.430125" style="stroke: #000000; stroke-width: 0.8"/>
      </g>
     </g>
     <g id="text_3">
      <!-- 100 -->
      <g transform="translate(133.377729 303.028562) scale(0.1 -0.1)">
       <defs>
        <path id="DejaVuSans-31" d="M 794 531 
L 1825 531 
L 1825 4091 
L 703 3866 
L 703 4441 
L 1819 4666 
L 2450 4666 
L 2450 531 
L 3481 531 
L 3481 0 
L 794 0 
L 794 531 
z
" transform="scale(0.015625)"/>
       </defs>
       <use xlink:href="#DejaVuSans-31"/>
       <use xlink:href="#DejaVuSans-30" x="63.623047"/>
       <use xlink:href="#DejaVuSans-30" x="127.246094"/>
      </g>
     </g>
    </g>
    <g id="xtick_4">
     <g id="line2d_4">
      <g>
       <use xlink:href="#m4fea2260e2" x="186.440855" y="288.430125" style="stroke: #000000; stroke-width: 0.8"/>
      </g>
     </g>
     <g id="text_4">
      <!-- 150 -->
      <g transform="translate(176.897105 303.028562) scale(0.1 -0.1)">
       <use xlink:href="#DejaVuSans-31"/>
       <use xlink:href="#DejaVuSans-35" x="63.623047"/>
       <use xlink:href="#DejaVuSans-30" x="127.246094"/>
      </g>
     </g>
    </g>
    <g id="xtick_5">
     <g id="line2d_5">
      <g>
       <use xlink:href="#m4fea2260e2" x="229.960232" y="288.430125" style="stroke: #000000; stroke-width: 0.8"/>
      </g>
     </g>
     <g id="text_5">
      <!-- 200 -->
      <g transform="translate(220.416482 303.028562) scale(0.1 -0.1)">
       <defs>
        <path id="DejaVuSans-32" d="M 1228 531 
L 3431 531 
L 3431 0 
L 469 0 
L 469 531 
Q 828 903 1448 1529 
Q 2069 2156 2228 2338 
Q 2531 2678 2651 2914 
Q 2772 3150 2772 3378 
Q 2772 3750 2511 3984 
Q 2250 4219 1831 4219 
Q 1534 4219 1204 4116 
Q 875 4013 500 3803 
L 500 4441 
Q 881 4594 1212 4672 
Q 1544 4750 1819 4750 
Q 2544 4750 2975 4387 
Q 3406 4025 3406 3419 
Q 3406 3131 3298 2873 
Q 3191 2616 2906 2266 
Q 2828 2175 2409 1742 
Q 1991 1309 1228 531 
z
" transform="scale(0.015625)"/>
       </defs>
       <use xlink:href="#DejaVuSans-32"/>
       <use xlink:href="#DejaVuSans-30" x="63.623047"/>
       <use xlink:href="#DejaVuSans-30" x="127.246094"/>
      </g>
     </g>
    </g>
    <g id="xtick_6">
     <g id="line2d_6">
      <g>
       <use xlink:href="#m4fea2260e2" x="273.479608" y="288.430125" style="stroke: #000000; stroke-width: 0.8"/>
      </g>
     </g>
     <g id="text_6">
      <!-- 250 -->
      <g transform="translate(263.935858 303.028562) scale(0.1 -0.1)">
       <use xlink:href="#DejaVuSans-32"/>
       <use xlink:href="#DejaVuSans-35" x="63.623047"/>
       <use xlink:href="#DejaVuSans-30" x="127.246094"/>
      </g>
     </g>
    </g>
    <g id="xtick_7">
     <g id="line2d_7">
      <g>
       <use xlink:href="#m4fea2260e2" x="316.998984" y="288.430125" style="stroke: #000000; stroke-width: 0.8"/>
      </g>
     </g>
     <g id="text_7">
      <!-- 300 -->
      <g transform="translate(307.455234 303.028562) scale(0.1 -0.1)">
       <defs>
        <path id="DejaVuSans-33" d="M 2597 2516 
Q 3050 2419 3304 2112 
Q 3559 1806 3559 1356 
Q 3559 666 3084 287 
Q 2609 -91 1734 -91 
Q 1441 -91 1130 -33 
Q 819 25 488 141 
L 488 750 
Q 750 597 1062 519 
Q 1375 441 1716 441 
Q 2309 441 2620 675 
Q 2931 909 2931 1356 
Q 2931 1769 2642 2001 
Q 2353 2234 1838 2234 
L 1294 2234 
L 1294 2753 
L 1863 2753 
Q 2328 2753 2575 2939 
Q 2822 3125 2822 3475 
Q 2822 3834 2567 4026 
Q 2313 4219 1838 4219 
Q 1578 4219 1281 4162 
Q 984 4106 628 3988 
L 628 4550 
Q 988 4650 1302 4700 
Q 1616 4750 1894 4750 
Q 2613 4750 3031 4423 
Q 3450 4097 3450 3541 
Q 3450 3153 3228 2886 
Q 3006 2619 2597 2516 
z
" transform="scale(0.015625)"/>
       </defs>
       <use xlink:href="#DejaVuSans-33"/>
       <use xlink:href="#DejaVuSans-30" x="63.623047"/>
       <use xlink:href="#DejaVuSans-30" x="127.246094"/>
      </g>
     </g>
    </g>
    <g id="xtick_8">
     <g id="line2d_8">
      <g>
       <use xlink:href="#m4fea2260e2" x="360.51836" y="288.430125" style="stroke: #000000; stroke-width: 0.8"/>
      </g>
     </g>
     <g id="text_8">
      <!-- 350 -->
      <g transform="translate(350.97461 303.028562) scale(0.1 -0.1)">
       <use xlink:href="#DejaVuSans-33"/>
       <use xlink:href="#DejaVuSans-35" x="63.623047"/>
       <use xlink:href="#DejaVuSans-30" x="127.246094"/>
      </g>
     </g>
    </g>
   </g>
   <g id="matplotlib.axis_2">
    <g id="ytick_1">
     <g id="line2d_9">
      <defs>
       <path id="m0631830328" d="M 0 0 
L -3.5 0 
" style="stroke: #000000; stroke-width: 0.8"/>
      </defs>
      <g>
       <use xlink:href="#m0631830328" x="39.65" y="276.515673" style="stroke: #000000; stroke-width: 0.8"/>
      </g>
     </g>
     <g id="text_9">
      <!-- 0 -->
      <g transform="translate(26.2875 280.314892) scale(0.1 -0.1)">
       <use xlink:href="#DejaVuSans-30"/>
      </g>
     </g>
    </g>
    <g id="ytick_2">
     <g id="line2d_10">
      <g>
       <use xlink:href="#m0631830328" x="39.65" y="218.771948" style="stroke: #000000; stroke-width: 0.8"/>
      </g>
     </g>
     <g id="text_10">
      <!-- 1000 -->
      <g transform="translate(7.2 222.571167) scale(0.1 -0.1)">
       <use xlink:href="#DejaVuSans-31"/>
       <use xlink:href="#DejaVuSans-30" x="63.623047"/>
       <use xlink:href="#DejaVuSans-30" x="127.246094"/>
       <use xlink:href="#DejaVuSans-30" x="190.869141"/>
      </g>
     </g>
    </g>
    <g id="ytick_3">
     <g id="line2d_11">
      <g>
       <use xlink:href="#m0631830328" x="39.65" y="161.028223" style="stroke: #000000; stroke-width: 0.8"/>
      </g>
     </g>
     <g id="text_11">
      <!-- 2000 -->
      <g transform="translate(7.2 164.827442) scale(0.1 -0.1)">
       <use xlink:href="#DejaVuSans-32"/>
       <use xlink:href="#DejaVuSans-30" x="63.623047"/>
       <use xlink:href="#DejaVuSans-30" x="127.246094"/>
       <use xlink:href="#DejaVuSans-30" x="190.869141"/>
      </g>
     </g>
    </g>
    <g id="ytick_4">
     <g id="line2d_12">
      <g>
       <use xlink:href="#m0631830328" x="39.65" y="103.284498" style="stroke: #000000; stroke-width: 0.8"/>
      </g>
     </g>
     <g id="text_12">
      <!-- 3000 -->
      <g transform="translate(7.2 107.083717) scale(0.1 -0.1)">
       <use xlink:href="#DejaVuSans-33"/>
       <use xlink:href="#DejaVuSans-30" x="63.623047"/>
       <use xlink:href="#DejaVuSans-30" x="127.246094"/>
       <use xlink:href="#DejaVuSans-30" x="190.869141"/>
      </g>
     </g>
    </g>
    <g id="ytick_5">
     <g id="line2d_13">
      <g>
       <use xlink:href="#m0631830328" x="39.65" y="45.540773" style="stroke: #000000; stroke-width: 0.8"/>
      </g>
     </g>
     <g id="text_13">
      <!-- 4000 -->
      <g transform="translate(7.2 49.339991) scale(0.1 -0.1)">
       <defs>
        <path id="DejaVuSans-34" d="M 2419 4116 
L 825 1625 
L 2419 1625 
L 2419 4116 
z
M 2253 4666 
L 3047 4666 
L 3047 1625 
L 3713 1625 
L 3713 1100 
L 3047 1100 
L 3047 0 
L 2419 0 
L 2419 1100 
L 313 1100 
L 313 1709 
L 2253 4666 
z
" transform="scale(0.015625)"/>
       </defs>
       <use xlink:href="#DejaVuSans-34"/>
       <use xlink:href="#DejaVuSans-30" x="63.623047"/>
       <use xlink:href="#DejaVuSans-30" x="127.246094"/>
       <use xlink:href="#DejaVuSans-30" x="190.869141"/>
      </g>
     </g>
    </g>
   </g>
   <g id="line2d_14">
    <path d="M 55.882727 274.355113 
L 56.753115 273.196619 
L 57.623502 273.161859 
L 58.49389 276.334125 
L 61.97544 276.319017 
L 62.845827 261.365548 
L 63.716215 272.960204 
L 64.586602 275.982382 
L 65.45699 275.924551 
L 66.327378 268.871047 
L 67.197765 265.982758 
L 68.068153 274.794267 
L 68.93854 274.620346 
L 69.808928 274.280316 
L 70.679315 274.616908 
L 71.549703 274.751951 
L 72.42009 258.028523 
L 73.290478 269.157022 
L 74.160865 275.034207 
L 75.031253 275.049005 
L 75.90164 265.340217 
L 76.772028 252.644303 
L 77.642415 274.397781 
L 79.38319 274.265244 
L 81.123965 274.646114 
L 81.994353 246.907437 
L 82.86474 266.326156 
L 83.735128 274.973523 
L 84.605515 275.003251 
L 85.475903 263.69946 
L 86.346291 249.482879 
L 87.216678 274.267708 
L 88.087066 273.981078 
L 89.827841 274.060443 
L 90.698228 274.361569 
L 91.568616 241.809772 
L 92.439003 260.954121 
L 93.309391 273.608472 
L 94.179778 273.642984 
L 95.920553 244.120677 
L 96.790941 274.038374 
L 97.661328 273.379461 
L 100.272491 273.843072 
L 101.142878 242.930597 
L 102.013266 260.48697 
L 102.883653 274.743581 
L 103.754041 274.751887 
L 104.624428 256.378208 
L 105.494816 244.865167 
L 106.365204 273.676628 
L 107.235591 273.176239 
L 108.976366 273.687655 
L 109.846754 274.10216 
L 110.717141 249.738103 
L 111.587529 255.165189 
L 112.457916 272.944511 
L 113.328304 272.966727 
L 114.198691 254.920914 
L 115.069079 239.903405 
L 115.939466 271.077154 
L 116.809854 273.908538 
L 117.680241 273.727353 
L 118.550629 273.75331 
L 119.421016 273.953361 
L 120.291404 249.532537 
L 121.161791 263.271308 
L 122.032179 275.073283 
L 122.902566 275.08947 
L 123.772954 248.501616 
L 124.643341 211.233743 
L 125.513729 262.40311 
L 126.384117 262.321228 
L 127.254504 262.388882 
L 128.124892 271.360261 
L 128.995279 273.706918 
L 129.865667 242.992237 
L 130.736054 265.003072 
L 131.606442 274.781286 
L 132.476829 274.741876 
L 133.347217 257.574239 
L 134.217604 247.065381 
L 135.087992 273.847305 
L 135.958379 273.725101 
L 136.828767 273.292071 
L 137.699154 273.3686 
L 138.569542 273.207576 
L 139.439929 207.887339 
L 140.310317 263.61448 
L 141.180704 274.8228 
L 142.051092 274.85581 
L 142.921479 264.460403 
L 143.791867 246.458285 
L 144.662254 273.951588 
L 145.532642 273.810948 
L 147.273417 273.723192 
L 148.143805 274.259759 
L 149.014192 248.66881 
L 149.88458 263.301683 
L 150.754967 274.606499 
L 151.625355 274.614032 
L 152.495742 262.601789 
L 153.36613 241.982932 
L 154.236517 272.960428 
L 155.106905 273.18295 
L 155.977292 273.274713 
L 157.718067 273.88863 
L 158.588455 237.992504 
L 159.458842 258.870397 
L 160.32923 274.140818 
L 161.199617 274.156902 
L 162.070005 259.941757 
L 162.940392 239.597561 
L 163.81078 274.101586 
L 164.681167 273.692359 
L 165.551555 274.111992 
L 166.421942 273.987209 
L 167.29233 274.104815 
L 168.162718 228.257361 
L 169.033105 262.535024 
L 169.903493 272.567839 
L 170.77388 272.618728 
L 171.644268 233.910521 
L 172.514655 246.650995 
L 173.385043 273.920343 
L 174.25543 273.894323 
L 175.996205 273.549485 
L 176.866593 273.782953 
L 177.73698 236.556961 
L 178.607368 261.414056 
L 179.477755 274.369355 
L 180.348143 274.397123 
L 181.21853 256.728223 
L 182.088918 226.727008 
L 182.959305 272.197254 
L 183.829693 272.563091 
L 184.70008 274.046388 
L 185.570468 274.036265 
L 186.440855 274.143058 
L 187.311243 251.275496 
L 188.181631 262.261519 
L 189.052018 274.866379 
L 189.922406 274.908594 
L 190.792793 263.363439 
L 191.663181 240.359931 
L 192.533568 273.55982 
L 193.403956 273.266368 
L 195.144731 273.104902 
L 196.015118 273.081985 
L 196.885506 239.676732 
L 197.755893 263.809934 
L 198.626281 274.454075 
L 199.496668 274.476095 
L 200.367056 265.261085 
L 201.237443 248.735877 
L 202.107831 274.561392 
L 203.848606 274.584907 
L 204.718993 274.475869 
L 205.589381 274.678253 
L 206.459768 253.784669 
L 207.330156 243.70123 
L 208.200544 273.843305 
L 209.070931 273.86812 
L 209.941319 262.949153 
L 210.811706 248.995316 
L 211.682094 274.354155 
L 212.552481 273.799108 
L 213.422869 274.214055 
L 214.293256 273.928474 
L 215.163644 274.146767 
L 216.034031 226.313253 
L 216.904419 262.243282 
L 217.774806 274.3053 
L 218.645194 274.337872 
L 220.385969 233.122421 
L 221.256356 271.428522 
L 222.126744 271.391239 
L 222.997131 271.167038 
L 223.867519 271.353406 
L 224.737906 274.297318 
L 225.608294 253.769035 
L 226.478681 263.670633 
L 227.349069 274.868751 
L 228.219456 274.883132 
L 229.089844 263.025256 
L 229.960232 248.709221 
L 230.830619 273.856612 
L 232.571394 273.690097 
L 234.312169 273.731842 
L 235.182557 237.951876 
L 236.052944 260.241221 
L 236.923332 274.441398 
L 237.793719 274.473872 
L 239.534494 249.626376 
L 240.404882 274.302006 
L 241.275269 274.167897 
L 242.145657 274.468232 
L 243.886432 274.512035 
L 244.756819 229.712309 
L 245.627207 265.398994 
L 246.497594 274.830153 
L 247.367982 274.846069 
L 248.238369 262.749911 
L 249.108757 248.969981 
L 249.979145 274.490224 
L 252.590307 274.211734 
L 253.460695 274.438707 
L 254.331082 250.303884 
L 255.20147 260.911462 
L 256.071857 274.37905 
L 256.942245 274.407557 
L 258.68302 248.310862 
L 259.553407 274.193186 
L 260.423795 274.125354 
L 262.16457 274.168875 
L 263.034957 273.334787 
L 263.905345 208.511401 
L 264.775732 263.149193 
L 265.64612 274.619011 
L 266.516507 274.657243 
L 268.257282 249.428782 
L 269.12767 273.801707 
L 269.998058 274.080842 
L 271.738833 274.162785 
L 272.60922 274.163526 
L 273.479608 126.127566 
L 274.349995 257.261959 
L 275.220383 274.302203 
L 276.09077 274.336007 
L 276.961158 264.680573 
L 277.831545 249.00038 
L 278.701933 274.211689 
L 279.57232 274.276659 
L 280.442708 274.138645 
L 282.183483 274.374744 
L 283.05387 240.816221 
L 283.924258 264.03499 
L 284.794645 275.14535 
L 285.665033 275.170976 
L 287.405808 237.608286 
L 288.276195 273.706303 
L 289.146583 273.726806 
L 290.887358 273.476454 
L 291.757746 273.727164 
L 292.628133 246.129468 
L 294.368908 274.918519 
L 295.239296 274.944785 
L 296.109683 264.234044 
L 296.980071 250.944587 
L 297.850458 274.298031 
L 298.720846 274.381547 
L 299.591233 274.275297 
L 300.461621 273.839292 
L 301.332008 274.307899 
L 302.202396 249.658882 
L 303.072783 263.949437 
L 303.943171 274.863033 
L 304.813558 274.898635 
L 305.683946 245.397724 
L 306.554333 220.381076 
L 307.424721 273.671563 
L 308.295108 273.343872 
L 309.165496 273.571199 
L 310.035883 272.154698 
L 310.906271 274.231569 
L 311.776659 250.784418 
L 312.647046 260.029508 
L 313.517434 272.790602 
L 314.387821 273.253574 
L 315.258209 245.097502 
L 316.128596 246.220369 
L 316.998984 274.140825 
L 318.739759 274.049494 
L 320.480534 274.420538 
L 321.350921 251.457604 
L 322.221309 265.076436 
L 323.091696 274.847877 
L 323.962084 274.871442 
L 324.832471 233.313843 
L 325.702859 199.138688 
L 326.573246 250.807951 
L 327.443634 260.300817 
L 329.184409 260.116891 
L 330.054796 262.562938 
L 330.925184 248.694838 
L 331.795572 258.470901 
L 332.665959 271.601795 
L 333.536347 271.622788 
L 334.406734 231.371489 
L 335.277122 241.966159 
L 336.147509 274.219787 
L 337.017897 274.348187 
L 337.888284 274.300959 
L 338.758672 274.399684 
L 339.629059 274.74734 
L 340.499447 245.177483 
L 341.369834 264.40961 
L 342.240222 274.95404 
L 343.110609 274.965907 
L 343.980997 260.176404 
L 344.851384 240.17605 
L 345.721772 273.986042 
L 346.592159 273.83318 
L 349.203322 274.150208 
L 350.073709 245.645383 
L 350.944097 265.196912 
L 351.814485 274.894284 
L 352.684872 274.912742 
L 353.55526 264.351771 
L 354.425647 247.692959 
L 355.296035 273.811666 
L 356.166422 273.884656 
L 357.03681 273.57584 
L 357.907197 273.564863 
L 358.777585 273.805354 
L 359.647972 241.790785 
L 360.51836 263.3037 
L 361.388747 274.752069 
L 362.259135 274.799829 
L 363.129522 265.673842 
L 363.99991 233.992978 
L 364.870297 274.114062 
L 365.740685 273.917007 
L 366.611072 274.126085 
L 367.48146 274.171922 
L 368.351847 274.404365 
L 369.222235 113.956195 
L 370.092622 266.473997 
L 370.96301 275.259991 
L 371.833398 275.284465 
L 372.703785 34.414125 
L 373.574173 258.72414 
L 374.44456 275.102081 
L 375.314948 274.230938 
L 377.055723 274.236752 
L 377.92611 274.239583 
L 378.796498 266.596549 
L 379.666885 270.10306 
L 380.537273 266.723089 
L 380.537273 266.723089 
" clip-path="url(#pb87faacc0f)" style="fill: none; stroke: #1f77b4; stroke-width: 1.5; stroke-linecap: square"/>
   </g>
   <g id="patch_3">
    <path d="M 39.65 288.430125 
L 39.65 22.318125 
" style="fill: none; stroke: #000000; stroke-width: 0.8; stroke-linejoin: miter; stroke-linecap: square"/>
   </g>
   <g id="patch_4">
    <path d="M 396.77 288.430125 
L 396.77 22.318125 
" style="fill: none; stroke: #000000; stroke-width: 0.8; stroke-linejoin: miter; stroke-linecap: square"/>
   </g>
   <g id="patch_5">
    <path d="M 39.65 288.430125 
L 396.77 288.430125 
" style="fill: none; stroke: #000000; stroke-width: 0.8; stroke-linejoin: miter; stroke-linecap: square"/>
   </g>
   <g id="patch_6">
    <path d="M 39.65 22.318125 
L 396.77 22.318125 
" style="fill: none; stroke: #000000; stroke-width: 0.8; stroke-linejoin: miter; stroke-linecap: square"/>
   </g>
   <g id="text_14">
    <!-- Fast Flux -->
    <g transform="translate(191.773438 16.318125) scale(0.12 -0.12)">
     <defs>
      <path id="DejaVuSans-46" d="M 628 4666 
L 3309 4666 
L 3309 4134 
L 1259 4134 
L 1259 2759 
L 3109 2759 
L 3109 2228 
L 1259 2228 
L 1259 0 
L 628 0 
L 628 4666 
z
" transform="scale(0.015625)"/>
      <path id="DejaVuSans-61" d="M 2194 1759 
Q 1497 1759 1228 1600 
Q 959 1441 959 1056 
Q 959 750 1161 570 
Q 1363 391 1709 391 
Q 2188 391 2477 730 
Q 2766 1069 2766 1631 
L 2766 1759 
L 2194 1759 
z
M 3341 1997 
L 3341 0 
L 2766 0 
L 2766 531 
Q 2569 213 2275 61 
Q 1981 -91 1556 -91 
Q 1019 -91 701 211 
Q 384 513 384 1019 
Q 384 1609 779 1909 
Q 1175 2209 1959 2209 
L 2766 2209 
L 2766 2266 
Q 2766 2663 2505 2880 
Q 2244 3097 1772 3097 
Q 1472 3097 1187 3025 
Q 903 2953 641 2809 
L 641 3341 
Q 956 3463 1253 3523 
Q 1550 3584 1831 3584 
Q 2591 3584 2966 3190 
Q 3341 2797 3341 1997 
z
" transform="scale(0.015625)"/>
      <path id="DejaVuSans-73" d="M 2834 3397 
L 2834 2853 
Q 2591 2978 2328 3040 
Q 2066 3103 1784 3103 
Q 1356 3103 1142 2972 
Q 928 2841 928 2578 
Q 928 2378 1081 2264 
Q 1234 2150 1697 2047 
L 1894 2003 
Q 2506 1872 2764 1633 
Q 3022 1394 3022 966 
Q 3022 478 2636 193 
Q 2250 -91 1575 -91 
Q 1294 -91 989 -36 
Q 684 19 347 128 
L 347 722 
Q 666 556 975 473 
Q 1284 391 1588 391 
Q 1994 391 2212 530 
Q 2431 669 2431 922 
Q 2431 1156 2273 1281 
Q 2116 1406 1581 1522 
L 1381 1569 
Q 847 1681 609 1914 
Q 372 2147 372 2553 
Q 372 3047 722 3315 
Q 1072 3584 1716 3584 
Q 2034 3584 2315 3537 
Q 2597 3491 2834 3397 
z
" transform="scale(0.015625)"/>
      <path id="DejaVuSans-74" d="M 1172 4494 
L 1172 3500 
L 2356 3500 
L 2356 3053 
L 1172 3053 
L 1172 1153 
Q 1172 725 1289 603 
Q 1406 481 1766 481 
L 2356 481 
L 2356 0 
L 1766 0 
Q 1100 0 847 248 
Q 594 497 594 1153 
L 594 3053 
L 172 3053 
L 172 3500 
L 594 3500 
L 594 4494 
L 1172 4494 
z
" transform="scale(0.015625)"/>
      <path id="DejaVuSans-20" transform="scale(0.015625)"/>
      <path id="DejaVuSans-6c" d="M 603 4863 
L 1178 4863 
L 1178 0 
L 603 0 
L 603 4863 
z
" transform="scale(0.015625)"/>
      <path id="DejaVuSans-75" d="M 544 1381 
L 544 3500 
L 1119 3500 
L 1119 1403 
Q 1119 906 1312 657 
Q 1506 409 1894 409 
Q 2359 409 2629 706 
Q 2900 1003 2900 1516 
L 2900 3500 
L 3475 3500 
L 3475 0 
L 2900 0 
L 2900 538 
Q 2691 219 2414 64 
Q 2138 -91 1772 -91 
Q 1169 -91 856 284 
Q 544 659 544 1381 
z
M 1991 3584 
L 1991 3584 
z
" transform="scale(0.015625)"/>
      <path id="DejaVuSans-78" d="M 3513 3500 
L 2247 1797 
L 3578 0 
L 2900 0 
L 1881 1375 
L 863 0 
L 184 0 
L 1544 1831 
L 300 3500 
L 978 3500 
L 1906 2253 
L 2834 3500 
L 3513 3500 
z
" transform="scale(0.015625)"/>
     </defs>
     <use xlink:href="#DejaVuSans-46"/>
     <use xlink:href="#DejaVuSans-61" x="48.394531"/>
     <use xlink:href="#DejaVuSans-73" x="109.673828"/>
     <use xlink:href="#DejaVuSans-74" x="161.773438"/>
     <use xlink:href="#DejaVuSans-20" x="200.982422"/>
     <use xlink:href="#DejaVuSans-46" x="232.769531"/>
     <use xlink:href="#DejaVuSans-6c" x="290.289062"/>
     <use xlink:href="#DejaVuSans-75" x="318.072266"/>
     <use xlink:href="#DejaVuSans-78" x="381.451172"/>
    </g>
   </g>
  </g>
 </g>
 <defs>
  <clipPath id="pb87faacc0f">
   <rect x="39.65" y="22.318125" width="357.12" height="266.112"/>
  </clipPath>
 </defs>
</svg>
