<?xml version="1.0" encoding="utf-8" standalone="no"?>
<!DOCTYPE svg PUBLIC "-//W3C//DTD SVG 1.1//EN"
  "http://www.w3.org/Graphics/SVG/1.1/DTD/svg11.dtd">
<svg xmlns:xlink="http://www.w3.org/1999/xlink" width="401.453036pt" height="312.30825pt" viewBox="0 0 401.453036 312.30825" xmlns="http://www.w3.org/2000/svg" version="1.1">
 <metadata>
  <rdf:RDF xmlns:dc="http://purl.org/dc/elements/1.1/" xmlns:cc="http://creativecommons.org/ns#" xmlns:rdf="http://www.w3.org/1999/02/22-rdf-syntax-ns#">
   <cc:Work>
    <dc:type rdf:resource="http://purl.org/dc/dcmitype/StillImage"/>
    <dc:date>2024-03-16T16:52:32.722019</dc:date>
    <dc:format>image/svg+xml</dc:format>
    <dc:creator>
     <cc:Agent>
      <dc:title>Matplotlib v3.8.3, https://matplotlib.org/</dc:title>
     </cc:Agent>
    </dc:creator>
   </cc:Work>
  </rdf:RDF>
 </metadata>
 <defs>
  <style type="text/css">*{stroke-linejoin: round; stroke-linecap: butt}</style>
 </defs>
 <g id="figure_1">
  <g id="patch_1">
   <path d="M 0 312.30825 
L 401.453036 312.30825 
L 401.453036 0 
L 0 0 
z
" style="fill: #ffffff"/>
  </g>
  <g id="axes_1">
   <g id="patch_2">
    <path d="M 33.2875 288.430125 
L 390.4075 288.430125 
L 390.4075 22.318125 
L 33.2875 22.318125 
z
" style="fill: #ffffff"/>
   </g>
   <g id="matplotlib.axis_1">
    <g id="xtick_1">
     <g id="line2d_1">
      <defs>
       <path id="m44cc909871" d="M 0 0 
L 0 3.5 
" style="stroke: #000000; stroke-width: 0.8"/>
      </defs>
      <g>
       <use xlink:href="#m44cc909871" x="49.520227" y="288.430125" style="stroke: #000000; stroke-width: 0.8"/>
      </g>
     </g>
     <g id="text_1">
      <!-- 0 -->
      <g transform="translate(46.338977 303.028562) scale(0.1 -0.1)">
       <defs>
        <path id="DejaVuSans-30" d="M 2034 4250 
Q 1547 4250 1301 3770 
Q 1056 3291 1056 2328 
Q 1056 1369 1301 889 
Q 1547 409 2034 409 
Q 2525 409 2770 889 
Q 3016 1369 3016 2328 
Q 3016 3291 2770 3770 
Q 2525 4250 2034 4250 
z
M 2034 4750 
Q 2819 4750 3233 4129 
Q 3647 3509 3647 2328 
Q 3647 1150 3233 529 
Q 2819 -91 2034 -91 
Q 1250 -91 836 529 
Q 422 1150 422 2328 
Q 422 3509 836 4129 
Q 1250 4750 2034 4750 
z
" transform="scale(0.015625)"/>
       </defs>
       <use xlink:href="#DejaVuSans-30"/>
      </g>
     </g>
    </g>
    <g id="xtick_2">
     <g id="line2d_2">
      <g>
       <use xlink:href="#m44cc909871" x="97.404379" y="288.430125" style="stroke: #000000; stroke-width: 0.8"/>
      </g>
     </g>
     <g id="text_2">
      <!-- 50 -->
      <g transform="translate(91.041879 303.028562) scale(0.1 -0.1)">
       <defs>
        <path id="DejaVuSans-35" d="M 691 4666 
L 3169 4666 
L 3169 4134 
L 1269 4134 
L 1269 2991 
Q 1406 3038 1543 3061 
Q 1681 3084 1819 3084 
Q 2600 3084 3056 2656 
Q 3513 2228 3513 1497 
Q 3513 744 3044 326 
Q 2575 -91 1722 -91 
Q 1428 -91 1123 -41 
Q 819 9 494 109 
L 494 744 
Q 775 591 1075 516 
Q 1375 441 1709 441 
Q 2250 441 2565 725 
Q 2881 1009 2881 1497 
Q 2881 1984 2565 2268 
Q 2250 2553 1709 2553 
Q 1456 2553 1204 2497 
Q 953 2441 691 2322 
L 691 4666 
z
" transform="scale(0.015625)"/>
       </defs>
       <use xlink:href="#DejaVuSans-35"/>
       <use xlink:href="#DejaVuSans-30" x="63.623047"/>
      </g>
     </g>
    </g>
    <g id="xtick_3">
     <g id="line2d_3">
      <g>
       <use xlink:href="#m44cc909871" x="145.28853" y="288.430125" style="stroke: #000000; stroke-width: 0.8"/>
      </g>
     </g>
     <g id="text_3">
      <!-- 100 -->
      <g transform="translate(135.74478 303.028562) scale(0.1 -0.1)">
       <defs>
        <path id="DejaVuSans-31" d="M 794 531 
L 1825 531 
L 1825 4091 
L 703 3866 
L 703 4441 
L 1819 4666 
L 2450 4666 
L 2450 531 
L 3481 531 
L 3481 0 
L 794 0 
L 794 531 
z
" transform="scale(0.015625)"/>
       </defs>
       <use xlink:href="#DejaVuSans-31"/>
       <use xlink:href="#DejaVuSans-30" x="63.623047"/>
       <use xlink:href="#DejaVuSans-30" x="127.246094"/>
      </g>
     </g>
    </g>
    <g id="xtick_4">
     <g id="line2d_4">
      <g>
       <use xlink:href="#m44cc909871" x="193.172681" y="288.430125" style="stroke: #000000; stroke-width: 0.8"/>
      </g>
     </g>
     <g id="text_4">
      <!-- 150 -->
      <g transform="translate(183.628931 303.028562) scale(0.1 -0.1)">
       <use xlink:href="#DejaVuSans-31"/>
       <use xlink:href="#DejaVuSans-35" x="63.623047"/>
       <use xlink:href="#DejaVuSans-30" x="127.246094"/>
      </g>
     </g>
    </g>
    <g id="xtick_5">
     <g id="line2d_5">
      <g>
       <use xlink:href="#m44cc909871" x="241.056832" y="288.430125" style="stroke: #000000; stroke-width: 0.8"/>
      </g>
     </g>
     <g id="text_5">
      <!-- 200 -->
      <g transform="translate(231.513082 303.028562) scale(0.1 -0.1)">
       <defs>
        <path id="DejaVuSans-32" d="M 1228 531 
L 3431 531 
L 3431 0 
L 469 0 
L 469 531 
Q 828 903 1448 1529 
Q 2069 2156 2228 2338 
Q 2531 2678 2651 2914 
Q 2772 3150 2772 3378 
Q 2772 3750 2511 3984 
Q 2250 4219 1831 4219 
Q 1534 4219 1204 4116 
Q 875 4013 500 3803 
L 500 4441 
Q 881 4594 1212 4672 
Q 1544 4750 1819 4750 
Q 2544 4750 2975 4387 
Q 3406 4025 3406 3419 
Q 3406 3131 3298 2873 
Q 3191 2616 2906 2266 
Q 2828 2175 2409 1742 
Q 1991 1309 1228 531 
z
" transform="scale(0.015625)"/>
       </defs>
       <use xlink:href="#DejaVuSans-32"/>
       <use xlink:href="#DejaVuSans-30" x="63.623047"/>
       <use xlink:href="#DejaVuSans-30" x="127.246094"/>
      </g>
     </g>
    </g>
    <g id="xtick_6">
     <g id="line2d_6">
      <g>
       <use xlink:href="#m44cc909871" x="288.940984" y="288.430125" style="stroke: #000000; stroke-width: 0.8"/>
      </g>
     </g>
     <g id="text_6">
      <!-- 250 -->
      <g transform="translate(279.397234 303.028562) scale(0.1 -0.1)">
       <use xlink:href="#DejaVuSans-32"/>
       <use xlink:href="#DejaVuSans-35" x="63.623047"/>
       <use xlink:href="#DejaVuSans-30" x="127.246094"/>
      </g>
     </g>
    </g>
    <g id="xtick_7">
     <g id="line2d_7">
      <g>
       <use xlink:href="#m44cc909871" x="336.825135" y="288.430125" style="stroke: #000000; stroke-width: 0.8"/>
      </g>
     </g>
     <g id="text_7">
      <!-- 300 -->
      <g transform="translate(327.281385 303.028562) scale(0.1 -0.1)">
       <defs>
        <path id="DejaVuSans-33" d="M 2597 2516 
Q 3050 2419 3304 2112 
Q 3559 1806 3559 1356 
Q 3559 666 3084 287 
Q 2609 -91 1734 -91 
Q 1441 -91 1130 -33 
Q 819 25 488 141 
L 488 750 
Q 750 597 1062 519 
Q 1375 441 1716 441 
Q 2309 441 2620 675 
Q 2931 909 2931 1356 
Q 2931 1769 2642 2001 
Q 2353 2234 1838 2234 
L 1294 2234 
L 1294 2753 
L 1863 2753 
Q 2328 2753 2575 2939 
Q 2822 3125 2822 3475 
Q 2822 3834 2567 4026 
Q 2313 4219 1838 4219 
Q 1578 4219 1281 4162 
Q 984 4106 628 3988 
L 628 4550 
Q 988 4650 1302 4700 
Q 1616 4750 1894 4750 
Q 2613 4750 3031 4423 
Q 3450 4097 3450 3541 
Q 3450 3153 3228 2886 
Q 3006 2619 2597 2516 
z
" transform="scale(0.015625)"/>
       </defs>
       <use xlink:href="#DejaVuSans-33"/>
       <use xlink:href="#DejaVuSans-30" x="63.623047"/>
       <use xlink:href="#DejaVuSans-30" x="127.246094"/>
      </g>
     </g>
    </g>
    <g id="xtick_8">
     <g id="line2d_8">
      <g>
       <use xlink:href="#m44cc909871" x="384.709286" y="288.430125" style="stroke: #000000; stroke-width: 0.8"/>
      </g>
     </g>
     <g id="text_8">
      <!-- 350 -->
      <g transform="translate(375.165536 303.028562) scale(0.1 -0.1)">
       <use xlink:href="#DejaVuSans-33"/>
       <use xlink:href="#DejaVuSans-35" x="63.623047"/>
       <use xlink:href="#DejaVuSans-30" x="127.246094"/>
      </g>
     </g>
    </g>
   </g>
   <g id="matplotlib.axis_2">
    <g id="ytick_1">
     <g id="line2d_9">
      <defs>
       <path id="medc51e258f" d="M 0 0 
L -3.5 0 
" style="stroke: #000000; stroke-width: 0.8"/>
      </defs>
      <g>
       <use xlink:href="#medc51e258f" x="33.2875" y="245.909634" style="stroke: #000000; stroke-width: 0.8"/>
      </g>
     </g>
     <g id="text_9">
      <!-- 250 -->
      <g transform="translate(7.2 249.708852) scale(0.1 -0.1)">
       <use xlink:href="#DejaVuSans-32"/>
       <use xlink:href="#DejaVuSans-35" x="63.623047"/>
       <use xlink:href="#DejaVuSans-30" x="127.246094"/>
      </g>
     </g>
    </g>
    <g id="ytick_2">
     <g id="line2d_10">
      <g>
       <use xlink:href="#medc51e258f" x="33.2875" y="203.130733" style="stroke: #000000; stroke-width: 0.8"/>
      </g>
     </g>
     <g id="text_10">
      <!-- 252 -->
      <g transform="translate(7.2 206.929952) scale(0.1 -0.1)">
       <use xlink:href="#DejaVuSans-32"/>
       <use xlink:href="#DejaVuSans-35" x="63.623047"/>
       <use xlink:href="#DejaVuSans-32" x="127.246094"/>
      </g>
     </g>
    </g>
    <g id="ytick_3">
     <g id="line2d_11">
      <g>
       <use xlink:href="#medc51e258f" x="33.2875" y="160.351832" style="stroke: #000000; stroke-width: 0.8"/>
      </g>
     </g>
     <g id="text_11">
      <!-- 254 -->
      <g transform="translate(7.2 164.151051) scale(0.1 -0.1)">
       <defs>
        <path id="DejaVuSans-34" d="M 2419 4116 
L 825 1625 
L 2419 1625 
L 2419 4116 
z
M 2253 4666 
L 3047 4666 
L 3047 1625 
L 3713 1625 
L 3713 1100 
L 3047 1100 
L 3047 0 
L 2419 0 
L 2419 1100 
L 313 1100 
L 313 1709 
L 2253 4666 
z
" transform="scale(0.015625)"/>
       </defs>
       <use xlink:href="#DejaVuSans-32"/>
       <use xlink:href="#DejaVuSans-35" x="63.623047"/>
       <use xlink:href="#DejaVuSans-34" x="127.246094"/>
      </g>
     </g>
    </g>
    <g id="ytick_4">
     <g id="line2d_12">
      <g>
       <use xlink:href="#medc51e258f" x="33.2875" y="117.572932" style="stroke: #000000; stroke-width: 0.8"/>
      </g>
     </g>
     <g id="text_12">
      <!-- 256 -->
      <g transform="translate(7.2 121.372151) scale(0.1 -0.1)">
       <defs>
        <path id="DejaVuSans-36" d="M 2113 2584 
Q 1688 2584 1439 2293 
Q 1191 2003 1191 1497 
Q 1191 994 1439 701 
Q 1688 409 2113 409 
Q 2538 409 2786 701 
Q 3034 994 3034 1497 
Q 3034 2003 2786 2293 
Q 2538 2584 2113 2584 
z
M 3366 4563 
L 3366 3988 
Q 3128 4100 2886 4159 
Q 2644 4219 2406 4219 
Q 1781 4219 1451 3797 
Q 1122 3375 1075 2522 
Q 1259 2794 1537 2939 
Q 1816 3084 2150 3084 
Q 2853 3084 3261 2657 
Q 3669 2231 3669 1497 
Q 3669 778 3244 343 
Q 2819 -91 2113 -91 
Q 1303 -91 875 529 
Q 447 1150 447 2328 
Q 447 3434 972 4092 
Q 1497 4750 2381 4750 
Q 2619 4750 2861 4703 
Q 3103 4656 3366 4563 
z
" transform="scale(0.015625)"/>
       </defs>
       <use xlink:href="#DejaVuSans-32"/>
       <use xlink:href="#DejaVuSans-35" x="63.623047"/>
       <use xlink:href="#DejaVuSans-36" x="127.246094"/>
      </g>
     </g>
    </g>
    <g id="ytick_5">
     <g id="line2d_13">
      <g>
       <use xlink:href="#medc51e258f" x="33.2875" y="74.794031" style="stroke: #000000; stroke-width: 0.8"/>
      </g>
     </g>
     <g id="text_13">
      <!-- 258 -->
      <g transform="translate(7.2 78.59325) scale(0.1 -0.1)">
       <defs>
        <path id="DejaVuSans-38" d="M 2034 2216 
Q 1584 2216 1326 1975 
Q 1069 1734 1069 1313 
Q 1069 891 1326 650 
Q 1584 409 2034 409 
Q 2484 409 2743 651 
Q 3003 894 3003 1313 
Q 3003 1734 2745 1975 
Q 2488 2216 2034 2216 
z
M 1403 2484 
Q 997 2584 770 2862 
Q 544 3141 544 3541 
Q 544 4100 942 4425 
Q 1341 4750 2034 4750 
Q 2731 4750 3128 4425 
Q 3525 4100 3525 3541 
Q 3525 3141 3298 2862 
Q 3072 2584 2669 2484 
Q 3125 2378 3379 2068 
Q 3634 1759 3634 1313 
Q 3634 634 3220 271 
Q 2806 -91 2034 -91 
Q 1263 -91 848 271 
Q 434 634 434 1313 
Q 434 1759 690 2068 
Q 947 2378 1403 2484 
z
M 1172 3481 
Q 1172 3119 1398 2916 
Q 1625 2713 2034 2713 
Q 2441 2713 2670 2916 
Q 2900 3119 2900 3481 
Q 2900 3844 2670 4047 
Q 2441 4250 2034 4250 
Q 1625 4250 1398 4047 
Q 1172 3844 1172 3481 
z
" transform="scale(0.015625)"/>
       </defs>
       <use xlink:href="#DejaVuSans-32"/>
       <use xlink:href="#DejaVuSans-35" x="63.623047"/>
       <use xlink:href="#DejaVuSans-38" x="127.246094"/>
      </g>
     </g>
    </g>
    <g id="ytick_6">
     <g id="line2d_14">
      <g>
       <use xlink:href="#medc51e258f" x="33.2875" y="32.015131" style="stroke: #000000; stroke-width: 0.8"/>
      </g>
     </g>
     <g id="text_14">
      <!-- 260 -->
      <g transform="translate(7.2 35.814349) scale(0.1 -0.1)">
       <use xlink:href="#DejaVuSans-32"/>
       <use xlink:href="#DejaVuSans-36" x="63.623047"/>
       <use xlink:href="#DejaVuSans-30" x="127.246094"/>
      </g>
     </g>
    </g>
   </g>
   <g id="line2d_15">
    <path d="M 49.520227 268.303945 
L 50.47791 234.676969 
L 51.435593 53.818274 
L 52.393276 60.442514 
L 53.350959 40.578104 
L 54.308642 39.528771 
L 56.224008 46.727583 
L 57.181691 227.768368 
L 58.139374 255.937135 
L 59.097058 255.510632 
L 60.054741 241.233815 
L 61.012424 55.087853 
L 61.970107 59.058984 
L 62.92779 48.13527 
L 63.885473 44.692625 
L 64.843156 57.501368 
L 65.800839 66.152204 
L 66.758522 238.424594 
L 67.716205 256.787224 
L 68.673888 262.120403 
L 69.631571 240.590552 
L 70.589254 58.618478 
L 71.546937 57.158021 
L 72.50462 42.222916 
L 73.462303 40.572371 
L 74.419986 51.741208 
L 75.377669 54.680988 
L 76.335352 233.166826 
L 77.293035 261.122486 
L 78.250718 258.59838 
L 79.208401 231.564271 
L 80.166084 60.437346 
L 82.08145 44.012667 
L 83.039133 42.581356 
L 83.996816 52.68272 
L 84.954499 45.694056 
L 85.912182 231.75287 
L 86.869865 262.854799 
L 87.827548 260.768798 
L 88.785231 237.882845 
L 89.742914 63.99585 
L 90.700597 62.299843 
L 91.65828 49.325747 
L 92.615963 40.391266 
L 93.573646 57.961683 
L 94.531329 64.055516 
L 95.489012 244.158456 
L 96.446695 265.76046 
L 97.404379 268.9507 
L 98.362062 242.770679 
L 99.319745 61.544872 
L 100.277428 59.449494 
L 101.235111 50.033486 
L 102.192794 44.183769 
L 103.150477 54.21821 
L 104.10816 56.072232 
L 105.065843 242.998715 
L 106.023526 265.251305 
L 106.981209 268.147194 
L 107.938892 248.505914 
L 108.896575 62.180646 
L 109.854258 58.962429 
L 110.811941 47.645582 
L 111.769624 53.146364 
L 112.727307 65.519486 
L 113.68499 71.079124 
L 114.642673 252.820843 
L 115.600356 275.409153 
L 116.558039 267.66159 
L 117.515722 241.032799 
L 118.473405 67.928031 
L 119.431088 61.051282 
L 120.388771 36.839172 
L 121.346454 41.99491 
L 123.26182 62.676691 
L 124.219503 245.017628 
L 125.177186 264.464923 
L 126.134869 266.624344 
L 127.092552 240.156555 
L 128.050235 63.069858 
L 129.007918 61.947659 
L 129.965601 53.798762 
L 130.923284 53.361864 
L 131.880967 68.238355 
L 132.83865 65.244175 
L 133.796333 239.323385 
L 134.754016 266.872714 
L 135.7117 266.492803 
L 136.669383 239.533084 
L 137.627066 54.812556 
L 138.584749 44.215358 
L 139.542432 38.215054 
L 140.500115 42.928556 
L 141.457798 53.037472 
L 142.415481 54.926962 
L 143.373164 236.712972 
L 144.330847 263.922436 
L 145.28853 258.125819 
L 146.246213 242.570443 
L 147.203896 67.447661 
L 149.119262 50.383659 
L 150.076945 50.051953 
L 151.034628 60.616694 
L 151.992311 69.526623 
L 152.949994 235.953543 
L 153.907677 265.871733 
L 154.86536 262.788752 
L 155.823043 233.732051 
L 156.780726 55.253121 
L 157.738409 61.763602 
L 158.696092 41.228827 
L 159.653775 48.271881 
L 160.611458 51.063336 
L 161.569141 48.325487 
L 162.526824 236.740696 
L 163.484507 263.795393 
L 164.44219 268.121214 
L 165.399873 238.873105 
L 166.357556 60.504136 
L 167.315239 52.835682 
L 168.272922 41.231352 
L 169.230605 46.029809 
L 170.188288 52.126358 
L 171.145971 68.613549 
L 172.103654 236.698765 
L 173.061337 267.601301 
L 174.019021 266.153355 
L 174.976704 236.789793 
L 175.934387 55.07342 
L 176.89207 58.614849 
L 177.849753 45.65196 
L 178.807436 46.68274 
L 179.765119 51.456031 
L 180.722802 66.544955 
L 181.680485 242.628253 
L 182.638168 266.32451 
L 183.595851 274.48542 
L 184.553534 251.998534 
L 185.511217 74.440032 
L 187.426583 46.58763 
L 188.384266 52.753093 
L 189.341949 64.8207 
L 190.299632 62.796716 
L 191.257315 248.833021 
L 192.214998 269.44707 
L 193.172681 257.509965 
L 194.130364 229.939142 
L 195.088047 53.4839 
L 196.04573 52.357339 
L 197.003413 38.363704 
L 197.961096 41.297626 
L 198.918779 52.387668 
L 199.876462 57.12032 
L 200.834145 238.396729 
L 201.791828 256.407515 
L 202.749511 265.355186 
L 203.707194 237.071144 
L 204.664877 53.56613 
L 205.62256 58.189099 
L 206.580243 42.516161 
L 207.537926 38.930872 
L 208.495609 56.552763 
L 209.453292 65.8225 
L 210.410975 240.14431 
L 211.368658 266.35567 
L 212.326342 263.581472 
L 213.284025 233.766824 
L 214.241708 57.500214 
L 215.199391 52.923634 
L 216.157074 41.943363 
L 217.114757 34.63315 
L 218.07244 52.615723 
L 219.030123 52.253335 
L 219.987806 241.406625 
L 220.945489 265.177535 
L 221.903172 271.022725 
L 222.860855 239.663219 
L 223.818538 67.878864 
L 224.776221 65.87462 
L 225.733904 53.272348 
L 226.691587 48.312028 
L 227.64927 55.400518 
L 228.606953 60.429951 
L 229.564636 238.746272 
L 230.522319 265.333862 
L 231.480002 264.097726 
L 232.437685 241.298698 
L 233.395368 58.850926 
L 234.353051 49.070906 
L 235.310734 36.022595 
L 236.268417 37.943505 
L 237.2261 49.859353 
L 238.183783 68.009971 
L 239.141466 248.804093 
L 240.099149 270.785809 
L 241.056832 268.274819 
L 242.014515 244.757555 
L 242.972198 61.198346 
L 243.929881 58.332356 
L 244.887564 50.146338 
L 245.845247 47.529621 
L 246.80293 54.132179 
L 247.760613 63.38606 
L 248.718296 242.300319 
L 249.675979 265.253598 
L 250.633663 257.053805 
L 251.591346 235.395698 
L 252.549029 50.789813 
L 253.506712 55.657597 
L 254.464395 36.836457 
L 255.422078 37.621635 
L 256.379761 51.935816 
L 257.337444 60.145629 
L 258.295127 240.901929 
L 259.25281 259.452774 
L 260.210493 269.432533 
L 261.168176 244.497107 
L 262.125859 63.094286 
L 263.083542 65.01662 
L 264.041225 50.957509 
L 264.998908 49.855839 
L 265.956591 60.694204 
L 266.914274 55.631771 
L 267.871957 241.737206 
L 268.82964 270.15477 
L 269.787323 269.967192 
L 270.745006 243.981593 
L 271.702689 54.350074 
L 272.660372 50.997987 
L 273.618055 38.950617 
L 274.575738 40.487795 
L 275.533421 49.676447 
L 276.491104 60.006922 
L 277.448787 241.409661 
L 278.40647 262.954983 
L 279.364153 255.522556 
L 280.321836 240.26714 
L 281.279519 58.400748 
L 282.237202 50.888301 
L 283.194885 44.304266 
L 284.152568 49.071328 
L 285.110251 60.38242 
L 286.067934 54.734857 
L 287.025617 235.901172 
L 287.9833 265.513163 
L 288.940984 261.998923 
L 289.898667 235.526397 
L 290.85635 60.888199 
L 291.814033 51.637805 
L 292.771716 47.461691 
L 293.729399 47.416568 
L 294.687082 55.426125 
L 295.644765 62.194664 
L 296.602448 238.599037 
L 297.560131 267.500306 
L 298.517814 268.528344 
L 299.475497 242.593207 
L 300.43318 65.350035 
L 301.390863 69.622373 
L 302.348546 56.836269 
L 303.306229 45.811948 
L 304.263912 63.769504 
L 305.221595 66.782822 
L 306.179278 247.486322 
L 307.136961 267.521942 
L 308.094644 270.255501 
L 309.052327 243.414224 
L 310.01001 60.901551 
L 310.967693 53.725547 
L 311.925376 45.109934 
L 312.883059 51.086904 
L 313.840742 56.135521 
L 314.798425 58.948716 
L 315.756108 240.146117 
L 316.713791 270.918983 
L 317.671474 273.688971 
L 318.629157 243.251997 
L 319.58684 57.702522 
L 320.544523 65.919326 
L 321.502206 50.550075 
L 322.459889 44.336101 
L 323.417572 57.839054 
L 324.375255 56.156956 
L 325.332938 237.543555 
L 326.290621 267.586523 
L 327.248305 266.851624 
L 328.205988 244.540431 
L 329.163671 64.649344 
L 330.121354 71.683168 
L 331.079037 52.658274 
L 332.03672 52.183415 
L 332.994403 58.087022 
L 333.952086 62.706622 
L 334.909769 244.173981 
L 335.867452 276.334125 
L 336.825135 270.408118 
L 337.782818 253.04678 
L 338.740501 69.785077 
L 339.698184 60.115197 
L 340.655867 46.505612 
L 341.61355 53.074109 
L 342.571233 69.775335 
L 343.528916 68.670743 
L 344.486599 244.513756 
L 345.444282 270.020271 
L 346.401965 268.318987 
L 347.359648 245.758626 
L 348.317331 62.264978 
L 349.275014 68.937716 
L 350.232697 50.543163 
L 351.19038 47.987846 
L 352.148063 65.014065 
L 353.105746 68.475579 
L 354.063429 244.369716 
L 355.021112 272.848557 
L 355.978795 267.712172 
L 356.936478 236.320399 
L 357.894161 54.836334 
L 358.851844 59.339822 
L 359.809527 49.757958 
L 360.76721 45.1356 
L 361.724893 59.799038 
L 362.682576 59.469165 
L 363.640259 234.041579 
L 364.597942 260.040889 
L 365.555626 260.688566 
L 366.513309 236.46112 
L 367.470992 56.614284 
L 368.428675 53.260132 
L 369.386358 34.414125 
L 371.301724 53.337584 
L 372.259407 48.969466 
L 373.21709 235.663802 
L 374.174773 256.741243 
L 374.174773 256.741243 
" clip-path="url(#p7cd0e2a7ec)" style="fill: none; stroke: #1f77b4; stroke-width: 1.5; stroke-linecap: square"/>
   </g>
   <g id="patch_3">
    <path d="M 33.2875 288.430125 
L 33.2875 22.318125 
" style="fill: none; stroke: #000000; stroke-width: 0.8; stroke-linejoin: miter; stroke-linecap: square"/>
   </g>
   <g id="patch_4">
    <path d="M 390.4075 288.430125 
L 390.4075 22.318125 
" style="fill: none; stroke: #000000; stroke-width: 0.8; stroke-linejoin: miter; stroke-linecap: square"/>
   </g>
   <g id="patch_5">
    <path d="M 33.2875 288.430125 
L 390.4075 288.430125 
" style="fill: none; stroke: #000000; stroke-width: 0.8; stroke-linejoin: miter; stroke-linecap: square"/>
   </g>
   <g id="patch_6">
    <path d="M 33.2875 22.318125 
L 390.4075 22.318125 
" style="fill: none; stroke: #000000; stroke-width: 0.8; stroke-linejoin: miter; stroke-linecap: square"/>
   </g>
   <g id="text_15">
    <!-- Fast Flux -->
    <g transform="translate(185.410938 16.318125) scale(0.12 -0.12)">
     <defs>
      <path id="DejaVuSans-46" d="M 628 4666 
L 3309 4666 
L 3309 4134 
L 1259 4134 
L 1259 2759 
L 3109 2759 
L 3109 2228 
L 1259 2228 
L 1259 0 
L 628 0 
L 628 4666 
z
" transform="scale(0.015625)"/>
      <path id="DejaVuSans-61" d="M 2194 1759 
Q 1497 1759 1228 1600 
Q 959 1441 959 1056 
Q 959 750 1161 570 
Q 1363 391 1709 391 
Q 2188 391 2477 730 
Q 2766 1069 2766 1631 
L 2766 1759 
L 2194 1759 
z
M 3341 1997 
L 3341 0 
L 2766 0 
L 2766 531 
Q 2569 213 2275 61 
Q 1981 -91 1556 -91 
Q 1019 -91 701 211 
Q 384 513 384 1019 
Q 384 1609 779 1909 
Q 1175 2209 1959 2209 
L 2766 2209 
L 2766 2266 
Q 2766 2663 2505 2880 
Q 2244 3097 1772 3097 
Q 1472 3097 1187 3025 
Q 903 2953 641 2809 
L 641 3341 
Q 956 3463 1253 3523 
Q 1550 3584 1831 3584 
Q 2591 3584 2966 3190 
Q 3341 2797 3341 1997 
z
" transform="scale(0.015625)"/>
      <path id="DejaVuSans-73" d="M 2834 3397 
L 2834 2853 
Q 2591 2978 2328 3040 
Q 2066 3103 1784 3103 
Q 1356 3103 1142 2972 
Q 928 2841 928 2578 
Q 928 2378 1081 2264 
Q 1234 2150 1697 2047 
L 1894 2003 
Q 2506 1872 2764 1633 
Q 3022 1394 3022 966 
Q 3022 478 2636 193 
Q 2250 -91 1575 -91 
Q 1294 -91 989 -36 
Q 684 19 347 128 
L 347 722 
Q 666 556 975 473 
Q 1284 391 1588 391 
Q 1994 391 2212 530 
Q 2431 669 2431 922 
Q 2431 1156 2273 1281 
Q 2116 1406 1581 1522 
L 1381 1569 
Q 847 1681 609 1914 
Q 372 2147 372 2553 
Q 372 3047 722 3315 
Q 1072 3584 1716 3584 
Q 2034 3584 2315 3537 
Q 2597 3491 2834 3397 
z
" transform="scale(0.015625)"/>
      <path id="DejaVuSans-74" d="M 1172 4494 
L 1172 3500 
L 2356 3500 
L 2356 3053 
L 1172 3053 
L 1172 1153 
Q 1172 725 1289 603 
Q 1406 481 1766 481 
L 2356 481 
L 2356 0 
L 1766 0 
Q 1100 0 847 248 
Q 594 497 594 1153 
L 594 3053 
L 172 3053 
L 172 3500 
L 594 3500 
L 594 4494 
L 1172 4494 
z
" transform="scale(0.015625)"/>
      <path id="DejaVuSans-20" transform="scale(0.015625)"/>
      <path id="DejaVuSans-6c" d="M 603 4863 
L 1178 4863 
L 1178 0 
L 603 0 
L 603 4863 
z
" transform="scale(0.015625)"/>
      <path id="DejaVuSans-75" d="M 544 1381 
L 544 3500 
L 1119 3500 
L 1119 1403 
Q 1119 906 1312 657 
Q 1506 409 1894 409 
Q 2359 409 2629 706 
Q 2900 1003 2900 1516 
L 2900 3500 
L 3475 3500 
L 3475 0 
L 2900 0 
L 2900 538 
Q 2691 219 2414 64 
Q 2138 -91 1772 -91 
Q 1169 -91 856 284 
Q 544 659 544 1381 
z
M 1991 3584 
L 1991 3584 
z
" transform="scale(0.015625)"/>
      <path id="DejaVuSans-78" d="M 3513 3500 
L 2247 1797 
L 3578 0 
L 2900 0 
L 1881 1375 
L 863 0 
L 184 0 
L 1544 1831 
L 300 3500 
L 978 3500 
L 1906 2253 
L 2834 3500 
L 3513 3500 
z
" transform="scale(0.015625)"/>
     </defs>
     <use xlink:href="#DejaVuSans-46"/>
     <use xlink:href="#DejaVuSans-61" x="48.394531"/>
     <use xlink:href="#DejaVuSans-73" x="109.673828"/>
     <use xlink:href="#DejaVuSans-74" x="161.773438"/>
     <use xlink:href="#DejaVuSans-20" x="200.982422"/>
     <use xlink:href="#DejaVuSans-46" x="232.769531"/>
     <use xlink:href="#DejaVuSans-6c" x="290.289062"/>
     <use xlink:href="#DejaVuSans-75" x="318.072266"/>
     <use xlink:href="#DejaVuSans-78" x="381.451172"/>
    </g>
   </g>
  </g>
 </g>
 <defs>
  <clipPath id="p7cd0e2a7ec">
   <rect x="33.2875" y="22.318125" width="357.12" height="266.112"/>
  </clipPath>
 </defs>
</svg>
