<?xml version="1.0" encoding="utf-8" standalone="no"?>
<!DOCTYPE svg PUBLIC "-//W3C//DTD SVG 1.1//EN"
  "http://www.w3.org/Graphics/SVG/1.1/DTD/svg11.dtd">
<svg xmlns:xlink="http://www.w3.org/1999/xlink" width="397.6075pt" height="312.30825pt" viewBox="0 0 397.6075 312.30825" xmlns="http://www.w3.org/2000/svg" version="1.1">
 <metadata>
  <rdf:RDF xmlns:dc="http://purl.org/dc/elements/1.1/" xmlns:cc="http://creativecommons.org/ns#" xmlns:rdf="http://www.w3.org/1999/02/22-rdf-syntax-ns#">
   <cc:Work>
    <dc:type rdf:resource="http://purl.org/dc/dcmitype/StillImage"/>
    <dc:date>2024-03-17T16:08:47.563397</dc:date>
    <dc:format>image/svg+xml</dc:format>
    <dc:creator>
     <cc:Agent>
      <dc:title>Matplotlib v3.8.3, https://matplotlib.org/</dc:title>
     </cc:Agent>
    </dc:creator>
   </cc:Work>
  </rdf:RDF>
 </metadata>
 <defs>
  <style type="text/css">*{stroke-linejoin: round; stroke-linecap: butt}</style>
 </defs>
 <g id="figure_1">
  <g id="patch_1">
   <path d="M 0 312.30825 
L 397.6075 312.30825 
L 397.6075 0 
L 0 0 
z
" style="fill: #ffffff"/>
  </g>
  <g id="axes_1">
   <g id="patch_2">
    <path d="M 33.2875 288.430125 
L 390.4075 288.430125 
L 390.4075 22.318125 
L 33.2875 22.318125 
z
" style="fill: #ffffff"/>
   </g>
   <g id="matplotlib.axis_1">
    <g id="xtick_1">
     <g id="line2d_1">
      <defs>
       <path id="m2b1c261c2a" d="M 0 0 
L 0 3.5 
" style="stroke: #000000; stroke-width: 0.8"/>
      </defs>
      <g>
       <use xlink:href="#m2b1c261c2a" x="33.2875" y="288.430125" style="stroke: #000000; stroke-width: 0.8"/>
      </g>
     </g>
     <g id="text_1">
      <!-- 0 -->
      <g transform="translate(30.10625 303.028562) scale(0.1 -0.1)">
       <defs>
        <path id="DejaVuSans-30" d="M 2034 4250 
Q 1547 4250 1301 3770 
Q 1056 3291 1056 2328 
Q 1056 1369 1301 889 
Q 1547 409 2034 409 
Q 2525 409 2770 889 
Q 3016 1369 3016 2328 
Q 3016 3291 2770 3770 
Q 2525 4250 2034 4250 
z
M 2034 4750 
Q 2819 4750 3233 4129 
Q 3647 3509 3647 2328 
Q 3647 1150 3233 529 
Q 2819 -91 2034 -91 
Q 1250 -91 836 529 
Q 422 1150 422 2328 
Q 422 3509 836 4129 
Q 1250 4750 2034 4750 
z
" transform="scale(0.015625)"/>
       </defs>
       <use xlink:href="#DejaVuSans-30"/>
      </g>
     </g>
    </g>
    <g id="xtick_2">
     <g id="line2d_2">
      <g>
       <use xlink:href="#m2b1c261c2a" x="74.57009" y="288.430125" style="stroke: #000000; stroke-width: 0.8"/>
      </g>
     </g>
     <g id="text_2">
      <!-- 10 -->
      <g transform="translate(68.20759 303.028562) scale(0.1 -0.1)">
       <defs>
        <path id="DejaVuSans-31" d="M 794 531 
L 1825 531 
L 1825 4091 
L 703 3866 
L 703 4441 
L 1819 4666 
L 2450 4666 
L 2450 531 
L 3481 531 
L 3481 0 
L 794 0 
L 794 531 
z
" transform="scale(0.015625)"/>
       </defs>
       <use xlink:href="#DejaVuSans-31"/>
       <use xlink:href="#DejaVuSans-30" x="63.623047"/>
      </g>
     </g>
    </g>
    <g id="xtick_3">
     <g id="line2d_3">
      <g>
       <use xlink:href="#m2b1c261c2a" x="115.85268" y="288.430125" style="stroke: #000000; stroke-width: 0.8"/>
      </g>
     </g>
     <g id="text_3">
      <!-- 20 -->
      <g transform="translate(109.49018 303.028562) scale(0.1 -0.1)">
       <defs>
        <path id="DejaVuSans-32" d="M 1228 531 
L 3431 531 
L 3431 0 
L 469 0 
L 469 531 
Q 828 903 1448 1529 
Q 2069 2156 2228 2338 
Q 2531 2678 2651 2914 
Q 2772 3150 2772 3378 
Q 2772 3750 2511 3984 
Q 2250 4219 1831 4219 
Q 1534 4219 1204 4116 
Q 875 4013 500 3803 
L 500 4441 
Q 881 4594 1212 4672 
Q 1544 4750 1819 4750 
Q 2544 4750 2975 4387 
Q 3406 4025 3406 3419 
Q 3406 3131 3298 2873 
Q 3191 2616 2906 2266 
Q 2828 2175 2409 1742 
Q 1991 1309 1228 531 
z
" transform="scale(0.015625)"/>
       </defs>
       <use xlink:href="#DejaVuSans-32"/>
       <use xlink:href="#DejaVuSans-30" x="63.623047"/>
      </g>
     </g>
    </g>
    <g id="xtick_4">
     <g id="line2d_4">
      <g>
       <use xlink:href="#m2b1c261c2a" x="157.13527" y="288.430125" style="stroke: #000000; stroke-width: 0.8"/>
      </g>
     </g>
     <g id="text_4">
      <!-- 30 -->
      <g transform="translate(150.77277 303.028562) scale(0.1 -0.1)">
       <defs>
        <path id="DejaVuSans-33" d="M 2597 2516 
Q 3050 2419 3304 2112 
Q 3559 1806 3559 1356 
Q 3559 666 3084 287 
Q 2609 -91 1734 -91 
Q 1441 -91 1130 -33 
Q 819 25 488 141 
L 488 750 
Q 750 597 1062 519 
Q 1375 441 1716 441 
Q 2309 441 2620 675 
Q 2931 909 2931 1356 
Q 2931 1769 2642 2001 
Q 2353 2234 1838 2234 
L 1294 2234 
L 1294 2753 
L 1863 2753 
Q 2328 2753 2575 2939 
Q 2822 3125 2822 3475 
Q 2822 3834 2567 4026 
Q 2313 4219 1838 4219 
Q 1578 4219 1281 4162 
Q 984 4106 628 3988 
L 628 4550 
Q 988 4650 1302 4700 
Q 1616 4750 1894 4750 
Q 2613 4750 3031 4423 
Q 3450 4097 3450 3541 
Q 3450 3153 3228 2886 
Q 3006 2619 2597 2516 
z
" transform="scale(0.015625)"/>
       </defs>
       <use xlink:href="#DejaVuSans-33"/>
       <use xlink:href="#DejaVuSans-30" x="63.623047"/>
      </g>
     </g>
    </g>
    <g id="xtick_5">
     <g id="line2d_5">
      <g>
       <use xlink:href="#m2b1c261c2a" x="198.417861" y="288.430125" style="stroke: #000000; stroke-width: 0.8"/>
      </g>
     </g>
     <g id="text_5">
      <!-- 40 -->
      <g transform="translate(192.055361 303.028562) scale(0.1 -0.1)">
       <defs>
        <path id="DejaVuSans-34" d="M 2419 4116 
L 825 1625 
L 2419 1625 
L 2419 4116 
z
M 2253 4666 
L 3047 4666 
L 3047 1625 
L 3713 1625 
L 3713 1100 
L 3047 1100 
L 3047 0 
L 2419 0 
L 2419 1100 
L 313 1100 
L 313 1709 
L 2253 4666 
z
" transform="scale(0.015625)"/>
       </defs>
       <use xlink:href="#DejaVuSans-34"/>
       <use xlink:href="#DejaVuSans-30" x="63.623047"/>
      </g>
     </g>
    </g>
    <g id="xtick_6">
     <g id="line2d_6">
      <g>
       <use xlink:href="#m2b1c261c2a" x="239.700451" y="288.430125" style="stroke: #000000; stroke-width: 0.8"/>
      </g>
     </g>
     <g id="text_6">
      <!-- 50 -->
      <g transform="translate(233.337951 303.028562) scale(0.1 -0.1)">
       <defs>
        <path id="DejaVuSans-35" d="M 691 4666 
L 3169 4666 
L 3169 4134 
L 1269 4134 
L 1269 2991 
Q 1406 3038 1543 3061 
Q 1681 3084 1819 3084 
Q 2600 3084 3056 2656 
Q 3513 2228 3513 1497 
Q 3513 744 3044 326 
Q 2575 -91 1722 -91 
Q 1428 -91 1123 -41 
Q 819 9 494 109 
L 494 744 
Q 775 591 1075 516 
Q 1375 441 1709 441 
Q 2250 441 2565 725 
Q 2881 1009 2881 1497 
Q 2881 1984 2565 2268 
Q 2250 2553 1709 2553 
Q 1456 2553 1204 2497 
Q 953 2441 691 2322 
L 691 4666 
z
" transform="scale(0.015625)"/>
       </defs>
       <use xlink:href="#DejaVuSans-35"/>
       <use xlink:href="#DejaVuSans-30" x="63.623047"/>
      </g>
     </g>
    </g>
    <g id="xtick_7">
     <g id="line2d_7">
      <g>
       <use xlink:href="#m2b1c261c2a" x="280.983041" y="288.430125" style="stroke: #000000; stroke-width: 0.8"/>
      </g>
     </g>
     <g id="text_7">
      <!-- 60 -->
      <g transform="translate(274.620541 303.028562) scale(0.1 -0.1)">
       <defs>
        <path id="DejaVuSans-36" d="M 2113 2584 
Q 1688 2584 1439 2293 
Q 1191 2003 1191 1497 
Q 1191 994 1439 701 
Q 1688 409 2113 409 
Q 2538 409 2786 701 
Q 3034 994 3034 1497 
Q 3034 2003 2786 2293 
Q 2538 2584 2113 2584 
z
M 3366 4563 
L 3366 3988 
Q 3128 4100 2886 4159 
Q 2644 4219 2406 4219 
Q 1781 4219 1451 3797 
Q 1122 3375 1075 2522 
Q 1259 2794 1537 2939 
Q 1816 3084 2150 3084 
Q 2853 3084 3261 2657 
Q 3669 2231 3669 1497 
Q 3669 778 3244 343 
Q 2819 -91 2113 -91 
Q 1303 -91 875 529 
Q 447 1150 447 2328 
Q 447 3434 972 4092 
Q 1497 4750 2381 4750 
Q 2619 4750 2861 4703 
Q 3103 4656 3366 4563 
z
" transform="scale(0.015625)"/>
       </defs>
       <use xlink:href="#DejaVuSans-36"/>
       <use xlink:href="#DejaVuSans-30" x="63.623047"/>
      </g>
     </g>
    </g>
    <g id="xtick_8">
     <g id="line2d_8">
      <g>
       <use xlink:href="#m2b1c261c2a" x="322.265631" y="288.430125" style="stroke: #000000; stroke-width: 0.8"/>
      </g>
     </g>
     <g id="text_8">
      <!-- 70 -->
      <g transform="translate(315.903131 303.028562) scale(0.1 -0.1)">
       <defs>
        <path id="DejaVuSans-37" d="M 525 4666 
L 3525 4666 
L 3525 4397 
L 1831 0 
L 1172 0 
L 2766 4134 
L 525 4134 
L 525 4666 
z
" transform="scale(0.015625)"/>
       </defs>
       <use xlink:href="#DejaVuSans-37"/>
       <use xlink:href="#DejaVuSans-30" x="63.623047"/>
      </g>
     </g>
    </g>
    <g id="xtick_9">
     <g id="line2d_9">
      <g>
       <use xlink:href="#m2b1c261c2a" x="363.548221" y="288.430125" style="stroke: #000000; stroke-width: 0.8"/>
      </g>
     </g>
     <g id="text_9">
      <!-- 80 -->
      <g transform="translate(357.185721 303.028562) scale(0.1 -0.1)">
       <defs>
        <path id="DejaVuSans-38" d="M 2034 2216 
Q 1584 2216 1326 1975 
Q 1069 1734 1069 1313 
Q 1069 891 1326 650 
Q 1584 409 2034 409 
Q 2484 409 2743 651 
Q 3003 894 3003 1313 
Q 3003 1734 2745 1975 
Q 2488 2216 2034 2216 
z
M 1403 2484 
Q 997 2584 770 2862 
Q 544 3141 544 3541 
Q 544 4100 942 4425 
Q 1341 4750 2034 4750 
Q 2731 4750 3128 4425 
Q 3525 4100 3525 3541 
Q 3525 3141 3298 2862 
Q 3072 2584 2669 2484 
Q 3125 2378 3379 2068 
Q 3634 1759 3634 1313 
Q 3634 634 3220 271 
Q 2806 -91 2034 -91 
Q 1263 -91 848 271 
Q 434 634 434 1313 
Q 434 1759 690 2068 
Q 947 2378 1403 2484 
z
M 1172 3481 
Q 1172 3119 1398 2916 
Q 1625 2713 2034 2713 
Q 2441 2713 2670 2916 
Q 2900 3119 2900 3481 
Q 2900 3844 2670 4047 
Q 2441 4250 2034 4250 
Q 1625 4250 1398 4047 
Q 1172 3844 1172 3481 
z
" transform="scale(0.015625)"/>
       </defs>
       <use xlink:href="#DejaVuSans-38"/>
       <use xlink:href="#DejaVuSans-30" x="63.623047"/>
      </g>
     </g>
    </g>
   </g>
   <g id="matplotlib.axis_2">
    <g id="ytick_1">
     <g id="line2d_10">
      <defs>
       <path id="m89ae19f2bc" d="M 0 0 
L -3.5 0 
" style="stroke: #000000; stroke-width: 0.8"/>
      </defs>
      <g>
       <use xlink:href="#m89ae19f2bc" x="33.2875" y="255.10643" style="stroke: #000000; stroke-width: 0.8"/>
      </g>
     </g>
     <g id="text_10">
      <!-- 252 -->
      <g transform="translate(7.2 258.905649) scale(0.1 -0.1)">
       <use xlink:href="#DejaVuSans-32"/>
       <use xlink:href="#DejaVuSans-35" x="63.623047"/>
       <use xlink:href="#DejaVuSans-32" x="127.246094"/>
      </g>
     </g>
    </g>
    <g id="ytick_2">
     <g id="line2d_11">
      <g>
       <use xlink:href="#m89ae19f2bc" x="33.2875" y="202.053597" style="stroke: #000000; stroke-width: 0.8"/>
      </g>
     </g>
     <g id="text_11">
      <!-- 254 -->
      <g transform="translate(7.2 205.852815) scale(0.1 -0.1)">
       <use xlink:href="#DejaVuSans-32"/>
       <use xlink:href="#DejaVuSans-35" x="63.623047"/>
       <use xlink:href="#DejaVuSans-34" x="127.246094"/>
      </g>
     </g>
    </g>
    <g id="ytick_3">
     <g id="line2d_12">
      <g>
       <use xlink:href="#m89ae19f2bc" x="33.2875" y="149.000763" style="stroke: #000000; stroke-width: 0.8"/>
      </g>
     </g>
     <g id="text_12">
      <!-- 256 -->
      <g transform="translate(7.2 152.799981) scale(0.1 -0.1)">
       <use xlink:href="#DejaVuSans-32"/>
       <use xlink:href="#DejaVuSans-35" x="63.623047"/>
       <use xlink:href="#DejaVuSans-36" x="127.246094"/>
      </g>
     </g>
    </g>
    <g id="ytick_4">
     <g id="line2d_13">
      <g>
       <use xlink:href="#m89ae19f2bc" x="33.2875" y="95.947929" style="stroke: #000000; stroke-width: 0.8"/>
      </g>
     </g>
     <g id="text_13">
      <!-- 258 -->
      <g transform="translate(7.2 99.747147) scale(0.1 -0.1)">
       <use xlink:href="#DejaVuSans-32"/>
       <use xlink:href="#DejaVuSans-35" x="63.623047"/>
       <use xlink:href="#DejaVuSans-38" x="127.246094"/>
      </g>
     </g>
    </g>
    <g id="ytick_5">
     <g id="line2d_14">
      <g>
       <use xlink:href="#m89ae19f2bc" x="33.2875" y="42.895095" style="stroke: #000000; stroke-width: 0.8"/>
      </g>
     </g>
     <g id="text_14">
      <!-- 260 -->
      <g transform="translate(7.2 46.694313) scale(0.1 -0.1)">
       <use xlink:href="#DejaVuSans-32"/>
       <use xlink:href="#DejaVuSans-36" x="63.623047"/>
       <use xlink:href="#DejaVuSans-30" x="127.246094"/>
      </g>
     </g>
    </g>
   </g>
   <g id="line2d_15">
    <path d="M 33.2875 272.441027 
L 34.244926 218.055087 
L 35.202353 110.87169 
L 36.159779 70.511546 
L 37.117205 48.923379 
L 38.074631 45.722957 
L 39.032058 50.964387 
L 39.989484 72.177422 
L 40.94691 115.371965 
L 41.904336 219.445046 
L 42.861763 272.79196 
L 43.819189 276.334125 
L 44.776615 223.266305 
L 45.734042 117.973394 
L 46.691468 74.599289 
L 47.648894 53.712313 
L 48.60632 49.236198 
L 49.563747 54.546606 
L 50.521173 73.884942 
L 51.478599 116.657004 
L 52.436025 218.857607 
L 53.393452 273.145892 
L 54.350878 272.927461 
L 55.308304 218.582229 
L 56.265731 113.295665 
L 57.223157 71.098129 
L 58.180583 48.427983 
L 59.138009 43.767741 
L 60.095436 47.344926 
L 61.052862 69.203184 
L 62.010288 112.334916 
L 62.967714 216.776396 
L 63.925141 270.44421 
L 64.882567 271.049225 
L 65.839993 217.573411 
L 66.79742 116.468606 
L 67.754846 69.748403 
L 68.712272 49.446174 
L 69.669698 44.269477 
L 70.627125 52.777272 
L 71.584551 73.325157 
L 72.541977 112.432931 
L 73.499403 219.161395 
L 74.45683 274.529263 
L 75.414256 275.439777 
L 76.371682 218.397427 
L 77.329109 114.258954 
L 78.286535 69.830659 
L 79.243961 51.799175 
L 80.201387 45.018664 
L 81.158814 49.477102 
L 82.11624 70.495627 
L 83.073666 112.542783 
L 84.031092 216.751879 
L 84.988519 272.909024 
L 85.945945 274.566537 
L 86.903371 220.212255 
L 87.860798 117.341724 
L 88.818224 72.027698 
L 89.77565 50.67423 
L 90.733076 45.907704 
L 91.690503 52.198678 
L 92.647929 71.877714 
L 93.605355 114.162709 
L 94.562782 219.113515 
L 95.520208 270.862739 
L 96.477634 270.896261 
L 97.43506 217.96555 
L 98.392487 111.158673 
L 99.349913 69.042578 
L 100.307339 47.258096 
L 101.264765 40.260854 
L 102.222192 47.745216 
L 103.179618 67.513139 
L 104.137044 112.773672 
L 105.094471 218.611682 
L 106.051897 271.735855 
L 107.009323 271.174865 
L 107.966749 215.333964 
L 108.924176 112.655408 
L 109.881602 67.031797 
L 110.839028 50.34577 
L 111.796454 41.990318 
L 112.753881 45.826669 
L 113.711307 67.397936 
L 114.668733 114.874222 
L 115.62616 220.127159 
L 116.583586 271.343117 
L 117.541012 273.066388 
L 118.498438 217.834545 
L 119.455865 114.688684 
L 120.413291 69.389208 
L 121.370717 48.846705 
L 122.328143 41.516249 
L 123.28557 47.554657 
L 124.242996 70.350815 
L 125.200422 111.139515 
L 126.157849 215.049044 
L 127.115275 268.480421 
L 128.072701 267.451086 
L 129.030127 213.095394 
L 129.987554 107.40342 
L 130.94498 63.704291 
L 131.902406 41.469619 
L 132.859832 34.414125 
L 133.817259 43.264154 
L 134.774685 65.105821 
L 135.732111 106.307339 
L 136.689538 212.357201 
L 137.646964 268.532322 
L 138.60439 267.100528 
L 139.561816 214.37873 
L 140.519243 110.645652 
L 141.476669 68.768582 
L 142.434095 46.733408 
L 143.391521 42.639817 
L 144.348948 49.314894 
L 145.306374 68.92783 
L 146.2638 112.463455 
L 147.221227 214.753349 
L 148.178653 266.900877 
L 149.136079 270.292677 
L 150.093505 216.120522 
L 151.050932 113.29068 
L 152.008358 66.295643 
L 152.965784 45.783732 
L 153.92321 39.349993 
L 154.880637 47.589836 
L 155.838063 67.801478 
L 156.795489 111.228322 
L 157.752916 216.286891 
L 158.710342 267.808677 
L 159.667768 269.587754 
L 160.625194 215.341536 
L 161.582621 110.360769 
L 162.540047 66.515548 
L 163.497473 46.30146 
L 164.454899 38.797494 
L 165.412326 45.782401 
L 166.369752 65.523942 
L 167.327178 108.208039 
L 168.284605 214.03615 
L 169.242031 269.340132 
L 170.199457 268.554532 
L 171.156883 214.815479 
L 172.11431 110.450714 
L 173.071736 65.504087 
L 174.029162 45.148421 
L 174.986588 39.69616 
L 175.944015 48.72305 
L 176.901441 68.702067 
L 177.858867 112.082053 
L 178.816294 217.016692 
L 179.77372 268.939662 
L 180.731146 269.705851 
L 181.688572 214.136242 
L 182.645999 105.486365 
L 183.603425 66.039668 
L 184.560851 45.602633 
L 185.518277 38.403613 
L 186.475704 44.568408 
L 187.43313 65.463675 
L 188.390556 112.569222 
L 189.347983 217.332641 
L 190.305409 271.580269 
L 191.262835 269.513054 
L 192.220261 218.478828 
L 193.177688 113.727831 
L 194.135114 68.629471 
L 195.09254 50.575369 
L 196.049966 43.03184 
L 197.007393 48.217191 
L 197.964819 70.099314 
L 198.922245 112.765625 
L 199.879672 215.871201 
L 200.837098 269.812515 
L 201.794524 271.23616 
L 202.75195 217.005712 
L 203.709377 114.410893 
L 204.666803 68.30521 
L 205.624229 49.634799 
L 206.581655 41.635278 
L 207.539082 49.183406 
L 208.496508 71.142136 
L 209.453934 114.053203 
L 210.411361 218.56019 
L 211.368787 274.218491 
L 212.326213 270.218156 
L 213.283639 218.783122 
L 214.241066 112.817254 
L 215.198492 69.602965 
L 216.155918 48.77349 
L 217.113345 42.124028 
L 218.070771 47.112703 
L 219.028197 71.906069 
L 219.985623 114.460658 
L 220.94305 218.638815 
L 221.900476 273.160199 
L 222.857902 272.777643 
L 223.815328 218.119283 
L 224.772755 112.987796 
L 225.730181 69.082644 
L 226.687607 48.332637 
L 227.645034 41.886237 
L 228.60246 49.306794 
L 229.559886 70.651248 
L 230.517312 112.10773 
L 231.474739 217.374385 
L 232.432165 270.408431 
L 233.389591 271.079902 
L 234.347017 216.271659 
L 235.304444 110.0499 
L 236.26187 66.658747 
L 237.219296 44.931948 
L 238.176723 41.022625 
L 239.134149 45.622382 
L 240.091575 68.335024 
L 241.049001 110.097352 
L 242.006428 214.545428 
L 242.963854 266.269011 
L 243.92128 268.713271 
L 244.878706 215.532921 
L 245.836133 108.88362 
L 246.793559 66.015875 
L 247.750985 44.485337 
L 248.708412 38.881435 
L 249.665838 46.849979 
L 250.623264 68.30213 
L 251.58069 110.333346 
L 252.538117 213.855249 
L 253.495543 269.157917 
L 254.452969 270.541331 
L 255.410395 214.310605 
L 256.367822 108.029285 
L 257.325248 62.865888 
L 258.282674 42.29048 
L 259.240101 35.4779 
L 260.197527 45.152911 
L 261.154953 66.92851 
L 262.112379 110.747111 
L 263.069806 214.768219 
L 264.027232 268.622496 
L 264.984658 268.954644 
L 265.942084 213.188986 
L 266.899511 109.68948 
L 267.856937 66.109129 
L 268.814363 42.711803 
L 269.77179 37.882731 
L 270.729216 42.237764 
L 271.686642 64.686096 
L 272.644068 109.873325 
L 273.601495 214.338551 
L 274.558921 269.382896 
L 275.516347 269.889325 
L 276.473773 216.481336 
L 277.4312 111.196977 
L 278.388626 68.408616 
L 279.346052 48.395257 
L 280.303479 41.376255 
L 281.260905 46.681429 
L 282.218331 66.957534 
L 283.175757 109.365779 
L 284.133184 213.372913 
L 285.09061 270.465055 
L 286.048036 268.963156 
L 287.005462 214.56262 
L 287.962889 108.242118 
L 288.920315 64.370013 
L 289.877741 44.100016 
L 290.835168 37.619964 
L 291.792594 44.695498 
L 292.75002 66.398321 
L 293.707446 109.29455 
L 294.664873 214.816579 
L 295.622299 268.791923 
L 296.579725 268.574061 
L 297.537151 215.649571 
L 298.494578 110.904954 
L 299.452004 67.438443 
L 300.40943 46.448855 
L 301.366857 39.839865 
L 302.324283 45.925591 
L 303.281709 67.118023 
L 304.239135 110.288337 
L 305.196562 213.342196 
L 306.153988 267.67316 
L 307.111414 266.135347 
L 308.06884 209.934084 
L 309.026267 110.339205 
L 309.983693 67.131893 
L 310.941119 43.854516 
L 311.898546 39.379828 
L 312.855972 45.210118 
L 313.813398 64.97912 
L 314.770824 109.140092 
L 315.728251 213.662905 
L 316.685677 267.610944 
L 317.643103 266.77637 
L 318.600529 210.667182 
L 319.557956 106.868849 
L 320.515382 64.906088 
L 321.472808 41.797173 
L 322.430235 36.449525 
L 323.387661 41.953331 
L 324.345087 63.872711 
L 325.302513 109.370916 
L 326.25994 214.680145 
L 327.217366 266.972379 
L 328.174792 267.461145 
L 329.132218 213.215179 
L 330.089645 110.64535 
L 331.047071 67.223667 
L 332.004497 46.919535 
L 332.961924 41.730208 
L 333.91935 49.245275 
L 334.876776 68.007909 
L 335.834202 112.183048 
L 336.791629 213.353578 
L 337.749055 268.72508 
L 338.706481 268.489292 
L 339.663908 217.066792 
L 340.621334 111.767424 
L 341.57876 68.122038 
L 342.536186 46.206482 
L 343.493613 40.413781 
L 344.451039 48.07439 
L 345.408465 68.573661 
L 346.365891 113.013172 
L 347.323318 217.763658 
L 348.280744 273.305792 
L 349.23817 271.152854 
L 350.195597 216.016148 
L 351.153023 112.018931 
L 352.110449 66.287097 
L 353.067875 44.612527 
L 354.025302 37.253769 
L 354.982728 45.202133 
L 355.940154 68.54868 
L 356.89758 110.189155 
L 357.855007 215.943324 
L 358.812433 267.145342 
L 359.769859 265.52634 
L 360.727286 213.057262 
L 361.684712 106.589352 
L 362.642138 63.360497 
L 363.599564 41.848082 
L 364.556991 38.778027 
L 365.514417 46.417715 
L 366.471843 66.575441 
L 367.429269 108.529184 
L 368.386696 213.701729 
L 369.344122 268.60839 
L 370.301548 268.321542 
L 371.258975 214.019761 
L 372.216401 110.275781 
L 373.173827 66.62826 
L 374.131253 46.232324 
L 375.08868 39.26509 
L 376.046106 43.099 
L 377.003532 63.284085 
L 377.960958 109.284408 
L 378.918385 213.82298 
L 379.875811 269.476083 
L 380.833237 269.589207 
L 381.790664 215.919497 
L 382.74809 108.989906 
L 383.705516 66.348522 
L 384.662942 41.9867 
L 385.620369 35.175622 
L 386.577795 42.075797 
L 387.535221 65.310467 
L 388.492647 107.434206 
L 389.450074 214.298877 
L 390.4075 268.422027 
L 390.4075 268.422027 
" clip-path="url(#p83384469bb)" style="fill: none; stroke: #1f77b4; stroke-width: 1.5; stroke-linecap: square"/>
   </g>
   <g id="patch_3">
    <path d="M 33.2875 288.430125 
L 33.2875 22.318125 
" style="fill: none; stroke: #000000; stroke-width: 0.8; stroke-linejoin: miter; stroke-linecap: square"/>
   </g>
   <g id="patch_4">
    <path d="M 390.4075 288.430125 
L 390.4075 22.318125 
" style="fill: none; stroke: #000000; stroke-width: 0.8; stroke-linejoin: miter; stroke-linecap: square"/>
   </g>
   <g id="patch_5">
    <path d="M 33.2875 288.430125 
L 390.4075 288.430125 
" style="fill: none; stroke: #000000; stroke-width: 0.8; stroke-linejoin: miter; stroke-linecap: square"/>
   </g>
   <g id="patch_6">
    <path d="M 33.2875 22.318125 
L 390.4075 22.318125 
" style="fill: none; stroke: #000000; stroke-width: 0.8; stroke-linejoin: miter; stroke-linecap: square"/>
   </g>
   <g id="text_15">
    <!-- Fast Flux -->
    <g transform="translate(185.410938 16.318125) scale(0.12 -0.12)">
     <defs>
      <path id="DejaVuSans-46" d="M 628 4666 
L 3309 4666 
L 3309 4134 
L 1259 4134 
L 1259 2759 
L 3109 2759 
L 3109 2228 
L 1259 2228 
L 1259 0 
L 628 0 
L 628 4666 
z
" transform="scale(0.015625)"/>
      <path id="DejaVuSans-61" d="M 2194 1759 
Q 1497 1759 1228 1600 
Q 959 1441 959 1056 
Q 959 750 1161 570 
Q 1363 391 1709 391 
Q 2188 391 2477 730 
Q 2766 1069 2766 1631 
L 2766 1759 
L 2194 1759 
z
M 3341 1997 
L 3341 0 
L 2766 0 
L 2766 531 
Q 2569 213 2275 61 
Q 1981 -91 1556 -91 
Q 1019 -91 701 211 
Q 384 513 384 1019 
Q 384 1609 779 1909 
Q 1175 2209 1959 2209 
L 2766 2209 
L 2766 2266 
Q 2766 2663 2505 2880 
Q 2244 3097 1772 3097 
Q 1472 3097 1187 3025 
Q 903 2953 641 2809 
L 641 3341 
Q 956 3463 1253 3523 
Q 1550 3584 1831 3584 
Q 2591 3584 2966 3190 
Q 3341 2797 3341 1997 
z
" transform="scale(0.015625)"/>
      <path id="DejaVuSans-73" d="M 2834 3397 
L 2834 2853 
Q 2591 2978 2328 3040 
Q 2066 3103 1784 3103 
Q 1356 3103 1142 2972 
Q 928 2841 928 2578 
Q 928 2378 1081 2264 
Q 1234 2150 1697 2047 
L 1894 2003 
Q 2506 1872 2764 1633 
Q 3022 1394 3022 966 
Q 3022 478 2636 193 
Q 2250 -91 1575 -91 
Q 1294 -91 989 -36 
Q 684 19 347 128 
L 347 722 
Q 666 556 975 473 
Q 1284 391 1588 391 
Q 1994 391 2212 530 
Q 2431 669 2431 922 
Q 2431 1156 2273 1281 
Q 2116 1406 1581 1522 
L 1381 1569 
Q 847 1681 609 1914 
Q 372 2147 372 2553 
Q 372 3047 722 3315 
Q 1072 3584 1716 3584 
Q 2034 3584 2315 3537 
Q 2597 3491 2834 3397 
z
" transform="scale(0.015625)"/>
      <path id="DejaVuSans-74" d="M 1172 4494 
L 1172 3500 
L 2356 3500 
L 2356 3053 
L 1172 3053 
L 1172 1153 
Q 1172 725 1289 603 
Q 1406 481 1766 481 
L 2356 481 
L 2356 0 
L 1766 0 
Q 1100 0 847 248 
Q 594 497 594 1153 
L 594 3053 
L 172 3053 
L 172 3500 
L 594 3500 
L 594 4494 
L 1172 4494 
z
" transform="scale(0.015625)"/>
      <path id="DejaVuSans-20" transform="scale(0.015625)"/>
      <path id="DejaVuSans-6c" d="M 603 4863 
L 1178 4863 
L 1178 0 
L 603 0 
L 603 4863 
z
" transform="scale(0.015625)"/>
      <path id="DejaVuSans-75" d="M 544 1381 
L 544 3500 
L 1119 3500 
L 1119 1403 
Q 1119 906 1312 657 
Q 1506 409 1894 409 
Q 2359 409 2629 706 
Q 2900 1003 2900 1516 
L 2900 3500 
L 3475 3500 
L 3475 0 
L 2900 0 
L 2900 538 
Q 2691 219 2414 64 
Q 2138 -91 1772 -91 
Q 1169 -91 856 284 
Q 544 659 544 1381 
z
M 1991 3584 
L 1991 3584 
z
" transform="scale(0.015625)"/>
      <path id="DejaVuSans-78" d="M 3513 3500 
L 2247 1797 
L 3578 0 
L 2900 0 
L 1881 1375 
L 863 0 
L 184 0 
L 1544 1831 
L 300 3500 
L 978 3500 
L 1906 2253 
L 2834 3500 
L 3513 3500 
z
" transform="scale(0.015625)"/>
     </defs>
     <use xlink:href="#DejaVuSans-46"/>
     <use xlink:href="#DejaVuSans-61" x="48.394531"/>
     <use xlink:href="#DejaVuSans-73" x="109.673828"/>
     <use xlink:href="#DejaVuSans-74" x="161.773438"/>
     <use xlink:href="#DejaVuSans-20" x="200.982422"/>
     <use xlink:href="#DejaVuSans-46" x="232.769531"/>
     <use xlink:href="#DejaVuSans-6c" x="290.289062"/>
     <use xlink:href="#DejaVuSans-75" x="318.072266"/>
     <use xlink:href="#DejaVuSans-78" x="381.451172"/>
    </g>
   </g>
  </g>
 </g>
 <defs>
  <clipPath id="p83384469bb">
   <rect x="33.2875" y="22.318125" width="357.12" height="266.112"/>
  </clipPath>
 </defs>
</svg>
