<?xml version="1.0" encoding="utf-8" standalone="no"?>
<!DOCTYPE svg PUBLIC "-//W3C//DTD SVG 1.1//EN"
  "http://www.w3.org/Graphics/SVG/1.1/DTD/svg11.dtd">
<svg xmlns:xlink="http://www.w3.org/1999/xlink" width="400.785625pt" height="312.30825pt" viewBox="0 0 400.785625 312.30825" xmlns="http://www.w3.org/2000/svg" version="1.1">
 <metadata>
  <rdf:RDF xmlns:dc="http://purl.org/dc/elements/1.1/" xmlns:cc="http://creativecommons.org/ns#" xmlns:rdf="http://www.w3.org/1999/02/22-rdf-syntax-ns#">
   <cc:Work>
    <dc:type rdf:resource="http://purl.org/dc/dcmitype/StillImage"/>
    <dc:date>2024-03-19T15:50:28.222837</dc:date>
    <dc:format>image/svg+xml</dc:format>
    <dc:creator>
     <cc:Agent>
      <dc:title>Matplotlib v3.8.3, https://matplotlib.org/</dc:title>
     </cc:Agent>
    </dc:creator>
   </cc:Work>
  </rdf:RDF>
 </metadata>
 <defs>
  <style type="text/css">*{stroke-linejoin: round; stroke-linecap: butt}</style>
 </defs>
 <g id="figure_1">
  <g id="patch_1">
   <path d="M 0 312.30825 
L 400.785625 312.30825 
L 400.785625 0 
L 0 0 
z
" style="fill: #ffffff"/>
  </g>
  <g id="axes_1">
   <g id="patch_2">
    <path d="M 36.465625 288.430125 
L 393.585625 288.430125 
L 393.585625 22.318125 
L 36.465625 22.318125 
z
" style="fill: #ffffff"/>
   </g>
   <g id="matplotlib.axis_1">
    <g id="xtick_1">
     <g id="line2d_1">
      <defs>
       <path id="m94ee9c57a9" d="M 0 0 
L 0 3.5 
" style="stroke: #000000; stroke-width: 0.8"/>
      </defs>
      <g>
       <use xlink:href="#m94ee9c57a9" x="36.465625" y="288.430125" style="stroke: #000000; stroke-width: 0.8"/>
      </g>
     </g>
     <g id="text_1">
      <!-- 0 -->
      <g transform="translate(33.284375 303.028562) scale(0.1 -0.1)">
       <defs>
        <path id="DejaVuSans-30" d="M 2034 4250 
Q 1547 4250 1301 3770 
Q 1056 3291 1056 2328 
Q 1056 1369 1301 889 
Q 1547 409 2034 409 
Q 2525 409 2770 889 
Q 3016 1369 3016 2328 
Q 3016 3291 2770 3770 
Q 2525 4250 2034 4250 
z
M 2034 4750 
Q 2819 4750 3233 4129 
Q 3647 3509 3647 2328 
Q 3647 1150 3233 529 
Q 2819 -91 2034 -91 
Q 1250 -91 836 529 
Q 422 1150 422 2328 
Q 422 3509 836 4129 
Q 1250 4750 2034 4750 
z
" transform="scale(0.015625)"/>
       </defs>
       <use xlink:href="#DejaVuSans-30"/>
      </g>
     </g>
    </g>
    <g id="xtick_2">
     <g id="line2d_2">
      <g>
       <use xlink:href="#m94ee9c57a9" x="78.080242" y="288.430125" style="stroke: #000000; stroke-width: 0.8"/>
      </g>
     </g>
     <g id="text_2">
      <!-- 5 -->
      <g transform="translate(74.898992 303.028562) scale(0.1 -0.1)">
       <defs>
        <path id="DejaVuSans-35" d="M 691 4666 
L 3169 4666 
L 3169 4134 
L 1269 4134 
L 1269 2991 
Q 1406 3038 1543 3061 
Q 1681 3084 1819 3084 
Q 2600 3084 3056 2656 
Q 3513 2228 3513 1497 
Q 3513 744 3044 326 
Q 2575 -91 1722 -91 
Q 1428 -91 1123 -41 
Q 819 9 494 109 
L 494 744 
Q 775 591 1075 516 
Q 1375 441 1709 441 
Q 2250 441 2565 725 
Q 2881 1009 2881 1497 
Q 2881 1984 2565 2268 
Q 2250 2553 1709 2553 
Q 1456 2553 1204 2497 
Q 953 2441 691 2322 
L 691 4666 
z
" transform="scale(0.015625)"/>
       </defs>
       <use xlink:href="#DejaVuSans-35"/>
      </g>
     </g>
    </g>
    <g id="xtick_3">
     <g id="line2d_3">
      <g>
       <use xlink:href="#m94ee9c57a9" x="119.69486" y="288.430125" style="stroke: #000000; stroke-width: 0.8"/>
      </g>
     </g>
     <g id="text_3">
      <!-- 10 -->
      <g transform="translate(113.33236 303.028562) scale(0.1 -0.1)">
       <defs>
        <path id="DejaVuSans-31" d="M 794 531 
L 1825 531 
L 1825 4091 
L 703 3866 
L 703 4441 
L 1819 4666 
L 2450 4666 
L 2450 531 
L 3481 531 
L 3481 0 
L 794 0 
L 794 531 
z
" transform="scale(0.015625)"/>
       </defs>
       <use xlink:href="#DejaVuSans-31"/>
       <use xlink:href="#DejaVuSans-30" x="63.623047"/>
      </g>
     </g>
    </g>
    <g id="xtick_4">
     <g id="line2d_4">
      <g>
       <use xlink:href="#m94ee9c57a9" x="161.309477" y="288.430125" style="stroke: #000000; stroke-width: 0.8"/>
      </g>
     </g>
     <g id="text_4">
      <!-- 15 -->
      <g transform="translate(154.946977 303.028562) scale(0.1 -0.1)">
       <use xlink:href="#DejaVuSans-31"/>
       <use xlink:href="#DejaVuSans-35" x="63.623047"/>
      </g>
     </g>
    </g>
    <g id="xtick_5">
     <g id="line2d_5">
      <g>
       <use xlink:href="#m94ee9c57a9" x="202.924094" y="288.430125" style="stroke: #000000; stroke-width: 0.8"/>
      </g>
     </g>
     <g id="text_5">
      <!-- 20 -->
      <g transform="translate(196.561594 303.028562) scale(0.1 -0.1)">
       <defs>
        <path id="DejaVuSans-32" d="M 1228 531 
L 3431 531 
L 3431 0 
L 469 0 
L 469 531 
Q 828 903 1448 1529 
Q 2069 2156 2228 2338 
Q 2531 2678 2651 2914 
Q 2772 3150 2772 3378 
Q 2772 3750 2511 3984 
Q 2250 4219 1831 4219 
Q 1534 4219 1204 4116 
Q 875 4013 500 3803 
L 500 4441 
Q 881 4594 1212 4672 
Q 1544 4750 1819 4750 
Q 2544 4750 2975 4387 
Q 3406 4025 3406 3419 
Q 3406 3131 3298 2873 
Q 3191 2616 2906 2266 
Q 2828 2175 2409 1742 
Q 1991 1309 1228 531 
z
" transform="scale(0.015625)"/>
       </defs>
       <use xlink:href="#DejaVuSans-32"/>
       <use xlink:href="#DejaVuSans-30" x="63.623047"/>
      </g>
     </g>
    </g>
    <g id="xtick_6">
     <g id="line2d_6">
      <g>
       <use xlink:href="#m94ee9c57a9" x="244.538712" y="288.430125" style="stroke: #000000; stroke-width: 0.8"/>
      </g>
     </g>
     <g id="text_6">
      <!-- 25 -->
      <g transform="translate(238.176212 303.028562) scale(0.1 -0.1)">
       <use xlink:href="#DejaVuSans-32"/>
       <use xlink:href="#DejaVuSans-35" x="63.623047"/>
      </g>
     </g>
    </g>
    <g id="xtick_7">
     <g id="line2d_7">
      <g>
       <use xlink:href="#m94ee9c57a9" x="286.153329" y="288.430125" style="stroke: #000000; stroke-width: 0.8"/>
      </g>
     </g>
     <g id="text_7">
      <!-- 30 -->
      <g transform="translate(279.790829 303.028562) scale(0.1 -0.1)">
       <defs>
        <path id="DejaVuSans-33" d="M 2597 2516 
Q 3050 2419 3304 2112 
Q 3559 1806 3559 1356 
Q 3559 666 3084 287 
Q 2609 -91 1734 -91 
Q 1441 -91 1130 -33 
Q 819 25 488 141 
L 488 750 
Q 750 597 1062 519 
Q 1375 441 1716 441 
Q 2309 441 2620 675 
Q 2931 909 2931 1356 
Q 2931 1769 2642 2001 
Q 2353 2234 1838 2234 
L 1294 2234 
L 1294 2753 
L 1863 2753 
Q 2328 2753 2575 2939 
Q 2822 3125 2822 3475 
Q 2822 3834 2567 4026 
Q 2313 4219 1838 4219 
Q 1578 4219 1281 4162 
Q 984 4106 628 3988 
L 628 4550 
Q 988 4650 1302 4700 
Q 1616 4750 1894 4750 
Q 2613 4750 3031 4423 
Q 3450 4097 3450 3541 
Q 3450 3153 3228 2886 
Q 3006 2619 2597 2516 
z
" transform="scale(0.015625)"/>
       </defs>
       <use xlink:href="#DejaVuSans-33"/>
       <use xlink:href="#DejaVuSans-30" x="63.623047"/>
      </g>
     </g>
    </g>
    <g id="xtick_8">
     <g id="line2d_8">
      <g>
       <use xlink:href="#m94ee9c57a9" x="327.767946" y="288.430125" style="stroke: #000000; stroke-width: 0.8"/>
      </g>
     </g>
     <g id="text_8">
      <!-- 35 -->
      <g transform="translate(321.405446 303.028562) scale(0.1 -0.1)">
       <use xlink:href="#DejaVuSans-33"/>
       <use xlink:href="#DejaVuSans-35" x="63.623047"/>
      </g>
     </g>
    </g>
    <g id="xtick_9">
     <g id="line2d_9">
      <g>
       <use xlink:href="#m94ee9c57a9" x="369.382564" y="288.430125" style="stroke: #000000; stroke-width: 0.8"/>
      </g>
     </g>
     <g id="text_9">
      <!-- 40 -->
      <g transform="translate(363.020064 303.028562) scale(0.1 -0.1)">
       <defs>
        <path id="DejaVuSans-34" d="M 2419 4116 
L 825 1625 
L 2419 1625 
L 2419 4116 
z
M 2253 4666 
L 3047 4666 
L 3047 1625 
L 3713 1625 
L 3713 1100 
L 3047 1100 
L 3047 0 
L 2419 0 
L 2419 1100 
L 313 1100 
L 313 1709 
L 2253 4666 
z
" transform="scale(0.015625)"/>
       </defs>
       <use xlink:href="#DejaVuSans-34"/>
       <use xlink:href="#DejaVuSans-30" x="63.623047"/>
      </g>
     </g>
    </g>
   </g>
   <g id="matplotlib.axis_2">
    <g id="ytick_1">
     <g id="line2d_10">
      <defs>
       <path id="m1be57a508d" d="M 0 0 
L -3.5 0 
" style="stroke: #000000; stroke-width: 0.8"/>
      </defs>
      <g>
       <use xlink:href="#m1be57a508d" x="36.465625" y="264.966514" style="stroke: #000000; stroke-width: 0.8"/>
      </g>
     </g>
     <g id="text_10">
      <!-- 2.02 -->
      <g transform="translate(7.2 268.765733) scale(0.1 -0.1)">
       <defs>
        <path id="DejaVuSans-2e" d="M 684 794 
L 1344 794 
L 1344 0 
L 684 0 
L 684 794 
z
" transform="scale(0.015625)"/>
       </defs>
       <use xlink:href="#DejaVuSans-32"/>
       <use xlink:href="#DejaVuSans-2e" x="63.623047"/>
       <use xlink:href="#DejaVuSans-30" x="95.410156"/>
       <use xlink:href="#DejaVuSans-32" x="159.033203"/>
      </g>
     </g>
    </g>
    <g id="ytick_2">
     <g id="line2d_11">
      <g>
       <use xlink:href="#m1be57a508d" x="36.465625" y="214.846937" style="stroke: #000000; stroke-width: 0.8"/>
      </g>
     </g>
     <g id="text_11">
      <!-- 2.04 -->
      <g transform="translate(7.2 218.646156) scale(0.1 -0.1)">
       <use xlink:href="#DejaVuSans-32"/>
       <use xlink:href="#DejaVuSans-2e" x="63.623047"/>
       <use xlink:href="#DejaVuSans-30" x="95.410156"/>
       <use xlink:href="#DejaVuSans-34" x="159.033203"/>
      </g>
     </g>
    </g>
    <g id="ytick_3">
     <g id="line2d_12">
      <g>
       <use xlink:href="#m1be57a508d" x="36.465625" y="164.727359" style="stroke: #000000; stroke-width: 0.8"/>
      </g>
     </g>
     <g id="text_12">
      <!-- 2.06 -->
      <g transform="translate(7.2 168.526578) scale(0.1 -0.1)">
       <defs>
        <path id="DejaVuSans-36" d="M 2113 2584 
Q 1688 2584 1439 2293 
Q 1191 2003 1191 1497 
Q 1191 994 1439 701 
Q 1688 409 2113 409 
Q 2538 409 2786 701 
Q 3034 994 3034 1497 
Q 3034 2003 2786 2293 
Q 2538 2584 2113 2584 
z
M 3366 4563 
L 3366 3988 
Q 3128 4100 2886 4159 
Q 2644 4219 2406 4219 
Q 1781 4219 1451 3797 
Q 1122 3375 1075 2522 
Q 1259 2794 1537 2939 
Q 1816 3084 2150 3084 
Q 2853 3084 3261 2657 
Q 3669 2231 3669 1497 
Q 3669 778 3244 343 
Q 2819 -91 2113 -91 
Q 1303 -91 875 529 
Q 447 1150 447 2328 
Q 447 3434 972 4092 
Q 1497 4750 2381 4750 
Q 2619 4750 2861 4703 
Q 3103 4656 3366 4563 
z
" transform="scale(0.015625)"/>
       </defs>
       <use xlink:href="#DejaVuSans-32"/>
       <use xlink:href="#DejaVuSans-2e" x="63.623047"/>
       <use xlink:href="#DejaVuSans-30" x="95.410156"/>
       <use xlink:href="#DejaVuSans-36" x="159.033203"/>
      </g>
     </g>
    </g>
    <g id="ytick_4">
     <g id="line2d_13">
      <g>
       <use xlink:href="#m1be57a508d" x="36.465625" y="114.607782" style="stroke: #000000; stroke-width: 0.8"/>
      </g>
     </g>
     <g id="text_13">
      <!-- 2.08 -->
      <g transform="translate(7.2 118.407001) scale(0.1 -0.1)">
       <defs>
        <path id="DejaVuSans-38" d="M 2034 2216 
Q 1584 2216 1326 1975 
Q 1069 1734 1069 1313 
Q 1069 891 1326 650 
Q 1584 409 2034 409 
Q 2484 409 2743 651 
Q 3003 894 3003 1313 
Q 3003 1734 2745 1975 
Q 2488 2216 2034 2216 
z
M 1403 2484 
Q 997 2584 770 2862 
Q 544 3141 544 3541 
Q 544 4100 942 4425 
Q 1341 4750 2034 4750 
Q 2731 4750 3128 4425 
Q 3525 4100 3525 3541 
Q 3525 3141 3298 2862 
Q 3072 2584 2669 2484 
Q 3125 2378 3379 2068 
Q 3634 1759 3634 1313 
Q 3634 634 3220 271 
Q 2806 -91 2034 -91 
Q 1263 -91 848 271 
Q 434 634 434 1313 
Q 434 1759 690 2068 
Q 947 2378 1403 2484 
z
M 1172 3481 
Q 1172 3119 1398 2916 
Q 1625 2713 2034 2713 
Q 2441 2713 2670 2916 
Q 2900 3119 2900 3481 
Q 2900 3844 2670 4047 
Q 2441 4250 2034 4250 
Q 1625 4250 1398 4047 
Q 1172 3844 1172 3481 
z
" transform="scale(0.015625)"/>
       </defs>
       <use xlink:href="#DejaVuSans-32"/>
       <use xlink:href="#DejaVuSans-2e" x="63.623047"/>
       <use xlink:href="#DejaVuSans-30" x="95.410156"/>
       <use xlink:href="#DejaVuSans-38" x="159.033203"/>
      </g>
     </g>
    </g>
    <g id="ytick_5">
     <g id="line2d_14">
      <g>
       <use xlink:href="#m1be57a508d" x="36.465625" y="64.488204" style="stroke: #000000; stroke-width: 0.8"/>
      </g>
     </g>
     <g id="text_14">
      <!-- 2.10 -->
      <g transform="translate(7.2 68.287423) scale(0.1 -0.1)">
       <use xlink:href="#DejaVuSans-32"/>
       <use xlink:href="#DejaVuSans-2e" x="63.623047"/>
       <use xlink:href="#DejaVuSans-31" x="95.410156"/>
       <use xlink:href="#DejaVuSans-30" x="159.033203"/>
      </g>
     </g>
    </g>
    <g id="text_15">
     <!-- 1e17 -->
     <g transform="translate(36.465625 19.318125) scale(0.1 -0.1)">
      <defs>
       <path id="DejaVuSans-65" d="M 3597 1894 
L 3597 1613 
L 953 1613 
Q 991 1019 1311 708 
Q 1631 397 2203 397 
Q 2534 397 2845 478 
Q 3156 559 3463 722 
L 3463 178 
Q 3153 47 2828 -22 
Q 2503 -91 2169 -91 
Q 1331 -91 842 396 
Q 353 884 353 1716 
Q 353 2575 817 3079 
Q 1281 3584 2069 3584 
Q 2775 3584 3186 3129 
Q 3597 2675 3597 1894 
z
M 3022 2063 
Q 3016 2534 2758 2815 
Q 2500 3097 2075 3097 
Q 1594 3097 1305 2825 
Q 1016 2553 972 2059 
L 3022 2063 
z
" transform="scale(0.015625)"/>
       <path id="DejaVuSans-37" d="M 525 4666 
L 3525 4666 
L 3525 4397 
L 1831 0 
L 1172 0 
L 2766 4134 
L 525 4134 
L 525 4666 
z
" transform="scale(0.015625)"/>
      </defs>
      <use xlink:href="#DejaVuSans-31"/>
      <use xlink:href="#DejaVuSans-65" x="63.623047"/>
      <use xlink:href="#DejaVuSans-31" x="125.146484"/>
      <use xlink:href="#DejaVuSans-37" x="188.769531"/>
     </g>
    </g>
   </g>
   <g id="line2d_15">
    <path d="M 36.465625 228.343185 
L 37.423051 235.791886 
L 38.380478 205.855298 
L 39.337904 196.60766 
L 40.29533 166.64258 
L 41.252756 170.59933 
L 42.210183 155.964656 
L 43.167609 143.679188 
L 45.082461 194.665632 
L 46.039888 192.990458 
L 46.997314 196.127135 
L 47.95474 162.507587 
L 48.912167 144.133876 
L 49.869593 153.184143 
L 50.827019 138.250311 
L 51.784445 120.871318 
L 52.741872 134.936885 
L 53.699298 112.16198 
L 54.656724 115.398094 
L 55.61415 121.427504 
L 56.571577 147.128749 
L 57.529003 145.834508 
L 58.486429 141.777886 
L 59.443856 100.169402 
L 60.401282 133.911631 
L 61.358708 122.927203 
L 62.316134 120.500149 
L 63.273561 111.891755 
L 64.230987 99.241499 
L 65.188413 103.712299 
L 66.145839 135.15807 
L 67.103266 123.705664 
L 68.060692 162.077855 
L 69.018118 185.196958 
L 70.932971 115.619229 
L 71.890397 127.406827 
L 72.847823 89.897308 
L 73.80525 59.751543 
L 74.762676 103.433712 
L 75.720102 126.156834 
L 76.677528 105.458857 
L 77.634955 153.071319 
L 78.592381 126.820812 
L 79.549807 126.996822 
L 80.507234 110.629893 
L 82.422086 62.269915 
L 83.379512 99.624189 
L 84.336939 145.840218 
L 85.294365 93.112024 
L 86.251791 122.353328 
L 87.209217 184.007667 
L 88.166644 188.954496 
L 89.12407 115.615997 
L 90.081496 91.903413 
L 91.038923 99.72024 
L 91.996349 43.147085 
L 92.953775 83.095916 
L 93.911201 148.118763 
L 94.868628 105.163428 
L 95.826054 133.328599 
L 96.78348 156.555647 
L 97.740907 183.17725 
L 98.698333 180.007888 
L 99.655759 210.467792 
L 100.613185 209.123513 
L 102.528038 142.827891 
L 103.485464 177.863521 
L 104.44289 150.941493 
L 105.400317 168.347635 
L 106.357743 171.466216 
L 107.315169 173.21004 
L 108.272596 174.387835 
L 109.230022 198.570315 
L 110.187448 191.077358 
L 111.144874 168.513024 
L 112.102301 150.5232 
L 113.059727 124.702151 
L 114.017153 165.027897 
L 114.974579 121.951447 
L 115.932006 150.27112 
L 116.889432 158.057043 
L 117.846858 127.920724 
L 118.804285 167.719788 
L 119.761711 153.260549 
L 120.719137 198.294075 
L 121.676563 198.698383 
L 122.63399 127.381401 
L 123.591416 139.718553 
L 124.548842 200.631101 
L 125.506268 210.983564 
L 126.463695 186.67791 
L 127.421121 206.440537 
L 128.378547 208.990353 
L 129.335974 240.270508 
L 130.2934 216.736067 
L 131.250826 230.744096 
L 132.208252 233.49823 
L 133.165679 218.780888 
L 134.123105 182.745067 
L 135.080531 191.078161 
L 136.037957 217.787959 
L 136.995384 178.1081 
L 137.95281 245.159699 
L 138.910236 223.500009 
L 139.867663 245.583039 
L 140.825089 234.341698 
L 141.782515 246.27809 
L 142.739941 232.115188 
L 143.697368 188.768097 
L 144.654794 175.842305 
L 145.61222 134.764756 
L 146.569646 115.790768 
L 147.527073 119.17524 
L 148.484499 152.679579 
L 149.441925 202.659773 
L 150.399352 205.077249 
L 151.356778 188.998848 
L 152.314204 187.557573 
L 153.27163 192.894595 
L 154.229057 167.956743 
L 155.186483 150.13087 
L 156.143909 155.181573 
L 157.101335 140.013636 
L 158.058762 150.422069 
L 159.016188 145.45645 
L 159.973614 186.927158 
L 160.931041 209.556014 
L 161.888467 207.073446 
L 162.845893 217.935491 
L 163.803319 204.136225 
L 164.760746 127.666631 
L 165.718172 141.810044 
L 166.675598 125.166593 
L 167.633024 128.992891 
L 168.590451 125.01582 
L 169.547877 113.048237 
L 170.505303 179.518718 
L 171.46273 227.310642 
L 172.420156 253.230658 
L 173.377582 228.47838 
L 174.335008 199.775173 
L 175.292435 155.177636 
L 176.249861 142.819197 
L 177.207287 126.750593 
L 178.164713 162.049057 
L 179.12214 128.646982 
L 180.079566 156.057451 
L 181.036992 158.564377 
L 181.994419 180.75899 
L 182.951845 197.160678 
L 183.909271 225.426215 
L 184.866697 207.612027 
L 185.824124 212.264882 
L 186.78155 187.193435 
L 187.738976 180.46934 
L 188.696402 155.430684 
L 189.653829 178.685505 
L 190.611255 176.426031 
L 191.568681 153.256098 
L 192.526108 209.166744 
L 193.483534 215.436741 
L 194.44096 242.244854 
L 195.398386 218.364536 
L 196.355813 170.249972 
L 197.313239 150.176594 
L 198.270665 182.991168 
L 199.228091 139.273306 
L 200.185518 145.168447 
L 201.142944 212.43905 
L 202.10037 179.762234 
L 203.057797 191.81963 
L 204.015223 194.335121 
L 204.972649 207.787871 
L 205.930075 217.629577 
L 206.887502 198.623931 
L 208.802354 145.075927 
L 209.75978 155.084834 
L 210.717207 115.880709 
L 211.674633 163.087841 
L 212.632059 238.455248 
L 213.589486 233.128298 
L 214.546912 250.925661 
L 215.504338 257.631138 
L 216.461764 251.680501 
L 217.419191 210.797189 
L 218.376617 181.676464 
L 219.334043 166.371203 
L 220.29147 160.416654 
L 221.248896 178.237208 
L 222.206322 177.434419 
L 224.121175 276.334125 
L 225.078601 274.204553 
L 226.036027 258.776724 
L 226.993453 247.330281 
L 227.95088 221.070286 
L 228.908306 176.171391 
L 229.865732 170.628886 
L 230.823159 189.316019 
L 231.780585 198.695886 
L 232.738011 227.746096 
L 233.695437 216.32371 
L 234.652864 190.081183 
L 235.61029 211.787256 
L 236.567716 201.075625 
L 237.525142 198.554231 
L 238.482569 169.333932 
L 239.439995 181.616409 
L 240.397421 161.098351 
L 241.354848 173.375645 
L 242.312274 189.397565 
L 243.2697 202.958856 
L 244.227126 202.028416 
L 245.184553 248.95935 
L 246.141979 244.637071 
L 247.099405 257.354368 
L 248.056831 260.103037 
L 249.014258 200.165352 
L 249.971684 221.512543 
L 250.92911 152.005313 
L 251.886537 115.877414 
L 252.843963 120.859813 
L 253.801389 157.895812 
L 254.758815 132.635916 
L 255.716242 195.525735 
L 256.673668 241.408714 
L 257.631094 245.053336 
L 258.58852 205.846614 
L 259.545947 140.077365 
L 260.503373 116.551497 
L 261.460799 122.073599 
L 262.418226 175.911636 
L 263.375652 166.998441 
L 264.333078 130.071936 
L 266.247931 153.674686 
L 267.205357 153.718073 
L 268.162783 155.522484 
L 269.120209 150.600112 
L 271.035062 102.161092 
L 271.992488 120.25019 
L 272.949915 121.883582 
L 273.907341 118.854793 
L 275.822193 180.692506 
L 278.694472 210.710152 
L 279.651898 181.750236 
L 280.609325 92.56787 
L 281.566751 160.163194 
L 282.524177 140.278463 
L 283.481604 113.256021 
L 284.43903 125.580361 
L 285.396456 188.245557 
L 286.353882 159.926291 
L 287.311309 171.868827 
L 288.268735 203.842284 
L 289.226161 190.261387 
L 290.183587 129.889365 
L 291.141014 130.61641 
L 292.09844 136.039646 
L 293.055866 115.171002 
L 294.013293 148.176401 
L 294.970719 114.831911 
L 295.928145 152.646953 
L 298.800424 229.739521 
L 299.75785 214.469139 
L 300.715276 229.336556 
L 302.630129 117.334609 
L 303.587555 121.845906 
L 304.544982 111.713986 
L 305.502408 129.621081 
L 306.459834 120.954182 
L 307.41726 160.867002 
L 308.374687 186.55617 
L 309.332113 215.876473 
L 310.289539 179.389879 
L 311.246965 195.768434 
L 312.204392 129.404951 
L 313.161818 109.523539 
L 314.119244 85.053688 
L 315.076671 83.110341 
L 316.034097 118.065669 
L 316.991523 110.714112 
L 317.948949 115.923414 
L 318.906376 122.375815 
L 319.863802 131.235889 
L 320.821228 148.574162 
L 321.778654 157.911713 
L 322.736081 117.49481 
L 323.693507 110.222542 
L 324.650933 83.479186 
L 325.60836 115.354388 
L 326.565786 107.417172 
L 327.523212 110.075672 
L 328.480638 67.371443 
L 329.438065 159.987012 
L 330.395491 176.674738 
L 331.352917 124.367686 
L 332.310343 113.115225 
L 333.26777 118.512199 
L 334.225196 121.016699 
L 335.182622 75.183949 
L 336.140049 102.713086 
L 337.097475 116.403054 
L 338.054901 90.588175 
L 339.012327 111.614293 
L 339.969754 147.62635 
L 340.92718 179.416092 
L 341.884606 172.6247 
L 342.842033 164.74661 
L 343.799459 106.748579 
L 344.756885 69.865905 
L 345.714311 50.822457 
L 346.671738 57.51726 
L 347.629164 77.023414 
L 348.58659 56.267451 
L 349.544016 67.030669 
L 350.501443 126.639319 
L 351.458869 128.032967 
L 352.416295 133.440174 
L 353.373722 159.249853 
L 354.331148 125.905462 
L 355.288574 98.244976 
L 356.246 88.911122 
L 357.203427 112.12685 
L 358.160853 96.362977 
L 359.118279 65.127743 
L 360.075705 98.41906 
L 361.033132 123.138241 
L 361.990558 130.454972 
L 362.947984 138.63984 
L 363.905411 139.646153 
L 364.862837 140.23998 
L 365.820263 110.5848 
L 366.777689 111.109127 
L 367.735116 80.319396 
L 368.692542 95.811709 
L 369.649968 87.038487 
L 370.607394 93.421758 
L 371.564821 142.601484 
L 372.522247 150.375871 
L 373.479673 130.903251 
L 374.4371 97.712211 
L 375.394526 34.414125 
L 376.351952 69.975763 
L 377.309378 95.740939 
L 378.266805 109.103338 
L 379.224231 78.103643 
L 380.181657 175.509985 
L 381.139083 170.860478 
L 382.09651 181.890594 
L 383.053936 188.50981 
L 384.011362 169.882009 
L 384.968789 146.107711 
L 385.926215 117.032817 
L 386.883641 93.557122 
L 387.841067 99.063207 
L 388.798494 100.987643 
L 389.75592 134.975602 
L 390.713346 140.426694 
L 391.670772 190.385496 
L 392.628199 216.136711 
L 393.585625 227.705345 
L 393.585625 227.705345 
" clip-path="url(#pb4023ebc52)" style="fill: none; stroke: #1f77b4; stroke-width: 1.5; stroke-linecap: square"/>
   </g>
   <g id="line2d_16">
    <path d="M 36.465625 165.451274 
L 214.546912 165.451274 
L 215.504338 150.441542 
L 393.585625 150.441542 
L 393.585625 150.441542 
" clip-path="url(#pb4023ebc52)" style="fill: none; stroke: #ffa500; stroke-width: 1.5; stroke-linecap: square"/>
   </g>
   <g id="patch_3">
    <path d="M 36.465625 288.430125 
L 36.465625 22.318125 
" style="fill: none; stroke: #000000; stroke-width: 0.8; stroke-linejoin: miter; stroke-linecap: square"/>
   </g>
   <g id="patch_4">
    <path d="M 393.585625 288.430125 
L 393.585625 22.318125 
" style="fill: none; stroke: #000000; stroke-width: 0.8; stroke-linejoin: miter; stroke-linecap: square"/>
   </g>
   <g id="patch_5">
    <path d="M 36.465625 288.430125 
L 393.585625 288.430125 
" style="fill: none; stroke: #000000; stroke-width: 0.8; stroke-linejoin: miter; stroke-linecap: square"/>
   </g>
   <g id="patch_6">
    <path d="M 36.465625 22.318125 
L 393.585625 22.318125 
" style="fill: none; stroke: #000000; stroke-width: 0.8; stroke-linejoin: miter; stroke-linecap: square"/>
   </g>
   <g id="text_16">
    <!-- Fast Flux -->
    <g transform="translate(188.589063 16.318125) scale(0.12 -0.12)">
     <defs>
      <path id="DejaVuSans-46" d="M 628 4666 
L 3309 4666 
L 3309 4134 
L 1259 4134 
L 1259 2759 
L 3109 2759 
L 3109 2228 
L 1259 2228 
L 1259 0 
L 628 0 
L 628 4666 
z
" transform="scale(0.015625)"/>
      <path id="DejaVuSans-61" d="M 2194 1759 
Q 1497 1759 1228 1600 
Q 959 1441 959 1056 
Q 959 750 1161 570 
Q 1363 391 1709 391 
Q 2188 391 2477 730 
Q 2766 1069 2766 1631 
L 2766 1759 
L 2194 1759 
z
M 3341 1997 
L 3341 0 
L 2766 0 
L 2766 531 
Q 2569 213 2275 61 
Q 1981 -91 1556 -91 
Q 1019 -91 701 211 
Q 384 513 384 1019 
Q 384 1609 779 1909 
Q 1175 2209 1959 2209 
L 2766 2209 
L 2766 2266 
Q 2766 2663 2505 2880 
Q 2244 3097 1772 3097 
Q 1472 3097 1187 3025 
Q 903 2953 641 2809 
L 641 3341 
Q 956 3463 1253 3523 
Q 1550 3584 1831 3584 
Q 2591 3584 2966 3190 
Q 3341 2797 3341 1997 
z
" transform="scale(0.015625)"/>
      <path id="DejaVuSans-73" d="M 2834 3397 
L 2834 2853 
Q 2591 2978 2328 3040 
Q 2066 3103 1784 3103 
Q 1356 3103 1142 2972 
Q 928 2841 928 2578 
Q 928 2378 1081 2264 
Q 1234 2150 1697 2047 
L 1894 2003 
Q 2506 1872 2764 1633 
Q 3022 1394 3022 966 
Q 3022 478 2636 193 
Q 2250 -91 1575 -91 
Q 1294 -91 989 -36 
Q 684 19 347 128 
L 347 722 
Q 666 556 975 473 
Q 1284 391 1588 391 
Q 1994 391 2212 530 
Q 2431 669 2431 922 
Q 2431 1156 2273 1281 
Q 2116 1406 1581 1522 
L 1381 1569 
Q 847 1681 609 1914 
Q 372 2147 372 2553 
Q 372 3047 722 3315 
Q 1072 3584 1716 3584 
Q 2034 3584 2315 3537 
Q 2597 3491 2834 3397 
z
" transform="scale(0.015625)"/>
      <path id="DejaVuSans-74" d="M 1172 4494 
L 1172 3500 
L 2356 3500 
L 2356 3053 
L 1172 3053 
L 1172 1153 
Q 1172 725 1289 603 
Q 1406 481 1766 481 
L 2356 481 
L 2356 0 
L 1766 0 
Q 1100 0 847 248 
Q 594 497 594 1153 
L 594 3053 
L 172 3053 
L 172 3500 
L 594 3500 
L 594 4494 
L 1172 4494 
z
" transform="scale(0.015625)"/>
      <path id="DejaVuSans-20" transform="scale(0.015625)"/>
      <path id="DejaVuSans-6c" d="M 603 4863 
L 1178 4863 
L 1178 0 
L 603 0 
L 603 4863 
z
" transform="scale(0.015625)"/>
      <path id="DejaVuSans-75" d="M 544 1381 
L 544 3500 
L 1119 3500 
L 1119 1403 
Q 1119 906 1312 657 
Q 1506 409 1894 409 
Q 2359 409 2629 706 
Q 2900 1003 2900 1516 
L 2900 3500 
L 3475 3500 
L 3475 0 
L 2900 0 
L 2900 538 
Q 2691 219 2414 64 
Q 2138 -91 1772 -91 
Q 1169 -91 856 284 
Q 544 659 544 1381 
z
M 1991 3584 
L 1991 3584 
z
" transform="scale(0.015625)"/>
      <path id="DejaVuSans-78" d="M 3513 3500 
L 2247 1797 
L 3578 0 
L 2900 0 
L 1881 1375 
L 863 0 
L 184 0 
L 1544 1831 
L 300 3500 
L 978 3500 
L 1906 2253 
L 2834 3500 
L 3513 3500 
z
" transform="scale(0.015625)"/>
     </defs>
     <use xlink:href="#DejaVuSans-46"/>
     <use xlink:href="#DejaVuSans-61" x="48.394531"/>
     <use xlink:href="#DejaVuSans-73" x="109.673828"/>
     <use xlink:href="#DejaVuSans-74" x="161.773438"/>
     <use xlink:href="#DejaVuSans-20" x="200.982422"/>
     <use xlink:href="#DejaVuSans-46" x="232.769531"/>
     <use xlink:href="#DejaVuSans-6c" x="290.289062"/>
     <use xlink:href="#DejaVuSans-75" x="318.072266"/>
     <use xlink:href="#DejaVuSans-78" x="381.451172"/>
    </g>
   </g>
  </g>
 </g>
 <defs>
  <clipPath id="pb4023ebc52">
   <rect x="36.465625" y="22.318125" width="357.12" height="266.112"/>
  </clipPath>
 </defs>
</svg>
