<?xml version="1.0" encoding="utf-8" standalone="no"?>
<!DOCTYPE svg PUBLIC "-//W3C//DTD SVG 1.1//EN"
  "http://www.w3.org/Graphics/SVG/1.1/DTD/svg11.dtd">
<svg xmlns:xlink="http://www.w3.org/1999/xlink" width="403.97pt" height="312.30825pt" viewBox="0 0 403.97 312.30825" xmlns="http://www.w3.org/2000/svg" version="1.1">
 <metadata>
  <rdf:RDF xmlns:dc="http://purl.org/dc/elements/1.1/" xmlns:cc="http://creativecommons.org/ns#" xmlns:rdf="http://www.w3.org/1999/02/22-rdf-syntax-ns#">
   <cc:Work>
    <dc:type rdf:resource="http://purl.org/dc/dcmitype/StillImage"/>
    <dc:date>2024-03-13T19:25:49.200528</dc:date>
    <dc:format>image/svg+xml</dc:format>
    <dc:creator>
     <cc:Agent>
      <dc:title>Matplotlib v3.8.3, https://matplotlib.org/</dc:title>
     </cc:Agent>
    </dc:creator>
   </cc:Work>
  </rdf:RDF>
 </metadata>
 <defs>
  <style type="text/css">*{stroke-linejoin: round; stroke-linecap: butt}</style>
 </defs>
 <g id="figure_1">
  <g id="patch_1">
   <path d="M 0 312.30825 
L 403.97 312.30825 
L 403.97 0 
L 0 0 
z
" style="fill: #ffffff"/>
  </g>
  <g id="axes_1">
   <g id="patch_2">
    <path d="M 39.65 288.430125 
L 396.77 288.430125 
L 396.77 22.318125 
L 39.65 22.318125 
z
" style="fill: #ffffff"/>
   </g>
   <g id="matplotlib.axis_1">
    <g id="xtick_1">
     <g id="line2d_1">
      <defs>
       <path id="m79c63e119b" d="M 0 0 
L 0 3.5 
" style="stroke: #000000; stroke-width: 0.8"/>
      </defs>
      <g>
       <use xlink:href="#m79c63e119b" x="55.882727" y="288.430125" style="stroke: #000000; stroke-width: 0.8"/>
      </g>
     </g>
     <g id="text_1">
      <!-- 0 -->
      <g transform="translate(52.701477 303.028562) scale(0.1 -0.1)">
       <defs>
        <path id="DejaVuSans-30" d="M 2034 4250 
Q 1547 4250 1301 3770 
Q 1056 3291 1056 2328 
Q 1056 1369 1301 889 
Q 1547 409 2034 409 
Q 2525 409 2770 889 
Q 3016 1369 3016 2328 
Q 3016 3291 2770 3770 
Q 2525 4250 2034 4250 
z
M 2034 4750 
Q 2819 4750 3233 4129 
Q 3647 3509 3647 2328 
Q 3647 1150 3233 529 
Q 2819 -91 2034 -91 
Q 1250 -91 836 529 
Q 422 1150 422 2328 
Q 422 3509 836 4129 
Q 1250 4750 2034 4750 
z
" transform="scale(0.015625)"/>
       </defs>
       <use xlink:href="#DejaVuSans-30"/>
      </g>
     </g>
    </g>
    <g id="xtick_2">
     <g id="line2d_2">
      <g>
       <use xlink:href="#m79c63e119b" x="99.402103" y="288.430125" style="stroke: #000000; stroke-width: 0.8"/>
      </g>
     </g>
     <g id="text_2">
      <!-- 50 -->
      <g transform="translate(93.039603 303.028562) scale(0.1 -0.1)">
       <defs>
        <path id="DejaVuSans-35" d="M 691 4666 
L 3169 4666 
L 3169 4134 
L 1269 4134 
L 1269 2991 
Q 1406 3038 1543 3061 
Q 1681 3084 1819 3084 
Q 2600 3084 3056 2656 
Q 3513 2228 3513 1497 
Q 3513 744 3044 326 
Q 2575 -91 1722 -91 
Q 1428 -91 1123 -41 
Q 819 9 494 109 
L 494 744 
Q 775 591 1075 516 
Q 1375 441 1709 441 
Q 2250 441 2565 725 
Q 2881 1009 2881 1497 
Q 2881 1984 2565 2268 
Q 2250 2553 1709 2553 
Q 1456 2553 1204 2497 
Q 953 2441 691 2322 
L 691 4666 
z
" transform="scale(0.015625)"/>
       </defs>
       <use xlink:href="#DejaVuSans-35"/>
       <use xlink:href="#DejaVuSans-30" x="63.623047"/>
      </g>
     </g>
    </g>
    <g id="xtick_3">
     <g id="line2d_3">
      <g>
       <use xlink:href="#m79c63e119b" x="142.921479" y="288.430125" style="stroke: #000000; stroke-width: 0.8"/>
      </g>
     </g>
     <g id="text_3">
      <!-- 100 -->
      <g transform="translate(133.377729 303.028562) scale(0.1 -0.1)">
       <defs>
        <path id="DejaVuSans-31" d="M 794 531 
L 1825 531 
L 1825 4091 
L 703 3866 
L 703 4441 
L 1819 4666 
L 2450 4666 
L 2450 531 
L 3481 531 
L 3481 0 
L 794 0 
L 794 531 
z
" transform="scale(0.015625)"/>
       </defs>
       <use xlink:href="#DejaVuSans-31"/>
       <use xlink:href="#DejaVuSans-30" x="63.623047"/>
       <use xlink:href="#DejaVuSans-30" x="127.246094"/>
      </g>
     </g>
    </g>
    <g id="xtick_4">
     <g id="line2d_4">
      <g>
       <use xlink:href="#m79c63e119b" x="186.440855" y="288.430125" style="stroke: #000000; stroke-width: 0.8"/>
      </g>
     </g>
     <g id="text_4">
      <!-- 150 -->
      <g transform="translate(176.897105 303.028562) scale(0.1 -0.1)">
       <use xlink:href="#DejaVuSans-31"/>
       <use xlink:href="#DejaVuSans-35" x="63.623047"/>
       <use xlink:href="#DejaVuSans-30" x="127.246094"/>
      </g>
     </g>
    </g>
    <g id="xtick_5">
     <g id="line2d_5">
      <g>
       <use xlink:href="#m79c63e119b" x="229.960232" y="288.430125" style="stroke: #000000; stroke-width: 0.8"/>
      </g>
     </g>
     <g id="text_5">
      <!-- 200 -->
      <g transform="translate(220.416482 303.028562) scale(0.1 -0.1)">
       <defs>
        <path id="DejaVuSans-32" d="M 1228 531 
L 3431 531 
L 3431 0 
L 469 0 
L 469 531 
Q 828 903 1448 1529 
Q 2069 2156 2228 2338 
Q 2531 2678 2651 2914 
Q 2772 3150 2772 3378 
Q 2772 3750 2511 3984 
Q 2250 4219 1831 4219 
Q 1534 4219 1204 4116 
Q 875 4013 500 3803 
L 500 4441 
Q 881 4594 1212 4672 
Q 1544 4750 1819 4750 
Q 2544 4750 2975 4387 
Q 3406 4025 3406 3419 
Q 3406 3131 3298 2873 
Q 3191 2616 2906 2266 
Q 2828 2175 2409 1742 
Q 1991 1309 1228 531 
z
" transform="scale(0.015625)"/>
       </defs>
       <use xlink:href="#DejaVuSans-32"/>
       <use xlink:href="#DejaVuSans-30" x="63.623047"/>
       <use xlink:href="#DejaVuSans-30" x="127.246094"/>
      </g>
     </g>
    </g>
    <g id="xtick_6">
     <g id="line2d_6">
      <g>
       <use xlink:href="#m79c63e119b" x="273.479608" y="288.430125" style="stroke: #000000; stroke-width: 0.8"/>
      </g>
     </g>
     <g id="text_6">
      <!-- 250 -->
      <g transform="translate(263.935858 303.028562) scale(0.1 -0.1)">
       <use xlink:href="#DejaVuSans-32"/>
       <use xlink:href="#DejaVuSans-35" x="63.623047"/>
       <use xlink:href="#DejaVuSans-30" x="127.246094"/>
      </g>
     </g>
    </g>
    <g id="xtick_7">
     <g id="line2d_7">
      <g>
       <use xlink:href="#m79c63e119b" x="316.998984" y="288.430125" style="stroke: #000000; stroke-width: 0.8"/>
      </g>
     </g>
     <g id="text_7">
      <!-- 300 -->
      <g transform="translate(307.455234 303.028562) scale(0.1 -0.1)">
       <defs>
        <path id="DejaVuSans-33" d="M 2597 2516 
Q 3050 2419 3304 2112 
Q 3559 1806 3559 1356 
Q 3559 666 3084 287 
Q 2609 -91 1734 -91 
Q 1441 -91 1130 -33 
Q 819 25 488 141 
L 488 750 
Q 750 597 1062 519 
Q 1375 441 1716 441 
Q 2309 441 2620 675 
Q 2931 909 2931 1356 
Q 2931 1769 2642 2001 
Q 2353 2234 1838 2234 
L 1294 2234 
L 1294 2753 
L 1863 2753 
Q 2328 2753 2575 2939 
Q 2822 3125 2822 3475 
Q 2822 3834 2567 4026 
Q 2313 4219 1838 4219 
Q 1578 4219 1281 4162 
Q 984 4106 628 3988 
L 628 4550 
Q 988 4650 1302 4700 
Q 1616 4750 1894 4750 
Q 2613 4750 3031 4423 
Q 3450 4097 3450 3541 
Q 3450 3153 3228 2886 
Q 3006 2619 2597 2516 
z
" transform="scale(0.015625)"/>
       </defs>
       <use xlink:href="#DejaVuSans-33"/>
       <use xlink:href="#DejaVuSans-30" x="63.623047"/>
       <use xlink:href="#DejaVuSans-30" x="127.246094"/>
      </g>
     </g>
    </g>
    <g id="xtick_8">
     <g id="line2d_8">
      <g>
       <use xlink:href="#m79c63e119b" x="360.51836" y="288.430125" style="stroke: #000000; stroke-width: 0.8"/>
      </g>
     </g>
     <g id="text_8">
      <!-- 350 -->
      <g transform="translate(350.97461 303.028562) scale(0.1 -0.1)">
       <use xlink:href="#DejaVuSans-33"/>
       <use xlink:href="#DejaVuSans-35" x="63.623047"/>
       <use xlink:href="#DejaVuSans-30" x="127.246094"/>
      </g>
     </g>
    </g>
   </g>
   <g id="matplotlib.axis_2">
    <g id="ytick_1">
     <g id="line2d_9">
      <defs>
       <path id="mc354084bc0" d="M 0 0 
L -3.5 0 
" style="stroke: #000000; stroke-width: 0.8"/>
      </defs>
      <g>
       <use xlink:href="#mc354084bc0" x="39.65" y="275.427611" style="stroke: #000000; stroke-width: 0.8"/>
      </g>
     </g>
     <g id="text_9">
      <!-- 0 -->
      <g transform="translate(26.2875 279.22683) scale(0.1 -0.1)">
       <use xlink:href="#DejaVuSans-30"/>
      </g>
     </g>
    </g>
    <g id="ytick_2">
     <g id="line2d_10">
      <g>
       <use xlink:href="#mc354084bc0" x="39.65" y="235.36909" style="stroke: #000000; stroke-width: 0.8"/>
      </g>
     </g>
     <g id="text_10">
      <!-- 1000 -->
      <g transform="translate(7.2 239.168309) scale(0.1 -0.1)">
       <use xlink:href="#DejaVuSans-31"/>
       <use xlink:href="#DejaVuSans-30" x="63.623047"/>
       <use xlink:href="#DejaVuSans-30" x="127.246094"/>
       <use xlink:href="#DejaVuSans-30" x="190.869141"/>
      </g>
     </g>
    </g>
    <g id="ytick_3">
     <g id="line2d_11">
      <g>
       <use xlink:href="#mc354084bc0" x="39.65" y="195.31057" style="stroke: #000000; stroke-width: 0.8"/>
      </g>
     </g>
     <g id="text_11">
      <!-- 2000 -->
      <g transform="translate(7.2 199.109789) scale(0.1 -0.1)">
       <use xlink:href="#DejaVuSans-32"/>
       <use xlink:href="#DejaVuSans-30" x="63.623047"/>
       <use xlink:href="#DejaVuSans-30" x="127.246094"/>
       <use xlink:href="#DejaVuSans-30" x="190.869141"/>
      </g>
     </g>
    </g>
    <g id="ytick_4">
     <g id="line2d_12">
      <g>
       <use xlink:href="#mc354084bc0" x="39.65" y="155.252049" style="stroke: #000000; stroke-width: 0.8"/>
      </g>
     </g>
     <g id="text_12">
      <!-- 3000 -->
      <g transform="translate(7.2 159.051268) scale(0.1 -0.1)">
       <use xlink:href="#DejaVuSans-33"/>
       <use xlink:href="#DejaVuSans-30" x="63.623047"/>
       <use xlink:href="#DejaVuSans-30" x="127.246094"/>
       <use xlink:href="#DejaVuSans-30" x="190.869141"/>
      </g>
     </g>
    </g>
    <g id="ytick_5">
     <g id="line2d_13">
      <g>
       <use xlink:href="#mc354084bc0" x="39.65" y="115.193529" style="stroke: #000000; stroke-width: 0.8"/>
      </g>
     </g>
     <g id="text_13">
      <!-- 4000 -->
      <g transform="translate(7.2 118.992748) scale(0.1 -0.1)">
       <defs>
        <path id="DejaVuSans-34" d="M 2419 4116 
L 825 1625 
L 2419 1625 
L 2419 4116 
z
M 2253 4666 
L 3047 4666 
L 3047 1625 
L 3713 1625 
L 3713 1100 
L 3047 1100 
L 3047 0 
L 2419 0 
L 2419 1100 
L 313 1100 
L 313 1709 
L 2253 4666 
z
" transform="scale(0.015625)"/>
       </defs>
       <use xlink:href="#DejaVuSans-34"/>
       <use xlink:href="#DejaVuSans-30" x="63.623047"/>
       <use xlink:href="#DejaVuSans-30" x="127.246094"/>
       <use xlink:href="#DejaVuSans-30" x="190.869141"/>
      </g>
     </g>
    </g>
    <g id="ytick_6">
     <g id="line2d_14">
      <g>
       <use xlink:href="#mc354084bc0" x="39.65" y="75.135009" style="stroke: #000000; stroke-width: 0.8"/>
      </g>
     </g>
     <g id="text_14">
      <!-- 5000 -->
      <g transform="translate(7.2 78.934227) scale(0.1 -0.1)">
       <use xlink:href="#DejaVuSans-35"/>
       <use xlink:href="#DejaVuSans-30" x="63.623047"/>
       <use xlink:href="#DejaVuSans-30" x="127.246094"/>
       <use xlink:href="#DejaVuSans-30" x="190.869141"/>
      </g>
     </g>
    </g>
    <g id="ytick_7">
     <g id="line2d_15">
      <g>
       <use xlink:href="#mc354084bc0" x="39.65" y="35.076488" style="stroke: #000000; stroke-width: 0.8"/>
      </g>
     </g>
     <g id="text_15">
      <!-- 6000 -->
      <g transform="translate(7.2 38.875707) scale(0.1 -0.1)">
       <defs>
        <path id="DejaVuSans-36" d="M 2113 2584 
Q 1688 2584 1439 2293 
Q 1191 2003 1191 1497 
Q 1191 994 1439 701 
Q 1688 409 2113 409 
Q 2538 409 2786 701 
Q 3034 994 3034 1497 
Q 3034 2003 2786 2293 
Q 2538 2584 2113 2584 
z
M 3366 4563 
L 3366 3988 
Q 3128 4100 2886 4159 
Q 2644 4219 2406 4219 
Q 1781 4219 1451 3797 
Q 1122 3375 1075 2522 
Q 1259 2794 1537 2939 
Q 1816 3084 2150 3084 
Q 2853 3084 3261 2657 
Q 3669 2231 3669 1497 
Q 3669 778 3244 343 
Q 2819 -91 2113 -91 
Q 1303 -91 875 529 
Q 447 1150 447 2328 
Q 447 3434 972 4092 
Q 1497 4750 2381 4750 
Q 2619 4750 2861 4703 
Q 3103 4656 3366 4563 
z
" transform="scale(0.015625)"/>
       </defs>
       <use xlink:href="#DejaVuSans-36"/>
       <use xlink:href="#DejaVuSans-30" x="63.623047"/>
       <use xlink:href="#DejaVuSans-30" x="127.246094"/>
       <use xlink:href="#DejaVuSans-30" x="190.869141"/>
      </g>
     </g>
    </g>
   </g>
   <g id="line2d_16">
    <path d="M 55.882727 275.427611 
L 66.327378 275.427611 
L 67.197765 266.940734 
L 68.068153 262.113425 
L 68.93854 258.927577 
L 69.808928 260.118913 
L 70.679315 266.375979 
L 71.549703 240.102927 
L 72.42009 252.390762 
L 73.290478 272.270073 
L 74.160865 273.133423 
L 75.031253 275.427611 
L 75.90164 275.427611 
L 76.772028 266.836709 
L 77.642415 269.135414 
L 78.512803 249.524901 
L 79.38319 214.033478 
L 80.253578 232.814684 
L 81.123965 236.874109 
L 81.994353 263.730923 
L 82.86474 272.380431 
L 83.735128 274.967686 
L 84.605515 275.427611 
L 85.475903 275.427611 
L 86.346291 272.439276 
L 87.216678 266.43715 
L 88.087066 252.874751 
L 88.957453 255.2794 
L 89.827841 245.008673 
L 90.698228 237.657581 
L 91.568616 257.656921 
L 92.439003 274.231448 
L 93.309391 274.913872 
L 94.179778 275.427611 
L 95.050166 275.427611 
L 95.920553 256.76033 
L 96.790941 251.163283 
L 97.661328 257.170566 
L 98.531716 253.056108 
L 99.402103 255.813904 
L 100.272491 257.482274 
L 101.142878 264.632473 
L 102.013266 274.412325 
L 102.883653 274.750876 
L 103.754041 275.427611 
L 104.624428 275.427611 
L 105.494816 262.659579 
L 106.365204 243.723687 
L 107.235591 252.435194 
L 108.105979 230.253603 
L 108.976366 245.842409 
L 109.846754 245.078258 
L 110.717141 256.703504 
L 111.587529 275.566273 
L 112.457916 274.694938 
L 113.328304 275.427611 
L 114.198691 275.427611 
L 115.069079 256.831473 
L 115.939466 259.074692 
L 116.809854 248.606009 
L 117.680241 249.659288 
L 118.550629 238.985023 
L 119.421016 252.426845 
L 120.291404 259.84608 
L 121.161791 270.952004 
L 122.032179 271.868481 
L 122.902566 275.427611 
L 123.772954 275.427611 
L 124.643341 261.565529 
L 125.513729 260.78846 
L 126.384117 258.537713 
L 127.254504 199.72944 
L 128.124892 233.890915 
L 128.995279 237.565167 
L 129.865667 247.109771 
L 130.736054 274.228574 
L 131.606442 274.546363 
L 132.476829 275.427611 
L 133.347217 275.427611 
L 134.217604 265.74685 
L 135.087992 263.855686 
L 135.958379 239.244993 
L 136.828767 242.534345 
L 137.699154 257.071398 
L 138.569542 253.573769 
L 139.439929 265.863268 
L 140.310317 275.214672 
L 141.180704 274.587771 
L 142.051092 275.427611 
L 142.921479 275.427611 
L 143.791867 260.266692 
L 144.662254 249.810307 
L 145.532642 252.098345 
L 146.403029 248.099059 
L 147.273417 255.825286 
L 148.143805 255.226194 
L 149.014192 262.990402 
L 149.88458 273.019093 
L 150.754967 274.588171 
L 151.625355 275.427611 
L 152.495742 275.427611 
L 153.36613 266.345476 
L 154.236517 247.461489 
L 155.106905 257.688695 
L 155.977292 203.458225 
L 156.84768 200.40737 
L 158.588455 247.51346 
L 159.458842 275.405578 
L 160.32923 273.450746 
L 161.199617 275.427611 
L 162.070005 275.427611 
L 162.940392 261.228087 
L 163.81078 262.085189 
L 164.681167 256.670895 
L 165.551555 244.668315 
L 166.421942 240.209337 
L 167.29233 246.085464 
L 168.162718 267.12864 
L 169.033105 273.801762 
L 170.77388 275.427611 
L 171.644268 275.427611 
L 172.514655 175.562057 
L 173.385043 217.153581 
L 174.25543 220.160368 
L 175.125818 245.912475 
L 175.996205 253.7825 
L 176.866593 255.016021 
L 177.73698 259.538997 
L 178.607368 273.716649 
L 179.477755 275.156873 
L 180.348143 275.427611 
L 181.21853 275.427611 
L 182.088918 266.7341 
L 182.959305 260.985604 
L 183.829693 190.701425 
L 184.70008 236.062553 
L 185.570468 239.384754 
L 186.440855 228.1043 
L 187.311243 261.331988 
L 188.181631 275.436772 
L 189.052018 274.5535 
L 189.922406 275.427611 
L 190.792793 275.427611 
L 191.663181 252.66859 
L 192.533568 258.58756 
L 193.403956 257.463059 
L 194.274343 259.167373 
L 195.144731 254.430082 
L 196.015118 252.819846 
L 196.885506 265.982852 
L 197.755893 275.839376 
L 198.626281 274.269814 
L 199.496668 275.427611 
L 200.367056 275.427611 
L 201.237443 266.673445 
L 202.107831 250.586417 
L 202.978218 249.801562 
L 203.848606 244.193386 
L 204.718993 245.422852 
L 205.589381 256.967964 
L 206.459768 265.246575 
L 207.330156 275.560691 
L 208.200544 275.15761 
L 209.070931 275.427611 
L 209.941319 275.427611 
L 210.811706 239.737188 
L 211.682094 248.169734 
L 212.552481 247.43189 
L 213.422869 250.732435 
L 214.293256 249.285893 
L 215.163644 252.817904 
L 216.034031 262.577479 
L 216.904419 273.678745 
L 217.774806 275.014425 
L 218.645194 275.427611 
L 219.515581 275.427611 
L 220.385969 269.097579 
L 221.256356 266.845395 
L 222.126744 257.891794 
L 222.997131 253.162703 
L 223.867519 255.590938 
L 224.737906 253.344553 
L 225.608294 263.99304 
L 226.478681 244.530026 
L 227.349069 247.00526 
L 228.219456 275.427611 
L 229.089844 275.427611 
L 229.960232 272.201211 
L 230.830619 265.687703 
L 231.701007 254.991728 
L 232.571394 252.606619 
L 233.441782 254.832646 
L 234.312169 261.28292 
L 235.182557 263.939114 
L 236.052944 274.68223 
L 236.923332 272.867763 
L 237.793719 275.427611 
L 238.664107 275.427611 
L 239.534494 252.934867 
L 240.404882 257.438622 
L 241.275269 260.138204 
L 242.145657 244.981617 
L 243.016044 254.237269 
L 243.886432 230.056171 
L 244.756819 263.938193 
L 245.627207 275.036365 
L 246.497594 274.830612 
L 247.367982 275.427611 
L 248.238369 275.427611 
L 249.108757 270.709096 
L 249.979145 257.80976 
L 250.849532 251.961077 
L 251.71992 256.37204 
L 252.590307 248.414549 
L 253.460695 258.194251 
L 255.20147 274.245788 
L 256.071857 275.315988 
L 257.812632 275.427611 
L 258.68302 217.5499 
L 259.553407 254.40755 
L 260.423795 240.776472 
L 261.294182 247.804155 
L 263.034957 255.715314 
L 263.905345 263.058315 
L 264.775732 266.504424 
L 265.64612 267.537944 
L 266.516507 275.427611 
L 267.386895 275.427611 
L 268.257282 264.600881 
L 269.12767 255.777768 
L 269.998058 137.904747 
L 270.868445 204.500514 
L 271.738833 202.795336 
L 272.60922 245.17247 
L 273.479608 263.744373 
L 274.349995 275.512648 
L 275.220383 275.099856 
L 276.09077 275.427611 
L 276.961158 275.427611 
L 277.831545 254.449836 
L 278.701933 258.495325 
L 279.57232 34.414125 
L 280.442708 197.276259 
L 281.313095 143.448243 
L 282.183483 186.767723 
L 283.05387 207.685497 
L 283.924258 273.432716 
L 284.794645 274.192764 
L 285.665033 275.427611 
L 286.53542 275.427611 
L 287.405808 261.609285 
L 288.276195 251.348107 
L 289.146583 264.207467 
L 290.016971 251.461437 
L 290.887358 259.732535 
L 291.757746 259.819905 
L 292.628133 263.396459 
L 293.498521 276.334125 
L 294.368908 273.593796 
L 295.239296 275.427611 
L 296.109683 275.427611 
L 296.980071 267.035565 
L 297.850458 266.049312 
L 298.720846 261.748699 
L 299.591233 254.70839 
L 300.461621 258.881225 
L 301.332008 252.178929 
L 303.072783 274.63929 
L 303.943171 275.46783 
L 305.683946 275.427611 
L 306.554333 259.383532 
L 307.424721 263.416438 
L 308.295108 261.727483 
L 309.165496 241.991798 
L 310.035883 236.296938 
L 310.906271 246.928631 
L 311.776659 263.09531 
L 312.647046 266.679121 
L 313.517434 266.679682 
L 314.387821 275.427611 
L 315.258209 275.427611 
L 316.128596 271.248591 
L 317.869371 251.3397 
L 318.739759 242.632011 
L 319.610146 247.708358 
L 320.480534 237.842065 
L 321.350921 260.807284 
L 322.221309 273.692889 
L 323.091696 273.496655 
L 323.962084 275.427611 
L 324.832471 275.427611 
L 325.702859 255.734544 
L 326.573246 259.42337 
L 327.443634 264.716946 
L 329.184409 260.261846 
L 330.054796 255.468771 
L 330.925184 266.037198 
L 331.795572 273.094364 
L 332.665959 273.111109 
L 333.536347 275.427611 
L 334.406734 275.427611 
L 335.277122 264.251474 
L 336.147509 265.485351 
L 337.017897 248.828775 
L 337.888284 238.755645 
L 338.758672 253.730128 
L 339.629059 252.775985 
L 340.499447 258.199977 
L 341.369834 274.618318 
L 343.110609 275.427611 
L 343.980997 275.427611 
L 344.851384 260.27822 
L 345.721772 258.026393 
L 346.592159 260.140765 
L 348.332934 238.944416 
L 349.203322 253.872667 
L 350.073709 263.374251 
L 350.944097 275.892491 
L 351.814485 276.102829 
L 352.684872 275.427611 
L 353.55526 275.427611 
L 354.425647 262.332888 
L 355.296035 263.899307 
L 356.166422 252.537147 
L 357.03681 247.514138 
L 357.907197 234.880092 
L 358.777585 235.591262 
L 359.647972 239.039597 
L 360.51836 273.429963 
L 362.259135 275.427611 
L 363.129522 275.427611 
L 363.99991 267.118793 
L 364.870297 264.41035 
L 365.740685 36.150685 
L 366.611072 183.656159 
L 367.48146 169.928458 
L 368.351847 185.984121 
L 369.222235 223.730056 
L 370.092622 271.997429 
L 370.96301 272.634141 
L 371.833398 275.427611 
L 372.703785 275.427611 
L 373.574173 256.221056 
L 374.44456 244.439251 
L 375.314948 256.088325 
L 376.185335 248.198856 
L 377.055723 257.357788 
L 377.92611 251.947959 
L 378.796498 263.727212 
L 379.666885 273.21224 
L 380.537273 274.216074 
L 380.537273 274.216074 
" clip-path="url(#p158f6a45d4)" style="fill: none; stroke: #1f77b4; stroke-width: 1.5; stroke-linecap: square"/>
   </g>
   <g id="patch_3">
    <path d="M 39.65 288.430125 
L 39.65 22.318125 
" style="fill: none; stroke: #000000; stroke-width: 0.8; stroke-linejoin: miter; stroke-linecap: square"/>
   </g>
   <g id="patch_4">
    <path d="M 396.77 288.430125 
L 396.77 22.318125 
" style="fill: none; stroke: #000000; stroke-width: 0.8; stroke-linejoin: miter; stroke-linecap: square"/>
   </g>
   <g id="patch_5">
    <path d="M 39.65 288.430125 
L 396.77 288.430125 
" style="fill: none; stroke: #000000; stroke-width: 0.8; stroke-linejoin: miter; stroke-linecap: square"/>
   </g>
   <g id="patch_6">
    <path d="M 39.65 22.318125 
L 396.77 22.318125 
" style="fill: none; stroke: #000000; stroke-width: 0.8; stroke-linejoin: miter; stroke-linecap: square"/>
   </g>
   <g id="text_16">
    <!-- Fast Flux -->
    <g transform="translate(191.773438 16.318125) scale(0.12 -0.12)">
     <defs>
      <path id="DejaVuSans-46" d="M 628 4666 
L 3309 4666 
L 3309 4134 
L 1259 4134 
L 1259 2759 
L 3109 2759 
L 3109 2228 
L 1259 2228 
L 1259 0 
L 628 0 
L 628 4666 
z
" transform="scale(0.015625)"/>
      <path id="DejaVuSans-61" d="M 2194 1759 
Q 1497 1759 1228 1600 
Q 959 1441 959 1056 
Q 959 750 1161 570 
Q 1363 391 1709 391 
Q 2188 391 2477 730 
Q 2766 1069 2766 1631 
L 2766 1759 
L 2194 1759 
z
M 3341 1997 
L 3341 0 
L 2766 0 
L 2766 531 
Q 2569 213 2275 61 
Q 1981 -91 1556 -91 
Q 1019 -91 701 211 
Q 384 513 384 1019 
Q 384 1609 779 1909 
Q 1175 2209 1959 2209 
L 2766 2209 
L 2766 2266 
Q 2766 2663 2505 2880 
Q 2244 3097 1772 3097 
Q 1472 3097 1187 3025 
Q 903 2953 641 2809 
L 641 3341 
Q 956 3463 1253 3523 
Q 1550 3584 1831 3584 
Q 2591 3584 2966 3190 
Q 3341 2797 3341 1997 
z
" transform="scale(0.015625)"/>
      <path id="DejaVuSans-73" d="M 2834 3397 
L 2834 2853 
Q 2591 2978 2328 3040 
Q 2066 3103 1784 3103 
Q 1356 3103 1142 2972 
Q 928 2841 928 2578 
Q 928 2378 1081 2264 
Q 1234 2150 1697 2047 
L 1894 2003 
Q 2506 1872 2764 1633 
Q 3022 1394 3022 966 
Q 3022 478 2636 193 
Q 2250 -91 1575 -91 
Q 1294 -91 989 -36 
Q 684 19 347 128 
L 347 722 
Q 666 556 975 473 
Q 1284 391 1588 391 
Q 1994 391 2212 530 
Q 2431 669 2431 922 
Q 2431 1156 2273 1281 
Q 2116 1406 1581 1522 
L 1381 1569 
Q 847 1681 609 1914 
Q 372 2147 372 2553 
Q 372 3047 722 3315 
Q 1072 3584 1716 3584 
Q 2034 3584 2315 3537 
Q 2597 3491 2834 3397 
z
" transform="scale(0.015625)"/>
      <path id="DejaVuSans-74" d="M 1172 4494 
L 1172 3500 
L 2356 3500 
L 2356 3053 
L 1172 3053 
L 1172 1153 
Q 1172 725 1289 603 
Q 1406 481 1766 481 
L 2356 481 
L 2356 0 
L 1766 0 
Q 1100 0 847 248 
Q 594 497 594 1153 
L 594 3053 
L 172 3053 
L 172 3500 
L 594 3500 
L 594 4494 
L 1172 4494 
z
" transform="scale(0.015625)"/>
      <path id="DejaVuSans-20" transform="scale(0.015625)"/>
      <path id="DejaVuSans-6c" d="M 603 4863 
L 1178 4863 
L 1178 0 
L 603 0 
L 603 4863 
z
" transform="scale(0.015625)"/>
      <path id="DejaVuSans-75" d="M 544 1381 
L 544 3500 
L 1119 3500 
L 1119 1403 
Q 1119 906 1312 657 
Q 1506 409 1894 409 
Q 2359 409 2629 706 
Q 2900 1003 2900 1516 
L 2900 3500 
L 3475 3500 
L 3475 0 
L 2900 0 
L 2900 538 
Q 2691 219 2414 64 
Q 2138 -91 1772 -91 
Q 1169 -91 856 284 
Q 544 659 544 1381 
z
M 1991 3584 
L 1991 3584 
z
" transform="scale(0.015625)"/>
      <path id="DejaVuSans-78" d="M 3513 3500 
L 2247 1797 
L 3578 0 
L 2900 0 
L 1881 1375 
L 863 0 
L 184 0 
L 1544 1831 
L 300 3500 
L 978 3500 
L 1906 2253 
L 2834 3500 
L 3513 3500 
z
" transform="scale(0.015625)"/>
     </defs>
     <use xlink:href="#DejaVuSans-46"/>
     <use xlink:href="#DejaVuSans-61" x="48.394531"/>
     <use xlink:href="#DejaVuSans-73" x="109.673828"/>
     <use xlink:href="#DejaVuSans-74" x="161.773438"/>
     <use xlink:href="#DejaVuSans-20" x="200.982422"/>
     <use xlink:href="#DejaVuSans-46" x="232.769531"/>
     <use xlink:href="#DejaVuSans-6c" x="290.289062"/>
     <use xlink:href="#DejaVuSans-75" x="318.072266"/>
     <use xlink:href="#DejaVuSans-78" x="381.451172"/>
    </g>
   </g>
  </g>
 </g>
 <defs>
  <clipPath id="p158f6a45d4">
   <rect x="39.65" y="22.318125" width="357.12" height="266.112"/>
  </clipPath>
 </defs>
</svg>
