<?xml version="1.0" encoding="utf-8" standalone="no"?>
<!DOCTYPE svg PUBLIC "-//W3C//DTD SVG 1.1//EN"
  "http://www.w3.org/Graphics/SVG/1.1/DTD/svg11.dtd">
<svg xmlns:xlink="http://www.w3.org/1999/xlink" width="397.6075pt" height="312.30825pt" viewBox="0 0 397.6075 312.30825" xmlns="http://www.w3.org/2000/svg" version="1.1">
 <metadata>
  <rdf:RDF xmlns:dc="http://purl.org/dc/elements/1.1/" xmlns:cc="http://creativecommons.org/ns#" xmlns:rdf="http://www.w3.org/1999/02/22-rdf-syntax-ns#">
   <cc:Work>
    <dc:type rdf:resource="http://purl.org/dc/dcmitype/StillImage"/>
    <dc:date>2024-03-15T12:29:39.407443</dc:date>
    <dc:format>image/svg+xml</dc:format>
    <dc:creator>
     <cc:Agent>
      <dc:title>Matplotlib v3.8.3, https://matplotlib.org/</dc:title>
     </cc:Agent>
    </dc:creator>
   </cc:Work>
  </rdf:RDF>
 </metadata>
 <defs>
  <style type="text/css">*{stroke-linejoin: round; stroke-linecap: butt}</style>
 </defs>
 <g id="figure_1">
  <g id="patch_1">
   <path d="M 0 312.30825 
L 397.6075 312.30825 
L 397.6075 0 
L 0 0 
z
" style="fill: #ffffff"/>
  </g>
  <g id="axes_1">
   <g id="patch_2">
    <path d="M 33.2875 288.430125 
L 390.4075 288.430125 
L 390.4075 22.318125 
L 33.2875 22.318125 
z
" style="fill: #ffffff"/>
   </g>
   <g id="matplotlib.axis_1">
    <g id="xtick_1">
     <g id="line2d_1">
      <defs>
       <path id="m65f16206e1" d="M 0 0 
L 0 3.5 
" style="stroke: #000000; stroke-width: 0.8"/>
      </defs>
      <g>
       <use xlink:href="#m65f16206e1" x="49.520227" y="288.430125" style="stroke: #000000; stroke-width: 0.8"/>
      </g>
     </g>
     <g id="text_1">
      <!-- 0 -->
      <g transform="translate(46.338977 303.028562) scale(0.1 -0.1)">
       <defs>
        <path id="DejaVuSans-30" d="M 2034 4250 
Q 1547 4250 1301 3770 
Q 1056 3291 1056 2328 
Q 1056 1369 1301 889 
Q 1547 409 2034 409 
Q 2525 409 2770 889 
Q 3016 1369 3016 2328 
Q 3016 3291 2770 3770 
Q 2525 4250 2034 4250 
z
M 2034 4750 
Q 2819 4750 3233 4129 
Q 3647 3509 3647 2328 
Q 3647 1150 3233 529 
Q 2819 -91 2034 -91 
Q 1250 -91 836 529 
Q 422 1150 422 2328 
Q 422 3509 836 4129 
Q 1250 4750 2034 4750 
z
" transform="scale(0.015625)"/>
       </defs>
       <use xlink:href="#DejaVuSans-30"/>
      </g>
     </g>
    </g>
    <g id="xtick_2">
     <g id="line2d_2">
      <g>
       <use xlink:href="#m65f16206e1" x="93.039603" y="288.430125" style="stroke: #000000; stroke-width: 0.8"/>
      </g>
     </g>
     <g id="text_2">
      <!-- 50 -->
      <g transform="translate(86.677103 303.028562) scale(0.1 -0.1)">
       <defs>
        <path id="DejaVuSans-35" d="M 691 4666 
L 3169 4666 
L 3169 4134 
L 1269 4134 
L 1269 2991 
Q 1406 3038 1543 3061 
Q 1681 3084 1819 3084 
Q 2600 3084 3056 2656 
Q 3513 2228 3513 1497 
Q 3513 744 3044 326 
Q 2575 -91 1722 -91 
Q 1428 -91 1123 -41 
Q 819 9 494 109 
L 494 744 
Q 775 591 1075 516 
Q 1375 441 1709 441 
Q 2250 441 2565 725 
Q 2881 1009 2881 1497 
Q 2881 1984 2565 2268 
Q 2250 2553 1709 2553 
Q 1456 2553 1204 2497 
Q 953 2441 691 2322 
L 691 4666 
z
" transform="scale(0.015625)"/>
       </defs>
       <use xlink:href="#DejaVuSans-35"/>
       <use xlink:href="#DejaVuSans-30" x="63.623047"/>
      </g>
     </g>
    </g>
    <g id="xtick_3">
     <g id="line2d_3">
      <g>
       <use xlink:href="#m65f16206e1" x="136.558979" y="288.430125" style="stroke: #000000; stroke-width: 0.8"/>
      </g>
     </g>
     <g id="text_3">
      <!-- 100 -->
      <g transform="translate(127.015229 303.028562) scale(0.1 -0.1)">
       <defs>
        <path id="DejaVuSans-31" d="M 794 531 
L 1825 531 
L 1825 4091 
L 703 3866 
L 703 4441 
L 1819 4666 
L 2450 4666 
L 2450 531 
L 3481 531 
L 3481 0 
L 794 0 
L 794 531 
z
" transform="scale(0.015625)"/>
       </defs>
       <use xlink:href="#DejaVuSans-31"/>
       <use xlink:href="#DejaVuSans-30" x="63.623047"/>
       <use xlink:href="#DejaVuSans-30" x="127.246094"/>
      </g>
     </g>
    </g>
    <g id="xtick_4">
     <g id="line2d_4">
      <g>
       <use xlink:href="#m65f16206e1" x="180.078355" y="288.430125" style="stroke: #000000; stroke-width: 0.8"/>
      </g>
     </g>
     <g id="text_4">
      <!-- 150 -->
      <g transform="translate(170.534605 303.028562) scale(0.1 -0.1)">
       <use xlink:href="#DejaVuSans-31"/>
       <use xlink:href="#DejaVuSans-35" x="63.623047"/>
       <use xlink:href="#DejaVuSans-30" x="127.246094"/>
      </g>
     </g>
    </g>
    <g id="xtick_5">
     <g id="line2d_5">
      <g>
       <use xlink:href="#m65f16206e1" x="223.597732" y="288.430125" style="stroke: #000000; stroke-width: 0.8"/>
      </g>
     </g>
     <g id="text_5">
      <!-- 200 -->
      <g transform="translate(214.053982 303.028562) scale(0.1 -0.1)">
       <defs>
        <path id="DejaVuSans-32" d="M 1228 531 
L 3431 531 
L 3431 0 
L 469 0 
L 469 531 
Q 828 903 1448 1529 
Q 2069 2156 2228 2338 
Q 2531 2678 2651 2914 
Q 2772 3150 2772 3378 
Q 2772 3750 2511 3984 
Q 2250 4219 1831 4219 
Q 1534 4219 1204 4116 
Q 875 4013 500 3803 
L 500 4441 
Q 881 4594 1212 4672 
Q 1544 4750 1819 4750 
Q 2544 4750 2975 4387 
Q 3406 4025 3406 3419 
Q 3406 3131 3298 2873 
Q 3191 2616 2906 2266 
Q 2828 2175 2409 1742 
Q 1991 1309 1228 531 
z
" transform="scale(0.015625)"/>
       </defs>
       <use xlink:href="#DejaVuSans-32"/>
       <use xlink:href="#DejaVuSans-30" x="63.623047"/>
       <use xlink:href="#DejaVuSans-30" x="127.246094"/>
      </g>
     </g>
    </g>
    <g id="xtick_6">
     <g id="line2d_6">
      <g>
       <use xlink:href="#m65f16206e1" x="267.117108" y="288.430125" style="stroke: #000000; stroke-width: 0.8"/>
      </g>
     </g>
     <g id="text_6">
      <!-- 250 -->
      <g transform="translate(257.573358 303.028562) scale(0.1 -0.1)">
       <use xlink:href="#DejaVuSans-32"/>
       <use xlink:href="#DejaVuSans-35" x="63.623047"/>
       <use xlink:href="#DejaVuSans-30" x="127.246094"/>
      </g>
     </g>
    </g>
    <g id="xtick_7">
     <g id="line2d_7">
      <g>
       <use xlink:href="#m65f16206e1" x="310.636484" y="288.430125" style="stroke: #000000; stroke-width: 0.8"/>
      </g>
     </g>
     <g id="text_7">
      <!-- 300 -->
      <g transform="translate(301.092734 303.028562) scale(0.1 -0.1)">
       <defs>
        <path id="DejaVuSans-33" d="M 2597 2516 
Q 3050 2419 3304 2112 
Q 3559 1806 3559 1356 
Q 3559 666 3084 287 
Q 2609 -91 1734 -91 
Q 1441 -91 1130 -33 
Q 819 25 488 141 
L 488 750 
Q 750 597 1062 519 
Q 1375 441 1716 441 
Q 2309 441 2620 675 
Q 2931 909 2931 1356 
Q 2931 1769 2642 2001 
Q 2353 2234 1838 2234 
L 1294 2234 
L 1294 2753 
L 1863 2753 
Q 2328 2753 2575 2939 
Q 2822 3125 2822 3475 
Q 2822 3834 2567 4026 
Q 2313 4219 1838 4219 
Q 1578 4219 1281 4162 
Q 984 4106 628 3988 
L 628 4550 
Q 988 4650 1302 4700 
Q 1616 4750 1894 4750 
Q 2613 4750 3031 4423 
Q 3450 4097 3450 3541 
Q 3450 3153 3228 2886 
Q 3006 2619 2597 2516 
z
" transform="scale(0.015625)"/>
       </defs>
       <use xlink:href="#DejaVuSans-33"/>
       <use xlink:href="#DejaVuSans-30" x="63.623047"/>
       <use xlink:href="#DejaVuSans-30" x="127.246094"/>
      </g>
     </g>
    </g>
    <g id="xtick_8">
     <g id="line2d_8">
      <g>
       <use xlink:href="#m65f16206e1" x="354.15586" y="288.430125" style="stroke: #000000; stroke-width: 0.8"/>
      </g>
     </g>
     <g id="text_8">
      <!-- 350 -->
      <g transform="translate(344.61211 303.028562) scale(0.1 -0.1)">
       <use xlink:href="#DejaVuSans-33"/>
       <use xlink:href="#DejaVuSans-35" x="63.623047"/>
       <use xlink:href="#DejaVuSans-30" x="127.246094"/>
      </g>
     </g>
    </g>
   </g>
   <g id="matplotlib.axis_2">
    <g id="ytick_1">
     <g id="line2d_9">
      <defs>
       <path id="m6c469bca7f" d="M 0 0 
L -3.5 0 
" style="stroke: #000000; stroke-width: 0.8"/>
      </defs>
      <g>
       <use xlink:href="#m6c469bca7f" x="33.2875" y="276.334125" style="stroke: #000000; stroke-width: 0.8"/>
      </g>
     </g>
     <g id="text_9">
      <!-- 0 -->
      <g transform="translate(19.925 280.133344) scale(0.1 -0.1)">
       <use xlink:href="#DejaVuSans-30"/>
      </g>
     </g>
    </g>
    <g id="ytick_2">
     <g id="line2d_10">
      <g>
       <use xlink:href="#m6c469bca7f" x="33.2875" y="245.956034" style="stroke: #000000; stroke-width: 0.8"/>
      </g>
     </g>
     <g id="text_10">
      <!-- 50 -->
      <g transform="translate(13.5625 249.755253) scale(0.1 -0.1)">
       <use xlink:href="#DejaVuSans-35"/>
       <use xlink:href="#DejaVuSans-30" x="63.623047"/>
      </g>
     </g>
    </g>
    <g id="ytick_3">
     <g id="line2d_11">
      <g>
       <use xlink:href="#m6c469bca7f" x="33.2875" y="215.577944" style="stroke: #000000; stroke-width: 0.8"/>
      </g>
     </g>
     <g id="text_11">
      <!-- 100 -->
      <g transform="translate(7.2 219.377162) scale(0.1 -0.1)">
       <use xlink:href="#DejaVuSans-31"/>
       <use xlink:href="#DejaVuSans-30" x="63.623047"/>
       <use xlink:href="#DejaVuSans-30" x="127.246094"/>
      </g>
     </g>
    </g>
    <g id="ytick_4">
     <g id="line2d_12">
      <g>
       <use xlink:href="#m6c469bca7f" x="33.2875" y="185.199853" style="stroke: #000000; stroke-width: 0.8"/>
      </g>
     </g>
     <g id="text_12">
      <!-- 150 -->
      <g transform="translate(7.2 188.999072) scale(0.1 -0.1)">
       <use xlink:href="#DejaVuSans-31"/>
       <use xlink:href="#DejaVuSans-35" x="63.623047"/>
       <use xlink:href="#DejaVuSans-30" x="127.246094"/>
      </g>
     </g>
    </g>
    <g id="ytick_5">
     <g id="line2d_13">
      <g>
       <use xlink:href="#m6c469bca7f" x="33.2875" y="154.821762" style="stroke: #000000; stroke-width: 0.8"/>
      </g>
     </g>
     <g id="text_13">
      <!-- 200 -->
      <g transform="translate(7.2 158.620981) scale(0.1 -0.1)">
       <use xlink:href="#DejaVuSans-32"/>
       <use xlink:href="#DejaVuSans-30" x="63.623047"/>
       <use xlink:href="#DejaVuSans-30" x="127.246094"/>
      </g>
     </g>
    </g>
    <g id="ytick_6">
     <g id="line2d_14">
      <g>
       <use xlink:href="#m6c469bca7f" x="33.2875" y="124.443672" style="stroke: #000000; stroke-width: 0.8"/>
      </g>
     </g>
     <g id="text_14">
      <!-- 250 -->
      <g transform="translate(7.2 128.24289) scale(0.1 -0.1)">
       <use xlink:href="#DejaVuSans-32"/>
       <use xlink:href="#DejaVuSans-35" x="63.623047"/>
       <use xlink:href="#DejaVuSans-30" x="127.246094"/>
      </g>
     </g>
    </g>
    <g id="ytick_7">
     <g id="line2d_15">
      <g>
       <use xlink:href="#m6c469bca7f" x="33.2875" y="94.065581" style="stroke: #000000; stroke-width: 0.8"/>
      </g>
     </g>
     <g id="text_15">
      <!-- 300 -->
      <g transform="translate(7.2 97.8648) scale(0.1 -0.1)">
       <use xlink:href="#DejaVuSans-33"/>
       <use xlink:href="#DejaVuSans-30" x="63.623047"/>
       <use xlink:href="#DejaVuSans-30" x="127.246094"/>
      </g>
     </g>
    </g>
    <g id="ytick_8">
     <g id="line2d_16">
      <g>
       <use xlink:href="#m6c469bca7f" x="33.2875" y="63.68749" style="stroke: #000000; stroke-width: 0.8"/>
      </g>
     </g>
     <g id="text_16">
      <!-- 350 -->
      <g transform="translate(7.2 67.486709) scale(0.1 -0.1)">
       <use xlink:href="#DejaVuSans-33"/>
       <use xlink:href="#DejaVuSans-35" x="63.623047"/>
       <use xlink:href="#DejaVuSans-30" x="127.246094"/>
      </g>
     </g>
    </g>
    <g id="ytick_9">
     <g id="line2d_17">
      <g>
       <use xlink:href="#m6c469bca7f" x="33.2875" y="33.3094" style="stroke: #000000; stroke-width: 0.8"/>
      </g>
     </g>
     <g id="text_17">
      <!-- 400 -->
      <g transform="translate(7.2 37.108619) scale(0.1 -0.1)">
       <defs>
        <path id="DejaVuSans-34" d="M 2419 4116 
L 825 1625 
L 2419 1625 
L 2419 4116 
z
M 2253 4666 
L 3047 4666 
L 3047 1625 
L 3713 1625 
L 3713 1100 
L 3047 1100 
L 3047 0 
L 2419 0 
L 2419 1100 
L 313 1100 
L 313 1709 
L 2253 4666 
z
" transform="scale(0.015625)"/>
       </defs>
       <use xlink:href="#DejaVuSans-34"/>
       <use xlink:href="#DejaVuSans-30" x="63.623047"/>
       <use xlink:href="#DejaVuSans-30" x="127.246094"/>
      </g>
     </g>
    </g>
   </g>
   <g id="line2d_18">
    <path d="M 49.520227 276.334125 
L 56.483327 276.334125 
L 57.353715 264.306397 
L 58.224102 260.784992 
L 59.09449 256.041723 
L 59.964878 239.166364 
L 60.835265 56.570744 
L 61.705653 126.394453 
L 62.57604 140.663918 
L 63.446428 147.029541 
L 65.187203 149.202661 
L 66.05759 167.188478 
L 66.927978 263.9447 
L 67.798365 260.615635 
L 68.668753 255.705156 
L 69.53914 231.294574 
L 70.409528 34.414125 
L 71.279915 117.145753 
L 72.150303 137.488591 
L 73.02069 143.279808 
L 73.891078 140.260738 
L 74.761465 143.360207 
L 75.631853 162.313577 
L 76.50224 264.172339 
L 77.372628 260.335372 
L 78.243015 255.18804 
L 79.113403 232.706784 
L 79.983791 72.966724 
L 80.854178 129.510504 
L 81.724566 141.768636 
L 82.594953 146.532749 
L 83.465341 148.438946 
L 84.335728 149.114511 
L 85.206116 168.002519 
L 86.076503 264.840346 
L 86.946891 261.660583 
L 87.817278 257.078153 
L 88.687666 232.180498 
L 89.558053 49.8613 
L 90.428441 123.003576 
L 91.298828 141.499058 
L 92.169216 149.73579 
L 93.039603 148.420214 
L 93.909991 149.108887 
L 94.780378 166.903084 
L 95.650766 264.359211 
L 96.521153 260.932716 
L 97.391541 255.70486 
L 98.261928 228.147253 
L 99.132316 63.883127 
L 100.002704 114.144454 
L 101.743479 143.21209 
L 102.613866 147.492628 
L 103.484254 148.660205 
L 104.354641 165.489006 
L 105.225029 265.689743 
L 106.095416 262.346391 
L 106.965804 257.453811 
L 107.836191 232.569086 
L 108.706579 42.902076 
L 109.576966 119.763972 
L 110.447354 135.947657 
L 111.317741 139.753242 
L 112.188129 137.810136 
L 113.058516 134.808599 
L 113.928904 152.226637 
L 114.799291 264.990188 
L 115.669679 261.670476 
L 116.540066 257.360779 
L 117.410454 231.762265 
L 118.280841 60.456509 
L 119.151229 133.631347 
L 120.021617 145.288287 
L 120.892004 152.357027 
L 121.762392 156.309796 
L 122.632779 158.658508 
L 123.503167 174.786437 
L 124.373554 264.452674 
L 125.243942 261.021863 
L 126.114329 256.469906 
L 126.984717 238.474392 
L 127.855104 39.39725 
L 128.725492 124.763188 
L 129.595879 142.205318 
L 130.466267 146.609776 
L 131.336654 148.377465 
L 132.207042 153.159489 
L 133.077429 170.096876 
L 133.947817 263.754373 
L 134.818204 260.610571 
L 135.688592 256.08757 
L 136.558979 231.188102 
L 137.429367 47.957564 
L 138.299754 117.120596 
L 139.170142 137.281314 
L 140.040529 143.594139 
L 140.910917 145.973575 
L 141.781305 147.929452 
L 142.651692 163.435186 
L 143.52208 265.303897 
L 144.392467 262.231242 
L 145.262855 257.683421 
L 146.133242 235.516184 
L 147.00363 49.453412 
L 147.874017 122.751639 
L 148.744405 141.002895 
L 149.614792 145.482675 
L 151.355567 149.752339 
L 152.225955 165.683294 
L 153.096342 266.337466 
L 153.96673 263.053947 
L 154.837117 258.320455 
L 155.707505 240.743569 
L 156.577892 54.007719 
L 157.44828 124.722309 
L 158.318667 140.54679 
L 160.059442 157.493933 
L 160.92983 162.183811 
L 161.800218 179.16699 
L 162.670605 263.668715 
L 163.540993 260.132216 
L 164.41138 255.677331 
L 165.281768 232.354878 
L 166.152155 69.586644 
L 167.022543 123.182137 
L 167.89293 147.793362 
L 168.763318 153.119949 
L 169.633705 152.56307 
L 170.504093 150.532977 
L 171.37448 167.957197 
L 172.244868 265.743575 
L 173.115255 262.392441 
L 173.985643 257.470693 
L 174.85603 230.34933 
L 175.726418 62.935629 
L 176.596805 132.728989 
L 177.467193 146.838259 
L 178.33758 149.548693 
L 179.207968 147.970256 
L 180.078355 147.3523 
L 180.948743 163.946783 
L 181.819131 265.325383 
L 182.689518 262.046325 
L 183.559906 256.702469 
L 184.430293 237.820844 
L 185.300681 51.827364 
L 186.171068 115.717756 
L 187.041456 124.643942 
L 187.911843 136.782162 
L 188.782231 146.672474 
L 189.652618 146.007378 
L 190.523006 162.473546 
L 191.393393 264.787179 
L 192.263781 261.038062 
L 193.134168 255.413929 
L 194.004556 233.950532 
L 194.874943 39.312847 
L 195.745331 113.490444 
L 196.615718 128.109424 
L 197.486106 139.058565 
L 198.356493 140.43715 
L 199.226881 148.772472 
L 200.097268 166.181971 
L 200.967656 264.649243 
L 201.838044 261.139181 
L 202.708431 256.5498 
L 203.578819 235.85335 
L 204.449206 57.193341 
L 205.319594 125.79582 
L 206.189981 137.207582 
L 207.060369 136.991724 
L 208.801144 142.80473 
L 209.671531 160.351522 
L 210.541919 263.817127 
L 211.412306 260.032369 
L 212.282694 254.434195 
L 213.153081 229.321198 
L 214.023469 64.589573 
L 214.893856 134.256384 
L 215.764244 145.605958 
L 216.634631 149.41681 
L 217.505019 147.22101 
L 218.375406 151.924613 
L 219.245794 167.86253 
L 220.116181 264.743548 
L 221.856956 257.146868 
L 222.727344 233.313499 
L 223.597732 37.243611 
L 224.468119 107.485587 
L 225.338507 126.859671 
L 226.208894 137.531591 
L 227.079282 139.198803 
L 227.949669 136.631328 
L 228.820057 153.84458 
L 229.690444 266.480559 
L 230.560832 263.46389 
L 231.431219 259.123209 
L 232.301607 235.130099 
L 233.171994 59.174697 
L 234.042382 127.706758 
L 234.912769 139.37768 
L 235.783157 140.974558 
L 236.653544 144.173995 
L 237.523932 150.038877 
L 238.394319 168.013136 
L 239.264707 264.279486 
L 240.135094 261.039033 
L 241.005482 256.06114 
L 241.875869 235.447895 
L 242.746257 70.504556 
L 243.616645 130.376457 
L 244.487032 144.574946 
L 245.35742 151.851974 
L 246.227807 152.426847 
L 247.098195 156.567241 
L 247.968582 171.69061 
L 248.83897 263.878052 
L 249.709357 260.461525 
L 250.579745 255.787008 
L 251.450132 235.127043 
L 252.32052 60.99718 
L 253.190907 121.242858 
L 254.061295 142.041919 
L 254.931682 151.781299 
L 255.80207 152.977746 
L 256.672457 150.880746 
L 257.542845 167.058076 
L 258.413232 264.350362 
L 259.28362 260.70713 
L 260.154007 255.681763 
L 261.024395 234.022586 
L 261.894782 78.573264 
L 262.76517 130.694336 
L 263.635558 145.739554 
L 265.376333 146.763024 
L 266.24672 146.646032 
L 267.117108 164.983004 
L 267.987495 264.237603 
L 268.857883 260.916278 
L 269.72827 256.193127 
L 270.598658 226.766673 
L 271.469045 42.805053 
L 272.339433 120.656437 
L 273.20982 136.52755 
L 274.080208 139.621897 
L 274.950595 143.216065 
L 275.820983 144.037101 
L 276.69137 161.675174 
L 277.561758 264.230203 
L 278.432145 260.37398 
L 279.302533 255.747095 
L 280.17292 232.268182 
L 281.043308 51.255554 
L 281.913695 124.516301 
L 282.784083 133.424476 
L 283.654471 139.179004 
L 284.524858 141.534337 
L 285.395246 146.923584 
L 286.265633 164.673284 
L 287.136021 264.326572 
L 288.006408 261.114779 
L 288.876796 256.161093 
L 289.747183 239.674468 
L 290.617571 56.768505 
L 291.487958 126.126053 
L 292.358346 143.270193 
L 293.228733 148.764104 
L 294.099121 149.784722 
L 294.969508 153.38972 
L 295.839896 169.606771 
L 296.710283 264.672304 
L 297.580671 261.407861 
L 298.451058 256.260446 
L 299.321446 233.654891 
L 300.191833 60.26206 
L 301.062221 124.331715 
L 301.932608 142.611514 
L 302.802996 151.479665 
L 303.673383 152.082709 
L 304.543771 158.758723 
L 305.414159 172.523813 
L 306.284546 265.311098 
L 307.154934 262.228842 
L 308.025321 258.406344 
L 308.895709 236.667782 
L 309.766096 43.726795 
L 310.636484 127.303983 
L 311.506871 145.710036 
L 312.377259 149.451487 
L 313.247646 152.388416 
L 314.118034 154.205857 
L 314.988421 170.666902 
L 315.858809 264.430434 
L 316.729196 261.24304 
L 317.599584 256.865431 
L 318.469971 235.430823 
L 319.340359 62.046762 
L 320.210746 119.986203 
L 321.081134 127.537865 
L 321.951521 139.632587 
L 322.821909 140.162869 
L 323.692296 139.956069 
L 324.562684 159.303124 
L 325.433072 263.168441 
L 327.173847 255.225349 
L 328.044234 234.029602 
L 328.914622 57.53038 
L 329.785009 121.335981 
L 330.655397 137.439066 
L 332.396172 147.376788 
L 333.266559 153.498238 
L 334.136947 168.957507 
L 335.007334 264.587297 
L 335.877722 260.739458 
L 336.748109 255.676289 
L 337.618497 233.293928 
L 338.488884 67.482379 
L 339.359272 128.955535 
L 340.229659 145.286837 
L 341.100047 151.274307 
L 341.970434 147.610044 
L 342.840822 149.247583 
L 343.711209 165.140874 
L 344.581597 264.79912 
L 345.451985 261.545791 
L 346.322372 257.000458 
L 347.19276 231.86234 
L 348.063147 50.325912 
L 348.933535 110.598929 
L 349.803922 135.245501 
L 350.67431 143.711297 
L 351.544697 144.062991 
L 352.415085 150.723 
L 353.285472 168.690825 
L 354.15586 264.687252 
L 355.026247 261.731618 
L 355.896635 257.458936 
L 356.767022 232.267343 
L 357.63741 66.73857 
L 358.507797 131.972342 
L 359.378185 145.149572 
L 360.248572 142.773573 
L 361.11896 143.363737 
L 361.989347 148.298109 
L 362.859735 164.604296 
L 363.730122 263.659459 
L 364.60051 259.415621 
L 365.470898 253.885071 
L 366.341285 235.246842 
L 367.211673 49.073286 
L 368.08206 117.056703 
L 368.952448 137.426955 
L 369.822835 150.007254 
L 370.693223 150.778642 
L 371.56361 150.578231 
L 372.433998 167.130815 
L 373.304385 276.334125 
L 374.174773 276.334125 
L 374.174773 276.334125 
" clip-path="url(#p95ca156178)" style="fill: none; stroke: #1f77b4; stroke-width: 1.5; stroke-linecap: square"/>
   </g>
   <g id="patch_3">
    <path d="M 33.2875 288.430125 
L 33.2875 22.318125 
" style="fill: none; stroke: #000000; stroke-width: 0.8; stroke-linejoin: miter; stroke-linecap: square"/>
   </g>
   <g id="patch_4">
    <path d="M 390.4075 288.430125 
L 390.4075 22.318125 
" style="fill: none; stroke: #000000; stroke-width: 0.8; stroke-linejoin: miter; stroke-linecap: square"/>
   </g>
   <g id="patch_5">
    <path d="M 33.2875 288.430125 
L 390.4075 288.430125 
" style="fill: none; stroke: #000000; stroke-width: 0.8; stroke-linejoin: miter; stroke-linecap: square"/>
   </g>
   <g id="patch_6">
    <path d="M 33.2875 22.318125 
L 390.4075 22.318125 
" style="fill: none; stroke: #000000; stroke-width: 0.8; stroke-linejoin: miter; stroke-linecap: square"/>
   </g>
   <g id="text_18">
    <!-- Fast Flux -->
    <g transform="translate(185.410938 16.318125) scale(0.12 -0.12)">
     <defs>
      <path id="DejaVuSans-46" d="M 628 4666 
L 3309 4666 
L 3309 4134 
L 1259 4134 
L 1259 2759 
L 3109 2759 
L 3109 2228 
L 1259 2228 
L 1259 0 
L 628 0 
L 628 4666 
z
" transform="scale(0.015625)"/>
      <path id="DejaVuSans-61" d="M 2194 1759 
Q 1497 1759 1228 1600 
Q 959 1441 959 1056 
Q 959 750 1161 570 
Q 1363 391 1709 391 
Q 2188 391 2477 730 
Q 2766 1069 2766 1631 
L 2766 1759 
L 2194 1759 
z
M 3341 1997 
L 3341 0 
L 2766 0 
L 2766 531 
Q 2569 213 2275 61 
Q 1981 -91 1556 -91 
Q 1019 -91 701 211 
Q 384 513 384 1019 
Q 384 1609 779 1909 
Q 1175 2209 1959 2209 
L 2766 2209 
L 2766 2266 
Q 2766 2663 2505 2880 
Q 2244 3097 1772 3097 
Q 1472 3097 1187 3025 
Q 903 2953 641 2809 
L 641 3341 
Q 956 3463 1253 3523 
Q 1550 3584 1831 3584 
Q 2591 3584 2966 3190 
Q 3341 2797 3341 1997 
z
" transform="scale(0.015625)"/>
      <path id="DejaVuSans-73" d="M 2834 3397 
L 2834 2853 
Q 2591 2978 2328 3040 
Q 2066 3103 1784 3103 
Q 1356 3103 1142 2972 
Q 928 2841 928 2578 
Q 928 2378 1081 2264 
Q 1234 2150 1697 2047 
L 1894 2003 
Q 2506 1872 2764 1633 
Q 3022 1394 3022 966 
Q 3022 478 2636 193 
Q 2250 -91 1575 -91 
Q 1294 -91 989 -36 
Q 684 19 347 128 
L 347 722 
Q 666 556 975 473 
Q 1284 391 1588 391 
Q 1994 391 2212 530 
Q 2431 669 2431 922 
Q 2431 1156 2273 1281 
Q 2116 1406 1581 1522 
L 1381 1569 
Q 847 1681 609 1914 
Q 372 2147 372 2553 
Q 372 3047 722 3315 
Q 1072 3584 1716 3584 
Q 2034 3584 2315 3537 
Q 2597 3491 2834 3397 
z
" transform="scale(0.015625)"/>
      <path id="DejaVuSans-74" d="M 1172 4494 
L 1172 3500 
L 2356 3500 
L 2356 3053 
L 1172 3053 
L 1172 1153 
Q 1172 725 1289 603 
Q 1406 481 1766 481 
L 2356 481 
L 2356 0 
L 1766 0 
Q 1100 0 847 248 
Q 594 497 594 1153 
L 594 3053 
L 172 3053 
L 172 3500 
L 594 3500 
L 594 4494 
L 1172 4494 
z
" transform="scale(0.015625)"/>
      <path id="DejaVuSans-20" transform="scale(0.015625)"/>
      <path id="DejaVuSans-6c" d="M 603 4863 
L 1178 4863 
L 1178 0 
L 603 0 
L 603 4863 
z
" transform="scale(0.015625)"/>
      <path id="DejaVuSans-75" d="M 544 1381 
L 544 3500 
L 1119 3500 
L 1119 1403 
Q 1119 906 1312 657 
Q 1506 409 1894 409 
Q 2359 409 2629 706 
Q 2900 1003 2900 1516 
L 2900 3500 
L 3475 3500 
L 3475 0 
L 2900 0 
L 2900 538 
Q 2691 219 2414 64 
Q 2138 -91 1772 -91 
Q 1169 -91 856 284 
Q 544 659 544 1381 
z
M 1991 3584 
L 1991 3584 
z
" transform="scale(0.015625)"/>
      <path id="DejaVuSans-78" d="M 3513 3500 
L 2247 1797 
L 3578 0 
L 2900 0 
L 1881 1375 
L 863 0 
L 184 0 
L 1544 1831 
L 300 3500 
L 978 3500 
L 1906 2253 
L 2834 3500 
L 3513 3500 
z
" transform="scale(0.015625)"/>
     </defs>
     <use xlink:href="#DejaVuSans-46"/>
     <use xlink:href="#DejaVuSans-61" x="48.394531"/>
     <use xlink:href="#DejaVuSans-73" x="109.673828"/>
     <use xlink:href="#DejaVuSans-74" x="161.773438"/>
     <use xlink:href="#DejaVuSans-20" x="200.982422"/>
     <use xlink:href="#DejaVuSans-46" x="232.769531"/>
     <use xlink:href="#DejaVuSans-6c" x="290.289062"/>
     <use xlink:href="#DejaVuSans-75" x="318.072266"/>
     <use xlink:href="#DejaVuSans-78" x="381.451172"/>
    </g>
   </g>
  </g>
 </g>
 <defs>
  <clipPath id="p95ca156178">
   <rect x="33.2875" y="22.318125" width="357.12" height="266.112"/>
  </clipPath>
 </defs>
</svg>
