<?xml version="1.0" encoding="utf-8" standalone="no"?>
<!DOCTYPE svg PUBLIC "-//W3C//DTD SVG 1.1//EN"
  "http://www.w3.org/Graphics/SVG/1.1/DTD/svg11.dtd">
<svg xmlns:xlink="http://www.w3.org/1999/xlink" width="410.3325pt" height="312.30825pt" viewBox="0 0 410.3325 312.30825" xmlns="http://www.w3.org/2000/svg" version="1.1">
 <metadata>
  <rdf:RDF xmlns:dc="http://purl.org/dc/elements/1.1/" xmlns:cc="http://creativecommons.org/ns#" xmlns:rdf="http://www.w3.org/1999/02/22-rdf-syntax-ns#">
   <cc:Work>
    <dc:type rdf:resource="http://purl.org/dc/dcmitype/StillImage"/>
    <dc:date>2024-03-14T10:56:25.215863</dc:date>
    <dc:format>image/svg+xml</dc:format>
    <dc:creator>
     <cc:Agent>
      <dc:title>Matplotlib v3.8.3, https://matplotlib.org/</dc:title>
     </cc:Agent>
    </dc:creator>
   </cc:Work>
  </rdf:RDF>
 </metadata>
 <defs>
  <style type="text/css">*{stroke-linejoin: round; stroke-linecap: butt}</style>
 </defs>
 <g id="figure_1">
  <g id="patch_1">
   <path d="M 0 312.30825 
L 410.3325 312.30825 
L 410.3325 0 
L 0 0 
z
" style="fill: #ffffff"/>
  </g>
  <g id="axes_1">
   <g id="patch_2">
    <path d="M 46.0125 288.430125 
L 403.1325 288.430125 
L 403.1325 22.318125 
L 46.0125 22.318125 
z
" style="fill: #ffffff"/>
   </g>
   <g id="matplotlib.axis_1">
    <g id="xtick_1">
     <g id="line2d_1">
      <defs>
       <path id="m06456335c6" d="M 0 0 
L 0 3.5 
" style="stroke: #000000; stroke-width: 0.8"/>
      </defs>
      <g>
       <use xlink:href="#m06456335c6" x="62.245227" y="288.430125" style="stroke: #000000; stroke-width: 0.8"/>
      </g>
     </g>
     <g id="text_1">
      <!-- 0 -->
      <g transform="translate(59.063977 303.028562) scale(0.1 -0.1)">
       <defs>
        <path id="DejaVuSans-30" d="M 2034 4250 
Q 1547 4250 1301 3770 
Q 1056 3291 1056 2328 
Q 1056 1369 1301 889 
Q 1547 409 2034 409 
Q 2525 409 2770 889 
Q 3016 1369 3016 2328 
Q 3016 3291 2770 3770 
Q 2525 4250 2034 4250 
z
M 2034 4750 
Q 2819 4750 3233 4129 
Q 3647 3509 3647 2328 
Q 3647 1150 3233 529 
Q 2819 -91 2034 -91 
Q 1250 -91 836 529 
Q 422 1150 422 2328 
Q 422 3509 836 4129 
Q 1250 4750 2034 4750 
z
" transform="scale(0.015625)"/>
       </defs>
       <use xlink:href="#DejaVuSans-30"/>
      </g>
     </g>
    </g>
    <g id="xtick_2">
     <g id="line2d_2">
      <g>
       <use xlink:href="#m06456335c6" x="102.129078" y="288.430125" style="stroke: #000000; stroke-width: 0.8"/>
      </g>
     </g>
     <g id="text_2">
      <!-- 50 -->
      <g transform="translate(95.766578 303.028562) scale(0.1 -0.1)">
       <defs>
        <path id="DejaVuSans-35" d="M 691 4666 
L 3169 4666 
L 3169 4134 
L 1269 4134 
L 1269 2991 
Q 1406 3038 1543 3061 
Q 1681 3084 1819 3084 
Q 2600 3084 3056 2656 
Q 3513 2228 3513 1497 
Q 3513 744 3044 326 
Q 2575 -91 1722 -91 
Q 1428 -91 1123 -41 
Q 819 9 494 109 
L 494 744 
Q 775 591 1075 516 
Q 1375 441 1709 441 
Q 2250 441 2565 725 
Q 2881 1009 2881 1497 
Q 2881 1984 2565 2268 
Q 2250 2553 1709 2553 
Q 1456 2553 1204 2497 
Q 953 2441 691 2322 
L 691 4666 
z
" transform="scale(0.015625)"/>
       </defs>
       <use xlink:href="#DejaVuSans-35"/>
       <use xlink:href="#DejaVuSans-30" x="63.623047"/>
      </g>
     </g>
    </g>
    <g id="xtick_3">
     <g id="line2d_3">
      <g>
       <use xlink:href="#m06456335c6" x="142.012929" y="288.430125" style="stroke: #000000; stroke-width: 0.8"/>
      </g>
     </g>
     <g id="text_3">
      <!-- 100 -->
      <g transform="translate(132.469179 303.028562) scale(0.1 -0.1)">
       <defs>
        <path id="DejaVuSans-31" d="M 794 531 
L 1825 531 
L 1825 4091 
L 703 3866 
L 703 4441 
L 1819 4666 
L 2450 4666 
L 2450 531 
L 3481 531 
L 3481 0 
L 794 0 
L 794 531 
z
" transform="scale(0.015625)"/>
       </defs>
       <use xlink:href="#DejaVuSans-31"/>
       <use xlink:href="#DejaVuSans-30" x="63.623047"/>
       <use xlink:href="#DejaVuSans-30" x="127.246094"/>
      </g>
     </g>
    </g>
    <g id="xtick_4">
     <g id="line2d_4">
      <g>
       <use xlink:href="#m06456335c6" x="181.89678" y="288.430125" style="stroke: #000000; stroke-width: 0.8"/>
      </g>
     </g>
     <g id="text_4">
      <!-- 150 -->
      <g transform="translate(172.35303 303.028562) scale(0.1 -0.1)">
       <use xlink:href="#DejaVuSans-31"/>
       <use xlink:href="#DejaVuSans-35" x="63.623047"/>
       <use xlink:href="#DejaVuSans-30" x="127.246094"/>
      </g>
     </g>
    </g>
    <g id="xtick_5">
     <g id="line2d_5">
      <g>
       <use xlink:href="#m06456335c6" x="221.78063" y="288.430125" style="stroke: #000000; stroke-width: 0.8"/>
      </g>
     </g>
     <g id="text_5">
      <!-- 200 -->
      <g transform="translate(212.23688 303.028562) scale(0.1 -0.1)">
       <defs>
        <path id="DejaVuSans-32" d="M 1228 531 
L 3431 531 
L 3431 0 
L 469 0 
L 469 531 
Q 828 903 1448 1529 
Q 2069 2156 2228 2338 
Q 2531 2678 2651 2914 
Q 2772 3150 2772 3378 
Q 2772 3750 2511 3984 
Q 2250 4219 1831 4219 
Q 1534 4219 1204 4116 
Q 875 4013 500 3803 
L 500 4441 
Q 881 4594 1212 4672 
Q 1544 4750 1819 4750 
Q 2544 4750 2975 4387 
Q 3406 4025 3406 3419 
Q 3406 3131 3298 2873 
Q 3191 2616 2906 2266 
Q 2828 2175 2409 1742 
Q 1991 1309 1228 531 
z
" transform="scale(0.015625)"/>
       </defs>
       <use xlink:href="#DejaVuSans-32"/>
       <use xlink:href="#DejaVuSans-30" x="63.623047"/>
       <use xlink:href="#DejaVuSans-30" x="127.246094"/>
      </g>
     </g>
    </g>
    <g id="xtick_6">
     <g id="line2d_6">
      <g>
       <use xlink:href="#m06456335c6" x="261.664481" y="288.430125" style="stroke: #000000; stroke-width: 0.8"/>
      </g>
     </g>
     <g id="text_6">
      <!-- 250 -->
      <g transform="translate(252.120731 303.028562) scale(0.1 -0.1)">
       <use xlink:href="#DejaVuSans-32"/>
       <use xlink:href="#DejaVuSans-35" x="63.623047"/>
       <use xlink:href="#DejaVuSans-30" x="127.246094"/>
      </g>
     </g>
    </g>
    <g id="xtick_7">
     <g id="line2d_7">
      <g>
       <use xlink:href="#m06456335c6" x="301.548332" y="288.430125" style="stroke: #000000; stroke-width: 0.8"/>
      </g>
     </g>
     <g id="text_7">
      <!-- 300 -->
      <g transform="translate(292.004582 303.028562) scale(0.1 -0.1)">
       <defs>
        <path id="DejaVuSans-33" d="M 2597 2516 
Q 3050 2419 3304 2112 
Q 3559 1806 3559 1356 
Q 3559 666 3084 287 
Q 2609 -91 1734 -91 
Q 1441 -91 1130 -33 
Q 819 25 488 141 
L 488 750 
Q 750 597 1062 519 
Q 1375 441 1716 441 
Q 2309 441 2620 675 
Q 2931 909 2931 1356 
Q 2931 1769 2642 2001 
Q 2353 2234 1838 2234 
L 1294 2234 
L 1294 2753 
L 1863 2753 
Q 2328 2753 2575 2939 
Q 2822 3125 2822 3475 
Q 2822 3834 2567 4026 
Q 2313 4219 1838 4219 
Q 1578 4219 1281 4162 
Q 984 4106 628 3988 
L 628 4550 
Q 988 4650 1302 4700 
Q 1616 4750 1894 4750 
Q 2613 4750 3031 4423 
Q 3450 4097 3450 3541 
Q 3450 3153 3228 2886 
Q 3006 2619 2597 2516 
z
" transform="scale(0.015625)"/>
       </defs>
       <use xlink:href="#DejaVuSans-33"/>
       <use xlink:href="#DejaVuSans-30" x="63.623047"/>
       <use xlink:href="#DejaVuSans-30" x="127.246094"/>
      </g>
     </g>
    </g>
    <g id="xtick_8">
     <g id="line2d_8">
      <g>
       <use xlink:href="#m06456335c6" x="341.432183" y="288.430125" style="stroke: #000000; stroke-width: 0.8"/>
      </g>
     </g>
     <g id="text_8">
      <!-- 350 -->
      <g transform="translate(331.888433 303.028562) scale(0.1 -0.1)">
       <use xlink:href="#DejaVuSans-33"/>
       <use xlink:href="#DejaVuSans-35" x="63.623047"/>
       <use xlink:href="#DejaVuSans-30" x="127.246094"/>
      </g>
     </g>
    </g>
    <g id="xtick_9">
     <g id="line2d_9">
      <g>
       <use xlink:href="#m06456335c6" x="381.316034" y="288.430125" style="stroke: #000000; stroke-width: 0.8"/>
      </g>
     </g>
     <g id="text_9">
      <!-- 400 -->
      <g transform="translate(371.772284 303.028562) scale(0.1 -0.1)">
       <defs>
        <path id="DejaVuSans-34" d="M 2419 4116 
L 825 1625 
L 2419 1625 
L 2419 4116 
z
M 2253 4666 
L 3047 4666 
L 3047 1625 
L 3713 1625 
L 3713 1100 
L 3047 1100 
L 3047 0 
L 2419 0 
L 2419 1100 
L 313 1100 
L 313 1709 
L 2253 4666 
z
" transform="scale(0.015625)"/>
       </defs>
       <use xlink:href="#DejaVuSans-34"/>
       <use xlink:href="#DejaVuSans-30" x="63.623047"/>
       <use xlink:href="#DejaVuSans-30" x="127.246094"/>
      </g>
     </g>
    </g>
   </g>
   <g id="matplotlib.axis_2">
    <g id="ytick_1">
     <g id="line2d_10">
      <defs>
       <path id="me4d2032000" d="M 0 0 
L -3.5 0 
" style="stroke: #000000; stroke-width: 0.8"/>
      </defs>
      <g>
       <use xlink:href="#me4d2032000" x="46.0125" y="276.374172" style="stroke: #000000; stroke-width: 0.8"/>
      </g>
     </g>
     <g id="text_10">
      <!-- 0 -->
      <g transform="translate(32.65 280.173391) scale(0.1 -0.1)">
       <use xlink:href="#DejaVuSans-30"/>
      </g>
     </g>
    </g>
    <g id="ytick_2">
     <g id="line2d_11">
      <g>
       <use xlink:href="#me4d2032000" x="46.0125" y="227.726519" style="stroke: #000000; stroke-width: 0.8"/>
      </g>
     </g>
     <g id="text_11">
      <!-- 10000 -->
      <g transform="translate(7.2 231.525738) scale(0.1 -0.1)">
       <use xlink:href="#DejaVuSans-31"/>
       <use xlink:href="#DejaVuSans-30" x="63.623047"/>
       <use xlink:href="#DejaVuSans-30" x="127.246094"/>
       <use xlink:href="#DejaVuSans-30" x="190.869141"/>
       <use xlink:href="#DejaVuSans-30" x="254.492188"/>
      </g>
     </g>
    </g>
    <g id="ytick_3">
     <g id="line2d_12">
      <g>
       <use xlink:href="#me4d2032000" x="46.0125" y="179.078866" style="stroke: #000000; stroke-width: 0.8"/>
      </g>
     </g>
     <g id="text_12">
      <!-- 20000 -->
      <g transform="translate(7.2 182.878085) scale(0.1 -0.1)">
       <use xlink:href="#DejaVuSans-32"/>
       <use xlink:href="#DejaVuSans-30" x="63.623047"/>
       <use xlink:href="#DejaVuSans-30" x="127.246094"/>
       <use xlink:href="#DejaVuSans-30" x="190.869141"/>
       <use xlink:href="#DejaVuSans-30" x="254.492188"/>
      </g>
     </g>
    </g>
    <g id="ytick_4">
     <g id="line2d_13">
      <g>
       <use xlink:href="#me4d2032000" x="46.0125" y="130.431213" style="stroke: #000000; stroke-width: 0.8"/>
      </g>
     </g>
     <g id="text_13">
      <!-- 30000 -->
      <g transform="translate(7.2 134.230432) scale(0.1 -0.1)">
       <use xlink:href="#DejaVuSans-33"/>
       <use xlink:href="#DejaVuSans-30" x="63.623047"/>
       <use xlink:href="#DejaVuSans-30" x="127.246094"/>
       <use xlink:href="#DejaVuSans-30" x="190.869141"/>
       <use xlink:href="#DejaVuSans-30" x="254.492188"/>
      </g>
     </g>
    </g>
    <g id="ytick_5">
     <g id="line2d_14">
      <g>
       <use xlink:href="#me4d2032000" x="46.0125" y="81.78356" style="stroke: #000000; stroke-width: 0.8"/>
      </g>
     </g>
     <g id="text_14">
      <!-- 40000 -->
      <g transform="translate(7.2 85.582779) scale(0.1 -0.1)">
       <use xlink:href="#DejaVuSans-34"/>
       <use xlink:href="#DejaVuSans-30" x="63.623047"/>
       <use xlink:href="#DejaVuSans-30" x="127.246094"/>
       <use xlink:href="#DejaVuSans-30" x="190.869141"/>
       <use xlink:href="#DejaVuSans-30" x="254.492188"/>
      </g>
     </g>
    </g>
    <g id="ytick_6">
     <g id="line2d_15">
      <g>
       <use xlink:href="#me4d2032000" x="46.0125" y="33.135907" style="stroke: #000000; stroke-width: 0.8"/>
      </g>
     </g>
     <g id="text_15">
      <!-- 50000 -->
      <g transform="translate(7.2 36.935126) scale(0.1 -0.1)">
       <use xlink:href="#DejaVuSans-35"/>
       <use xlink:href="#DejaVuSans-30" x="63.623047"/>
       <use xlink:href="#DejaVuSans-30" x="127.246094"/>
       <use xlink:href="#DejaVuSans-30" x="190.869141"/>
       <use xlink:href="#DejaVuSans-30" x="254.492188"/>
      </g>
     </g>
    </g>
   </g>
   <g id="line2d_16">
    <path d="M 62.245227 276.30613 
L 63.840581 276.153078 
L 64.638258 276.322207 
L 68.626643 276.315697 
L 69.42432 275.812351 
L 70.221997 276.155868 
L 71.019674 276.258669 
L 71.817351 276.217957 
L 73.412705 275.667332 
L 74.210383 276.026591 
L 78.198768 275.841809 
L 78.996445 274.590527 
L 79.794122 275.767982 
L 80.591799 275.962525 
L 81.389476 276.030156 
L 82.187153 275.550086 
L 82.98483 274.798636 
L 83.782507 275.89376 
L 85.377861 275.780715 
L 86.175538 275.846254 
L 87.770892 275.757248 
L 88.568569 274.956233 
L 89.366246 275.609434 
L 90.163923 276.017828 
L 90.9616 276.015945 
L 91.759277 275.731827 
L 92.556954 274.021605 
L 93.354631 275.82988 
L 94.949985 275.739286 
L 97.343016 275.826638 
L 98.140693 274.406068 
L 98.93837 275.563534 
L 99.736047 275.968687 
L 100.533724 276.037919 
L 101.331401 275.620463 
L 102.129078 274.994545 
L 102.926755 275.953525 
L 105.319786 275.87218 
L 106.117463 275.858347 
L 106.91514 275.653245 
L 107.712817 274.914514 
L 108.510494 275.607648 
L 109.308171 275.945157 
L 110.105848 276.02357 
L 110.903525 274.798214 
L 111.701202 274.797956 
L 112.498879 275.792831 
L 113.296556 275.915681 
L 116.487264 275.749668 
L 117.284941 274.306241 
L 118.082618 275.405953 
L 118.880295 276.020838 
L 119.677972 275.98132 
L 121.273326 274.911176 
L 122.071003 275.876073 
L 126.059389 275.805071 
L 126.857066 274.860815 
L 127.654743 275.644644 
L 128.45242 275.929667 
L 129.250097 275.999065 
L 130.047774 275.586669 
L 130.845451 274.509831 
L 131.643128 275.930414 
L 135.631513 275.796341 
L 136.42919 274.849281 
L 137.226867 275.302538 
L 138.024544 275.962503 
L 138.822221 276.016571 
L 139.619898 275.696447 
L 140.417575 274.840006 
L 141.215252 275.945237 
L 142.012929 275.990117 
L 142.810606 275.74789 
L 143.608283 275.762508 
L 144.40596 275.360009 
L 145.203637 275.559321 
L 146.001314 274.966015 
L 146.798991 275.615417 
L 147.596668 275.989153 
L 148.394345 275.937335 
L 149.192022 275.474387 
L 149.989699 274.509 
L 150.787376 275.854138 
L 151.585053 275.913181 
L 153.978084 275.708566 
L 154.775761 275.790033 
L 155.573438 274.843709 
L 156.371115 275.647063 
L 157.168792 275.993841 
L 157.966469 275.967106 
L 158.764146 275.603569 
L 159.561823 274.803413 
L 160.3595 275.795881 
L 161.157177 275.913996 
L 162.752531 275.755819 
L 163.550208 275.829558 
L 164.347885 275.722179 
L 165.145562 274.88055 
L 165.943239 275.615501 
L 166.740916 275.93866 
L 167.538593 276.01806 
L 168.33627 275.590782 
L 169.133947 274.811211 
L 169.931624 275.9113 
L 173.920009 275.840858 
L 174.717687 274.917997 
L 175.515364 275.538586 
L 176.313041 275.943862 
L 177.110718 275.997143 
L 177.908395 275.371441 
L 178.706072 274.558985 
L 179.503749 275.906631 
L 180.301426 275.879838 
L 181.099103 275.728479 
L 182.694457 275.814634 
L 183.492134 275.873404 
L 184.289811 275.100002 
L 185.885165 275.950692 
L 186.682842 276.011264 
L 187.480519 275.563694 
L 188.278196 274.573565 
L 189.075873 275.876956 
L 193.064258 275.790645 
L 193.861935 274.876512 
L 195.457289 275.935068 
L 196.254966 276.042983 
L 197.85032 274.615074 
L 198.647997 275.930975 
L 202.636382 275.829392 
L 203.434059 274.571561 
L 204.231736 275.600453 
L 205.029413 275.943193 
L 205.82709 276.003157 
L 206.624767 275.271119 
L 207.422444 271.281037 
L 208.220121 275.93045 
L 209.017798 275.957822 
L 209.815475 272.731355 
L 210.613152 274.907992 
L 212.208506 274.976726 
L 213.006183 274.284029 
L 213.80386 275.468912 
L 214.601537 275.945234 
L 215.399214 275.975818 
L 216.196891 275.663167 
L 216.994568 273.555115 
L 217.792245 275.874617 
L 220.185276 275.743664 
L 221.78063 275.699028 
L 222.578307 273.709887 
L 223.375984 275.598566 
L 224.173661 276.019667 
L 224.971339 275.97928 
L 225.769016 275.653395 
L 226.566693 274.611092 
L 227.36437 275.871074 
L 228.959724 275.773943 
L 229.757401 275.892002 
L 230.555078 275.737126 
L 231.352755 275.778234 
L 232.150432 275.025001 
L 232.948109 275.619433 
L 233.745786 275.918501 
L 234.543463 276.003374 
L 235.34114 275.602023 
L 236.138817 274.579695 
L 236.936494 275.865729 
L 237.734171 275.886386 
L 238.531848 275.78466 
L 240.127202 275.883733 
L 240.924879 275.811049 
L 241.722556 274.250967 
L 242.520233 273.795876 
L 243.31791 276.002216 
L 244.115587 275.981577 
L 244.913264 275.619615 
L 245.710941 274.662385 
L 246.508618 275.874344 
L 248.103972 275.886304 
L 248.901649 275.673484 
L 249.699326 275.848552 
L 250.497003 275.745094 
L 251.29468 274.78499 
L 252.092357 275.705873 
L 252.890034 275.979334 
L 253.687711 276.042014 
L 254.485388 275.75422 
L 255.283065 275.00738 
L 256.080742 275.872412 
L 256.878419 275.943007 
L 260.069127 275.833645 
L 260.866804 275.003979 
L 261.664481 275.55034 
L 262.462158 275.930482 
L 263.259835 276.018267 
L 264.057512 275.686329 
L 264.855189 274.810862 
L 265.652866 275.900696 
L 269.641251 275.857496 
L 270.438928 275.101991 
L 271.236605 275.393008 
L 272.034282 276.029116 
L 272.831959 275.984112 
L 274.427313 274.99686 
L 275.224991 275.92828 
L 276.022668 276.014295 
L 279.213376 275.844436 
L 280.011053 274.936525 
L 280.80873 273.590846 
L 281.606407 275.579015 
L 282.404084 275.672028 
L 283.201761 275.192808 
L 283.999438 274.471684 
L 284.797115 274.941223 
L 285.594792 275.732403 
L 287.987823 275.643843 
L 288.7855 275.623178 
L 289.583177 275.037793 
L 290.380854 275.724903 
L 291.178531 275.948874 
L 291.976208 276.027487 
L 292.773885 275.39069 
L 293.571562 274.565556 
L 294.369239 275.984102 
L 295.166916 275.63997 
L 296.76227 275.772099 
L 297.559947 275.848766 
L 298.357624 275.794502 
L 299.155301 274.422638 
L 299.952978 275.547404 
L 300.750655 275.955942 
L 301.548332 276.044109 
L 302.346009 275.66071 
L 303.143686 273.501092 
L 303.941363 275.725641 
L 305.536717 275.706986 
L 306.334394 275.539492 
L 307.132071 275.651631 
L 307.929748 275.602458 
L 308.727425 274.850162 
L 309.525102 275.577844 
L 310.322779 275.93859 
L 311.120456 275.977941 
L 311.918133 34.414125 
L 312.71581 274.73877 
L 313.513487 275.898684 
L 315.108841 275.837682 
L 315.906518 275.904762 
L 317.501872 275.821344 
L 318.299549 274.612721 
L 319.097226 275.520833 
L 319.894903 275.901188 
L 320.69258 276.01205 
L 321.490257 275.592215 
L 322.287934 273.211784 
L 323.085611 275.924249 
L 327.073997 275.883909 
L 327.871674 275.014416 
L 328.669351 275.599568 
L 329.467028 275.965028 
L 330.264705 275.983029 
L 331.062382 275.576025 
L 331.860059 274.944067 
L 332.657736 275.967491 
L 335.848444 275.790203 
L 336.646121 275.694143 
L 337.443798 274.90166 
L 338.241475 275.612922 
L 339.039152 275.927801 
L 339.836829 275.992374 
L 340.634506 275.524736 
L 341.432183 274.41176 
L 342.22986 275.81045 
L 343.825214 275.718537 
L 344.622891 275.542651 
L 346.218245 275.588722 
L 347.015922 274.895585 
L 348.611276 275.935577 
L 349.408953 276.011476 
L 350.20663 275.605106 
L 351.004307 274.942385 
L 351.801984 275.876903 
L 353.397338 275.85235 
L 355.790369 275.834052 
L 356.588046 274.714439 
L 357.385723 275.629001 
L 358.1834 275.967178 
L 358.981077 275.996595 
L 359.778754 275.411493 
L 360.576431 273.600262 
L 361.374108 275.956868 
L 362.969462 275.858742 
L 363.767139 264.740901 
L 364.564816 273.95869 
L 365.362493 273.929536 
L 366.16017 273.040856 
L 366.957847 275.170768 
L 367.755524 275.772801 
L 368.553201 276.027149 
L 369.350878 275.727248 
L 370.148555 274.564853 
L 370.946232 275.958202 
L 374.13694 275.827743 
L 374.934617 275.823367 
L 375.732295 274.971865 
L 376.529972 275.254259 
L 377.327649 275.932421 
L 378.125326 276.043796 
L 378.923003 275.809663 
L 379.72068 274.741113 
L 380.518357 275.970747 
L 382.911388 275.81351 
L 383.709065 275.845011 
L 385.304419 275.64665 
L 386.102096 275.887255 
L 386.899773 275.123079 
L 386.899773 275.123079 
" clip-path="url(#p2d61f3fde3)" style="fill: none; stroke: #1f77b4; stroke-width: 1.5; stroke-linecap: square"/>
   </g>
   <g id="patch_3">
    <path d="M 46.0125 288.430125 
L 46.0125 22.318125 
" style="fill: none; stroke: #000000; stroke-width: 0.8; stroke-linejoin: miter; stroke-linecap: square"/>
   </g>
   <g id="patch_4">
    <path d="M 403.1325 288.430125 
L 403.1325 22.318125 
" style="fill: none; stroke: #000000; stroke-width: 0.8; stroke-linejoin: miter; stroke-linecap: square"/>
   </g>
   <g id="patch_5">
    <path d="M 46.0125 288.430125 
L 403.1325 288.430125 
" style="fill: none; stroke: #000000; stroke-width: 0.8; stroke-linejoin: miter; stroke-linecap: square"/>
   </g>
   <g id="patch_6">
    <path d="M 46.0125 22.318125 
L 403.1325 22.318125 
" style="fill: none; stroke: #000000; stroke-width: 0.8; stroke-linejoin: miter; stroke-linecap: square"/>
   </g>
   <g id="text_16">
    <!-- Fast Flux -->
    <g transform="translate(198.135938 16.318125) scale(0.12 -0.12)">
     <defs>
      <path id="DejaVuSans-46" d="M 628 4666 
L 3309 4666 
L 3309 4134 
L 1259 4134 
L 1259 2759 
L 3109 2759 
L 3109 2228 
L 1259 2228 
L 1259 0 
L 628 0 
L 628 4666 
z
" transform="scale(0.015625)"/>
      <path id="DejaVuSans-61" d="M 2194 1759 
Q 1497 1759 1228 1600 
Q 959 1441 959 1056 
Q 959 750 1161 570 
Q 1363 391 1709 391 
Q 2188 391 2477 730 
Q 2766 1069 2766 1631 
L 2766 1759 
L 2194 1759 
z
M 3341 1997 
L 3341 0 
L 2766 0 
L 2766 531 
Q 2569 213 2275 61 
Q 1981 -91 1556 -91 
Q 1019 -91 701 211 
Q 384 513 384 1019 
Q 384 1609 779 1909 
Q 1175 2209 1959 2209 
L 2766 2209 
L 2766 2266 
Q 2766 2663 2505 2880 
Q 2244 3097 1772 3097 
Q 1472 3097 1187 3025 
Q 903 2953 641 2809 
L 641 3341 
Q 956 3463 1253 3523 
Q 1550 3584 1831 3584 
Q 2591 3584 2966 3190 
Q 3341 2797 3341 1997 
z
" transform="scale(0.015625)"/>
      <path id="DejaVuSans-73" d="M 2834 3397 
L 2834 2853 
Q 2591 2978 2328 3040 
Q 2066 3103 1784 3103 
Q 1356 3103 1142 2972 
Q 928 2841 928 2578 
Q 928 2378 1081 2264 
Q 1234 2150 1697 2047 
L 1894 2003 
Q 2506 1872 2764 1633 
Q 3022 1394 3022 966 
Q 3022 478 2636 193 
Q 2250 -91 1575 -91 
Q 1294 -91 989 -36 
Q 684 19 347 128 
L 347 722 
Q 666 556 975 473 
Q 1284 391 1588 391 
Q 1994 391 2212 530 
Q 2431 669 2431 922 
Q 2431 1156 2273 1281 
Q 2116 1406 1581 1522 
L 1381 1569 
Q 847 1681 609 1914 
Q 372 2147 372 2553 
Q 372 3047 722 3315 
Q 1072 3584 1716 3584 
Q 2034 3584 2315 3537 
Q 2597 3491 2834 3397 
z
" transform="scale(0.015625)"/>
      <path id="DejaVuSans-74" d="M 1172 4494 
L 1172 3500 
L 2356 3500 
L 2356 3053 
L 1172 3053 
L 1172 1153 
Q 1172 725 1289 603 
Q 1406 481 1766 481 
L 2356 481 
L 2356 0 
L 1766 0 
Q 1100 0 847 248 
Q 594 497 594 1153 
L 594 3053 
L 172 3053 
L 172 3500 
L 594 3500 
L 594 4494 
L 1172 4494 
z
" transform="scale(0.015625)"/>
      <path id="DejaVuSans-20" transform="scale(0.015625)"/>
      <path id="DejaVuSans-6c" d="M 603 4863 
L 1178 4863 
L 1178 0 
L 603 0 
L 603 4863 
z
" transform="scale(0.015625)"/>
      <path id="DejaVuSans-75" d="M 544 1381 
L 544 3500 
L 1119 3500 
L 1119 1403 
Q 1119 906 1312 657 
Q 1506 409 1894 409 
Q 2359 409 2629 706 
Q 2900 1003 2900 1516 
L 2900 3500 
L 3475 3500 
L 3475 0 
L 2900 0 
L 2900 538 
Q 2691 219 2414 64 
Q 2138 -91 1772 -91 
Q 1169 -91 856 284 
Q 544 659 544 1381 
z
M 1991 3584 
L 1991 3584 
z
" transform="scale(0.015625)"/>
      <path id="DejaVuSans-78" d="M 3513 3500 
L 2247 1797 
L 3578 0 
L 2900 0 
L 1881 1375 
L 863 0 
L 184 0 
L 1544 1831 
L 300 3500 
L 978 3500 
L 1906 2253 
L 2834 3500 
L 3513 3500 
z
" transform="scale(0.015625)"/>
     </defs>
     <use xlink:href="#DejaVuSans-46"/>
     <use xlink:href="#DejaVuSans-61" x="48.394531"/>
     <use xlink:href="#DejaVuSans-73" x="109.673828"/>
     <use xlink:href="#DejaVuSans-74" x="161.773438"/>
     <use xlink:href="#DejaVuSans-20" x="200.982422"/>
     <use xlink:href="#DejaVuSans-46" x="232.769531"/>
     <use xlink:href="#DejaVuSans-6c" x="290.289062"/>
     <use xlink:href="#DejaVuSans-75" x="318.072266"/>
     <use xlink:href="#DejaVuSans-78" x="381.451172"/>
    </g>
   </g>
  </g>
 </g>
 <defs>
  <clipPath id="p2d61f3fde3">
   <rect x="46.0125" y="22.318125" width="357.12" height="266.112"/>
  </clipPath>
 </defs>
</svg>
