<?xml version="1.0" encoding="utf-8" standalone="no"?>
<!DOCTYPE svg PUBLIC "-//W3C//DTD SVG 1.1//EN"
  "http://www.w3.org/Graphics/SVG/1.1/DTD/svg11.dtd">
<svg xmlns:xlink="http://www.w3.org/1999/xlink" width="400.785625pt" height="312.30825pt" viewBox="0 0 400.785625 312.30825" xmlns="http://www.w3.org/2000/svg" version="1.1">
 <metadata>
  <rdf:RDF xmlns:dc="http://purl.org/dc/elements/1.1/" xmlns:cc="http://creativecommons.org/ns#" xmlns:rdf="http://www.w3.org/1999/02/22-rdf-syntax-ns#">
   <cc:Work>
    <dc:type rdf:resource="http://purl.org/dc/dcmitype/StillImage"/>
    <dc:date>2024-03-18T09:15:19.644029</dc:date>
    <dc:format>image/svg+xml</dc:format>
    <dc:creator>
     <cc:Agent>
      <dc:title>Matplotlib v3.8.3, https://matplotlib.org/</dc:title>
     </cc:Agent>
    </dc:creator>
   </cc:Work>
  </rdf:RDF>
 </metadata>
 <defs>
  <style type="text/css">*{stroke-linejoin: round; stroke-linecap: butt}</style>
 </defs>
 <g id="figure_1">
  <g id="patch_1">
   <path d="M 0 312.30825 
L 400.785625 312.30825 
L 400.785625 0 
L 0 0 
z
" style="fill: #ffffff"/>
  </g>
  <g id="axes_1">
   <g id="patch_2">
    <path d="M 36.465625 288.430125 
L 393.585625 288.430125 
L 393.585625 22.318125 
L 36.465625 22.318125 
z
" style="fill: #ffffff"/>
   </g>
   <g id="matplotlib.axis_1">
    <g id="xtick_1">
     <g id="line2d_1">
      <defs>
       <path id="m9697db2b57" d="M 0 0 
L 0 3.5 
" style="stroke: #000000; stroke-width: 0.8"/>
      </defs>
      <g>
       <use xlink:href="#m9697db2b57" x="36.465625" y="288.430125" style="stroke: #000000; stroke-width: 0.8"/>
      </g>
     </g>
     <g id="text_1">
      <!-- 0 -->
      <g transform="translate(33.284375 303.028562) scale(0.1 -0.1)">
       <defs>
        <path id="DejaVuSans-30" d="M 2034 4250 
Q 1547 4250 1301 3770 
Q 1056 3291 1056 2328 
Q 1056 1369 1301 889 
Q 1547 409 2034 409 
Q 2525 409 2770 889 
Q 3016 1369 3016 2328 
Q 3016 3291 2770 3770 
Q 2525 4250 2034 4250 
z
M 2034 4750 
Q 2819 4750 3233 4129 
Q 3647 3509 3647 2328 
Q 3647 1150 3233 529 
Q 2819 -91 2034 -91 
Q 1250 -91 836 529 
Q 422 1150 422 2328 
Q 422 3509 836 4129 
Q 1250 4750 2034 4750 
z
" transform="scale(0.015625)"/>
       </defs>
       <use xlink:href="#DejaVuSans-30"/>
      </g>
     </g>
    </g>
    <g id="xtick_2">
     <g id="line2d_2">
      <g>
       <use xlink:href="#m9697db2b57" x="78.080242" y="288.430125" style="stroke: #000000; stroke-width: 0.8"/>
      </g>
     </g>
     <g id="text_2">
      <!-- 5 -->
      <g transform="translate(74.898992 303.028562) scale(0.1 -0.1)">
       <defs>
        <path id="DejaVuSans-35" d="M 691 4666 
L 3169 4666 
L 3169 4134 
L 1269 4134 
L 1269 2991 
Q 1406 3038 1543 3061 
Q 1681 3084 1819 3084 
Q 2600 3084 3056 2656 
Q 3513 2228 3513 1497 
Q 3513 744 3044 326 
Q 2575 -91 1722 -91 
Q 1428 -91 1123 -41 
Q 819 9 494 109 
L 494 744 
Q 775 591 1075 516 
Q 1375 441 1709 441 
Q 2250 441 2565 725 
Q 2881 1009 2881 1497 
Q 2881 1984 2565 2268 
Q 2250 2553 1709 2553 
Q 1456 2553 1204 2497 
Q 953 2441 691 2322 
L 691 4666 
z
" transform="scale(0.015625)"/>
       </defs>
       <use xlink:href="#DejaVuSans-35"/>
      </g>
     </g>
    </g>
    <g id="xtick_3">
     <g id="line2d_3">
      <g>
       <use xlink:href="#m9697db2b57" x="119.69486" y="288.430125" style="stroke: #000000; stroke-width: 0.8"/>
      </g>
     </g>
     <g id="text_3">
      <!-- 10 -->
      <g transform="translate(113.33236 303.028562) scale(0.1 -0.1)">
       <defs>
        <path id="DejaVuSans-31" d="M 794 531 
L 1825 531 
L 1825 4091 
L 703 3866 
L 703 4441 
L 1819 4666 
L 2450 4666 
L 2450 531 
L 3481 531 
L 3481 0 
L 794 0 
L 794 531 
z
" transform="scale(0.015625)"/>
       </defs>
       <use xlink:href="#DejaVuSans-31"/>
       <use xlink:href="#DejaVuSans-30" x="63.623047"/>
      </g>
     </g>
    </g>
    <g id="xtick_4">
     <g id="line2d_4">
      <g>
       <use xlink:href="#m9697db2b57" x="161.309477" y="288.430125" style="stroke: #000000; stroke-width: 0.8"/>
      </g>
     </g>
     <g id="text_4">
      <!-- 15 -->
      <g transform="translate(154.946977 303.028562) scale(0.1 -0.1)">
       <use xlink:href="#DejaVuSans-31"/>
       <use xlink:href="#DejaVuSans-35" x="63.623047"/>
      </g>
     </g>
    </g>
    <g id="xtick_5">
     <g id="line2d_5">
      <g>
       <use xlink:href="#m9697db2b57" x="202.924094" y="288.430125" style="stroke: #000000; stroke-width: 0.8"/>
      </g>
     </g>
     <g id="text_5">
      <!-- 20 -->
      <g transform="translate(196.561594 303.028562) scale(0.1 -0.1)">
       <defs>
        <path id="DejaVuSans-32" d="M 1228 531 
L 3431 531 
L 3431 0 
L 469 0 
L 469 531 
Q 828 903 1448 1529 
Q 2069 2156 2228 2338 
Q 2531 2678 2651 2914 
Q 2772 3150 2772 3378 
Q 2772 3750 2511 3984 
Q 2250 4219 1831 4219 
Q 1534 4219 1204 4116 
Q 875 4013 500 3803 
L 500 4441 
Q 881 4594 1212 4672 
Q 1544 4750 1819 4750 
Q 2544 4750 2975 4387 
Q 3406 4025 3406 3419 
Q 3406 3131 3298 2873 
Q 3191 2616 2906 2266 
Q 2828 2175 2409 1742 
Q 1991 1309 1228 531 
z
" transform="scale(0.015625)"/>
       </defs>
       <use xlink:href="#DejaVuSans-32"/>
       <use xlink:href="#DejaVuSans-30" x="63.623047"/>
      </g>
     </g>
    </g>
    <g id="xtick_6">
     <g id="line2d_6">
      <g>
       <use xlink:href="#m9697db2b57" x="244.538712" y="288.430125" style="stroke: #000000; stroke-width: 0.8"/>
      </g>
     </g>
     <g id="text_6">
      <!-- 25 -->
      <g transform="translate(238.176212 303.028562) scale(0.1 -0.1)">
       <use xlink:href="#DejaVuSans-32"/>
       <use xlink:href="#DejaVuSans-35" x="63.623047"/>
      </g>
     </g>
    </g>
    <g id="xtick_7">
     <g id="line2d_7">
      <g>
       <use xlink:href="#m9697db2b57" x="286.153329" y="288.430125" style="stroke: #000000; stroke-width: 0.8"/>
      </g>
     </g>
     <g id="text_7">
      <!-- 30 -->
      <g transform="translate(279.790829 303.028562) scale(0.1 -0.1)">
       <defs>
        <path id="DejaVuSans-33" d="M 2597 2516 
Q 3050 2419 3304 2112 
Q 3559 1806 3559 1356 
Q 3559 666 3084 287 
Q 2609 -91 1734 -91 
Q 1441 -91 1130 -33 
Q 819 25 488 141 
L 488 750 
Q 750 597 1062 519 
Q 1375 441 1716 441 
Q 2309 441 2620 675 
Q 2931 909 2931 1356 
Q 2931 1769 2642 2001 
Q 2353 2234 1838 2234 
L 1294 2234 
L 1294 2753 
L 1863 2753 
Q 2328 2753 2575 2939 
Q 2822 3125 2822 3475 
Q 2822 3834 2567 4026 
Q 2313 4219 1838 4219 
Q 1578 4219 1281 4162 
Q 984 4106 628 3988 
L 628 4550 
Q 988 4650 1302 4700 
Q 1616 4750 1894 4750 
Q 2613 4750 3031 4423 
Q 3450 4097 3450 3541 
Q 3450 3153 3228 2886 
Q 3006 2619 2597 2516 
z
" transform="scale(0.015625)"/>
       </defs>
       <use xlink:href="#DejaVuSans-33"/>
       <use xlink:href="#DejaVuSans-30" x="63.623047"/>
      </g>
     </g>
    </g>
    <g id="xtick_8">
     <g id="line2d_8">
      <g>
       <use xlink:href="#m9697db2b57" x="327.767946" y="288.430125" style="stroke: #000000; stroke-width: 0.8"/>
      </g>
     </g>
     <g id="text_8">
      <!-- 35 -->
      <g transform="translate(321.405446 303.028562) scale(0.1 -0.1)">
       <use xlink:href="#DejaVuSans-33"/>
       <use xlink:href="#DejaVuSans-35" x="63.623047"/>
      </g>
     </g>
    </g>
    <g id="xtick_9">
     <g id="line2d_9">
      <g>
       <use xlink:href="#m9697db2b57" x="369.382564" y="288.430125" style="stroke: #000000; stroke-width: 0.8"/>
      </g>
     </g>
     <g id="text_9">
      <!-- 40 -->
      <g transform="translate(363.020064 303.028562) scale(0.1 -0.1)">
       <defs>
        <path id="DejaVuSans-34" d="M 2419 4116 
L 825 1625 
L 2419 1625 
L 2419 4116 
z
M 2253 4666 
L 3047 4666 
L 3047 1625 
L 3713 1625 
L 3713 1100 
L 3047 1100 
L 3047 0 
L 2419 0 
L 2419 1100 
L 313 1100 
L 313 1709 
L 2253 4666 
z
" transform="scale(0.015625)"/>
       </defs>
       <use xlink:href="#DejaVuSans-34"/>
       <use xlink:href="#DejaVuSans-30" x="63.623047"/>
      </g>
     </g>
    </g>
   </g>
   <g id="matplotlib.axis_2">
    <g id="ytick_1">
     <g id="line2d_10">
      <defs>
       <path id="ma3b95f951d" d="M 0 0 
L -3.5 0 
" style="stroke: #000000; stroke-width: 0.8"/>
      </defs>
      <g>
       <use xlink:href="#ma3b95f951d" x="36.465625" y="277.076792" style="stroke: #000000; stroke-width: 0.8"/>
      </g>
     </g>
     <g id="text_10">
      <!-- 97.8 -->
      <g transform="translate(7.2 280.876011) scale(0.1 -0.1)">
       <defs>
        <path id="DejaVuSans-39" d="M 703 97 
L 703 672 
Q 941 559 1184 500 
Q 1428 441 1663 441 
Q 2288 441 2617 861 
Q 2947 1281 2994 2138 
Q 2813 1869 2534 1725 
Q 2256 1581 1919 1581 
Q 1219 1581 811 2004 
Q 403 2428 403 3163 
Q 403 3881 828 4315 
Q 1253 4750 1959 4750 
Q 2769 4750 3195 4129 
Q 3622 3509 3622 2328 
Q 3622 1225 3098 567 
Q 2575 -91 1691 -91 
Q 1453 -91 1209 -44 
Q 966 3 703 97 
z
M 1959 2075 
Q 2384 2075 2632 2365 
Q 2881 2656 2881 3163 
Q 2881 3666 2632 3958 
Q 2384 4250 1959 4250 
Q 1534 4250 1286 3958 
Q 1038 3666 1038 3163 
Q 1038 2656 1286 2365 
Q 1534 2075 1959 2075 
z
" transform="scale(0.015625)"/>
        <path id="DejaVuSans-37" d="M 525 4666 
L 3525 4666 
L 3525 4397 
L 1831 0 
L 1172 0 
L 2766 4134 
L 525 4134 
L 525 4666 
z
" transform="scale(0.015625)"/>
        <path id="DejaVuSans-2e" d="M 684 794 
L 1344 794 
L 1344 0 
L 684 0 
L 684 794 
z
" transform="scale(0.015625)"/>
        <path id="DejaVuSans-38" d="M 2034 2216 
Q 1584 2216 1326 1975 
Q 1069 1734 1069 1313 
Q 1069 891 1326 650 
Q 1584 409 2034 409 
Q 2484 409 2743 651 
Q 3003 894 3003 1313 
Q 3003 1734 2745 1975 
Q 2488 2216 2034 2216 
z
M 1403 2484 
Q 997 2584 770 2862 
Q 544 3141 544 3541 
Q 544 4100 942 4425 
Q 1341 4750 2034 4750 
Q 2731 4750 3128 4425 
Q 3525 4100 3525 3541 
Q 3525 3141 3298 2862 
Q 3072 2584 2669 2484 
Q 3125 2378 3379 2068 
Q 3634 1759 3634 1313 
Q 3634 634 3220 271 
Q 2806 -91 2034 -91 
Q 1263 -91 848 271 
Q 434 634 434 1313 
Q 434 1759 690 2068 
Q 947 2378 1403 2484 
z
M 1172 3481 
Q 1172 3119 1398 2916 
Q 1625 2713 2034 2713 
Q 2441 2713 2670 2916 
Q 2900 3119 2900 3481 
Q 2900 3844 2670 4047 
Q 2441 4250 2034 4250 
Q 1625 4250 1398 4047 
Q 1172 3844 1172 3481 
z
" transform="scale(0.015625)"/>
       </defs>
       <use xlink:href="#DejaVuSans-39"/>
       <use xlink:href="#DejaVuSans-37" x="63.623047"/>
       <use xlink:href="#DejaVuSans-2e" x="127.246094"/>
       <use xlink:href="#DejaVuSans-38" x="159.033203"/>
      </g>
     </g>
    </g>
    <g id="ytick_2">
     <g id="line2d_11">
      <g>
       <use xlink:href="#ma3b95f951d" x="36.465625" y="240.532777" style="stroke: #000000; stroke-width: 0.8"/>
      </g>
     </g>
     <g id="text_11">
      <!-- 98.0 -->
      <g transform="translate(7.2 244.331996) scale(0.1 -0.1)">
       <use xlink:href="#DejaVuSans-39"/>
       <use xlink:href="#DejaVuSans-38" x="63.623047"/>
       <use xlink:href="#DejaVuSans-2e" x="127.246094"/>
       <use xlink:href="#DejaVuSans-30" x="159.033203"/>
      </g>
     </g>
    </g>
    <g id="ytick_3">
     <g id="line2d_12">
      <g>
       <use xlink:href="#ma3b95f951d" x="36.465625" y="203.988762" style="stroke: #000000; stroke-width: 0.8"/>
      </g>
     </g>
     <g id="text_12">
      <!-- 98.2 -->
      <g transform="translate(7.2 207.787981) scale(0.1 -0.1)">
       <use xlink:href="#DejaVuSans-39"/>
       <use xlink:href="#DejaVuSans-38" x="63.623047"/>
       <use xlink:href="#DejaVuSans-2e" x="127.246094"/>
       <use xlink:href="#DejaVuSans-32" x="159.033203"/>
      </g>
     </g>
    </g>
    <g id="ytick_4">
     <g id="line2d_13">
      <g>
       <use xlink:href="#ma3b95f951d" x="36.465625" y="167.444748" style="stroke: #000000; stroke-width: 0.8"/>
      </g>
     </g>
     <g id="text_13">
      <!-- 98.4 -->
      <g transform="translate(7.2 171.243966) scale(0.1 -0.1)">
       <use xlink:href="#DejaVuSans-39"/>
       <use xlink:href="#DejaVuSans-38" x="63.623047"/>
       <use xlink:href="#DejaVuSans-2e" x="127.246094"/>
       <use xlink:href="#DejaVuSans-34" x="159.033203"/>
      </g>
     </g>
    </g>
    <g id="ytick_5">
     <g id="line2d_14">
      <g>
       <use xlink:href="#ma3b95f951d" x="36.465625" y="130.900733" style="stroke: #000000; stroke-width: 0.8"/>
      </g>
     </g>
     <g id="text_14">
      <!-- 98.6 -->
      <g transform="translate(7.2 134.699951) scale(0.1 -0.1)">
       <defs>
        <path id="DejaVuSans-36" d="M 2113 2584 
Q 1688 2584 1439 2293 
Q 1191 2003 1191 1497 
Q 1191 994 1439 701 
Q 1688 409 2113 409 
Q 2538 409 2786 701 
Q 3034 994 3034 1497 
Q 3034 2003 2786 2293 
Q 2538 2584 2113 2584 
z
M 3366 4563 
L 3366 3988 
Q 3128 4100 2886 4159 
Q 2644 4219 2406 4219 
Q 1781 4219 1451 3797 
Q 1122 3375 1075 2522 
Q 1259 2794 1537 2939 
Q 1816 3084 2150 3084 
Q 2853 3084 3261 2657 
Q 3669 2231 3669 1497 
Q 3669 778 3244 343 
Q 2819 -91 2113 -91 
Q 1303 -91 875 529 
Q 447 1150 447 2328 
Q 447 3434 972 4092 
Q 1497 4750 2381 4750 
Q 2619 4750 2861 4703 
Q 3103 4656 3366 4563 
z
" transform="scale(0.015625)"/>
       </defs>
       <use xlink:href="#DejaVuSans-39"/>
       <use xlink:href="#DejaVuSans-38" x="63.623047"/>
       <use xlink:href="#DejaVuSans-2e" x="127.246094"/>
       <use xlink:href="#DejaVuSans-36" x="159.033203"/>
      </g>
     </g>
    </g>
    <g id="ytick_6">
     <g id="line2d_15">
      <g>
       <use xlink:href="#ma3b95f951d" x="36.465625" y="94.356718" style="stroke: #000000; stroke-width: 0.8"/>
      </g>
     </g>
     <g id="text_15">
      <!-- 98.8 -->
      <g transform="translate(7.2 98.155936) scale(0.1 -0.1)">
       <use xlink:href="#DejaVuSans-39"/>
       <use xlink:href="#DejaVuSans-38" x="63.623047"/>
       <use xlink:href="#DejaVuSans-2e" x="127.246094"/>
       <use xlink:href="#DejaVuSans-38" x="159.033203"/>
      </g>
     </g>
    </g>
    <g id="ytick_7">
     <g id="line2d_16">
      <g>
       <use xlink:href="#ma3b95f951d" x="36.465625" y="57.812703" style="stroke: #000000; stroke-width: 0.8"/>
      </g>
     </g>
     <g id="text_16">
      <!-- 99.0 -->
      <g transform="translate(7.2 61.611921) scale(0.1 -0.1)">
       <use xlink:href="#DejaVuSans-39"/>
       <use xlink:href="#DejaVuSans-39" x="63.623047"/>
       <use xlink:href="#DejaVuSans-2e" x="127.246094"/>
       <use xlink:href="#DejaVuSans-30" x="159.033203"/>
      </g>
     </g>
    </g>
   </g>
   <g id="line2d_17">
    <path d="M 36.465625 272.720184 
L 37.423051 237.87241 
L 38.380478 140.933677 
L 39.337904 87.936885 
L 40.29533 60.302633 
L 41.252756 54.431088 
L 42.210183 64.643989 
L 43.167609 89.240627 
L 44.125035 142.497531 
L 45.082461 233.998247 
L 46.039888 266.476171 
L 46.997314 271.539241 
L 47.95474 238.713906 
L 48.912167 138.380477 
L 49.869593 81.067128 
L 50.827019 52.574187 
L 51.784445 46.98144 
L 52.741872 54.041668 
L 53.699298 79.388986 
L 54.656724 133.192676 
L 55.61415 232.376877 
L 56.571577 266.649867 
L 57.529003 270.159058 
L 58.486429 235.818509 
L 59.443856 134.471478 
L 60.401282 76.572815 
L 61.358708 54.909346 
L 62.316134 49.858891 
L 63.273561 55.30232 
L 64.230987 77.538102 
L 65.188413 136.062352 
L 66.145839 234.622858 
L 67.103266 268.081986 
L 68.060692 266.426483 
L 69.018118 230.996294 
L 69.975545 132.111016 
L 70.932971 80.363489 
L 71.890397 55.745428 
L 72.847823 49.122853 
L 73.80525 54.235332 
L 74.762676 79.376437 
L 75.720102 135.927627 
L 76.677528 234.233853 
L 77.634955 268.247234 
L 78.592381 267.345669 
L 79.549807 233.926442 
L 80.507234 132.023312 
L 81.46466 78.197576 
L 82.422086 53.592067 
L 83.379512 49.036596 
L 84.336939 53.360931 
L 85.294365 73.458467 
L 86.251791 131.786047 
L 87.209217 235.113371 
L 88.166644 268.753499 
L 89.12407 266.911728 
L 90.081496 232.905135 
L 91.038923 131.866778 
L 91.996349 73.084059 
L 92.953775 47.414569 
L 93.911201 35.224458 
L 94.868628 49.038686 
L 95.826054 69.524503 
L 96.78348 125.745693 
L 97.740907 223.995654 
L 98.698333 260.198467 
L 99.655759 258.642786 
L 100.613185 227.082931 
L 101.570612 126.685896 
L 102.528038 71.232075 
L 103.485464 48.164211 
L 104.44289 44.04164 
L 105.400317 43.969926 
L 106.357743 72.745845 
L 107.315169 131.353078 
L 108.272596 229.638473 
L 109.230022 264.13991 
L 110.187448 269.185789 
L 111.144874 232.628925 
L 112.102301 129.819993 
L 113.059727 73.681554 
L 114.017153 47.548592 
L 114.974579 43.192733 
L 115.932006 48.399915 
L 116.889432 75.003716 
L 117.846858 129.601832 
L 118.804285 228.107275 
L 119.761711 262.653002 
L 120.719137 261.286002 
L 121.676563 228.85456 
L 122.63399 130.137104 
L 123.591416 74.652214 
L 124.548842 49.321479 
L 125.506268 43.353441 
L 126.463695 51.821335 
L 127.421121 73.915673 
L 128.378547 131.382388 
L 129.335974 231.249837 
L 130.2934 264.728165 
L 131.250826 269.378951 
L 132.208252 234.992038 
L 133.165679 135.93111 
L 134.123105 79.166258 
L 135.080531 51.956024 
L 136.037957 46.832221 
L 136.995384 52.835302 
L 137.95281 79.465853 
L 138.910236 137.905856 
L 139.867663 239.076683 
L 140.825089 270.55869 
L 141.782515 271.411836 
L 142.739941 240.390434 
L 143.697368 139.4099 
L 144.654794 79.33381 
L 145.61222 55.295071 
L 146.569646 47.193872 
L 147.527073 54.51852 
L 148.484499 80.983687 
L 149.441925 140.92288 
L 150.399352 240.366588 
L 151.356778 272.045687 
L 152.314204 272.674879 
L 153.27163 239.411565 
L 154.229057 142.427724 
L 155.186483 88.590347 
L 156.143909 57.456281 
L 157.101335 53.382836 
L 158.058762 59.538773 
L 159.016188 82.920723 
L 159.973614 142.35941 
L 160.931041 242.980407 
L 161.888467 273.779945 
L 162.845893 270.779086 
L 163.803319 238.654364 
L 164.760746 142.8468 
L 165.718172 86.55116 
L 166.675598 61.715528 
L 167.633024 52.786088 
L 168.590451 60.373931 
L 169.547877 83.033025 
L 170.505303 141.202694 
L 171.46273 240.029968 
L 172.420156 272.479394 
L 173.377582 271.886536 
L 174.335008 239.111422 
L 175.292435 143.164564 
L 176.249861 87.86951 
L 177.207287 58.097037 
L 178.164713 54.184832 
L 179.12214 59.738656 
L 180.079566 86.952389 
L 181.036992 143.654298 
L 181.994419 237.712889 
L 182.951845 271.173205 
L 183.909271 275.53922 
L 184.866697 241.356775 
L 185.824124 140.107797 
L 186.78155 86.457469 
L 187.738976 58.579446 
L 188.696402 53.187444 
L 189.653829 62.199483 
L 190.611255 86.747761 
L 191.568681 137.77077 
L 192.526108 237.018462 
L 193.483534 274.019293 
L 194.44096 276.334125 
L 195.398386 241.67466 
L 196.355813 143.432425 
L 197.313239 86.37027 
L 198.270665 59.488589 
L 199.228091 51.593623 
L 200.185518 58.101123 
L 201.142944 82.7607 
L 202.10037 140.836883 
L 203.057797 237.8297 
L 204.015223 270.565526 
L 204.972649 269.970938 
L 205.930075 235.721636 
L 206.887502 138.826599 
L 207.844928 80.618968 
L 208.802354 58.549736 
L 209.75978 47.122276 
L 210.717207 58.554362 
L 211.674633 86.197542 
L 212.632059 143.274398 
L 213.589486 237.379012 
L 214.546912 274.744984 
L 215.504338 274.539966 
L 216.461764 242.019238 
L 217.419191 140.654451 
L 218.376617 80.092533 
L 219.334043 59.389508 
L 220.29147 50.47151 
L 221.248896 55.530772 
L 222.206322 81.430298 
L 223.163748 141.130449 
L 224.121175 237.802456 
L 225.078601 271.210602 
L 226.036027 271.752894 
L 226.993453 236.316971 
L 227.95088 137.682548 
L 228.908306 83.76753 
L 229.865732 59.248998 
L 230.823159 48.774725 
L 231.780585 59.029255 
L 232.738011 86.684748 
L 233.695437 142.188836 
L 234.652864 238.51356 
L 235.61029 269.842087 
L 236.567716 276.002133 
L 237.525142 237.479285 
L 238.482569 143.043373 
L 239.439995 86.537028 
L 240.397421 63.022735 
L 241.354848 53.132144 
L 242.312274 62.792394 
L 243.2697 84.153194 
L 244.227126 142.282042 
L 245.184553 238.001862 
L 246.141979 274.210301 
L 247.099405 273.550449 
L 248.056831 236.763972 
L 249.014258 138.704351 
L 249.971684 83.741924 
L 250.92911 55.857511 
L 251.886537 50.538704 
L 252.843963 56.242235 
L 253.801389 79.971665 
L 254.758815 139.472512 
L 255.716242 236.337633 
L 256.673668 269.356253 
L 257.631094 271.462148 
L 258.58852 236.884013 
L 259.545947 141.438034 
L 260.503373 81.380944 
L 261.460799 53.877242 
L 262.418226 47.385795 
L 263.375652 59.044896 
L 264.333078 84.482605 
L 265.290504 138.063237 
L 266.247931 235.008161 
L 267.205357 265.715461 
L 268.162783 268.615639 
L 269.120209 235.47765 
L 270.077636 136.408749 
L 271.035062 79.983388 
L 271.992488 55.564073 
L 272.949915 47.078817 
L 273.907341 54.873191 
L 274.864767 81.733057 
L 275.822193 134.382965 
L 276.77962 231.913055 
L 277.737046 269.338567 
L 278.694472 266.518806 
L 279.651898 227.33732 
L 280.609325 131.813847 
L 281.566751 73.75759 
L 282.524177 50.161766 
L 283.481604 44.509578 
L 284.43903 53.697223 
L 285.396456 79.312253 
L 286.353882 137.42301 
L 287.311309 236.270419 
L 288.268735 266.918344 
L 289.226161 264.814377 
L 290.183587 231.462668 
L 291.141014 131.655963 
L 292.09844 75.79913 
L 293.055866 56.053732 
L 294.013293 43.791266 
L 294.970719 52.725247 
L 295.928145 76.182867 
L 296.885571 133.936745 
L 297.842998 232.476806 
L 298.800424 267.370839 
L 299.75785 264.8639 
L 300.715276 232.011706 
L 301.672703 131.552383 
L 302.630129 73.839287 
L 303.587555 46.607005 
L 304.544982 39.373256 
L 305.502408 44.402014 
L 306.459834 74.219279 
L 307.41726 133.348486 
L 308.374687 229.536513 
L 309.332113 261.904716 
L 310.289539 261.658846 
L 311.246965 228.454807 
L 312.204392 131.534605 
L 313.161818 78.017539 
L 314.119244 55.968348 
L 315.076671 46.583998 
L 316.034097 50.070026 
L 316.991523 74.460559 
L 317.948949 132.491812 
L 318.906376 225.299325 
L 319.863802 260.525649 
L 320.821228 264.934919 
L 321.778654 233.941438 
L 322.736081 134.155591 
L 323.693507 71.465557 
L 324.650933 42.088572 
L 325.60836 38.79555 
L 326.565786 45.709512 
L 327.523212 71.386396 
L 328.480638 126.042017 
L 329.438065 224.611446 
L 330.395491 258.128473 
L 331.352917 259.806584 
L 332.310343 224.161113 
L 333.26777 126.870949 
L 334.225196 69.653698 
L 335.182622 48.838159 
L 336.140049 40.703673 
L 337.097475 43.258132 
L 338.054901 67.380932 
L 339.012327 126.305107 
L 339.969754 224.342433 
L 340.92718 261.185409 
L 341.884606 261.144151 
L 342.842033 226.460937 
L 343.799459 131.373107 
L 344.756885 74.977163 
L 345.714311 44.381787 
L 346.671738 34.414125 
L 347.629164 46.601403 
L 348.58659 72.566317 
L 349.544016 133.495348 
L 350.501443 229.820255 
L 351.458869 263.262193 
L 352.416295 262.257368 
L 353.373722 229.063571 
L 354.331148 126.778892 
L 355.288574 71.025238 
L 356.246 47.55112 
L 357.203427 37.541632 
L 358.160853 45.147605 
L 359.118279 70.133009 
L 360.075705 132.233291 
L 361.033132 234.189993 
L 361.990558 267.066873 
L 362.947984 261.806942 
L 363.905411 227.479993 
L 364.862837 129.779251 
L 365.820263 72.802811 
L 366.777689 48.467586 
L 367.735116 43.871483 
L 368.692542 52.91517 
L 369.649968 80.769487 
L 370.607394 136.335948 
L 371.564821 229.667751 
L 372.522247 264.03106 
L 373.479673 265.328402 
L 374.4371 228.636278 
L 375.394526 127.462283 
L 376.351952 69.285864 
L 377.309378 49.092367 
L 378.266805 42.625477 
L 379.224231 51.423561 
L 380.181657 79.380513 
L 381.139083 129.631411 
L 382.09651 229.851159 
L 383.053936 265.491781 
L 384.011362 265.586409 
L 384.968789 236.015917 
L 385.926215 133.5612 
L 386.883641 74.494715 
L 387.841067 51.885499 
L 388.798494 46.862803 
L 389.75592 54.581477 
L 390.713346 78.881069 
L 391.670772 133.800899 
L 392.628199 231.765172 
L 393.585625 264.931677 
L 393.585625 264.931677 
" clip-path="url(#pc1a7246d3e)" style="fill: none; stroke: #1f77b4; stroke-width: 1.5; stroke-linecap: square"/>
   </g>
   <g id="patch_3">
    <path d="M 36.465625 288.430125 
L 36.465625 22.318125 
" style="fill: none; stroke: #000000; stroke-width: 0.8; stroke-linejoin: miter; stroke-linecap: square"/>
   </g>
   <g id="patch_4">
    <path d="M 393.585625 288.430125 
L 393.585625 22.318125 
" style="fill: none; stroke: #000000; stroke-width: 0.8; stroke-linejoin: miter; stroke-linecap: square"/>
   </g>
   <g id="patch_5">
    <path d="M 36.465625 288.430125 
L 393.585625 288.430125 
" style="fill: none; stroke: #000000; stroke-width: 0.8; stroke-linejoin: miter; stroke-linecap: square"/>
   </g>
   <g id="patch_6">
    <path d="M 36.465625 22.318125 
L 393.585625 22.318125 
" style="fill: none; stroke: #000000; stroke-width: 0.8; stroke-linejoin: miter; stroke-linecap: square"/>
   </g>
   <g id="text_17">
    <!-- Fast Flux -->
    <g transform="translate(188.589063 16.318125) scale(0.12 -0.12)">
     <defs>
      <path id="DejaVuSans-46" d="M 628 4666 
L 3309 4666 
L 3309 4134 
L 1259 4134 
L 1259 2759 
L 3109 2759 
L 3109 2228 
L 1259 2228 
L 1259 0 
L 628 0 
L 628 4666 
z
" transform="scale(0.015625)"/>
      <path id="DejaVuSans-61" d="M 2194 1759 
Q 1497 1759 1228 1600 
Q 959 1441 959 1056 
Q 959 750 1161 570 
Q 1363 391 1709 391 
Q 2188 391 2477 730 
Q 2766 1069 2766 1631 
L 2766 1759 
L 2194 1759 
z
M 3341 1997 
L 3341 0 
L 2766 0 
L 2766 531 
Q 2569 213 2275 61 
Q 1981 -91 1556 -91 
Q 1019 -91 701 211 
Q 384 513 384 1019 
Q 384 1609 779 1909 
Q 1175 2209 1959 2209 
L 2766 2209 
L 2766 2266 
Q 2766 2663 2505 2880 
Q 2244 3097 1772 3097 
Q 1472 3097 1187 3025 
Q 903 2953 641 2809 
L 641 3341 
Q 956 3463 1253 3523 
Q 1550 3584 1831 3584 
Q 2591 3584 2966 3190 
Q 3341 2797 3341 1997 
z
" transform="scale(0.015625)"/>
      <path id="DejaVuSans-73" d="M 2834 3397 
L 2834 2853 
Q 2591 2978 2328 3040 
Q 2066 3103 1784 3103 
Q 1356 3103 1142 2972 
Q 928 2841 928 2578 
Q 928 2378 1081 2264 
Q 1234 2150 1697 2047 
L 1894 2003 
Q 2506 1872 2764 1633 
Q 3022 1394 3022 966 
Q 3022 478 2636 193 
Q 2250 -91 1575 -91 
Q 1294 -91 989 -36 
Q 684 19 347 128 
L 347 722 
Q 666 556 975 473 
Q 1284 391 1588 391 
Q 1994 391 2212 530 
Q 2431 669 2431 922 
Q 2431 1156 2273 1281 
Q 2116 1406 1581 1522 
L 1381 1569 
Q 847 1681 609 1914 
Q 372 2147 372 2553 
Q 372 3047 722 3315 
Q 1072 3584 1716 3584 
Q 2034 3584 2315 3537 
Q 2597 3491 2834 3397 
z
" transform="scale(0.015625)"/>
      <path id="DejaVuSans-74" d="M 1172 4494 
L 1172 3500 
L 2356 3500 
L 2356 3053 
L 1172 3053 
L 1172 1153 
Q 1172 725 1289 603 
Q 1406 481 1766 481 
L 2356 481 
L 2356 0 
L 1766 0 
Q 1100 0 847 248 
Q 594 497 594 1153 
L 594 3053 
L 172 3053 
L 172 3500 
L 594 3500 
L 594 4494 
L 1172 4494 
z
" transform="scale(0.015625)"/>
      <path id="DejaVuSans-20" transform="scale(0.015625)"/>
      <path id="DejaVuSans-6c" d="M 603 4863 
L 1178 4863 
L 1178 0 
L 603 0 
L 603 4863 
z
" transform="scale(0.015625)"/>
      <path id="DejaVuSans-75" d="M 544 1381 
L 544 3500 
L 1119 3500 
L 1119 1403 
Q 1119 906 1312 657 
Q 1506 409 1894 409 
Q 2359 409 2629 706 
Q 2900 1003 2900 1516 
L 2900 3500 
L 3475 3500 
L 3475 0 
L 2900 0 
L 2900 538 
Q 2691 219 2414 64 
Q 2138 -91 1772 -91 
Q 1169 -91 856 284 
Q 544 659 544 1381 
z
M 1991 3584 
L 1991 3584 
z
" transform="scale(0.015625)"/>
      <path id="DejaVuSans-78" d="M 3513 3500 
L 2247 1797 
L 3578 0 
L 2900 0 
L 1881 1375 
L 863 0 
L 184 0 
L 1544 1831 
L 300 3500 
L 978 3500 
L 1906 2253 
L 2834 3500 
L 3513 3500 
z
" transform="scale(0.015625)"/>
     </defs>
     <use xlink:href="#DejaVuSans-46"/>
     <use xlink:href="#DejaVuSans-61" x="48.394531"/>
     <use xlink:href="#DejaVuSans-73" x="109.673828"/>
     <use xlink:href="#DejaVuSans-74" x="161.773438"/>
     <use xlink:href="#DejaVuSans-20" x="200.982422"/>
     <use xlink:href="#DejaVuSans-46" x="232.769531"/>
     <use xlink:href="#DejaVuSans-6c" x="290.289062"/>
     <use xlink:href="#DejaVuSans-75" x="318.072266"/>
     <use xlink:href="#DejaVuSans-78" x="381.451172"/>
    </g>
   </g>
  </g>
 </g>
 <defs>
  <clipPath id="pc1a7246d3e">
   <rect x="36.465625" y="22.318125" width="357.12" height="266.112"/>
  </clipPath>
 </defs>
</svg>
