<?xml version="1.0" encoding="utf-8" standalone="no"?>
<!DOCTYPE svg PUBLIC "-//W3C//DTD SVG 1.1//EN"
  "http://www.w3.org/Graphics/SVG/1.1/DTD/svg11.dtd">
<svg xmlns:xlink="http://www.w3.org/1999/xlink" width="407.148125pt" height="312.30825pt" viewBox="0 0 407.148125 312.30825" xmlns="http://www.w3.org/2000/svg" version="1.1">
 <metadata>
  <rdf:RDF xmlns:dc="http://purl.org/dc/elements/1.1/" xmlns:cc="http://creativecommons.org/ns#" xmlns:rdf="http://www.w3.org/1999/02/22-rdf-syntax-ns#">
   <cc:Work>
    <dc:type rdf:resource="http://purl.org/dc/dcmitype/StillImage"/>
    <dc:date>2024-03-18T12:15:15.475371</dc:date>
    <dc:format>image/svg+xml</dc:format>
    <dc:creator>
     <cc:Agent>
      <dc:title>Matplotlib v3.8.2, https://matplotlib.org/</dc:title>
     </cc:Agent>
    </dc:creator>
   </cc:Work>
  </rdf:RDF>
 </metadata>
 <defs>
  <style type="text/css">*{stroke-linejoin: round; stroke-linecap: butt}</style>
 </defs>
 <g id="figure_1">
  <g id="patch_1">
   <path d="M 0 312.30825 
L 407.148125 312.30825 
L 407.148125 0 
L 0 0 
z
" style="fill: #ffffff"/>
  </g>
  <g id="axes_1">
   <g id="patch_2">
    <path d="M 42.828125 288.430125 
L 399.948125 288.430125 
L 399.948125 22.318125 
L 42.828125 22.318125 
z
" style="fill: #ffffff"/>
   </g>
   <g id="matplotlib.axis_1">
    <g id="xtick_1">
     <g id="line2d_1">
      <defs>
       <path id="m566c6879a4" d="M 0 0 
L 0 3.5 
" style="stroke: #000000; stroke-width: 0.8"/>
      </defs>
      <g>
       <use xlink:href="#m566c6879a4" x="42.828125" y="288.430125" style="stroke: #000000; stroke-width: 0.8"/>
      </g>
     </g>
     <g id="text_1">
      <!-- 0 -->
      <g transform="translate(39.646875 303.028562) scale(0.1 -0.1)">
       <defs>
        <path id="DejaVuSans-30" d="M 2034 4250 
Q 1547 4250 1301 3770 
Q 1056 3291 1056 2328 
Q 1056 1369 1301 889 
Q 1547 409 2034 409 
Q 2525 409 2770 889 
Q 3016 1369 3016 2328 
Q 3016 3291 2770 3770 
Q 2525 4250 2034 4250 
z
M 2034 4750 
Q 2819 4750 3233 4129 
Q 3647 3509 3647 2328 
Q 3647 1150 3233 529 
Q 2819 -91 2034 -91 
Q 1250 -91 836 529 
Q 422 1150 422 2328 
Q 422 3509 836 4129 
Q 1250 4750 2034 4750 
z
" transform="scale(0.015625)"/>
       </defs>
       <use xlink:href="#DejaVuSans-30"/>
      </g>
     </g>
    </g>
    <g id="xtick_2">
     <g id="line2d_2">
      <g>
       <use xlink:href="#m566c6879a4" x="84.442742" y="288.430125" style="stroke: #000000; stroke-width: 0.8"/>
      </g>
     </g>
     <g id="text_2">
      <!-- 5 -->
      <g transform="translate(81.261492 303.028562) scale(0.1 -0.1)">
       <defs>
        <path id="DejaVuSans-35" d="M 691 4666 
L 3169 4666 
L 3169 4134 
L 1269 4134 
L 1269 2991 
Q 1406 3038 1543 3061 
Q 1681 3084 1819 3084 
Q 2600 3084 3056 2656 
Q 3513 2228 3513 1497 
Q 3513 744 3044 326 
Q 2575 -91 1722 -91 
Q 1428 -91 1123 -41 
Q 819 9 494 109 
L 494 744 
Q 775 591 1075 516 
Q 1375 441 1709 441 
Q 2250 441 2565 725 
Q 2881 1009 2881 1497 
Q 2881 1984 2565 2268 
Q 2250 2553 1709 2553 
Q 1456 2553 1204 2497 
Q 953 2441 691 2322 
L 691 4666 
z
" transform="scale(0.015625)"/>
       </defs>
       <use xlink:href="#DejaVuSans-35"/>
      </g>
     </g>
    </g>
    <g id="xtick_3">
     <g id="line2d_3">
      <g>
       <use xlink:href="#m566c6879a4" x="126.05736" y="288.430125" style="stroke: #000000; stroke-width: 0.8"/>
      </g>
     </g>
     <g id="text_3">
      <!-- 10 -->
      <g transform="translate(119.69486 303.028562) scale(0.1 -0.1)">
       <defs>
        <path id="DejaVuSans-31" d="M 794 531 
L 1825 531 
L 1825 4091 
L 703 3866 
L 703 4441 
L 1819 4666 
L 2450 4666 
L 2450 531 
L 3481 531 
L 3481 0 
L 794 0 
L 794 531 
z
" transform="scale(0.015625)"/>
       </defs>
       <use xlink:href="#DejaVuSans-31"/>
       <use xlink:href="#DejaVuSans-30" x="63.623047"/>
      </g>
     </g>
    </g>
    <g id="xtick_4">
     <g id="line2d_4">
      <g>
       <use xlink:href="#m566c6879a4" x="167.671977" y="288.430125" style="stroke: #000000; stroke-width: 0.8"/>
      </g>
     </g>
     <g id="text_4">
      <!-- 15 -->
      <g transform="translate(161.309477 303.028562) scale(0.1 -0.1)">
       <use xlink:href="#DejaVuSans-31"/>
       <use xlink:href="#DejaVuSans-35" x="63.623047"/>
      </g>
     </g>
    </g>
    <g id="xtick_5">
     <g id="line2d_5">
      <g>
       <use xlink:href="#m566c6879a4" x="209.286594" y="288.430125" style="stroke: #000000; stroke-width: 0.8"/>
      </g>
     </g>
     <g id="text_5">
      <!-- 20 -->
      <g transform="translate(202.924094 303.028562) scale(0.1 -0.1)">
       <defs>
        <path id="DejaVuSans-32" d="M 1228 531 
L 3431 531 
L 3431 0 
L 469 0 
L 469 531 
Q 828 903 1448 1529 
Q 2069 2156 2228 2338 
Q 2531 2678 2651 2914 
Q 2772 3150 2772 3378 
Q 2772 3750 2511 3984 
Q 2250 4219 1831 4219 
Q 1534 4219 1204 4116 
Q 875 4013 500 3803 
L 500 4441 
Q 881 4594 1212 4672 
Q 1544 4750 1819 4750 
Q 2544 4750 2975 4387 
Q 3406 4025 3406 3419 
Q 3406 3131 3298 2873 
Q 3191 2616 2906 2266 
Q 2828 2175 2409 1742 
Q 1991 1309 1228 531 
z
" transform="scale(0.015625)"/>
       </defs>
       <use xlink:href="#DejaVuSans-32"/>
       <use xlink:href="#DejaVuSans-30" x="63.623047"/>
      </g>
     </g>
    </g>
    <g id="xtick_6">
     <g id="line2d_6">
      <g>
       <use xlink:href="#m566c6879a4" x="250.901212" y="288.430125" style="stroke: #000000; stroke-width: 0.8"/>
      </g>
     </g>
     <g id="text_6">
      <!-- 25 -->
      <g transform="translate(244.538712 303.028562) scale(0.1 -0.1)">
       <use xlink:href="#DejaVuSans-32"/>
       <use xlink:href="#DejaVuSans-35" x="63.623047"/>
      </g>
     </g>
    </g>
    <g id="xtick_7">
     <g id="line2d_7">
      <g>
       <use xlink:href="#m566c6879a4" x="292.515829" y="288.430125" style="stroke: #000000; stroke-width: 0.8"/>
      </g>
     </g>
     <g id="text_7">
      <!-- 30 -->
      <g transform="translate(286.153329 303.028562) scale(0.1 -0.1)">
       <defs>
        <path id="DejaVuSans-33" d="M 2597 2516 
Q 3050 2419 3304 2112 
Q 3559 1806 3559 1356 
Q 3559 666 3084 287 
Q 2609 -91 1734 -91 
Q 1441 -91 1130 -33 
Q 819 25 488 141 
L 488 750 
Q 750 597 1062 519 
Q 1375 441 1716 441 
Q 2309 441 2620 675 
Q 2931 909 2931 1356 
Q 2931 1769 2642 2001 
Q 2353 2234 1838 2234 
L 1294 2234 
L 1294 2753 
L 1863 2753 
Q 2328 2753 2575 2939 
Q 2822 3125 2822 3475 
Q 2822 3834 2567 4026 
Q 2313 4219 1838 4219 
Q 1578 4219 1281 4162 
Q 984 4106 628 3988 
L 628 4550 
Q 988 4650 1302 4700 
Q 1616 4750 1894 4750 
Q 2613 4750 3031 4423 
Q 3450 4097 3450 3541 
Q 3450 3153 3228 2886 
Q 3006 2619 2597 2516 
z
" transform="scale(0.015625)"/>
       </defs>
       <use xlink:href="#DejaVuSans-33"/>
       <use xlink:href="#DejaVuSans-30" x="63.623047"/>
      </g>
     </g>
    </g>
    <g id="xtick_8">
     <g id="line2d_8">
      <g>
       <use xlink:href="#m566c6879a4" x="334.130446" y="288.430125" style="stroke: #000000; stroke-width: 0.8"/>
      </g>
     </g>
     <g id="text_8">
      <!-- 35 -->
      <g transform="translate(327.767946 303.028562) scale(0.1 -0.1)">
       <use xlink:href="#DejaVuSans-33"/>
       <use xlink:href="#DejaVuSans-35" x="63.623047"/>
      </g>
     </g>
    </g>
    <g id="xtick_9">
     <g id="line2d_9">
      <g>
       <use xlink:href="#m566c6879a4" x="375.745064" y="288.430125" style="stroke: #000000; stroke-width: 0.8"/>
      </g>
     </g>
     <g id="text_9">
      <!-- 40 -->
      <g transform="translate(369.382564 303.028562) scale(0.1 -0.1)">
       <defs>
        <path id="DejaVuSans-34" d="M 2419 4116 
L 825 1625 
L 2419 1625 
L 2419 4116 
z
M 2253 4666 
L 3047 4666 
L 3047 1625 
L 3713 1625 
L 3713 1100 
L 3047 1100 
L 3047 0 
L 2419 0 
L 2419 1100 
L 313 1100 
L 313 1709 
L 2253 4666 
z
" transform="scale(0.015625)"/>
       </defs>
       <use xlink:href="#DejaVuSans-34"/>
       <use xlink:href="#DejaVuSans-30" x="63.623047"/>
      </g>
     </g>
    </g>
   </g>
   <g id="matplotlib.axis_2">
    <g id="ytick_1">
     <g id="line2d_10">
      <defs>
       <path id="m0a1d08e0e7" d="M 0 0 
L -3.5 0 
" style="stroke: #000000; stroke-width: 0.8"/>
      </defs>
      <g>
       <use xlink:href="#m0a1d08e0e7" x="42.828125" y="281.900974" style="stroke: #000000; stroke-width: 0.8"/>
      </g>
     </g>
     <g id="text_10">
      <!-- 2.055 -->
      <g transform="translate(7.2 285.700193) scale(0.1 -0.1)">
       <defs>
        <path id="DejaVuSans-2e" d="M 684 794 
L 1344 794 
L 1344 0 
L 684 0 
L 684 794 
z
" transform="scale(0.015625)"/>
       </defs>
       <use xlink:href="#DejaVuSans-32"/>
       <use xlink:href="#DejaVuSans-2e" x="63.623047"/>
       <use xlink:href="#DejaVuSans-30" x="95.410156"/>
       <use xlink:href="#DejaVuSans-35" x="159.033203"/>
       <use xlink:href="#DejaVuSans-35" x="222.65625"/>
      </g>
     </g>
    </g>
    <g id="ytick_2">
     <g id="line2d_11">
      <g>
       <use xlink:href="#m0a1d08e0e7" x="42.828125" y="245.278495" style="stroke: #000000; stroke-width: 0.8"/>
      </g>
     </g>
     <g id="text_11">
      <!-- 2.060 -->
      <g transform="translate(7.2 249.077714) scale(0.1 -0.1)">
       <defs>
        <path id="DejaVuSans-36" d="M 2113 2584 
Q 1688 2584 1439 2293 
Q 1191 2003 1191 1497 
Q 1191 994 1439 701 
Q 1688 409 2113 409 
Q 2538 409 2786 701 
Q 3034 994 3034 1497 
Q 3034 2003 2786 2293 
Q 2538 2584 2113 2584 
z
M 3366 4563 
L 3366 3988 
Q 3128 4100 2886 4159 
Q 2644 4219 2406 4219 
Q 1781 4219 1451 3797 
Q 1122 3375 1075 2522 
Q 1259 2794 1537 2939 
Q 1816 3084 2150 3084 
Q 2853 3084 3261 2657 
Q 3669 2231 3669 1497 
Q 3669 778 3244 343 
Q 2819 -91 2113 -91 
Q 1303 -91 875 529 
Q 447 1150 447 2328 
Q 447 3434 972 4092 
Q 1497 4750 2381 4750 
Q 2619 4750 2861 4703 
Q 3103 4656 3366 4563 
z
" transform="scale(0.015625)"/>
       </defs>
       <use xlink:href="#DejaVuSans-32"/>
       <use xlink:href="#DejaVuSans-2e" x="63.623047"/>
       <use xlink:href="#DejaVuSans-30" x="95.410156"/>
       <use xlink:href="#DejaVuSans-36" x="159.033203"/>
       <use xlink:href="#DejaVuSans-30" x="222.65625"/>
      </g>
     </g>
    </g>
    <g id="ytick_3">
     <g id="line2d_12">
      <g>
       <use xlink:href="#m0a1d08e0e7" x="42.828125" y="208.656017" style="stroke: #000000; stroke-width: 0.8"/>
      </g>
     </g>
     <g id="text_12">
      <!-- 2.065 -->
      <g transform="translate(7.2 212.455235) scale(0.1 -0.1)">
       <use xlink:href="#DejaVuSans-32"/>
       <use xlink:href="#DejaVuSans-2e" x="63.623047"/>
       <use xlink:href="#DejaVuSans-30" x="95.410156"/>
       <use xlink:href="#DejaVuSans-36" x="159.033203"/>
       <use xlink:href="#DejaVuSans-35" x="222.65625"/>
      </g>
     </g>
    </g>
    <g id="ytick_4">
     <g id="line2d_13">
      <g>
       <use xlink:href="#m0a1d08e0e7" x="42.828125" y="172.033538" style="stroke: #000000; stroke-width: 0.8"/>
      </g>
     </g>
     <g id="text_13">
      <!-- 2.070 -->
      <g transform="translate(7.2 175.832757) scale(0.1 -0.1)">
       <defs>
        <path id="DejaVuSans-37" d="M 525 4666 
L 3525 4666 
L 3525 4397 
L 1831 0 
L 1172 0 
L 2766 4134 
L 525 4134 
L 525 4666 
z
" transform="scale(0.015625)"/>
       </defs>
       <use xlink:href="#DejaVuSans-32"/>
       <use xlink:href="#DejaVuSans-2e" x="63.623047"/>
       <use xlink:href="#DejaVuSans-30" x="95.410156"/>
       <use xlink:href="#DejaVuSans-37" x="159.033203"/>
       <use xlink:href="#DejaVuSans-30" x="222.65625"/>
      </g>
     </g>
    </g>
    <g id="ytick_5">
     <g id="line2d_14">
      <g>
       <use xlink:href="#m0a1d08e0e7" x="42.828125" y="135.411059" style="stroke: #000000; stroke-width: 0.8"/>
      </g>
     </g>
     <g id="text_14">
      <!-- 2.075 -->
      <g transform="translate(7.2 139.210278) scale(0.1 -0.1)">
       <use xlink:href="#DejaVuSans-32"/>
       <use xlink:href="#DejaVuSans-2e" x="63.623047"/>
       <use xlink:href="#DejaVuSans-30" x="95.410156"/>
       <use xlink:href="#DejaVuSans-37" x="159.033203"/>
       <use xlink:href="#DejaVuSans-35" x="222.65625"/>
      </g>
     </g>
    </g>
    <g id="ytick_6">
     <g id="line2d_15">
      <g>
       <use xlink:href="#m0a1d08e0e7" x="42.828125" y="98.78858" style="stroke: #000000; stroke-width: 0.8"/>
      </g>
     </g>
     <g id="text_15">
      <!-- 2.080 -->
      <g transform="translate(7.2 102.587799) scale(0.1 -0.1)">
       <defs>
        <path id="DejaVuSans-38" d="M 2034 2216 
Q 1584 2216 1326 1975 
Q 1069 1734 1069 1313 
Q 1069 891 1326 650 
Q 1584 409 2034 409 
Q 2484 409 2743 651 
Q 3003 894 3003 1313 
Q 3003 1734 2745 1975 
Q 2488 2216 2034 2216 
z
M 1403 2484 
Q 997 2584 770 2862 
Q 544 3141 544 3541 
Q 544 4100 942 4425 
Q 1341 4750 2034 4750 
Q 2731 4750 3128 4425 
Q 3525 4100 3525 3541 
Q 3525 3141 3298 2862 
Q 3072 2584 2669 2484 
Q 3125 2378 3379 2068 
Q 3634 1759 3634 1313 
Q 3634 634 3220 271 
Q 2806 -91 2034 -91 
Q 1263 -91 848 271 
Q 434 634 434 1313 
Q 434 1759 690 2068 
Q 947 2378 1403 2484 
z
M 1172 3481 
Q 1172 3119 1398 2916 
Q 1625 2713 2034 2713 
Q 2441 2713 2670 2916 
Q 2900 3119 2900 3481 
Q 2900 3844 2670 4047 
Q 2441 4250 2034 4250 
Q 1625 4250 1398 4047 
Q 1172 3844 1172 3481 
z
" transform="scale(0.015625)"/>
       </defs>
       <use xlink:href="#DejaVuSans-32"/>
       <use xlink:href="#DejaVuSans-2e" x="63.623047"/>
       <use xlink:href="#DejaVuSans-30" x="95.410156"/>
       <use xlink:href="#DejaVuSans-38" x="159.033203"/>
       <use xlink:href="#DejaVuSans-30" x="222.65625"/>
      </g>
     </g>
    </g>
    <g id="ytick_7">
     <g id="line2d_16">
      <g>
       <use xlink:href="#m0a1d08e0e7" x="42.828125" y="62.166102" style="stroke: #000000; stroke-width: 0.8"/>
      </g>
     </g>
     <g id="text_16">
      <!-- 2.085 -->
      <g transform="translate(7.2 65.96532) scale(0.1 -0.1)">
       <use xlink:href="#DejaVuSans-32"/>
       <use xlink:href="#DejaVuSans-2e" x="63.623047"/>
       <use xlink:href="#DejaVuSans-30" x="95.410156"/>
       <use xlink:href="#DejaVuSans-38" x="159.033203"/>
       <use xlink:href="#DejaVuSans-35" x="222.65625"/>
      </g>
     </g>
    </g>
    <g id="ytick_8">
     <g id="line2d_17">
      <g>
       <use xlink:href="#m0a1d08e0e7" x="42.828125" y="25.543623" style="stroke: #000000; stroke-width: 0.8"/>
      </g>
     </g>
     <g id="text_17">
      <!-- 2.090 -->
      <g transform="translate(7.2 29.342841) scale(0.1 -0.1)">
       <defs>
        <path id="DejaVuSans-39" d="M 703 97 
L 703 672 
Q 941 559 1184 500 
Q 1428 441 1663 441 
Q 2288 441 2617 861 
Q 2947 1281 2994 2138 
Q 2813 1869 2534 1725 
Q 2256 1581 1919 1581 
Q 1219 1581 811 2004 
Q 403 2428 403 3163 
Q 403 3881 828 4315 
Q 1253 4750 1959 4750 
Q 2769 4750 3195 4129 
Q 3622 3509 3622 2328 
Q 3622 1225 3098 567 
Q 2575 -91 1691 -91 
Q 1453 -91 1209 -44 
Q 966 3 703 97 
z
M 1959 2075 
Q 2384 2075 2632 2365 
Q 2881 2656 2881 3163 
Q 2881 3666 2632 3958 
Q 2384 4250 1959 4250 
Q 1534 4250 1286 3958 
Q 1038 3666 1038 3163 
Q 1038 2656 1286 2365 
Q 1534 2075 1959 2075 
z
" transform="scale(0.015625)"/>
       </defs>
       <use xlink:href="#DejaVuSans-32"/>
       <use xlink:href="#DejaVuSans-2e" x="63.623047"/>
       <use xlink:href="#DejaVuSans-30" x="95.410156"/>
       <use xlink:href="#DejaVuSans-39" x="159.033203"/>
       <use xlink:href="#DejaVuSans-30" x="222.65625"/>
      </g>
     </g>
    </g>
    <g id="text_18">
     <!-- 1e17 -->
     <g transform="translate(42.828125 19.318125) scale(0.1 -0.1)">
      <defs>
       <path id="DejaVuSans-65" d="M 3597 1894 
L 3597 1613 
L 953 1613 
Q 991 1019 1311 708 
Q 1631 397 2203 397 
Q 2534 397 2845 478 
Q 3156 559 3463 722 
L 3463 178 
Q 3153 47 2828 -22 
Q 2503 -91 2169 -91 
Q 1331 -91 842 396 
Q 353 884 353 1716 
Q 353 2575 817 3079 
Q 1281 3584 2069 3584 
Q 2775 3584 3186 3129 
Q 3597 2675 3597 1894 
z
M 3022 2063 
Q 3016 2534 2758 2815 
Q 2500 3097 2075 3097 
Q 1594 3097 1305 2825 
Q 1016 2553 972 2059 
L 3022 2063 
z
" transform="scale(0.015625)"/>
      </defs>
      <use xlink:href="#DejaVuSans-31"/>
      <use xlink:href="#DejaVuSans-65" x="63.623047"/>
      <use xlink:href="#DejaVuSans-31" x="125.146484"/>
      <use xlink:href="#DejaVuSans-37" x="188.769531"/>
     </g>
    </g>
   </g>
   <g id="line2d_18">
    <path d="M 42.828125 235.744193 
L 43.785551 215.106108 
L 44.742978 131.574344 
L 45.700404 74.630237 
L 46.65783 53.728649 
L 47.615256 50.58303 
L 48.572683 46.95266 
L 49.530109 65.04854 
L 50.487535 107.278112 
L 51.444961 198.281955 
L 52.402388 227.259726 
L 53.359814 219.686714 
L 54.31724 191.31677 
L 55.274667 120.07157 
L 56.232093 81.313643 
L 57.189519 66.501726 
L 58.146945 56.886118 
L 59.104372 58.118474 
L 60.061798 70.918418 
L 61.019224 125.220247 
L 61.97665 210.859386 
L 62.934077 239.030272 
L 63.891503 230.029878 
L 64.848929 203.780027 
L 65.806356 125.70489 
L 66.763782 84.39191 
L 67.721208 60.002574 
L 68.678634 51.644703 
L 69.636061 57.778084 
L 70.593487 87.336293 
L 71.550913 147.071415 
L 72.508339 217.449261 
L 73.465766 255.440475 
L 74.423192 247.329361 
L 75.380618 209.281544 
L 76.338045 128.328545 
L 77.295471 82.601565 
L 78.252897 56.648991 
L 79.210323 47.215726 
L 80.16775 56.628513 
L 81.125176 75.501914 
L 82.082602 119.948617 
L 83.040028 205.206097 
L 83.997455 230.990565 
L 84.954881 229.737394 
L 85.912307 196.167958 
L 86.869734 112.338533 
L 87.82716 68.173628 
L 88.784586 53.11424 
L 89.742012 42.64093 
L 90.699439 56.154517 
L 91.656865 72.076126 
L 92.614291 122.827437 
L 93.571717 216.281091 
L 94.529144 248.94842 
L 95.48657 243.953332 
L 96.443996 214.867726 
L 97.401423 135.157642 
L 98.358849 92.597138 
L 99.316275 61.70332 
L 100.273701 60.163229 
L 101.231128 65.670555 
L 102.188554 89.226724 
L 103.14598 137.74771 
L 104.103407 217.809803 
L 105.060833 248.482845 
L 106.018259 246.978429 
L 106.975685 213.490606 
L 107.933112 146.850719 
L 108.890538 96.874767 
L 109.847964 72.852083 
L 110.80539 66.234835 
L 111.762817 71.509646 
L 112.720243 107.661077 
L 113.677669 154.17788 
L 114.635096 233.036844 
L 115.592522 269.517101 
L 116.549948 269.318311 
L 117.507374 238.35549 
L 118.464801 160.030639 
L 119.422227 112.461293 
L 120.379653 75.663439 
L 121.337079 74.090452 
L 122.294506 86.162484 
L 123.251932 116.785923 
L 124.209358 159.94091 
L 125.166785 244.236135 
L 126.124211 266.933676 
L 127.081637 264.025499 
L 128.039063 229.594194 
L 128.99649 141.16878 
L 129.953916 102.438114 
L 130.911342 80.454084 
L 131.868768 63.838456 
L 132.826195 78.423557 
L 133.783621 100.797555 
L 134.741047 149.118225 
L 135.698474 224.567364 
L 136.6559 256.668532 
L 137.613326 267.321082 
L 138.570752 236.63955 
L 139.528179 152.197848 
L 140.485605 101.551637 
L 141.443031 81.339556 
L 142.400457 69.862949 
L 143.357884 81.56854 
L 144.31531 106.173494 
L 145.272736 148.322607 
L 146.230163 231.961581 
L 147.187589 261.418123 
L 148.145015 261.260284 
L 149.102441 240.336258 
L 150.059868 153.231153 
L 151.017294 105.444499 
L 151.97472 89.385518 
L 152.932146 76.973489 
L 153.889573 78.935146 
L 154.846999 95.585072 
L 155.804425 142.550534 
L 156.761852 236.3623 
L 157.719278 265.251887 
L 158.676704 265.990835 
L 159.63413 242.575646 
L 160.591557 165.50378 
L 161.548983 112.830072 
L 162.506409 95.045089 
L 163.463835 74.065184 
L 164.421262 98.991927 
L 165.378688 110.573154 
L 166.336114 160.732396 
L 167.293541 238.167847 
L 168.250967 265.119729 
L 169.208393 276.334125 
L 170.165819 246.91554 
L 171.123246 153.767078 
L 172.080672 112.069195 
L 173.038098 86.003906 
L 173.995524 85.466441 
L 174.952951 72.060534 
L 175.910377 98.249093 
L 176.867803 158.648593 
L 177.82523 232.249875 
L 178.782656 256.39051 
L 179.740082 261.214371 
L 180.697508 228.874868 
L 181.654935 136.229379 
L 182.612361 84.110018 
L 183.569787 70.296407 
L 184.527213 73.980869 
L 185.48464 69.430564 
L 186.442066 94.864428 
L 187.399492 138.053888 
L 188.356919 216.20443 
L 189.314345 251.979655 
L 190.271771 254.53894 
L 191.229197 230.054628 
L 192.186624 149.937395 
L 193.14405 102.665673 
L 194.101476 85.061793 
L 195.058902 74.573077 
L 196.016329 77.340749 
L 196.973755 94.924176 
L 197.931181 142.582567 
L 198.888608 235.343475 
L 199.846034 262.61831 
L 200.80346 264.08438 
L 201.760886 239.635913 
L 202.718313 147.041945 
L 203.675739 90.809876 
L 205.590591 66.962324 
L 206.548018 83.846632 
L 207.505444 106.745783 
L 208.46287 137.615807 
L 209.420297 226.189636 
L 210.377723 260.983897 
L 211.335149 260.58548 
L 212.292575 232.434293 
L 213.250002 151.90827 
L 214.207428 101.418095 
L 215.164854 70.653568 
L 216.12228 68.212642 
L 217.079707 67.953776 
L 218.037133 90.982346 
L 218.994559 125.863957 
L 219.951986 204.911545 
L 220.909412 239.363169 
L 221.866838 243.104196 
L 222.824264 212.807106 
L 223.781691 128.274478 
L 224.739117 68.987522 
L 225.696543 65.957385 
L 226.65397 59.298851 
L 227.611396 55.948731 
L 228.568822 76.276465 
L 229.526248 128.375959 
L 230.483675 212.579975 
L 231.441101 243.287489 
L 232.398527 251.064935 
L 233.355953 220.15461 
L 234.31338 121.68207 
L 235.270806 77.75101 
L 236.228232 54.252023 
L 237.185659 42.628309 
L 238.143085 55.114513 
L 239.100511 74.284574 
L 240.057937 121.555605 
L 241.015364 205.351564 
L 241.97279 238.192409 
L 242.930216 228.783141 
L 243.887642 213.977524 
L 244.845069 132.701352 
L 245.802495 79.651187 
L 246.759921 54.428549 
L 247.717348 50.383835 
L 248.674774 61.567563 
L 249.6322 79.371967 
L 250.589626 130.557334 
L 251.547053 216.2544 
L 252.504479 247.194109 
L 253.461905 251.054008 
L 254.419331 224.296771 
L 255.376758 146.536111 
L 256.334184 93.275382 
L 257.29161 76.759009 
L 258.249037 73.984371 
L 259.206463 69.805926 
L 260.163889 83.028379 
L 261.121315 131.032503 
L 262.078742 218.736003 
L 263.036168 247.523935 
L 263.993594 246.697723 
L 264.95102 228.625758 
L 265.908447 146.213207 
L 266.865873 85.91206 
L 267.823299 79.604687 
L 268.780726 70.185569 
L 270.695578 81.482647 
L 271.653004 129.887849 
L 272.610431 227.404237 
L 273.567857 252.42336 
L 274.525283 248.077857 
L 275.482709 227.946868 
L 276.440136 155.72355 
L 277.397562 101.559419 
L 278.354988 70.931181 
L 279.312415 62.705242 
L 280.269841 74.987652 
L 281.227267 96.539447 
L 282.184693 150.674424 
L 283.14212 231.235706 
L 284.099546 252.408381 
L 285.056972 258.785613 
L 286.014398 221.082981 
L 286.971825 137.952673 
L 288.886677 76.861968 
L 289.844104 64.540599 
L 291.758956 95.152004 
L 292.716382 135.830153 
L 293.673809 215.365251 
L 294.631235 256.639638 
L 295.588661 258.329706 
L 296.546087 224.610578 
L 297.503514 150.062697 
L 298.46094 92.860639 
L 300.375793 75.159322 
L 301.333219 75.955392 
L 302.290645 99.701002 
L 303.248071 143.629301 
L 304.205498 224.608502 
L 305.162924 251.548838 
L 306.12035 252.008365 
L 307.077776 218.30015 
L 308.035203 125.507746 
L 308.992629 87.232826 
L 309.950055 71.059475 
L 310.907482 65.92502 
L 312.822334 101.512181 
L 313.77976 136.944596 
L 314.737187 216.166636 
L 315.694613 252.795538 
L 316.652039 253.634941 
L 317.609465 231.765477 
L 318.566892 135.534663 
L 319.524318 98.553056 
L 320.481744 80.662081 
L 321.439171 74.929319 
L 322.396597 82.322602 
L 323.354023 97.516415 
L 324.311449 139.034363 
L 325.268876 220.744024 
L 326.226302 241.703234 
L 327.183728 248.460438 
L 328.141154 216.881634 
L 329.098581 140.831322 
L 330.056007 103.009023 
L 331.013433 57.295642 
L 331.97086 52.719457 
L 332.928286 53.905975 
L 333.885712 74.976738 
L 334.843138 123.561541 
L 335.800565 211.746795 
L 336.757991 242.645958 
L 337.715417 239.08577 
L 338.672843 199.400339 
L 339.63027 124.895687 
L 340.587696 84.840087 
L 341.545122 59.710981 
L 342.502549 55.031064 
L 343.459975 65.007565 
L 344.417401 88.537303 
L 345.374827 132.795179 
L 346.332254 207.212672 
L 347.28968 233.400355 
L 348.247106 234.561715 
L 349.204533 204.244066 
L 350.161959 125.282293 
L 351.119385 77.226576 
L 352.076811 49.82383 
L 353.034238 49.955321 
L 353.991664 56.870704 
L 354.94909 82.265535 
L 355.906516 135.931777 
L 356.863943 230.098054 
L 357.821369 248.996793 
L 358.778795 249.889593 
L 359.736222 217.705106 
L 360.693648 128.102543 
L 361.651074 73.764277 
L 362.6085 44.216452 
L 363.565927 35.887948 
L 364.523353 47.427252 
L 365.480779 64.938043 
L 366.438205 124.659467 
L 367.395632 207.198234 
L 368.353058 235.046638 
L 369.310484 246.017367 
L 370.267911 228.72946 
L 371.225337 136.881781 
L 372.182763 68.977597 
L 373.140189 35.074781 
L 374.097616 34.414125 
L 375.055042 38.827101 
L 376.012468 56.534663 
L 376.969894 120.206661 
L 377.927321 196.896847 
L 378.884747 238.792166 
L 379.842173 241.898378 
L 380.7996 212.591944 
L 381.757026 125.168935 
L 382.714452 87.923638 
L 383.671878 55.243614 
L 384.629305 57.657155 
L 385.586731 55.169228 
L 386.544157 74.235014 
L 387.501583 118.843001 
L 388.45901 200.171882 
L 389.416436 225.944103 
L 390.373862 227.183024 
L 391.331289 201.451717 
L 392.288715 120.399841 
L 393.246141 65.941539 
L 394.203567 43.810672 
L 395.160994 45.999604 
L 396.11842 57.591032 
L 397.075846 74.408137 
L 398.033272 110.559448 
L 398.990699 199.56341 
L 399.948125 222.766131 
L 399.948125 222.766131 
" clip-path="url(#p7aca0d7c9c)" style="fill: none; stroke: #1f77b4; stroke-width: 1.5; stroke-linecap: square"/>
   </g>
   <g id="patch_3">
    <path d="M 42.828125 288.430125 
L 42.828125 22.318125 
" style="fill: none; stroke: #000000; stroke-width: 0.8; stroke-linejoin: miter; stroke-linecap: square"/>
   </g>
   <g id="patch_4">
    <path d="M 399.948125 288.430125 
L 399.948125 22.318125 
" style="fill: none; stroke: #000000; stroke-width: 0.8; stroke-linejoin: miter; stroke-linecap: square"/>
   </g>
   <g id="patch_5">
    <path d="M 42.828125 288.430125 
L 399.948125 288.430125 
" style="fill: none; stroke: #000000; stroke-width: 0.8; stroke-linejoin: miter; stroke-linecap: square"/>
   </g>
   <g id="patch_6">
    <path d="M 42.828125 22.318125 
L 399.948125 22.318125 
" style="fill: none; stroke: #000000; stroke-width: 0.8; stroke-linejoin: miter; stroke-linecap: square"/>
   </g>
   <g id="text_19">
    <!-- Fast Flux -->
    <g transform="translate(194.951562 16.318125) scale(0.12 -0.12)">
     <defs>
      <path id="DejaVuSans-46" d="M 628 4666 
L 3309 4666 
L 3309 4134 
L 1259 4134 
L 1259 2759 
L 3109 2759 
L 3109 2228 
L 1259 2228 
L 1259 0 
L 628 0 
L 628 4666 
z
" transform="scale(0.015625)"/>
      <path id="DejaVuSans-61" d="M 2194 1759 
Q 1497 1759 1228 1600 
Q 959 1441 959 1056 
Q 959 750 1161 570 
Q 1363 391 1709 391 
Q 2188 391 2477 730 
Q 2766 1069 2766 1631 
L 2766 1759 
L 2194 1759 
z
M 3341 1997 
L 3341 0 
L 2766 0 
L 2766 531 
Q 2569 213 2275 61 
Q 1981 -91 1556 -91 
Q 1019 -91 701 211 
Q 384 513 384 1019 
Q 384 1609 779 1909 
Q 1175 2209 1959 2209 
L 2766 2209 
L 2766 2266 
Q 2766 2663 2505 2880 
Q 2244 3097 1772 3097 
Q 1472 3097 1187 3025 
Q 903 2953 641 2809 
L 641 3341 
Q 956 3463 1253 3523 
Q 1550 3584 1831 3584 
Q 2591 3584 2966 3190 
Q 3341 2797 3341 1997 
z
" transform="scale(0.015625)"/>
      <path id="DejaVuSans-73" d="M 2834 3397 
L 2834 2853 
Q 2591 2978 2328 3040 
Q 2066 3103 1784 3103 
Q 1356 3103 1142 2972 
Q 928 2841 928 2578 
Q 928 2378 1081 2264 
Q 1234 2150 1697 2047 
L 1894 2003 
Q 2506 1872 2764 1633 
Q 3022 1394 3022 966 
Q 3022 478 2636 193 
Q 2250 -91 1575 -91 
Q 1294 -91 989 -36 
Q 684 19 347 128 
L 347 722 
Q 666 556 975 473 
Q 1284 391 1588 391 
Q 1994 391 2212 530 
Q 2431 669 2431 922 
Q 2431 1156 2273 1281 
Q 2116 1406 1581 1522 
L 1381 1569 
Q 847 1681 609 1914 
Q 372 2147 372 2553 
Q 372 3047 722 3315 
Q 1072 3584 1716 3584 
Q 2034 3584 2315 3537 
Q 2597 3491 2834 3397 
z
" transform="scale(0.015625)"/>
      <path id="DejaVuSans-74" d="M 1172 4494 
L 1172 3500 
L 2356 3500 
L 2356 3053 
L 1172 3053 
L 1172 1153 
Q 1172 725 1289 603 
Q 1406 481 1766 481 
L 2356 481 
L 2356 0 
L 1766 0 
Q 1100 0 847 248 
Q 594 497 594 1153 
L 594 3053 
L 172 3053 
L 172 3500 
L 594 3500 
L 594 4494 
L 1172 4494 
z
" transform="scale(0.015625)"/>
      <path id="DejaVuSans-20" transform="scale(0.015625)"/>
      <path id="DejaVuSans-6c" d="M 603 4863 
L 1178 4863 
L 1178 0 
L 603 0 
L 603 4863 
z
" transform="scale(0.015625)"/>
      <path id="DejaVuSans-75" d="M 544 1381 
L 544 3500 
L 1119 3500 
L 1119 1403 
Q 1119 906 1312 657 
Q 1506 409 1894 409 
Q 2359 409 2629 706 
Q 2900 1003 2900 1516 
L 2900 3500 
L 3475 3500 
L 3475 0 
L 2900 0 
L 2900 538 
Q 2691 219 2414 64 
Q 2138 -91 1772 -91 
Q 1169 -91 856 284 
Q 544 659 544 1381 
z
M 1991 3584 
L 1991 3584 
z
" transform="scale(0.015625)"/>
      <path id="DejaVuSans-78" d="M 3513 3500 
L 2247 1797 
L 3578 0 
L 2900 0 
L 1881 1375 
L 863 0 
L 184 0 
L 1544 1831 
L 300 3500 
L 978 3500 
L 1906 2253 
L 2834 3500 
L 3513 3500 
z
" transform="scale(0.015625)"/>
     </defs>
     <use xlink:href="#DejaVuSans-46"/>
     <use xlink:href="#DejaVuSans-61" x="48.394531"/>
     <use xlink:href="#DejaVuSans-73" x="109.673828"/>
     <use xlink:href="#DejaVuSans-74" x="161.773438"/>
     <use xlink:href="#DejaVuSans-20" x="200.982422"/>
     <use xlink:href="#DejaVuSans-46" x="232.769531"/>
     <use xlink:href="#DejaVuSans-6c" x="290.289062"/>
     <use xlink:href="#DejaVuSans-75" x="318.072266"/>
     <use xlink:href="#DejaVuSans-78" x="381.451172"/>
    </g>
   </g>
  </g>
 </g>
 <defs>
  <clipPath id="p7aca0d7c9c">
   <rect x="42.828125" y="22.318125" width="357.12" height="266.112"/>
  </clipPath>
 </defs>
</svg>
