<?xml version="1.0" encoding="utf-8" standalone="no"?>
<!DOCTYPE svg PUBLIC "-//W3C//DTD SVG 1.1//EN"
  "http://www.w3.org/Graphics/SVG/1.1/DTD/svg11.dtd">
<svg xmlns:xlink="http://www.w3.org/1999/xlink" width="400.785625pt" height="312.30825pt" viewBox="0 0 400.785625 312.30825" xmlns="http://www.w3.org/2000/svg" version="1.1">
 <metadata>
  <rdf:RDF xmlns:dc="http://purl.org/dc/elements/1.1/" xmlns:cc="http://creativecommons.org/ns#" xmlns:rdf="http://www.w3.org/1999/02/22-rdf-syntax-ns#">
   <cc:Work>
    <dc:type rdf:resource="http://purl.org/dc/dcmitype/StillImage"/>
    <dc:date>2024-03-20T20:13:31.011196</dc:date>
    <dc:format>image/svg+xml</dc:format>
    <dc:creator>
     <cc:Agent>
      <dc:title>Matplotlib v3.8.3, https://matplotlib.org/</dc:title>
     </cc:Agent>
    </dc:creator>
   </cc:Work>
  </rdf:RDF>
 </metadata>
 <defs>
  <style type="text/css">*{stroke-linejoin: round; stroke-linecap: butt}</style>
 </defs>
 <g id="figure_1">
  <g id="patch_1">
   <path d="M 0 312.30825 
L 400.785625 312.30825 
L 400.785625 0 
L 0 0 
z
" style="fill: #ffffff"/>
  </g>
  <g id="axes_1">
   <g id="patch_2">
    <path d="M 36.465625 288.430125 
L 393.585625 288.430125 
L 393.585625 22.318125 
L 36.465625 22.318125 
z
" style="fill: #ffffff"/>
   </g>
   <g id="matplotlib.axis_1">
    <g id="xtick_1">
     <g id="line2d_1">
      <defs>
       <path id="mbe3ff2942a" d="M 0 0 
L 0 3.5 
" style="stroke: #000000; stroke-width: 0.8"/>
      </defs>
      <g>
       <use xlink:href="#mbe3ff2942a" x="36.465625" y="288.430125" style="stroke: #000000; stroke-width: 0.8"/>
      </g>
     </g>
     <g id="text_1">
      <!-- 0 -->
      <g transform="translate(33.284375 303.028562) scale(0.1 -0.1)">
       <defs>
        <path id="DejaVuSans-30" d="M 2034 4250 
Q 1547 4250 1301 3770 
Q 1056 3291 1056 2328 
Q 1056 1369 1301 889 
Q 1547 409 2034 409 
Q 2525 409 2770 889 
Q 3016 1369 3016 2328 
Q 3016 3291 2770 3770 
Q 2525 4250 2034 4250 
z
M 2034 4750 
Q 2819 4750 3233 4129 
Q 3647 3509 3647 2328 
Q 3647 1150 3233 529 
Q 2819 -91 2034 -91 
Q 1250 -91 836 529 
Q 422 1150 422 2328 
Q 422 3509 836 4129 
Q 1250 4750 2034 4750 
z
" transform="scale(0.015625)"/>
       </defs>
       <use xlink:href="#DejaVuSans-30"/>
      </g>
     </g>
    </g>
    <g id="xtick_2">
     <g id="line2d_2">
      <g>
       <use xlink:href="#mbe3ff2942a" x="78.289952" y="288.430125" style="stroke: #000000; stroke-width: 0.8"/>
      </g>
     </g>
     <g id="text_2">
      <!-- 5 -->
      <g transform="translate(75.108702 303.028562) scale(0.1 -0.1)">
       <defs>
        <path id="DejaVuSans-35" d="M 691 4666 
L 3169 4666 
L 3169 4134 
L 1269 4134 
L 1269 2991 
Q 1406 3038 1543 3061 
Q 1681 3084 1819 3084 
Q 2600 3084 3056 2656 
Q 3513 2228 3513 1497 
Q 3513 744 3044 326 
Q 2575 -91 1722 -91 
Q 1428 -91 1123 -41 
Q 819 9 494 109 
L 494 744 
Q 775 591 1075 516 
Q 1375 441 1709 441 
Q 2250 441 2565 725 
Q 2881 1009 2881 1497 
Q 2881 1984 2565 2268 
Q 2250 2553 1709 2553 
Q 1456 2553 1204 2497 
Q 953 2441 691 2322 
L 691 4666 
z
" transform="scale(0.015625)"/>
       </defs>
       <use xlink:href="#DejaVuSans-35"/>
      </g>
     </g>
    </g>
    <g id="xtick_3">
     <g id="line2d_3">
      <g>
       <use xlink:href="#mbe3ff2942a" x="120.114278" y="288.430125" style="stroke: #000000; stroke-width: 0.8"/>
      </g>
     </g>
     <g id="text_3">
      <!-- 10 -->
      <g transform="translate(113.751778 303.028562) scale(0.1 -0.1)">
       <defs>
        <path id="DejaVuSans-31" d="M 794 531 
L 1825 531 
L 1825 4091 
L 703 3866 
L 703 4441 
L 1819 4666 
L 2450 4666 
L 2450 531 
L 3481 531 
L 3481 0 
L 794 0 
L 794 531 
z
" transform="scale(0.015625)"/>
       </defs>
       <use xlink:href="#DejaVuSans-31"/>
       <use xlink:href="#DejaVuSans-30" x="63.623047"/>
      </g>
     </g>
    </g>
    <g id="xtick_4">
     <g id="line2d_4">
      <g>
       <use xlink:href="#mbe3ff2942a" x="161.938605" y="288.430125" style="stroke: #000000; stroke-width: 0.8"/>
      </g>
     </g>
     <g id="text_4">
      <!-- 15 -->
      <g transform="translate(155.576105 303.028562) scale(0.1 -0.1)">
       <use xlink:href="#DejaVuSans-31"/>
       <use xlink:href="#DejaVuSans-35" x="63.623047"/>
      </g>
     </g>
    </g>
    <g id="xtick_5">
     <g id="line2d_5">
      <g>
       <use xlink:href="#mbe3ff2942a" x="203.762931" y="288.430125" style="stroke: #000000; stroke-width: 0.8"/>
      </g>
     </g>
     <g id="text_5">
      <!-- 20 -->
      <g transform="translate(197.400431 303.028562) scale(0.1 -0.1)">
       <defs>
        <path id="DejaVuSans-32" d="M 1228 531 
L 3431 531 
L 3431 0 
L 469 0 
L 469 531 
Q 828 903 1448 1529 
Q 2069 2156 2228 2338 
Q 2531 2678 2651 2914 
Q 2772 3150 2772 3378 
Q 2772 3750 2511 3984 
Q 2250 4219 1831 4219 
Q 1534 4219 1204 4116 
Q 875 4013 500 3803 
L 500 4441 
Q 881 4594 1212 4672 
Q 1544 4750 1819 4750 
Q 2544 4750 2975 4387 
Q 3406 4025 3406 3419 
Q 3406 3131 3298 2873 
Q 3191 2616 2906 2266 
Q 2828 2175 2409 1742 
Q 1991 1309 1228 531 
z
" transform="scale(0.015625)"/>
       </defs>
       <use xlink:href="#DejaVuSans-32"/>
       <use xlink:href="#DejaVuSans-30" x="63.623047"/>
      </g>
     </g>
    </g>
    <g id="xtick_6">
     <g id="line2d_6">
      <g>
       <use xlink:href="#mbe3ff2942a" x="245.587258" y="288.430125" style="stroke: #000000; stroke-width: 0.8"/>
      </g>
     </g>
     <g id="text_6">
      <!-- 25 -->
      <g transform="translate(239.224758 303.028562) scale(0.1 -0.1)">
       <use xlink:href="#DejaVuSans-32"/>
       <use xlink:href="#DejaVuSans-35" x="63.623047"/>
      </g>
     </g>
    </g>
    <g id="xtick_7">
     <g id="line2d_7">
      <g>
       <use xlink:href="#mbe3ff2942a" x="287.411585" y="288.430125" style="stroke: #000000; stroke-width: 0.8"/>
      </g>
     </g>
     <g id="text_7">
      <!-- 30 -->
      <g transform="translate(281.049085 303.028562) scale(0.1 -0.1)">
       <defs>
        <path id="DejaVuSans-33" d="M 2597 2516 
Q 3050 2419 3304 2112 
Q 3559 1806 3559 1356 
Q 3559 666 3084 287 
Q 2609 -91 1734 -91 
Q 1441 -91 1130 -33 
Q 819 25 488 141 
L 488 750 
Q 750 597 1062 519 
Q 1375 441 1716 441 
Q 2309 441 2620 675 
Q 2931 909 2931 1356 
Q 2931 1769 2642 2001 
Q 2353 2234 1838 2234 
L 1294 2234 
L 1294 2753 
L 1863 2753 
Q 2328 2753 2575 2939 
Q 2822 3125 2822 3475 
Q 2822 3834 2567 4026 
Q 2313 4219 1838 4219 
Q 1578 4219 1281 4162 
Q 984 4106 628 3988 
L 628 4550 
Q 988 4650 1302 4700 
Q 1616 4750 1894 4750 
Q 2613 4750 3031 4423 
Q 3450 4097 3450 3541 
Q 3450 3153 3228 2886 
Q 3006 2619 2597 2516 
z
" transform="scale(0.015625)"/>
       </defs>
       <use xlink:href="#DejaVuSans-33"/>
       <use xlink:href="#DejaVuSans-30" x="63.623047"/>
      </g>
     </g>
    </g>
    <g id="xtick_8">
     <g id="line2d_8">
      <g>
       <use xlink:href="#mbe3ff2942a" x="329.235911" y="288.430125" style="stroke: #000000; stroke-width: 0.8"/>
      </g>
     </g>
     <g id="text_8">
      <!-- 35 -->
      <g transform="translate(322.873411 303.028562) scale(0.1 -0.1)">
       <use xlink:href="#DejaVuSans-33"/>
       <use xlink:href="#DejaVuSans-35" x="63.623047"/>
      </g>
     </g>
    </g>
    <g id="xtick_9">
     <g id="line2d_9">
      <g>
       <use xlink:href="#mbe3ff2942a" x="371.060238" y="288.430125" style="stroke: #000000; stroke-width: 0.8"/>
      </g>
     </g>
     <g id="text_9">
      <!-- 40 -->
      <g transform="translate(364.697738 303.028562) scale(0.1 -0.1)">
       <defs>
        <path id="DejaVuSans-34" d="M 2419 4116 
L 825 1625 
L 2419 1625 
L 2419 4116 
z
M 2253 4666 
L 3047 4666 
L 3047 1625 
L 3713 1625 
L 3713 1100 
L 3047 1100 
L 3047 0 
L 2419 0 
L 2419 1100 
L 313 1100 
L 313 1709 
L 2253 4666 
z
" transform="scale(0.015625)"/>
       </defs>
       <use xlink:href="#DejaVuSans-34"/>
       <use xlink:href="#DejaVuSans-30" x="63.623047"/>
      </g>
     </g>
    </g>
   </g>
   <g id="matplotlib.axis_2">
    <g id="ytick_1">
     <g id="line2d_10">
      <defs>
       <path id="mb8bbb05f31" d="M 0 0 
L -3.5 0 
" style="stroke: #000000; stroke-width: 0.8"/>
      </defs>
      <g>
       <use xlink:href="#mb8bbb05f31" x="36.465625" y="286.387545" style="stroke: #000000; stroke-width: 0.8"/>
      </g>
     </g>
     <g id="text_10">
      <!-- 1.90 -->
      <g transform="translate(7.2 290.186764) scale(0.1 -0.1)">
       <defs>
        <path id="DejaVuSans-2e" d="M 684 794 
L 1344 794 
L 1344 0 
L 684 0 
L 684 794 
z
" transform="scale(0.015625)"/>
        <path id="DejaVuSans-39" d="M 703 97 
L 703 672 
Q 941 559 1184 500 
Q 1428 441 1663 441 
Q 2288 441 2617 861 
Q 2947 1281 2994 2138 
Q 2813 1869 2534 1725 
Q 2256 1581 1919 1581 
Q 1219 1581 811 2004 
Q 403 2428 403 3163 
Q 403 3881 828 4315 
Q 1253 4750 1959 4750 
Q 2769 4750 3195 4129 
Q 3622 3509 3622 2328 
Q 3622 1225 3098 567 
Q 2575 -91 1691 -91 
Q 1453 -91 1209 -44 
Q 966 3 703 97 
z
M 1959 2075 
Q 2384 2075 2632 2365 
Q 2881 2656 2881 3163 
Q 2881 3666 2632 3958 
Q 2384 4250 1959 4250 
Q 1534 4250 1286 3958 
Q 1038 3666 1038 3163 
Q 1038 2656 1286 2365 
Q 1534 2075 1959 2075 
z
" transform="scale(0.015625)"/>
       </defs>
       <use xlink:href="#DejaVuSans-31"/>
       <use xlink:href="#DejaVuSans-2e" x="63.623047"/>
       <use xlink:href="#DejaVuSans-39" x="95.410156"/>
       <use xlink:href="#DejaVuSans-30" x="159.033203"/>
      </g>
     </g>
    </g>
    <g id="ytick_2">
     <g id="line2d_11">
      <g>
       <use xlink:href="#mb8bbb05f31" x="36.465625" y="239.825249" style="stroke: #000000; stroke-width: 0.8"/>
      </g>
     </g>
     <g id="text_11">
      <!-- 1.92 -->
      <g transform="translate(7.2 243.624468) scale(0.1 -0.1)">
       <use xlink:href="#DejaVuSans-31"/>
       <use xlink:href="#DejaVuSans-2e" x="63.623047"/>
       <use xlink:href="#DejaVuSans-39" x="95.410156"/>
       <use xlink:href="#DejaVuSans-32" x="159.033203"/>
      </g>
     </g>
    </g>
    <g id="ytick_3">
     <g id="line2d_12">
      <g>
       <use xlink:href="#mb8bbb05f31" x="36.465625" y="193.262954" style="stroke: #000000; stroke-width: 0.8"/>
      </g>
     </g>
     <g id="text_12">
      <!-- 1.94 -->
      <g transform="translate(7.2 197.062173) scale(0.1 -0.1)">
       <use xlink:href="#DejaVuSans-31"/>
       <use xlink:href="#DejaVuSans-2e" x="63.623047"/>
       <use xlink:href="#DejaVuSans-39" x="95.410156"/>
       <use xlink:href="#DejaVuSans-34" x="159.033203"/>
      </g>
     </g>
    </g>
    <g id="ytick_4">
     <g id="line2d_13">
      <g>
       <use xlink:href="#mb8bbb05f31" x="36.465625" y="146.700658" style="stroke: #000000; stroke-width: 0.8"/>
      </g>
     </g>
     <g id="text_13">
      <!-- 1.96 -->
      <g transform="translate(7.2 150.499877) scale(0.1 -0.1)">
       <defs>
        <path id="DejaVuSans-36" d="M 2113 2584 
Q 1688 2584 1439 2293 
Q 1191 2003 1191 1497 
Q 1191 994 1439 701 
Q 1688 409 2113 409 
Q 2538 409 2786 701 
Q 3034 994 3034 1497 
Q 3034 2003 2786 2293 
Q 2538 2584 2113 2584 
z
M 3366 4563 
L 3366 3988 
Q 3128 4100 2886 4159 
Q 2644 4219 2406 4219 
Q 1781 4219 1451 3797 
Q 1122 3375 1075 2522 
Q 1259 2794 1537 2939 
Q 1816 3084 2150 3084 
Q 2853 3084 3261 2657 
Q 3669 2231 3669 1497 
Q 3669 778 3244 343 
Q 2819 -91 2113 -91 
Q 1303 -91 875 529 
Q 447 1150 447 2328 
Q 447 3434 972 4092 
Q 1497 4750 2381 4750 
Q 2619 4750 2861 4703 
Q 3103 4656 3366 4563 
z
" transform="scale(0.015625)"/>
       </defs>
       <use xlink:href="#DejaVuSans-31"/>
       <use xlink:href="#DejaVuSans-2e" x="63.623047"/>
       <use xlink:href="#DejaVuSans-39" x="95.410156"/>
       <use xlink:href="#DejaVuSans-36" x="159.033203"/>
      </g>
     </g>
    </g>
    <g id="ytick_5">
     <g id="line2d_14">
      <g>
       <use xlink:href="#mb8bbb05f31" x="36.465625" y="100.138363" style="stroke: #000000; stroke-width: 0.8"/>
      </g>
     </g>
     <g id="text_14">
      <!-- 1.98 -->
      <g transform="translate(7.2 103.937581) scale(0.1 -0.1)">
       <defs>
        <path id="DejaVuSans-38" d="M 2034 2216 
Q 1584 2216 1326 1975 
Q 1069 1734 1069 1313 
Q 1069 891 1326 650 
Q 1584 409 2034 409 
Q 2484 409 2743 651 
Q 3003 894 3003 1313 
Q 3003 1734 2745 1975 
Q 2488 2216 2034 2216 
z
M 1403 2484 
Q 997 2584 770 2862 
Q 544 3141 544 3541 
Q 544 4100 942 4425 
Q 1341 4750 2034 4750 
Q 2731 4750 3128 4425 
Q 3525 4100 3525 3541 
Q 3525 3141 3298 2862 
Q 3072 2584 2669 2484 
Q 3125 2378 3379 2068 
Q 3634 1759 3634 1313 
Q 3634 634 3220 271 
Q 2806 -91 2034 -91 
Q 1263 -91 848 271 
Q 434 634 434 1313 
Q 434 1759 690 2068 
Q 947 2378 1403 2484 
z
M 1172 3481 
Q 1172 3119 1398 2916 
Q 1625 2713 2034 2713 
Q 2441 2713 2670 2916 
Q 2900 3119 2900 3481 
Q 2900 3844 2670 4047 
Q 2441 4250 2034 4250 
Q 1625 4250 1398 4047 
Q 1172 3844 1172 3481 
z
" transform="scale(0.015625)"/>
       </defs>
       <use xlink:href="#DejaVuSans-31"/>
       <use xlink:href="#DejaVuSans-2e" x="63.623047"/>
       <use xlink:href="#DejaVuSans-39" x="95.410156"/>
       <use xlink:href="#DejaVuSans-38" x="159.033203"/>
      </g>
     </g>
    </g>
    <g id="ytick_6">
     <g id="line2d_15">
      <g>
       <use xlink:href="#mb8bbb05f31" x="36.465625" y="53.576067" style="stroke: #000000; stroke-width: 0.8"/>
      </g>
     </g>
     <g id="text_15">
      <!-- 2.00 -->
      <g transform="translate(7.2 57.375286) scale(0.1 -0.1)">
       <use xlink:href="#DejaVuSans-32"/>
       <use xlink:href="#DejaVuSans-2e" x="63.623047"/>
       <use xlink:href="#DejaVuSans-30" x="95.410156"/>
       <use xlink:href="#DejaVuSans-30" x="159.033203"/>
      </g>
     </g>
    </g>
    <g id="text_16">
     <!-- 1e17 -->
     <g transform="translate(36.465625 19.318125) scale(0.1 -0.1)">
      <defs>
       <path id="DejaVuSans-65" d="M 3597 1894 
L 3597 1613 
L 953 1613 
Q 991 1019 1311 708 
Q 1631 397 2203 397 
Q 2534 397 2845 478 
Q 3156 559 3463 722 
L 3463 178 
Q 3153 47 2828 -22 
Q 2503 -91 2169 -91 
Q 1331 -91 842 396 
Q 353 884 353 1716 
Q 353 2575 817 3079 
Q 1281 3584 2069 3584 
Q 2775 3584 3186 3129 
Q 3597 2675 3597 1894 
z
M 3022 2063 
Q 3016 2534 2758 2815 
Q 2500 3097 2075 3097 
Q 1594 3097 1305 2825 
Q 1016 2553 972 2059 
L 3022 2063 
z
" transform="scale(0.015625)"/>
       <path id="DejaVuSans-37" d="M 525 4666 
L 3525 4666 
L 3525 4397 
L 1831 0 
L 1172 0 
L 2766 4134 
L 525 4134 
L 525 4666 
z
" transform="scale(0.015625)"/>
      </defs>
      <use xlink:href="#DejaVuSans-31"/>
      <use xlink:href="#DejaVuSans-65" x="63.623047"/>
      <use xlink:href="#DejaVuSans-31" x="125.146484"/>
      <use xlink:href="#DejaVuSans-37" x="188.769531"/>
     </g>
    </g>
   </g>
   <g id="line2d_16">
    <path d="M 36.465625 236.210335 
L 38.380478 146.695835 
L 39.337904 148.927877 
L 40.29533 122.930579 
L 41.252756 130.034391 
L 42.210183 163.124556 
L 43.167609 149.33731 
L 44.125035 174.327712 
L 45.082461 164.173517 
L 46.039888 197.758061 
L 47.95474 223.417091 
L 48.912167 177.672745 
L 49.869593 141.546109 
L 50.827019 125.247585 
L 51.784445 76.342135 
L 52.741872 118.91837 
L 53.699298 139.857145 
L 54.656724 147.791376 
L 55.61415 151.187596 
L 56.571577 192.875979 
L 57.529003 196.399888 
L 58.486429 196.784835 
L 59.443856 153.11124 
L 60.401282 179.247161 
L 61.358708 162.588625 
L 62.316134 159.020399 
L 63.273561 112.907603 
L 64.230987 153.836768 
L 65.188413 158.159546 
L 66.145839 187.033094 
L 67.103266 169.657933 
L 68.060692 167.920386 
L 69.018118 171.514023 
L 69.975545 191.043104 
L 70.932971 181.359521 
L 71.890397 200.499129 
L 72.847823 176.474732 
L 73.80525 192.418027 
L 74.762676 159.206909 
L 75.720102 169.47977 
L 76.677528 214.449863 
L 77.634955 219.36617 
L 78.592381 228.2288 
L 79.549807 239.64715 
L 80.507234 191.293012 
L 81.46466 171.686382 
L 82.422086 171.28206 
L 83.379512 176.003901 
L 84.336939 192.951051 
L 85.294365 190.727769 
L 86.251791 192.005928 
L 87.209217 214.167039 
L 88.166644 229.241284 
L 89.12407 216.108779 
L 90.081496 232.241096 
L 91.038923 194.320552 
L 91.996349 193.730886 
L 92.953775 177.55349 
L 93.911201 223.331413 
L 94.868628 255.988147 
L 95.826054 234.617763 
L 96.78348 209.10304 
L 97.740907 150.253149 
L 98.698333 147.162955 
L 99.655759 177.501536 
L 100.613185 181.806151 
L 101.570612 146.003125 
L 102.528038 123.320232 
L 103.485464 159.049277 
L 104.44289 156.992278 
L 105.400317 221.658746 
L 106.357743 208.119397 
L 107.315169 181.778562 
L 108.272596 186.200181 
L 109.230022 120.073449 
L 110.187448 136.670842 
L 111.144874 130.37854 
L 112.102301 119.152874 
L 113.059727 151.998046 
L 114.017153 179.992847 
L 114.974579 242.619875 
L 115.932006 236.997782 
L 116.889432 217.934521 
L 117.846858 193.919534 
L 118.804285 164.728223 
L 119.761711 125.832502 
L 120.719137 140.532145 
L 121.676563 127.15935 
L 122.63399 119.236444 
L 123.591416 80.943244 
L 124.548842 127.556645 
L 125.506268 158.049593 
L 126.463695 169.588677 
L 127.421121 144.592317 
L 128.378547 147.131435 
L 130.2934 185.865906 
L 131.250826 180.769268 
L 132.208252 169.702534 
L 133.165679 197.122832 
L 134.123105 203.378343 
L 135.080531 234.766712 
L 136.037957 256.100498 
L 136.995384 241.12349 
L 137.95281 201.120095 
L 138.910236 210.250501 
L 140.825089 157.90745 
L 141.782515 132.721748 
L 142.739941 153.798815 
L 143.697368 161.021067 
L 144.654794 210.320622 
L 145.61222 173.51272 
L 146.569646 187.514883 
L 147.527073 188.316663 
L 148.484499 216.423969 
L 149.441925 215.989492 
L 150.399352 172.354241 
L 151.356778 171.159203 
L 152.314204 168.406353 
L 153.27163 143.064174 
L 154.229057 168.991204 
L 155.186483 145.462531 
L 157.101335 220.951962 
L 158.058762 226.242241 
L 159.016188 214.907973 
L 159.973614 218.80477 
L 160.931041 180.338058 
L 162.845893 145.057721 
L 163.803319 170.474458 
L 164.760746 141.566129 
L 165.718172 166.216738 
L 166.675598 187.715801 
L 167.633024 200.397001 
L 168.590451 203.545871 
L 169.547877 202.049218 
L 170.505303 179.313386 
L 171.46273 111.997181 
L 172.420156 109.269103 
L 173.377582 136.865828 
L 174.335008 137.922535 
L 175.292435 148.656815 
L 176.249861 177.334299 
L 177.207287 167.156598 
L 179.12214 229.928017 
L 180.079566 205.335512 
L 181.036992 188.591731 
L 181.994419 152.771968 
L 182.951845 121.484891 
L 183.909271 103.654514 
L 184.866697 135.238557 
L 185.824124 117.442675 
L 186.78155 130.365873 
L 187.738976 164.484166 
L 188.696402 205.634474 
L 189.653829 186.352335 
L 190.611255 188.475518 
L 192.526108 155.45525 
L 193.483534 141.427935 
L 194.44096 151.23713 
L 195.398386 148.484632 
L 196.355813 151.347525 
L 197.313239 171.381758 
L 198.270665 148.193175 
L 199.228091 196.352409 
L 200.185518 187.42182 
L 201.142944 220.998561 
L 202.10037 211.339913 
L 203.057797 177.93555 
L 204.015223 170.381141 
L 204.972649 161.853209 
L 205.930075 194.633415 
L 206.887502 194.922266 
L 207.844928 192.387725 
L 208.802354 224.514046 
L 209.75978 207.876586 
L 210.717207 225.884592 
L 211.674633 254.100298 
L 212.632059 237.792644 
L 213.589486 245.840676 
L 214.546912 276.334125 
L 215.504338 270.972062 
L 216.461764 233.791243 
L 217.419191 211.716791 
L 218.376617 173.627794 
L 219.334043 184.228971 
L 220.29147 177.445038 
L 221.248896 169.34169 
L 222.206322 175.647802 
L 223.163748 198.168433 
L 224.121175 251.319443 
L 225.078601 220.189939 
L 226.036027 223.661721 
L 226.993453 241.108024 
L 227.95088 195.597474 
L 228.908306 177.958708 
L 229.865732 175.876446 
L 230.823159 178.544201 
L 231.780585 169.221066 
L 232.738011 186.366478 
L 233.695437 207.316358 
L 234.652864 219.9413 
L 235.61029 198.375733 
L 236.567716 183.099402 
L 237.525142 174.098621 
L 238.482569 160.988107 
L 239.439995 130.938249 
L 240.397421 129.140664 
L 241.354848 123.043668 
L 242.312274 130.568495 
L 243.2697 115.739978 
L 245.184553 173.205566 
L 246.141979 163.582417 
L 247.099405 147.11554 
L 248.056831 152.702893 
L 249.014258 120.350901 
L 249.971684 114.094122 
L 250.92911 127.978559 
L 251.886537 128.344718 
L 252.843963 131.652201 
L 253.801389 202.508719 
L 254.758815 166.360455 
L 256.673668 206.670523 
L 257.631094 211.35495 
L 258.58852 166.97946 
L 259.545947 141.445811 
L 260.503373 159.160045 
L 261.460799 119.788983 
L 262.418226 115.543546 
L 263.375652 71.829144 
L 264.333078 89.62817 
L 265.290504 127.523451 
L 266.247931 176.286046 
L 267.205357 191.721937 
L 268.162783 183.014808 
L 269.120209 196.672102 
L 270.077636 158.914265 
L 271.035062 151.512217 
L 271.992488 107.157729 
L 272.949915 118.394571 
L 273.907341 138.35753 
L 274.864767 139.797071 
L 275.822193 120.764206 
L 276.77962 149.356423 
L 277.737046 171.855802 
L 278.694472 185.681127 
L 280.609325 117.221565 
L 281.566751 102.2437 
L 282.524177 133.998121 
L 283.481604 108.547208 
L 284.43903 106.352636 
L 285.396456 92.180058 
L 286.353882 114.28679 
L 287.311309 162.098562 
L 288.268735 174.934693 
L 289.226161 169.778891 
L 290.183587 168.422946 
L 291.141014 150.572098 
L 292.09844 137.213065 
L 293.055866 108.728435 
L 294.013293 102.168081 
L 294.970719 151.137705 
L 295.928145 111.028157 
L 296.885571 122.574118 
L 297.842998 129.366392 
L 298.800424 148.72052 
L 299.75785 179.743086 
L 300.715276 179.475755 
L 301.672703 155.408373 
L 302.630129 101.86027 
L 303.587555 93.11949 
L 304.544982 80.256836 
L 305.502408 84.138503 
L 306.459834 90.122892 
L 307.41726 111.986839 
L 308.374687 186.7217 
L 309.332113 138.85332 
L 310.289539 141.711418 
L 311.246965 176.616943 
L 312.204392 110.458427 
L 313.161818 108.984055 
L 314.119244 92.922823 
L 315.076671 59.655774 
L 316.034097 82.986061 
L 316.991523 57.47984 
L 317.948949 102.041825 
L 318.906376 118.531228 
L 319.863802 182.27865 
L 320.821228 164.462294 
L 321.778654 152.678383 
L 322.736081 118.360279 
L 323.693507 97.481574 
L 324.650933 34.414125 
L 325.60836 44.395178 
L 326.565786 58.688577 
L 327.523212 69.91927 
L 328.480638 109.114203 
L 329.438065 126.802115 
L 330.395491 139.939092 
L 331.352917 99.281356 
L 332.310343 117.250258 
L 333.26777 110.096018 
L 334.225196 110.023152 
L 335.182622 120.478941 
L 336.140049 93.717294 
L 337.097475 99.632152 
L 338.054901 117.054561 
L 339.012327 148.977752 
L 339.969754 167.396485 
L 340.92718 213.387535 
L 341.884606 204.063478 
L 342.842033 185.820972 
L 343.799459 180.307871 
L 344.756885 151.729181 
L 345.714311 146.508086 
L 346.671738 175.442415 
L 347.629164 161.631702 
L 348.58659 154.748865 
L 349.544016 169.926392 
L 350.501443 195.685244 
L 351.458869 202.496442 
L 352.416295 199.042187 
L 353.373722 158.578572 
L 354.331148 147.305359 
L 355.288574 128.733034 
L 356.246 123.918928 
L 357.203427 141.443327 
L 358.160853 124.442469 
L 359.118279 130.686457 
L 360.075705 174.350266 
L 361.033132 165.722003 
L 361.990558 160.026016 
L 362.947984 129.700292 
L 363.905411 148.595963 
L 364.862837 115.321004 
L 365.820263 128.138157 
L 366.777689 124.758922 
L 367.735116 111.448732 
L 368.692542 107.672605 
L 369.649968 90.585259 
L 370.607394 133.943193 
L 371.564821 142.756798 
L 372.522247 156.023501 
L 373.479673 161.089443 
L 374.4371 147.346971 
L 375.394526 140.968809 
L 376.351952 103.953552 
L 377.309378 138.608305 
L 378.266805 155.466929 
L 379.224231 130.582413 
L 380.181657 175.649903 
L 382.09651 242.268414 
L 383.053936 242.263766 
L 384.011362 238.780732 
L 384.968789 212.429539 
L 385.926215 208.334837 
L 386.883641 175.703272 
L 387.841067 187.175888 
L 388.798494 177.488313 
L 389.75592 171.074644 
L 390.713346 168.306952 
L 391.670772 199.418981 
L 393.585625 230.228249 
L 393.585625 230.228249 
" clip-path="url(#p938a3e92ab)" style="fill: none; stroke: #1f77b4; stroke-width: 1.5; stroke-linecap: square"/>
   </g>
   <g id="line2d_17">
    <path d="M 36.465625 177.265057 
L 214.546912 177.265057 
L 215.504338 150.058202 
L 393.585625 150.058202 
L 393.585625 150.058202 
" clip-path="url(#p938a3e92ab)" style="fill: none; stroke: #ffa500; stroke-width: 1.5; stroke-linecap: square"/>
   </g>
   <g id="patch_3">
    <path d="M 36.465625 288.430125 
L 36.465625 22.318125 
" style="fill: none; stroke: #000000; stroke-width: 0.8; stroke-linejoin: miter; stroke-linecap: square"/>
   </g>
   <g id="patch_4">
    <path d="M 393.585625 288.430125 
L 393.585625 22.318125 
" style="fill: none; stroke: #000000; stroke-width: 0.8; stroke-linejoin: miter; stroke-linecap: square"/>
   </g>
   <g id="patch_5">
    <path d="M 36.465625 288.430125 
L 393.585625 288.430125 
" style="fill: none; stroke: #000000; stroke-width: 0.8; stroke-linejoin: miter; stroke-linecap: square"/>
   </g>
   <g id="patch_6">
    <path d="M 36.465625 22.318125 
L 393.585625 22.318125 
" style="fill: none; stroke: #000000; stroke-width: 0.8; stroke-linejoin: miter; stroke-linecap: square"/>
   </g>
   <g id="text_17">
    <!-- Fast Flux -->
    <g transform="translate(188.589063 16.318125) scale(0.12 -0.12)">
     <defs>
      <path id="DejaVuSans-46" d="M 628 4666 
L 3309 4666 
L 3309 4134 
L 1259 4134 
L 1259 2759 
L 3109 2759 
L 3109 2228 
L 1259 2228 
L 1259 0 
L 628 0 
L 628 4666 
z
" transform="scale(0.015625)"/>
      <path id="DejaVuSans-61" d="M 2194 1759 
Q 1497 1759 1228 1600 
Q 959 1441 959 1056 
Q 959 750 1161 570 
Q 1363 391 1709 391 
Q 2188 391 2477 730 
Q 2766 1069 2766 1631 
L 2766 1759 
L 2194 1759 
z
M 3341 1997 
L 3341 0 
L 2766 0 
L 2766 531 
Q 2569 213 2275 61 
Q 1981 -91 1556 -91 
Q 1019 -91 701 211 
Q 384 513 384 1019 
Q 384 1609 779 1909 
Q 1175 2209 1959 2209 
L 2766 2209 
L 2766 2266 
Q 2766 2663 2505 2880 
Q 2244 3097 1772 3097 
Q 1472 3097 1187 3025 
Q 903 2953 641 2809 
L 641 3341 
Q 956 3463 1253 3523 
Q 1550 3584 1831 3584 
Q 2591 3584 2966 3190 
Q 3341 2797 3341 1997 
z
" transform="scale(0.015625)"/>
      <path id="DejaVuSans-73" d="M 2834 3397 
L 2834 2853 
Q 2591 2978 2328 3040 
Q 2066 3103 1784 3103 
Q 1356 3103 1142 2972 
Q 928 2841 928 2578 
Q 928 2378 1081 2264 
Q 1234 2150 1697 2047 
L 1894 2003 
Q 2506 1872 2764 1633 
Q 3022 1394 3022 966 
Q 3022 478 2636 193 
Q 2250 -91 1575 -91 
Q 1294 -91 989 -36 
Q 684 19 347 128 
L 347 722 
Q 666 556 975 473 
Q 1284 391 1588 391 
Q 1994 391 2212 530 
Q 2431 669 2431 922 
Q 2431 1156 2273 1281 
Q 2116 1406 1581 1522 
L 1381 1569 
Q 847 1681 609 1914 
Q 372 2147 372 2553 
Q 372 3047 722 3315 
Q 1072 3584 1716 3584 
Q 2034 3584 2315 3537 
Q 2597 3491 2834 3397 
z
" transform="scale(0.015625)"/>
      <path id="DejaVuSans-74" d="M 1172 4494 
L 1172 3500 
L 2356 3500 
L 2356 3053 
L 1172 3053 
L 1172 1153 
Q 1172 725 1289 603 
Q 1406 481 1766 481 
L 2356 481 
L 2356 0 
L 1766 0 
Q 1100 0 847 248 
Q 594 497 594 1153 
L 594 3053 
L 172 3053 
L 172 3500 
L 594 3500 
L 594 4494 
L 1172 4494 
z
" transform="scale(0.015625)"/>
      <path id="DejaVuSans-20" transform="scale(0.015625)"/>
      <path id="DejaVuSans-6c" d="M 603 4863 
L 1178 4863 
L 1178 0 
L 603 0 
L 603 4863 
z
" transform="scale(0.015625)"/>
      <path id="DejaVuSans-75" d="M 544 1381 
L 544 3500 
L 1119 3500 
L 1119 1403 
Q 1119 906 1312 657 
Q 1506 409 1894 409 
Q 2359 409 2629 706 
Q 2900 1003 2900 1516 
L 2900 3500 
L 3475 3500 
L 3475 0 
L 2900 0 
L 2900 538 
Q 2691 219 2414 64 
Q 2138 -91 1772 -91 
Q 1169 -91 856 284 
Q 544 659 544 1381 
z
M 1991 3584 
L 1991 3584 
z
" transform="scale(0.015625)"/>
      <path id="DejaVuSans-78" d="M 3513 3500 
L 2247 1797 
L 3578 0 
L 2900 0 
L 1881 1375 
L 863 0 
L 184 0 
L 1544 1831 
L 300 3500 
L 978 3500 
L 1906 2253 
L 2834 3500 
L 3513 3500 
z
" transform="scale(0.015625)"/>
     </defs>
     <use xlink:href="#DejaVuSans-46"/>
     <use xlink:href="#DejaVuSans-61" x="48.394531"/>
     <use xlink:href="#DejaVuSans-73" x="109.673828"/>
     <use xlink:href="#DejaVuSans-74" x="161.773438"/>
     <use xlink:href="#DejaVuSans-20" x="200.982422"/>
     <use xlink:href="#DejaVuSans-46" x="232.769531"/>
     <use xlink:href="#DejaVuSans-6c" x="290.289062"/>
     <use xlink:href="#DejaVuSans-75" x="318.072266"/>
     <use xlink:href="#DejaVuSans-78" x="381.451172"/>
    </g>
   </g>
  </g>
 </g>
 <defs>
  <clipPath id="p938a3e92ab">
   <rect x="36.465625" y="22.318125" width="357.12" height="266.112"/>
  </clipPath>
 </defs>
</svg>
