<?xml version="1.0" encoding="utf-8" standalone="no"?>
<!DOCTYPE svg PUBLIC "-//W3C//DTD SVG 1.1//EN"
  "http://www.w3.org/Graphics/SVG/1.1/DTD/svg11.dtd">
<svg xmlns:xlink="http://www.w3.org/1999/xlink" width="397.6075pt" height="312.30825pt" viewBox="0 0 397.6075 312.30825" xmlns="http://www.w3.org/2000/svg" version="1.1">
 <metadata>
  <rdf:RDF xmlns:dc="http://purl.org/dc/elements/1.1/" xmlns:cc="http://creativecommons.org/ns#" xmlns:rdf="http://www.w3.org/1999/02/22-rdf-syntax-ns#">
   <cc:Work>
    <dc:type rdf:resource="http://purl.org/dc/dcmitype/StillImage"/>
    <dc:date>2024-03-16T15:28:09.773228</dc:date>
    <dc:format>image/svg+xml</dc:format>
    <dc:creator>
     <cc:Agent>
      <dc:title>Matplotlib v3.8.3, https://matplotlib.org/</dc:title>
     </cc:Agent>
    </dc:creator>
   </cc:Work>
  </rdf:RDF>
 </metadata>
 <defs>
  <style type="text/css">*{stroke-linejoin: round; stroke-linecap: butt}</style>
 </defs>
 <g id="figure_1">
  <g id="patch_1">
   <path d="M 0 312.30825 
L 397.6075 312.30825 
L 397.6075 0 
L 0 0 
z
" style="fill: #ffffff"/>
  </g>
  <g id="axes_1">
   <g id="patch_2">
    <path d="M 33.2875 288.430125 
L 390.4075 288.430125 
L 390.4075 22.318125 
L 33.2875 22.318125 
z
" style="fill: #ffffff"/>
   </g>
   <g id="matplotlib.axis_1">
    <g id="xtick_1">
     <g id="line2d_1">
      <defs>
       <path id="m6be67b486c" d="M 0 0 
L 0 3.5 
" style="stroke: #000000; stroke-width: 0.8"/>
      </defs>
      <g>
       <use xlink:href="#m6be67b486c" x="49.520227" y="288.430125" style="stroke: #000000; stroke-width: 0.8"/>
      </g>
     </g>
     <g id="text_1">
      <!-- 0 -->
      <g transform="translate(46.338977 303.028562) scale(0.1 -0.1)">
       <defs>
        <path id="DejaVuSans-30" d="M 2034 4250 
Q 1547 4250 1301 3770 
Q 1056 3291 1056 2328 
Q 1056 1369 1301 889 
Q 1547 409 2034 409 
Q 2525 409 2770 889 
Q 3016 1369 3016 2328 
Q 3016 3291 2770 3770 
Q 2525 4250 2034 4250 
z
M 2034 4750 
Q 2819 4750 3233 4129 
Q 3647 3509 3647 2328 
Q 3647 1150 3233 529 
Q 2819 -91 2034 -91 
Q 1250 -91 836 529 
Q 422 1150 422 2328 
Q 422 3509 836 4129 
Q 1250 4750 2034 4750 
z
" transform="scale(0.015625)"/>
       </defs>
       <use xlink:href="#DejaVuSans-30"/>
      </g>
     </g>
    </g>
    <g id="xtick_2">
     <g id="line2d_2">
      <g>
       <use xlink:href="#m6be67b486c" x="89.404078" y="288.430125" style="stroke: #000000; stroke-width: 0.8"/>
      </g>
     </g>
     <g id="text_2">
      <!-- 50 -->
      <g transform="translate(83.041578 303.028562) scale(0.1 -0.1)">
       <defs>
        <path id="DejaVuSans-35" d="M 691 4666 
L 3169 4666 
L 3169 4134 
L 1269 4134 
L 1269 2991 
Q 1406 3038 1543 3061 
Q 1681 3084 1819 3084 
Q 2600 3084 3056 2656 
Q 3513 2228 3513 1497 
Q 3513 744 3044 326 
Q 2575 -91 1722 -91 
Q 1428 -91 1123 -41 
Q 819 9 494 109 
L 494 744 
Q 775 591 1075 516 
Q 1375 441 1709 441 
Q 2250 441 2565 725 
Q 2881 1009 2881 1497 
Q 2881 1984 2565 2268 
Q 2250 2553 1709 2553 
Q 1456 2553 1204 2497 
Q 953 2441 691 2322 
L 691 4666 
z
" transform="scale(0.015625)"/>
       </defs>
       <use xlink:href="#DejaVuSans-35"/>
       <use xlink:href="#DejaVuSans-30" x="63.623047"/>
      </g>
     </g>
    </g>
    <g id="xtick_3">
     <g id="line2d_3">
      <g>
       <use xlink:href="#m6be67b486c" x="129.287929" y="288.430125" style="stroke: #000000; stroke-width: 0.8"/>
      </g>
     </g>
     <g id="text_3">
      <!-- 100 -->
      <g transform="translate(119.744179 303.028562) scale(0.1 -0.1)">
       <defs>
        <path id="DejaVuSans-31" d="M 794 531 
L 1825 531 
L 1825 4091 
L 703 3866 
L 703 4441 
L 1819 4666 
L 2450 4666 
L 2450 531 
L 3481 531 
L 3481 0 
L 794 0 
L 794 531 
z
" transform="scale(0.015625)"/>
       </defs>
       <use xlink:href="#DejaVuSans-31"/>
       <use xlink:href="#DejaVuSans-30" x="63.623047"/>
       <use xlink:href="#DejaVuSans-30" x="127.246094"/>
      </g>
     </g>
    </g>
    <g id="xtick_4">
     <g id="line2d_4">
      <g>
       <use xlink:href="#m6be67b486c" x="169.17178" y="288.430125" style="stroke: #000000; stroke-width: 0.8"/>
      </g>
     </g>
     <g id="text_4">
      <!-- 150 -->
      <g transform="translate(159.62803 303.028562) scale(0.1 -0.1)">
       <use xlink:href="#DejaVuSans-31"/>
       <use xlink:href="#DejaVuSans-35" x="63.623047"/>
       <use xlink:href="#DejaVuSans-30" x="127.246094"/>
      </g>
     </g>
    </g>
    <g id="xtick_5">
     <g id="line2d_5">
      <g>
       <use xlink:href="#m6be67b486c" x="209.05563" y="288.430125" style="stroke: #000000; stroke-width: 0.8"/>
      </g>
     </g>
     <g id="text_5">
      <!-- 200 -->
      <g transform="translate(199.51188 303.028562) scale(0.1 -0.1)">
       <defs>
        <path id="DejaVuSans-32" d="M 1228 531 
L 3431 531 
L 3431 0 
L 469 0 
L 469 531 
Q 828 903 1448 1529 
Q 2069 2156 2228 2338 
Q 2531 2678 2651 2914 
Q 2772 3150 2772 3378 
Q 2772 3750 2511 3984 
Q 2250 4219 1831 4219 
Q 1534 4219 1204 4116 
Q 875 4013 500 3803 
L 500 4441 
Q 881 4594 1212 4672 
Q 1544 4750 1819 4750 
Q 2544 4750 2975 4387 
Q 3406 4025 3406 3419 
Q 3406 3131 3298 2873 
Q 3191 2616 2906 2266 
Q 2828 2175 2409 1742 
Q 1991 1309 1228 531 
z
" transform="scale(0.015625)"/>
       </defs>
       <use xlink:href="#DejaVuSans-32"/>
       <use xlink:href="#DejaVuSans-30" x="63.623047"/>
       <use xlink:href="#DejaVuSans-30" x="127.246094"/>
      </g>
     </g>
    </g>
    <g id="xtick_6">
     <g id="line2d_6">
      <g>
       <use xlink:href="#m6be67b486c" x="248.939481" y="288.430125" style="stroke: #000000; stroke-width: 0.8"/>
      </g>
     </g>
     <g id="text_6">
      <!-- 250 -->
      <g transform="translate(239.395731 303.028562) scale(0.1 -0.1)">
       <use xlink:href="#DejaVuSans-32"/>
       <use xlink:href="#DejaVuSans-35" x="63.623047"/>
       <use xlink:href="#DejaVuSans-30" x="127.246094"/>
      </g>
     </g>
    </g>
    <g id="xtick_7">
     <g id="line2d_7">
      <g>
       <use xlink:href="#m6be67b486c" x="288.823332" y="288.430125" style="stroke: #000000; stroke-width: 0.8"/>
      </g>
     </g>
     <g id="text_7">
      <!-- 300 -->
      <g transform="translate(279.279582 303.028562) scale(0.1 -0.1)">
       <defs>
        <path id="DejaVuSans-33" d="M 2597 2516 
Q 3050 2419 3304 2112 
Q 3559 1806 3559 1356 
Q 3559 666 3084 287 
Q 2609 -91 1734 -91 
Q 1441 -91 1130 -33 
Q 819 25 488 141 
L 488 750 
Q 750 597 1062 519 
Q 1375 441 1716 441 
Q 2309 441 2620 675 
Q 2931 909 2931 1356 
Q 2931 1769 2642 2001 
Q 2353 2234 1838 2234 
L 1294 2234 
L 1294 2753 
L 1863 2753 
Q 2328 2753 2575 2939 
Q 2822 3125 2822 3475 
Q 2822 3834 2567 4026 
Q 2313 4219 1838 4219 
Q 1578 4219 1281 4162 
Q 984 4106 628 3988 
L 628 4550 
Q 988 4650 1302 4700 
Q 1616 4750 1894 4750 
Q 2613 4750 3031 4423 
Q 3450 4097 3450 3541 
Q 3450 3153 3228 2886 
Q 3006 2619 2597 2516 
z
" transform="scale(0.015625)"/>
       </defs>
       <use xlink:href="#DejaVuSans-33"/>
       <use xlink:href="#DejaVuSans-30" x="63.623047"/>
       <use xlink:href="#DejaVuSans-30" x="127.246094"/>
      </g>
     </g>
    </g>
    <g id="xtick_8">
     <g id="line2d_8">
      <g>
       <use xlink:href="#m6be67b486c" x="328.707183" y="288.430125" style="stroke: #000000; stroke-width: 0.8"/>
      </g>
     </g>
     <g id="text_8">
      <!-- 350 -->
      <g transform="translate(319.163433 303.028562) scale(0.1 -0.1)">
       <use xlink:href="#DejaVuSans-33"/>
       <use xlink:href="#DejaVuSans-35" x="63.623047"/>
       <use xlink:href="#DejaVuSans-30" x="127.246094"/>
      </g>
     </g>
    </g>
    <g id="xtick_9">
     <g id="line2d_9">
      <g>
       <use xlink:href="#m6be67b486c" x="368.591034" y="288.430125" style="stroke: #000000; stroke-width: 0.8"/>
      </g>
     </g>
     <g id="text_9">
      <!-- 400 -->
      <g transform="translate(359.047284 303.028562) scale(0.1 -0.1)">
       <defs>
        <path id="DejaVuSans-34" d="M 2419 4116 
L 825 1625 
L 2419 1625 
L 2419 4116 
z
M 2253 4666 
L 3047 4666 
L 3047 1625 
L 3713 1625 
L 3713 1100 
L 3047 1100 
L 3047 0 
L 2419 0 
L 2419 1100 
L 313 1100 
L 313 1709 
L 2253 4666 
z
" transform="scale(0.015625)"/>
       </defs>
       <use xlink:href="#DejaVuSans-34"/>
       <use xlink:href="#DejaVuSans-30" x="63.623047"/>
       <use xlink:href="#DejaVuSans-30" x="127.246094"/>
      </g>
     </g>
    </g>
   </g>
   <g id="matplotlib.axis_2">
    <g id="ytick_1">
     <g id="line2d_10">
      <defs>
       <path id="mee264bab55" d="M 0 0 
L -3.5 0 
" style="stroke: #000000; stroke-width: 0.8"/>
      </defs>
      <g>
       <use xlink:href="#mee264bab55" x="33.2875" y="252.812497" style="stroke: #000000; stroke-width: 0.8"/>
      </g>
     </g>
     <g id="text_10">
      <!-- 245 -->
      <g transform="translate(7.2 256.611716) scale(0.1 -0.1)">
       <use xlink:href="#DejaVuSans-32"/>
       <use xlink:href="#DejaVuSans-34" x="63.623047"/>
       <use xlink:href="#DejaVuSans-35" x="127.246094"/>
      </g>
     </g>
    </g>
    <g id="ytick_2">
     <g id="line2d_11">
      <g>
       <use xlink:href="#mee264bab55" x="33.2875" y="205.737976" style="stroke: #000000; stroke-width: 0.8"/>
      </g>
     </g>
     <g id="text_11">
      <!-- 250 -->
      <g transform="translate(7.2 209.537195) scale(0.1 -0.1)">
       <use xlink:href="#DejaVuSans-32"/>
       <use xlink:href="#DejaVuSans-35" x="63.623047"/>
       <use xlink:href="#DejaVuSans-30" x="127.246094"/>
      </g>
     </g>
    </g>
    <g id="ytick_3">
     <g id="line2d_12">
      <g>
       <use xlink:href="#mee264bab55" x="33.2875" y="158.663455" style="stroke: #000000; stroke-width: 0.8"/>
      </g>
     </g>
     <g id="text_12">
      <!-- 255 -->
      <g transform="translate(7.2 162.462674) scale(0.1 -0.1)">
       <use xlink:href="#DejaVuSans-32"/>
       <use xlink:href="#DejaVuSans-35" x="63.623047"/>
       <use xlink:href="#DejaVuSans-35" x="127.246094"/>
      </g>
     </g>
    </g>
    <g id="ytick_4">
     <g id="line2d_13">
      <g>
       <use xlink:href="#mee264bab55" x="33.2875" y="111.588934" style="stroke: #000000; stroke-width: 0.8"/>
      </g>
     </g>
     <g id="text_13">
      <!-- 260 -->
      <g transform="translate(7.2 115.388152) scale(0.1 -0.1)">
       <defs>
        <path id="DejaVuSans-36" d="M 2113 2584 
Q 1688 2584 1439 2293 
Q 1191 2003 1191 1497 
Q 1191 994 1439 701 
Q 1688 409 2113 409 
Q 2538 409 2786 701 
Q 3034 994 3034 1497 
Q 3034 2003 2786 2293 
Q 2538 2584 2113 2584 
z
M 3366 4563 
L 3366 3988 
Q 3128 4100 2886 4159 
Q 2644 4219 2406 4219 
Q 1781 4219 1451 3797 
Q 1122 3375 1075 2522 
Q 1259 2794 1537 2939 
Q 1816 3084 2150 3084 
Q 2853 3084 3261 2657 
Q 3669 2231 3669 1497 
Q 3669 778 3244 343 
Q 2819 -91 2113 -91 
Q 1303 -91 875 529 
Q 447 1150 447 2328 
Q 447 3434 972 4092 
Q 1497 4750 2381 4750 
Q 2619 4750 2861 4703 
Q 3103 4656 3366 4563 
z
" transform="scale(0.015625)"/>
       </defs>
       <use xlink:href="#DejaVuSans-32"/>
       <use xlink:href="#DejaVuSans-36" x="63.623047"/>
       <use xlink:href="#DejaVuSans-30" x="127.246094"/>
      </g>
     </g>
    </g>
    <g id="ytick_5">
     <g id="line2d_14">
      <g>
       <use xlink:href="#mee264bab55" x="33.2875" y="64.514412" style="stroke: #000000; stroke-width: 0.8"/>
      </g>
     </g>
     <g id="text_14">
      <!-- 265 -->
      <g transform="translate(7.2 68.313631) scale(0.1 -0.1)">
       <use xlink:href="#DejaVuSans-32"/>
       <use xlink:href="#DejaVuSans-36" x="63.623047"/>
       <use xlink:href="#DejaVuSans-35" x="127.246094"/>
      </g>
     </g>
    </g>
   </g>
   <g id="line2d_15">
    <path d="M 49.520227 196.767574 
L 50.317904 243.056908 
L 51.115581 175.10172 
L 51.913258 155.891101 
L 52.710935 161.95343 
L 53.508612 157.424389 
L 54.306289 134.077664 
L 55.103966 145.054337 
L 55.901643 131.80422 
L 56.69932 130.062288 
L 57.496997 203.575039 
L 58.294674 206.516393 
L 59.092351 215.33044 
L 59.890028 176.942585 
L 60.687705 92.42992 
L 61.485383 108.307153 
L 62.28306 130.270946 
L 63.080737 129.309071 
L 63.878414 114.093258 
L 64.676091 115.393164 
L 65.473768 121.634782 
L 66.271445 134.606273 
L 67.069122 213.7961 
L 67.866799 233.077851 
L 68.664476 215.39429 
L 69.462153 206.624941 
L 70.25983 126.060236 
L 71.057507 114.245193 
L 71.855184 136.74541 
L 72.652861 113.083481 
L 73.450538 95.399402 
L 74.248215 97.114432 
L 75.045892 158.671735 
L 75.843569 133.136939 
L 76.641246 221.26965 
L 77.438923 262.336616 
L 78.2366 252.36373 
L 79.034277 216.345926 
L 79.831954 112.234512 
L 80.629631 138.788901 
L 81.427308 127.335079 
L 82.224985 90.735998 
L 83.022662 110.183841 
L 83.820339 112.27861 
L 84.618016 77.604483 
L 85.415693 54.664575 
L 86.21337 222.813328 
L 87.011047 208.523602 
L 87.808724 190.291144 
L 88.606401 203.731993 
L 89.404078 121.568273 
L 90.201755 144.232883 
L 91.797109 85.183965 
L 92.594786 131.676234 
L 93.392463 126.974688 
L 94.19014 125.904124 
L 94.987817 138.085821 
L 95.785494 197.948999 
L 96.583171 216.13759 
L 97.380848 185.144107 
L 98.178525 186.607955 
L 98.976202 88.877247 
L 99.773879 92.797891 
L 100.571556 118.900138 
L 101.369233 130.291747 
L 102.16691 113.004163 
L 102.964587 92.567655 
L 104.559941 109.76396 
L 105.357618 186.059484 
L 106.155295 198.958288 
L 106.952972 196.224281 
L 107.750649 165.747893 
L 108.548326 76.880132 
L 109.346003 104.813492 
L 110.14368 91.162958 
L 110.941357 66.565416 
L 111.739035 67.751445 
L 112.536712 90.115276 
L 113.334389 121.851506 
L 114.132066 98.402926 
L 114.929743 157.580704 
L 115.72742 177.88548 
L 116.525097 186.427065 
L 117.322774 142.306839 
L 118.120451 68.050444 
L 118.918128 59.223986 
L 119.715805 70.311619 
L 120.513482 60.328994 
L 121.311159 57.506913 
L 122.906513 43.269304 
L 123.70419 53.936192 
L 124.501867 144.473317 
L 125.299544 161.118408 
L 126.097221 189.044583 
L 126.894898 183.786735 
L 127.692575 130.765255 
L 128.490252 121.294563 
L 129.287929 98.847583 
L 130.085606 105.72533 
L 130.883283 93.744376 
L 131.68096 133.878957 
L 132.478637 92.208792 
L 133.276314 73.581595 
L 134.073991 179.426176 
L 134.871668 167.345626 
L 135.669345 167.81054 
L 136.467022 138.812867 
L 137.264699 63.716548 
L 138.062376 93.742505 
L 138.860053 82.388438 
L 139.65773 68.746236 
L 140.455407 78.185028 
L 141.253084 79.805584 
L 142.050761 86.006121 
L 142.848438 54.824231 
L 143.646115 160.157864 
L 144.443792 168.529356 
L 145.241469 180.568067 
L 146.039146 166.12583 
L 146.836823 65.244054 
L 147.6345 82.910306 
L 148.432177 67.484189 
L 149.229854 72.024402 
L 150.027531 48.980382 
L 150.825208 43.240268 
L 151.622885 62.681093 
L 152.420562 60.238762 
L 153.218239 175.323899 
L 154.015916 204.521976 
L 154.813593 203.420011 
L 155.61127 191.716148 
L 156.408947 88.969921 
L 157.206624 100.811216 
L 158.801978 34.414125 
L 159.599655 69.723015 
L 160.397332 90.357352 
L 161.195009 92.14838 
L 161.992687 95.787633 
L 162.790364 169.868446 
L 163.588041 192.413304 
L 164.385718 222.182988 
L 165.183395 198.777973 
L 165.981072 96.423306 
L 166.778749 83.956132 
L 167.576426 77.674633 
L 168.374103 68.673317 
L 169.17178 87.067624 
L 169.969457 88.40136 
L 170.767134 96.37246 
L 171.564811 124.781816 
L 172.362488 212.868607 
L 173.160165 211.879964 
L 173.957842 230.993483 
L 174.755519 207.872332 
L 175.553196 128.384419 
L 176.350873 108.488563 
L 177.14855 135.966135 
L 177.946227 120.992193 
L 178.743904 178.965432 
L 179.541581 157.018332 
L 180.339258 170.10255 
L 181.136935 146.020042 
L 181.934612 235.042457 
L 182.732289 239.136924 
L 183.529966 238.071011 
L 184.327643 208.811508 
L 185.12532 131.634977 
L 185.922997 104.484128 
L 186.720674 124.381889 
L 187.518351 109.395243 
L 188.316028 90.136587 
L 189.113705 102.923284 
L 189.911382 100.27814 
L 190.709059 75.21746 
L 191.506736 167.610933 
L 192.304413 186.069608 
L 193.10209 164.660363 
L 193.899767 164.361468 
L 194.697444 67.507085 
L 195.495121 81.213794 
L 196.292798 57.735991 
L 197.090475 115.116831 
L 197.888152 111.878362 
L 198.685829 103.343435 
L 199.483506 119.530951 
L 200.281183 106.811111 
L 201.07886 209.200131 
L 201.876537 224.011012 
L 202.674214 208.522743 
L 203.471891 190.852687 
L 204.269568 96.680081 
L 205.067245 119.520498 
L 205.864922 99.574683 
L 206.662599 116.944765 
L 207.460276 99.962485 
L 208.257953 112.873903 
L 209.05563 139.321837 
L 209.853307 155.543835 
L 210.650984 223.658584 
L 211.448661 238.764115 
L 212.246339 276.334125 
L 213.044016 245.38636 
L 213.841693 142.366757 
L 214.63937 168.634751 
L 215.437047 147.613618 
L 216.234724 129.703093 
L 217.032401 134.904764 
L 217.830078 124.852616 
L 218.627755 132.80079 
L 219.425432 126.078229 
L 220.223109 236.818023 
L 221.020786 254.114534 
L 221.818463 243.25867 
L 222.61614 222.300638 
L 223.413817 139.688162 
L 224.211494 150.715298 
L 225.009171 176.153736 
L 225.806848 130.446625 
L 226.604525 126.171661 
L 227.402202 127.239842 
L 228.199879 136.577158 
L 228.997556 130.920117 
L 229.795233 237.831228 
L 230.59291 244.028288 
L 231.390587 232.416069 
L 232.188264 233.730351 
L 232.985941 144.903799 
L 233.783618 128.837944 
L 234.581295 170.407145 
L 235.378972 183.645394 
L 236.176649 191.692276 
L 236.974326 163.003883 
L 237.772003 148.670592 
L 238.56968 155.740623 
L 239.367357 242.512184 
L 240.165034 238.133486 
L 240.962711 263.232393 
L 241.760388 243.065133 
L 242.558065 158.971057 
L 243.355742 142.518993 
L 244.153419 146.055245 
L 244.951096 150.88501 
L 245.748773 165.029913 
L 246.54645 148.696856 
L 247.344127 118.31665 
L 248.141804 140.106532 
L 248.939481 218.21112 
L 249.737158 203.979882 
L 250.534835 216.884568 
L 251.332512 205.243624 
L 252.130189 111.044174 
L 252.927866 138.262651 
L 253.725543 143.101653 
L 254.52322 119.073863 
L 255.320897 141.231681 
L 256.118574 140.737136 
L 256.916251 105.675009 
L 257.713928 153.50758 
L 258.511605 246.043191 
L 259.309282 237.212603 
L 260.106959 261.245521 
L 260.904636 221.124261 
L 261.702313 156.641331 
L 262.499991 167.104936 
L 263.297668 151.868535 
L 264.095345 177.120094 
L 264.893022 179.726222 
L 265.690699 170.750189 
L 266.488376 170.939943 
L 267.286053 117.513734 
L 268.08373 216.958572 
L 268.881407 252.676768 
L 269.679084 259.068121 
L 270.476761 258.555777 
L 271.274438 220.924166 
L 272.072115 170.379423 
L 272.869792 157.394286 
L 273.667469 159.487487 
L 274.465146 152.583631 
L 275.262823 153.310221 
L 276.0605 169.190778 
L 276.858177 181.458544 
L 277.655854 230.277261 
L 278.453531 236.520769 
L 279.251208 238.285333 
L 280.048885 231.279818 
L 280.846562 106.722056 
L 281.644239 116.511166 
L 282.441916 137.664245 
L 283.239593 128.458044 
L 284.03727 114.018095 
L 284.834947 108.854622 
L 285.632624 112.314423 
L 286.430301 128.612397 
L 287.227978 186.09521 
L 288.025655 212.271217 
L 288.823332 217.552847 
L 289.621009 214.975342 
L 290.418686 120.126121 
L 291.216363 92.039131 
L 292.01404 124.238406 
L 292.811717 122.578717 
L 293.609394 121.247789 
L 294.407071 131.432248 
L 295.204748 129.111594 
L 296.002425 99.980477 
L 296.800102 230.529646 
L 297.597779 235.783434 
L 298.395456 204.936937 
L 299.193133 200.74771 
L 299.99081 156.32239 
L 300.788487 155.456362 
L 301.586164 170.744402 
L 302.383841 146.656178 
L 303.181518 149.209219 
L 303.979195 138.382434 
L 304.776872 125.16477 
L 305.574549 101.539766 
L 306.372226 230.328224 
L 307.169903 221.053408 
L 307.96758 239.242438 
L 308.765257 220.880057 
L 309.562934 132.710178 
L 310.360611 152.294201 
L 311.158288 159.465744 
L 311.955965 170.110254 
L 312.753643 122.630396 
L 313.55132 99.41902 
L 314.348997 80.146155 
L 315.146674 97.164798 
L 315.944351 208.119112 
L 316.742028 224.140409 
L 317.539705 223.376782 
L 318.337382 210.932984 
L 319.135059 122.352898 
L 319.932736 139.439626 
L 320.730413 122.779021 
L 321.52809 111.584126 
L 322.325767 96.631773 
L 323.123444 126.734673 
L 323.921121 109.641251 
L 324.718798 86.089774 
L 325.516475 186.894737 
L 326.314152 190.917669 
L 327.111829 198.21233 
L 327.909506 226.777599 
L 328.707183 122.387409 
L 329.50486 145.883367 
L 331.100214 85.46666 
L 331.897891 104.120058 
L 332.695568 81.022761 
L 333.493245 111.145694 
L 334.290922 100.283209 
L 335.088599 170.321698 
L 335.886276 214.431961 
L 336.683953 210.032149 
L 337.48163 217.995388 
L 338.279307 174.544248 
L 339.076984 174.422532 
L 339.874661 124.128114 
L 340.672338 133.027119 
L 341.470015 137.035135 
L 342.267692 119.825306 
L 343.065369 144.241899 
L 343.863046 108.570692 
L 344.660723 215.990079 
L 345.4584 193.034624 
L 346.256077 210.014294 
L 347.053754 210.963623 
L 347.851431 128.674004 
L 348.649108 92.886607 
L 349.446785 89.922232 
L 350.244462 100.415073 
L 351.042139 102.801902 
L 351.839816 101.211929 
L 352.637493 92.67037 
L 353.43517 116.303632 
L 354.232847 183.820372 
L 355.030524 191.752848 
L 355.828201 225.242954 
L 356.625878 199.420966 
L 357.423555 82.489963 
L 358.221232 86.631121 
L 359.018909 116.260146 
L 359.816586 82.49464 
L 360.614263 95.50617 
L 361.41194 73.499948 
L 362.209617 75.688301 
L 363.007295 105.284609 
L 363.804972 174.412113 
L 364.602649 181.88213 
L 365.400326 210.371784 
L 366.198003 220.667008 
L 366.99568 106.501913 
L 367.793357 129.197743 
L 368.591034 142.792158 
L 369.388711 139.750426 
L 370.186388 137.941319 
L 370.984065 110.499761 
L 371.781742 121.345332 
L 372.579419 144.295178 
L 373.377096 228.573822 
L 374.174773 270.990657 
L 374.174773 270.990657 
" clip-path="url(#p4f4cb9f111)" style="fill: none; stroke: #1f77b4; stroke-width: 1.5; stroke-linecap: square"/>
   </g>
   <g id="patch_3">
    <path d="M 33.2875 288.430125 
L 33.2875 22.318125 
" style="fill: none; stroke: #000000; stroke-width: 0.8; stroke-linejoin: miter; stroke-linecap: square"/>
   </g>
   <g id="patch_4">
    <path d="M 390.4075 288.430125 
L 390.4075 22.318125 
" style="fill: none; stroke: #000000; stroke-width: 0.8; stroke-linejoin: miter; stroke-linecap: square"/>
   </g>
   <g id="patch_5">
    <path d="M 33.2875 288.430125 
L 390.4075 288.430125 
" style="fill: none; stroke: #000000; stroke-width: 0.8; stroke-linejoin: miter; stroke-linecap: square"/>
   </g>
   <g id="patch_6">
    <path d="M 33.2875 22.318125 
L 390.4075 22.318125 
" style="fill: none; stroke: #000000; stroke-width: 0.8; stroke-linejoin: miter; stroke-linecap: square"/>
   </g>
   <g id="text_15">
    <!-- Fast Flux -->
    <g transform="translate(185.410938 16.318125) scale(0.12 -0.12)">
     <defs>
      <path id="DejaVuSans-46" d="M 628 4666 
L 3309 4666 
L 3309 4134 
L 1259 4134 
L 1259 2759 
L 3109 2759 
L 3109 2228 
L 1259 2228 
L 1259 0 
L 628 0 
L 628 4666 
z
" transform="scale(0.015625)"/>
      <path id="DejaVuSans-61" d="M 2194 1759 
Q 1497 1759 1228 1600 
Q 959 1441 959 1056 
Q 959 750 1161 570 
Q 1363 391 1709 391 
Q 2188 391 2477 730 
Q 2766 1069 2766 1631 
L 2766 1759 
L 2194 1759 
z
M 3341 1997 
L 3341 0 
L 2766 0 
L 2766 531 
Q 2569 213 2275 61 
Q 1981 -91 1556 -91 
Q 1019 -91 701 211 
Q 384 513 384 1019 
Q 384 1609 779 1909 
Q 1175 2209 1959 2209 
L 2766 2209 
L 2766 2266 
Q 2766 2663 2505 2880 
Q 2244 3097 1772 3097 
Q 1472 3097 1187 3025 
Q 903 2953 641 2809 
L 641 3341 
Q 956 3463 1253 3523 
Q 1550 3584 1831 3584 
Q 2591 3584 2966 3190 
Q 3341 2797 3341 1997 
z
" transform="scale(0.015625)"/>
      <path id="DejaVuSans-73" d="M 2834 3397 
L 2834 2853 
Q 2591 2978 2328 3040 
Q 2066 3103 1784 3103 
Q 1356 3103 1142 2972 
Q 928 2841 928 2578 
Q 928 2378 1081 2264 
Q 1234 2150 1697 2047 
L 1894 2003 
Q 2506 1872 2764 1633 
Q 3022 1394 3022 966 
Q 3022 478 2636 193 
Q 2250 -91 1575 -91 
Q 1294 -91 989 -36 
Q 684 19 347 128 
L 347 722 
Q 666 556 975 473 
Q 1284 391 1588 391 
Q 1994 391 2212 530 
Q 2431 669 2431 922 
Q 2431 1156 2273 1281 
Q 2116 1406 1581 1522 
L 1381 1569 
Q 847 1681 609 1914 
Q 372 2147 372 2553 
Q 372 3047 722 3315 
Q 1072 3584 1716 3584 
Q 2034 3584 2315 3537 
Q 2597 3491 2834 3397 
z
" transform="scale(0.015625)"/>
      <path id="DejaVuSans-74" d="M 1172 4494 
L 1172 3500 
L 2356 3500 
L 2356 3053 
L 1172 3053 
L 1172 1153 
Q 1172 725 1289 603 
Q 1406 481 1766 481 
L 2356 481 
L 2356 0 
L 1766 0 
Q 1100 0 847 248 
Q 594 497 594 1153 
L 594 3053 
L 172 3053 
L 172 3500 
L 594 3500 
L 594 4494 
L 1172 4494 
z
" transform="scale(0.015625)"/>
      <path id="DejaVuSans-20" transform="scale(0.015625)"/>
      <path id="DejaVuSans-6c" d="M 603 4863 
L 1178 4863 
L 1178 0 
L 603 0 
L 603 4863 
z
" transform="scale(0.015625)"/>
      <path id="DejaVuSans-75" d="M 544 1381 
L 544 3500 
L 1119 3500 
L 1119 1403 
Q 1119 906 1312 657 
Q 1506 409 1894 409 
Q 2359 409 2629 706 
Q 2900 1003 2900 1516 
L 2900 3500 
L 3475 3500 
L 3475 0 
L 2900 0 
L 2900 538 
Q 2691 219 2414 64 
Q 2138 -91 1772 -91 
Q 1169 -91 856 284 
Q 544 659 544 1381 
z
M 1991 3584 
L 1991 3584 
z
" transform="scale(0.015625)"/>
      <path id="DejaVuSans-78" d="M 3513 3500 
L 2247 1797 
L 3578 0 
L 2900 0 
L 1881 1375 
L 863 0 
L 184 0 
L 1544 1831 
L 300 3500 
L 978 3500 
L 1906 2253 
L 2834 3500 
L 3513 3500 
z
" transform="scale(0.015625)"/>
     </defs>
     <use xlink:href="#DejaVuSans-46"/>
     <use xlink:href="#DejaVuSans-61" x="48.394531"/>
     <use xlink:href="#DejaVuSans-73" x="109.673828"/>
     <use xlink:href="#DejaVuSans-74" x="161.773438"/>
     <use xlink:href="#DejaVuSans-20" x="200.982422"/>
     <use xlink:href="#DejaVuSans-46" x="232.769531"/>
     <use xlink:href="#DejaVuSans-6c" x="290.289062"/>
     <use xlink:href="#DejaVuSans-75" x="318.072266"/>
     <use xlink:href="#DejaVuSans-78" x="381.451172"/>
    </g>
   </g>
  </g>
 </g>
 <defs>
  <clipPath id="p4f4cb9f111">
   <rect x="33.2875" y="22.318125" width="357.12" height="266.112"/>
  </clipPath>
 </defs>
</svg>
