<?xml version="1.0" encoding="utf-8" standalone="no"?>
<!DOCTYPE svg PUBLIC "-//W3C//DTD SVG 1.1//EN"
  "http://www.w3.org/Graphics/SVG/1.1/DTD/svg11.dtd">
<svg xmlns:xlink="http://www.w3.org/1999/xlink" width="400.785625pt" height="312.30825pt" viewBox="0 0 400.785625 312.30825" xmlns="http://www.w3.org/2000/svg" version="1.1">
 <metadata>
  <rdf:RDF xmlns:dc="http://purl.org/dc/elements/1.1/" xmlns:cc="http://creativecommons.org/ns#" xmlns:rdf="http://www.w3.org/1999/02/22-rdf-syntax-ns#">
   <cc:Work>
    <dc:type rdf:resource="http://purl.org/dc/dcmitype/StillImage"/>
    <dc:date>2024-03-17T11:31:58.397445</dc:date>
    <dc:format>image/svg+xml</dc:format>
    <dc:creator>
     <cc:Agent>
      <dc:title>Matplotlib v3.8.3, https://matplotlib.org/</dc:title>
     </cc:Agent>
    </dc:creator>
   </cc:Work>
  </rdf:RDF>
 </metadata>
 <defs>
  <style type="text/css">*{stroke-linejoin: round; stroke-linecap: butt}</style>
 </defs>
 <g id="figure_1">
  <g id="patch_1">
   <path d="M 0 312.30825 
L 400.785625 312.30825 
L 400.785625 0 
L 0 0 
z
" style="fill: #ffffff"/>
  </g>
  <g id="axes_1">
   <g id="patch_2">
    <path d="M 36.465625 288.430125 
L 393.585625 288.430125 
L 393.585625 22.318125 
L 36.465625 22.318125 
z
" style="fill: #ffffff"/>
   </g>
   <g id="matplotlib.axis_1">
    <g id="xtick_1">
     <g id="line2d_1">
      <defs>
       <path id="mbde88a0b0f" d="M 0 0 
L 0 3.5 
" style="stroke: #000000; stroke-width: 0.8"/>
      </defs>
      <g>
       <use xlink:href="#mbde88a0b0f" x="36.465625" y="288.430125" style="stroke: #000000; stroke-width: 0.8"/>
      </g>
     </g>
     <g id="text_1">
      <!-- 0 -->
      <g transform="translate(33.284375 303.028562) scale(0.1 -0.1)">
       <defs>
        <path id="DejaVuSans-30" d="M 2034 4250 
Q 1547 4250 1301 3770 
Q 1056 3291 1056 2328 
Q 1056 1369 1301 889 
Q 1547 409 2034 409 
Q 2525 409 2770 889 
Q 3016 1369 3016 2328 
Q 3016 3291 2770 3770 
Q 2525 4250 2034 4250 
z
M 2034 4750 
Q 2819 4750 3233 4129 
Q 3647 3509 3647 2328 
Q 3647 1150 3233 529 
Q 2819 -91 2034 -91 
Q 1250 -91 836 529 
Q 422 1150 422 2328 
Q 422 3509 836 4129 
Q 1250 4750 2034 4750 
z
" transform="scale(0.015625)"/>
       </defs>
       <use xlink:href="#DejaVuSans-30"/>
      </g>
     </g>
    </g>
    <g id="xtick_2">
     <g id="line2d_2">
      <g>
       <use xlink:href="#mbde88a0b0f" x="77.748215" y="288.430125" style="stroke: #000000; stroke-width: 0.8"/>
      </g>
     </g>
     <g id="text_2">
      <!-- 10 -->
      <g transform="translate(71.385715 303.028562) scale(0.1 -0.1)">
       <defs>
        <path id="DejaVuSans-31" d="M 794 531 
L 1825 531 
L 1825 4091 
L 703 3866 
L 703 4441 
L 1819 4666 
L 2450 4666 
L 2450 531 
L 3481 531 
L 3481 0 
L 794 0 
L 794 531 
z
" transform="scale(0.015625)"/>
       </defs>
       <use xlink:href="#DejaVuSans-31"/>
       <use xlink:href="#DejaVuSans-30" x="63.623047"/>
      </g>
     </g>
    </g>
    <g id="xtick_3">
     <g id="line2d_3">
      <g>
       <use xlink:href="#mbde88a0b0f" x="119.030805" y="288.430125" style="stroke: #000000; stroke-width: 0.8"/>
      </g>
     </g>
     <g id="text_3">
      <!-- 20 -->
      <g transform="translate(112.668305 303.028562) scale(0.1 -0.1)">
       <defs>
        <path id="DejaVuSans-32" d="M 1228 531 
L 3431 531 
L 3431 0 
L 469 0 
L 469 531 
Q 828 903 1448 1529 
Q 2069 2156 2228 2338 
Q 2531 2678 2651 2914 
Q 2772 3150 2772 3378 
Q 2772 3750 2511 3984 
Q 2250 4219 1831 4219 
Q 1534 4219 1204 4116 
Q 875 4013 500 3803 
L 500 4441 
Q 881 4594 1212 4672 
Q 1544 4750 1819 4750 
Q 2544 4750 2975 4387 
Q 3406 4025 3406 3419 
Q 3406 3131 3298 2873 
Q 3191 2616 2906 2266 
Q 2828 2175 2409 1742 
Q 1991 1309 1228 531 
z
" transform="scale(0.015625)"/>
       </defs>
       <use xlink:href="#DejaVuSans-32"/>
       <use xlink:href="#DejaVuSans-30" x="63.623047"/>
      </g>
     </g>
    </g>
    <g id="xtick_4">
     <g id="line2d_4">
      <g>
       <use xlink:href="#mbde88a0b0f" x="160.313395" y="288.430125" style="stroke: #000000; stroke-width: 0.8"/>
      </g>
     </g>
     <g id="text_4">
      <!-- 30 -->
      <g transform="translate(153.950895 303.028562) scale(0.1 -0.1)">
       <defs>
        <path id="DejaVuSans-33" d="M 2597 2516 
Q 3050 2419 3304 2112 
Q 3559 1806 3559 1356 
Q 3559 666 3084 287 
Q 2609 -91 1734 -91 
Q 1441 -91 1130 -33 
Q 819 25 488 141 
L 488 750 
Q 750 597 1062 519 
Q 1375 441 1716 441 
Q 2309 441 2620 675 
Q 2931 909 2931 1356 
Q 2931 1769 2642 2001 
Q 2353 2234 1838 2234 
L 1294 2234 
L 1294 2753 
L 1863 2753 
Q 2328 2753 2575 2939 
Q 2822 3125 2822 3475 
Q 2822 3834 2567 4026 
Q 2313 4219 1838 4219 
Q 1578 4219 1281 4162 
Q 984 4106 628 3988 
L 628 4550 
Q 988 4650 1302 4700 
Q 1616 4750 1894 4750 
Q 2613 4750 3031 4423 
Q 3450 4097 3450 3541 
Q 3450 3153 3228 2886 
Q 3006 2619 2597 2516 
z
" transform="scale(0.015625)"/>
       </defs>
       <use xlink:href="#DejaVuSans-33"/>
       <use xlink:href="#DejaVuSans-30" x="63.623047"/>
      </g>
     </g>
    </g>
    <g id="xtick_5">
     <g id="line2d_5">
      <g>
       <use xlink:href="#mbde88a0b0f" x="201.595986" y="288.430125" style="stroke: #000000; stroke-width: 0.8"/>
      </g>
     </g>
     <g id="text_5">
      <!-- 40 -->
      <g transform="translate(195.233486 303.028562) scale(0.1 -0.1)">
       <defs>
        <path id="DejaVuSans-34" d="M 2419 4116 
L 825 1625 
L 2419 1625 
L 2419 4116 
z
M 2253 4666 
L 3047 4666 
L 3047 1625 
L 3713 1625 
L 3713 1100 
L 3047 1100 
L 3047 0 
L 2419 0 
L 2419 1100 
L 313 1100 
L 313 1709 
L 2253 4666 
z
" transform="scale(0.015625)"/>
       </defs>
       <use xlink:href="#DejaVuSans-34"/>
       <use xlink:href="#DejaVuSans-30" x="63.623047"/>
      </g>
     </g>
    </g>
    <g id="xtick_6">
     <g id="line2d_6">
      <g>
       <use xlink:href="#mbde88a0b0f" x="242.878576" y="288.430125" style="stroke: #000000; stroke-width: 0.8"/>
      </g>
     </g>
     <g id="text_6">
      <!-- 50 -->
      <g transform="translate(236.516076 303.028562) scale(0.1 -0.1)">
       <defs>
        <path id="DejaVuSans-35" d="M 691 4666 
L 3169 4666 
L 3169 4134 
L 1269 4134 
L 1269 2991 
Q 1406 3038 1543 3061 
Q 1681 3084 1819 3084 
Q 2600 3084 3056 2656 
Q 3513 2228 3513 1497 
Q 3513 744 3044 326 
Q 2575 -91 1722 -91 
Q 1428 -91 1123 -41 
Q 819 9 494 109 
L 494 744 
Q 775 591 1075 516 
Q 1375 441 1709 441 
Q 2250 441 2565 725 
Q 2881 1009 2881 1497 
Q 2881 1984 2565 2268 
Q 2250 2553 1709 2553 
Q 1456 2553 1204 2497 
Q 953 2441 691 2322 
L 691 4666 
z
" transform="scale(0.015625)"/>
       </defs>
       <use xlink:href="#DejaVuSans-35"/>
       <use xlink:href="#DejaVuSans-30" x="63.623047"/>
      </g>
     </g>
    </g>
    <g id="xtick_7">
     <g id="line2d_7">
      <g>
       <use xlink:href="#mbde88a0b0f" x="284.161166" y="288.430125" style="stroke: #000000; stroke-width: 0.8"/>
      </g>
     </g>
     <g id="text_7">
      <!-- 60 -->
      <g transform="translate(277.798666 303.028562) scale(0.1 -0.1)">
       <defs>
        <path id="DejaVuSans-36" d="M 2113 2584 
Q 1688 2584 1439 2293 
Q 1191 2003 1191 1497 
Q 1191 994 1439 701 
Q 1688 409 2113 409 
Q 2538 409 2786 701 
Q 3034 994 3034 1497 
Q 3034 2003 2786 2293 
Q 2538 2584 2113 2584 
z
M 3366 4563 
L 3366 3988 
Q 3128 4100 2886 4159 
Q 2644 4219 2406 4219 
Q 1781 4219 1451 3797 
Q 1122 3375 1075 2522 
Q 1259 2794 1537 2939 
Q 1816 3084 2150 3084 
Q 2853 3084 3261 2657 
Q 3669 2231 3669 1497 
Q 3669 778 3244 343 
Q 2819 -91 2113 -91 
Q 1303 -91 875 529 
Q 447 1150 447 2328 
Q 447 3434 972 4092 
Q 1497 4750 2381 4750 
Q 2619 4750 2861 4703 
Q 3103 4656 3366 4563 
z
" transform="scale(0.015625)"/>
       </defs>
       <use xlink:href="#DejaVuSans-36"/>
       <use xlink:href="#DejaVuSans-30" x="63.623047"/>
      </g>
     </g>
    </g>
    <g id="xtick_8">
     <g id="line2d_8">
      <g>
       <use xlink:href="#mbde88a0b0f" x="325.443756" y="288.430125" style="stroke: #000000; stroke-width: 0.8"/>
      </g>
     </g>
     <g id="text_8">
      <!-- 70 -->
      <g transform="translate(319.081256 303.028562) scale(0.1 -0.1)">
       <defs>
        <path id="DejaVuSans-37" d="M 525 4666 
L 3525 4666 
L 3525 4397 
L 1831 0 
L 1172 0 
L 2766 4134 
L 525 4134 
L 525 4666 
z
" transform="scale(0.015625)"/>
       </defs>
       <use xlink:href="#DejaVuSans-37"/>
       <use xlink:href="#DejaVuSans-30" x="63.623047"/>
      </g>
     </g>
    </g>
    <g id="xtick_9">
     <g id="line2d_9">
      <g>
       <use xlink:href="#mbde88a0b0f" x="366.726346" y="288.430125" style="stroke: #000000; stroke-width: 0.8"/>
      </g>
     </g>
     <g id="text_9">
      <!-- 80 -->
      <g transform="translate(360.363846 303.028562) scale(0.1 -0.1)">
       <defs>
        <path id="DejaVuSans-38" d="M 2034 2216 
Q 1584 2216 1326 1975 
Q 1069 1734 1069 1313 
Q 1069 891 1326 650 
Q 1584 409 2034 409 
Q 2484 409 2743 651 
Q 3003 894 3003 1313 
Q 3003 1734 2745 1975 
Q 2488 2216 2034 2216 
z
M 1403 2484 
Q 997 2584 770 2862 
Q 544 3141 544 3541 
Q 544 4100 942 4425 
Q 1341 4750 2034 4750 
Q 2731 4750 3128 4425 
Q 3525 4100 3525 3541 
Q 3525 3141 3298 2862 
Q 3072 2584 2669 2484 
Q 3125 2378 3379 2068 
Q 3634 1759 3634 1313 
Q 3634 634 3220 271 
Q 2806 -91 2034 -91 
Q 1263 -91 848 271 
Q 434 634 434 1313 
Q 434 1759 690 2068 
Q 947 2378 1403 2484 
z
M 1172 3481 
Q 1172 3119 1398 2916 
Q 1625 2713 2034 2713 
Q 2441 2713 2670 2916 
Q 2900 3119 2900 3481 
Q 2900 3844 2670 4047 
Q 2441 4250 2034 4250 
Q 1625 4250 1398 4047 
Q 1172 3844 1172 3481 
z
" transform="scale(0.015625)"/>
       </defs>
       <use xlink:href="#DejaVuSans-38"/>
       <use xlink:href="#DejaVuSans-30" x="63.623047"/>
      </g>
     </g>
    </g>
   </g>
   <g id="matplotlib.axis_2">
    <g id="ytick_1">
     <g id="line2d_10">
      <defs>
       <path id="m69c164a2a2" d="M 0 0 
L -3.5 0 
" style="stroke: #000000; stroke-width: 0.8"/>
      </defs>
      <g>
       <use xlink:href="#m69c164a2a2" x="36.465625" y="274.391004" style="stroke: #000000; stroke-width: 0.8"/>
      </g>
     </g>
     <g id="text_10">
      <!-- 9.45 -->
      <g transform="translate(7.2 278.190223) scale(0.1 -0.1)">
       <defs>
        <path id="DejaVuSans-39" d="M 703 97 
L 703 672 
Q 941 559 1184 500 
Q 1428 441 1663 441 
Q 2288 441 2617 861 
Q 2947 1281 2994 2138 
Q 2813 1869 2534 1725 
Q 2256 1581 1919 1581 
Q 1219 1581 811 2004 
Q 403 2428 403 3163 
Q 403 3881 828 4315 
Q 1253 4750 1959 4750 
Q 2769 4750 3195 4129 
Q 3622 3509 3622 2328 
Q 3622 1225 3098 567 
Q 2575 -91 1691 -91 
Q 1453 -91 1209 -44 
Q 966 3 703 97 
z
M 1959 2075 
Q 2384 2075 2632 2365 
Q 2881 2656 2881 3163 
Q 2881 3666 2632 3958 
Q 2384 4250 1959 4250 
Q 1534 4250 1286 3958 
Q 1038 3666 1038 3163 
Q 1038 2656 1286 2365 
Q 1534 2075 1959 2075 
z
" transform="scale(0.015625)"/>
        <path id="DejaVuSans-2e" d="M 684 794 
L 1344 794 
L 1344 0 
L 684 0 
L 684 794 
z
" transform="scale(0.015625)"/>
       </defs>
       <use xlink:href="#DejaVuSans-39"/>
       <use xlink:href="#DejaVuSans-2e" x="63.623047"/>
       <use xlink:href="#DejaVuSans-34" x="95.410156"/>
       <use xlink:href="#DejaVuSans-35" x="159.033203"/>
      </g>
     </g>
    </g>
    <g id="ytick_2">
     <g id="line2d_11">
      <g>
       <use xlink:href="#m69c164a2a2" x="36.465625" y="238.480584" style="stroke: #000000; stroke-width: 0.8"/>
      </g>
     </g>
     <g id="text_11">
      <!-- 9.50 -->
      <g transform="translate(7.2 242.279803) scale(0.1 -0.1)">
       <use xlink:href="#DejaVuSans-39"/>
       <use xlink:href="#DejaVuSans-2e" x="63.623047"/>
       <use xlink:href="#DejaVuSans-35" x="95.410156"/>
       <use xlink:href="#DejaVuSans-30" x="159.033203"/>
      </g>
     </g>
    </g>
    <g id="ytick_3">
     <g id="line2d_12">
      <g>
       <use xlink:href="#m69c164a2a2" x="36.465625" y="202.570164" style="stroke: #000000; stroke-width: 0.8"/>
      </g>
     </g>
     <g id="text_12">
      <!-- 9.55 -->
      <g transform="translate(7.2 206.369383) scale(0.1 -0.1)">
       <use xlink:href="#DejaVuSans-39"/>
       <use xlink:href="#DejaVuSans-2e" x="63.623047"/>
       <use xlink:href="#DejaVuSans-35" x="95.410156"/>
       <use xlink:href="#DejaVuSans-35" x="159.033203"/>
      </g>
     </g>
    </g>
    <g id="ytick_4">
     <g id="line2d_13">
      <g>
       <use xlink:href="#m69c164a2a2" x="36.465625" y="166.659744" style="stroke: #000000; stroke-width: 0.8"/>
      </g>
     </g>
     <g id="text_13">
      <!-- 9.60 -->
      <g transform="translate(7.2 170.458963) scale(0.1 -0.1)">
       <use xlink:href="#DejaVuSans-39"/>
       <use xlink:href="#DejaVuSans-2e" x="63.623047"/>
       <use xlink:href="#DejaVuSans-36" x="95.410156"/>
       <use xlink:href="#DejaVuSans-30" x="159.033203"/>
      </g>
     </g>
    </g>
    <g id="ytick_5">
     <g id="line2d_14">
      <g>
       <use xlink:href="#m69c164a2a2" x="36.465625" y="130.749324" style="stroke: #000000; stroke-width: 0.8"/>
      </g>
     </g>
     <g id="text_14">
      <!-- 9.65 -->
      <g transform="translate(7.2 134.548543) scale(0.1 -0.1)">
       <use xlink:href="#DejaVuSans-39"/>
       <use xlink:href="#DejaVuSans-2e" x="63.623047"/>
       <use xlink:href="#DejaVuSans-36" x="95.410156"/>
       <use xlink:href="#DejaVuSans-35" x="159.033203"/>
      </g>
     </g>
    </g>
    <g id="ytick_6">
     <g id="line2d_15">
      <g>
       <use xlink:href="#m69c164a2a2" x="36.465625" y="94.838904" style="stroke: #000000; stroke-width: 0.8"/>
      </g>
     </g>
     <g id="text_15">
      <!-- 9.70 -->
      <g transform="translate(7.2 98.638123) scale(0.1 -0.1)">
       <use xlink:href="#DejaVuSans-39"/>
       <use xlink:href="#DejaVuSans-2e" x="63.623047"/>
       <use xlink:href="#DejaVuSans-37" x="95.410156"/>
       <use xlink:href="#DejaVuSans-30" x="159.033203"/>
      </g>
     </g>
    </g>
    <g id="ytick_7">
     <g id="line2d_16">
      <g>
       <use xlink:href="#m69c164a2a2" x="36.465625" y="58.928484" style="stroke: #000000; stroke-width: 0.8"/>
      </g>
     </g>
     <g id="text_16">
      <!-- 9.75 -->
      <g transform="translate(7.2 62.727703) scale(0.1 -0.1)">
       <use xlink:href="#DejaVuSans-39"/>
       <use xlink:href="#DejaVuSans-2e" x="63.623047"/>
       <use xlink:href="#DejaVuSans-37" x="95.410156"/>
       <use xlink:href="#DejaVuSans-35" x="159.033203"/>
      </g>
     </g>
    </g>
    <g id="ytick_8">
     <g id="line2d_17">
      <g>
       <use xlink:href="#m69c164a2a2" x="36.465625" y="23.018064" style="stroke: #000000; stroke-width: 0.8"/>
      </g>
     </g>
     <g id="text_17">
      <!-- 9.80 -->
      <g transform="translate(7.2 26.817283) scale(0.1 -0.1)">
       <use xlink:href="#DejaVuSans-39"/>
       <use xlink:href="#DejaVuSans-2e" x="63.623047"/>
       <use xlink:href="#DejaVuSans-38" x="95.410156"/>
       <use xlink:href="#DejaVuSans-30" x="159.033203"/>
      </g>
     </g>
    </g>
    <g id="text_18">
     <!-- 1e14 -->
     <g transform="translate(36.465625 19.318125) scale(0.1 -0.1)">
      <defs>
       <path id="DejaVuSans-65" d="M 3597 1894 
L 3597 1613 
L 953 1613 
Q 991 1019 1311 708 
Q 1631 397 2203 397 
Q 2534 397 2845 478 
Q 3156 559 3463 722 
L 3463 178 
Q 3153 47 2828 -22 
Q 2503 -91 2169 -91 
Q 1331 -91 842 396 
Q 353 884 353 1716 
Q 353 2575 817 3079 
Q 1281 3584 2069 3584 
Q 2775 3584 3186 3129 
Q 3597 2675 3597 1894 
z
M 3022 2063 
Q 3016 2534 2758 2815 
Q 2500 3097 2075 3097 
Q 1594 3097 1305 2825 
Q 1016 2553 972 2059 
L 3022 2063 
z
" transform="scale(0.015625)"/>
      </defs>
      <use xlink:href="#DejaVuSans-31"/>
      <use xlink:href="#DejaVuSans-65" x="63.623047"/>
      <use xlink:href="#DejaVuSans-31" x="125.146484"/>
      <use xlink:href="#DejaVuSans-34" x="188.769531"/>
     </g>
    </g>
   </g>
   <g id="line2d_18">
    <path d="M 36.465625 276.334125 
L 37.519076 219.366322 
L 38.572528 107.335731 
L 39.625979 63.318734 
L 40.67943 43.391872 
L 41.732882 44.490531 
L 42.786333 63.343372 
L 43.839784 110.980454 
L 44.893236 216.208923 
L 45.946687 269.626298 
L 47.000138 271.520328 
L 48.05359 214.617398 
L 49.107041 105.749115 
L 50.160492 58.447974 
L 51.213944 37.332337 
L 52.267395 36.135644 
L 53.320846 56.182041 
L 54.374298 103.600261 
L 55.427749 213.772322 
L 56.4812 270.54894 
L 57.534652 271.124001 
L 58.588103 214.187825 
L 59.641554 103.100263 
L 60.695006 55.801731 
L 61.748457 38.28111 
L 62.801908 39.111077 
L 63.85536 58.633313 
L 64.908811 106.56749 
L 65.962262 215.729236 
L 67.015713 268.707076 
L 68.069165 270.279658 
L 69.122616 217.816284 
L 70.176067 105.306056 
L 71.229519 57.982235 
L 72.28297 39.224404 
L 73.336421 39.742309 
L 74.389873 58.290995 
L 75.443324 107.746597 
L 76.496775 215.231393 
L 77.550227 269.602006 
L 78.603678 271.9733 
L 79.657129 215.68868 
L 80.710581 108.17072 
L 81.764032 58.55587 
L 82.817483 39.504436 
L 83.870935 39.371898 
L 84.924386 58.26791 
L 85.977837 105.311641 
L 87.031289 214.243008 
L 88.08474 269.968955 
L 89.138191 270.905607 
L 90.191643 219.248983 
L 91.245094 106.338635 
L 92.298545 58.268944 
L 93.351997 41.321746 
L 94.405448 40.869794 
L 95.458899 58.725843 
L 96.512351 103.19698 
L 97.565802 216.325153 
L 98.619253 271.057488 
L 99.672705 268.811498 
L 100.726156 213.050697 
L 101.779607 102.69247 
L 102.833059 55.092206 
L 103.88651 36.027854 
L 104.939961 37.891404 
L 105.993413 55.907484 
L 107.046864 103.284732 
L 108.100315 214.401301 
L 109.153767 270.664271 
L 110.207218 270.538861 
L 111.260669 211.919467 
L 112.314121 99.501359 
L 113.367572 52.552095 
L 114.421023 35.448739 
L 115.474475 34.462188 
L 116.527926 53.771238 
L 117.581377 101.457125 
L 118.634829 214.529848 
L 119.68828 270.874311 
L 120.741731 269.020353 
L 121.795183 214.282905 
L 122.848634 102.985568 
L 123.902085 54.13124 
L 124.955537 37.313277 
L 126.008988 38.03761 
L 127.062439 56.410921 
L 128.11589 101.769844 
L 129.169342 213.748335 
L 130.222793 269.04806 
L 131.276244 267.258612 
L 132.329696 214.507691 
L 133.383147 104.777903 
L 134.436598 58.402724 
L 135.49005 37.809807 
L 136.543501 40.012247 
L 137.596952 55.901231 
L 138.650404 103.38729 
L 139.703855 213.068399 
L 140.757306 269.360894 
L 141.810758 271.522082 
L 142.864209 215.54357 
L 143.91766 106.215059 
L 144.971112 61.243321 
L 146.024563 40.649827 
L 147.078014 40.52139 
L 148.131466 60.837668 
L 149.184917 105.471697 
L 150.238368 216.92728 
L 151.29182 273.685431 
L 152.345271 273.691541 
L 153.398722 217.854102 
L 154.452174 107.06356 
L 155.505625 58.628657 
L 156.559076 41.610137 
L 157.612528 40.453328 
L 158.665979 57.585933 
L 159.71943 102.404852 
L 160.772882 215.167516 
L 161.826333 270.374859 
L 162.879784 270.780288 
L 163.933236 215.836021 
L 164.986687 102.254283 
L 166.040138 57.456359 
L 167.09359 36.45165 
L 168.147041 37.469617 
L 169.200492 56.582409 
L 170.253944 101.037267 
L 171.307395 213.257111 
L 172.360846 266.342229 
L 173.414298 264.939076 
L 174.467749 211.065261 
L 175.5212 99.445092 
L 176.574652 52.335782 
L 177.628103 34.414125 
L 178.681554 37.801586 
L 179.735006 55.11328 
L 180.788457 102.306235 
L 181.841908 212.215984 
L 182.89536 267.705549 
L 183.948811 267.789891 
L 185.002262 216.512995 
L 186.055713 103.037219 
L 187.109165 58.208739 
L 188.162616 38.826953 
L 189.216067 37.235714 
L 190.269519 56.507774 
L 191.32297 106.436045 
L 192.376421 217.538674 
L 193.429873 273.41664 
L 194.483324 271.628923 
L 195.536775 218.091707 
L 196.590227 103.18819 
L 197.643678 55.438813 
L 198.697129 38.502834 
L 199.750581 35.578933 
L 200.804032 55.805577 
L 201.857483 102.718294 
L 202.910935 213.29075 
L 203.964386 268.199697 
L 205.017837 268.243156 
L 206.071289 214.877403 
L 207.12474 102.0102 
L 208.178191 58.398461 
L 209.231643 40.995307 
L 210.285094 39.439291 
L 211.338545 58.578765 
L 212.391997 102.287842 
L 213.445448 214.987256 
L 214.498899 269.633875 
L 215.552351 272.078592 
L 216.605802 216.615781 
L 217.659253 106.124461 
L 218.712705 60.044874 
L 219.766156 41.412689 
L 220.819607 39.483617 
L 221.873059 58.722816 
L 222.92651 104.873516 
L 223.979961 217.145938 
L 225.033413 272.720291 
L 226.086864 273.002454 
L 227.140315 216.377621 
L 228.193767 105.931377 
L 229.247218 59.026379 
L 230.300669 42.621541 
L 231.354121 43.600654 
L 232.407572 62.197291 
L 233.461023 105.47897 
L 234.514475 217.412194 
L 235.567926 271.118787 
L 236.621377 273.873957 
L 237.674829 218.80919 
L 238.72828 106.288576 
L 239.781731 60.005608 
L 240.835183 42.559367 
L 241.888634 40.612113 
L 242.942085 58.918792 
L 243.995537 104.228296 
L 245.048988 216.182756 
L 246.102439 272.620193 
L 247.15589 271.044661 
L 248.209342 214.934062 
L 249.262793 106.119511 
L 250.316244 59.823925 
L 251.369696 39.344179 
L 252.423147 38.10299 
L 253.476598 58.065274 
L 254.53005 103.019172 
L 255.583501 215.690546 
L 256.636952 270.15533 
L 257.690404 268.554119 
L 258.743855 213.671235 
L 259.797306 104.842782 
L 260.850758 56.771336 
L 261.904209 39.711818 
L 262.95766 37.42984 
L 264.011112 56.274218 
L 265.064563 102.485467 
L 266.118014 213.104525 
L 267.171466 267.577613 
L 268.224917 270.586889 
L 269.278368 215.525348 
L 270.33182 103.328186 
L 271.385271 58.717165 
L 272.438722 38.156789 
L 273.492174 37.18318 
L 274.545625 57.874366 
L 275.599076 105.048287 
L 276.652528 214.61828 
L 277.705979 270.522025 
L 278.75943 269.65275 
L 279.812882 214.994513 
L 280.866333 105.929703 
L 281.919784 58.714172 
L 282.973236 41.441267 
L 284.026687 41.905059 
L 285.080138 57.477389 
L 286.13359 99.948796 
L 287.187041 212.112625 
L 288.240492 266.858615 
L 289.293944 267.734646 
L 290.347395 214.878406 
L 291.400846 104.214635 
L 292.454298 57.180761 
L 293.507749 39.850905 
L 294.5612 40.965627 
L 295.614652 61.529868 
L 296.668103 108.252676 
L 297.721554 220.106996 
L 298.775006 274.766602 
L 299.828457 273.822881 
L 300.881908 219.653286 
L 301.93536 106.772866 
L 302.988811 60.595393 
L 304.042262 40.886972 
L 305.095713 39.008418 
L 306.149165 58.005556 
L 307.202616 106.115426 
L 308.256067 217.431421 
L 309.309519 270.903049 
L 310.36297 269.390483 
L 311.416421 216.502342 
L 312.469873 106.206723 
L 313.523324 59.277568 
L 314.576775 40.833273 
L 315.630227 43.468183 
L 316.683678 59.917068 
L 317.737129 106.921596 
L 318.790581 215.308923 
L 319.844032 268.791847 
L 320.897483 270.808506 
L 321.950935 214.595868 
L 323.004386 103.916154 
L 324.057837 54.398393 
L 325.111289 36.932193 
L 326.16474 39.012822 
L 327.218191 56.364174 
L 328.271643 103.055406 
L 329.325094 217.482514 
L 330.378545 271.256926 
L 331.431997 270.517011 
L 332.485448 215.58159 
L 333.538899 104.775167 
L 334.592351 59.071035 
L 335.645802 39.624067 
L 336.699253 41.511654 
L 337.752705 59.165063 
L 338.806156 105.42186 
L 339.859607 216.528437 
L 340.913059 270.410589 
L 341.96651 276.043151 
L 343.019961 220.625347 
L 344.073413 110.334359 
L 345.126864 63.169185 
L 346.180315 41.424231 
L 347.233767 41.618035 
L 348.287218 62.123564 
L 349.340669 109.415889 
L 350.394121 221.247658 
L 351.447572 274.869248 
L 352.501023 274.097006 
L 353.554475 220.878237 
L 354.607926 111.551233 
L 355.661377 61.51939 
L 356.714829 42.641714 
L 357.76828 43.995469 
L 358.821731 62.139528 
L 359.875183 109.857044 
L 360.928634 219.590021 
L 361.982085 276.314816 
L 363.035537 275.504959 
L 364.088988 219.463341 
L 365.142439 106.863172 
L 366.19589 64.06997 
L 367.249342 42.290641 
L 368.302793 43.375762 
L 369.356244 63.171468 
L 370.409696 108.353455 
L 371.463147 218.441637 
L 372.516598 273.612106 
L 373.57005 272.896725 
L 374.623501 217.881472 
L 375.676952 105.886735 
L 376.730404 61.030795 
L 377.783855 41.49592 
L 378.837306 42.688663 
L 379.890758 61.6709 
L 380.944209 106.355488 
L 381.99766 221.642261 
L 383.051112 275.819501 
L 384.104563 275.644299 
L 385.158014 220.340309 
L 386.211466 109.13007 
L 387.264917 63.942929 
L 388.318368 46.028805 
L 389.37182 45.201644 
L 390.425271 63.554045 
L 391.478722 112.507067 
L 392.532174 223.517996 
L 393.585625 275.821521 
L 393.585625 275.821521 
" clip-path="url(#p4403ff7523)" style="fill: none; stroke: #1f77b4; stroke-width: 1.5; stroke-linecap: square"/>
   </g>
   <g id="patch_3">
    <path d="M 36.465625 288.430125 
L 36.465625 22.318125 
" style="fill: none; stroke: #000000; stroke-width: 0.8; stroke-linejoin: miter; stroke-linecap: square"/>
   </g>
   <g id="patch_4">
    <path d="M 393.585625 288.430125 
L 393.585625 22.318125 
" style="fill: none; stroke: #000000; stroke-width: 0.8; stroke-linejoin: miter; stroke-linecap: square"/>
   </g>
   <g id="patch_5">
    <path d="M 36.465625 288.430125 
L 393.585625 288.430125 
" style="fill: none; stroke: #000000; stroke-width: 0.8; stroke-linejoin: miter; stroke-linecap: square"/>
   </g>
   <g id="patch_6">
    <path d="M 36.465625 22.318125 
L 393.585625 22.318125 
" style="fill: none; stroke: #000000; stroke-width: 0.8; stroke-linejoin: miter; stroke-linecap: square"/>
   </g>
   <g id="text_19">
    <!-- Fast Flux -->
    <g transform="translate(188.589063 16.318125) scale(0.12 -0.12)">
     <defs>
      <path id="DejaVuSans-46" d="M 628 4666 
L 3309 4666 
L 3309 4134 
L 1259 4134 
L 1259 2759 
L 3109 2759 
L 3109 2228 
L 1259 2228 
L 1259 0 
L 628 0 
L 628 4666 
z
" transform="scale(0.015625)"/>
      <path id="DejaVuSans-61" d="M 2194 1759 
Q 1497 1759 1228 1600 
Q 959 1441 959 1056 
Q 959 750 1161 570 
Q 1363 391 1709 391 
Q 2188 391 2477 730 
Q 2766 1069 2766 1631 
L 2766 1759 
L 2194 1759 
z
M 3341 1997 
L 3341 0 
L 2766 0 
L 2766 531 
Q 2569 213 2275 61 
Q 1981 -91 1556 -91 
Q 1019 -91 701 211 
Q 384 513 384 1019 
Q 384 1609 779 1909 
Q 1175 2209 1959 2209 
L 2766 2209 
L 2766 2266 
Q 2766 2663 2505 2880 
Q 2244 3097 1772 3097 
Q 1472 3097 1187 3025 
Q 903 2953 641 2809 
L 641 3341 
Q 956 3463 1253 3523 
Q 1550 3584 1831 3584 
Q 2591 3584 2966 3190 
Q 3341 2797 3341 1997 
z
" transform="scale(0.015625)"/>
      <path id="DejaVuSans-73" d="M 2834 3397 
L 2834 2853 
Q 2591 2978 2328 3040 
Q 2066 3103 1784 3103 
Q 1356 3103 1142 2972 
Q 928 2841 928 2578 
Q 928 2378 1081 2264 
Q 1234 2150 1697 2047 
L 1894 2003 
Q 2506 1872 2764 1633 
Q 3022 1394 3022 966 
Q 3022 478 2636 193 
Q 2250 -91 1575 -91 
Q 1294 -91 989 -36 
Q 684 19 347 128 
L 347 722 
Q 666 556 975 473 
Q 1284 391 1588 391 
Q 1994 391 2212 530 
Q 2431 669 2431 922 
Q 2431 1156 2273 1281 
Q 2116 1406 1581 1522 
L 1381 1569 
Q 847 1681 609 1914 
Q 372 2147 372 2553 
Q 372 3047 722 3315 
Q 1072 3584 1716 3584 
Q 2034 3584 2315 3537 
Q 2597 3491 2834 3397 
z
" transform="scale(0.015625)"/>
      <path id="DejaVuSans-74" d="M 1172 4494 
L 1172 3500 
L 2356 3500 
L 2356 3053 
L 1172 3053 
L 1172 1153 
Q 1172 725 1289 603 
Q 1406 481 1766 481 
L 2356 481 
L 2356 0 
L 1766 0 
Q 1100 0 847 248 
Q 594 497 594 1153 
L 594 3053 
L 172 3053 
L 172 3500 
L 594 3500 
L 594 4494 
L 1172 4494 
z
" transform="scale(0.015625)"/>
      <path id="DejaVuSans-20" transform="scale(0.015625)"/>
      <path id="DejaVuSans-6c" d="M 603 4863 
L 1178 4863 
L 1178 0 
L 603 0 
L 603 4863 
z
" transform="scale(0.015625)"/>
      <path id="DejaVuSans-75" d="M 544 1381 
L 544 3500 
L 1119 3500 
L 1119 1403 
Q 1119 906 1312 657 
Q 1506 409 1894 409 
Q 2359 409 2629 706 
Q 2900 1003 2900 1516 
L 2900 3500 
L 3475 3500 
L 3475 0 
L 2900 0 
L 2900 538 
Q 2691 219 2414 64 
Q 2138 -91 1772 -91 
Q 1169 -91 856 284 
Q 544 659 544 1381 
z
M 1991 3584 
L 1991 3584 
z
" transform="scale(0.015625)"/>
      <path id="DejaVuSans-78" d="M 3513 3500 
L 2247 1797 
L 3578 0 
L 2900 0 
L 1881 1375 
L 863 0 
L 184 0 
L 1544 1831 
L 300 3500 
L 978 3500 
L 1906 2253 
L 2834 3500 
L 3513 3500 
z
" transform="scale(0.015625)"/>
     </defs>
     <use xlink:href="#DejaVuSans-46"/>
     <use xlink:href="#DejaVuSans-61" x="48.394531"/>
     <use xlink:href="#DejaVuSans-73" x="109.673828"/>
     <use xlink:href="#DejaVuSans-74" x="161.773438"/>
     <use xlink:href="#DejaVuSans-20" x="200.982422"/>
     <use xlink:href="#DejaVuSans-46" x="232.769531"/>
     <use xlink:href="#DejaVuSans-6c" x="290.289062"/>
     <use xlink:href="#DejaVuSans-75" x="318.072266"/>
     <use xlink:href="#DejaVuSans-78" x="381.451172"/>
    </g>
   </g>
  </g>
 </g>
 <defs>
  <clipPath id="p4403ff7523">
   <rect x="36.465625" y="22.318125" width="357.12" height="266.112"/>
  </clipPath>
 </defs>
</svg>
