<?xml version="1.0" encoding="utf-8" standalone="no"?>
<!DOCTYPE svg PUBLIC "-//W3C//DTD SVG 1.1//EN"
  "http://www.w3.org/Graphics/SVG/1.1/DTD/svg11.dtd">
<svg xmlns:xlink="http://www.w3.org/1999/xlink" width="384.8825pt" height="312.30825pt" viewBox="0 0 384.8825 312.30825" xmlns="http://www.w3.org/2000/svg" version="1.1">
 <metadata>
  <rdf:RDF xmlns:dc="http://purl.org/dc/elements/1.1/" xmlns:cc="http://creativecommons.org/ns#" xmlns:rdf="http://www.w3.org/1999/02/22-rdf-syntax-ns#">
   <cc:Work>
    <dc:type rdf:resource="http://purl.org/dc/dcmitype/StillImage"/>
    <dc:date>2024-03-15T12:29:39.588200</dc:date>
    <dc:format>image/svg+xml</dc:format>
    <dc:creator>
     <cc:Agent>
      <dc:title>Matplotlib v3.8.3, https://matplotlib.org/</dc:title>
     </cc:Agent>
    </dc:creator>
   </cc:Work>
  </rdf:RDF>
 </metadata>
 <defs>
  <style type="text/css">*{stroke-linejoin: round; stroke-linecap: butt}</style>
 </defs>
 <g id="figure_1">
  <g id="patch_1">
   <path d="M 0 312.30825 
L 384.8825 312.30825 
L 384.8825 0 
L 0 0 
z
" style="fill: #ffffff"/>
  </g>
  <g id="axes_1">
   <g id="patch_2">
    <path d="M 20.5625 288.430125 
L 377.6825 288.430125 
L 377.6825 22.318125 
L 20.5625 22.318125 
z
" style="fill: #ffffff"/>
   </g>
   <g id="matplotlib.axis_1">
    <g id="xtick_1">
     <g id="line2d_1">
      <defs>
       <path id="mb84344c506" d="M 0 0 
L 0 3.5 
" style="stroke: #000000; stroke-width: 0.8"/>
      </defs>
      <g>
       <use xlink:href="#mb84344c506" x="36.795227" y="288.430125" style="stroke: #000000; stroke-width: 0.8"/>
      </g>
     </g>
     <g id="text_1">
      <!-- 0 -->
      <g transform="translate(33.613977 303.028562) scale(0.1 -0.1)">
       <defs>
        <path id="DejaVuSans-30" d="M 2034 4250 
Q 1547 4250 1301 3770 
Q 1056 3291 1056 2328 
Q 1056 1369 1301 889 
Q 1547 409 2034 409 
Q 2525 409 2770 889 
Q 3016 1369 3016 2328 
Q 3016 3291 2770 3770 
Q 2525 4250 2034 4250 
z
M 2034 4750 
Q 2819 4750 3233 4129 
Q 3647 3509 3647 2328 
Q 3647 1150 3233 529 
Q 2819 -91 2034 -91 
Q 1250 -91 836 529 
Q 422 1150 422 2328 
Q 422 3509 836 4129 
Q 1250 4750 2034 4750 
z
" transform="scale(0.015625)"/>
       </defs>
       <use xlink:href="#DejaVuSans-30"/>
      </g>
     </g>
    </g>
    <g id="xtick_2">
     <g id="line2d_2">
      <g>
       <use xlink:href="#mb84344c506" x="80.314603" y="288.430125" style="stroke: #000000; stroke-width: 0.8"/>
      </g>
     </g>
     <g id="text_2">
      <!-- 50 -->
      <g transform="translate(73.952103 303.028562) scale(0.1 -0.1)">
       <defs>
        <path id="DejaVuSans-35" d="M 691 4666 
L 3169 4666 
L 3169 4134 
L 1269 4134 
L 1269 2991 
Q 1406 3038 1543 3061 
Q 1681 3084 1819 3084 
Q 2600 3084 3056 2656 
Q 3513 2228 3513 1497 
Q 3513 744 3044 326 
Q 2575 -91 1722 -91 
Q 1428 -91 1123 -41 
Q 819 9 494 109 
L 494 744 
Q 775 591 1075 516 
Q 1375 441 1709 441 
Q 2250 441 2565 725 
Q 2881 1009 2881 1497 
Q 2881 1984 2565 2268 
Q 2250 2553 1709 2553 
Q 1456 2553 1204 2497 
Q 953 2441 691 2322 
L 691 4666 
z
" transform="scale(0.015625)"/>
       </defs>
       <use xlink:href="#DejaVuSans-35"/>
       <use xlink:href="#DejaVuSans-30" x="63.623047"/>
      </g>
     </g>
    </g>
    <g id="xtick_3">
     <g id="line2d_3">
      <g>
       <use xlink:href="#mb84344c506" x="123.833979" y="288.430125" style="stroke: #000000; stroke-width: 0.8"/>
      </g>
     </g>
     <g id="text_3">
      <!-- 100 -->
      <g transform="translate(114.290229 303.028562) scale(0.1 -0.1)">
       <defs>
        <path id="DejaVuSans-31" d="M 794 531 
L 1825 531 
L 1825 4091 
L 703 3866 
L 703 4441 
L 1819 4666 
L 2450 4666 
L 2450 531 
L 3481 531 
L 3481 0 
L 794 0 
L 794 531 
z
" transform="scale(0.015625)"/>
       </defs>
       <use xlink:href="#DejaVuSans-31"/>
       <use xlink:href="#DejaVuSans-30" x="63.623047"/>
       <use xlink:href="#DejaVuSans-30" x="127.246094"/>
      </g>
     </g>
    </g>
    <g id="xtick_4">
     <g id="line2d_4">
      <g>
       <use xlink:href="#mb84344c506" x="167.353355" y="288.430125" style="stroke: #000000; stroke-width: 0.8"/>
      </g>
     </g>
     <g id="text_4">
      <!-- 150 -->
      <g transform="translate(157.809605 303.028562) scale(0.1 -0.1)">
       <use xlink:href="#DejaVuSans-31"/>
       <use xlink:href="#DejaVuSans-35" x="63.623047"/>
       <use xlink:href="#DejaVuSans-30" x="127.246094"/>
      </g>
     </g>
    </g>
    <g id="xtick_5">
     <g id="line2d_5">
      <g>
       <use xlink:href="#mb84344c506" x="210.872732" y="288.430125" style="stroke: #000000; stroke-width: 0.8"/>
      </g>
     </g>
     <g id="text_5">
      <!-- 200 -->
      <g transform="translate(201.328982 303.028562) scale(0.1 -0.1)">
       <defs>
        <path id="DejaVuSans-32" d="M 1228 531 
L 3431 531 
L 3431 0 
L 469 0 
L 469 531 
Q 828 903 1448 1529 
Q 2069 2156 2228 2338 
Q 2531 2678 2651 2914 
Q 2772 3150 2772 3378 
Q 2772 3750 2511 3984 
Q 2250 4219 1831 4219 
Q 1534 4219 1204 4116 
Q 875 4013 500 3803 
L 500 4441 
Q 881 4594 1212 4672 
Q 1544 4750 1819 4750 
Q 2544 4750 2975 4387 
Q 3406 4025 3406 3419 
Q 3406 3131 3298 2873 
Q 3191 2616 2906 2266 
Q 2828 2175 2409 1742 
Q 1991 1309 1228 531 
z
" transform="scale(0.015625)"/>
       </defs>
       <use xlink:href="#DejaVuSans-32"/>
       <use xlink:href="#DejaVuSans-30" x="63.623047"/>
       <use xlink:href="#DejaVuSans-30" x="127.246094"/>
      </g>
     </g>
    </g>
    <g id="xtick_6">
     <g id="line2d_6">
      <g>
       <use xlink:href="#mb84344c506" x="254.392108" y="288.430125" style="stroke: #000000; stroke-width: 0.8"/>
      </g>
     </g>
     <g id="text_6">
      <!-- 250 -->
      <g transform="translate(244.848358 303.028562) scale(0.1 -0.1)">
       <use xlink:href="#DejaVuSans-32"/>
       <use xlink:href="#DejaVuSans-35" x="63.623047"/>
       <use xlink:href="#DejaVuSans-30" x="127.246094"/>
      </g>
     </g>
    </g>
    <g id="xtick_7">
     <g id="line2d_7">
      <g>
       <use xlink:href="#mb84344c506" x="297.911484" y="288.430125" style="stroke: #000000; stroke-width: 0.8"/>
      </g>
     </g>
     <g id="text_7">
      <!-- 300 -->
      <g transform="translate(288.367734 303.028562) scale(0.1 -0.1)">
       <defs>
        <path id="DejaVuSans-33" d="M 2597 2516 
Q 3050 2419 3304 2112 
Q 3559 1806 3559 1356 
Q 3559 666 3084 287 
Q 2609 -91 1734 -91 
Q 1441 -91 1130 -33 
Q 819 25 488 141 
L 488 750 
Q 750 597 1062 519 
Q 1375 441 1716 441 
Q 2309 441 2620 675 
Q 2931 909 2931 1356 
Q 2931 1769 2642 2001 
Q 2353 2234 1838 2234 
L 1294 2234 
L 1294 2753 
L 1863 2753 
Q 2328 2753 2575 2939 
Q 2822 3125 2822 3475 
Q 2822 3834 2567 4026 
Q 2313 4219 1838 4219 
Q 1578 4219 1281 4162 
Q 984 4106 628 3988 
L 628 4550 
Q 988 4650 1302 4700 
Q 1616 4750 1894 4750 
Q 2613 4750 3031 4423 
Q 3450 4097 3450 3541 
Q 3450 3153 3228 2886 
Q 3006 2619 2597 2516 
z
" transform="scale(0.015625)"/>
       </defs>
       <use xlink:href="#DejaVuSans-33"/>
       <use xlink:href="#DejaVuSans-30" x="63.623047"/>
       <use xlink:href="#DejaVuSans-30" x="127.246094"/>
      </g>
     </g>
    </g>
    <g id="xtick_8">
     <g id="line2d_8">
      <g>
       <use xlink:href="#mb84344c506" x="341.43086" y="288.430125" style="stroke: #000000; stroke-width: 0.8"/>
      </g>
     </g>
     <g id="text_8">
      <!-- 350 -->
      <g transform="translate(331.88711 303.028562) scale(0.1 -0.1)">
       <use xlink:href="#DejaVuSans-33"/>
       <use xlink:href="#DejaVuSans-35" x="63.623047"/>
       <use xlink:href="#DejaVuSans-30" x="127.246094"/>
      </g>
     </g>
    </g>
   </g>
   <g id="matplotlib.axis_2">
    <g id="ytick_1">
     <g id="line2d_9">
      <defs>
       <path id="m0a7967c3df" d="M 0 0 
L -3.5 0 
" style="stroke: #000000; stroke-width: 0.8"/>
      </defs>
      <g>
       <use xlink:href="#m0a7967c3df" x="20.5625" y="276.334125" style="stroke: #000000; stroke-width: 0.8"/>
      </g>
     </g>
     <g id="text_9">
      <!-- 0 -->
      <g transform="translate(7.2 280.133344) scale(0.1 -0.1)">
       <use xlink:href="#DejaVuSans-30"/>
      </g>
     </g>
    </g>
    <g id="ytick_2">
     <g id="line2d_10">
      <g>
       <use xlink:href="#m0a7967c3df" x="20.5625" y="219.379736" style="stroke: #000000; stroke-width: 0.8"/>
      </g>
     </g>
     <g id="text_10">
      <!-- 1 -->
      <g transform="translate(7.2 223.178955) scale(0.1 -0.1)">
       <use xlink:href="#DejaVuSans-31"/>
      </g>
     </g>
    </g>
    <g id="ytick_3">
     <g id="line2d_11">
      <g>
       <use xlink:href="#m0a7967c3df" x="20.5625" y="162.425347" style="stroke: #000000; stroke-width: 0.8"/>
      </g>
     </g>
     <g id="text_11">
      <!-- 2 -->
      <g transform="translate(7.2 166.224566) scale(0.1 -0.1)">
       <use xlink:href="#DejaVuSans-32"/>
      </g>
     </g>
    </g>
    <g id="ytick_4">
     <g id="line2d_12">
      <g>
       <use xlink:href="#m0a7967c3df" x="20.5625" y="105.470959" style="stroke: #000000; stroke-width: 0.8"/>
      </g>
     </g>
     <g id="text_12">
      <!-- 3 -->
      <g transform="translate(7.2 109.270177) scale(0.1 -0.1)">
       <use xlink:href="#DejaVuSans-33"/>
      </g>
     </g>
    </g>
    <g id="ytick_5">
     <g id="line2d_13">
      <g>
       <use xlink:href="#m0a7967c3df" x="20.5625" y="48.51657" style="stroke: #000000; stroke-width: 0.8"/>
      </g>
     </g>
     <g id="text_13">
      <!-- 4 -->
      <g transform="translate(7.2 52.315789) scale(0.1 -0.1)">
       <defs>
        <path id="DejaVuSans-34" d="M 2419 4116 
L 825 1625 
L 2419 1625 
L 2419 4116 
z
M 2253 4666 
L 3047 4666 
L 3047 1625 
L 3713 1625 
L 3713 1100 
L 3047 1100 
L 3047 0 
L 2419 0 
L 2419 1100 
L 313 1100 
L 313 1709 
L 2253 4666 
z
" transform="scale(0.015625)"/>
       </defs>
       <use xlink:href="#DejaVuSans-34"/>
      </g>
     </g>
    </g>
   </g>
   <g id="line2d_14">
    <path d="M 36.795227 276.334125 
L 47.239878 276.334125 
L 48.110265 52.698914 
L 48.980653 110.814618 
L 49.85104 123.232534 
L 50.721428 131.53598 
L 51.591815 131.41819 
L 52.462203 136.717976 
L 53.33259 158.846713 
L 54.202978 276.334125 
L 56.81414 276.334125 
L 57.684528 37.039233 
L 58.554915 108.751037 
L 59.425303 125.898707 
L 60.29569 128.357659 
L 61.166078 126.609733 
L 62.036465 133.130227 
L 62.906853 154.926236 
L 63.77724 276.334125 
L 66.388403 276.334125 
L 67.258791 72.227626 
L 68.129178 116.094866 
L 68.999566 125.634284 
L 69.869953 129.334148 
L 70.740341 133.714701 
L 71.610728 137.447157 
L 72.481116 162.912896 
L 73.351503 276.334125 
L 75.962666 276.334125 
L 76.833053 48.641108 
L 77.703441 110.019612 
L 78.573828 126.06942 
L 79.444216 133.964873 
L 80.314603 137.483313 
L 81.184991 139.688526 
L 82.055378 159.585728 
L 82.925766 276.334125 
L 85.536928 276.334125 
L 86.407316 59.640791 
L 87.277704 99.748395 
L 89.018479 123.72224 
L 89.888866 128.828719 
L 90.759254 134.884163 
L 91.629641 157.387027 
L 92.500029 276.334125 
L 95.111191 276.334125 
L 95.981579 38.404132 
L 96.851966 100.334853 
L 97.722354 115.501622 
L 98.592741 121.885685 
L 99.463129 122.980737 
L 100.333516 122.801603 
L 101.203904 145.934951 
L 102.074291 276.334125 
L 104.685454 276.334125 
L 105.555841 61.367811 
L 106.426229 120.545228 
L 107.296617 132.79036 
L 108.167004 138.423856 
L 109.037392 139.984498 
L 109.907779 146.516269 
L 110.778167 169.482011 
L 111.648554 276.334125 
L 114.259717 276.334125 
L 115.130104 38.965103 
L 116.000492 111.329988 
L 116.870879 126.296598 
L 117.741267 131.949253 
L 118.611654 135.051779 
L 119.482042 141.956832 
L 120.352429 164.420738 
L 121.222817 276.334125 
L 123.833979 276.334125 
L 124.704367 47.270894 
L 125.574754 105.054526 
L 126.445142 123.547436 
L 127.315529 125.363667 
L 128.185917 131.8904 
L 129.056305 135.886929 
L 129.926692 157.282256 
L 130.79708 276.334125 
L 133.408242 276.334125 
L 134.27863 47.154023 
L 135.149017 108.311212 
L 136.019405 122.81497 
L 136.889792 127.095944 
L 138.630567 138.156418 
L 139.500955 158.356371 
L 140.371342 276.334125 
L 142.982505 276.334125 
L 143.852892 53.975832 
L 144.72328 113.522152 
L 145.593667 125.926022 
L 146.464055 134.26564 
L 147.334442 143.792702 
L 148.20483 151.837149 
L 149.075218 171.789868 
L 149.945605 276.334125 
L 152.556768 276.334125 
L 153.427155 66.297607 
L 154.297543 110.123289 
L 155.16793 132.318954 
L 156.038318 134.129194 
L 156.908705 135.283904 
L 157.779093 137.92423 
L 158.64948 159.449246 
L 159.519868 276.334125 
L 162.13103 276.334125 
L 163.001418 61.22221 
L 163.871805 119.436506 
L 164.742193 128.082308 
L 165.61258 133.63044 
L 166.482968 136.359351 
L 167.353355 136.265894 
L 168.223743 158.106566 
L 169.094131 276.334125 
L 171.705293 276.334125 
L 172.575681 49.383171 
L 173.446068 103.60635 
L 174.316456 110.35645 
L 175.186843 124.704751 
L 176.057231 133.882964 
L 176.927618 136.570247 
L 177.798006 155.185499 
L 178.668393 276.334125 
L 181.279556 276.334125 
L 182.149943 37.421568 
L 183.020331 97.383116 
L 183.890718 110.989373 
L 184.761106 120.597082 
L 185.631493 124.822348 
L 186.501881 137.715986 
L 187.372268 159.530177 
L 188.242656 276.334125 
L 190.853819 276.334125 
L 191.724206 53.419517 
L 192.594594 107.168568 
L 193.464981 116.994007 
L 194.335369 119.464749 
L 195.205756 120.417707 
L 196.076144 129.918464 
L 196.946531 152.065573 
L 197.816919 276.334125 
L 200.428081 276.334125 
L 201.298469 64.115712 
L 202.168856 121.756781 
L 203.039244 129.225045 
L 203.909631 131.568724 
L 204.780019 132.587649 
L 205.650406 140.469627 
L 206.520794 161.257216 
L 207.391181 276.334125 
L 210.002344 276.334125 
L 210.872732 34.414125 
L 211.743119 92.606074 
L 212.613507 108.754387 
L 213.483894 119.732244 
L 214.354282 123.353819 
L 215.224669 122.538837 
L 216.095057 145.722951 
L 216.965444 276.334125 
L 219.576607 276.334125 
L 220.446994 55.841495 
L 221.317382 114.905651 
L 222.187769 122.028089 
L 223.058157 124.209458 
L 223.928544 129.406182 
L 224.798932 139.234419 
L 225.669319 163.095515 
L 226.539707 276.334125 
L 229.150869 276.334125 
L 230.021257 70.887284 
L 230.891645 118.189004 
L 231.762032 131.150215 
L 232.63242 134.880657 
L 233.502807 137.122683 
L 234.373195 145.442742 
L 235.243582 165.250011 
L 236.11397 276.334125 
L 238.725132 276.334125 
L 239.59552 61.535004 
L 240.465907 107.55807 
L 241.336295 126.090857 
L 242.206682 134.721293 
L 243.07707 140.897102 
L 243.947457 141.741822 
L 244.817845 161.857921 
L 245.688232 276.334125 
L 248.299395 276.334125 
L 249.169782 75.516747 
L 250.04017 117.077297 
L 250.910558 127.960601 
L 251.780945 123.338466 
L 252.651333 131.971793 
L 253.52172 139.150931 
L 254.392108 158.934196 
L 255.262495 276.334125 
L 257.873658 276.334125 
L 258.744045 38.16195 
L 259.614433 102.659745 
L 260.48482 114.512125 
L 261.355208 118.055826 
L 263.095983 132.331748 
L 263.96637 155.441257 
L 264.836758 276.334125 
L 267.44792 276.334125 
L 268.318308 50.52198 
L 269.188695 114.139907 
L 270.059083 118.131798 
L 271.799858 128.031716 
L 272.670246 137.605838 
L 273.540633 160.195569 
L 274.411021 276.334125 
L 277.022183 276.334125 
L 277.892571 56.657961 
L 278.762958 114.287173 
L 279.633346 129.063542 
L 280.503733 133.938777 
L 281.374121 136.080941 
L 282.244508 140.39175 
L 283.114896 162.289999 
L 283.985283 276.334125 
L 286.596446 276.334125 
L 287.466833 58.859974 
L 288.337221 114.553272 
L 289.207608 131.322928 
L 290.077996 137.288031 
L 290.948383 138.675029 
L 291.818771 147.705194 
L 292.689159 166.784133 
L 293.559546 276.334125 
L 296.170709 276.334125 
L 297.041096 43.625552 
L 297.911484 117.01007 
L 298.781871 128.519484 
L 299.652259 130.145615 
L 300.522646 134.836882 
L 301.393034 141.814025 
L 302.263421 164.721846 
L 303.133809 276.334125 
L 305.744971 276.334125 
L 306.615359 58.544163 
L 307.485746 107.147637 
L 308.356134 113.854111 
L 309.226521 125.097825 
L 310.096909 127.500108 
L 310.967296 130.609336 
L 311.837684 152.72045 
L 312.708072 276.334125 
L 315.319234 276.334125 
L 316.189622 55.355598 
L 317.060009 108.037861 
L 317.930397 124.066528 
L 318.800784 128.238927 
L 319.671172 132.997824 
L 320.541559 142.331316 
L 321.411947 161.076182 
L 322.282334 276.334125 
L 324.893497 276.334125 
L 325.763884 67.252015 
L 326.634272 116.4905 
L 327.504659 126.523094 
L 328.375047 133.82004 
L 329.245434 133.431859 
L 330.115822 138.077117 
L 330.986209 158.796069 
L 331.856597 276.334125 
L 334.46776 276.334125 
L 335.338147 48.601975 
L 336.208535 98.56746 
L 337.078922 118.286864 
L 337.94931 125.02488 
L 338.819697 128.640164 
L 339.690085 140.335362 
L 340.560472 161.991217 
L 341.43086 276.334125 
L 344.042022 276.334125 
L 344.91241 63.885368 
L 345.782797 116.626661 
L 346.653185 128.258503 
L 347.523572 124.789435 
L 348.39396 127.495292 
L 349.264347 136.987831 
L 350.134735 159.353206 
L 351.005122 276.334125 
L 353.616285 276.334125 
L 354.486673 45.277695 
L 355.35706 104.024324 
L 356.227448 124.53579 
L 357.097835 136.30883 
L 357.968223 136.902631 
L 358.83861 135.840834 
L 359.708998 159.917572 
L 360.579385 276.334125 
L 361.449773 276.334125 
L 361.449773 276.334125 
" clip-path="url(#pf5ea3b76d8)" style="fill: none; stroke: #1f77b4; stroke-width: 1.5; stroke-linecap: square"/>
   </g>
   <g id="patch_3">
    <path d="M 20.5625 288.430125 
L 20.5625 22.318125 
" style="fill: none; stroke: #000000; stroke-width: 0.8; stroke-linejoin: miter; stroke-linecap: square"/>
   </g>
   <g id="patch_4">
    <path d="M 377.6825 288.430125 
L 377.6825 22.318125 
" style="fill: none; stroke: #000000; stroke-width: 0.8; stroke-linejoin: miter; stroke-linecap: square"/>
   </g>
   <g id="patch_5">
    <path d="M 20.5625 288.430125 
L 377.6825 288.430125 
" style="fill: none; stroke: #000000; stroke-width: 0.8; stroke-linejoin: miter; stroke-linecap: square"/>
   </g>
   <g id="patch_6">
    <path d="M 20.5625 22.318125 
L 377.6825 22.318125 
" style="fill: none; stroke: #000000; stroke-width: 0.8; stroke-linejoin: miter; stroke-linecap: square"/>
   </g>
   <g id="text_14">
    <!-- Fission Density -->
    <g transform="translate(154.330625 16.318125) scale(0.12 -0.12)">
     <defs>
      <path id="DejaVuSans-46" d="M 628 4666 
L 3309 4666 
L 3309 4134 
L 1259 4134 
L 1259 2759 
L 3109 2759 
L 3109 2228 
L 1259 2228 
L 1259 0 
L 628 0 
L 628 4666 
z
" transform="scale(0.015625)"/>
      <path id="DejaVuSans-69" d="M 603 3500 
L 1178 3500 
L 1178 0 
L 603 0 
L 603 3500 
z
M 603 4863 
L 1178 4863 
L 1178 4134 
L 603 4134 
L 603 4863 
z
" transform="scale(0.015625)"/>
      <path id="DejaVuSans-73" d="M 2834 3397 
L 2834 2853 
Q 2591 2978 2328 3040 
Q 2066 3103 1784 3103 
Q 1356 3103 1142 2972 
Q 928 2841 928 2578 
Q 928 2378 1081 2264 
Q 1234 2150 1697 2047 
L 1894 2003 
Q 2506 1872 2764 1633 
Q 3022 1394 3022 966 
Q 3022 478 2636 193 
Q 2250 -91 1575 -91 
Q 1294 -91 989 -36 
Q 684 19 347 128 
L 347 722 
Q 666 556 975 473 
Q 1284 391 1588 391 
Q 1994 391 2212 530 
Q 2431 669 2431 922 
Q 2431 1156 2273 1281 
Q 2116 1406 1581 1522 
L 1381 1569 
Q 847 1681 609 1914 
Q 372 2147 372 2553 
Q 372 3047 722 3315 
Q 1072 3584 1716 3584 
Q 2034 3584 2315 3537 
Q 2597 3491 2834 3397 
z
" transform="scale(0.015625)"/>
      <path id="DejaVuSans-6f" d="M 1959 3097 
Q 1497 3097 1228 2736 
Q 959 2375 959 1747 
Q 959 1119 1226 758 
Q 1494 397 1959 397 
Q 2419 397 2687 759 
Q 2956 1122 2956 1747 
Q 2956 2369 2687 2733 
Q 2419 3097 1959 3097 
z
M 1959 3584 
Q 2709 3584 3137 3096 
Q 3566 2609 3566 1747 
Q 3566 888 3137 398 
Q 2709 -91 1959 -91 
Q 1206 -91 779 398 
Q 353 888 353 1747 
Q 353 2609 779 3096 
Q 1206 3584 1959 3584 
z
" transform="scale(0.015625)"/>
      <path id="DejaVuSans-6e" d="M 3513 2113 
L 3513 0 
L 2938 0 
L 2938 2094 
Q 2938 2591 2744 2837 
Q 2550 3084 2163 3084 
Q 1697 3084 1428 2787 
Q 1159 2491 1159 1978 
L 1159 0 
L 581 0 
L 581 3500 
L 1159 3500 
L 1159 2956 
Q 1366 3272 1645 3428 
Q 1925 3584 2291 3584 
Q 2894 3584 3203 3211 
Q 3513 2838 3513 2113 
z
" transform="scale(0.015625)"/>
      <path id="DejaVuSans-20" transform="scale(0.015625)"/>
      <path id="DejaVuSans-44" d="M 1259 4147 
L 1259 519 
L 2022 519 
Q 2988 519 3436 956 
Q 3884 1394 3884 2338 
Q 3884 3275 3436 3711 
Q 2988 4147 2022 4147 
L 1259 4147 
z
M 628 4666 
L 1925 4666 
Q 3281 4666 3915 4102 
Q 4550 3538 4550 2338 
Q 4550 1131 3912 565 
Q 3275 0 1925 0 
L 628 0 
L 628 4666 
z
" transform="scale(0.015625)"/>
      <path id="DejaVuSans-65" d="M 3597 1894 
L 3597 1613 
L 953 1613 
Q 991 1019 1311 708 
Q 1631 397 2203 397 
Q 2534 397 2845 478 
Q 3156 559 3463 722 
L 3463 178 
Q 3153 47 2828 -22 
Q 2503 -91 2169 -91 
Q 1331 -91 842 396 
Q 353 884 353 1716 
Q 353 2575 817 3079 
Q 1281 3584 2069 3584 
Q 2775 3584 3186 3129 
Q 3597 2675 3597 1894 
z
M 3022 2063 
Q 3016 2534 2758 2815 
Q 2500 3097 2075 3097 
Q 1594 3097 1305 2825 
Q 1016 2553 972 2059 
L 3022 2063 
z
" transform="scale(0.015625)"/>
      <path id="DejaVuSans-74" d="M 1172 4494 
L 1172 3500 
L 2356 3500 
L 2356 3053 
L 1172 3053 
L 1172 1153 
Q 1172 725 1289 603 
Q 1406 481 1766 481 
L 2356 481 
L 2356 0 
L 1766 0 
Q 1100 0 847 248 
Q 594 497 594 1153 
L 594 3053 
L 172 3053 
L 172 3500 
L 594 3500 
L 594 4494 
L 1172 4494 
z
" transform="scale(0.015625)"/>
      <path id="DejaVuSans-79" d="M 2059 -325 
Q 1816 -950 1584 -1140 
Q 1353 -1331 966 -1331 
L 506 -1331 
L 506 -850 
L 844 -850 
Q 1081 -850 1212 -737 
Q 1344 -625 1503 -206 
L 1606 56 
L 191 3500 
L 800 3500 
L 1894 763 
L 2988 3500 
L 3597 3500 
L 2059 -325 
z
" transform="scale(0.015625)"/>
     </defs>
     <use xlink:href="#DejaVuSans-46"/>
     <use xlink:href="#DejaVuSans-69" x="50.269531"/>
     <use xlink:href="#DejaVuSans-73" x="78.052734"/>
     <use xlink:href="#DejaVuSans-73" x="130.152344"/>
     <use xlink:href="#DejaVuSans-69" x="182.251953"/>
     <use xlink:href="#DejaVuSans-6f" x="210.035156"/>
     <use xlink:href="#DejaVuSans-6e" x="271.216797"/>
     <use xlink:href="#DejaVuSans-20" x="334.595703"/>
     <use xlink:href="#DejaVuSans-44" x="366.382812"/>
     <use xlink:href="#DejaVuSans-65" x="443.384766"/>
     <use xlink:href="#DejaVuSans-6e" x="504.908203"/>
     <use xlink:href="#DejaVuSans-73" x="568.287109"/>
     <use xlink:href="#DejaVuSans-69" x="620.386719"/>
     <use xlink:href="#DejaVuSans-74" x="648.169922"/>
     <use xlink:href="#DejaVuSans-79" x="687.378906"/>
    </g>
   </g>
  </g>
 </g>
 <defs>
  <clipPath id="pf5ea3b76d8">
   <rect x="20.5625" y="22.318125" width="357.12" height="266.112"/>
  </clipPath>
 </defs>
</svg>
