<?xml version="1.0" encoding="utf-8" standalone="no"?>
<!DOCTYPE svg PUBLIC "-//W3C//DTD SVG 1.1//EN"
  "http://www.w3.org/Graphics/SVG/1.1/DTD/svg11.dtd">
<svg xmlns:xlink="http://www.w3.org/1999/xlink" width="394.423125pt" height="312.30825pt" viewBox="0 0 394.423125 312.30825" xmlns="http://www.w3.org/2000/svg" version="1.1">
 <metadata>
  <rdf:RDF xmlns:dc="http://purl.org/dc/elements/1.1/" xmlns:cc="http://creativecommons.org/ns#" xmlns:rdf="http://www.w3.org/1999/02/22-rdf-syntax-ns#">
   <cc:Work>
    <dc:type rdf:resource="http://purl.org/dc/dcmitype/StillImage"/>
    <dc:date>2024-03-17T11:31:58.584930</dc:date>
    <dc:format>image/svg+xml</dc:format>
    <dc:creator>
     <cc:Agent>
      <dc:title>Matplotlib v3.8.3, https://matplotlib.org/</dc:title>
     </cc:Agent>
    </dc:creator>
   </cc:Work>
  </rdf:RDF>
 </metadata>
 <defs>
  <style type="text/css">*{stroke-linejoin: round; stroke-linecap: butt}</style>
 </defs>
 <g id="figure_1">
  <g id="patch_1">
   <path d="M 0 312.30825 
L 394.423125 312.30825 
L 394.423125 0 
L 0 0 
z
" style="fill: #ffffff"/>
  </g>
  <g id="axes_1">
   <g id="patch_2">
    <path d="M 30.103125 288.430125 
L 387.223125 288.430125 
L 387.223125 22.318125 
L 30.103125 22.318125 
z
" style="fill: #ffffff"/>
   </g>
   <g id="matplotlib.axis_1">
    <g id="xtick_1">
     <g id="line2d_1">
      <defs>
       <path id="m7de5f7b649" d="M 0 0 
L 0 3.5 
" style="stroke: #000000; stroke-width: 0.8"/>
      </defs>
      <g>
       <use xlink:href="#m7de5f7b649" x="30.103125" y="288.430125" style="stroke: #000000; stroke-width: 0.8"/>
      </g>
     </g>
     <g id="text_1">
      <!-- 0 -->
      <g transform="translate(26.921875 303.028562) scale(0.1 -0.1)">
       <defs>
        <path id="DejaVuSans-30" d="M 2034 4250 
Q 1547 4250 1301 3770 
Q 1056 3291 1056 2328 
Q 1056 1369 1301 889 
Q 1547 409 2034 409 
Q 2525 409 2770 889 
Q 3016 1369 3016 2328 
Q 3016 3291 2770 3770 
Q 2525 4250 2034 4250 
z
M 2034 4750 
Q 2819 4750 3233 4129 
Q 3647 3509 3647 2328 
Q 3647 1150 3233 529 
Q 2819 -91 2034 -91 
Q 1250 -91 836 529 
Q 422 1150 422 2328 
Q 422 3509 836 4129 
Q 1250 4750 2034 4750 
z
" transform="scale(0.015625)"/>
       </defs>
       <use xlink:href="#DejaVuSans-30"/>
      </g>
     </g>
    </g>
    <g id="xtick_2">
     <g id="line2d_2">
      <g>
       <use xlink:href="#m7de5f7b649" x="71.385715" y="288.430125" style="stroke: #000000; stroke-width: 0.8"/>
      </g>
     </g>
     <g id="text_2">
      <!-- 10 -->
      <g transform="translate(65.023215 303.028562) scale(0.1 -0.1)">
       <defs>
        <path id="DejaVuSans-31" d="M 794 531 
L 1825 531 
L 1825 4091 
L 703 3866 
L 703 4441 
L 1819 4666 
L 2450 4666 
L 2450 531 
L 3481 531 
L 3481 0 
L 794 0 
L 794 531 
z
" transform="scale(0.015625)"/>
       </defs>
       <use xlink:href="#DejaVuSans-31"/>
       <use xlink:href="#DejaVuSans-30" x="63.623047"/>
      </g>
     </g>
    </g>
    <g id="xtick_3">
     <g id="line2d_3">
      <g>
       <use xlink:href="#m7de5f7b649" x="112.668305" y="288.430125" style="stroke: #000000; stroke-width: 0.8"/>
      </g>
     </g>
     <g id="text_3">
      <!-- 20 -->
      <g transform="translate(106.305805 303.028562) scale(0.1 -0.1)">
       <defs>
        <path id="DejaVuSans-32" d="M 1228 531 
L 3431 531 
L 3431 0 
L 469 0 
L 469 531 
Q 828 903 1448 1529 
Q 2069 2156 2228 2338 
Q 2531 2678 2651 2914 
Q 2772 3150 2772 3378 
Q 2772 3750 2511 3984 
Q 2250 4219 1831 4219 
Q 1534 4219 1204 4116 
Q 875 4013 500 3803 
L 500 4441 
Q 881 4594 1212 4672 
Q 1544 4750 1819 4750 
Q 2544 4750 2975 4387 
Q 3406 4025 3406 3419 
Q 3406 3131 3298 2873 
Q 3191 2616 2906 2266 
Q 2828 2175 2409 1742 
Q 1991 1309 1228 531 
z
" transform="scale(0.015625)"/>
       </defs>
       <use xlink:href="#DejaVuSans-32"/>
       <use xlink:href="#DejaVuSans-30" x="63.623047"/>
      </g>
     </g>
    </g>
    <g id="xtick_4">
     <g id="line2d_4">
      <g>
       <use xlink:href="#m7de5f7b649" x="153.950895" y="288.430125" style="stroke: #000000; stroke-width: 0.8"/>
      </g>
     </g>
     <g id="text_4">
      <!-- 30 -->
      <g transform="translate(147.588395 303.028562) scale(0.1 -0.1)">
       <defs>
        <path id="DejaVuSans-33" d="M 2597 2516 
Q 3050 2419 3304 2112 
Q 3559 1806 3559 1356 
Q 3559 666 3084 287 
Q 2609 -91 1734 -91 
Q 1441 -91 1130 -33 
Q 819 25 488 141 
L 488 750 
Q 750 597 1062 519 
Q 1375 441 1716 441 
Q 2309 441 2620 675 
Q 2931 909 2931 1356 
Q 2931 1769 2642 2001 
Q 2353 2234 1838 2234 
L 1294 2234 
L 1294 2753 
L 1863 2753 
Q 2328 2753 2575 2939 
Q 2822 3125 2822 3475 
Q 2822 3834 2567 4026 
Q 2313 4219 1838 4219 
Q 1578 4219 1281 4162 
Q 984 4106 628 3988 
L 628 4550 
Q 988 4650 1302 4700 
Q 1616 4750 1894 4750 
Q 2613 4750 3031 4423 
Q 3450 4097 3450 3541 
Q 3450 3153 3228 2886 
Q 3006 2619 2597 2516 
z
" transform="scale(0.015625)"/>
       </defs>
       <use xlink:href="#DejaVuSans-33"/>
       <use xlink:href="#DejaVuSans-30" x="63.623047"/>
      </g>
     </g>
    </g>
    <g id="xtick_5">
     <g id="line2d_5">
      <g>
       <use xlink:href="#m7de5f7b649" x="195.233486" y="288.430125" style="stroke: #000000; stroke-width: 0.8"/>
      </g>
     </g>
     <g id="text_5">
      <!-- 40 -->
      <g transform="translate(188.870986 303.028562) scale(0.1 -0.1)">
       <defs>
        <path id="DejaVuSans-34" d="M 2419 4116 
L 825 1625 
L 2419 1625 
L 2419 4116 
z
M 2253 4666 
L 3047 4666 
L 3047 1625 
L 3713 1625 
L 3713 1100 
L 3047 1100 
L 3047 0 
L 2419 0 
L 2419 1100 
L 313 1100 
L 313 1709 
L 2253 4666 
z
" transform="scale(0.015625)"/>
       </defs>
       <use xlink:href="#DejaVuSans-34"/>
       <use xlink:href="#DejaVuSans-30" x="63.623047"/>
      </g>
     </g>
    </g>
    <g id="xtick_6">
     <g id="line2d_6">
      <g>
       <use xlink:href="#m7de5f7b649" x="236.516076" y="288.430125" style="stroke: #000000; stroke-width: 0.8"/>
      </g>
     </g>
     <g id="text_6">
      <!-- 50 -->
      <g transform="translate(230.153576 303.028562) scale(0.1 -0.1)">
       <defs>
        <path id="DejaVuSans-35" d="M 691 4666 
L 3169 4666 
L 3169 4134 
L 1269 4134 
L 1269 2991 
Q 1406 3038 1543 3061 
Q 1681 3084 1819 3084 
Q 2600 3084 3056 2656 
Q 3513 2228 3513 1497 
Q 3513 744 3044 326 
Q 2575 -91 1722 -91 
Q 1428 -91 1123 -41 
Q 819 9 494 109 
L 494 744 
Q 775 591 1075 516 
Q 1375 441 1709 441 
Q 2250 441 2565 725 
Q 2881 1009 2881 1497 
Q 2881 1984 2565 2268 
Q 2250 2553 1709 2553 
Q 1456 2553 1204 2497 
Q 953 2441 691 2322 
L 691 4666 
z
" transform="scale(0.015625)"/>
       </defs>
       <use xlink:href="#DejaVuSans-35"/>
       <use xlink:href="#DejaVuSans-30" x="63.623047"/>
      </g>
     </g>
    </g>
    <g id="xtick_7">
     <g id="line2d_7">
      <g>
       <use xlink:href="#m7de5f7b649" x="277.798666" y="288.430125" style="stroke: #000000; stroke-width: 0.8"/>
      </g>
     </g>
     <g id="text_7">
      <!-- 60 -->
      <g transform="translate(271.436166 303.028562) scale(0.1 -0.1)">
       <defs>
        <path id="DejaVuSans-36" d="M 2113 2584 
Q 1688 2584 1439 2293 
Q 1191 2003 1191 1497 
Q 1191 994 1439 701 
Q 1688 409 2113 409 
Q 2538 409 2786 701 
Q 3034 994 3034 1497 
Q 3034 2003 2786 2293 
Q 2538 2584 2113 2584 
z
M 3366 4563 
L 3366 3988 
Q 3128 4100 2886 4159 
Q 2644 4219 2406 4219 
Q 1781 4219 1451 3797 
Q 1122 3375 1075 2522 
Q 1259 2794 1537 2939 
Q 1816 3084 2150 3084 
Q 2853 3084 3261 2657 
Q 3669 2231 3669 1497 
Q 3669 778 3244 343 
Q 2819 -91 2113 -91 
Q 1303 -91 875 529 
Q 447 1150 447 2328 
Q 447 3434 972 4092 
Q 1497 4750 2381 4750 
Q 2619 4750 2861 4703 
Q 3103 4656 3366 4563 
z
" transform="scale(0.015625)"/>
       </defs>
       <use xlink:href="#DejaVuSans-36"/>
       <use xlink:href="#DejaVuSans-30" x="63.623047"/>
      </g>
     </g>
    </g>
    <g id="xtick_8">
     <g id="line2d_8">
      <g>
       <use xlink:href="#m7de5f7b649" x="319.081256" y="288.430125" style="stroke: #000000; stroke-width: 0.8"/>
      </g>
     </g>
     <g id="text_8">
      <!-- 70 -->
      <g transform="translate(312.718756 303.028562) scale(0.1 -0.1)">
       <defs>
        <path id="DejaVuSans-37" d="M 525 4666 
L 3525 4666 
L 3525 4397 
L 1831 0 
L 1172 0 
L 2766 4134 
L 525 4134 
L 525 4666 
z
" transform="scale(0.015625)"/>
       </defs>
       <use xlink:href="#DejaVuSans-37"/>
       <use xlink:href="#DejaVuSans-30" x="63.623047"/>
      </g>
     </g>
    </g>
    <g id="xtick_9">
     <g id="line2d_9">
      <g>
       <use xlink:href="#m7de5f7b649" x="360.363846" y="288.430125" style="stroke: #000000; stroke-width: 0.8"/>
      </g>
     </g>
     <g id="text_9">
      <!-- 80 -->
      <g transform="translate(354.001346 303.028562) scale(0.1 -0.1)">
       <defs>
        <path id="DejaVuSans-38" d="M 2034 2216 
Q 1584 2216 1326 1975 
Q 1069 1734 1069 1313 
Q 1069 891 1326 650 
Q 1584 409 2034 409 
Q 2484 409 2743 651 
Q 3003 894 3003 1313 
Q 3003 1734 2745 1975 
Q 2488 2216 2034 2216 
z
M 1403 2484 
Q 997 2584 770 2862 
Q 544 3141 544 3541 
Q 544 4100 942 4425 
Q 1341 4750 2034 4750 
Q 2731 4750 3128 4425 
Q 3525 4100 3525 3541 
Q 3525 3141 3298 2862 
Q 3072 2584 2669 2484 
Q 3125 2378 3379 2068 
Q 3634 1759 3634 1313 
Q 3634 634 3220 271 
Q 2806 -91 2034 -91 
Q 1263 -91 848 271 
Q 434 634 434 1313 
Q 434 1759 690 2068 
Q 947 2378 1403 2484 
z
M 1172 3481 
Q 1172 3119 1398 2916 
Q 1625 2713 2034 2713 
Q 2441 2713 2670 2916 
Q 2900 3119 2900 3481 
Q 2900 3844 2670 4047 
Q 2441 4250 2034 4250 
Q 1625 4250 1398 4047 
Q 1172 3844 1172 3481 
z
" transform="scale(0.015625)"/>
       </defs>
       <use xlink:href="#DejaVuSans-38"/>
       <use xlink:href="#DejaVuSans-30" x="63.623047"/>
      </g>
     </g>
    </g>
   </g>
   <g id="matplotlib.axis_2">
    <g id="ytick_1">
     <g id="line2d_10">
      <defs>
       <path id="mfb919ef21a" d="M 0 0 
L -3.5 0 
" style="stroke: #000000; stroke-width: 0.8"/>
      </defs>
      <g>
       <use xlink:href="#mfb919ef21a" x="30.103125" y="276.334125" style="stroke: #000000; stroke-width: 0.8"/>
      </g>
     </g>
     <g id="text_10">
      <!-- 0.0 -->
      <g transform="translate(7.2 280.133344) scale(0.1 -0.1)">
       <defs>
        <path id="DejaVuSans-2e" d="M 684 794 
L 1344 794 
L 1344 0 
L 684 0 
L 684 794 
z
" transform="scale(0.015625)"/>
       </defs>
       <use xlink:href="#DejaVuSans-30"/>
       <use xlink:href="#DejaVuSans-2e" x="63.623047"/>
       <use xlink:href="#DejaVuSans-30" x="95.410156"/>
      </g>
     </g>
    </g>
    <g id="ytick_2">
     <g id="line2d_11">
      <g>
       <use xlink:href="#mfb919ef21a" x="30.103125" y="230.680504" style="stroke: #000000; stroke-width: 0.8"/>
      </g>
     </g>
     <g id="text_11">
      <!-- 0.5 -->
      <g transform="translate(7.2 234.479722) scale(0.1 -0.1)">
       <use xlink:href="#DejaVuSans-30"/>
       <use xlink:href="#DejaVuSans-2e" x="63.623047"/>
       <use xlink:href="#DejaVuSans-35" x="95.410156"/>
      </g>
     </g>
    </g>
    <g id="ytick_3">
     <g id="line2d_12">
      <g>
       <use xlink:href="#mfb919ef21a" x="30.103125" y="185.026882" style="stroke: #000000; stroke-width: 0.8"/>
      </g>
     </g>
     <g id="text_12">
      <!-- 1.0 -->
      <g transform="translate(7.2 188.826101) scale(0.1 -0.1)">
       <use xlink:href="#DejaVuSans-31"/>
       <use xlink:href="#DejaVuSans-2e" x="63.623047"/>
       <use xlink:href="#DejaVuSans-30" x="95.410156"/>
      </g>
     </g>
    </g>
    <g id="ytick_4">
     <g id="line2d_13">
      <g>
       <use xlink:href="#mfb919ef21a" x="30.103125" y="139.373261" style="stroke: #000000; stroke-width: 0.8"/>
      </g>
     </g>
     <g id="text_13">
      <!-- 1.5 -->
      <g transform="translate(7.2 143.17248) scale(0.1 -0.1)">
       <use xlink:href="#DejaVuSans-31"/>
       <use xlink:href="#DejaVuSans-2e" x="63.623047"/>
       <use xlink:href="#DejaVuSans-35" x="95.410156"/>
      </g>
     </g>
    </g>
    <g id="ytick_5">
     <g id="line2d_14">
      <g>
       <use xlink:href="#mfb919ef21a" x="30.103125" y="93.71964" style="stroke: #000000; stroke-width: 0.8"/>
      </g>
     </g>
     <g id="text_14">
      <!-- 2.0 -->
      <g transform="translate(7.2 97.518859) scale(0.1 -0.1)">
       <use xlink:href="#DejaVuSans-32"/>
       <use xlink:href="#DejaVuSans-2e" x="63.623047"/>
       <use xlink:href="#DejaVuSans-30" x="95.410156"/>
      </g>
     </g>
    </g>
    <g id="ytick_6">
     <g id="line2d_15">
      <g>
       <use xlink:href="#mfb919ef21a" x="30.103125" y="48.066019" style="stroke: #000000; stroke-width: 0.8"/>
      </g>
     </g>
     <g id="text_15">
      <!-- 2.5 -->
      <g transform="translate(7.2 51.865237) scale(0.1 -0.1)">
       <use xlink:href="#DejaVuSans-32"/>
       <use xlink:href="#DejaVuSans-2e" x="63.623047"/>
       <use xlink:href="#DejaVuSans-35" x="95.410156"/>
      </g>
     </g>
    </g>
   </g>
   <g id="line2d_16">
    <path d="M 30.103125 276.334125 
L 31.156576 276.334125 
L 32.210028 36.455112 
L 33.263479 35.243253 
L 34.31693 34.687786 
L 35.370382 34.718622 
L 36.423833 35.253824 
L 37.477284 36.591852 
L 38.530736 276.334125 
L 41.69109 276.334125 
L 42.744541 36.451042 
L 43.797992 35.12077 
L 44.851444 34.52159 
L 45.904895 34.462796 
L 46.958346 35.028541 
L 48.011798 36.357962 
L 49.065249 276.334125 
L 52.225603 276.334125 
L 53.279054 36.353108 
L 54.332506 35.046272 
L 55.385957 34.55884 
L 56.439408 34.56054 
L 57.49286 35.098215 
L 58.546311 36.457036 
L 59.599762 276.334125 
L 62.760116 276.334125 
L 63.813567 36.43213 
L 64.867019 35.094159 
L 65.92047 34.577112 
L 66.973921 34.595526 
L 68.027373 35.097305 
L 69.080824 36.513267 
L 70.134275 276.334125 
L 73.294629 276.334125 
L 74.348081 36.554855 
L 75.401532 35.134448 
L 76.454983 34.608827 
L 77.508435 34.593142 
L 78.561886 35.118732 
L 79.615337 36.442764 
L 80.668789 276.334125 
L 83.829143 276.334125 
L 84.882594 36.455071 
L 85.936045 35.105932 
L 86.989497 34.639829 
L 88.042948 34.631012 
L 89.096399 35.130277 
L 90.149851 36.37408 
L 91.203302 276.334125 
L 94.363656 276.334125 
L 95.417107 36.301622 
L 96.470559 34.962852 
L 97.52401 34.433928 
L 98.577461 34.491749 
L 99.630913 34.984127 
L 100.684364 36.331921 
L 101.737815 276.334125 
L 104.898169 276.334125 
L 105.951621 36.232963 
L 107.005072 34.92911 
L 108.058523 34.459011 
L 109.111975 34.414125 
L 110.165426 34.945852 
L 111.218877 36.295892 
L 112.272329 276.334125 
L 115.432683 276.334125 
L 116.486134 36.339027 
L 117.539585 34.963659 
L 118.593037 34.493917 
L 119.646488 34.521641 
L 120.699939 35.04196 
L 121.75339 36.311378 
L 122.806842 276.334125 
L 125.967196 276.334125 
L 127.020647 36.375031 
L 128.074098 35.093997 
L 129.12755 34.516033 
L 130.181001 34.586227 
L 131.234452 35.007244 
L 132.287904 36.341897 
L 133.341355 276.334125 
L 136.501709 276.334125 
L 137.55516 36.424468 
L 138.608612 35.172759 
L 139.662063 34.586544 
L 140.715514 34.595523 
L 141.768966 35.190101 
L 142.822417 36.430346 
L 143.875868 276.334125 
L 147.036222 276.334125 
L 148.089674 36.460066 
L 149.143125 35.123815 
L 150.196576 34.662079 
L 151.250028 34.627937 
L 152.303479 35.106023 
L 153.35693 36.360692 
L 154.410382 276.334125 
L 157.570736 276.334125 
L 158.624187 36.325922 
L 159.677638 35.081659 
L 160.73109 34.472975 
L 161.784541 34.514285 
L 162.837992 35.043194 
L 163.891444 36.284023 
L 164.944895 276.334125 
L 168.105249 276.334125 
L 169.1587 36.265653 
L 170.212152 34.94814 
L 171.265603 34.442988 
L 172.319054 34.543179 
L 173.372506 35.02282 
L 174.425957 36.357315 
L 175.479408 276.334125 
L 178.639762 276.334125 
L 179.693213 36.350253 
L 180.746665 35.091995 
L 181.800116 34.55208 
L 182.853567 34.498168 
L 183.907019 35.028522 
L 184.96047 36.434922 
L 186.013921 276.334125 
L 189.174275 276.334125 
L 190.227727 36.320173 
L 191.281178 34.99168 
L 192.334629 34.526693 
L 193.388081 34.436229 
L 194.441532 35.01332 
L 195.494983 36.327065 
L 196.548435 276.334125 
L 199.708789 276.334125 
L 200.76224 36.317404 
L 201.815691 35.114424 
L 202.869143 34.633872 
L 203.922594 34.576943 
L 204.976045 35.102758 
L 206.029497 36.323042 
L 207.082948 276.334125 
L 210.243302 276.334125 
L 211.296753 36.472283 
L 212.350205 35.171049 
L 213.403656 34.65154 
L 214.457107 34.584175 
L 215.510559 35.105251 
L 216.56401 36.414211 
L 217.617461 276.334125 
L 220.777815 276.334125 
L 221.831267 36.483102 
L 222.884718 35.151427 
L 223.938169 34.717646 
L 224.991621 34.747795 
L 226.045072 35.25914 
L 227.098523 36.44868 
L 228.151975 276.334125 
L 231.312329 276.334125 
L 232.36578 36.449172 
L 233.419231 35.150757 
L 234.472683 34.674196 
L 235.526134 34.607178 
L 236.579585 35.130171 
L 237.633037 36.382639 
L 238.686488 276.334125 
L 241.846842 276.334125 
L 242.900293 36.458263 
L 243.953744 35.163051 
L 245.007196 34.579932 
L 246.060647 34.521795 
L 247.114098 35.089304 
L 248.16755 36.338738 
L 249.221001 276.334125 
L 252.381355 276.334125 
L 253.434806 36.388007 
L 254.488258 35.033306 
L 255.541709 34.574188 
L 256.59516 34.49136 
L 257.648612 35.01079 
L 258.702063 36.321701 
L 259.755514 276.334125 
L 262.915868 276.334125 
L 263.96932 36.371001 
L 265.022771 35.113478 
L 266.076222 34.52432 
L 267.129674 34.497156 
L 268.183125 35.086098 
L 269.236576 36.412703 
L 270.290028 276.334125 
L 273.450382 276.334125 
L 274.503833 36.416289 
L 275.557284 35.098544 
L 276.610736 34.613826 
L 277.664187 34.633798 
L 278.717638 35.076065 
L 279.77109 36.24893 
L 280.824541 276.334125 
L 283.984895 276.334125 
L 285.038346 36.349378 
L 286.091798 35.045669 
L 287.145249 34.573051 
L 288.1987 34.602996 
L 289.252152 35.20776 
L 290.305603 36.526778 
L 291.359054 276.334125 
L 294.519408 276.334125 
L 295.57286 36.481151 
L 296.626311 35.203758 
L 297.679762 34.644962 
L 298.733213 34.567262 
L 299.786665 35.080483 
L 300.840116 36.449562 
L 301.893567 276.334125 
L 305.053921 276.334125 
L 306.107373 36.447363 
L 307.160824 35.129523 
L 308.214275 34.624414 
L 309.267727 34.710888 
L 310.321178 35.158658 
L 311.374629 36.45876 
L 312.428081 276.334125 
L 315.588435 276.334125 
L 316.641886 36.345998 
L 317.695337 34.943793 
L 318.748789 34.462982 
L 319.80224 34.544204 
L 320.855691 35.024017 
L 321.909143 36.338239 
L 322.962594 276.334125 
L 326.122948 276.334125 
L 327.176399 36.36762 
L 328.229851 35.1036 
L 329.283302 34.577027 
L 330.336753 34.624456 
L 331.390205 35.098451 
L 332.443656 36.409148 
L 333.497107 276.334125 
L 336.657461 276.334125 
L 337.710913 36.576152 
L 338.764364 35.25746 
L 339.817815 34.651059 
L 340.871267 34.654902 
L 341.924718 35.237237 
L 342.978169 36.570105 
L 344.031621 276.334125 
L 347.191975 276.334125 
L 348.245426 36.645029 
L 349.298877 35.210237 
L 350.352329 34.670198 
L 351.40578 34.715656 
L 352.459231 35.2325 
L 353.512683 36.589339 
L 354.566134 276.334125 
L 357.726488 276.334125 
L 358.779939 36.455066 
L 359.83339 35.299043 
L 360.886842 34.658115 
L 361.940293 34.700616 
L 362.993744 35.261785 
L 364.047196 36.537248 
L 365.100647 276.334125 
L 368.261001 276.334125 
L 369.314452 36.437925 
L 370.367904 35.185141 
L 371.421355 34.6453 
L 372.474806 34.676669 
L 373.528258 35.191954 
L 374.581709 36.446324 
L 375.63516 276.334125 
L 378.795514 276.334125 
L 379.848966 36.538951 
L 380.902417 35.27904 
L 381.955868 34.789204 
L 383.00932 34.768706 
L 384.062771 35.280653 
L 385.116222 36.669185 
L 386.169674 276.334125 
L 387.223125 276.334125 
L 387.223125 276.334125 
" clip-path="url(#p48dd00e7c8)" style="fill: none; stroke: #1f77b4; stroke-width: 1.5; stroke-linecap: square"/>
   </g>
   <g id="patch_3">
    <path d="M 30.103125 288.430125 
L 30.103125 22.318125 
" style="fill: none; stroke: #000000; stroke-width: 0.8; stroke-linejoin: miter; stroke-linecap: square"/>
   </g>
   <g id="patch_4">
    <path d="M 387.223125 288.430125 
L 387.223125 22.318125 
" style="fill: none; stroke: #000000; stroke-width: 0.8; stroke-linejoin: miter; stroke-linecap: square"/>
   </g>
   <g id="patch_5">
    <path d="M 30.103125 288.430125 
L 387.223125 288.430125 
" style="fill: none; stroke: #000000; stroke-width: 0.8; stroke-linejoin: miter; stroke-linecap: square"/>
   </g>
   <g id="patch_6">
    <path d="M 30.103125 22.318125 
L 387.223125 22.318125 
" style="fill: none; stroke: #000000; stroke-width: 0.8; stroke-linejoin: miter; stroke-linecap: square"/>
   </g>
   <g id="text_16">
    <!-- Fission Density -->
    <g transform="translate(163.87125 16.318125) scale(0.12 -0.12)">
     <defs>
      <path id="DejaVuSans-46" d="M 628 4666 
L 3309 4666 
L 3309 4134 
L 1259 4134 
L 1259 2759 
L 3109 2759 
L 3109 2228 
L 1259 2228 
L 1259 0 
L 628 0 
L 628 4666 
z
" transform="scale(0.015625)"/>
      <path id="DejaVuSans-69" d="M 603 3500 
L 1178 3500 
L 1178 0 
L 603 0 
L 603 3500 
z
M 603 4863 
L 1178 4863 
L 1178 4134 
L 603 4134 
L 603 4863 
z
" transform="scale(0.015625)"/>
      <path id="DejaVuSans-73" d="M 2834 3397 
L 2834 2853 
Q 2591 2978 2328 3040 
Q 2066 3103 1784 3103 
Q 1356 3103 1142 2972 
Q 928 2841 928 2578 
Q 928 2378 1081 2264 
Q 1234 2150 1697 2047 
L 1894 2003 
Q 2506 1872 2764 1633 
Q 3022 1394 3022 966 
Q 3022 478 2636 193 
Q 2250 -91 1575 -91 
Q 1294 -91 989 -36 
Q 684 19 347 128 
L 347 722 
Q 666 556 975 473 
Q 1284 391 1588 391 
Q 1994 391 2212 530 
Q 2431 669 2431 922 
Q 2431 1156 2273 1281 
Q 2116 1406 1581 1522 
L 1381 1569 
Q 847 1681 609 1914 
Q 372 2147 372 2553 
Q 372 3047 722 3315 
Q 1072 3584 1716 3584 
Q 2034 3584 2315 3537 
Q 2597 3491 2834 3397 
z
" transform="scale(0.015625)"/>
      <path id="DejaVuSans-6f" d="M 1959 3097 
Q 1497 3097 1228 2736 
Q 959 2375 959 1747 
Q 959 1119 1226 758 
Q 1494 397 1959 397 
Q 2419 397 2687 759 
Q 2956 1122 2956 1747 
Q 2956 2369 2687 2733 
Q 2419 3097 1959 3097 
z
M 1959 3584 
Q 2709 3584 3137 3096 
Q 3566 2609 3566 1747 
Q 3566 888 3137 398 
Q 2709 -91 1959 -91 
Q 1206 -91 779 398 
Q 353 888 353 1747 
Q 353 2609 779 3096 
Q 1206 3584 1959 3584 
z
" transform="scale(0.015625)"/>
      <path id="DejaVuSans-6e" d="M 3513 2113 
L 3513 0 
L 2938 0 
L 2938 2094 
Q 2938 2591 2744 2837 
Q 2550 3084 2163 3084 
Q 1697 3084 1428 2787 
Q 1159 2491 1159 1978 
L 1159 0 
L 581 0 
L 581 3500 
L 1159 3500 
L 1159 2956 
Q 1366 3272 1645 3428 
Q 1925 3584 2291 3584 
Q 2894 3584 3203 3211 
Q 3513 2838 3513 2113 
z
" transform="scale(0.015625)"/>
      <path id="DejaVuSans-20" transform="scale(0.015625)"/>
      <path id="DejaVuSans-44" d="M 1259 4147 
L 1259 519 
L 2022 519 
Q 2988 519 3436 956 
Q 3884 1394 3884 2338 
Q 3884 3275 3436 3711 
Q 2988 4147 2022 4147 
L 1259 4147 
z
M 628 4666 
L 1925 4666 
Q 3281 4666 3915 4102 
Q 4550 3538 4550 2338 
Q 4550 1131 3912 565 
Q 3275 0 1925 0 
L 628 0 
L 628 4666 
z
" transform="scale(0.015625)"/>
      <path id="DejaVuSans-65" d="M 3597 1894 
L 3597 1613 
L 953 1613 
Q 991 1019 1311 708 
Q 1631 397 2203 397 
Q 2534 397 2845 478 
Q 3156 559 3463 722 
L 3463 178 
Q 3153 47 2828 -22 
Q 2503 -91 2169 -91 
Q 1331 -91 842 396 
Q 353 884 353 1716 
Q 353 2575 817 3079 
Q 1281 3584 2069 3584 
Q 2775 3584 3186 3129 
Q 3597 2675 3597 1894 
z
M 3022 2063 
Q 3016 2534 2758 2815 
Q 2500 3097 2075 3097 
Q 1594 3097 1305 2825 
Q 1016 2553 972 2059 
L 3022 2063 
z
" transform="scale(0.015625)"/>
      <path id="DejaVuSans-74" d="M 1172 4494 
L 1172 3500 
L 2356 3500 
L 2356 3053 
L 1172 3053 
L 1172 1153 
Q 1172 725 1289 603 
Q 1406 481 1766 481 
L 2356 481 
L 2356 0 
L 1766 0 
Q 1100 0 847 248 
Q 594 497 594 1153 
L 594 3053 
L 172 3053 
L 172 3500 
L 594 3500 
L 594 4494 
L 1172 4494 
z
" transform="scale(0.015625)"/>
      <path id="DejaVuSans-79" d="M 2059 -325 
Q 1816 -950 1584 -1140 
Q 1353 -1331 966 -1331 
L 506 -1331 
L 506 -850 
L 844 -850 
Q 1081 -850 1212 -737 
Q 1344 -625 1503 -206 
L 1606 56 
L 191 3500 
L 800 3500 
L 1894 763 
L 2988 3500 
L 3597 3500 
L 2059 -325 
z
" transform="scale(0.015625)"/>
     </defs>
     <use xlink:href="#DejaVuSans-46"/>
     <use xlink:href="#DejaVuSans-69" x="50.269531"/>
     <use xlink:href="#DejaVuSans-73" x="78.052734"/>
     <use xlink:href="#DejaVuSans-73" x="130.152344"/>
     <use xlink:href="#DejaVuSans-69" x="182.251953"/>
     <use xlink:href="#DejaVuSans-6f" x="210.035156"/>
     <use xlink:href="#DejaVuSans-6e" x="271.216797"/>
     <use xlink:href="#DejaVuSans-20" x="334.595703"/>
     <use xlink:href="#DejaVuSans-44" x="366.382812"/>
     <use xlink:href="#DejaVuSans-65" x="443.384766"/>
     <use xlink:href="#DejaVuSans-6e" x="504.908203"/>
     <use xlink:href="#DejaVuSans-73" x="568.287109"/>
     <use xlink:href="#DejaVuSans-69" x="620.386719"/>
     <use xlink:href="#DejaVuSans-74" x="648.169922"/>
     <use xlink:href="#DejaVuSans-79" x="687.378906"/>
    </g>
   </g>
  </g>
 </g>
 <defs>
  <clipPath id="p48dd00e7c8">
   <rect x="30.103125" y="22.318125" width="357.12" height="266.112"/>
  </clipPath>
 </defs>
</svg>
