<?xml version="1.0" encoding="utf-8" standalone="no"?>
<!DOCTYPE svg PUBLIC "-//W3C//DTD SVG 1.1//EN"
  "http://www.w3.org/Graphics/SVG/1.1/DTD/svg11.dtd">
<svg xmlns:xlink="http://www.w3.org/1999/xlink" width="394.423125pt" height="312.30825pt" viewBox="0 0 394.423125 312.30825" xmlns="http://www.w3.org/2000/svg" version="1.1">
 <metadata>
  <rdf:RDF xmlns:dc="http://purl.org/dc/elements/1.1/" xmlns:cc="http://creativecommons.org/ns#" xmlns:rdf="http://www.w3.org/1999/02/22-rdf-syntax-ns#">
   <cc:Work>
    <dc:type rdf:resource="http://purl.org/dc/dcmitype/StillImage"/>
    <dc:date>2024-03-18T12:15:15.599057</dc:date>
    <dc:format>image/svg+xml</dc:format>
    <dc:creator>
     <cc:Agent>
      <dc:title>Matplotlib v3.8.2, https://matplotlib.org/</dc:title>
     </cc:Agent>
    </dc:creator>
   </cc:Work>
  </rdf:RDF>
 </metadata>
 <defs>
  <style type="text/css">*{stroke-linejoin: round; stroke-linecap: butt}</style>
 </defs>
 <g id="figure_1">
  <g id="patch_1">
   <path d="M 0 312.30825 
L 394.423125 312.30825 
L 394.423125 0 
L 0 0 
z
" style="fill: #ffffff"/>
  </g>
  <g id="axes_1">
   <g id="patch_2">
    <path d="M 30.103125 288.430125 
L 387.223125 288.430125 
L 387.223125 22.318125 
L 30.103125 22.318125 
z
" style="fill: #ffffff"/>
   </g>
   <g id="matplotlib.axis_1">
    <g id="xtick_1">
     <g id="line2d_1">
      <defs>
       <path id="m713cde1e43" d="M 0 0 
L 0 3.5 
" style="stroke: #000000; stroke-width: 0.8"/>
      </defs>
      <g>
       <use xlink:href="#m713cde1e43" x="30.103125" y="288.430125" style="stroke: #000000; stroke-width: 0.8"/>
      </g>
     </g>
     <g id="text_1">
      <!-- 0 -->
      <g transform="translate(26.921875 303.028562) scale(0.1 -0.1)">
       <defs>
        <path id="DejaVuSans-30" d="M 2034 4250 
Q 1547 4250 1301 3770 
Q 1056 3291 1056 2328 
Q 1056 1369 1301 889 
Q 1547 409 2034 409 
Q 2525 409 2770 889 
Q 3016 1369 3016 2328 
Q 3016 3291 2770 3770 
Q 2525 4250 2034 4250 
z
M 2034 4750 
Q 2819 4750 3233 4129 
Q 3647 3509 3647 2328 
Q 3647 1150 3233 529 
Q 2819 -91 2034 -91 
Q 1250 -91 836 529 
Q 422 1150 422 2328 
Q 422 3509 836 4129 
Q 1250 4750 2034 4750 
z
" transform="scale(0.015625)"/>
       </defs>
       <use xlink:href="#DejaVuSans-30"/>
      </g>
     </g>
    </g>
    <g id="xtick_2">
     <g id="line2d_2">
      <g>
       <use xlink:href="#m713cde1e43" x="71.717742" y="288.430125" style="stroke: #000000; stroke-width: 0.8"/>
      </g>
     </g>
     <g id="text_2">
      <!-- 5 -->
      <g transform="translate(68.536492 303.028562) scale(0.1 -0.1)">
       <defs>
        <path id="DejaVuSans-35" d="M 691 4666 
L 3169 4666 
L 3169 4134 
L 1269 4134 
L 1269 2991 
Q 1406 3038 1543 3061 
Q 1681 3084 1819 3084 
Q 2600 3084 3056 2656 
Q 3513 2228 3513 1497 
Q 3513 744 3044 326 
Q 2575 -91 1722 -91 
Q 1428 -91 1123 -41 
Q 819 9 494 109 
L 494 744 
Q 775 591 1075 516 
Q 1375 441 1709 441 
Q 2250 441 2565 725 
Q 2881 1009 2881 1497 
Q 2881 1984 2565 2268 
Q 2250 2553 1709 2553 
Q 1456 2553 1204 2497 
Q 953 2441 691 2322 
L 691 4666 
z
" transform="scale(0.015625)"/>
       </defs>
       <use xlink:href="#DejaVuSans-35"/>
      </g>
     </g>
    </g>
    <g id="xtick_3">
     <g id="line2d_3">
      <g>
       <use xlink:href="#m713cde1e43" x="113.33236" y="288.430125" style="stroke: #000000; stroke-width: 0.8"/>
      </g>
     </g>
     <g id="text_3">
      <!-- 10 -->
      <g transform="translate(106.96986 303.028562) scale(0.1 -0.1)">
       <defs>
        <path id="DejaVuSans-31" d="M 794 531 
L 1825 531 
L 1825 4091 
L 703 3866 
L 703 4441 
L 1819 4666 
L 2450 4666 
L 2450 531 
L 3481 531 
L 3481 0 
L 794 0 
L 794 531 
z
" transform="scale(0.015625)"/>
       </defs>
       <use xlink:href="#DejaVuSans-31"/>
       <use xlink:href="#DejaVuSans-30" x="63.623047"/>
      </g>
     </g>
    </g>
    <g id="xtick_4">
     <g id="line2d_4">
      <g>
       <use xlink:href="#m713cde1e43" x="154.946977" y="288.430125" style="stroke: #000000; stroke-width: 0.8"/>
      </g>
     </g>
     <g id="text_4">
      <!-- 15 -->
      <g transform="translate(148.584477 303.028562) scale(0.1 -0.1)">
       <use xlink:href="#DejaVuSans-31"/>
       <use xlink:href="#DejaVuSans-35" x="63.623047"/>
      </g>
     </g>
    </g>
    <g id="xtick_5">
     <g id="line2d_5">
      <g>
       <use xlink:href="#m713cde1e43" x="196.561594" y="288.430125" style="stroke: #000000; stroke-width: 0.8"/>
      </g>
     </g>
     <g id="text_5">
      <!-- 20 -->
      <g transform="translate(190.199094 303.028562) scale(0.1 -0.1)">
       <defs>
        <path id="DejaVuSans-32" d="M 1228 531 
L 3431 531 
L 3431 0 
L 469 0 
L 469 531 
Q 828 903 1448 1529 
Q 2069 2156 2228 2338 
Q 2531 2678 2651 2914 
Q 2772 3150 2772 3378 
Q 2772 3750 2511 3984 
Q 2250 4219 1831 4219 
Q 1534 4219 1204 4116 
Q 875 4013 500 3803 
L 500 4441 
Q 881 4594 1212 4672 
Q 1544 4750 1819 4750 
Q 2544 4750 2975 4387 
Q 3406 4025 3406 3419 
Q 3406 3131 3298 2873 
Q 3191 2616 2906 2266 
Q 2828 2175 2409 1742 
Q 1991 1309 1228 531 
z
" transform="scale(0.015625)"/>
       </defs>
       <use xlink:href="#DejaVuSans-32"/>
       <use xlink:href="#DejaVuSans-30" x="63.623047"/>
      </g>
     </g>
    </g>
    <g id="xtick_6">
     <g id="line2d_6">
      <g>
       <use xlink:href="#m713cde1e43" x="238.176212" y="288.430125" style="stroke: #000000; stroke-width: 0.8"/>
      </g>
     </g>
     <g id="text_6">
      <!-- 25 -->
      <g transform="translate(231.813712 303.028562) scale(0.1 -0.1)">
       <use xlink:href="#DejaVuSans-32"/>
       <use xlink:href="#DejaVuSans-35" x="63.623047"/>
      </g>
     </g>
    </g>
    <g id="xtick_7">
     <g id="line2d_7">
      <g>
       <use xlink:href="#m713cde1e43" x="279.790829" y="288.430125" style="stroke: #000000; stroke-width: 0.8"/>
      </g>
     </g>
     <g id="text_7">
      <!-- 30 -->
      <g transform="translate(273.428329 303.028562) scale(0.1 -0.1)">
       <defs>
        <path id="DejaVuSans-33" d="M 2597 2516 
Q 3050 2419 3304 2112 
Q 3559 1806 3559 1356 
Q 3559 666 3084 287 
Q 2609 -91 1734 -91 
Q 1441 -91 1130 -33 
Q 819 25 488 141 
L 488 750 
Q 750 597 1062 519 
Q 1375 441 1716 441 
Q 2309 441 2620 675 
Q 2931 909 2931 1356 
Q 2931 1769 2642 2001 
Q 2353 2234 1838 2234 
L 1294 2234 
L 1294 2753 
L 1863 2753 
Q 2328 2753 2575 2939 
Q 2822 3125 2822 3475 
Q 2822 3834 2567 4026 
Q 2313 4219 1838 4219 
Q 1578 4219 1281 4162 
Q 984 4106 628 3988 
L 628 4550 
Q 988 4650 1302 4700 
Q 1616 4750 1894 4750 
Q 2613 4750 3031 4423 
Q 3450 4097 3450 3541 
Q 3450 3153 3228 2886 
Q 3006 2619 2597 2516 
z
" transform="scale(0.015625)"/>
       </defs>
       <use xlink:href="#DejaVuSans-33"/>
       <use xlink:href="#DejaVuSans-30" x="63.623047"/>
      </g>
     </g>
    </g>
    <g id="xtick_8">
     <g id="line2d_8">
      <g>
       <use xlink:href="#m713cde1e43" x="321.405446" y="288.430125" style="stroke: #000000; stroke-width: 0.8"/>
      </g>
     </g>
     <g id="text_8">
      <!-- 35 -->
      <g transform="translate(315.042946 303.028562) scale(0.1 -0.1)">
       <use xlink:href="#DejaVuSans-33"/>
       <use xlink:href="#DejaVuSans-35" x="63.623047"/>
      </g>
     </g>
    </g>
    <g id="xtick_9">
     <g id="line2d_9">
      <g>
       <use xlink:href="#m713cde1e43" x="363.020064" y="288.430125" style="stroke: #000000; stroke-width: 0.8"/>
      </g>
     </g>
     <g id="text_9">
      <!-- 40 -->
      <g transform="translate(356.657564 303.028562) scale(0.1 -0.1)">
       <defs>
        <path id="DejaVuSans-34" d="M 2419 4116 
L 825 1625 
L 2419 1625 
L 2419 4116 
z
M 2253 4666 
L 3047 4666 
L 3047 1625 
L 3713 1625 
L 3713 1100 
L 3047 1100 
L 3047 0 
L 2419 0 
L 2419 1100 
L 313 1100 
L 313 1709 
L 2253 4666 
z
" transform="scale(0.015625)"/>
       </defs>
       <use xlink:href="#DejaVuSans-34"/>
       <use xlink:href="#DejaVuSans-30" x="63.623047"/>
      </g>
     </g>
    </g>
   </g>
   <g id="matplotlib.axis_2">
    <g id="ytick_1">
     <g id="line2d_10">
      <defs>
       <path id="m612c262fb7" d="M 0 0 
L -3.5 0 
" style="stroke: #000000; stroke-width: 0.8"/>
      </defs>
      <g>
       <use xlink:href="#m612c262fb7" x="30.103125" y="276.334125" style="stroke: #000000; stroke-width: 0.8"/>
      </g>
     </g>
     <g id="text_10">
      <!-- 0.0 -->
      <g transform="translate(7.2 280.133344) scale(0.1 -0.1)">
       <defs>
        <path id="DejaVuSans-2e" d="M 684 794 
L 1344 794 
L 1344 0 
L 684 0 
L 684 794 
z
" transform="scale(0.015625)"/>
       </defs>
       <use xlink:href="#DejaVuSans-30"/>
       <use xlink:href="#DejaVuSans-2e" x="63.623047"/>
       <use xlink:href="#DejaVuSans-30" x="95.410156"/>
      </g>
     </g>
    </g>
    <g id="ytick_2">
     <g id="line2d_11">
      <g>
       <use xlink:href="#m612c262fb7" x="30.103125" y="238.945729" style="stroke: #000000; stroke-width: 0.8"/>
      </g>
     </g>
     <g id="text_11">
      <!-- 0.5 -->
      <g transform="translate(7.2 242.744948) scale(0.1 -0.1)">
       <use xlink:href="#DejaVuSans-30"/>
       <use xlink:href="#DejaVuSans-2e" x="63.623047"/>
       <use xlink:href="#DejaVuSans-35" x="95.410156"/>
      </g>
     </g>
    </g>
    <g id="ytick_3">
     <g id="line2d_12">
      <g>
       <use xlink:href="#m612c262fb7" x="30.103125" y="201.557333" style="stroke: #000000; stroke-width: 0.8"/>
      </g>
     </g>
     <g id="text_12">
      <!-- 1.0 -->
      <g transform="translate(7.2 205.356551) scale(0.1 -0.1)">
       <use xlink:href="#DejaVuSans-31"/>
       <use xlink:href="#DejaVuSans-2e" x="63.623047"/>
       <use xlink:href="#DejaVuSans-30" x="95.410156"/>
      </g>
     </g>
    </g>
    <g id="ytick_4">
     <g id="line2d_13">
      <g>
       <use xlink:href="#m612c262fb7" x="30.103125" y="164.168936" style="stroke: #000000; stroke-width: 0.8"/>
      </g>
     </g>
     <g id="text_13">
      <!-- 1.5 -->
      <g transform="translate(7.2 167.968155) scale(0.1 -0.1)">
       <use xlink:href="#DejaVuSans-31"/>
       <use xlink:href="#DejaVuSans-2e" x="63.623047"/>
       <use xlink:href="#DejaVuSans-35" x="95.410156"/>
      </g>
     </g>
    </g>
    <g id="ytick_5">
     <g id="line2d_14">
      <g>
       <use xlink:href="#m612c262fb7" x="30.103125" y="126.78054" style="stroke: #000000; stroke-width: 0.8"/>
      </g>
     </g>
     <g id="text_14">
      <!-- 2.0 -->
      <g transform="translate(7.2 130.579759) scale(0.1 -0.1)">
       <use xlink:href="#DejaVuSans-32"/>
       <use xlink:href="#DejaVuSans-2e" x="63.623047"/>
       <use xlink:href="#DejaVuSans-30" x="95.410156"/>
      </g>
     </g>
    </g>
    <g id="ytick_6">
     <g id="line2d_15">
      <g>
       <use xlink:href="#m612c262fb7" x="30.103125" y="89.392144" style="stroke: #000000; stroke-width: 0.8"/>
      </g>
     </g>
     <g id="text_15">
      <!-- 2.5 -->
      <g transform="translate(7.2 93.191363) scale(0.1 -0.1)">
       <use xlink:href="#DejaVuSans-32"/>
       <use xlink:href="#DejaVuSans-2e" x="63.623047"/>
       <use xlink:href="#DejaVuSans-35" x="95.410156"/>
      </g>
     </g>
    </g>
    <g id="ytick_7">
     <g id="line2d_16">
      <g>
       <use xlink:href="#m612c262fb7" x="30.103125" y="52.003748" style="stroke: #000000; stroke-width: 0.8"/>
      </g>
     </g>
     <g id="text_16">
      <!-- 3.0 -->
      <g transform="translate(7.2 55.802967) scale(0.1 -0.1)">
       <use xlink:href="#DejaVuSans-33"/>
       <use xlink:href="#DejaVuSans-2e" x="63.623047"/>
       <use xlink:href="#DejaVuSans-30" x="95.410156"/>
      </g>
     </g>
    </g>
   </g>
   <g id="line2d_17">
    <path d="M 30.103125 276.334125 
L 31.060551 276.334125 
L 32.017978 35.549675 
L 32.975404 41.679795 
L 33.93283 44.777665 
L 34.890256 45.965759 
L 35.847683 45.200084 
L 36.805109 41.99305 
L 37.762535 35.407495 
L 38.719961 276.334125 
L 41.59224 276.334125 
L 42.549667 35.427033 
L 43.507093 41.547194 
L 44.464519 44.735576 
L 45.421945 46.166865 
L 46.379372 45.293764 
L 47.336798 42.396838 
L 48.294224 35.569624 
L 49.25165 276.334125 
L 52.123929 276.334125 
L 53.081356 35.771213 
L 54.038782 42.069373 
L 54.996208 45.34568 
L 55.953634 46.642326 
L 56.911061 45.809351 
L 57.868487 42.934025 
L 58.825913 36.16585 
L 59.783339 276.334125 
L 62.655618 276.334125 
L 63.613045 36.037208 
L 64.570471 42.531844 
L 65.527897 45.315015 
L 66.485323 46.326231 
L 67.44275 44.93775 
L 68.400176 41.939762 
L 69.357602 35.404763 
L 70.315028 276.334125 
L 73.187307 276.334125 
L 74.144734 35.51633 
L 75.10216 42.32793 
L 76.059586 45.808993 
L 77.017012 46.863464 
L 77.974439 45.606153 
L 78.931865 42.973416 
L 79.889291 35.997354 
L 80.846717 276.334125 
L 83.718996 276.334125 
L 84.676423 35.552146 
L 85.633849 41.75535 
L 86.591275 44.936146 
L 87.548701 45.968484 
L 88.506128 44.931302 
L 89.463554 42.244471 
L 90.42098 35.728145 
L 91.378407 276.334125 
L 94.250685 276.334125 
L 95.208112 35.772285 
L 96.165538 42.488714 
L 97.122964 45.584763 
L 98.08039 46.786855 
L 99.037817 46.175186 
L 99.995243 42.992979 
L 100.952669 37.680519 
L 101.910096 276.334125 
L 104.782374 276.334125 
L 105.739801 36.388704 
L 106.697227 42.756866 
L 107.654653 45.429531 
L 108.612079 46.443242 
L 109.569506 45.621681 
L 110.526932 42.501326 
L 111.484358 35.78153 
L 112.441785 276.334125 
L 115.314063 276.334125 
L 116.27149 36.05104 
L 117.228916 42.943511 
L 118.186342 45.765888 
L 119.143768 46.916192 
L 120.101195 45.535149 
L 121.058621 42.588546 
L 122.016047 36.167426 
L 122.973474 276.334125 
L 125.845752 276.334125 
L 126.803179 35.459746 
L 127.760605 41.88653 
L 128.718031 45.400673 
L 129.675457 46.356595 
L 130.632884 45.52488 
L 131.59031 42.600383 
L 132.547736 36.188073 
L 133.505163 276.334125 
L 136.377441 276.334125 
L 137.334868 35.796055 
L 138.292294 42.348991 
L 139.24972 45.683584 
L 140.207146 46.694702 
L 141.164573 45.739762 
L 142.121999 42.24279 
L 143.079425 35.554506 
L 144.036852 276.334125 
L 146.90913 276.334125 
L 147.866557 35.551807 
L 148.823983 42.363426 
L 149.781409 45.31451 
L 150.738835 46.244077 
L 151.696262 44.780556 
L 152.653688 42.216406 
L 153.611114 35.584409 
L 154.568541 276.334125 
L 157.440819 276.334125 
L 158.398246 35.263091 
L 159.355672 42.06889 
L 160.313098 45.087656 
L 161.270524 45.660206 
L 162.227951 44.498985 
L 163.185377 41.305067 
L 164.142803 34.659754 
L 165.10023 276.334125 
L 167.972508 276.334125 
L 168.929935 34.860177 
L 169.887361 41.612212 
L 170.844787 44.528568 
L 171.802213 45.853694 
L 172.75964 44.967779 
L 173.717066 42.085779 
L 174.674492 35.421256 
L 175.631919 276.334125 
L 178.504197 276.334125 
L 179.461624 35.50775 
L 180.41905 41.698293 
L 181.376476 44.827303 
L 182.333902 46.474979 
L 183.291329 45.285723 
L 184.248755 42.333479 
L 185.206181 35.755396 
L 186.163608 276.334125 
L 189.035886 276.334125 
L 189.993313 35.79726 
L 190.950739 42.096953 
L 191.908165 44.860222 
L 192.865591 45.484537 
L 193.823018 44.975099 
L 194.780444 42.163577 
L 195.73787 35.598441 
L 196.695297 276.334125 
L 199.567575 276.334125 
L 200.525002 35.707924 
L 201.482428 42.311127 
L 202.439854 45.252163 
L 203.39728 46.543216 
L 204.354707 45.397907 
L 205.312133 42.39084 
L 206.269559 35.92416 
L 207.226986 276.334125 
L 210.099264 276.334125 
L 211.056691 35.465464 
L 212.014117 42.408512 
L 212.971543 45.417031 
L 213.92897 46.233754 
L 214.886396 44.919523 
L 215.843822 41.824222 
L 216.801248 34.9193 
L 217.758675 276.334125 
L 220.630953 276.334125 
L 221.58838 35.600962 
L 222.545806 41.976109 
L 223.503232 45.125211 
L 224.460659 46.148388 
L 225.418085 45.079839 
L 226.375511 42.599602 
L 227.332937 35.902731 
L 228.290364 276.334125 
L 231.162642 276.334125 
L 232.120069 35.911622 
L 233.077495 42.049009 
L 234.034921 45.076258 
L 234.992348 45.640428 
L 235.949774 44.675122 
L 236.9072 42.192976 
L 237.864626 35.571433 
L 238.822053 276.334125 
L 241.694331 276.334125 
L 242.651758 36.341837 
L 243.609184 42.515584 
L 244.56661 45.625499 
L 245.524037 46.850129 
L 246.481463 45.80929 
L 247.438889 42.490288 
L 248.396315 36.040588 
L 249.353742 276.334125 
L 252.22602 276.334125 
L 253.183447 36.182703 
L 254.140873 42.66224 
L 255.098299 45.19603 
L 256.055726 46.048671 
L 257.013152 44.884631 
L 257.970578 42.230757 
L 258.928004 35.689388 
L 259.885431 276.334125 
L 262.757709 276.334125 
L 263.715136 35.65703 
L 264.672562 42.561689 
L 265.629988 45.121323 
L 266.587415 45.881753 
L 267.544841 45.611002 
L 268.502267 42.571052 
L 269.459693 35.773149 
L 270.41712 276.334125 
L 273.289398 276.334125 
L 274.246825 35.363863 
L 275.204251 41.787213 
L 276.161677 44.972336 
L 277.119104 45.614603 
L 278.07653 44.857351 
L 279.033956 41.58139 
L 279.991382 34.961607 
L 280.948809 276.334125 
L 283.821087 276.334125 
L 284.778514 35.631953 
L 285.73594 41.972083 
L 286.693366 44.796416 
L 287.650793 45.535695 
L 288.608219 44.5241 
L 289.565645 41.846083 
L 290.523071 35.244113 
L 291.480498 276.334125 
L 294.352776 276.334125 
L 295.310203 34.414125 
L 296.267629 41.363527 
L 297.225055 44.991931 
L 298.182482 45.727535 
L 299.139908 44.68206 
L 300.097334 42.063421 
L 301.05476 35.679859 
L 302.012187 276.334125 
L 304.884465 276.334125 
L 305.841892 35.468592 
L 306.799318 42.511013 
L 307.756744 45.798474 
L 308.714171 46.496898 
L 309.671597 45.820351 
L 310.629023 42.193775 
L 311.586449 35.619996 
L 312.543876 276.334125 
L 315.416154 276.334125 
L 316.373581 36.174142 
L 317.331007 42.861113 
L 318.288433 45.508991 
L 319.24586 46.510742 
L 320.203286 45.377514 
L 321.160712 42.850195 
L 322.118138 36.476304 
L 323.075565 276.334125 
L 325.947843 276.334125 
L 326.90527 36.025422 
L 327.862696 42.869729 
L 328.820122 45.881031 
L 329.777549 47.007328 
L 330.734975 45.514795 
L 331.692401 42.534462 
L 332.649827 35.979155 
L 333.607254 276.334125 
L 336.479533 276.334125 
L 337.436959 35.913089 
L 338.394385 42.239828 
L 339.351811 44.685295 
L 340.309238 45.582143 
L 341.266664 44.710814 
L 342.22409 41.731121 
L 343.181516 35.196974 
L 344.138943 276.334125 
L 347.011222 276.334125 
L 347.968648 35.477218 
L 348.926074 41.308154 
L 349.8835 44.791091 
L 350.840927 45.753996 
L 351.798353 44.865595 
L 352.755779 42.418319 
L 353.713205 35.489681 
L 354.670632 276.334125 
L 357.542911 276.334125 
L 358.500337 35.40868 
L 359.457763 42.082589 
L 360.415189 44.877008 
L 361.372616 46.227769 
L 362.330042 45.114542 
L 363.287468 42.139577 
L 364.244894 34.971175 
L 365.202321 276.334125 
L 368.0746 276.334125 
L 369.032026 35.008387 
L 369.989452 41.440629 
L 370.946878 44.744935 
L 371.904305 46.261878 
L 372.861731 45.060255 
L 373.819157 42.319625 
L 374.776583 35.435616 
L 375.73401 276.334125 
L 378.606289 276.334125 
L 379.563715 35.414906 
L 380.521141 42.129757 
L 381.478567 44.994554 
L 382.435994 45.345766 
L 383.39342 44.569732 
L 384.350846 41.197269 
L 385.308272 35.090468 
L 386.265699 276.334125 
L 387.223125 276.334125 
L 387.223125 276.334125 
" clip-path="url(#p5d32fd61e3)" style="fill: none; stroke: #1f77b4; stroke-width: 1.5; stroke-linecap: square"/>
   </g>
   <g id="patch_3">
    <path d="M 30.103125 288.430125 
L 30.103125 22.318125 
" style="fill: none; stroke: #000000; stroke-width: 0.8; stroke-linejoin: miter; stroke-linecap: square"/>
   </g>
   <g id="patch_4">
    <path d="M 387.223125 288.430125 
L 387.223125 22.318125 
" style="fill: none; stroke: #000000; stroke-width: 0.8; stroke-linejoin: miter; stroke-linecap: square"/>
   </g>
   <g id="patch_5">
    <path d="M 30.103125 288.430125 
L 387.223125 288.430125 
" style="fill: none; stroke: #000000; stroke-width: 0.8; stroke-linejoin: miter; stroke-linecap: square"/>
   </g>
   <g id="patch_6">
    <path d="M 30.103125 22.318125 
L 387.223125 22.318125 
" style="fill: none; stroke: #000000; stroke-width: 0.8; stroke-linejoin: miter; stroke-linecap: square"/>
   </g>
   <g id="text_17">
    <!-- Fission Density -->
    <g transform="translate(163.87125 16.318125) scale(0.12 -0.12)">
     <defs>
      <path id="DejaVuSans-46" d="M 628 4666 
L 3309 4666 
L 3309 4134 
L 1259 4134 
L 1259 2759 
L 3109 2759 
L 3109 2228 
L 1259 2228 
L 1259 0 
L 628 0 
L 628 4666 
z
" transform="scale(0.015625)"/>
      <path id="DejaVuSans-69" d="M 603 3500 
L 1178 3500 
L 1178 0 
L 603 0 
L 603 3500 
z
M 603 4863 
L 1178 4863 
L 1178 4134 
L 603 4134 
L 603 4863 
z
" transform="scale(0.015625)"/>
      <path id="DejaVuSans-73" d="M 2834 3397 
L 2834 2853 
Q 2591 2978 2328 3040 
Q 2066 3103 1784 3103 
Q 1356 3103 1142 2972 
Q 928 2841 928 2578 
Q 928 2378 1081 2264 
Q 1234 2150 1697 2047 
L 1894 2003 
Q 2506 1872 2764 1633 
Q 3022 1394 3022 966 
Q 3022 478 2636 193 
Q 2250 -91 1575 -91 
Q 1294 -91 989 -36 
Q 684 19 347 128 
L 347 722 
Q 666 556 975 473 
Q 1284 391 1588 391 
Q 1994 391 2212 530 
Q 2431 669 2431 922 
Q 2431 1156 2273 1281 
Q 2116 1406 1581 1522 
L 1381 1569 
Q 847 1681 609 1914 
Q 372 2147 372 2553 
Q 372 3047 722 3315 
Q 1072 3584 1716 3584 
Q 2034 3584 2315 3537 
Q 2597 3491 2834 3397 
z
" transform="scale(0.015625)"/>
      <path id="DejaVuSans-6f" d="M 1959 3097 
Q 1497 3097 1228 2736 
Q 959 2375 959 1747 
Q 959 1119 1226 758 
Q 1494 397 1959 397 
Q 2419 397 2687 759 
Q 2956 1122 2956 1747 
Q 2956 2369 2687 2733 
Q 2419 3097 1959 3097 
z
M 1959 3584 
Q 2709 3584 3137 3096 
Q 3566 2609 3566 1747 
Q 3566 888 3137 398 
Q 2709 -91 1959 -91 
Q 1206 -91 779 398 
Q 353 888 353 1747 
Q 353 2609 779 3096 
Q 1206 3584 1959 3584 
z
" transform="scale(0.015625)"/>
      <path id="DejaVuSans-6e" d="M 3513 2113 
L 3513 0 
L 2938 0 
L 2938 2094 
Q 2938 2591 2744 2837 
Q 2550 3084 2163 3084 
Q 1697 3084 1428 2787 
Q 1159 2491 1159 1978 
L 1159 0 
L 581 0 
L 581 3500 
L 1159 3500 
L 1159 2956 
Q 1366 3272 1645 3428 
Q 1925 3584 2291 3584 
Q 2894 3584 3203 3211 
Q 3513 2838 3513 2113 
z
" transform="scale(0.015625)"/>
      <path id="DejaVuSans-20" transform="scale(0.015625)"/>
      <path id="DejaVuSans-44" d="M 1259 4147 
L 1259 519 
L 2022 519 
Q 2988 519 3436 956 
Q 3884 1394 3884 2338 
Q 3884 3275 3436 3711 
Q 2988 4147 2022 4147 
L 1259 4147 
z
M 628 4666 
L 1925 4666 
Q 3281 4666 3915 4102 
Q 4550 3538 4550 2338 
Q 4550 1131 3912 565 
Q 3275 0 1925 0 
L 628 0 
L 628 4666 
z
" transform="scale(0.015625)"/>
      <path id="DejaVuSans-65" d="M 3597 1894 
L 3597 1613 
L 953 1613 
Q 991 1019 1311 708 
Q 1631 397 2203 397 
Q 2534 397 2845 478 
Q 3156 559 3463 722 
L 3463 178 
Q 3153 47 2828 -22 
Q 2503 -91 2169 -91 
Q 1331 -91 842 396 
Q 353 884 353 1716 
Q 353 2575 817 3079 
Q 1281 3584 2069 3584 
Q 2775 3584 3186 3129 
Q 3597 2675 3597 1894 
z
M 3022 2063 
Q 3016 2534 2758 2815 
Q 2500 3097 2075 3097 
Q 1594 3097 1305 2825 
Q 1016 2553 972 2059 
L 3022 2063 
z
" transform="scale(0.015625)"/>
      <path id="DejaVuSans-74" d="M 1172 4494 
L 1172 3500 
L 2356 3500 
L 2356 3053 
L 1172 3053 
L 1172 1153 
Q 1172 725 1289 603 
Q 1406 481 1766 481 
L 2356 481 
L 2356 0 
L 1766 0 
Q 1100 0 847 248 
Q 594 497 594 1153 
L 594 3053 
L 172 3053 
L 172 3500 
L 594 3500 
L 594 4494 
L 1172 4494 
z
" transform="scale(0.015625)"/>
      <path id="DejaVuSans-79" d="M 2059 -325 
Q 1816 -950 1584 -1140 
Q 1353 -1331 966 -1331 
L 506 -1331 
L 506 -850 
L 844 -850 
Q 1081 -850 1212 -737 
Q 1344 -625 1503 -206 
L 1606 56 
L 191 3500 
L 800 3500 
L 1894 763 
L 2988 3500 
L 3597 3500 
L 2059 -325 
z
" transform="scale(0.015625)"/>
     </defs>
     <use xlink:href="#DejaVuSans-46"/>
     <use xlink:href="#DejaVuSans-69" x="50.269531"/>
     <use xlink:href="#DejaVuSans-73" x="78.052734"/>
     <use xlink:href="#DejaVuSans-73" x="130.152344"/>
     <use xlink:href="#DejaVuSans-69" x="182.251953"/>
     <use xlink:href="#DejaVuSans-6f" x="210.035156"/>
     <use xlink:href="#DejaVuSans-6e" x="271.216797"/>
     <use xlink:href="#DejaVuSans-20" x="334.595703"/>
     <use xlink:href="#DejaVuSans-44" x="366.382812"/>
     <use xlink:href="#DejaVuSans-65" x="443.384766"/>
     <use xlink:href="#DejaVuSans-6e" x="504.908203"/>
     <use xlink:href="#DejaVuSans-73" x="568.287109"/>
     <use xlink:href="#DejaVuSans-69" x="620.386719"/>
     <use xlink:href="#DejaVuSans-74" x="648.169922"/>
     <use xlink:href="#DejaVuSans-79" x="687.378906"/>
    </g>
   </g>
  </g>
 </g>
 <defs>
  <clipPath id="p5d32fd61e3">
   <rect x="30.103125" y="22.318125" width="357.12" height="266.112"/>
  </clipPath>
 </defs>
</svg>
