<?xml version="1.0" encoding="utf-8" standalone="no"?>
<!DOCTYPE svg PUBLIC "-//W3C//DTD SVG 1.1//EN"
  "http://www.w3.org/Graphics/SVG/1.1/DTD/svg11.dtd">
<svg xmlns:xlink="http://www.w3.org/1999/xlink" width="407.148125pt" height="312.30825pt" viewBox="0 0 407.148125 312.30825" xmlns="http://www.w3.org/2000/svg" version="1.1">
 <metadata>
  <rdf:RDF xmlns:dc="http://purl.org/dc/elements/1.1/" xmlns:cc="http://creativecommons.org/ns#" xmlns:rdf="http://www.w3.org/1999/02/22-rdf-syntax-ns#">
   <cc:Work>
    <dc:type rdf:resource="http://purl.org/dc/dcmitype/StillImage"/>
    <dc:date>2024-03-19T15:50:28.412008</dc:date>
    <dc:format>image/svg+xml</dc:format>
    <dc:creator>
     <cc:Agent>
      <dc:title>Matplotlib v3.8.3, https://matplotlib.org/</dc:title>
     </cc:Agent>
    </dc:creator>
   </cc:Work>
  </rdf:RDF>
 </metadata>
 <defs>
  <style type="text/css">*{stroke-linejoin: round; stroke-linecap: butt}</style>
 </defs>
 <g id="figure_1">
  <g id="patch_1">
   <path d="M 0 312.30825 
L 407.148125 312.30825 
L 407.148125 0 
L 0 0 
z
" style="fill: #ffffff"/>
  </g>
  <g id="axes_1">
   <g id="patch_2">
    <path d="M 42.828125 288.430125 
L 399.948125 288.430125 
L 399.948125 22.318125 
L 42.828125 22.318125 
z
" style="fill: #ffffff"/>
   </g>
   <g id="matplotlib.axis_1">
    <g id="xtick_1">
     <g id="line2d_1">
      <defs>
       <path id="m518214741d" d="M 0 0 
L 0 3.5 
" style="stroke: #000000; stroke-width: 0.8"/>
      </defs>
      <g>
       <use xlink:href="#m518214741d" x="42.828125" y="288.430125" style="stroke: #000000; stroke-width: 0.8"/>
      </g>
     </g>
     <g id="text_1">
      <!-- 0 -->
      <g transform="translate(39.646875 303.028562) scale(0.1 -0.1)">
       <defs>
        <path id="DejaVuSans-30" d="M 2034 4250 
Q 1547 4250 1301 3770 
Q 1056 3291 1056 2328 
Q 1056 1369 1301 889 
Q 1547 409 2034 409 
Q 2525 409 2770 889 
Q 3016 1369 3016 2328 
Q 3016 3291 2770 3770 
Q 2525 4250 2034 4250 
z
M 2034 4750 
Q 2819 4750 3233 4129 
Q 3647 3509 3647 2328 
Q 3647 1150 3233 529 
Q 2819 -91 2034 -91 
Q 1250 -91 836 529 
Q 422 1150 422 2328 
Q 422 3509 836 4129 
Q 1250 4750 2034 4750 
z
" transform="scale(0.015625)"/>
       </defs>
       <use xlink:href="#DejaVuSans-30"/>
      </g>
     </g>
    </g>
    <g id="xtick_2">
     <g id="line2d_2">
      <g>
       <use xlink:href="#m518214741d" x="84.442742" y="288.430125" style="stroke: #000000; stroke-width: 0.8"/>
      </g>
     </g>
     <g id="text_2">
      <!-- 5 -->
      <g transform="translate(81.261492 303.028562) scale(0.1 -0.1)">
       <defs>
        <path id="DejaVuSans-35" d="M 691 4666 
L 3169 4666 
L 3169 4134 
L 1269 4134 
L 1269 2991 
Q 1406 3038 1543 3061 
Q 1681 3084 1819 3084 
Q 2600 3084 3056 2656 
Q 3513 2228 3513 1497 
Q 3513 744 3044 326 
Q 2575 -91 1722 -91 
Q 1428 -91 1123 -41 
Q 819 9 494 109 
L 494 744 
Q 775 591 1075 516 
Q 1375 441 1709 441 
Q 2250 441 2565 725 
Q 2881 1009 2881 1497 
Q 2881 1984 2565 2268 
Q 2250 2553 1709 2553 
Q 1456 2553 1204 2497 
Q 953 2441 691 2322 
L 691 4666 
z
" transform="scale(0.015625)"/>
       </defs>
       <use xlink:href="#DejaVuSans-35"/>
      </g>
     </g>
    </g>
    <g id="xtick_3">
     <g id="line2d_3">
      <g>
       <use xlink:href="#m518214741d" x="126.05736" y="288.430125" style="stroke: #000000; stroke-width: 0.8"/>
      </g>
     </g>
     <g id="text_3">
      <!-- 10 -->
      <g transform="translate(119.69486 303.028562) scale(0.1 -0.1)">
       <defs>
        <path id="DejaVuSans-31" d="M 794 531 
L 1825 531 
L 1825 4091 
L 703 3866 
L 703 4441 
L 1819 4666 
L 2450 4666 
L 2450 531 
L 3481 531 
L 3481 0 
L 794 0 
L 794 531 
z
" transform="scale(0.015625)"/>
       </defs>
       <use xlink:href="#DejaVuSans-31"/>
       <use xlink:href="#DejaVuSans-30" x="63.623047"/>
      </g>
     </g>
    </g>
    <g id="xtick_4">
     <g id="line2d_4">
      <g>
       <use xlink:href="#m518214741d" x="167.671977" y="288.430125" style="stroke: #000000; stroke-width: 0.8"/>
      </g>
     </g>
     <g id="text_4">
      <!-- 15 -->
      <g transform="translate(161.309477 303.028562) scale(0.1 -0.1)">
       <use xlink:href="#DejaVuSans-31"/>
       <use xlink:href="#DejaVuSans-35" x="63.623047"/>
      </g>
     </g>
    </g>
    <g id="xtick_5">
     <g id="line2d_5">
      <g>
       <use xlink:href="#m518214741d" x="209.286594" y="288.430125" style="stroke: #000000; stroke-width: 0.8"/>
      </g>
     </g>
     <g id="text_5">
      <!-- 20 -->
      <g transform="translate(202.924094 303.028562) scale(0.1 -0.1)">
       <defs>
        <path id="DejaVuSans-32" d="M 1228 531 
L 3431 531 
L 3431 0 
L 469 0 
L 469 531 
Q 828 903 1448 1529 
Q 2069 2156 2228 2338 
Q 2531 2678 2651 2914 
Q 2772 3150 2772 3378 
Q 2772 3750 2511 3984 
Q 2250 4219 1831 4219 
Q 1534 4219 1204 4116 
Q 875 4013 500 3803 
L 500 4441 
Q 881 4594 1212 4672 
Q 1544 4750 1819 4750 
Q 2544 4750 2975 4387 
Q 3406 4025 3406 3419 
Q 3406 3131 3298 2873 
Q 3191 2616 2906 2266 
Q 2828 2175 2409 1742 
Q 1991 1309 1228 531 
z
" transform="scale(0.015625)"/>
       </defs>
       <use xlink:href="#DejaVuSans-32"/>
       <use xlink:href="#DejaVuSans-30" x="63.623047"/>
      </g>
     </g>
    </g>
    <g id="xtick_6">
     <g id="line2d_6">
      <g>
       <use xlink:href="#m518214741d" x="250.901212" y="288.430125" style="stroke: #000000; stroke-width: 0.8"/>
      </g>
     </g>
     <g id="text_6">
      <!-- 25 -->
      <g transform="translate(244.538712 303.028562) scale(0.1 -0.1)">
       <use xlink:href="#DejaVuSans-32"/>
       <use xlink:href="#DejaVuSans-35" x="63.623047"/>
      </g>
     </g>
    </g>
    <g id="xtick_7">
     <g id="line2d_7">
      <g>
       <use xlink:href="#m518214741d" x="292.515829" y="288.430125" style="stroke: #000000; stroke-width: 0.8"/>
      </g>
     </g>
     <g id="text_7">
      <!-- 30 -->
      <g transform="translate(286.153329 303.028562) scale(0.1 -0.1)">
       <defs>
        <path id="DejaVuSans-33" d="M 2597 2516 
Q 3050 2419 3304 2112 
Q 3559 1806 3559 1356 
Q 3559 666 3084 287 
Q 2609 -91 1734 -91 
Q 1441 -91 1130 -33 
Q 819 25 488 141 
L 488 750 
Q 750 597 1062 519 
Q 1375 441 1716 441 
Q 2309 441 2620 675 
Q 2931 909 2931 1356 
Q 2931 1769 2642 2001 
Q 2353 2234 1838 2234 
L 1294 2234 
L 1294 2753 
L 1863 2753 
Q 2328 2753 2575 2939 
Q 2822 3125 2822 3475 
Q 2822 3834 2567 4026 
Q 2313 4219 1838 4219 
Q 1578 4219 1281 4162 
Q 984 4106 628 3988 
L 628 4550 
Q 988 4650 1302 4700 
Q 1616 4750 1894 4750 
Q 2613 4750 3031 4423 
Q 3450 4097 3450 3541 
Q 3450 3153 3228 2886 
Q 3006 2619 2597 2516 
z
" transform="scale(0.015625)"/>
       </defs>
       <use xlink:href="#DejaVuSans-33"/>
       <use xlink:href="#DejaVuSans-30" x="63.623047"/>
      </g>
     </g>
    </g>
    <g id="xtick_8">
     <g id="line2d_8">
      <g>
       <use xlink:href="#m518214741d" x="334.130446" y="288.430125" style="stroke: #000000; stroke-width: 0.8"/>
      </g>
     </g>
     <g id="text_8">
      <!-- 35 -->
      <g transform="translate(327.767946 303.028562) scale(0.1 -0.1)">
       <use xlink:href="#DejaVuSans-33"/>
       <use xlink:href="#DejaVuSans-35" x="63.623047"/>
      </g>
     </g>
    </g>
    <g id="xtick_9">
     <g id="line2d_9">
      <g>
       <use xlink:href="#m518214741d" x="375.745064" y="288.430125" style="stroke: #000000; stroke-width: 0.8"/>
      </g>
     </g>
     <g id="text_9">
      <!-- 40 -->
      <g transform="translate(369.382564 303.028562) scale(0.1 -0.1)">
       <defs>
        <path id="DejaVuSans-34" d="M 2419 4116 
L 825 1625 
L 2419 1625 
L 2419 4116 
z
M 2253 4666 
L 3047 4666 
L 3047 1625 
L 3713 1625 
L 3713 1100 
L 3047 1100 
L 3047 0 
L 2419 0 
L 2419 1100 
L 313 1100 
L 313 1709 
L 2253 4666 
z
" transform="scale(0.015625)"/>
       </defs>
       <use xlink:href="#DejaVuSans-34"/>
       <use xlink:href="#DejaVuSans-30" x="63.623047"/>
      </g>
     </g>
    </g>
   </g>
   <g id="matplotlib.axis_2">
    <g id="ytick_1">
     <g id="line2d_10">
      <defs>
       <path id="md6cf89069a" d="M 0 0 
L -3.5 0 
" style="stroke: #000000; stroke-width: 0.8"/>
      </defs>
      <g>
       <use xlink:href="#md6cf89069a" x="42.828125" y="276.334125" style="stroke: #000000; stroke-width: 0.8"/>
      </g>
     </g>
     <g id="text_10">
      <!-- 0.000 -->
      <g transform="translate(7.2 280.133344) scale(0.1 -0.1)">
       <defs>
        <path id="DejaVuSans-2e" d="M 684 794 
L 1344 794 
L 1344 0 
L 684 0 
L 684 794 
z
" transform="scale(0.015625)"/>
       </defs>
       <use xlink:href="#DejaVuSans-30"/>
       <use xlink:href="#DejaVuSans-2e" x="63.623047"/>
       <use xlink:href="#DejaVuSans-30" x="95.410156"/>
       <use xlink:href="#DejaVuSans-30" x="159.033203"/>
       <use xlink:href="#DejaVuSans-30" x="222.65625"/>
      </g>
     </g>
    </g>
    <g id="ytick_2">
     <g id="line2d_11">
      <g>
       <use xlink:href="#md6cf89069a" x="42.828125" y="239.757705" style="stroke: #000000; stroke-width: 0.8"/>
      </g>
     </g>
     <g id="text_11">
      <!-- 0.005 -->
      <g transform="translate(7.2 243.556924) scale(0.1 -0.1)">
       <use xlink:href="#DejaVuSans-30"/>
       <use xlink:href="#DejaVuSans-2e" x="63.623047"/>
       <use xlink:href="#DejaVuSans-30" x="95.410156"/>
       <use xlink:href="#DejaVuSans-30" x="159.033203"/>
       <use xlink:href="#DejaVuSans-35" x="222.65625"/>
      </g>
     </g>
    </g>
    <g id="ytick_3">
     <g id="line2d_12">
      <g>
       <use xlink:href="#md6cf89069a" x="42.828125" y="203.181285" style="stroke: #000000; stroke-width: 0.8"/>
      </g>
     </g>
     <g id="text_12">
      <!-- 0.010 -->
      <g transform="translate(7.2 206.980503) scale(0.1 -0.1)">
       <use xlink:href="#DejaVuSans-30"/>
       <use xlink:href="#DejaVuSans-2e" x="63.623047"/>
       <use xlink:href="#DejaVuSans-30" x="95.410156"/>
       <use xlink:href="#DejaVuSans-31" x="159.033203"/>
       <use xlink:href="#DejaVuSans-30" x="222.65625"/>
      </g>
     </g>
    </g>
    <g id="ytick_4">
     <g id="line2d_13">
      <g>
       <use xlink:href="#md6cf89069a" x="42.828125" y="166.604864" style="stroke: #000000; stroke-width: 0.8"/>
      </g>
     </g>
     <g id="text_13">
      <!-- 0.015 -->
      <g transform="translate(7.2 170.404083) scale(0.1 -0.1)">
       <use xlink:href="#DejaVuSans-30"/>
       <use xlink:href="#DejaVuSans-2e" x="63.623047"/>
       <use xlink:href="#DejaVuSans-30" x="95.410156"/>
       <use xlink:href="#DejaVuSans-31" x="159.033203"/>
       <use xlink:href="#DejaVuSans-35" x="222.65625"/>
      </g>
     </g>
    </g>
    <g id="ytick_5">
     <g id="line2d_14">
      <g>
       <use xlink:href="#md6cf89069a" x="42.828125" y="130.028444" style="stroke: #000000; stroke-width: 0.8"/>
      </g>
     </g>
     <g id="text_14">
      <!-- 0.020 -->
      <g transform="translate(7.2 133.827663) scale(0.1 -0.1)">
       <use xlink:href="#DejaVuSans-30"/>
       <use xlink:href="#DejaVuSans-2e" x="63.623047"/>
       <use xlink:href="#DejaVuSans-30" x="95.410156"/>
       <use xlink:href="#DejaVuSans-32" x="159.033203"/>
       <use xlink:href="#DejaVuSans-30" x="222.65625"/>
      </g>
     </g>
    </g>
    <g id="ytick_6">
     <g id="line2d_15">
      <g>
       <use xlink:href="#md6cf89069a" x="42.828125" y="93.452024" style="stroke: #000000; stroke-width: 0.8"/>
      </g>
     </g>
     <g id="text_15">
      <!-- 0.025 -->
      <g transform="translate(7.2 97.251243) scale(0.1 -0.1)">
       <use xlink:href="#DejaVuSans-30"/>
       <use xlink:href="#DejaVuSans-2e" x="63.623047"/>
       <use xlink:href="#DejaVuSans-30" x="95.410156"/>
       <use xlink:href="#DejaVuSans-32" x="159.033203"/>
       <use xlink:href="#DejaVuSans-35" x="222.65625"/>
      </g>
     </g>
    </g>
    <g id="ytick_7">
     <g id="line2d_16">
      <g>
       <use xlink:href="#md6cf89069a" x="42.828125" y="56.875604" style="stroke: #000000; stroke-width: 0.8"/>
      </g>
     </g>
     <g id="text_16">
      <!-- 0.030 -->
      <g transform="translate(7.2 60.674822) scale(0.1 -0.1)">
       <use xlink:href="#DejaVuSans-30"/>
       <use xlink:href="#DejaVuSans-2e" x="63.623047"/>
       <use xlink:href="#DejaVuSans-30" x="95.410156"/>
       <use xlink:href="#DejaVuSans-33" x="159.033203"/>
       <use xlink:href="#DejaVuSans-30" x="222.65625"/>
      </g>
     </g>
    </g>
   </g>
   <g id="line2d_17">
    <path d="M 42.828125 276.334125 
L 43.785551 276.334125 
L 44.742978 42.364023 
L 45.700404 46.611713 
L 46.65783 51.424414 
L 47.615256 52.440768 
L 48.572683 50.62227 
L 49.530109 49.422692 
L 50.487535 41.171097 
L 51.444961 276.334125 
L 54.31724 276.334125 
L 55.274667 49.981773 
L 56.232093 53.773182 
L 57.189519 52.10376 
L 58.146945 57.667302 
L 59.104372 58.524921 
L 60.061798 56.666474 
L 61.019224 52.264912 
L 61.97665 276.334125 
L 64.848929 276.334125 
L 65.806356 48.884937 
L 66.763782 54.660452 
L 67.721208 59.13761 
L 68.678634 62.718422 
L 69.636061 55.351565 
L 70.593487 46.902884 
L 71.550913 41.174771 
L 72.508339 276.334125 
L 75.380618 276.334125 
L 76.338045 42.975049 
L 77.295471 51.392617 
L 78.252897 52.683135 
L 79.210323 48.568916 
L 80.16775 52.936365 
L 81.125176 51.940154 
L 82.082602 45.755597 
L 83.040028 276.334125 
L 85.912307 276.334125 
L 86.869734 46.962873 
L 87.82716 50.992039 
L 88.784586 51.555093 
L 89.742012 48.549697 
L 90.699439 49.096495 
L 92.614291 36.0799 
L 93.571717 276.334125 
L 96.443996 276.334125 
L 97.401423 39.227192 
L 98.358849 49.561893 
L 99.316275 54.659037 
L 100.273701 51.981284 
L 101.231128 53.221133 
L 102.188554 44.900886 
L 103.14598 42.052635 
L 104.103407 276.334125 
L 106.975685 276.334125 
L 107.933112 45.553953 
L 108.890538 52.10059 
L 109.847964 54.509773 
L 110.80539 56.272676 
L 111.762817 56.624472 
L 112.720243 57.541867 
L 113.677669 53.285752 
L 114.635096 276.334125 
L 117.507374 276.334125 
L 118.464801 47.07791 
L 119.422227 52.000888 
L 120.379653 54.023721 
L 121.337079 49.403846 
L 122.294506 50.850631 
L 123.251932 48.368941 
L 124.209358 42.187749 
L 125.166785 276.334125 
L 128.039063 276.334125 
L 128.99649 47.729675 
L 129.953916 52.348589 
L 130.911342 56.287532 
L 131.868768 52.773485 
L 132.826195 55.590745 
L 133.783621 53.116787 
L 134.741047 42.560287 
L 135.698474 276.334125 
L 138.570752 276.334125 
L 139.528179 36.948461 
L 140.485605 43.677217 
L 141.443031 48.122342 
L 142.400457 48.336408 
L 143.357884 52.380906 
L 144.31531 49.715226 
L 145.272736 43.163225 
L 146.230163 276.334125 
L 149.102441 276.334125 
L 150.059868 47.88053 
L 151.017294 52.229822 
L 151.97472 55.468731 
L 152.932146 55.327593 
L 153.889573 56.168943 
L 154.846999 52.361261 
L 155.804425 46.568633 
L 156.761852 276.334125 
L 159.63413 276.334125 
L 160.591557 48.004586 
L 161.548983 53.372647 
L 162.506409 53.644585 
L 163.463835 50.073396 
L 164.421262 50.265129 
L 165.378688 50.7726 
L 166.336114 44.337992 
L 167.293541 276.334125 
L 170.165819 276.334125 
L 171.123246 43.862103 
L 172.080672 53.151166 
L 173.038098 53.580762 
L 173.995524 52.105959 
L 174.952951 49.610822 
L 175.910377 51.102217 
L 176.867803 44.930139 
L 177.82523 276.334125 
L 180.697508 276.334125 
L 181.654935 46.322867 
L 182.612361 49.602769 
L 183.569787 50.766842 
L 184.527213 50.793602 
L 185.48464 51.482192 
L 186.442066 48.454674 
L 187.399492 39.216827 
L 188.356919 276.334125 
L 191.229197 276.334125 
L 192.186624 50.845615 
L 193.14405 61.050827 
L 194.101476 66.562695 
L 195.058902 62.018557 
L 196.016329 59.113952 
L 196.973755 55.28633 
L 197.931181 49.698431 
L 198.888608 276.334125 
L 201.760886 276.334125 
L 202.718313 39.51787 
L 203.675739 48.349773 
L 204.633165 49.105085 
L 205.590591 50.559755 
L 206.548018 49.270741 
L 207.505444 47.564508 
L 208.46287 34.414125 
L 209.420297 276.334125 
L 212.292575 276.334125 
L 213.250002 38.721434 
L 214.207428 44.663258 
L 215.164854 48.897604 
L 216.12228 51.474805 
L 217.079707 54.411571 
L 218.037133 54.881085 
L 218.994559 50.267519 
L 219.951986 276.334125 
L 222.824264 276.334125 
L 223.781691 46.096924 
L 224.739117 49.359784 
L 225.696543 54.617456 
L 226.65397 50.851382 
L 227.611396 48.818696 
L 228.568822 48.286695 
L 229.526248 42.913118 
L 230.483675 276.334125 
L 233.355953 276.334125 
L 234.31338 39.112155 
L 235.270806 44.904003 
L 236.228232 47.846002 
L 237.185659 51.439342 
L 238.143085 49.579496 
L 239.100511 52.499941 
L 240.057937 46.665101 
L 241.015364 276.334125 
L 243.887642 276.334125 
L 244.845069 49.769258 
L 245.802495 56.099076 
L 246.759921 56.51803 
L 247.717348 54.501712 
L 248.674774 58.756313 
L 249.6322 58.468759 
L 250.589626 54.784028 
L 251.547053 276.334125 
L 254.419331 276.334125 
L 255.376758 49.327341 
L 256.334184 52.941327 
L 257.29161 59.645031 
L 258.249037 54.106568 
L 259.206463 50.53151 
L 260.163889 45.439529 
L 261.121315 37.295251 
L 262.078742 276.334125 
L 264.95102 276.334125 
L 265.908447 42.547552 
L 266.865873 49.20695 
L 267.823299 53.507508 
L 268.780726 53.806287 
L 269.738152 56.403865 
L 270.695578 51.176329 
L 271.653004 47.083293 
L 272.610431 276.334125 
L 275.482709 276.334125 
L 276.440136 41.620862 
L 277.397562 51.157138 
L 278.354988 54.070304 
L 280.269841 51.381557 
L 281.227267 46.980839 
L 282.184693 39.421621 
L 283.14212 276.334125 
L 286.014398 276.334125 
L 286.971825 41.326447 
L 287.929251 45.904996 
L 288.886677 52.936932 
L 289.844104 55.152322 
L 290.80153 48.006562 
L 292.716382 37.084553 
L 293.673809 276.334125 
L 296.546087 276.334125 
L 297.503514 40.702583 
L 298.46094 45.951894 
L 299.418366 48.332229 
L 300.375793 47.883202 
L 301.333219 46.631207 
L 302.290645 48.628711 
L 303.248071 43.539844 
L 304.205498 276.334125 
L 307.077776 276.334125 
L 308.035203 43.525296 
L 308.992629 48.251511 
L 309.950055 49.461237 
L 310.907482 49.210728 
L 311.864908 52.868809 
L 312.822334 49.391868 
L 313.77976 42.22211 
L 314.737187 276.334125 
L 317.609465 276.334125 
L 318.566892 38.072474 
L 319.524318 49.223828 
L 320.481744 51.389034 
L 321.439171 51.478644 
L 322.396597 49.856373 
L 323.354023 48.731172 
L 324.311449 40.992659 
L 325.268876 276.334125 
L 328.141154 276.334125 
L 329.098581 40.369647 
L 330.056007 50.611956 
L 331.013433 50.876911 
L 331.97086 50.771202 
L 332.928286 48.309962 
L 333.885712 51.153156 
L 334.843138 44.42261 
L 335.800565 276.334125 
L 338.672843 276.334125 
L 339.63027 45.580171 
L 340.587696 54.686386 
L 341.545122 55.790384 
L 342.502549 54.424368 
L 343.459975 57.222095 
L 344.417401 52.098672 
L 345.374827 44.837994 
L 346.332254 276.334125 
L 349.204533 276.334125 
L 350.161959 41.674336 
L 351.119385 45.475006 
L 352.076811 52.803076 
L 353.034238 54.520504 
L 353.991664 57.621669 
L 354.94909 52.364722 
L 355.906516 36.8691 
L 356.863943 276.334125 
L 359.736222 276.334125 
L 360.693648 46.626551 
L 361.651074 51.413655 
L 362.6085 54.718236 
L 363.565927 54.468561 
L 364.523353 52.391077 
L 365.480779 52.563914 
L 366.438205 42.296969 
L 367.395632 276.334125 
L 370.267911 276.334125 
L 371.225337 42.997573 
L 372.182763 49.209657 
L 373.140189 48.909345 
L 374.097616 53.167711 
L 375.055042 50.025716 
L 376.012468 49.19592 
L 376.969894 44.727745 
L 377.927321 276.334125 
L 380.7996 276.334125 
L 381.757026 41.436618 
L 382.714452 49.731151 
L 383.671878 51.656442 
L 384.629305 55.3909 
L 385.586731 51.623652 
L 386.544157 52.052945 
L 387.501583 43.722898 
L 388.45901 276.334125 
L 391.331289 276.334125 
L 392.288715 46.299964 
L 393.246141 52.740941 
L 394.203567 54.866538 
L 395.160994 52.124354 
L 397.075846 43.831958 
L 398.033272 38.266831 
L 398.990699 276.334125 
L 399.948125 276.334125 
L 399.948125 276.334125 
" clip-path="url(#pdb8d041975)" style="fill: none; stroke: #1f77b4; stroke-width: 1.5; stroke-linecap: square"/>
   </g>
   <g id="patch_3">
    <path d="M 42.828125 288.430125 
L 42.828125 22.318125 
" style="fill: none; stroke: #000000; stroke-width: 0.8; stroke-linejoin: miter; stroke-linecap: square"/>
   </g>
   <g id="patch_4">
    <path d="M 399.948125 288.430125 
L 399.948125 22.318125 
" style="fill: none; stroke: #000000; stroke-width: 0.8; stroke-linejoin: miter; stroke-linecap: square"/>
   </g>
   <g id="patch_5">
    <path d="M 42.828125 288.430125 
L 399.948125 288.430125 
" style="fill: none; stroke: #000000; stroke-width: 0.8; stroke-linejoin: miter; stroke-linecap: square"/>
   </g>
   <g id="patch_6">
    <path d="M 42.828125 22.318125 
L 399.948125 22.318125 
" style="fill: none; stroke: #000000; stroke-width: 0.8; stroke-linejoin: miter; stroke-linecap: square"/>
   </g>
   <g id="text_17">
    <!-- Fission Density -->
    <g transform="translate(176.59625 16.318125) scale(0.12 -0.12)">
     <defs>
      <path id="DejaVuSans-46" d="M 628 4666 
L 3309 4666 
L 3309 4134 
L 1259 4134 
L 1259 2759 
L 3109 2759 
L 3109 2228 
L 1259 2228 
L 1259 0 
L 628 0 
L 628 4666 
z
" transform="scale(0.015625)"/>
      <path id="DejaVuSans-69" d="M 603 3500 
L 1178 3500 
L 1178 0 
L 603 0 
L 603 3500 
z
M 603 4863 
L 1178 4863 
L 1178 4134 
L 603 4134 
L 603 4863 
z
" transform="scale(0.015625)"/>
      <path id="DejaVuSans-73" d="M 2834 3397 
L 2834 2853 
Q 2591 2978 2328 3040 
Q 2066 3103 1784 3103 
Q 1356 3103 1142 2972 
Q 928 2841 928 2578 
Q 928 2378 1081 2264 
Q 1234 2150 1697 2047 
L 1894 2003 
Q 2506 1872 2764 1633 
Q 3022 1394 3022 966 
Q 3022 478 2636 193 
Q 2250 -91 1575 -91 
Q 1294 -91 989 -36 
Q 684 19 347 128 
L 347 722 
Q 666 556 975 473 
Q 1284 391 1588 391 
Q 1994 391 2212 530 
Q 2431 669 2431 922 
Q 2431 1156 2273 1281 
Q 2116 1406 1581 1522 
L 1381 1569 
Q 847 1681 609 1914 
Q 372 2147 372 2553 
Q 372 3047 722 3315 
Q 1072 3584 1716 3584 
Q 2034 3584 2315 3537 
Q 2597 3491 2834 3397 
z
" transform="scale(0.015625)"/>
      <path id="DejaVuSans-6f" d="M 1959 3097 
Q 1497 3097 1228 2736 
Q 959 2375 959 1747 
Q 959 1119 1226 758 
Q 1494 397 1959 397 
Q 2419 397 2687 759 
Q 2956 1122 2956 1747 
Q 2956 2369 2687 2733 
Q 2419 3097 1959 3097 
z
M 1959 3584 
Q 2709 3584 3137 3096 
Q 3566 2609 3566 1747 
Q 3566 888 3137 398 
Q 2709 -91 1959 -91 
Q 1206 -91 779 398 
Q 353 888 353 1747 
Q 353 2609 779 3096 
Q 1206 3584 1959 3584 
z
" transform="scale(0.015625)"/>
      <path id="DejaVuSans-6e" d="M 3513 2113 
L 3513 0 
L 2938 0 
L 2938 2094 
Q 2938 2591 2744 2837 
Q 2550 3084 2163 3084 
Q 1697 3084 1428 2787 
Q 1159 2491 1159 1978 
L 1159 0 
L 581 0 
L 581 3500 
L 1159 3500 
L 1159 2956 
Q 1366 3272 1645 3428 
Q 1925 3584 2291 3584 
Q 2894 3584 3203 3211 
Q 3513 2838 3513 2113 
z
" transform="scale(0.015625)"/>
      <path id="DejaVuSans-20" transform="scale(0.015625)"/>
      <path id="DejaVuSans-44" d="M 1259 4147 
L 1259 519 
L 2022 519 
Q 2988 519 3436 956 
Q 3884 1394 3884 2338 
Q 3884 3275 3436 3711 
Q 2988 4147 2022 4147 
L 1259 4147 
z
M 628 4666 
L 1925 4666 
Q 3281 4666 3915 4102 
Q 4550 3538 4550 2338 
Q 4550 1131 3912 565 
Q 3275 0 1925 0 
L 628 0 
L 628 4666 
z
" transform="scale(0.015625)"/>
      <path id="DejaVuSans-65" d="M 3597 1894 
L 3597 1613 
L 953 1613 
Q 991 1019 1311 708 
Q 1631 397 2203 397 
Q 2534 397 2845 478 
Q 3156 559 3463 722 
L 3463 178 
Q 3153 47 2828 -22 
Q 2503 -91 2169 -91 
Q 1331 -91 842 396 
Q 353 884 353 1716 
Q 353 2575 817 3079 
Q 1281 3584 2069 3584 
Q 2775 3584 3186 3129 
Q 3597 2675 3597 1894 
z
M 3022 2063 
Q 3016 2534 2758 2815 
Q 2500 3097 2075 3097 
Q 1594 3097 1305 2825 
Q 1016 2553 972 2059 
L 3022 2063 
z
" transform="scale(0.015625)"/>
      <path id="DejaVuSans-74" d="M 1172 4494 
L 1172 3500 
L 2356 3500 
L 2356 3053 
L 1172 3053 
L 1172 1153 
Q 1172 725 1289 603 
Q 1406 481 1766 481 
L 2356 481 
L 2356 0 
L 1766 0 
Q 1100 0 847 248 
Q 594 497 594 1153 
L 594 3053 
L 172 3053 
L 172 3500 
L 594 3500 
L 594 4494 
L 1172 4494 
z
" transform="scale(0.015625)"/>
      <path id="DejaVuSans-79" d="M 2059 -325 
Q 1816 -950 1584 -1140 
Q 1353 -1331 966 -1331 
L 506 -1331 
L 506 -850 
L 844 -850 
Q 1081 -850 1212 -737 
Q 1344 -625 1503 -206 
L 1606 56 
L 191 3500 
L 800 3500 
L 1894 763 
L 2988 3500 
L 3597 3500 
L 2059 -325 
z
" transform="scale(0.015625)"/>
     </defs>
     <use xlink:href="#DejaVuSans-46"/>
     <use xlink:href="#DejaVuSans-69" x="50.269531"/>
     <use xlink:href="#DejaVuSans-73" x="78.052734"/>
     <use xlink:href="#DejaVuSans-73" x="130.152344"/>
     <use xlink:href="#DejaVuSans-69" x="182.251953"/>
     <use xlink:href="#DejaVuSans-6f" x="210.035156"/>
     <use xlink:href="#DejaVuSans-6e" x="271.216797"/>
     <use xlink:href="#DejaVuSans-20" x="334.595703"/>
     <use xlink:href="#DejaVuSans-44" x="366.382812"/>
     <use xlink:href="#DejaVuSans-65" x="443.384766"/>
     <use xlink:href="#DejaVuSans-6e" x="504.908203"/>
     <use xlink:href="#DejaVuSans-73" x="568.287109"/>
     <use xlink:href="#DejaVuSans-69" x="620.386719"/>
     <use xlink:href="#DejaVuSans-74" x="648.169922"/>
     <use xlink:href="#DejaVuSans-79" x="687.378906"/>
    </g>
   </g>
  </g>
 </g>
 <defs>
  <clipPath id="pdb8d041975">
   <rect x="42.828125" y="22.318125" width="357.12" height="266.112"/>
  </clipPath>
 </defs>
</svg>
