<?xml version="1.0" encoding="utf-8" standalone="no"?>
<!DOCTYPE svg PUBLIC "-//W3C//DTD SVG 1.1//EN"
  "http://www.w3.org/Graphics/SVG/1.1/DTD/svg11.dtd">
<svg xmlns:xlink="http://www.w3.org/1999/xlink" width="407.148125pt" height="312.30825pt" viewBox="0 0 407.148125 312.30825" xmlns="http://www.w3.org/2000/svg" version="1.1">
 <metadata>
  <rdf:RDF xmlns:dc="http://purl.org/dc/elements/1.1/" xmlns:cc="http://creativecommons.org/ns#" xmlns:rdf="http://www.w3.org/1999/02/22-rdf-syntax-ns#">
   <cc:Work>
    <dc:type rdf:resource="http://purl.org/dc/dcmitype/StillImage"/>
    <dc:date>2024-03-20T20:13:31.203369</dc:date>
    <dc:format>image/svg+xml</dc:format>
    <dc:creator>
     <cc:Agent>
      <dc:title>Matplotlib v3.8.3, https://matplotlib.org/</dc:title>
     </cc:Agent>
    </dc:creator>
   </cc:Work>
  </rdf:RDF>
 </metadata>
 <defs>
  <style type="text/css">*{stroke-linejoin: round; stroke-linecap: butt}</style>
 </defs>
 <g id="figure_1">
  <g id="patch_1">
   <path d="M 0 312.30825 
L 407.148125 312.30825 
L 407.148125 0 
L 0 0 
z
" style="fill: #ffffff"/>
  </g>
  <g id="axes_1">
   <g id="patch_2">
    <path d="M 42.828125 288.430125 
L 399.948125 288.430125 
L 399.948125 22.318125 
L 42.828125 22.318125 
z
" style="fill: #ffffff"/>
   </g>
   <g id="matplotlib.axis_1">
    <g id="xtick_1">
     <g id="line2d_1">
      <defs>
       <path id="me8b97e0969" d="M 0 0 
L 0 3.5 
" style="stroke: #000000; stroke-width: 0.8"/>
      </defs>
      <g>
       <use xlink:href="#me8b97e0969" x="42.828125" y="288.430125" style="stroke: #000000; stroke-width: 0.8"/>
      </g>
     </g>
     <g id="text_1">
      <!-- 0 -->
      <g transform="translate(39.646875 303.028562) scale(0.1 -0.1)">
       <defs>
        <path id="DejaVuSans-30" d="M 2034 4250 
Q 1547 4250 1301 3770 
Q 1056 3291 1056 2328 
Q 1056 1369 1301 889 
Q 1547 409 2034 409 
Q 2525 409 2770 889 
Q 3016 1369 3016 2328 
Q 3016 3291 2770 3770 
Q 2525 4250 2034 4250 
z
M 2034 4750 
Q 2819 4750 3233 4129 
Q 3647 3509 3647 2328 
Q 3647 1150 3233 529 
Q 2819 -91 2034 -91 
Q 1250 -91 836 529 
Q 422 1150 422 2328 
Q 422 3509 836 4129 
Q 1250 4750 2034 4750 
z
" transform="scale(0.015625)"/>
       </defs>
       <use xlink:href="#DejaVuSans-30"/>
      </g>
     </g>
    </g>
    <g id="xtick_2">
     <g id="line2d_2">
      <g>
       <use xlink:href="#me8b97e0969" x="84.652452" y="288.430125" style="stroke: #000000; stroke-width: 0.8"/>
      </g>
     </g>
     <g id="text_2">
      <!-- 5 -->
      <g transform="translate(81.471202 303.028562) scale(0.1 -0.1)">
       <defs>
        <path id="DejaVuSans-35" d="M 691 4666 
L 3169 4666 
L 3169 4134 
L 1269 4134 
L 1269 2991 
Q 1406 3038 1543 3061 
Q 1681 3084 1819 3084 
Q 2600 3084 3056 2656 
Q 3513 2228 3513 1497 
Q 3513 744 3044 326 
Q 2575 -91 1722 -91 
Q 1428 -91 1123 -41 
Q 819 9 494 109 
L 494 744 
Q 775 591 1075 516 
Q 1375 441 1709 441 
Q 2250 441 2565 725 
Q 2881 1009 2881 1497 
Q 2881 1984 2565 2268 
Q 2250 2553 1709 2553 
Q 1456 2553 1204 2497 
Q 953 2441 691 2322 
L 691 4666 
z
" transform="scale(0.015625)"/>
       </defs>
       <use xlink:href="#DejaVuSans-35"/>
      </g>
     </g>
    </g>
    <g id="xtick_3">
     <g id="line2d_3">
      <g>
       <use xlink:href="#me8b97e0969" x="126.476778" y="288.430125" style="stroke: #000000; stroke-width: 0.8"/>
      </g>
     </g>
     <g id="text_3">
      <!-- 10 -->
      <g transform="translate(120.114278 303.028562) scale(0.1 -0.1)">
       <defs>
        <path id="DejaVuSans-31" d="M 794 531 
L 1825 531 
L 1825 4091 
L 703 3866 
L 703 4441 
L 1819 4666 
L 2450 4666 
L 2450 531 
L 3481 531 
L 3481 0 
L 794 0 
L 794 531 
z
" transform="scale(0.015625)"/>
       </defs>
       <use xlink:href="#DejaVuSans-31"/>
       <use xlink:href="#DejaVuSans-30" x="63.623047"/>
      </g>
     </g>
    </g>
    <g id="xtick_4">
     <g id="line2d_4">
      <g>
       <use xlink:href="#me8b97e0969" x="168.301105" y="288.430125" style="stroke: #000000; stroke-width: 0.8"/>
      </g>
     </g>
     <g id="text_4">
      <!-- 15 -->
      <g transform="translate(161.938605 303.028562) scale(0.1 -0.1)">
       <use xlink:href="#DejaVuSans-31"/>
       <use xlink:href="#DejaVuSans-35" x="63.623047"/>
      </g>
     </g>
    </g>
    <g id="xtick_5">
     <g id="line2d_5">
      <g>
       <use xlink:href="#me8b97e0969" x="210.125431" y="288.430125" style="stroke: #000000; stroke-width: 0.8"/>
      </g>
     </g>
     <g id="text_5">
      <!-- 20 -->
      <g transform="translate(203.762931 303.028562) scale(0.1 -0.1)">
       <defs>
        <path id="DejaVuSans-32" d="M 1228 531 
L 3431 531 
L 3431 0 
L 469 0 
L 469 531 
Q 828 903 1448 1529 
Q 2069 2156 2228 2338 
Q 2531 2678 2651 2914 
Q 2772 3150 2772 3378 
Q 2772 3750 2511 3984 
Q 2250 4219 1831 4219 
Q 1534 4219 1204 4116 
Q 875 4013 500 3803 
L 500 4441 
Q 881 4594 1212 4672 
Q 1544 4750 1819 4750 
Q 2544 4750 2975 4387 
Q 3406 4025 3406 3419 
Q 3406 3131 3298 2873 
Q 3191 2616 2906 2266 
Q 2828 2175 2409 1742 
Q 1991 1309 1228 531 
z
" transform="scale(0.015625)"/>
       </defs>
       <use xlink:href="#DejaVuSans-32"/>
       <use xlink:href="#DejaVuSans-30" x="63.623047"/>
      </g>
     </g>
    </g>
    <g id="xtick_6">
     <g id="line2d_6">
      <g>
       <use xlink:href="#me8b97e0969" x="251.949758" y="288.430125" style="stroke: #000000; stroke-width: 0.8"/>
      </g>
     </g>
     <g id="text_6">
      <!-- 25 -->
      <g transform="translate(245.587258 303.028562) scale(0.1 -0.1)">
       <use xlink:href="#DejaVuSans-32"/>
       <use xlink:href="#DejaVuSans-35" x="63.623047"/>
      </g>
     </g>
    </g>
    <g id="xtick_7">
     <g id="line2d_7">
      <g>
       <use xlink:href="#me8b97e0969" x="293.774085" y="288.430125" style="stroke: #000000; stroke-width: 0.8"/>
      </g>
     </g>
     <g id="text_7">
      <!-- 30 -->
      <g transform="translate(287.411585 303.028562) scale(0.1 -0.1)">
       <defs>
        <path id="DejaVuSans-33" d="M 2597 2516 
Q 3050 2419 3304 2112 
Q 3559 1806 3559 1356 
Q 3559 666 3084 287 
Q 2609 -91 1734 -91 
Q 1441 -91 1130 -33 
Q 819 25 488 141 
L 488 750 
Q 750 597 1062 519 
Q 1375 441 1716 441 
Q 2309 441 2620 675 
Q 2931 909 2931 1356 
Q 2931 1769 2642 2001 
Q 2353 2234 1838 2234 
L 1294 2234 
L 1294 2753 
L 1863 2753 
Q 2328 2753 2575 2939 
Q 2822 3125 2822 3475 
Q 2822 3834 2567 4026 
Q 2313 4219 1838 4219 
Q 1578 4219 1281 4162 
Q 984 4106 628 3988 
L 628 4550 
Q 988 4650 1302 4700 
Q 1616 4750 1894 4750 
Q 2613 4750 3031 4423 
Q 3450 4097 3450 3541 
Q 3450 3153 3228 2886 
Q 3006 2619 2597 2516 
z
" transform="scale(0.015625)"/>
       </defs>
       <use xlink:href="#DejaVuSans-33"/>
       <use xlink:href="#DejaVuSans-30" x="63.623047"/>
      </g>
     </g>
    </g>
    <g id="xtick_8">
     <g id="line2d_8">
      <g>
       <use xlink:href="#me8b97e0969" x="335.598411" y="288.430125" style="stroke: #000000; stroke-width: 0.8"/>
      </g>
     </g>
     <g id="text_8">
      <!-- 35 -->
      <g transform="translate(329.235911 303.028562) scale(0.1 -0.1)">
       <use xlink:href="#DejaVuSans-33"/>
       <use xlink:href="#DejaVuSans-35" x="63.623047"/>
      </g>
     </g>
    </g>
    <g id="xtick_9">
     <g id="line2d_9">
      <g>
       <use xlink:href="#me8b97e0969" x="377.422738" y="288.430125" style="stroke: #000000; stroke-width: 0.8"/>
      </g>
     </g>
     <g id="text_9">
      <!-- 40 -->
      <g transform="translate(371.060238 303.028562) scale(0.1 -0.1)">
       <defs>
        <path id="DejaVuSans-34" d="M 2419 4116 
L 825 1625 
L 2419 1625 
L 2419 4116 
z
M 2253 4666 
L 3047 4666 
L 3047 1625 
L 3713 1625 
L 3713 1100 
L 3047 1100 
L 3047 0 
L 2419 0 
L 2419 1100 
L 313 1100 
L 313 1709 
L 2253 4666 
z
" transform="scale(0.015625)"/>
       </defs>
       <use xlink:href="#DejaVuSans-34"/>
       <use xlink:href="#DejaVuSans-30" x="63.623047"/>
      </g>
     </g>
    </g>
   </g>
   <g id="matplotlib.axis_2">
    <g id="ytick_1">
     <g id="line2d_10">
      <defs>
       <path id="m34d14da62f" d="M 0 0 
L -3.5 0 
" style="stroke: #000000; stroke-width: 0.8"/>
      </defs>
      <g>
       <use xlink:href="#m34d14da62f" x="42.828125" y="276.334125" style="stroke: #000000; stroke-width: 0.8"/>
      </g>
     </g>
     <g id="text_10">
      <!-- 0.000 -->
      <g transform="translate(7.2 280.133344) scale(0.1 -0.1)">
       <defs>
        <path id="DejaVuSans-2e" d="M 684 794 
L 1344 794 
L 1344 0 
L 684 0 
L 684 794 
z
" transform="scale(0.015625)"/>
       </defs>
       <use xlink:href="#DejaVuSans-30"/>
       <use xlink:href="#DejaVuSans-2e" x="63.623047"/>
       <use xlink:href="#DejaVuSans-30" x="95.410156"/>
       <use xlink:href="#DejaVuSans-30" x="159.033203"/>
       <use xlink:href="#DejaVuSans-30" x="222.65625"/>
      </g>
     </g>
    </g>
    <g id="ytick_2">
     <g id="line2d_11">
      <g>
       <use xlink:href="#m34d14da62f" x="42.828125" y="242.897054" style="stroke: #000000; stroke-width: 0.8"/>
      </g>
     </g>
     <g id="text_11">
      <!-- 0.005 -->
      <g transform="translate(7.2 246.696273) scale(0.1 -0.1)">
       <use xlink:href="#DejaVuSans-30"/>
       <use xlink:href="#DejaVuSans-2e" x="63.623047"/>
       <use xlink:href="#DejaVuSans-30" x="95.410156"/>
       <use xlink:href="#DejaVuSans-30" x="159.033203"/>
       <use xlink:href="#DejaVuSans-35" x="222.65625"/>
      </g>
     </g>
    </g>
    <g id="ytick_3">
     <g id="line2d_12">
      <g>
       <use xlink:href="#m34d14da62f" x="42.828125" y="209.459983" style="stroke: #000000; stroke-width: 0.8"/>
      </g>
     </g>
     <g id="text_12">
      <!-- 0.010 -->
      <g transform="translate(7.2 213.259202) scale(0.1 -0.1)">
       <use xlink:href="#DejaVuSans-30"/>
       <use xlink:href="#DejaVuSans-2e" x="63.623047"/>
       <use xlink:href="#DejaVuSans-30" x="95.410156"/>
       <use xlink:href="#DejaVuSans-31" x="159.033203"/>
       <use xlink:href="#DejaVuSans-30" x="222.65625"/>
      </g>
     </g>
    </g>
    <g id="ytick_4">
     <g id="line2d_13">
      <g>
       <use xlink:href="#m34d14da62f" x="42.828125" y="176.022912" style="stroke: #000000; stroke-width: 0.8"/>
      </g>
     </g>
     <g id="text_13">
      <!-- 0.015 -->
      <g transform="translate(7.2 179.822131) scale(0.1 -0.1)">
       <use xlink:href="#DejaVuSans-30"/>
       <use xlink:href="#DejaVuSans-2e" x="63.623047"/>
       <use xlink:href="#DejaVuSans-30" x="95.410156"/>
       <use xlink:href="#DejaVuSans-31" x="159.033203"/>
       <use xlink:href="#DejaVuSans-35" x="222.65625"/>
      </g>
     </g>
    </g>
    <g id="ytick_5">
     <g id="line2d_14">
      <g>
       <use xlink:href="#m34d14da62f" x="42.828125" y="142.585842" style="stroke: #000000; stroke-width: 0.8"/>
      </g>
     </g>
     <g id="text_14">
      <!-- 0.020 -->
      <g transform="translate(7.2 146.38506) scale(0.1 -0.1)">
       <use xlink:href="#DejaVuSans-30"/>
       <use xlink:href="#DejaVuSans-2e" x="63.623047"/>
       <use xlink:href="#DejaVuSans-30" x="95.410156"/>
       <use xlink:href="#DejaVuSans-32" x="159.033203"/>
       <use xlink:href="#DejaVuSans-30" x="222.65625"/>
      </g>
     </g>
    </g>
    <g id="ytick_6">
     <g id="line2d_15">
      <g>
       <use xlink:href="#m34d14da62f" x="42.828125" y="109.148771" style="stroke: #000000; stroke-width: 0.8"/>
      </g>
     </g>
     <g id="text_15">
      <!-- 0.025 -->
      <g transform="translate(7.2 112.947989) scale(0.1 -0.1)">
       <use xlink:href="#DejaVuSans-30"/>
       <use xlink:href="#DejaVuSans-2e" x="63.623047"/>
       <use xlink:href="#DejaVuSans-30" x="95.410156"/>
       <use xlink:href="#DejaVuSans-32" x="159.033203"/>
       <use xlink:href="#DejaVuSans-35" x="222.65625"/>
      </g>
     </g>
    </g>
    <g id="ytick_7">
     <g id="line2d_16">
      <g>
       <use xlink:href="#m34d14da62f" x="42.828125" y="75.7117" style="stroke: #000000; stroke-width: 0.8"/>
      </g>
     </g>
     <g id="text_16">
      <!-- 0.030 -->
      <g transform="translate(7.2 79.510919) scale(0.1 -0.1)">
       <use xlink:href="#DejaVuSans-30"/>
       <use xlink:href="#DejaVuSans-2e" x="63.623047"/>
       <use xlink:href="#DejaVuSans-30" x="95.410156"/>
       <use xlink:href="#DejaVuSans-33" x="159.033203"/>
       <use xlink:href="#DejaVuSans-30" x="222.65625"/>
      </g>
     </g>
    </g>
    <g id="ytick_8">
     <g id="line2d_17">
      <g>
       <use xlink:href="#m34d14da62f" x="42.828125" y="42.274629" style="stroke: #000000; stroke-width: 0.8"/>
      </g>
     </g>
     <g id="text_17">
      <!-- 0.035 -->
      <g transform="translate(7.2 46.073848) scale(0.1 -0.1)">
       <use xlink:href="#DejaVuSans-30"/>
       <use xlink:href="#DejaVuSans-2e" x="63.623047"/>
       <use xlink:href="#DejaVuSans-30" x="95.410156"/>
       <use xlink:href="#DejaVuSans-33" x="159.033203"/>
       <use xlink:href="#DejaVuSans-35" x="222.65625"/>
      </g>
     </g>
    </g>
   </g>
   <g id="line2d_18">
    <path d="M 42.828125 276.334125 
L 43.785551 276.334125 
L 44.742978 60.198892 
L 45.700404 68.927532 
L 46.65783 69.844447 
L 47.615256 74.96575 
L 48.572683 68.481251 
L 49.530109 59.316002 
L 50.487535 53.033455 
L 51.444961 276.334125 
L 54.31724 276.334125 
L 55.274667 54.313906 
L 56.232093 61.473657 
L 57.189519 66.242007 
L 59.104372 64.593898 
L 60.061798 62.329507 
L 61.019224 54.047715 
L 61.97665 276.334125 
L 64.848929 276.334125 
L 65.806356 51.930906 
L 66.763782 58.806541 
L 68.678634 69.355688 
L 69.636061 65.320459 
L 70.593487 62.441674 
L 71.550913 61.884717 
L 72.508339 276.334125 
L 75.380618 276.334125 
L 76.338045 63.032435 
L 77.295471 64.717524 
L 78.252897 67.63637 
L 79.210323 69.398675 
L 80.16775 67.312026 
L 81.125176 62.272971 
L 82.082602 58.772099 
L 83.040028 276.334125 
L 85.912307 276.334125 
L 86.869734 56.617923 
L 87.82716 61.074091 
L 88.784586 62.184843 
L 89.742012 59.046457 
L 90.699439 59.764073 
L 91.656865 53.306666 
L 92.614291 51.269145 
L 93.571717 276.334125 
L 96.443996 276.334125 
L 97.401423 49.719395 
L 98.358849 54.245374 
L 99.316275 46.391242 
L 100.273701 276.334125 
L 103.14598 276.334125 
L 104.103407 56.4561 
L 105.060833 59.57061 
L 106.018259 56.717009 
L 106.975685 61.5778 
L 107.933112 63.157573 
L 108.890538 61.707704 
L 109.847964 56.786723 
L 110.80539 276.334125 
L 113.677669 276.334125 
L 114.635096 56.245984 
L 115.592522 63.591338 
L 116.549948 66.51822 
L 117.507374 66.272859 
L 118.464801 65.612648 
L 119.422227 57.79993 
L 120.379653 56.786975 
L 121.337079 276.334125 
L 124.209358 276.334125 
L 125.166785 60.707525 
L 127.081637 74.126059 
L 128.039063 76.071212 
L 128.99649 71.241611 
L 129.953916 68.209035 
L 130.911342 62.861914 
L 131.868768 276.334125 
L 134.741047 276.334125 
L 135.698474 62.673728 
L 136.6559 64.563301 
L 137.613326 64.691161 
L 138.570752 70.40508 
L 139.528179 67.063626 
L 140.485605 66.761007 
L 141.443031 60.107864 
L 142.400457 276.334125 
L 145.272736 276.334125 
L 146.230163 61.324747 
L 147.187589 69.644465 
L 148.145015 73.750073 
L 149.102441 76.614099 
L 150.059868 73.110176 
L 151.017294 73.502799 
L 151.97472 69.355135 
L 152.932146 276.334125 
L 155.804425 276.334125 
L 156.761852 61.133525 
L 157.719278 67.97955 
L 158.676704 76.363656 
L 159.63413 79.230835 
L 160.591557 80.019352 
L 161.548983 77.364179 
L 162.506409 68.709516 
L 163.463835 276.334125 
L 166.336114 276.334125 
L 167.293541 64.098624 
L 168.250967 65.271007 
L 169.208393 75.75894 
L 170.165819 77.469849 
L 171.123246 76.759466 
L 172.080672 74.015855 
L 173.038098 65.809305 
L 173.995524 276.334125 
L 176.867803 276.334125 
L 177.82523 63.24809 
L 178.782656 70.26169 
L 179.740082 72.284544 
L 180.697508 71.112131 
L 181.654935 73.889969 
L 182.612361 72.649108 
L 183.569787 65.424468 
L 184.527213 276.334125 
L 187.399492 276.334125 
L 188.356919 62.914589 
L 189.314345 70.536954 
L 190.271771 71.277968 
L 191.229197 73.538682 
L 192.186624 75.312426 
L 193.14405 68.758375 
L 194.101476 63.619493 
L 195.058902 276.334125 
L 197.931181 276.334125 
L 198.888608 58.066695 
L 199.846034 64.591208 
L 200.80346 62.066327 
L 201.760886 64.926061 
L 202.718313 59.504201 
L 204.633165 46.434471 
L 205.590591 276.334125 
L 208.46287 276.334125 
L 209.420297 48.94102 
L 211.335149 58.826561 
L 212.292575 58.826954 
L 213.250002 51.005522 
L 214.207428 40.874288 
L 215.164854 34.414125 
L 216.12228 276.334125 
L 222.824264 276.334125 
L 223.781691 38.572028 
L 224.739117 47.53322 
L 225.696543 51.631935 
L 226.65397 53.757785 
L 227.611396 54.323079 
L 228.568822 50.958411 
L 229.526248 48.456484 
L 230.483675 276.334125 
L 233.355953 276.334125 
L 234.31338 52.013517 
L 235.270806 61.70311 
L 236.228232 61.043344 
L 237.185659 63.624539 
L 238.143085 59.050108 
L 239.100511 61.049353 
L 240.057937 52.119592 
L 241.015364 276.334125 
L 243.887642 276.334125 
L 244.845069 56.56093 
L 245.802495 67.223287 
L 246.759921 69.563023 
L 247.717348 70.013406 
L 248.674774 64.157339 
L 249.6322 61.33841 
L 250.589626 55.196465 
L 251.547053 276.334125 
L 254.419331 276.334125 
L 255.376758 61.883329 
L 256.334184 68.688438 
L 257.29161 73.660858 
L 258.249037 73.31944 
L 259.206463 68.72582 
L 260.163889 67.682092 
L 261.121315 58.911503 
L 262.078742 276.334125 
L 264.95102 276.334125 
L 265.908447 63.286121 
L 266.865873 67.509368 
L 267.823299 72.774168 
L 268.780726 75.205754 
L 269.738152 73.191282 
L 271.653004 63.177299 
L 272.610431 276.334125 
L 275.482709 276.334125 
L 276.440136 66.827045 
L 278.354988 77.185953 
L 279.312415 77.381559 
L 280.269841 71.850265 
L 281.227267 74.103285 
L 282.184693 68.866073 
L 283.14212 276.334125 
L 286.014398 276.334125 
L 286.971825 65.008152 
L 287.929251 71.024047 
L 288.886677 75.052898 
L 289.844104 67.700943 
L 290.80153 73.719654 
L 292.716382 60.632949 
L 293.673809 276.334125 
L 296.546087 276.334125 
L 297.503514 65.963131 
L 298.46094 69.766237 
L 299.418366 72.841464 
L 300.375793 72.455268 
L 301.333219 74.183753 
L 302.290645 69.966784 
L 303.248071 70.465326 
L 304.205498 276.334125 
L 307.077776 276.334125 
L 308.035203 69.49128 
L 308.992629 76.491639 
L 309.950055 72.20496 
L 310.907482 71.308739 
L 311.864908 73.594112 
L 312.822334 69.245231 
L 313.77976 61.358473 
L 314.737187 276.334125 
L 317.609465 276.334125 
L 318.566892 63.662679 
L 319.524318 71.663609 
L 320.481744 72.152211 
L 321.439171 71.69002 
L 322.396597 71.635876 
L 323.354023 71.251511 
L 324.311449 65.741258 
L 325.268876 276.334125 
L 328.141154 276.334125 
L 329.098581 64.815401 
L 330.056007 69.486446 
L 331.013433 72.405517 
L 331.97086 71.766518 
L 334.843138 65.901986 
L 335.800565 276.334125 
L 338.672843 276.334125 
L 339.63027 69.294493 
L 340.587696 73.288392 
L 341.545122 69.907413 
L 342.502549 70.733598 
L 343.459975 72.13753 
L 344.417401 66.330953 
L 345.374827 64.956913 
L 346.332254 276.334125 
L 349.204533 276.334125 
L 350.161959 55.886063 
L 351.119385 62.988012 
L 352.076811 64.467468 
L 353.034238 65.301975 
L 353.991664 68.506118 
L 354.94909 64.458269 
L 355.906516 58.559361 
L 356.863943 276.334125 
L 359.736222 276.334125 
L 360.693648 60.069102 
L 361.651074 61.626337 
L 362.6085 62.726541 
L 363.565927 62.83686 
L 364.523353 63.477836 
L 365.480779 64.94605 
L 366.438205 60.444698 
L 367.395632 276.334125 
L 370.267911 276.334125 
L 371.225337 62.260764 
L 372.182763 69.673628 
L 373.140189 76.089925 
L 375.055042 69.716407 
L 376.012468 67.209306 
L 376.969894 59.228653 
L 377.927321 276.334125 
L 380.7996 276.334125 
L 381.757026 63.385662 
L 382.714452 74.275075 
L 383.671878 77.6428 
L 384.629305 76.640042 
L 385.586731 73.912935 
L 386.544157 68.99663 
L 387.501583 66.840041 
L 388.45901 276.334125 
L 391.331289 276.334125 
L 392.288715 67.671475 
L 393.246141 74.675316 
L 394.203567 75.930196 
L 395.160994 76.06007 
L 397.075846 69.805286 
L 398.033272 66.040644 
L 398.990699 276.334125 
L 399.948125 276.334125 
L 399.948125 276.334125 
" clip-path="url(#pec00da794f)" style="fill: none; stroke: #1f77b4; stroke-width: 1.5; stroke-linecap: square"/>
   </g>
   <g id="patch_3">
    <path d="M 42.828125 288.430125 
L 42.828125 22.318125 
" style="fill: none; stroke: #000000; stroke-width: 0.8; stroke-linejoin: miter; stroke-linecap: square"/>
   </g>
   <g id="patch_4">
    <path d="M 399.948125 288.430125 
L 399.948125 22.318125 
" style="fill: none; stroke: #000000; stroke-width: 0.8; stroke-linejoin: miter; stroke-linecap: square"/>
   </g>
   <g id="patch_5">
    <path d="M 42.828125 288.430125 
L 399.948125 288.430125 
" style="fill: none; stroke: #000000; stroke-width: 0.8; stroke-linejoin: miter; stroke-linecap: square"/>
   </g>
   <g id="patch_6">
    <path d="M 42.828125 22.318125 
L 399.948125 22.318125 
" style="fill: none; stroke: #000000; stroke-width: 0.8; stroke-linejoin: miter; stroke-linecap: square"/>
   </g>
   <g id="text_18">
    <!-- Fission Density -->
    <g transform="translate(176.59625 16.318125) scale(0.12 -0.12)">
     <defs>
      <path id="DejaVuSans-46" d="M 628 4666 
L 3309 4666 
L 3309 4134 
L 1259 4134 
L 1259 2759 
L 3109 2759 
L 3109 2228 
L 1259 2228 
L 1259 0 
L 628 0 
L 628 4666 
z
" transform="scale(0.015625)"/>
      <path id="DejaVuSans-69" d="M 603 3500 
L 1178 3500 
L 1178 0 
L 603 0 
L 603 3500 
z
M 603 4863 
L 1178 4863 
L 1178 4134 
L 603 4134 
L 603 4863 
z
" transform="scale(0.015625)"/>
      <path id="DejaVuSans-73" d="M 2834 3397 
L 2834 2853 
Q 2591 2978 2328 3040 
Q 2066 3103 1784 3103 
Q 1356 3103 1142 2972 
Q 928 2841 928 2578 
Q 928 2378 1081 2264 
Q 1234 2150 1697 2047 
L 1894 2003 
Q 2506 1872 2764 1633 
Q 3022 1394 3022 966 
Q 3022 478 2636 193 
Q 2250 -91 1575 -91 
Q 1294 -91 989 -36 
Q 684 19 347 128 
L 347 722 
Q 666 556 975 473 
Q 1284 391 1588 391 
Q 1994 391 2212 530 
Q 2431 669 2431 922 
Q 2431 1156 2273 1281 
Q 2116 1406 1581 1522 
L 1381 1569 
Q 847 1681 609 1914 
Q 372 2147 372 2553 
Q 372 3047 722 3315 
Q 1072 3584 1716 3584 
Q 2034 3584 2315 3537 
Q 2597 3491 2834 3397 
z
" transform="scale(0.015625)"/>
      <path id="DejaVuSans-6f" d="M 1959 3097 
Q 1497 3097 1228 2736 
Q 959 2375 959 1747 
Q 959 1119 1226 758 
Q 1494 397 1959 397 
Q 2419 397 2687 759 
Q 2956 1122 2956 1747 
Q 2956 2369 2687 2733 
Q 2419 3097 1959 3097 
z
M 1959 3584 
Q 2709 3584 3137 3096 
Q 3566 2609 3566 1747 
Q 3566 888 3137 398 
Q 2709 -91 1959 -91 
Q 1206 -91 779 398 
Q 353 888 353 1747 
Q 353 2609 779 3096 
Q 1206 3584 1959 3584 
z
" transform="scale(0.015625)"/>
      <path id="DejaVuSans-6e" d="M 3513 2113 
L 3513 0 
L 2938 0 
L 2938 2094 
Q 2938 2591 2744 2837 
Q 2550 3084 2163 3084 
Q 1697 3084 1428 2787 
Q 1159 2491 1159 1978 
L 1159 0 
L 581 0 
L 581 3500 
L 1159 3500 
L 1159 2956 
Q 1366 3272 1645 3428 
Q 1925 3584 2291 3584 
Q 2894 3584 3203 3211 
Q 3513 2838 3513 2113 
z
" transform="scale(0.015625)"/>
      <path id="DejaVuSans-20" transform="scale(0.015625)"/>
      <path id="DejaVuSans-44" d="M 1259 4147 
L 1259 519 
L 2022 519 
Q 2988 519 3436 956 
Q 3884 1394 3884 2338 
Q 3884 3275 3436 3711 
Q 2988 4147 2022 4147 
L 1259 4147 
z
M 628 4666 
L 1925 4666 
Q 3281 4666 3915 4102 
Q 4550 3538 4550 2338 
Q 4550 1131 3912 565 
Q 3275 0 1925 0 
L 628 0 
L 628 4666 
z
" transform="scale(0.015625)"/>
      <path id="DejaVuSans-65" d="M 3597 1894 
L 3597 1613 
L 953 1613 
Q 991 1019 1311 708 
Q 1631 397 2203 397 
Q 2534 397 2845 478 
Q 3156 559 3463 722 
L 3463 178 
Q 3153 47 2828 -22 
Q 2503 -91 2169 -91 
Q 1331 -91 842 396 
Q 353 884 353 1716 
Q 353 2575 817 3079 
Q 1281 3584 2069 3584 
Q 2775 3584 3186 3129 
Q 3597 2675 3597 1894 
z
M 3022 2063 
Q 3016 2534 2758 2815 
Q 2500 3097 2075 3097 
Q 1594 3097 1305 2825 
Q 1016 2553 972 2059 
L 3022 2063 
z
" transform="scale(0.015625)"/>
      <path id="DejaVuSans-74" d="M 1172 4494 
L 1172 3500 
L 2356 3500 
L 2356 3053 
L 1172 3053 
L 1172 1153 
Q 1172 725 1289 603 
Q 1406 481 1766 481 
L 2356 481 
L 2356 0 
L 1766 0 
Q 1100 0 847 248 
Q 594 497 594 1153 
L 594 3053 
L 172 3053 
L 172 3500 
L 594 3500 
L 594 4494 
L 1172 4494 
z
" transform="scale(0.015625)"/>
      <path id="DejaVuSans-79" d="M 2059 -325 
Q 1816 -950 1584 -1140 
Q 1353 -1331 966 -1331 
L 506 -1331 
L 506 -850 
L 844 -850 
Q 1081 -850 1212 -737 
Q 1344 -625 1503 -206 
L 1606 56 
L 191 3500 
L 800 3500 
L 1894 763 
L 2988 3500 
L 3597 3500 
L 2059 -325 
z
" transform="scale(0.015625)"/>
     </defs>
     <use xlink:href="#DejaVuSans-46"/>
     <use xlink:href="#DejaVuSans-69" x="50.269531"/>
     <use xlink:href="#DejaVuSans-73" x="78.052734"/>
     <use xlink:href="#DejaVuSans-73" x="130.152344"/>
     <use xlink:href="#DejaVuSans-69" x="182.251953"/>
     <use xlink:href="#DejaVuSans-6f" x="210.035156"/>
     <use xlink:href="#DejaVuSans-6e" x="271.216797"/>
     <use xlink:href="#DejaVuSans-20" x="334.595703"/>
     <use xlink:href="#DejaVuSans-44" x="366.382812"/>
     <use xlink:href="#DejaVuSans-65" x="443.384766"/>
     <use xlink:href="#DejaVuSans-6e" x="504.908203"/>
     <use xlink:href="#DejaVuSans-73" x="568.287109"/>
     <use xlink:href="#DejaVuSans-69" x="620.386719"/>
     <use xlink:href="#DejaVuSans-74" x="648.169922"/>
     <use xlink:href="#DejaVuSans-79" x="687.378906"/>
    </g>
   </g>
  </g>
 </g>
 <defs>
  <clipPath id="pec00da794f">
   <rect x="42.828125" y="22.318125" width="357.12" height="266.112"/>
  </clipPath>
 </defs>
</svg>
