<?xml version="1.0" encoding="utf-8" standalone="no"?>
<!DOCTYPE svg PUBLIC "-//W3C//DTD SVG 1.1//EN"
  "http://www.w3.org/Graphics/SVG/1.1/DTD/svg11.dtd">
<svg xmlns:xlink="http://www.w3.org/1999/xlink" width="397.6075pt" height="312.30825pt" viewBox="0 0 397.6075 312.30825" xmlns="http://www.w3.org/2000/svg" version="1.1">
 <metadata>
  <rdf:RDF xmlns:dc="http://purl.org/dc/elements/1.1/" xmlns:cc="http://creativecommons.org/ns#" xmlns:rdf="http://www.w3.org/1999/02/22-rdf-syntax-ns#">
   <cc:Work>
    <dc:type rdf:resource="http://purl.org/dc/dcmitype/StillImage"/>
    <dc:date>2024-03-13T19:25:49.386272</dc:date>
    <dc:format>image/svg+xml</dc:format>
    <dc:creator>
     <cc:Agent>
      <dc:title>Matplotlib v3.8.3, https://matplotlib.org/</dc:title>
     </cc:Agent>
    </dc:creator>
   </cc:Work>
  </rdf:RDF>
 </metadata>
 <defs>
  <style type="text/css">*{stroke-linejoin: round; stroke-linecap: butt}</style>
 </defs>
 <g id="figure_1">
  <g id="patch_1">
   <path d="M 0 312.30825 
L 397.6075 312.30825 
L 397.6075 0 
L 0 0 
z
" style="fill: #ffffff"/>
  </g>
  <g id="axes_1">
   <g id="patch_2">
    <path d="M 33.2875 288.430125 
L 390.4075 288.430125 
L 390.4075 22.318125 
L 33.2875 22.318125 
z
" style="fill: #ffffff"/>
   </g>
   <g id="matplotlib.axis_1">
    <g id="xtick_1">
     <g id="line2d_1">
      <defs>
       <path id="m56fada5af8" d="M 0 0 
L 0 3.5 
" style="stroke: #000000; stroke-width: 0.8"/>
      </defs>
      <g>
       <use xlink:href="#m56fada5af8" x="49.520227" y="288.430125" style="stroke: #000000; stroke-width: 0.8"/>
      </g>
     </g>
     <g id="text_1">
      <!-- 0 -->
      <g transform="translate(46.338977 303.028562) scale(0.1 -0.1)">
       <defs>
        <path id="DejaVuSans-30" d="M 2034 4250 
Q 1547 4250 1301 3770 
Q 1056 3291 1056 2328 
Q 1056 1369 1301 889 
Q 1547 409 2034 409 
Q 2525 409 2770 889 
Q 3016 1369 3016 2328 
Q 3016 3291 2770 3770 
Q 2525 4250 2034 4250 
z
M 2034 4750 
Q 2819 4750 3233 4129 
Q 3647 3509 3647 2328 
Q 3647 1150 3233 529 
Q 2819 -91 2034 -91 
Q 1250 -91 836 529 
Q 422 1150 422 2328 
Q 422 3509 836 4129 
Q 1250 4750 2034 4750 
z
" transform="scale(0.015625)"/>
       </defs>
       <use xlink:href="#DejaVuSans-30"/>
      </g>
     </g>
    </g>
    <g id="xtick_2">
     <g id="line2d_2">
      <g>
       <use xlink:href="#m56fada5af8" x="93.039603" y="288.430125" style="stroke: #000000; stroke-width: 0.8"/>
      </g>
     </g>
     <g id="text_2">
      <!-- 50 -->
      <g transform="translate(86.677103 303.028562) scale(0.1 -0.1)">
       <defs>
        <path id="DejaVuSans-35" d="M 691 4666 
L 3169 4666 
L 3169 4134 
L 1269 4134 
L 1269 2991 
Q 1406 3038 1543 3061 
Q 1681 3084 1819 3084 
Q 2600 3084 3056 2656 
Q 3513 2228 3513 1497 
Q 3513 744 3044 326 
Q 2575 -91 1722 -91 
Q 1428 -91 1123 -41 
Q 819 9 494 109 
L 494 744 
Q 775 591 1075 516 
Q 1375 441 1709 441 
Q 2250 441 2565 725 
Q 2881 1009 2881 1497 
Q 2881 1984 2565 2268 
Q 2250 2553 1709 2553 
Q 1456 2553 1204 2497 
Q 953 2441 691 2322 
L 691 4666 
z
" transform="scale(0.015625)"/>
       </defs>
       <use xlink:href="#DejaVuSans-35"/>
       <use xlink:href="#DejaVuSans-30" x="63.623047"/>
      </g>
     </g>
    </g>
    <g id="xtick_3">
     <g id="line2d_3">
      <g>
       <use xlink:href="#m56fada5af8" x="136.558979" y="288.430125" style="stroke: #000000; stroke-width: 0.8"/>
      </g>
     </g>
     <g id="text_3">
      <!-- 100 -->
      <g transform="translate(127.015229 303.028562) scale(0.1 -0.1)">
       <defs>
        <path id="DejaVuSans-31" d="M 794 531 
L 1825 531 
L 1825 4091 
L 703 3866 
L 703 4441 
L 1819 4666 
L 2450 4666 
L 2450 531 
L 3481 531 
L 3481 0 
L 794 0 
L 794 531 
z
" transform="scale(0.015625)"/>
       </defs>
       <use xlink:href="#DejaVuSans-31"/>
       <use xlink:href="#DejaVuSans-30" x="63.623047"/>
       <use xlink:href="#DejaVuSans-30" x="127.246094"/>
      </g>
     </g>
    </g>
    <g id="xtick_4">
     <g id="line2d_4">
      <g>
       <use xlink:href="#m56fada5af8" x="180.078355" y="288.430125" style="stroke: #000000; stroke-width: 0.8"/>
      </g>
     </g>
     <g id="text_4">
      <!-- 150 -->
      <g transform="translate(170.534605 303.028562) scale(0.1 -0.1)">
       <use xlink:href="#DejaVuSans-31"/>
       <use xlink:href="#DejaVuSans-35" x="63.623047"/>
       <use xlink:href="#DejaVuSans-30" x="127.246094"/>
      </g>
     </g>
    </g>
    <g id="xtick_5">
     <g id="line2d_5">
      <g>
       <use xlink:href="#m56fada5af8" x="223.597732" y="288.430125" style="stroke: #000000; stroke-width: 0.8"/>
      </g>
     </g>
     <g id="text_5">
      <!-- 200 -->
      <g transform="translate(214.053982 303.028562) scale(0.1 -0.1)">
       <defs>
        <path id="DejaVuSans-32" d="M 1228 531 
L 3431 531 
L 3431 0 
L 469 0 
L 469 531 
Q 828 903 1448 1529 
Q 2069 2156 2228 2338 
Q 2531 2678 2651 2914 
Q 2772 3150 2772 3378 
Q 2772 3750 2511 3984 
Q 2250 4219 1831 4219 
Q 1534 4219 1204 4116 
Q 875 4013 500 3803 
L 500 4441 
Q 881 4594 1212 4672 
Q 1544 4750 1819 4750 
Q 2544 4750 2975 4387 
Q 3406 4025 3406 3419 
Q 3406 3131 3298 2873 
Q 3191 2616 2906 2266 
Q 2828 2175 2409 1742 
Q 1991 1309 1228 531 
z
" transform="scale(0.015625)"/>
       </defs>
       <use xlink:href="#DejaVuSans-32"/>
       <use xlink:href="#DejaVuSans-30" x="63.623047"/>
       <use xlink:href="#DejaVuSans-30" x="127.246094"/>
      </g>
     </g>
    </g>
    <g id="xtick_6">
     <g id="line2d_6">
      <g>
       <use xlink:href="#m56fada5af8" x="267.117108" y="288.430125" style="stroke: #000000; stroke-width: 0.8"/>
      </g>
     </g>
     <g id="text_6">
      <!-- 250 -->
      <g transform="translate(257.573358 303.028562) scale(0.1 -0.1)">
       <use xlink:href="#DejaVuSans-32"/>
       <use xlink:href="#DejaVuSans-35" x="63.623047"/>
       <use xlink:href="#DejaVuSans-30" x="127.246094"/>
      </g>
     </g>
    </g>
    <g id="xtick_7">
     <g id="line2d_7">
      <g>
       <use xlink:href="#m56fada5af8" x="310.636484" y="288.430125" style="stroke: #000000; stroke-width: 0.8"/>
      </g>
     </g>
     <g id="text_7">
      <!-- 300 -->
      <g transform="translate(301.092734 303.028562) scale(0.1 -0.1)">
       <defs>
        <path id="DejaVuSans-33" d="M 2597 2516 
Q 3050 2419 3304 2112 
Q 3559 1806 3559 1356 
Q 3559 666 3084 287 
Q 2609 -91 1734 -91 
Q 1441 -91 1130 -33 
Q 819 25 488 141 
L 488 750 
Q 750 597 1062 519 
Q 1375 441 1716 441 
Q 2309 441 2620 675 
Q 2931 909 2931 1356 
Q 2931 1769 2642 2001 
Q 2353 2234 1838 2234 
L 1294 2234 
L 1294 2753 
L 1863 2753 
Q 2328 2753 2575 2939 
Q 2822 3125 2822 3475 
Q 2822 3834 2567 4026 
Q 2313 4219 1838 4219 
Q 1578 4219 1281 4162 
Q 984 4106 628 3988 
L 628 4550 
Q 988 4650 1302 4700 
Q 1616 4750 1894 4750 
Q 2613 4750 3031 4423 
Q 3450 4097 3450 3541 
Q 3450 3153 3228 2886 
Q 3006 2619 2597 2516 
z
" transform="scale(0.015625)"/>
       </defs>
       <use xlink:href="#DejaVuSans-33"/>
       <use xlink:href="#DejaVuSans-30" x="63.623047"/>
       <use xlink:href="#DejaVuSans-30" x="127.246094"/>
      </g>
     </g>
    </g>
    <g id="xtick_8">
     <g id="line2d_8">
      <g>
       <use xlink:href="#m56fada5af8" x="354.15586" y="288.430125" style="stroke: #000000; stroke-width: 0.8"/>
      </g>
     </g>
     <g id="text_8">
      <!-- 350 -->
      <g transform="translate(344.61211 303.028562) scale(0.1 -0.1)">
       <use xlink:href="#DejaVuSans-33"/>
       <use xlink:href="#DejaVuSans-35" x="63.623047"/>
       <use xlink:href="#DejaVuSans-30" x="127.246094"/>
      </g>
     </g>
    </g>
   </g>
   <g id="matplotlib.axis_2">
    <g id="ytick_1">
     <g id="line2d_9">
      <defs>
       <path id="m6140730d5a" d="M 0 0 
L -3.5 0 
" style="stroke: #000000; stroke-width: 0.8"/>
      </defs>
      <g>
       <use xlink:href="#m6140730d5a" x="33.2875" y="276.334125" style="stroke: #000000; stroke-width: 0.8"/>
      </g>
     </g>
     <g id="text_9">
      <!-- 0 -->
      <g transform="translate(19.925 280.133344) scale(0.1 -0.1)">
       <use xlink:href="#DejaVuSans-30"/>
      </g>
     </g>
    </g>
    <g id="ytick_2">
     <g id="line2d_10">
      <g>
       <use xlink:href="#m6140730d5a" x="33.2875" y="217.847706" style="stroke: #000000; stroke-width: 0.8"/>
      </g>
     </g>
     <g id="text_10">
      <!-- 200 -->
      <g transform="translate(7.2 221.646925) scale(0.1 -0.1)">
       <use xlink:href="#DejaVuSans-32"/>
       <use xlink:href="#DejaVuSans-30" x="63.623047"/>
       <use xlink:href="#DejaVuSans-30" x="127.246094"/>
      </g>
     </g>
    </g>
    <g id="ytick_3">
     <g id="line2d_11">
      <g>
       <use xlink:href="#m6140730d5a" x="33.2875" y="159.361288" style="stroke: #000000; stroke-width: 0.8"/>
      </g>
     </g>
     <g id="text_11">
      <!-- 400 -->
      <g transform="translate(7.2 163.160507) scale(0.1 -0.1)">
       <defs>
        <path id="DejaVuSans-34" d="M 2419 4116 
L 825 1625 
L 2419 1625 
L 2419 4116 
z
M 2253 4666 
L 3047 4666 
L 3047 1625 
L 3713 1625 
L 3713 1100 
L 3047 1100 
L 3047 0 
L 2419 0 
L 2419 1100 
L 313 1100 
L 313 1709 
L 2253 4666 
z
" transform="scale(0.015625)"/>
       </defs>
       <use xlink:href="#DejaVuSans-34"/>
       <use xlink:href="#DejaVuSans-30" x="63.623047"/>
       <use xlink:href="#DejaVuSans-30" x="127.246094"/>
      </g>
     </g>
    </g>
    <g id="ytick_4">
     <g id="line2d_12">
      <g>
       <use xlink:href="#m6140730d5a" x="33.2875" y="100.874869" style="stroke: #000000; stroke-width: 0.8"/>
      </g>
     </g>
     <g id="text_12">
      <!-- 600 -->
      <g transform="translate(7.2 104.674088) scale(0.1 -0.1)">
       <defs>
        <path id="DejaVuSans-36" d="M 2113 2584 
Q 1688 2584 1439 2293 
Q 1191 2003 1191 1497 
Q 1191 994 1439 701 
Q 1688 409 2113 409 
Q 2538 409 2786 701 
Q 3034 994 3034 1497 
Q 3034 2003 2786 2293 
Q 2538 2584 2113 2584 
z
M 3366 4563 
L 3366 3988 
Q 3128 4100 2886 4159 
Q 2644 4219 2406 4219 
Q 1781 4219 1451 3797 
Q 1122 3375 1075 2522 
Q 1259 2794 1537 2939 
Q 1816 3084 2150 3084 
Q 2853 3084 3261 2657 
Q 3669 2231 3669 1497 
Q 3669 778 3244 343 
Q 2819 -91 2113 -91 
Q 1303 -91 875 529 
Q 447 1150 447 2328 
Q 447 3434 972 4092 
Q 1497 4750 2381 4750 
Q 2619 4750 2861 4703 
Q 3103 4656 3366 4563 
z
" transform="scale(0.015625)"/>
       </defs>
       <use xlink:href="#DejaVuSans-36"/>
       <use xlink:href="#DejaVuSans-30" x="63.623047"/>
       <use xlink:href="#DejaVuSans-30" x="127.246094"/>
      </g>
     </g>
    </g>
    <g id="ytick_5">
     <g id="line2d_13">
      <g>
       <use xlink:href="#m6140730d5a" x="33.2875" y="42.388451" style="stroke: #000000; stroke-width: 0.8"/>
      </g>
     </g>
     <g id="text_13">
      <!-- 800 -->
      <g transform="translate(7.2 46.187669) scale(0.1 -0.1)">
       <defs>
        <path id="DejaVuSans-38" d="M 2034 2216 
Q 1584 2216 1326 1975 
Q 1069 1734 1069 1313 
Q 1069 891 1326 650 
Q 1584 409 2034 409 
Q 2484 409 2743 651 
Q 3003 894 3003 1313 
Q 3003 1734 2745 1975 
Q 2488 2216 2034 2216 
z
M 1403 2484 
Q 997 2584 770 2862 
Q 544 3141 544 3541 
Q 544 4100 942 4425 
Q 1341 4750 2034 4750 
Q 2731 4750 3128 4425 
Q 3525 4100 3525 3541 
Q 3525 3141 3298 2862 
Q 3072 2584 2669 2484 
Q 3125 2378 3379 2068 
Q 3634 1759 3634 1313 
Q 3634 634 3220 271 
Q 2806 -91 2034 -91 
Q 1263 -91 848 271 
Q 434 634 434 1313 
Q 434 1759 690 2068 
Q 947 2378 1403 2484 
z
M 1172 3481 
Q 1172 3119 1398 2916 
Q 1625 2713 2034 2713 
Q 2441 2713 2670 2916 
Q 2900 3119 2900 3481 
Q 2900 3844 2670 4047 
Q 2441 4250 2034 4250 
Q 1625 4250 1398 4047 
Q 1172 3844 1172 3481 
z
" transform="scale(0.015625)"/>
       </defs>
       <use xlink:href="#DejaVuSans-38"/>
       <use xlink:href="#DejaVuSans-30" x="63.623047"/>
       <use xlink:href="#DejaVuSans-30" x="127.246094"/>
      </g>
     </g>
    </g>
   </g>
   <g id="line2d_14">
    <path d="M 49.520227 276.334125 
L 59.964878 276.334125 
L 60.835265 273.772049 
L 61.705653 274.619811 
L 62.57604 273.065015 
L 63.446428 273.154517 
L 64.316815 273.665411 
L 65.187203 268.978172 
L 66.927978 276.334125 
L 69.53914 276.334125 
L 70.409528 274.642505 
L 71.279915 274.905344 
L 72.150303 274.195798 
L 73.02069 270.654631 
L 73.891078 271.031008 
L 74.761465 272.131311 
L 75.631853 273.656933 
L 76.50224 276.334125 
L 79.113403 276.334125 
L 79.983791 275.09885 
L 80.854178 274.427748 
L 81.724566 272.635927 
L 82.594953 272.418993 
L 83.465341 272.947077 
L 84.335728 271.452035 
L 85.206116 274.555267 
L 86.076503 276.334125 
L 88.687666 276.334125 
L 90.428441 272.68562 
L 91.298828 273.700929 
L 92.169216 271.840697 
L 93.039603 273.256717 
L 93.909991 273.913166 
L 94.780378 274.778537 
L 95.650766 276.334125 
L 98.261928 276.334125 
L 99.132316 273.340028 
L 100.002704 271.578758 
L 100.873091 272.584379 
L 101.743479 270.890398 
L 102.613866 270.861011 
L 103.484254 271.837902 
L 104.354641 274.467119 
L 105.225029 276.334125 
L 107.836191 276.334125 
L 108.706579 274.830128 
L 109.576966 275.155956 
L 110.447354 273.835132 
L 111.317741 272.949356 
L 112.188129 271.153886 
L 113.058516 272.930017 
L 113.928904 275.295465 
L 114.799291 276.334125 
L 117.410454 276.334125 
L 118.280841 272.92947 
L 119.151229 273.017478 
L 120.021617 273.902132 
L 120.892004 267.975886 
L 121.762392 272.00198 
L 122.632779 272.469744 
L 123.503167 273.746243 
L 124.373554 276.334125 
L 126.984717 276.334125 
L 127.855104 274.915773 
L 128.725492 274.698868 
L 129.595879 271.124681 
L 130.466267 272.266412 
L 131.336654 272.332116 
L 132.207042 268.83784 
L 133.077429 272.075582 
L 133.947817 276.334125 
L 136.558979 276.334125 
L 137.429367 275.157048 
L 138.299754 270.057412 
L 139.170142 270.239038 
L 140.040529 271.118912 
L 140.910917 272.981239 
L 141.781305 273.867529 
L 142.651692 275.421033 
L 143.52208 276.334125 
L 146.133242 276.334125 
L 147.00363 274.313372 
L 147.874017 273.483171 
L 148.744405 273.163243 
L 149.614792 268.590273 
L 150.48518 268.975958 
L 151.355567 270.902389 
L 152.225955 273.415899 
L 153.096342 276.334125 
L 155.707505 276.334125 
L 156.577892 274.852831 
L 157.44828 274.677026 
L 158.318667 272.789019 
L 159.189055 272.127701 
L 160.059442 271.198716 
L 160.92983 271.220518 
L 162.670605 276.334125 
L 165.281768 276.334125 
L 166.152155 268.117569 
L 167.022543 271.65725 
L 167.89293 271.671501 
L 168.763318 273.544395 
L 169.633705 272.54414 
L 170.504093 273.305894 
L 171.37448 275.508799 
L 172.244868 276.334125 
L 174.85603 276.334125 
L 175.726418 274.809332 
L 176.596805 272.757219 
L 177.467193 268.049625 
L 178.33758 271.674648 
L 179.207968 271.512058 
L 180.078355 270.848086 
L 180.948743 274.541904 
L 181.819131 276.334125 
L 184.430293 276.334125 
L 185.300681 273.299711 
L 186.171068 274.045958 
L 187.041456 273.480168 
L 187.911843 273.092443 
L 188.782231 271.853407 
L 189.652618 272.594001 
L 190.523006 274.61971 
L 191.393393 276.334125 
L 194.004556 276.334125 
L 194.874943 274.358718 
L 195.745331 271.463626 
L 196.615718 272.958983 
L 197.486106 272.441283 
L 198.356493 272.108372 
L 199.226881 272.168309 
L 200.097268 270.717525 
L 200.967656 276.334125 
L 203.578819 276.334125 
L 204.449206 271.612329 
L 205.319594 272.580191 
L 206.189981 271.570508 
L 207.060369 271.290506 
L 207.930756 271.209344 
L 208.801144 272.577114 
L 209.671531 274.733054 
L 210.541919 276.334125 
L 213.153081 276.334125 
L 214.023469 274.936837 
L 214.893856 274.520471 
L 215.764244 273.137847 
L 216.634631 272.165701 
L 217.505019 272.15357 
L 218.375406 272.314465 
L 219.245794 274.086337 
L 220.116181 276.334125 
L 222.727344 276.334125 
L 223.597732 274.05527 
L 224.468119 274.171517 
L 225.338507 273.019024 
L 226.208894 269.290041 
L 227.079282 271.298501 
L 227.949669 272.254143 
L 228.820057 274.473126 
L 229.690444 276.334125 
L 232.301607 276.334125 
L 233.171994 274.12973 
L 234.042382 274.482718 
L 234.912769 272.430352 
L 235.783157 272.162761 
L 236.653544 273.420932 
L 237.523932 271.413375 
L 238.394319 274.71515 
L 239.264707 276.334125 
L 241.875869 276.334125 
L 242.746257 274.482076 
L 243.616645 274.5723 
L 244.487032 272.955381 
L 246.227807 272.815205 
L 247.098195 272.556539 
L 247.968582 274.292152 
L 248.83897 276.334125 
L 251.450132 276.334125 
L 252.32052 271.658592 
L 253.190907 273.753103 
L 254.061295 270.332987 
L 254.931682 272.018112 
L 255.80207 272.475014 
L 256.672457 273.096746 
L 257.542845 274.346523 
L 258.413232 276.334125 
L 261.024395 276.334125 
L 261.894782 273.850873 
L 262.76517 273.0122 
L 263.635558 264.906794 
L 264.505945 261.47566 
L 266.24672 272.067613 
L 267.117108 271.986764 
L 267.987495 276.334125 
L 270.598658 276.334125 
L 271.469045 274.76677 
L 272.339433 274.720615 
L 273.20982 257.996438 
L 274.080208 263.804959 
L 274.950595 261.799897 
L 275.820983 266.859019 
L 276.69137 269.234427 
L 277.561758 276.334125 
L 280.17292 276.334125 
L 281.043308 274.296295 
L 281.913695 272.565459 
L 282.784083 274.996335 
L 283.654471 272.525232 
L 284.524858 269.222272 
L 285.395246 270.765093 
L 286.265633 273.272593 
L 287.136021 276.334125 
L 289.747183 276.334125 
L 290.617571 274.619883 
L 291.487958 274.516305 
L 292.358346 271.256957 
L 293.228733 269.019286 
L 294.099121 272.117027 
L 294.969508 269.850642 
L 295.839896 272.307223 
L 296.710283 276.334125 
L 299.321446 276.334125 
L 301.062221 274.0216 
L 301.932608 273.972607 
L 302.802996 270.092378 
L 303.673383 270.850859 
L 304.543771 270.927518 
L 305.414159 274.311568 
L 306.284546 276.334125 
L 308.895709 276.334125 
L 309.766096 273.826021 
L 310.636484 273.667172 
L 311.506871 272.962627 
L 312.377259 261.41336 
L 313.247646 270.024799 
L 314.118034 269.746269 
L 314.988421 272.792705 
L 315.858809 276.334125 
L 318.469971 276.334125 
L 319.340359 265.429091 
L 320.210746 269.781092 
L 321.081134 268.968762 
L 321.951521 273.123641 
L 322.821909 272.49113 
L 323.692296 272.744787 
L 324.562684 274.146953 
L 325.433072 276.334125 
L 328.044234 276.334125 
L 328.914622 274.434558 
L 329.785009 274.810723 
L 330.655397 273.745437 
L 331.525784 272.927226 
L 332.396172 262.290269 
L 333.266559 269.904067 
L 334.136947 272.363177 
L 335.007334 276.334125 
L 337.618497 276.334125 
L 338.488884 274.31595 
L 339.359272 273.862104 
L 340.229659 34.414125 
L 341.100047 194.179576 
L 341.970434 193.703285 
L 342.840822 185.545154 
L 343.711209 266.640176 
L 344.581597 276.334125 
L 347.19276 276.334125 
L 348.063147 273.87759 
L 348.933535 274.422079 
L 349.803922 272.89623 
L 351.544697 271.562418 
L 352.415085 271.140675 
L 353.285472 273.306273 
L 354.15586 276.334125 
L 356.767022 276.334125 
L 357.63741 275.855622 
L 358.507797 269.974769 
L 359.378185 257.519883 
L 360.248572 204.6105 
L 361.11896 251.083141 
L 361.989347 253.868326 
L 362.859735 257.897154 
L 363.730122 276.334125 
L 366.341285 276.334125 
L 367.211673 273.828945 
L 368.08206 272.381212 
L 368.952448 274.108989 
L 369.822835 270.419531 
L 370.693223 273.399671 
L 371.56361 270.688468 
L 372.433998 273.941373 
L 373.304385 276.334125 
L 374.174773 276.334125 
L 374.174773 276.334125 
" clip-path="url(#p5e6e1b0c81)" style="fill: none; stroke: #1f77b4; stroke-width: 1.5; stroke-linecap: square"/>
   </g>
   <g id="patch_3">
    <path d="M 33.2875 288.430125 
L 33.2875 22.318125 
" style="fill: none; stroke: #000000; stroke-width: 0.8; stroke-linejoin: miter; stroke-linecap: square"/>
   </g>
   <g id="patch_4">
    <path d="M 390.4075 288.430125 
L 390.4075 22.318125 
" style="fill: none; stroke: #000000; stroke-width: 0.8; stroke-linejoin: miter; stroke-linecap: square"/>
   </g>
   <g id="patch_5">
    <path d="M 33.2875 288.430125 
L 390.4075 288.430125 
" style="fill: none; stroke: #000000; stroke-width: 0.8; stroke-linejoin: miter; stroke-linecap: square"/>
   </g>
   <g id="patch_6">
    <path d="M 33.2875 22.318125 
L 390.4075 22.318125 
" style="fill: none; stroke: #000000; stroke-width: 0.8; stroke-linejoin: miter; stroke-linecap: square"/>
   </g>
   <g id="text_14">
    <!-- Fission Density -->
    <g transform="translate(167.055625 16.318125) scale(0.12 -0.12)">
     <defs>
      <path id="DejaVuSans-46" d="M 628 4666 
L 3309 4666 
L 3309 4134 
L 1259 4134 
L 1259 2759 
L 3109 2759 
L 3109 2228 
L 1259 2228 
L 1259 0 
L 628 0 
L 628 4666 
z
" transform="scale(0.015625)"/>
      <path id="DejaVuSans-69" d="M 603 3500 
L 1178 3500 
L 1178 0 
L 603 0 
L 603 3500 
z
M 603 4863 
L 1178 4863 
L 1178 4134 
L 603 4134 
L 603 4863 
z
" transform="scale(0.015625)"/>
      <path id="DejaVuSans-73" d="M 2834 3397 
L 2834 2853 
Q 2591 2978 2328 3040 
Q 2066 3103 1784 3103 
Q 1356 3103 1142 2972 
Q 928 2841 928 2578 
Q 928 2378 1081 2264 
Q 1234 2150 1697 2047 
L 1894 2003 
Q 2506 1872 2764 1633 
Q 3022 1394 3022 966 
Q 3022 478 2636 193 
Q 2250 -91 1575 -91 
Q 1294 -91 989 -36 
Q 684 19 347 128 
L 347 722 
Q 666 556 975 473 
Q 1284 391 1588 391 
Q 1994 391 2212 530 
Q 2431 669 2431 922 
Q 2431 1156 2273 1281 
Q 2116 1406 1581 1522 
L 1381 1569 
Q 847 1681 609 1914 
Q 372 2147 372 2553 
Q 372 3047 722 3315 
Q 1072 3584 1716 3584 
Q 2034 3584 2315 3537 
Q 2597 3491 2834 3397 
z
" transform="scale(0.015625)"/>
      <path id="DejaVuSans-6f" d="M 1959 3097 
Q 1497 3097 1228 2736 
Q 959 2375 959 1747 
Q 959 1119 1226 758 
Q 1494 397 1959 397 
Q 2419 397 2687 759 
Q 2956 1122 2956 1747 
Q 2956 2369 2687 2733 
Q 2419 3097 1959 3097 
z
M 1959 3584 
Q 2709 3584 3137 3096 
Q 3566 2609 3566 1747 
Q 3566 888 3137 398 
Q 2709 -91 1959 -91 
Q 1206 -91 779 398 
Q 353 888 353 1747 
Q 353 2609 779 3096 
Q 1206 3584 1959 3584 
z
" transform="scale(0.015625)"/>
      <path id="DejaVuSans-6e" d="M 3513 2113 
L 3513 0 
L 2938 0 
L 2938 2094 
Q 2938 2591 2744 2837 
Q 2550 3084 2163 3084 
Q 1697 3084 1428 2787 
Q 1159 2491 1159 1978 
L 1159 0 
L 581 0 
L 581 3500 
L 1159 3500 
L 1159 2956 
Q 1366 3272 1645 3428 
Q 1925 3584 2291 3584 
Q 2894 3584 3203 3211 
Q 3513 2838 3513 2113 
z
" transform="scale(0.015625)"/>
      <path id="DejaVuSans-20" transform="scale(0.015625)"/>
      <path id="DejaVuSans-44" d="M 1259 4147 
L 1259 519 
L 2022 519 
Q 2988 519 3436 956 
Q 3884 1394 3884 2338 
Q 3884 3275 3436 3711 
Q 2988 4147 2022 4147 
L 1259 4147 
z
M 628 4666 
L 1925 4666 
Q 3281 4666 3915 4102 
Q 4550 3538 4550 2338 
Q 4550 1131 3912 565 
Q 3275 0 1925 0 
L 628 0 
L 628 4666 
z
" transform="scale(0.015625)"/>
      <path id="DejaVuSans-65" d="M 3597 1894 
L 3597 1613 
L 953 1613 
Q 991 1019 1311 708 
Q 1631 397 2203 397 
Q 2534 397 2845 478 
Q 3156 559 3463 722 
L 3463 178 
Q 3153 47 2828 -22 
Q 2503 -91 2169 -91 
Q 1331 -91 842 396 
Q 353 884 353 1716 
Q 353 2575 817 3079 
Q 1281 3584 2069 3584 
Q 2775 3584 3186 3129 
Q 3597 2675 3597 1894 
z
M 3022 2063 
Q 3016 2534 2758 2815 
Q 2500 3097 2075 3097 
Q 1594 3097 1305 2825 
Q 1016 2553 972 2059 
L 3022 2063 
z
" transform="scale(0.015625)"/>
      <path id="DejaVuSans-74" d="M 1172 4494 
L 1172 3500 
L 2356 3500 
L 2356 3053 
L 1172 3053 
L 1172 1153 
Q 1172 725 1289 603 
Q 1406 481 1766 481 
L 2356 481 
L 2356 0 
L 1766 0 
Q 1100 0 847 248 
Q 594 497 594 1153 
L 594 3053 
L 172 3053 
L 172 3500 
L 594 3500 
L 594 4494 
L 1172 4494 
z
" transform="scale(0.015625)"/>
      <path id="DejaVuSans-79" d="M 2059 -325 
Q 1816 -950 1584 -1140 
Q 1353 -1331 966 -1331 
L 506 -1331 
L 506 -850 
L 844 -850 
Q 1081 -850 1212 -737 
Q 1344 -625 1503 -206 
L 1606 56 
L 191 3500 
L 800 3500 
L 1894 763 
L 2988 3500 
L 3597 3500 
L 2059 -325 
z
" transform="scale(0.015625)"/>
     </defs>
     <use xlink:href="#DejaVuSans-46"/>
     <use xlink:href="#DejaVuSans-69" x="50.269531"/>
     <use xlink:href="#DejaVuSans-73" x="78.052734"/>
     <use xlink:href="#DejaVuSans-73" x="130.152344"/>
     <use xlink:href="#DejaVuSans-69" x="182.251953"/>
     <use xlink:href="#DejaVuSans-6f" x="210.035156"/>
     <use xlink:href="#DejaVuSans-6e" x="271.216797"/>
     <use xlink:href="#DejaVuSans-20" x="334.595703"/>
     <use xlink:href="#DejaVuSans-44" x="366.382812"/>
     <use xlink:href="#DejaVuSans-65" x="443.384766"/>
     <use xlink:href="#DejaVuSans-6e" x="504.908203"/>
     <use xlink:href="#DejaVuSans-73" x="568.287109"/>
     <use xlink:href="#DejaVuSans-69" x="620.386719"/>
     <use xlink:href="#DejaVuSans-74" x="648.169922"/>
     <use xlink:href="#DejaVuSans-79" x="687.378906"/>
    </g>
   </g>
  </g>
 </g>
 <defs>
  <clipPath id="p5e6e1b0c81">
   <rect x="33.2875" y="22.318125" width="357.12" height="266.112"/>
  </clipPath>
 </defs>
</svg>
