<?xml version="1.0" encoding="utf-8" standalone="no"?>
<!DOCTYPE svg PUBLIC "-//W3C//DTD SVG 1.1//EN"
  "http://www.w3.org/Graphics/SVG/1.1/DTD/svg11.dtd">
<svg xmlns:xlink="http://www.w3.org/1999/xlink" width="407.148125pt" height="312.30825pt" viewBox="0 0 407.148125 312.30825" xmlns="http://www.w3.org/2000/svg" version="1.1">
 <metadata>
  <rdf:RDF xmlns:dc="http://purl.org/dc/elements/1.1/" xmlns:cc="http://creativecommons.org/ns#" xmlns:rdf="http://www.w3.org/1999/02/22-rdf-syntax-ns#">
   <cc:Work>
    <dc:type rdf:resource="http://purl.org/dc/dcmitype/StillImage"/>
    <dc:date>2024-03-22T10:08:29.565936</dc:date>
    <dc:format>image/svg+xml</dc:format>
    <dc:creator>
     <cc:Agent>
      <dc:title>Matplotlib v3.8.3, https://matplotlib.org/</dc:title>
     </cc:Agent>
    </dc:creator>
   </cc:Work>
  </rdf:RDF>
 </metadata>
 <defs>
  <style type="text/css">*{stroke-linejoin: round; stroke-linecap: butt}</style>
 </defs>
 <g id="figure_1">
  <g id="patch_1">
   <path d="M 0 312.30825 
L 407.148125 312.30825 
L 407.148125 0 
L 0 0 
z
" style="fill: #ffffff"/>
  </g>
  <g id="axes_1">
   <g id="patch_2">
    <path d="M 42.828125 288.430125 
L 399.948125 288.430125 
L 399.948125 22.318125 
L 42.828125 22.318125 
z
" style="fill: #ffffff"/>
   </g>
   <g id="matplotlib.axis_1">
    <g id="xtick_1">
     <g id="line2d_1">
      <defs>
       <path id="m855cd1fa5e" d="M 0 0 
L 0 3.5 
" style="stroke: #000000; stroke-width: 0.8"/>
      </defs>
      <g>
       <use xlink:href="#m855cd1fa5e" x="42.828125" y="288.430125" style="stroke: #000000; stroke-width: 0.8"/>
      </g>
     </g>
     <g id="text_1">
      <!-- 0 -->
      <g transform="translate(39.646875 303.028562) scale(0.1 -0.1)">
       <defs>
        <path id="DejaVuSans-30" d="M 2034 4250 
Q 1547 4250 1301 3770 
Q 1056 3291 1056 2328 
Q 1056 1369 1301 889 
Q 1547 409 2034 409 
Q 2525 409 2770 889 
Q 3016 1369 3016 2328 
Q 3016 3291 2770 3770 
Q 2525 4250 2034 4250 
z
M 2034 4750 
Q 2819 4750 3233 4129 
Q 3647 3509 3647 2328 
Q 3647 1150 3233 529 
Q 2819 -91 2034 -91 
Q 1250 -91 836 529 
Q 422 1150 422 2328 
Q 422 3509 836 4129 
Q 1250 4750 2034 4750 
z
" transform="scale(0.015625)"/>
       </defs>
       <use xlink:href="#DejaVuSans-30"/>
      </g>
     </g>
    </g>
    <g id="xtick_2">
     <g id="line2d_2">
      <g>
       <use xlink:href="#m855cd1fa5e" x="84.442742" y="288.430125" style="stroke: #000000; stroke-width: 0.8"/>
      </g>
     </g>
     <g id="text_2">
      <!-- 5 -->
      <g transform="translate(81.261492 303.028562) scale(0.1 -0.1)">
       <defs>
        <path id="DejaVuSans-35" d="M 691 4666 
L 3169 4666 
L 3169 4134 
L 1269 4134 
L 1269 2991 
Q 1406 3038 1543 3061 
Q 1681 3084 1819 3084 
Q 2600 3084 3056 2656 
Q 3513 2228 3513 1497 
Q 3513 744 3044 326 
Q 2575 -91 1722 -91 
Q 1428 -91 1123 -41 
Q 819 9 494 109 
L 494 744 
Q 775 591 1075 516 
Q 1375 441 1709 441 
Q 2250 441 2565 725 
Q 2881 1009 2881 1497 
Q 2881 1984 2565 2268 
Q 2250 2553 1709 2553 
Q 1456 2553 1204 2497 
Q 953 2441 691 2322 
L 691 4666 
z
" transform="scale(0.015625)"/>
       </defs>
       <use xlink:href="#DejaVuSans-35"/>
      </g>
     </g>
    </g>
    <g id="xtick_3">
     <g id="line2d_3">
      <g>
       <use xlink:href="#m855cd1fa5e" x="126.05736" y="288.430125" style="stroke: #000000; stroke-width: 0.8"/>
      </g>
     </g>
     <g id="text_3">
      <!-- 10 -->
      <g transform="translate(119.69486 303.028562) scale(0.1 -0.1)">
       <defs>
        <path id="DejaVuSans-31" d="M 794 531 
L 1825 531 
L 1825 4091 
L 703 3866 
L 703 4441 
L 1819 4666 
L 2450 4666 
L 2450 531 
L 3481 531 
L 3481 0 
L 794 0 
L 794 531 
z
" transform="scale(0.015625)"/>
       </defs>
       <use xlink:href="#DejaVuSans-31"/>
       <use xlink:href="#DejaVuSans-30" x="63.623047"/>
      </g>
     </g>
    </g>
    <g id="xtick_4">
     <g id="line2d_4">
      <g>
       <use xlink:href="#m855cd1fa5e" x="167.671977" y="288.430125" style="stroke: #000000; stroke-width: 0.8"/>
      </g>
     </g>
     <g id="text_4">
      <!-- 15 -->
      <g transform="translate(161.309477 303.028562) scale(0.1 -0.1)">
       <use xlink:href="#DejaVuSans-31"/>
       <use xlink:href="#DejaVuSans-35" x="63.623047"/>
      </g>
     </g>
    </g>
    <g id="xtick_5">
     <g id="line2d_5">
      <g>
       <use xlink:href="#m855cd1fa5e" x="209.286594" y="288.430125" style="stroke: #000000; stroke-width: 0.8"/>
      </g>
     </g>
     <g id="text_5">
      <!-- 20 -->
      <g transform="translate(202.924094 303.028562) scale(0.1 -0.1)">
       <defs>
        <path id="DejaVuSans-32" d="M 1228 531 
L 3431 531 
L 3431 0 
L 469 0 
L 469 531 
Q 828 903 1448 1529 
Q 2069 2156 2228 2338 
Q 2531 2678 2651 2914 
Q 2772 3150 2772 3378 
Q 2772 3750 2511 3984 
Q 2250 4219 1831 4219 
Q 1534 4219 1204 4116 
Q 875 4013 500 3803 
L 500 4441 
Q 881 4594 1212 4672 
Q 1544 4750 1819 4750 
Q 2544 4750 2975 4387 
Q 3406 4025 3406 3419 
Q 3406 3131 3298 2873 
Q 3191 2616 2906 2266 
Q 2828 2175 2409 1742 
Q 1991 1309 1228 531 
z
" transform="scale(0.015625)"/>
       </defs>
       <use xlink:href="#DejaVuSans-32"/>
       <use xlink:href="#DejaVuSans-30" x="63.623047"/>
      </g>
     </g>
    </g>
    <g id="xtick_6">
     <g id="line2d_6">
      <g>
       <use xlink:href="#m855cd1fa5e" x="250.901212" y="288.430125" style="stroke: #000000; stroke-width: 0.8"/>
      </g>
     </g>
     <g id="text_6">
      <!-- 25 -->
      <g transform="translate(244.538712 303.028562) scale(0.1 -0.1)">
       <use xlink:href="#DejaVuSans-32"/>
       <use xlink:href="#DejaVuSans-35" x="63.623047"/>
      </g>
     </g>
    </g>
    <g id="xtick_7">
     <g id="line2d_7">
      <g>
       <use xlink:href="#m855cd1fa5e" x="292.515829" y="288.430125" style="stroke: #000000; stroke-width: 0.8"/>
      </g>
     </g>
     <g id="text_7">
      <!-- 30 -->
      <g transform="translate(286.153329 303.028562) scale(0.1 -0.1)">
       <defs>
        <path id="DejaVuSans-33" d="M 2597 2516 
Q 3050 2419 3304 2112 
Q 3559 1806 3559 1356 
Q 3559 666 3084 287 
Q 2609 -91 1734 -91 
Q 1441 -91 1130 -33 
Q 819 25 488 141 
L 488 750 
Q 750 597 1062 519 
Q 1375 441 1716 441 
Q 2309 441 2620 675 
Q 2931 909 2931 1356 
Q 2931 1769 2642 2001 
Q 2353 2234 1838 2234 
L 1294 2234 
L 1294 2753 
L 1863 2753 
Q 2328 2753 2575 2939 
Q 2822 3125 2822 3475 
Q 2822 3834 2567 4026 
Q 2313 4219 1838 4219 
Q 1578 4219 1281 4162 
Q 984 4106 628 3988 
L 628 4550 
Q 988 4650 1302 4700 
Q 1616 4750 1894 4750 
Q 2613 4750 3031 4423 
Q 3450 4097 3450 3541 
Q 3450 3153 3228 2886 
Q 3006 2619 2597 2516 
z
" transform="scale(0.015625)"/>
       </defs>
       <use xlink:href="#DejaVuSans-33"/>
       <use xlink:href="#DejaVuSans-30" x="63.623047"/>
      </g>
     </g>
    </g>
    <g id="xtick_8">
     <g id="line2d_8">
      <g>
       <use xlink:href="#m855cd1fa5e" x="334.130446" y="288.430125" style="stroke: #000000; stroke-width: 0.8"/>
      </g>
     </g>
     <g id="text_8">
      <!-- 35 -->
      <g transform="translate(327.767946 303.028562) scale(0.1 -0.1)">
       <use xlink:href="#DejaVuSans-33"/>
       <use xlink:href="#DejaVuSans-35" x="63.623047"/>
      </g>
     </g>
    </g>
    <g id="xtick_9">
     <g id="line2d_9">
      <g>
       <use xlink:href="#m855cd1fa5e" x="375.745064" y="288.430125" style="stroke: #000000; stroke-width: 0.8"/>
      </g>
     </g>
     <g id="text_9">
      <!-- 40 -->
      <g transform="translate(369.382564 303.028562) scale(0.1 -0.1)">
       <defs>
        <path id="DejaVuSans-34" d="M 2419 4116 
L 825 1625 
L 2419 1625 
L 2419 4116 
z
M 2253 4666 
L 3047 4666 
L 3047 1625 
L 3713 1625 
L 3713 1100 
L 3047 1100 
L 3047 0 
L 2419 0 
L 2419 1100 
L 313 1100 
L 313 1709 
L 2253 4666 
z
" transform="scale(0.015625)"/>
       </defs>
       <use xlink:href="#DejaVuSans-34"/>
       <use xlink:href="#DejaVuSans-30" x="63.623047"/>
      </g>
     </g>
    </g>
   </g>
   <g id="matplotlib.axis_2">
    <g id="ytick_1">
     <g id="line2d_10">
      <defs>
       <path id="m5993e9e5de" d="M 0 0 
L -3.5 0 
" style="stroke: #000000; stroke-width: 0.8"/>
      </defs>
      <g>
       <use xlink:href="#m5993e9e5de" x="42.828125" y="276.334125" style="stroke: #000000; stroke-width: 0.8"/>
      </g>
     </g>
     <g id="text_10">
      <!-- 0.000 -->
      <g transform="translate(7.2 280.133344) scale(0.1 -0.1)">
       <defs>
        <path id="DejaVuSans-2e" d="M 684 794 
L 1344 794 
L 1344 0 
L 684 0 
L 684 794 
z
" transform="scale(0.015625)"/>
       </defs>
       <use xlink:href="#DejaVuSans-30"/>
       <use xlink:href="#DejaVuSans-2e" x="63.623047"/>
       <use xlink:href="#DejaVuSans-30" x="95.410156"/>
       <use xlink:href="#DejaVuSans-30" x="159.033203"/>
       <use xlink:href="#DejaVuSans-30" x="222.65625"/>
      </g>
     </g>
    </g>
    <g id="ytick_2">
     <g id="line2d_11">
      <g>
       <use xlink:href="#m5993e9e5de" x="42.828125" y="238.315946" style="stroke: #000000; stroke-width: 0.8"/>
      </g>
     </g>
     <g id="text_11">
      <!-- 0.005 -->
      <g transform="translate(7.2 242.115165) scale(0.1 -0.1)">
       <use xlink:href="#DejaVuSans-30"/>
       <use xlink:href="#DejaVuSans-2e" x="63.623047"/>
       <use xlink:href="#DejaVuSans-30" x="95.410156"/>
       <use xlink:href="#DejaVuSans-30" x="159.033203"/>
       <use xlink:href="#DejaVuSans-35" x="222.65625"/>
      </g>
     </g>
    </g>
    <g id="ytick_3">
     <g id="line2d_12">
      <g>
       <use xlink:href="#m5993e9e5de" x="42.828125" y="200.297767" style="stroke: #000000; stroke-width: 0.8"/>
      </g>
     </g>
     <g id="text_12">
      <!-- 0.010 -->
      <g transform="translate(7.2 204.096986) scale(0.1 -0.1)">
       <use xlink:href="#DejaVuSans-30"/>
       <use xlink:href="#DejaVuSans-2e" x="63.623047"/>
       <use xlink:href="#DejaVuSans-30" x="95.410156"/>
       <use xlink:href="#DejaVuSans-31" x="159.033203"/>
       <use xlink:href="#DejaVuSans-30" x="222.65625"/>
      </g>
     </g>
    </g>
    <g id="ytick_4">
     <g id="line2d_13">
      <g>
       <use xlink:href="#m5993e9e5de" x="42.828125" y="162.279588" style="stroke: #000000; stroke-width: 0.8"/>
      </g>
     </g>
     <g id="text_13">
      <!-- 0.015 -->
      <g transform="translate(7.2 166.078807) scale(0.1 -0.1)">
       <use xlink:href="#DejaVuSans-30"/>
       <use xlink:href="#DejaVuSans-2e" x="63.623047"/>
       <use xlink:href="#DejaVuSans-30" x="95.410156"/>
       <use xlink:href="#DejaVuSans-31" x="159.033203"/>
       <use xlink:href="#DejaVuSans-35" x="222.65625"/>
      </g>
     </g>
    </g>
    <g id="ytick_5">
     <g id="line2d_14">
      <g>
       <use xlink:href="#m5993e9e5de" x="42.828125" y="124.261409" style="stroke: #000000; stroke-width: 0.8"/>
      </g>
     </g>
     <g id="text_14">
      <!-- 0.020 -->
      <g transform="translate(7.2 128.060628) scale(0.1 -0.1)">
       <use xlink:href="#DejaVuSans-30"/>
       <use xlink:href="#DejaVuSans-2e" x="63.623047"/>
       <use xlink:href="#DejaVuSans-30" x="95.410156"/>
       <use xlink:href="#DejaVuSans-32" x="159.033203"/>
       <use xlink:href="#DejaVuSans-30" x="222.65625"/>
      </g>
     </g>
    </g>
    <g id="ytick_6">
     <g id="line2d_15">
      <g>
       <use xlink:href="#m5993e9e5de" x="42.828125" y="86.24323" style="stroke: #000000; stroke-width: 0.8"/>
      </g>
     </g>
     <g id="text_15">
      <!-- 0.025 -->
      <g transform="translate(7.2 90.042449) scale(0.1 -0.1)">
       <use xlink:href="#DejaVuSans-30"/>
       <use xlink:href="#DejaVuSans-2e" x="63.623047"/>
       <use xlink:href="#DejaVuSans-30" x="95.410156"/>
       <use xlink:href="#DejaVuSans-32" x="159.033203"/>
       <use xlink:href="#DejaVuSans-35" x="222.65625"/>
      </g>
     </g>
    </g>
    <g id="ytick_7">
     <g id="line2d_16">
      <g>
       <use xlink:href="#m5993e9e5de" x="42.828125" y="48.225052" style="stroke: #000000; stroke-width: 0.8"/>
      </g>
     </g>
     <g id="text_16">
      <!-- 0.030 -->
      <g transform="translate(7.2 52.02427) scale(0.1 -0.1)">
       <use xlink:href="#DejaVuSans-30"/>
       <use xlink:href="#DejaVuSans-2e" x="63.623047"/>
       <use xlink:href="#DejaVuSans-30" x="95.410156"/>
       <use xlink:href="#DejaVuSans-33" x="159.033203"/>
       <use xlink:href="#DejaVuSans-30" x="222.65625"/>
      </g>
     </g>
    </g>
   </g>
   <g id="line2d_17">
    <path d="M 42.828125 276.334125 
L 43.785551 276.334125 
L 44.742978 34.750417 
L 45.700404 41.280014 
L 46.65783 44.282009 
L 47.615256 45.337662 
L 48.572683 44.353889 
L 49.530109 41.328775 
L 50.487535 34.855522 
L 51.444961 276.334125 
L 54.31724 276.334125 
L 55.274667 34.878295 
L 56.232093 41.446409 
L 57.189519 44.467899 
L 58.146945 45.350375 
L 59.104372 44.59563 
L 60.061798 41.470074 
L 61.019224 34.876272 
L 61.97665 276.334125 
L 64.848929 276.334125 
L 65.806356 34.914782 
L 66.763782 41.533004 
L 67.721208 44.444818 
L 68.678634 45.36017 
L 69.636061 44.483215 
L 70.593487 41.357723 
L 71.550913 34.936671 
L 72.508339 276.334125 
L 75.380618 276.334125 
L 76.338045 34.960893 
L 77.295471 41.377208 
L 78.252897 44.459211 
L 79.210323 45.456694 
L 80.16775 44.458964 
L 81.125176 41.414333 
L 82.082602 34.780006 
L 83.040028 276.334125 
L 85.912307 276.334125 
L 86.869734 34.793589 
L 87.82716 41.519023 
L 88.784586 44.483826 
L 89.742012 45.387191 
L 90.699439 44.419982 
L 91.656865 41.313452 
L 92.614291 34.589578 
L 93.571717 276.334125 
L 96.443996 276.334125 
L 97.401423 34.752965 
L 98.358849 41.24114 
L 99.316275 44.332374 
L 100.273701 45.08396 
L 101.231128 44.149458 
L 102.188554 41.211032 
L 103.14598 34.720531 
L 104.103407 276.334125 
L 106.975685 276.334125 
L 107.933112 34.680938 
L 108.890538 41.312241 
L 109.847964 44.236854 
L 110.80539 45.036953 
L 111.762817 44.148737 
L 112.720243 41.057225 
L 113.677669 34.505596 
L 114.635096 276.334125 
L 117.507374 276.334125 
L 118.464801 34.650946 
L 119.422227 41.34267 
L 120.379653 44.286435 
L 121.337079 45.224731 
L 122.294506 44.411957 
L 123.251932 41.4055 
L 124.209358 34.774554 
L 125.166785 276.334125 
L 128.039063 276.334125 
L 128.99649 34.832055 
L 129.953916 41.374575 
L 130.911342 44.336398 
L 131.868768 45.229875 
L 132.826195 44.356527 
L 133.783621 41.307014 
L 134.741047 34.734875 
L 135.698474 276.334125 
L 138.570752 276.334125 
L 139.528179 34.72588 
L 140.485605 41.414789 
L 141.443031 44.361903 
L 142.400457 45.265798 
L 143.357884 44.401766 
L 144.31531 41.175718 
L 145.272736 34.47685 
L 146.230163 276.334125 
L 149.102441 276.334125 
L 150.059868 34.414125 
L 151.017294 41.17007 
L 151.97472 44.093855 
L 152.932146 45.05618 
L 153.889573 44.148695 
L 154.846999 41.254365 
L 155.804425 34.760866 
L 156.761852 276.334125 
L 159.63413 276.334125 
L 160.591557 34.861653 
L 161.548983 41.404828 
L 162.506409 44.421846 
L 163.463835 45.152934 
L 164.421262 44.213431 
L 165.378688 41.206675 
L 166.336114 34.60137 
L 167.293541 276.334125 
L 170.165819 276.334125 
L 171.123246 34.623915 
L 172.080672 41.163301 
L 173.038098 44.164517 
L 173.995524 45.13868 
L 174.952951 44.203726 
L 175.910377 41.297496 
L 176.867803 34.596052 
L 177.82523 276.334125 
L 180.697508 276.334125 
L 181.654935 34.616751 
L 182.612361 41.177547 
L 183.569787 44.135209 
L 184.527213 44.949578 
L 185.48464 44.192116 
L 186.442066 41.318172 
L 187.399492 34.699996 
L 188.356919 276.334125 
L 191.229197 276.334125 
L 192.186624 34.60809 
L 193.14405 41.098682 
L 194.101476 44.305432 
L 195.058902 45.184159 
L 196.016329 44.159639 
L 196.973755 41.256131 
L 197.931181 34.784015 
L 198.888608 276.334125 
L 201.760886 276.334125 
L 202.718313 35.013913 
L 203.675739 41.558476 
L 204.633165 44.508035 
L 205.590591 45.569756 
L 206.548018 44.455653 
L 207.505444 41.526539 
L 208.46287 34.983039 
L 209.420297 276.334125 
L 212.292575 276.334125 
L 213.250002 35.052949 
L 214.207428 41.505155 
L 215.164854 44.4942 
L 216.12228 45.618763 
L 217.079707 44.644377 
L 218.037133 41.657874 
L 218.994559 35.078989 
L 219.951986 276.334125 
L 222.824264 276.334125 
L 223.781691 34.722073 
L 224.739117 41.375868 
L 225.696543 44.299222 
L 226.65397 45.398991 
L 227.611396 44.328785 
L 228.568822 41.402316 
L 229.526248 34.826824 
L 230.483675 276.334125 
L 233.355953 276.334125 
L 234.31338 34.727142 
L 235.270806 41.212033 
L 236.228232 44.302017 
L 237.185659 45.107042 
L 238.143085 44.121971 
L 239.100511 41.058619 
L 240.057937 34.522369 
L 241.015364 276.334125 
L 243.887642 276.334125 
L 244.845069 34.605427 
L 245.802495 41.23656 
L 246.759921 44.189738 
L 247.717348 45.333524 
L 248.674774 44.390345 
L 249.6322 41.370665 
L 250.589626 34.882445 
L 251.547053 276.334125 
L 254.419331 276.334125 
L 255.376758 34.820147 
L 256.334184 41.340116 
L 257.29161 44.321213 
L 258.249037 45.399441 
L 259.206463 44.364203 
L 260.163889 41.311968 
L 261.121315 34.742005 
L 262.078742 276.334125 
L 264.95102 276.334125 
L 265.908447 34.82306 
L 266.865873 41.501363 
L 267.823299 44.510815 
L 268.780726 45.362946 
L 269.738152 44.403701 
L 270.695578 41.369324 
L 271.653004 34.730283 
L 272.610431 276.334125 
L 275.482709 276.334125 
L 276.440136 34.623916 
L 277.397562 41.466701 
L 278.354988 44.576026 
L 279.312415 45.533793 
L 280.269841 44.456172 
L 281.227267 41.320733 
L 282.184693 34.69624 
L 283.14212 276.334125 
L 286.014398 276.334125 
L 286.971825 34.680692 
L 287.929251 41.148849 
L 288.886677 44.465101 
L 289.844104 45.409841 
L 290.80153 44.549248 
L 291.758956 41.440276 
L 292.716382 34.802996 
L 293.673809 276.334125 
L 296.546087 276.334125 
L 297.503514 34.843825 
L 298.46094 41.294071 
L 299.418366 44.375485 
L 300.375793 45.301637 
L 301.333219 44.429452 
L 302.290645 41.228527 
L 303.248071 34.917635 
L 304.205498 276.334125 
L 307.077776 276.334125 
L 308.035203 34.714304 
L 308.992629 41.349604 
L 309.950055 44.365369 
L 310.907482 45.312668 
L 311.864908 44.486006 
L 312.822334 41.537487 
L 313.77976 34.833742 
L 314.737187 276.334125 
L 317.609465 276.334125 
L 318.566892 34.687853 
L 319.524318 41.377832 
L 320.481744 44.487759 
L 321.439171 45.398525 
L 322.396597 44.511635 
L 323.354023 41.43101 
L 324.311449 34.804776 
L 325.268876 276.334125 
L 328.141154 276.334125 
L 329.098581 34.694034 
L 330.056007 41.431798 
L 331.013433 44.421541 
L 331.97086 45.241334 
L 332.928286 44.392839 
L 333.885712 41.573781 
L 334.843138 34.833008 
L 335.800565 276.334125 
L 338.672843 276.334125 
L 339.63027 34.75553 
L 340.587696 41.455388 
L 341.545122 44.329458 
L 342.502549 45.187713 
L 343.459975 44.357029 
L 344.417401 41.418984 
L 345.374827 34.858924 
L 346.332254 276.334125 
L 349.204533 276.334125 
L 350.161959 34.928212 
L 351.119385 41.589458 
L 352.076811 44.429087 
L 353.034238 45.393613 
L 353.991664 44.396137 
L 354.94909 41.415162 
L 355.906516 34.876319 
L 356.863943 276.334125 
L 359.736222 276.334125 
L 360.693648 34.753998 
L 361.651074 41.540087 
L 362.6085 44.394933 
L 363.565927 45.435343 
L 364.523353 44.50635 
L 365.480779 41.47499 
L 366.438205 34.860678 
L 367.395632 276.334125 
L 370.267911 276.334125 
L 371.225337 34.753308 
L 372.182763 41.413446 
L 373.140189 44.555573 
L 374.097616 45.392263 
L 375.055042 44.260121 
L 376.012468 41.360142 
L 376.969894 34.767555 
L 377.927321 276.334125 
L 380.7996 276.334125 
L 381.757026 34.584297 
L 382.714452 41.381644 
L 383.671878 44.452117 
L 384.629305 45.34999 
L 385.586731 44.417387 
L 386.544157 41.4268 
L 387.501583 34.860002 
L 388.45901 276.334125 
L 391.331289 276.334125 
L 392.288715 34.825385 
L 393.246141 41.437118 
L 394.203567 44.253616 
L 395.160994 45.194585 
L 396.11842 44.317438 
L 397.075846 41.303114 
L 398.033272 34.617991 
L 398.990699 276.334125 
L 399.948125 276.334125 
L 399.948125 276.334125 
" clip-path="url(#p8702a193dc)" style="fill: none; stroke: #1f77b4; stroke-width: 1.5; stroke-linecap: square"/>
   </g>
   <g id="patch_3">
    <path d="M 42.828125 288.430125 
L 42.828125 22.318125 
" style="fill: none; stroke: #000000; stroke-width: 0.8; stroke-linejoin: miter; stroke-linecap: square"/>
   </g>
   <g id="patch_4">
    <path d="M 399.948125 288.430125 
L 399.948125 22.318125 
" style="fill: none; stroke: #000000; stroke-width: 0.8; stroke-linejoin: miter; stroke-linecap: square"/>
   </g>
   <g id="patch_5">
    <path d="M 42.828125 288.430125 
L 399.948125 288.430125 
" style="fill: none; stroke: #000000; stroke-width: 0.8; stroke-linejoin: miter; stroke-linecap: square"/>
   </g>
   <g id="patch_6">
    <path d="M 42.828125 22.318125 
L 399.948125 22.318125 
" style="fill: none; stroke: #000000; stroke-width: 0.8; stroke-linejoin: miter; stroke-linecap: square"/>
   </g>
   <g id="text_17">
    <!-- Fission Density -->
    <g transform="translate(176.59625 16.318125) scale(0.12 -0.12)">
     <defs>
      <path id="DejaVuSans-46" d="M 628 4666 
L 3309 4666 
L 3309 4134 
L 1259 4134 
L 1259 2759 
L 3109 2759 
L 3109 2228 
L 1259 2228 
L 1259 0 
L 628 0 
L 628 4666 
z
" transform="scale(0.015625)"/>
      <path id="DejaVuSans-69" d="M 603 3500 
L 1178 3500 
L 1178 0 
L 603 0 
L 603 3500 
z
M 603 4863 
L 1178 4863 
L 1178 4134 
L 603 4134 
L 603 4863 
z
" transform="scale(0.015625)"/>
      <path id="DejaVuSans-73" d="M 2834 3397 
L 2834 2853 
Q 2591 2978 2328 3040 
Q 2066 3103 1784 3103 
Q 1356 3103 1142 2972 
Q 928 2841 928 2578 
Q 928 2378 1081 2264 
Q 1234 2150 1697 2047 
L 1894 2003 
Q 2506 1872 2764 1633 
Q 3022 1394 3022 966 
Q 3022 478 2636 193 
Q 2250 -91 1575 -91 
Q 1294 -91 989 -36 
Q 684 19 347 128 
L 347 722 
Q 666 556 975 473 
Q 1284 391 1588 391 
Q 1994 391 2212 530 
Q 2431 669 2431 922 
Q 2431 1156 2273 1281 
Q 2116 1406 1581 1522 
L 1381 1569 
Q 847 1681 609 1914 
Q 372 2147 372 2553 
Q 372 3047 722 3315 
Q 1072 3584 1716 3584 
Q 2034 3584 2315 3537 
Q 2597 3491 2834 3397 
z
" transform="scale(0.015625)"/>
      <path id="DejaVuSans-6f" d="M 1959 3097 
Q 1497 3097 1228 2736 
Q 959 2375 959 1747 
Q 959 1119 1226 758 
Q 1494 397 1959 397 
Q 2419 397 2687 759 
Q 2956 1122 2956 1747 
Q 2956 2369 2687 2733 
Q 2419 3097 1959 3097 
z
M 1959 3584 
Q 2709 3584 3137 3096 
Q 3566 2609 3566 1747 
Q 3566 888 3137 398 
Q 2709 -91 1959 -91 
Q 1206 -91 779 398 
Q 353 888 353 1747 
Q 353 2609 779 3096 
Q 1206 3584 1959 3584 
z
" transform="scale(0.015625)"/>
      <path id="DejaVuSans-6e" d="M 3513 2113 
L 3513 0 
L 2938 0 
L 2938 2094 
Q 2938 2591 2744 2837 
Q 2550 3084 2163 3084 
Q 1697 3084 1428 2787 
Q 1159 2491 1159 1978 
L 1159 0 
L 581 0 
L 581 3500 
L 1159 3500 
L 1159 2956 
Q 1366 3272 1645 3428 
Q 1925 3584 2291 3584 
Q 2894 3584 3203 3211 
Q 3513 2838 3513 2113 
z
" transform="scale(0.015625)"/>
      <path id="DejaVuSans-20" transform="scale(0.015625)"/>
      <path id="DejaVuSans-44" d="M 1259 4147 
L 1259 519 
L 2022 519 
Q 2988 519 3436 956 
Q 3884 1394 3884 2338 
Q 3884 3275 3436 3711 
Q 2988 4147 2022 4147 
L 1259 4147 
z
M 628 4666 
L 1925 4666 
Q 3281 4666 3915 4102 
Q 4550 3538 4550 2338 
Q 4550 1131 3912 565 
Q 3275 0 1925 0 
L 628 0 
L 628 4666 
z
" transform="scale(0.015625)"/>
      <path id="DejaVuSans-65" d="M 3597 1894 
L 3597 1613 
L 953 1613 
Q 991 1019 1311 708 
Q 1631 397 2203 397 
Q 2534 397 2845 478 
Q 3156 559 3463 722 
L 3463 178 
Q 3153 47 2828 -22 
Q 2503 -91 2169 -91 
Q 1331 -91 842 396 
Q 353 884 353 1716 
Q 353 2575 817 3079 
Q 1281 3584 2069 3584 
Q 2775 3584 3186 3129 
Q 3597 2675 3597 1894 
z
M 3022 2063 
Q 3016 2534 2758 2815 
Q 2500 3097 2075 3097 
Q 1594 3097 1305 2825 
Q 1016 2553 972 2059 
L 3022 2063 
z
" transform="scale(0.015625)"/>
      <path id="DejaVuSans-74" d="M 1172 4494 
L 1172 3500 
L 2356 3500 
L 2356 3053 
L 1172 3053 
L 1172 1153 
Q 1172 725 1289 603 
Q 1406 481 1766 481 
L 2356 481 
L 2356 0 
L 1766 0 
Q 1100 0 847 248 
Q 594 497 594 1153 
L 594 3053 
L 172 3053 
L 172 3500 
L 594 3500 
L 594 4494 
L 1172 4494 
z
" transform="scale(0.015625)"/>
      <path id="DejaVuSans-79" d="M 2059 -325 
Q 1816 -950 1584 -1140 
Q 1353 -1331 966 -1331 
L 506 -1331 
L 506 -850 
L 844 -850 
Q 1081 -850 1212 -737 
Q 1344 -625 1503 -206 
L 1606 56 
L 191 3500 
L 800 3500 
L 1894 763 
L 2988 3500 
L 3597 3500 
L 2059 -325 
z
" transform="scale(0.015625)"/>
     </defs>
     <use xlink:href="#DejaVuSans-46"/>
     <use xlink:href="#DejaVuSans-69" x="50.269531"/>
     <use xlink:href="#DejaVuSans-73" x="78.052734"/>
     <use xlink:href="#DejaVuSans-73" x="130.152344"/>
     <use xlink:href="#DejaVuSans-69" x="182.251953"/>
     <use xlink:href="#DejaVuSans-6f" x="210.035156"/>
     <use xlink:href="#DejaVuSans-6e" x="271.216797"/>
     <use xlink:href="#DejaVuSans-20" x="334.595703"/>
     <use xlink:href="#DejaVuSans-44" x="366.382812"/>
     <use xlink:href="#DejaVuSans-65" x="443.384766"/>
     <use xlink:href="#DejaVuSans-6e" x="504.908203"/>
     <use xlink:href="#DejaVuSans-73" x="568.287109"/>
     <use xlink:href="#DejaVuSans-69" x="620.386719"/>
     <use xlink:href="#DejaVuSans-74" x="648.169922"/>
     <use xlink:href="#DejaVuSans-79" x="687.378906"/>
    </g>
   </g>
  </g>
 </g>
 <defs>
  <clipPath id="p8702a193dc">
   <rect x="42.828125" y="22.318125" width="357.12" height="266.112"/>
  </clipPath>
 </defs>
</svg>
