<?xml version="1.0" encoding="utf-8" standalone="no"?>
<!DOCTYPE svg PUBLIC "-//W3C//DTD SVG 1.1//EN"
  "http://www.w3.org/Graphics/SVG/1.1/DTD/svg11.dtd">
<svg xmlns:xlink="http://www.w3.org/1999/xlink" width="394.423125pt" height="312.30825pt" viewBox="0 0 394.423125 312.30825" xmlns="http://www.w3.org/2000/svg" version="1.1">
 <metadata>
  <rdf:RDF xmlns:dc="http://purl.org/dc/elements/1.1/" xmlns:cc="http://creativecommons.org/ns#" xmlns:rdf="http://www.w3.org/1999/02/22-rdf-syntax-ns#">
   <cc:Work>
    <dc:type rdf:resource="http://purl.org/dc/dcmitype/StillImage"/>
    <dc:date>2024-03-16T15:28:09.962398</dc:date>
    <dc:format>image/svg+xml</dc:format>
    <dc:creator>
     <cc:Agent>
      <dc:title>Matplotlib v3.8.3, https://matplotlib.org/</dc:title>
     </cc:Agent>
    </dc:creator>
   </cc:Work>
  </rdf:RDF>
 </metadata>
 <defs>
  <style type="text/css">*{stroke-linejoin: round; stroke-linecap: butt}</style>
 </defs>
 <g id="figure_1">
  <g id="patch_1">
   <path d="M 0 312.30825 
L 394.423125 312.30825 
L 394.423125 0 
L 0 0 
z
" style="fill: #ffffff"/>
  </g>
  <g id="axes_1">
   <g id="patch_2">
    <path d="M 30.103125 288.430125 
L 387.223125 288.430125 
L 387.223125 22.318125 
L 30.103125 22.318125 
z
" style="fill: #ffffff"/>
   </g>
   <g id="matplotlib.axis_1">
    <g id="xtick_1">
     <g id="line2d_1">
      <defs>
       <path id="m5455835e46" d="M 0 0 
L 0 3.5 
" style="stroke: #000000; stroke-width: 0.8"/>
      </defs>
      <g>
       <use xlink:href="#m5455835e46" x="46.335852" y="288.430125" style="stroke: #000000; stroke-width: 0.8"/>
      </g>
     </g>
     <g id="text_1">
      <!-- 0 -->
      <g transform="translate(43.154602 303.028562) scale(0.1 -0.1)">
       <defs>
        <path id="DejaVuSans-30" d="M 2034 4250 
Q 1547 4250 1301 3770 
Q 1056 3291 1056 2328 
Q 1056 1369 1301 889 
Q 1547 409 2034 409 
Q 2525 409 2770 889 
Q 3016 1369 3016 2328 
Q 3016 3291 2770 3770 
Q 2525 4250 2034 4250 
z
M 2034 4750 
Q 2819 4750 3233 4129 
Q 3647 3509 3647 2328 
Q 3647 1150 3233 529 
Q 2819 -91 2034 -91 
Q 1250 -91 836 529 
Q 422 1150 422 2328 
Q 422 3509 836 4129 
Q 1250 4750 2034 4750 
z
" transform="scale(0.015625)"/>
       </defs>
       <use xlink:href="#DejaVuSans-30"/>
      </g>
     </g>
    </g>
    <g id="xtick_2">
     <g id="line2d_2">
      <g>
       <use xlink:href="#m5455835e46" x="86.219703" y="288.430125" style="stroke: #000000; stroke-width: 0.8"/>
      </g>
     </g>
     <g id="text_2">
      <!-- 50 -->
      <g transform="translate(79.857203 303.028562) scale(0.1 -0.1)">
       <defs>
        <path id="DejaVuSans-35" d="M 691 4666 
L 3169 4666 
L 3169 4134 
L 1269 4134 
L 1269 2991 
Q 1406 3038 1543 3061 
Q 1681 3084 1819 3084 
Q 2600 3084 3056 2656 
Q 3513 2228 3513 1497 
Q 3513 744 3044 326 
Q 2575 -91 1722 -91 
Q 1428 -91 1123 -41 
Q 819 9 494 109 
L 494 744 
Q 775 591 1075 516 
Q 1375 441 1709 441 
Q 2250 441 2565 725 
Q 2881 1009 2881 1497 
Q 2881 1984 2565 2268 
Q 2250 2553 1709 2553 
Q 1456 2553 1204 2497 
Q 953 2441 691 2322 
L 691 4666 
z
" transform="scale(0.015625)"/>
       </defs>
       <use xlink:href="#DejaVuSans-35"/>
       <use xlink:href="#DejaVuSans-30" x="63.623047"/>
      </g>
     </g>
    </g>
    <g id="xtick_3">
     <g id="line2d_3">
      <g>
       <use xlink:href="#m5455835e46" x="126.103554" y="288.430125" style="stroke: #000000; stroke-width: 0.8"/>
      </g>
     </g>
     <g id="text_3">
      <!-- 100 -->
      <g transform="translate(116.559804 303.028562) scale(0.1 -0.1)">
       <defs>
        <path id="DejaVuSans-31" d="M 794 531 
L 1825 531 
L 1825 4091 
L 703 3866 
L 703 4441 
L 1819 4666 
L 2450 4666 
L 2450 531 
L 3481 531 
L 3481 0 
L 794 0 
L 794 531 
z
" transform="scale(0.015625)"/>
       </defs>
       <use xlink:href="#DejaVuSans-31"/>
       <use xlink:href="#DejaVuSans-30" x="63.623047"/>
       <use xlink:href="#DejaVuSans-30" x="127.246094"/>
      </g>
     </g>
    </g>
    <g id="xtick_4">
     <g id="line2d_4">
      <g>
       <use xlink:href="#m5455835e46" x="165.987405" y="288.430125" style="stroke: #000000; stroke-width: 0.8"/>
      </g>
     </g>
     <g id="text_4">
      <!-- 150 -->
      <g transform="translate(156.443655 303.028562) scale(0.1 -0.1)">
       <use xlink:href="#DejaVuSans-31"/>
       <use xlink:href="#DejaVuSans-35" x="63.623047"/>
       <use xlink:href="#DejaVuSans-30" x="127.246094"/>
      </g>
     </g>
    </g>
    <g id="xtick_5">
     <g id="line2d_5">
      <g>
       <use xlink:href="#m5455835e46" x="205.871255" y="288.430125" style="stroke: #000000; stroke-width: 0.8"/>
      </g>
     </g>
     <g id="text_5">
      <!-- 200 -->
      <g transform="translate(196.327505 303.028562) scale(0.1 -0.1)">
       <defs>
        <path id="DejaVuSans-32" d="M 1228 531 
L 3431 531 
L 3431 0 
L 469 0 
L 469 531 
Q 828 903 1448 1529 
Q 2069 2156 2228 2338 
Q 2531 2678 2651 2914 
Q 2772 3150 2772 3378 
Q 2772 3750 2511 3984 
Q 2250 4219 1831 4219 
Q 1534 4219 1204 4116 
Q 875 4013 500 3803 
L 500 4441 
Q 881 4594 1212 4672 
Q 1544 4750 1819 4750 
Q 2544 4750 2975 4387 
Q 3406 4025 3406 3419 
Q 3406 3131 3298 2873 
Q 3191 2616 2906 2266 
Q 2828 2175 2409 1742 
Q 1991 1309 1228 531 
z
" transform="scale(0.015625)"/>
       </defs>
       <use xlink:href="#DejaVuSans-32"/>
       <use xlink:href="#DejaVuSans-30" x="63.623047"/>
       <use xlink:href="#DejaVuSans-30" x="127.246094"/>
      </g>
     </g>
    </g>
    <g id="xtick_6">
     <g id="line2d_6">
      <g>
       <use xlink:href="#m5455835e46" x="245.755106" y="288.430125" style="stroke: #000000; stroke-width: 0.8"/>
      </g>
     </g>
     <g id="text_6">
      <!-- 250 -->
      <g transform="translate(236.211356 303.028562) scale(0.1 -0.1)">
       <use xlink:href="#DejaVuSans-32"/>
       <use xlink:href="#DejaVuSans-35" x="63.623047"/>
       <use xlink:href="#DejaVuSans-30" x="127.246094"/>
      </g>
     </g>
    </g>
    <g id="xtick_7">
     <g id="line2d_7">
      <g>
       <use xlink:href="#m5455835e46" x="285.638957" y="288.430125" style="stroke: #000000; stroke-width: 0.8"/>
      </g>
     </g>
     <g id="text_7">
      <!-- 300 -->
      <g transform="translate(276.095207 303.028562) scale(0.1 -0.1)">
       <defs>
        <path id="DejaVuSans-33" d="M 2597 2516 
Q 3050 2419 3304 2112 
Q 3559 1806 3559 1356 
Q 3559 666 3084 287 
Q 2609 -91 1734 -91 
Q 1441 -91 1130 -33 
Q 819 25 488 141 
L 488 750 
Q 750 597 1062 519 
Q 1375 441 1716 441 
Q 2309 441 2620 675 
Q 2931 909 2931 1356 
Q 2931 1769 2642 2001 
Q 2353 2234 1838 2234 
L 1294 2234 
L 1294 2753 
L 1863 2753 
Q 2328 2753 2575 2939 
Q 2822 3125 2822 3475 
Q 2822 3834 2567 4026 
Q 2313 4219 1838 4219 
Q 1578 4219 1281 4162 
Q 984 4106 628 3988 
L 628 4550 
Q 988 4650 1302 4700 
Q 1616 4750 1894 4750 
Q 2613 4750 3031 4423 
Q 3450 4097 3450 3541 
Q 3450 3153 3228 2886 
Q 3006 2619 2597 2516 
z
" transform="scale(0.015625)"/>
       </defs>
       <use xlink:href="#DejaVuSans-33"/>
       <use xlink:href="#DejaVuSans-30" x="63.623047"/>
       <use xlink:href="#DejaVuSans-30" x="127.246094"/>
      </g>
     </g>
    </g>
    <g id="xtick_8">
     <g id="line2d_8">
      <g>
       <use xlink:href="#m5455835e46" x="325.522808" y="288.430125" style="stroke: #000000; stroke-width: 0.8"/>
      </g>
     </g>
     <g id="text_8">
      <!-- 350 -->
      <g transform="translate(315.979058 303.028562) scale(0.1 -0.1)">
       <use xlink:href="#DejaVuSans-33"/>
       <use xlink:href="#DejaVuSans-35" x="63.623047"/>
       <use xlink:href="#DejaVuSans-30" x="127.246094"/>
      </g>
     </g>
    </g>
    <g id="xtick_9">
     <g id="line2d_9">
      <g>
       <use xlink:href="#m5455835e46" x="365.406659" y="288.430125" style="stroke: #000000; stroke-width: 0.8"/>
      </g>
     </g>
     <g id="text_9">
      <!-- 400 -->
      <g transform="translate(355.862909 303.028562) scale(0.1 -0.1)">
       <defs>
        <path id="DejaVuSans-34" d="M 2419 4116 
L 825 1625 
L 2419 1625 
L 2419 4116 
z
M 2253 4666 
L 3047 4666 
L 3047 1625 
L 3713 1625 
L 3713 1100 
L 3047 1100 
L 3047 0 
L 2419 0 
L 2419 1100 
L 313 1100 
L 313 1709 
L 2253 4666 
z
" transform="scale(0.015625)"/>
       </defs>
       <use xlink:href="#DejaVuSans-34"/>
       <use xlink:href="#DejaVuSans-30" x="63.623047"/>
       <use xlink:href="#DejaVuSans-30" x="127.246094"/>
      </g>
     </g>
    </g>
   </g>
   <g id="matplotlib.axis_2">
    <g id="ytick_1">
     <g id="line2d_10">
      <defs>
       <path id="m20fbaa03d4" d="M 0 0 
L -3.5 0 
" style="stroke: #000000; stroke-width: 0.8"/>
      </defs>
      <g>
       <use xlink:href="#m20fbaa03d4" x="30.103125" y="276.334125" style="stroke: #000000; stroke-width: 0.8"/>
      </g>
     </g>
     <g id="text_10">
      <!-- 0.0 -->
      <g transform="translate(7.2 280.133344) scale(0.1 -0.1)">
       <defs>
        <path id="DejaVuSans-2e" d="M 684 794 
L 1344 794 
L 1344 0 
L 684 0 
L 684 794 
z
" transform="scale(0.015625)"/>
       </defs>
       <use xlink:href="#DejaVuSans-30"/>
       <use xlink:href="#DejaVuSans-2e" x="63.623047"/>
       <use xlink:href="#DejaVuSans-30" x="95.410156"/>
      </g>
     </g>
    </g>
    <g id="ytick_2">
     <g id="line2d_11">
      <g>
       <use xlink:href="#m20fbaa03d4" x="30.103125" y="231.856255" style="stroke: #000000; stroke-width: 0.8"/>
      </g>
     </g>
     <g id="text_11">
      <!-- 0.5 -->
      <g transform="translate(7.2 235.655474) scale(0.1 -0.1)">
       <use xlink:href="#DejaVuSans-30"/>
       <use xlink:href="#DejaVuSans-2e" x="63.623047"/>
       <use xlink:href="#DejaVuSans-35" x="95.410156"/>
      </g>
     </g>
    </g>
    <g id="ytick_3">
     <g id="line2d_12">
      <g>
       <use xlink:href="#m20fbaa03d4" x="30.103125" y="187.378386" style="stroke: #000000; stroke-width: 0.8"/>
      </g>
     </g>
     <g id="text_12">
      <!-- 1.0 -->
      <g transform="translate(7.2 191.177605) scale(0.1 -0.1)">
       <use xlink:href="#DejaVuSans-31"/>
       <use xlink:href="#DejaVuSans-2e" x="63.623047"/>
       <use xlink:href="#DejaVuSans-30" x="95.410156"/>
      </g>
     </g>
    </g>
    <g id="ytick_4">
     <g id="line2d_13">
      <g>
       <use xlink:href="#m20fbaa03d4" x="30.103125" y="142.900516" style="stroke: #000000; stroke-width: 0.8"/>
      </g>
     </g>
     <g id="text_13">
      <!-- 1.5 -->
      <g transform="translate(7.2 146.699735) scale(0.1 -0.1)">
       <use xlink:href="#DejaVuSans-31"/>
       <use xlink:href="#DejaVuSans-2e" x="63.623047"/>
       <use xlink:href="#DejaVuSans-35" x="95.410156"/>
      </g>
     </g>
    </g>
    <g id="ytick_5">
     <g id="line2d_14">
      <g>
       <use xlink:href="#m20fbaa03d4" x="30.103125" y="98.422647" style="stroke: #000000; stroke-width: 0.8"/>
      </g>
     </g>
     <g id="text_14">
      <!-- 2.0 -->
      <g transform="translate(7.2 102.221865) scale(0.1 -0.1)">
       <use xlink:href="#DejaVuSans-32"/>
       <use xlink:href="#DejaVuSans-2e" x="63.623047"/>
       <use xlink:href="#DejaVuSans-30" x="95.410156"/>
      </g>
     </g>
    </g>
    <g id="ytick_6">
     <g id="line2d_15">
      <g>
       <use xlink:href="#m20fbaa03d4" x="30.103125" y="53.944777" style="stroke: #000000; stroke-width: 0.8"/>
      </g>
     </g>
     <g id="text_15">
      <!-- 2.5 -->
      <g transform="translate(7.2 57.743996) scale(0.1 -0.1)">
       <use xlink:href="#DejaVuSans-32"/>
       <use xlink:href="#DejaVuSans-2e" x="63.623047"/>
       <use xlink:href="#DejaVuSans-35" x="95.410156"/>
      </g>
     </g>
    </g>
   </g>
   <g id="line2d_16">
    <path d="M 46.335852 276.334125 
L 47.133529 276.334125 
L 47.931206 45.936849 
L 48.728883 45.203684 
L 49.52656 45.962595 
L 50.324237 45.197547 
L 51.121914 43.16089 
L 51.919591 43.953147 
L 53.514945 41.700777 
L 54.312622 276.334125 
L 56.705653 276.334125 
L 57.50333 38.546708 
L 58.301008 40.36306 
L 59.098685 42.538494 
L 59.896362 42.775122 
L 60.694039 41.857612 
L 61.491716 41.63473 
L 62.289393 41.993115 
L 63.08707 42.512888 
L 63.884747 276.334125 
L 66.277778 276.334125 
L 67.075455 40.663164 
L 67.873132 40.238032 
L 68.670809 42.943184 
L 69.468486 40.980159 
L 70.266163 39.526134 
L 71.06384 39.584529 
L 71.861517 45.337749 
L 72.659194 41.802275 
L 73.456871 276.334125 
L 75.849902 276.334125 
L 76.647579 39.974043 
L 77.445256 43.326458 
L 78.242933 42.745468 
L 79.04061 39.049855 
L 79.838287 40.911481 
L 80.635964 41.131655 
L 82.231318 34.885682 
L 83.028995 276.334125 
L 85.422026 276.334125 
L 86.219703 41.281757 
L 87.01738 43.984554 
L 87.815057 41.621674 
L 88.612734 37.935267 
L 89.410411 42.441008 
L 90.208088 41.903789 
L 91.803442 41.603759 
L 92.601119 276.334125 
L 94.99415 276.334125 
L 95.791827 37.570552 
L 96.589504 39.114574 
L 97.387181 41.912064 
L 98.184858 43.027242 
L 98.982535 41.718721 
L 99.780212 38.836118 
L 100.577889 39.64365 
L 101.375566 39.129331 
L 102.173243 276.334125 
L 104.566274 276.334125 
L 105.363951 36.076881 
L 106.161628 40.214085 
L 106.959305 39.179042 
L 107.756982 36.944746 
L 108.55466 36.589652 
L 109.352337 38.378774 
L 110.150014 40.87896 
L 110.947691 37.812376 
L 111.745368 276.334125 
L 114.138399 276.334125 
L 114.936076 35.824058 
L 115.733753 35.721881 
L 116.53143 36.856016 
L 117.329107 35.474061 
L 119.722138 34.516882 
L 120.519815 34.473603 
L 121.317492 276.334125 
L 123.710523 276.334125 
L 124.5082 42.242002 
L 125.305877 42.214117 
L 126.103554 40.164492 
L 126.901231 41.245009 
L 127.698908 39.479737 
L 128.496585 42.962118 
L 129.294262 38.905273 
L 130.091939 35.859407 
L 130.889616 276.334125 
L 133.282647 276.334125 
L 134.080324 35.202411 
L 134.878001 38.352779 
L 135.675678 38.397735 
L 136.473355 36.96873 
L 137.271032 37.955966 
L 138.068709 38.002939 
L 138.866386 38.506181 
L 139.664063 34.414125 
L 140.46174 276.334125 
L 142.854771 276.334125 
L 143.652448 35.533885 
L 144.450125 37.865955 
L 145.247802 36.512921 
L 146.045479 37.21037 
L 146.843156 35.071795 
L 147.640833 34.772158 
L 148.43851 36.076933 
L 149.236187 35.031505 
L 150.033864 276.334125 
L 152.426895 276.334125 
L 153.224572 38.692869 
L 154.022249 40.265603 
L 154.819926 37.897835 
L 155.617603 35.066115 
L 156.41528 38.020512 
L 157.212957 39.768664 
L 158.010634 39.118381 
L 158.808312 38.950347 
L 159.605989 276.334125 
L 161.99902 276.334125 
L 162.796697 37.805644 
L 163.594374 37.806202 
L 164.392051 37.517979 
L 165.189728 36.931633 
L 165.987405 38.535783 
L 166.785082 38.231261 
L 168.380436 40.330789 
L 169.178113 276.334125 
L 171.571144 276.334125 
L 172.368821 41.122557 
L 173.166498 40.594177 
L 173.964175 43.364039 
L 174.761852 42.074554 
L 175.559529 47.521239 
L 176.357206 45.464646 
L 177.154883 46.791378 
L 177.95256 44.03527 
L 178.750237 276.334125 
L 181.143268 276.334125 
L 181.940945 42.151849 
L 182.738622 40.039077 
L 183.536299 42.347899 
L 184.333976 41.041129 
L 185.131653 39.164374 
L 185.92933 40.285103 
L 186.727007 40.207045 
L 187.524684 37.280583 
L 188.322361 276.334125 
L 190.715392 276.334125 
L 191.513069 36.014047 
L 192.310746 38.257591 
L 193.108423 35.410441 
L 193.9061 41.116434 
L 195.501454 40.276046 
L 196.299131 42.45436 
L 197.096808 40.366119 
L 197.894485 276.334125 
L 200.287516 276.334125 
L 201.085193 38.232743 
L 201.88287 40.738635 
L 202.680547 39.610657 
L 203.478224 40.461003 
L 204.275901 39.825312 
L 205.073578 40.806251 
L 205.871255 43.081965 
L 206.668932 43.83074 
L 207.466609 276.334125 
L 209.859641 276.334125 
L 210.657318 44.168067 
L 211.454995 46.570857 
L 212.252672 44.858175 
L 213.050349 43.712769 
L 213.848026 43.901735 
L 214.645703 43.225587 
L 215.44338 43.657807 
L 216.241057 41.61049 
L 217.038734 276.334125 
L 219.431765 276.334125 
L 220.229442 42.552209 
L 221.027119 44.587767 
L 221.824796 47.044002 
L 222.622473 43.129837 
L 223.42015 42.456864 
L 224.217827 42.605126 
L 225.015504 42.968219 
L 225.813181 41.640814 
L 226.610858 276.334125 
L 229.003889 276.334125 
L 229.801566 42.986048 
L 230.599243 42.238563 
L 231.39692 46.220391 
L 232.194597 47.33734 
L 232.992274 48.685873 
L 233.789951 46.11047 
L 234.587628 44.471238 
L 235.385305 44.556728 
L 236.182982 276.334125 
L 238.576013 276.334125 
L 239.37369 43.98411 
L 240.171367 42.66381 
L 240.969044 44.110327 
L 241.766721 44.789445 
L 242.564398 46.470359 
L 243.362075 44.561 
L 244.159752 41.460357 
L 244.957429 42.833463 
L 245.755106 276.334125 
L 248.148137 276.334125 
L 248.945814 40.014872 
L 249.743491 43.827584 
L 250.541168 44.474703 
L 251.338845 41.543644 
L 252.136522 44.137262 
L 252.934199 44.167755 
L 253.731876 41.11716 
L 254.529553 45.074832 
L 255.32723 276.334125 
L 257.720261 276.334125 
L 258.517938 44.80695 
L 259.315616 46.224936 
L 260.113293 45.328597 
L 260.91097 47.664648 
L 261.708647 47.849586 
L 262.506324 46.70624 
L 263.304001 46.784752 
L 264.101678 40.706607 
L 264.899355 276.334125 
L 267.292386 276.334125 
L 268.090063 50.796617 
L 268.88774 46.34943 
L 269.685417 45.573905 
L 271.280771 44.919624 
L 272.078448 45.563207 
L 272.876125 45.971946 
L 273.673802 46.676506 
L 274.471479 276.334125 
L 276.86451 276.334125 
L 277.662187 39.847511 
L 278.459864 41.57514 
L 279.257541 43.714404 
L 280.055218 42.325263 
L 280.852895 41.888273 
L 281.650572 41.267733 
L 282.448249 41.394735 
L 283.245926 42.062885 
L 284.043603 276.334125 
L 286.436634 276.334125 
L 287.234311 40.93883 
L 288.031988 39.13205 
L 288.829665 41.926751 
L 289.627342 41.320392 
L 290.425019 41.137441 
L 291.222696 42.201685 
L 292.020373 42.033303 
L 292.81805 38.755736 
L 293.615727 276.334125 
L 296.008758 276.334125 
L 296.806435 44.064552 
L 297.604112 44.627272 
L 298.401789 45.865786 
L 299.199466 43.744391 
L 299.997143 44.334866 
L 300.79482 43.497236 
L 301.592497 42.384677 
L 302.390174 39.143383 
L 303.187851 276.334125 
L 305.580882 276.334125 
L 306.378559 41.919938 
L 307.176236 44.48489 
L 308.77159 46.257781 
L 309.569268 42.027668 
L 311.164622 38.337297 
L 311.962299 38.940127 
L 312.759976 276.334125 
L 315.153007 276.334125 
L 315.950684 40.172905 
L 316.748361 42.769171 
L 317.546038 41.989233 
L 318.343715 41.032778 
L 319.141392 39.559776 
L 319.939069 42.278154 
L 320.736746 40.282607 
L 321.534423 37.431053 
L 322.3321 276.334125 
L 324.725131 276.334125 
L 325.522808 41.68166 
L 326.320485 44.695523 
L 327.118162 42.298588 
L 327.915839 39.377101 
L 328.713516 40.958 
L 329.511193 38.189674 
L 330.30887 41.273614 
L 331.106547 39.430918 
L 331.904224 276.334125 
L 334.297255 276.334125 
L 335.094932 46.256768 
L 335.892609 46.284017 
L 336.690286 41.339442 
L 338.28564 43.2796 
L 339.083317 41.823075 
L 339.880994 43.950573 
L 340.678671 39.353894 
L 341.476348 276.334125 
L 343.869379 276.334125 
L 344.667056 41.569093 
L 345.464733 38.961965 
L 346.26241 39.062247 
L 347.060087 40.642293 
L 347.857764 40.128727 
L 348.655441 39.279184 
L 349.453118 38.704857 
L 350.250795 40.331269 
L 351.048472 276.334125 
L 353.441503 276.334125 
L 354.23918 38.519385 
L 355.036857 39.685766 
L 355.834534 42.214608 
L 356.632211 38.907166 
L 357.429888 39.86483 
L 358.227565 38.228063 
L 359.025242 38.206919 
L 359.82292 40.143166 
L 360.620597 276.334125 
L 363.013628 276.334125 
L 363.811305 40.248193 
L 364.608982 42.593171 
L 365.406659 43.852982 
L 366.204336 44.002153 
L 367.002013 42.612635 
L 367.79969 40.454947 
L 368.597367 40.940264 
L 369.395044 42.221581 
L 370.192721 276.334125 
L 370.990398 276.334125 
L 370.990398 276.334125 
" clip-path="url(#pcead89468a)" style="fill: none; stroke: #1f77b4; stroke-width: 1.5; stroke-linecap: square"/>
   </g>
   <g id="patch_3">
    <path d="M 30.103125 288.430125 
L 30.103125 22.318125 
" style="fill: none; stroke: #000000; stroke-width: 0.8; stroke-linejoin: miter; stroke-linecap: square"/>
   </g>
   <g id="patch_4">
    <path d="M 387.223125 288.430125 
L 387.223125 22.318125 
" style="fill: none; stroke: #000000; stroke-width: 0.8; stroke-linejoin: miter; stroke-linecap: square"/>
   </g>
   <g id="patch_5">
    <path d="M 30.103125 288.430125 
L 387.223125 288.430125 
" style="fill: none; stroke: #000000; stroke-width: 0.8; stroke-linejoin: miter; stroke-linecap: square"/>
   </g>
   <g id="patch_6">
    <path d="M 30.103125 22.318125 
L 387.223125 22.318125 
" style="fill: none; stroke: #000000; stroke-width: 0.8; stroke-linejoin: miter; stroke-linecap: square"/>
   </g>
   <g id="text_16">
    <!-- Fission Density -->
    <g transform="translate(163.87125 16.318125) scale(0.12 -0.12)">
     <defs>
      <path id="DejaVuSans-46" d="M 628 4666 
L 3309 4666 
L 3309 4134 
L 1259 4134 
L 1259 2759 
L 3109 2759 
L 3109 2228 
L 1259 2228 
L 1259 0 
L 628 0 
L 628 4666 
z
" transform="scale(0.015625)"/>
      <path id="DejaVuSans-69" d="M 603 3500 
L 1178 3500 
L 1178 0 
L 603 0 
L 603 3500 
z
M 603 4863 
L 1178 4863 
L 1178 4134 
L 603 4134 
L 603 4863 
z
" transform="scale(0.015625)"/>
      <path id="DejaVuSans-73" d="M 2834 3397 
L 2834 2853 
Q 2591 2978 2328 3040 
Q 2066 3103 1784 3103 
Q 1356 3103 1142 2972 
Q 928 2841 928 2578 
Q 928 2378 1081 2264 
Q 1234 2150 1697 2047 
L 1894 2003 
Q 2506 1872 2764 1633 
Q 3022 1394 3022 966 
Q 3022 478 2636 193 
Q 2250 -91 1575 -91 
Q 1294 -91 989 -36 
Q 684 19 347 128 
L 347 722 
Q 666 556 975 473 
Q 1284 391 1588 391 
Q 1994 391 2212 530 
Q 2431 669 2431 922 
Q 2431 1156 2273 1281 
Q 2116 1406 1581 1522 
L 1381 1569 
Q 847 1681 609 1914 
Q 372 2147 372 2553 
Q 372 3047 722 3315 
Q 1072 3584 1716 3584 
Q 2034 3584 2315 3537 
Q 2597 3491 2834 3397 
z
" transform="scale(0.015625)"/>
      <path id="DejaVuSans-6f" d="M 1959 3097 
Q 1497 3097 1228 2736 
Q 959 2375 959 1747 
Q 959 1119 1226 758 
Q 1494 397 1959 397 
Q 2419 397 2687 759 
Q 2956 1122 2956 1747 
Q 2956 2369 2687 2733 
Q 2419 3097 1959 3097 
z
M 1959 3584 
Q 2709 3584 3137 3096 
Q 3566 2609 3566 1747 
Q 3566 888 3137 398 
Q 2709 -91 1959 -91 
Q 1206 -91 779 398 
Q 353 888 353 1747 
Q 353 2609 779 3096 
Q 1206 3584 1959 3584 
z
" transform="scale(0.015625)"/>
      <path id="DejaVuSans-6e" d="M 3513 2113 
L 3513 0 
L 2938 0 
L 2938 2094 
Q 2938 2591 2744 2837 
Q 2550 3084 2163 3084 
Q 1697 3084 1428 2787 
Q 1159 2491 1159 1978 
L 1159 0 
L 581 0 
L 581 3500 
L 1159 3500 
L 1159 2956 
Q 1366 3272 1645 3428 
Q 1925 3584 2291 3584 
Q 2894 3584 3203 3211 
Q 3513 2838 3513 2113 
z
" transform="scale(0.015625)"/>
      <path id="DejaVuSans-20" transform="scale(0.015625)"/>
      <path id="DejaVuSans-44" d="M 1259 4147 
L 1259 519 
L 2022 519 
Q 2988 519 3436 956 
Q 3884 1394 3884 2338 
Q 3884 3275 3436 3711 
Q 2988 4147 2022 4147 
L 1259 4147 
z
M 628 4666 
L 1925 4666 
Q 3281 4666 3915 4102 
Q 4550 3538 4550 2338 
Q 4550 1131 3912 565 
Q 3275 0 1925 0 
L 628 0 
L 628 4666 
z
" transform="scale(0.015625)"/>
      <path id="DejaVuSans-65" d="M 3597 1894 
L 3597 1613 
L 953 1613 
Q 991 1019 1311 708 
Q 1631 397 2203 397 
Q 2534 397 2845 478 
Q 3156 559 3463 722 
L 3463 178 
Q 3153 47 2828 -22 
Q 2503 -91 2169 -91 
Q 1331 -91 842 396 
Q 353 884 353 1716 
Q 353 2575 817 3079 
Q 1281 3584 2069 3584 
Q 2775 3584 3186 3129 
Q 3597 2675 3597 1894 
z
M 3022 2063 
Q 3016 2534 2758 2815 
Q 2500 3097 2075 3097 
Q 1594 3097 1305 2825 
Q 1016 2553 972 2059 
L 3022 2063 
z
" transform="scale(0.015625)"/>
      <path id="DejaVuSans-74" d="M 1172 4494 
L 1172 3500 
L 2356 3500 
L 2356 3053 
L 1172 3053 
L 1172 1153 
Q 1172 725 1289 603 
Q 1406 481 1766 481 
L 2356 481 
L 2356 0 
L 1766 0 
Q 1100 0 847 248 
Q 594 497 594 1153 
L 594 3053 
L 172 3053 
L 172 3500 
L 594 3500 
L 594 4494 
L 1172 4494 
z
" transform="scale(0.015625)"/>
      <path id="DejaVuSans-79" d="M 2059 -325 
Q 1816 -950 1584 -1140 
Q 1353 -1331 966 -1331 
L 506 -1331 
L 506 -850 
L 844 -850 
Q 1081 -850 1212 -737 
Q 1344 -625 1503 -206 
L 1606 56 
L 191 3500 
L 800 3500 
L 1894 763 
L 2988 3500 
L 3597 3500 
L 2059 -325 
z
" transform="scale(0.015625)"/>
     </defs>
     <use xlink:href="#DejaVuSans-46"/>
     <use xlink:href="#DejaVuSans-69" x="50.269531"/>
     <use xlink:href="#DejaVuSans-73" x="78.052734"/>
     <use xlink:href="#DejaVuSans-73" x="130.152344"/>
     <use xlink:href="#DejaVuSans-69" x="182.251953"/>
     <use xlink:href="#DejaVuSans-6f" x="210.035156"/>
     <use xlink:href="#DejaVuSans-6e" x="271.216797"/>
     <use xlink:href="#DejaVuSans-20" x="334.595703"/>
     <use xlink:href="#DejaVuSans-44" x="366.382812"/>
     <use xlink:href="#DejaVuSans-65" x="443.384766"/>
     <use xlink:href="#DejaVuSans-6e" x="504.908203"/>
     <use xlink:href="#DejaVuSans-73" x="568.287109"/>
     <use xlink:href="#DejaVuSans-69" x="620.386719"/>
     <use xlink:href="#DejaVuSans-74" x="648.169922"/>
     <use xlink:href="#DejaVuSans-79" x="687.378906"/>
    </g>
   </g>
  </g>
 </g>
 <defs>
  <clipPath id="pcead89468a">
   <rect x="30.103125" y="22.318125" width="357.12" height="266.112"/>
  </clipPath>
 </defs>
</svg>
