<?xml version="1.0" encoding="utf-8" standalone="no"?>
<!DOCTYPE svg PUBLIC "-//W3C//DTD SVG 1.1//EN"
  "http://www.w3.org/Graphics/SVG/1.1/DTD/svg11.dtd">
<svg xmlns:xlink="http://www.w3.org/1999/xlink" width="391.245pt" height="312.30825pt" viewBox="0 0 391.245 312.30825" xmlns="http://www.w3.org/2000/svg" version="1.1">
 <metadata>
  <rdf:RDF xmlns:dc="http://purl.org/dc/elements/1.1/" xmlns:cc="http://creativecommons.org/ns#" xmlns:rdf="http://www.w3.org/1999/02/22-rdf-syntax-ns#">
   <cc:Work>
    <dc:type rdf:resource="http://purl.org/dc/dcmitype/StillImage"/>
    <dc:date>2024-03-16T12:28:44.799279</dc:date>
    <dc:format>image/svg+xml</dc:format>
    <dc:creator>
     <cc:Agent>
      <dc:title>Matplotlib v3.8.3, https://matplotlib.org/</dc:title>
     </cc:Agent>
    </dc:creator>
   </cc:Work>
  </rdf:RDF>
 </metadata>
 <defs>
  <style type="text/css">*{stroke-linejoin: round; stroke-linecap: butt}</style>
 </defs>
 <g id="figure_1">
  <g id="patch_1">
   <path d="M 0 312.30825 
L 391.245 312.30825 
L 391.245 0 
L 0 0 
z
" style="fill: #ffffff"/>
  </g>
  <g id="axes_1">
   <g id="patch_2">
    <path d="M 26.925 288.430125 
L 384.045 288.430125 
L 384.045 22.318125 
L 26.925 22.318125 
z
" style="fill: #ffffff"/>
   </g>
   <g id="matplotlib.axis_1">
    <g id="xtick_1">
     <g id="line2d_1">
      <defs>
       <path id="mde0a24217d" d="M 0 0 
L 0 3.5 
" style="stroke: #000000; stroke-width: 0.8"/>
      </defs>
      <g>
       <use xlink:href="#mde0a24217d" x="43.157727" y="288.430125" style="stroke: #000000; stroke-width: 0.8"/>
      </g>
     </g>
     <g id="text_1">
      <!-- 0 -->
      <g transform="translate(39.976477 303.028562) scale(0.1 -0.1)">
       <defs>
        <path id="DejaVuSans-30" d="M 2034 4250 
Q 1547 4250 1301 3770 
Q 1056 3291 1056 2328 
Q 1056 1369 1301 889 
Q 1547 409 2034 409 
Q 2525 409 2770 889 
Q 3016 1369 3016 2328 
Q 3016 3291 2770 3770 
Q 2525 4250 2034 4250 
z
M 2034 4750 
Q 2819 4750 3233 4129 
Q 3647 3509 3647 2328 
Q 3647 1150 3233 529 
Q 2819 -91 2034 -91 
Q 1250 -91 836 529 
Q 422 1150 422 2328 
Q 422 3509 836 4129 
Q 1250 4750 2034 4750 
z
" transform="scale(0.015625)"/>
       </defs>
       <use xlink:href="#DejaVuSans-30"/>
      </g>
     </g>
    </g>
    <g id="xtick_2">
     <g id="line2d_2">
      <g>
       <use xlink:href="#mde0a24217d" x="83.041578" y="288.430125" style="stroke: #000000; stroke-width: 0.8"/>
      </g>
     </g>
     <g id="text_2">
      <!-- 50 -->
      <g transform="translate(76.679078 303.028562) scale(0.1 -0.1)">
       <defs>
        <path id="DejaVuSans-35" d="M 691 4666 
L 3169 4666 
L 3169 4134 
L 1269 4134 
L 1269 2991 
Q 1406 3038 1543 3061 
Q 1681 3084 1819 3084 
Q 2600 3084 3056 2656 
Q 3513 2228 3513 1497 
Q 3513 744 3044 326 
Q 2575 -91 1722 -91 
Q 1428 -91 1123 -41 
Q 819 9 494 109 
L 494 744 
Q 775 591 1075 516 
Q 1375 441 1709 441 
Q 2250 441 2565 725 
Q 2881 1009 2881 1497 
Q 2881 1984 2565 2268 
Q 2250 2553 1709 2553 
Q 1456 2553 1204 2497 
Q 953 2441 691 2322 
L 691 4666 
z
" transform="scale(0.015625)"/>
       </defs>
       <use xlink:href="#DejaVuSans-35"/>
       <use xlink:href="#DejaVuSans-30" x="63.623047"/>
      </g>
     </g>
    </g>
    <g id="xtick_3">
     <g id="line2d_3">
      <g>
       <use xlink:href="#mde0a24217d" x="122.925429" y="288.430125" style="stroke: #000000; stroke-width: 0.8"/>
      </g>
     </g>
     <g id="text_3">
      <!-- 100 -->
      <g transform="translate(113.381679 303.028562) scale(0.1 -0.1)">
       <defs>
        <path id="DejaVuSans-31" d="M 794 531 
L 1825 531 
L 1825 4091 
L 703 3866 
L 703 4441 
L 1819 4666 
L 2450 4666 
L 2450 531 
L 3481 531 
L 3481 0 
L 794 0 
L 794 531 
z
" transform="scale(0.015625)"/>
       </defs>
       <use xlink:href="#DejaVuSans-31"/>
       <use xlink:href="#DejaVuSans-30" x="63.623047"/>
       <use xlink:href="#DejaVuSans-30" x="127.246094"/>
      </g>
     </g>
    </g>
    <g id="xtick_4">
     <g id="line2d_4">
      <g>
       <use xlink:href="#mde0a24217d" x="162.80928" y="288.430125" style="stroke: #000000; stroke-width: 0.8"/>
      </g>
     </g>
     <g id="text_4">
      <!-- 150 -->
      <g transform="translate(153.26553 303.028562) scale(0.1 -0.1)">
       <use xlink:href="#DejaVuSans-31"/>
       <use xlink:href="#DejaVuSans-35" x="63.623047"/>
       <use xlink:href="#DejaVuSans-30" x="127.246094"/>
      </g>
     </g>
    </g>
    <g id="xtick_5">
     <g id="line2d_5">
      <g>
       <use xlink:href="#mde0a24217d" x="202.69313" y="288.430125" style="stroke: #000000; stroke-width: 0.8"/>
      </g>
     </g>
     <g id="text_5">
      <!-- 200 -->
      <g transform="translate(193.14938 303.028562) scale(0.1 -0.1)">
       <defs>
        <path id="DejaVuSans-32" d="M 1228 531 
L 3431 531 
L 3431 0 
L 469 0 
L 469 531 
Q 828 903 1448 1529 
Q 2069 2156 2228 2338 
Q 2531 2678 2651 2914 
Q 2772 3150 2772 3378 
Q 2772 3750 2511 3984 
Q 2250 4219 1831 4219 
Q 1534 4219 1204 4116 
Q 875 4013 500 3803 
L 500 4441 
Q 881 4594 1212 4672 
Q 1544 4750 1819 4750 
Q 2544 4750 2975 4387 
Q 3406 4025 3406 3419 
Q 3406 3131 3298 2873 
Q 3191 2616 2906 2266 
Q 2828 2175 2409 1742 
Q 1991 1309 1228 531 
z
" transform="scale(0.015625)"/>
       </defs>
       <use xlink:href="#DejaVuSans-32"/>
       <use xlink:href="#DejaVuSans-30" x="63.623047"/>
       <use xlink:href="#DejaVuSans-30" x="127.246094"/>
      </g>
     </g>
    </g>
    <g id="xtick_6">
     <g id="line2d_6">
      <g>
       <use xlink:href="#mde0a24217d" x="242.576981" y="288.430125" style="stroke: #000000; stroke-width: 0.8"/>
      </g>
     </g>
     <g id="text_6">
      <!-- 250 -->
      <g transform="translate(233.033231 303.028562) scale(0.1 -0.1)">
       <use xlink:href="#DejaVuSans-32"/>
       <use xlink:href="#DejaVuSans-35" x="63.623047"/>
       <use xlink:href="#DejaVuSans-30" x="127.246094"/>
      </g>
     </g>
    </g>
    <g id="xtick_7">
     <g id="line2d_7">
      <g>
       <use xlink:href="#mde0a24217d" x="282.460832" y="288.430125" style="stroke: #000000; stroke-width: 0.8"/>
      </g>
     </g>
     <g id="text_7">
      <!-- 300 -->
      <g transform="translate(272.917082 303.028562) scale(0.1 -0.1)">
       <defs>
        <path id="DejaVuSans-33" d="M 2597 2516 
Q 3050 2419 3304 2112 
Q 3559 1806 3559 1356 
Q 3559 666 3084 287 
Q 2609 -91 1734 -91 
Q 1441 -91 1130 -33 
Q 819 25 488 141 
L 488 750 
Q 750 597 1062 519 
Q 1375 441 1716 441 
Q 2309 441 2620 675 
Q 2931 909 2931 1356 
Q 2931 1769 2642 2001 
Q 2353 2234 1838 2234 
L 1294 2234 
L 1294 2753 
L 1863 2753 
Q 2328 2753 2575 2939 
Q 2822 3125 2822 3475 
Q 2822 3834 2567 4026 
Q 2313 4219 1838 4219 
Q 1578 4219 1281 4162 
Q 984 4106 628 3988 
L 628 4550 
Q 988 4650 1302 4700 
Q 1616 4750 1894 4750 
Q 2613 4750 3031 4423 
Q 3450 4097 3450 3541 
Q 3450 3153 3228 2886 
Q 3006 2619 2597 2516 
z
" transform="scale(0.015625)"/>
       </defs>
       <use xlink:href="#DejaVuSans-33"/>
       <use xlink:href="#DejaVuSans-30" x="63.623047"/>
       <use xlink:href="#DejaVuSans-30" x="127.246094"/>
      </g>
     </g>
    </g>
    <g id="xtick_8">
     <g id="line2d_8">
      <g>
       <use xlink:href="#mde0a24217d" x="322.344683" y="288.430125" style="stroke: #000000; stroke-width: 0.8"/>
      </g>
     </g>
     <g id="text_8">
      <!-- 350 -->
      <g transform="translate(312.800933 303.028562) scale(0.1 -0.1)">
       <use xlink:href="#DejaVuSans-33"/>
       <use xlink:href="#DejaVuSans-35" x="63.623047"/>
       <use xlink:href="#DejaVuSans-30" x="127.246094"/>
      </g>
     </g>
    </g>
    <g id="xtick_9">
     <g id="line2d_9">
      <g>
       <use xlink:href="#mde0a24217d" x="362.228534" y="288.430125" style="stroke: #000000; stroke-width: 0.8"/>
      </g>
     </g>
     <g id="text_9">
      <!-- 400 -->
      <g transform="translate(352.684784 303.028562) scale(0.1 -0.1)">
       <defs>
        <path id="DejaVuSans-34" d="M 2419 4116 
L 825 1625 
L 2419 1625 
L 2419 4116 
z
M 2253 4666 
L 3047 4666 
L 3047 1625 
L 3713 1625 
L 3713 1100 
L 3047 1100 
L 3047 0 
L 2419 0 
L 2419 1100 
L 313 1100 
L 313 1709 
L 2253 4666 
z
" transform="scale(0.015625)"/>
       </defs>
       <use xlink:href="#DejaVuSans-34"/>
       <use xlink:href="#DejaVuSans-30" x="63.623047"/>
       <use xlink:href="#DejaVuSans-30" x="127.246094"/>
      </g>
     </g>
    </g>
   </g>
   <g id="matplotlib.axis_2">
    <g id="ytick_1">
     <g id="line2d_10">
      <defs>
       <path id="mea90e931df" d="M 0 0 
L -3.5 0 
" style="stroke: #000000; stroke-width: 0.8"/>
      </defs>
      <g>
       <use xlink:href="#mea90e931df" x="26.925" y="276.334125" style="stroke: #000000; stroke-width: 0.8"/>
      </g>
     </g>
     <g id="text_10">
      <!-- 0 -->
      <g transform="translate(13.5625 280.133344) scale(0.1 -0.1)">
       <use xlink:href="#DejaVuSans-30"/>
      </g>
     </g>
    </g>
    <g id="ytick_2">
     <g id="line2d_11">
      <g>
       <use xlink:href="#mea90e931df" x="26.925" y="221.809823" style="stroke: #000000; stroke-width: 0.8"/>
      </g>
     </g>
     <g id="text_11">
      <!-- 5 -->
      <g transform="translate(13.5625 225.609041) scale(0.1 -0.1)">
       <use xlink:href="#DejaVuSans-35"/>
      </g>
     </g>
    </g>
    <g id="ytick_3">
     <g id="line2d_12">
      <g>
       <use xlink:href="#mea90e931df" x="26.925" y="167.28552" style="stroke: #000000; stroke-width: 0.8"/>
      </g>
     </g>
     <g id="text_12">
      <!-- 10 -->
      <g transform="translate(7.2 171.084739) scale(0.1 -0.1)">
       <use xlink:href="#DejaVuSans-31"/>
       <use xlink:href="#DejaVuSans-30" x="63.623047"/>
      </g>
     </g>
    </g>
    <g id="ytick_4">
     <g id="line2d_13">
      <g>
       <use xlink:href="#mea90e931df" x="26.925" y="112.761218" style="stroke: #000000; stroke-width: 0.8"/>
      </g>
     </g>
     <g id="text_13">
      <!-- 15 -->
      <g transform="translate(7.2 116.560436) scale(0.1 -0.1)">
       <use xlink:href="#DejaVuSans-31"/>
       <use xlink:href="#DejaVuSans-35" x="63.623047"/>
      </g>
     </g>
    </g>
    <g id="ytick_5">
     <g id="line2d_14">
      <g>
       <use xlink:href="#mea90e931df" x="26.925" y="58.236915" style="stroke: #000000; stroke-width: 0.8"/>
      </g>
     </g>
     <g id="text_14">
      <!-- 20 -->
      <g transform="translate(7.2 62.036134) scale(0.1 -0.1)">
       <use xlink:href="#DejaVuSans-32"/>
       <use xlink:href="#DejaVuSans-30" x="63.623047"/>
      </g>
     </g>
    </g>
   </g>
   <g id="line2d_15">
    <path d="M 43.157727 276.334125 
L 43.955404 276.334125 
L 44.753081 241.595927 
L 45.550758 269.780035 
L 47.146112 269.013164 
L 47.943789 268.882173 
L 49.539143 268.430695 
L 50.33682 215.954881 
L 51.134497 276.334125 
L 53.527528 276.334125 
L 54.325205 205.437858 
L 55.122883 267.448592 
L 56.718237 267.728611 
L 59.111268 267.852979 
L 59.908945 201.300156 
L 60.706622 276.334125 
L 63.099653 276.334125 
L 63.89733 195.196778 
L 64.695007 266.172774 
L 65.492684 265.706406 
L 66.290361 265.402913 
L 68.683392 265.188328 
L 69.481069 134.079926 
L 70.278746 276.334125 
L 72.671777 276.334125 
L 73.469454 155.443315 
L 74.267131 257.063635 
L 75.064808 256.9363 
L 75.862485 258.029416 
L 76.660162 260.591247 
L 77.457839 260.535679 
L 78.255516 260.063789 
L 79.053193 126.324 
L 79.85087 276.334125 
L 82.243901 276.334125 
L 83.041578 161.530312 
L 83.839255 266.321375 
L 84.636932 266.221974 
L 85.434609 261.993625 
L 86.232286 261.883524 
L 87.029963 262.294223 
L 87.82764 262.222994 
L 88.625317 154.314516 
L 89.422994 276.334125 
L 91.816025 276.334125 
L 92.613702 182.349264 
L 93.411379 264.362306 
L 94.209056 265.073857 
L 95.80441 264.811945 
L 96.602087 265.068303 
L 97.399764 265.745617 
L 98.197441 187.682036 
L 98.995118 276.334125 
L 101.388149 276.334125 
L 102.185826 184.894539 
L 102.983503 266.464714 
L 105.376535 267.140346 
L 106.174212 267.15851 
L 106.971889 266.955187 
L 107.769566 166.304072 
L 108.567243 276.334125 
L 110.960274 276.334125 
L 111.757951 165.177216 
L 112.555628 267.603144 
L 113.353305 267.637182 
L 114.150982 267.525327 
L 115.746336 267.606563 
L 116.544013 267.69639 
L 117.34169 197.3552 
L 118.139367 276.334125 
L 120.532398 276.334125 
L 121.330075 183.584656 
L 122.127752 266.173597 
L 122.925429 265.068511 
L 123.723106 264.650056 
L 124.520783 264.58084 
L 125.31846 264.879888 
L 126.116137 265.674947 
L 126.913814 125.984427 
L 127.711491 276.334125 
L 130.104522 276.334125 
L 130.902199 148.00221 
L 131.699876 262.891263 
L 132.497553 262.550943 
L 134.092907 262.844144 
L 134.890584 266.637061 
L 135.688261 266.860794 
L 136.485938 206.964931 
L 137.283615 276.334125 
L 139.676646 276.334125 
L 140.474323 170.882828 
L 141.272 263.205422 
L 142.867354 262.746463 
L 145.260385 262.912821 
L 146.058062 136.697025 
L 146.855739 276.334125 
L 149.24877 276.334125 
L 150.046447 188.312957 
L 150.844124 266.204615 
L 151.641801 266.319673 
L 152.439478 266.148503 
L 153.237155 266.524576 
L 154.034832 266.636459 
L 154.832509 267.142721 
L 155.630187 180.536111 
L 156.427864 276.334125 
L 158.820895 276.334125 
L 159.618572 175.656333 
L 160.416249 262.973703 
L 161.213926 263.021406 
L 162.011603 265.429563 
L 162.80928 267.057014 
L 163.606957 267.708479 
L 164.404634 268.171451 
L 165.202311 208.607433 
L 165.999988 276.334125 
L 168.393019 276.334125 
L 169.190696 205.972762 
L 169.988373 267.0065 
L 170.78605 266.892979 
L 172.381404 267.381641 
L 173.179081 267.207457 
L 173.976758 267.427012 
L 174.774435 200.895017 
L 175.572112 276.334125 
L 177.965143 276.334125 
L 178.76282 205.285043 
L 179.560497 268.050915 
L 181.953528 268.064322 
L 183.548882 268.404428 
L 184.346559 203.439034 
L 185.144236 276.334125 
L 187.537267 276.334125 
L 188.334944 193.50108 
L 189.132621 267.848258 
L 189.930298 267.679653 
L 193.121006 267.843675 
L 193.918683 199.457928 
L 194.71636 276.334125 
L 197.109391 276.334125 
L 197.907068 174.602132 
L 198.704745 265.34192 
L 199.502422 265.744982 
L 200.300099 265.874193 
L 201.097776 265.850146 
L 201.895453 265.17715 
L 202.69313 265.012487 
L 203.490807 177.359673 
L 204.288484 276.334125 
L 206.681516 276.334125 
L 207.479193 177.536289 
L 208.27687 265.501579 
L 209.074547 265.321642 
L 210.669901 264.796194 
L 211.467578 265.170877 
L 212.265255 266.265667 
L 213.062932 177.510737 
L 213.860609 276.334125 
L 216.25364 276.334125 
L 217.051317 194.345442 
L 217.848994 266.911836 
L 218.646671 267.170603 
L 219.444348 266.954098 
L 220.242025 267.323935 
L 221.039702 267.824264 
L 221.837379 267.919625 
L 222.635056 185.66986 
L 223.432733 276.334125 
L 225.825764 276.334125 
L 226.623441 193.039496 
L 227.421118 266.83012 
L 229.016472 266.457397 
L 229.814149 266.666352 
L 230.611826 266.711601 
L 231.409503 266.887972 
L 232.20718 206.100481 
L 233.004857 276.334125 
L 235.397888 276.334125 
L 236.195565 142.06077 
L 236.993242 256.782979 
L 237.790919 259.89623 
L 238.588596 260.952739 
L 239.386273 260.903687 
L 240.18395 259.866957 
L 240.981627 260.988544 
L 241.779304 203.502468 
L 242.576981 276.334125 
L 244.970012 276.334125 
L 245.767689 181.861612 
L 246.565366 267.944909 
L 247.363043 267.416226 
L 248.16072 267.151265 
L 250.553751 266.692275 
L 251.351428 187.649241 
L 252.149105 276.334125 
L 254.542136 276.334125 
L 255.339813 199.923401 
L 256.137491 266.637662 
L 256.935168 267.043673 
L 258.530522 267.427563 
L 260.125876 267.767913 
L 260.923553 195.953617 
L 261.72123 276.334125 
L 264.114261 276.334125 
L 264.911938 197.270657 
L 265.709615 266.9748 
L 266.507292 264.489457 
L 267.304969 264.130091 
L 268.102646 264.12818 
L 268.900323 264.349367 
L 269.698 264.424133 
L 270.495677 187.442862 
L 271.293354 276.334125 
L 273.686385 276.334125 
L 274.484062 148.261324 
L 275.281739 263.183664 
L 276.079416 263.355754 
L 277.67477 263.163285 
L 279.270124 263.206184 
L 280.067801 129.461809 
L 280.865478 276.334125 
L 283.258509 276.334125 
L 284.056186 97.05615 
L 284.853863 266.254267 
L 286.449217 267.866911 
L 287.246894 268.323222 
L 288.044571 268.393549 
L 288.842248 267.90402 
L 289.639925 194.811673 
L 290.437602 276.334125 
L 292.830633 276.334125 
L 293.62831 193.123311 
L 294.425987 266.279374 
L 295.223664 266.555988 
L 296.021341 266.597884 
L 296.819018 266.772595 
L 297.616695 267.150046 
L 298.414372 267.242836 
L 299.212049 34.414125 
L 300.009726 276.334125 
L 302.402757 276.334125 
L 303.200434 187.244445 
L 303.998111 267.11274 
L 306.391143 267.286495 
L 307.18882 267.731681 
L 307.986497 267.977489 
L 308.784174 186.247522 
L 309.581851 276.334125 
L 311.974882 276.334125 
L 312.772559 194.95095 
L 313.570236 266.631909 
L 315.16559 266.623359 
L 315.963267 267.135467 
L 316.760944 267.510793 
L 317.558621 266.916763 
L 318.356298 200.356882 
L 319.153975 276.334125 
L 321.547006 276.334125 
L 322.344683 173.518952 
L 323.14236 263.599549 
L 323.940037 263.449614 
L 324.737714 262.990951 
L 325.535391 262.965915 
L 326.333068 263.418046 
L 327.130745 263.632691 
L 327.928422 159.342483 
L 328.726099 276.334125 
L 331.11913 276.334125 
L 331.916807 163.980074 
L 332.714484 266.931101 
L 333.512161 266.697077 
L 334.309838 266.646903 
L 335.107515 265.853186 
L 335.905192 265.710088 
L 336.702869 265.302253 
L 337.500546 189.247625 
L 338.298223 276.334125 
L 340.691254 276.334125 
L 341.488931 196.913198 
L 342.286608 266.023365 
L 343.881962 265.933976 
L 346.274993 265.416078 
L 347.07267 172.156179 
L 347.870347 276.334125 
L 350.263378 276.334125 
L 351.061055 183.488448 
L 351.858732 265.735708 
L 352.656409 265.755925 
L 353.454086 266.130532 
L 354.251763 266.215733 
L 355.04944 266.646441 
L 355.847117 266.640017 
L 356.644795 188.15915 
L 357.442472 276.334125 
L 359.835503 276.334125 
L 360.63318 201.37012 
L 361.430857 267.5835 
L 362.228534 267.736269 
L 363.823888 268.212485 
L 364.621565 268.373974 
L 365.419242 269.121498 
L 366.216919 246.301329 
L 367.014596 276.334125 
L 367.812273 276.334125 
L 367.812273 276.334125 
" clip-path="url(#p3416e1eca8)" style="fill: none; stroke: #1f77b4; stroke-width: 1.5; stroke-linecap: square"/>
   </g>
   <g id="patch_3">
    <path d="M 26.925 288.430125 
L 26.925 22.318125 
" style="fill: none; stroke: #000000; stroke-width: 0.8; stroke-linejoin: miter; stroke-linecap: square"/>
   </g>
   <g id="patch_4">
    <path d="M 384.045 288.430125 
L 384.045 22.318125 
" style="fill: none; stroke: #000000; stroke-width: 0.8; stroke-linejoin: miter; stroke-linecap: square"/>
   </g>
   <g id="patch_5">
    <path d="M 26.925 288.430125 
L 384.045 288.430125 
" style="fill: none; stroke: #000000; stroke-width: 0.8; stroke-linejoin: miter; stroke-linecap: square"/>
   </g>
   <g id="patch_6">
    <path d="M 26.925 22.318125 
L 384.045 22.318125 
" style="fill: none; stroke: #000000; stroke-width: 0.8; stroke-linejoin: miter; stroke-linecap: square"/>
   </g>
   <g id="text_15">
    <!-- Fission Density -->
    <g transform="translate(160.693125 16.318125) scale(0.12 -0.12)">
     <defs>
      <path id="DejaVuSans-46" d="M 628 4666 
L 3309 4666 
L 3309 4134 
L 1259 4134 
L 1259 2759 
L 3109 2759 
L 3109 2228 
L 1259 2228 
L 1259 0 
L 628 0 
L 628 4666 
z
" transform="scale(0.015625)"/>
      <path id="DejaVuSans-69" d="M 603 3500 
L 1178 3500 
L 1178 0 
L 603 0 
L 603 3500 
z
M 603 4863 
L 1178 4863 
L 1178 4134 
L 603 4134 
L 603 4863 
z
" transform="scale(0.015625)"/>
      <path id="DejaVuSans-73" d="M 2834 3397 
L 2834 2853 
Q 2591 2978 2328 3040 
Q 2066 3103 1784 3103 
Q 1356 3103 1142 2972 
Q 928 2841 928 2578 
Q 928 2378 1081 2264 
Q 1234 2150 1697 2047 
L 1894 2003 
Q 2506 1872 2764 1633 
Q 3022 1394 3022 966 
Q 3022 478 2636 193 
Q 2250 -91 1575 -91 
Q 1294 -91 989 -36 
Q 684 19 347 128 
L 347 722 
Q 666 556 975 473 
Q 1284 391 1588 391 
Q 1994 391 2212 530 
Q 2431 669 2431 922 
Q 2431 1156 2273 1281 
Q 2116 1406 1581 1522 
L 1381 1569 
Q 847 1681 609 1914 
Q 372 2147 372 2553 
Q 372 3047 722 3315 
Q 1072 3584 1716 3584 
Q 2034 3584 2315 3537 
Q 2597 3491 2834 3397 
z
" transform="scale(0.015625)"/>
      <path id="DejaVuSans-6f" d="M 1959 3097 
Q 1497 3097 1228 2736 
Q 959 2375 959 1747 
Q 959 1119 1226 758 
Q 1494 397 1959 397 
Q 2419 397 2687 759 
Q 2956 1122 2956 1747 
Q 2956 2369 2687 2733 
Q 2419 3097 1959 3097 
z
M 1959 3584 
Q 2709 3584 3137 3096 
Q 3566 2609 3566 1747 
Q 3566 888 3137 398 
Q 2709 -91 1959 -91 
Q 1206 -91 779 398 
Q 353 888 353 1747 
Q 353 2609 779 3096 
Q 1206 3584 1959 3584 
z
" transform="scale(0.015625)"/>
      <path id="DejaVuSans-6e" d="M 3513 2113 
L 3513 0 
L 2938 0 
L 2938 2094 
Q 2938 2591 2744 2837 
Q 2550 3084 2163 3084 
Q 1697 3084 1428 2787 
Q 1159 2491 1159 1978 
L 1159 0 
L 581 0 
L 581 3500 
L 1159 3500 
L 1159 2956 
Q 1366 3272 1645 3428 
Q 1925 3584 2291 3584 
Q 2894 3584 3203 3211 
Q 3513 2838 3513 2113 
z
" transform="scale(0.015625)"/>
      <path id="DejaVuSans-20" transform="scale(0.015625)"/>
      <path id="DejaVuSans-44" d="M 1259 4147 
L 1259 519 
L 2022 519 
Q 2988 519 3436 956 
Q 3884 1394 3884 2338 
Q 3884 3275 3436 3711 
Q 2988 4147 2022 4147 
L 1259 4147 
z
M 628 4666 
L 1925 4666 
Q 3281 4666 3915 4102 
Q 4550 3538 4550 2338 
Q 4550 1131 3912 565 
Q 3275 0 1925 0 
L 628 0 
L 628 4666 
z
" transform="scale(0.015625)"/>
      <path id="DejaVuSans-65" d="M 3597 1894 
L 3597 1613 
L 953 1613 
Q 991 1019 1311 708 
Q 1631 397 2203 397 
Q 2534 397 2845 478 
Q 3156 559 3463 722 
L 3463 178 
Q 3153 47 2828 -22 
Q 2503 -91 2169 -91 
Q 1331 -91 842 396 
Q 353 884 353 1716 
Q 353 2575 817 3079 
Q 1281 3584 2069 3584 
Q 2775 3584 3186 3129 
Q 3597 2675 3597 1894 
z
M 3022 2063 
Q 3016 2534 2758 2815 
Q 2500 3097 2075 3097 
Q 1594 3097 1305 2825 
Q 1016 2553 972 2059 
L 3022 2063 
z
" transform="scale(0.015625)"/>
      <path id="DejaVuSans-74" d="M 1172 4494 
L 1172 3500 
L 2356 3500 
L 2356 3053 
L 1172 3053 
L 1172 1153 
Q 1172 725 1289 603 
Q 1406 481 1766 481 
L 2356 481 
L 2356 0 
L 1766 0 
Q 1100 0 847 248 
Q 594 497 594 1153 
L 594 3053 
L 172 3053 
L 172 3500 
L 594 3500 
L 594 4494 
L 1172 4494 
z
" transform="scale(0.015625)"/>
      <path id="DejaVuSans-79" d="M 2059 -325 
Q 1816 -950 1584 -1140 
Q 1353 -1331 966 -1331 
L 506 -1331 
L 506 -850 
L 844 -850 
Q 1081 -850 1212 -737 
Q 1344 -625 1503 -206 
L 1606 56 
L 191 3500 
L 800 3500 
L 1894 763 
L 2988 3500 
L 3597 3500 
L 2059 -325 
z
" transform="scale(0.015625)"/>
     </defs>
     <use xlink:href="#DejaVuSans-46"/>
     <use xlink:href="#DejaVuSans-69" x="50.269531"/>
     <use xlink:href="#DejaVuSans-73" x="78.052734"/>
     <use xlink:href="#DejaVuSans-73" x="130.152344"/>
     <use xlink:href="#DejaVuSans-69" x="182.251953"/>
     <use xlink:href="#DejaVuSans-6f" x="210.035156"/>
     <use xlink:href="#DejaVuSans-6e" x="271.216797"/>
     <use xlink:href="#DejaVuSans-20" x="334.595703"/>
     <use xlink:href="#DejaVuSans-44" x="366.382812"/>
     <use xlink:href="#DejaVuSans-65" x="443.384766"/>
     <use xlink:href="#DejaVuSans-6e" x="504.908203"/>
     <use xlink:href="#DejaVuSans-73" x="568.287109"/>
     <use xlink:href="#DejaVuSans-69" x="620.386719"/>
     <use xlink:href="#DejaVuSans-74" x="648.169922"/>
     <use xlink:href="#DejaVuSans-79" x="687.378906"/>
    </g>
   </g>
  </g>
 </g>
 <defs>
  <clipPath id="p3416e1eca8">
   <rect x="26.925" y="22.318125" width="357.12" height="266.112"/>
  </clipPath>
 </defs>
</svg>
