<?xml version="1.0" encoding="utf-8" standalone="no"?>
<!DOCTYPE svg PUBLIC "-//W3C//DTD SVG 1.1//EN"
  "http://www.w3.org/Graphics/SVG/1.1/DTD/svg11.dtd">
<svg xmlns:xlink="http://www.w3.org/1999/xlink" width="394.423125pt" height="312.30825pt" viewBox="0 0 394.423125 312.30825" xmlns="http://www.w3.org/2000/svg" version="1.1">
 <metadata>
  <rdf:RDF xmlns:dc="http://purl.org/dc/elements/1.1/" xmlns:cc="http://creativecommons.org/ns#" xmlns:rdf="http://www.w3.org/1999/02/22-rdf-syntax-ns#">
   <cc:Work>
    <dc:type rdf:resource="http://purl.org/dc/dcmitype/StillImage"/>
    <dc:date>2024-03-17T16:08:47.765158</dc:date>
    <dc:format>image/svg+xml</dc:format>
    <dc:creator>
     <cc:Agent>
      <dc:title>Matplotlib v3.8.3, https://matplotlib.org/</dc:title>
     </cc:Agent>
    </dc:creator>
   </cc:Work>
  </rdf:RDF>
 </metadata>
 <defs>
  <style type="text/css">*{stroke-linejoin: round; stroke-linecap: butt}</style>
 </defs>
 <g id="figure_1">
  <g id="patch_1">
   <path d="M 0 312.30825 
L 394.423125 312.30825 
L 394.423125 0 
L 0 0 
z
" style="fill: #ffffff"/>
  </g>
  <g id="axes_1">
   <g id="patch_2">
    <path d="M 30.103125 288.430125 
L 387.223125 288.430125 
L 387.223125 22.318125 
L 30.103125 22.318125 
z
" style="fill: #ffffff"/>
   </g>
   <g id="matplotlib.axis_1">
    <g id="xtick_1">
     <g id="line2d_1">
      <defs>
       <path id="mc733c40f71" d="M 0 0 
L 0 3.5 
" style="stroke: #000000; stroke-width: 0.8"/>
      </defs>
      <g>
       <use xlink:href="#mc733c40f71" x="30.103125" y="288.430125" style="stroke: #000000; stroke-width: 0.8"/>
      </g>
     </g>
     <g id="text_1">
      <!-- 0 -->
      <g transform="translate(26.921875 303.028562) scale(0.1 -0.1)">
       <defs>
        <path id="DejaVuSans-30" d="M 2034 4250 
Q 1547 4250 1301 3770 
Q 1056 3291 1056 2328 
Q 1056 1369 1301 889 
Q 1547 409 2034 409 
Q 2525 409 2770 889 
Q 3016 1369 3016 2328 
Q 3016 3291 2770 3770 
Q 2525 4250 2034 4250 
z
M 2034 4750 
Q 2819 4750 3233 4129 
Q 3647 3509 3647 2328 
Q 3647 1150 3233 529 
Q 2819 -91 2034 -91 
Q 1250 -91 836 529 
Q 422 1150 422 2328 
Q 422 3509 836 4129 
Q 1250 4750 2034 4750 
z
" transform="scale(0.015625)"/>
       </defs>
       <use xlink:href="#DejaVuSans-30"/>
      </g>
     </g>
    </g>
    <g id="xtick_2">
     <g id="line2d_2">
      <g>
       <use xlink:href="#mc733c40f71" x="71.385715" y="288.430125" style="stroke: #000000; stroke-width: 0.8"/>
      </g>
     </g>
     <g id="text_2">
      <!-- 10 -->
      <g transform="translate(65.023215 303.028562) scale(0.1 -0.1)">
       <defs>
        <path id="DejaVuSans-31" d="M 794 531 
L 1825 531 
L 1825 4091 
L 703 3866 
L 703 4441 
L 1819 4666 
L 2450 4666 
L 2450 531 
L 3481 531 
L 3481 0 
L 794 0 
L 794 531 
z
" transform="scale(0.015625)"/>
       </defs>
       <use xlink:href="#DejaVuSans-31"/>
       <use xlink:href="#DejaVuSans-30" x="63.623047"/>
      </g>
     </g>
    </g>
    <g id="xtick_3">
     <g id="line2d_3">
      <g>
       <use xlink:href="#mc733c40f71" x="112.668305" y="288.430125" style="stroke: #000000; stroke-width: 0.8"/>
      </g>
     </g>
     <g id="text_3">
      <!-- 20 -->
      <g transform="translate(106.305805 303.028562) scale(0.1 -0.1)">
       <defs>
        <path id="DejaVuSans-32" d="M 1228 531 
L 3431 531 
L 3431 0 
L 469 0 
L 469 531 
Q 828 903 1448 1529 
Q 2069 2156 2228 2338 
Q 2531 2678 2651 2914 
Q 2772 3150 2772 3378 
Q 2772 3750 2511 3984 
Q 2250 4219 1831 4219 
Q 1534 4219 1204 4116 
Q 875 4013 500 3803 
L 500 4441 
Q 881 4594 1212 4672 
Q 1544 4750 1819 4750 
Q 2544 4750 2975 4387 
Q 3406 4025 3406 3419 
Q 3406 3131 3298 2873 
Q 3191 2616 2906 2266 
Q 2828 2175 2409 1742 
Q 1991 1309 1228 531 
z
" transform="scale(0.015625)"/>
       </defs>
       <use xlink:href="#DejaVuSans-32"/>
       <use xlink:href="#DejaVuSans-30" x="63.623047"/>
      </g>
     </g>
    </g>
    <g id="xtick_4">
     <g id="line2d_4">
      <g>
       <use xlink:href="#mc733c40f71" x="153.950895" y="288.430125" style="stroke: #000000; stroke-width: 0.8"/>
      </g>
     </g>
     <g id="text_4">
      <!-- 30 -->
      <g transform="translate(147.588395 303.028562) scale(0.1 -0.1)">
       <defs>
        <path id="DejaVuSans-33" d="M 2597 2516 
Q 3050 2419 3304 2112 
Q 3559 1806 3559 1356 
Q 3559 666 3084 287 
Q 2609 -91 1734 -91 
Q 1441 -91 1130 -33 
Q 819 25 488 141 
L 488 750 
Q 750 597 1062 519 
Q 1375 441 1716 441 
Q 2309 441 2620 675 
Q 2931 909 2931 1356 
Q 2931 1769 2642 2001 
Q 2353 2234 1838 2234 
L 1294 2234 
L 1294 2753 
L 1863 2753 
Q 2328 2753 2575 2939 
Q 2822 3125 2822 3475 
Q 2822 3834 2567 4026 
Q 2313 4219 1838 4219 
Q 1578 4219 1281 4162 
Q 984 4106 628 3988 
L 628 4550 
Q 988 4650 1302 4700 
Q 1616 4750 1894 4750 
Q 2613 4750 3031 4423 
Q 3450 4097 3450 3541 
Q 3450 3153 3228 2886 
Q 3006 2619 2597 2516 
z
" transform="scale(0.015625)"/>
       </defs>
       <use xlink:href="#DejaVuSans-33"/>
       <use xlink:href="#DejaVuSans-30" x="63.623047"/>
      </g>
     </g>
    </g>
    <g id="xtick_5">
     <g id="line2d_5">
      <g>
       <use xlink:href="#mc733c40f71" x="195.233486" y="288.430125" style="stroke: #000000; stroke-width: 0.8"/>
      </g>
     </g>
     <g id="text_5">
      <!-- 40 -->
      <g transform="translate(188.870986 303.028562) scale(0.1 -0.1)">
       <defs>
        <path id="DejaVuSans-34" d="M 2419 4116 
L 825 1625 
L 2419 1625 
L 2419 4116 
z
M 2253 4666 
L 3047 4666 
L 3047 1625 
L 3713 1625 
L 3713 1100 
L 3047 1100 
L 3047 0 
L 2419 0 
L 2419 1100 
L 313 1100 
L 313 1709 
L 2253 4666 
z
" transform="scale(0.015625)"/>
       </defs>
       <use xlink:href="#DejaVuSans-34"/>
       <use xlink:href="#DejaVuSans-30" x="63.623047"/>
      </g>
     </g>
    </g>
    <g id="xtick_6">
     <g id="line2d_6">
      <g>
       <use xlink:href="#mc733c40f71" x="236.516076" y="288.430125" style="stroke: #000000; stroke-width: 0.8"/>
      </g>
     </g>
     <g id="text_6">
      <!-- 50 -->
      <g transform="translate(230.153576 303.028562) scale(0.1 -0.1)">
       <defs>
        <path id="DejaVuSans-35" d="M 691 4666 
L 3169 4666 
L 3169 4134 
L 1269 4134 
L 1269 2991 
Q 1406 3038 1543 3061 
Q 1681 3084 1819 3084 
Q 2600 3084 3056 2656 
Q 3513 2228 3513 1497 
Q 3513 744 3044 326 
Q 2575 -91 1722 -91 
Q 1428 -91 1123 -41 
Q 819 9 494 109 
L 494 744 
Q 775 591 1075 516 
Q 1375 441 1709 441 
Q 2250 441 2565 725 
Q 2881 1009 2881 1497 
Q 2881 1984 2565 2268 
Q 2250 2553 1709 2553 
Q 1456 2553 1204 2497 
Q 953 2441 691 2322 
L 691 4666 
z
" transform="scale(0.015625)"/>
       </defs>
       <use xlink:href="#DejaVuSans-35"/>
       <use xlink:href="#DejaVuSans-30" x="63.623047"/>
      </g>
     </g>
    </g>
    <g id="xtick_7">
     <g id="line2d_7">
      <g>
       <use xlink:href="#mc733c40f71" x="277.798666" y="288.430125" style="stroke: #000000; stroke-width: 0.8"/>
      </g>
     </g>
     <g id="text_7">
      <!-- 60 -->
      <g transform="translate(271.436166 303.028562) scale(0.1 -0.1)">
       <defs>
        <path id="DejaVuSans-36" d="M 2113 2584 
Q 1688 2584 1439 2293 
Q 1191 2003 1191 1497 
Q 1191 994 1439 701 
Q 1688 409 2113 409 
Q 2538 409 2786 701 
Q 3034 994 3034 1497 
Q 3034 2003 2786 2293 
Q 2538 2584 2113 2584 
z
M 3366 4563 
L 3366 3988 
Q 3128 4100 2886 4159 
Q 2644 4219 2406 4219 
Q 1781 4219 1451 3797 
Q 1122 3375 1075 2522 
Q 1259 2794 1537 2939 
Q 1816 3084 2150 3084 
Q 2853 3084 3261 2657 
Q 3669 2231 3669 1497 
Q 3669 778 3244 343 
Q 2819 -91 2113 -91 
Q 1303 -91 875 529 
Q 447 1150 447 2328 
Q 447 3434 972 4092 
Q 1497 4750 2381 4750 
Q 2619 4750 2861 4703 
Q 3103 4656 3366 4563 
z
" transform="scale(0.015625)"/>
       </defs>
       <use xlink:href="#DejaVuSans-36"/>
       <use xlink:href="#DejaVuSans-30" x="63.623047"/>
      </g>
     </g>
    </g>
    <g id="xtick_8">
     <g id="line2d_8">
      <g>
       <use xlink:href="#mc733c40f71" x="319.081256" y="288.430125" style="stroke: #000000; stroke-width: 0.8"/>
      </g>
     </g>
     <g id="text_8">
      <!-- 70 -->
      <g transform="translate(312.718756 303.028562) scale(0.1 -0.1)">
       <defs>
        <path id="DejaVuSans-37" d="M 525 4666 
L 3525 4666 
L 3525 4397 
L 1831 0 
L 1172 0 
L 2766 4134 
L 525 4134 
L 525 4666 
z
" transform="scale(0.015625)"/>
       </defs>
       <use xlink:href="#DejaVuSans-37"/>
       <use xlink:href="#DejaVuSans-30" x="63.623047"/>
      </g>
     </g>
    </g>
    <g id="xtick_9">
     <g id="line2d_9">
      <g>
       <use xlink:href="#mc733c40f71" x="360.363846" y="288.430125" style="stroke: #000000; stroke-width: 0.8"/>
      </g>
     </g>
     <g id="text_9">
      <!-- 80 -->
      <g transform="translate(354.001346 303.028562) scale(0.1 -0.1)">
       <defs>
        <path id="DejaVuSans-38" d="M 2034 2216 
Q 1584 2216 1326 1975 
Q 1069 1734 1069 1313 
Q 1069 891 1326 650 
Q 1584 409 2034 409 
Q 2484 409 2743 651 
Q 3003 894 3003 1313 
Q 3003 1734 2745 1975 
Q 2488 2216 2034 2216 
z
M 1403 2484 
Q 997 2584 770 2862 
Q 544 3141 544 3541 
Q 544 4100 942 4425 
Q 1341 4750 2034 4750 
Q 2731 4750 3128 4425 
Q 3525 4100 3525 3541 
Q 3525 3141 3298 2862 
Q 3072 2584 2669 2484 
Q 3125 2378 3379 2068 
Q 3634 1759 3634 1313 
Q 3634 634 3220 271 
Q 2806 -91 2034 -91 
Q 1263 -91 848 271 
Q 434 634 434 1313 
Q 434 1759 690 2068 
Q 947 2378 1403 2484 
z
M 1172 3481 
Q 1172 3119 1398 2916 
Q 1625 2713 2034 2713 
Q 2441 2713 2670 2916 
Q 2900 3119 2900 3481 
Q 2900 3844 2670 4047 
Q 2441 4250 2034 4250 
Q 1625 4250 1398 4047 
Q 1172 3844 1172 3481 
z
" transform="scale(0.015625)"/>
       </defs>
       <use xlink:href="#DejaVuSans-38"/>
       <use xlink:href="#DejaVuSans-30" x="63.623047"/>
      </g>
     </g>
    </g>
   </g>
   <g id="matplotlib.axis_2">
    <g id="ytick_1">
     <g id="line2d_10">
      <defs>
       <path id="me73d22c0d8" d="M 0 0 
L -3.5 0 
" style="stroke: #000000; stroke-width: 0.8"/>
      </defs>
      <g>
       <use xlink:href="#me73d22c0d8" x="30.103125" y="276.334125" style="stroke: #000000; stroke-width: 0.8"/>
      </g>
     </g>
     <g id="text_10">
      <!-- 0.0 -->
      <g transform="translate(7.2 280.133344) scale(0.1 -0.1)">
       <defs>
        <path id="DejaVuSans-2e" d="M 684 794 
L 1344 794 
L 1344 0 
L 684 0 
L 684 794 
z
" transform="scale(0.015625)"/>
       </defs>
       <use xlink:href="#DejaVuSans-30"/>
       <use xlink:href="#DejaVuSans-2e" x="63.623047"/>
       <use xlink:href="#DejaVuSans-30" x="95.410156"/>
      </g>
     </g>
    </g>
    <g id="ytick_2">
     <g id="line2d_11">
      <g>
       <use xlink:href="#me73d22c0d8" x="30.103125" y="230.700203" style="stroke: #000000; stroke-width: 0.8"/>
      </g>
     </g>
     <g id="text_11">
      <!-- 0.5 -->
      <g transform="translate(7.2 234.499422) scale(0.1 -0.1)">
       <use xlink:href="#DejaVuSans-30"/>
       <use xlink:href="#DejaVuSans-2e" x="63.623047"/>
       <use xlink:href="#DejaVuSans-35" x="95.410156"/>
      </g>
     </g>
    </g>
    <g id="ytick_3">
     <g id="line2d_12">
      <g>
       <use xlink:href="#me73d22c0d8" x="30.103125" y="185.066281" style="stroke: #000000; stroke-width: 0.8"/>
      </g>
     </g>
     <g id="text_12">
      <!-- 1.0 -->
      <g transform="translate(7.2 188.865499) scale(0.1 -0.1)">
       <use xlink:href="#DejaVuSans-31"/>
       <use xlink:href="#DejaVuSans-2e" x="63.623047"/>
       <use xlink:href="#DejaVuSans-30" x="95.410156"/>
      </g>
     </g>
    </g>
    <g id="ytick_4">
     <g id="line2d_13">
      <g>
       <use xlink:href="#me73d22c0d8" x="30.103125" y="139.432359" style="stroke: #000000; stroke-width: 0.8"/>
      </g>
     </g>
     <g id="text_13">
      <!-- 1.5 -->
      <g transform="translate(7.2 143.231577) scale(0.1 -0.1)">
       <use xlink:href="#DejaVuSans-31"/>
       <use xlink:href="#DejaVuSans-2e" x="63.623047"/>
       <use xlink:href="#DejaVuSans-35" x="95.410156"/>
      </g>
     </g>
    </g>
    <g id="ytick_5">
     <g id="line2d_14">
      <g>
       <use xlink:href="#me73d22c0d8" x="30.103125" y="93.798436" style="stroke: #000000; stroke-width: 0.8"/>
      </g>
     </g>
     <g id="text_14">
      <!-- 2.0 -->
      <g transform="translate(7.2 97.597655) scale(0.1 -0.1)">
       <use xlink:href="#DejaVuSans-32"/>
       <use xlink:href="#DejaVuSans-2e" x="63.623047"/>
       <use xlink:href="#DejaVuSans-30" x="95.410156"/>
      </g>
     </g>
    </g>
    <g id="ytick_6">
     <g id="line2d_15">
      <g>
       <use xlink:href="#me73d22c0d8" x="30.103125" y="48.164514" style="stroke: #000000; stroke-width: 0.8"/>
      </g>
     </g>
     <g id="text_15">
      <!-- 2.5 -->
      <g transform="translate(7.2 51.963733) scale(0.1 -0.1)">
       <use xlink:href="#DejaVuSans-32"/>
       <use xlink:href="#DejaVuSans-2e" x="63.623047"/>
       <use xlink:href="#DejaVuSans-35" x="95.410156"/>
      </g>
     </g>
    </g>
   </g>
   <g id="line2d_16">
    <path d="M 30.103125 276.334125 
L 31.060551 276.334125 
L 32.017978 36.634041 
L 32.975404 35.495654 
L 33.93283 34.872206 
L 34.890256 34.800953 
L 35.847683 34.954399 
L 36.805109 35.54402 
L 37.762535 36.800023 
L 38.719961 276.334125 
L 41.59224 276.334125 
L 42.549667 36.902996 
L 43.507093 35.654915 
L 44.464519 35.065819 
L 45.421945 34.925224 
L 46.379372 35.075828 
L 47.336798 35.639388 
L 48.294224 36.849235 
L 49.25165 276.334125 
L 52.123929 276.334125 
L 53.081356 36.730796 
L 54.038782 35.51618 
L 54.996208 34.868428 
L 55.953634 34.749966 
L 56.911061 34.835657 
L 57.868487 35.457538 
L 58.825913 36.686808 
L 59.783339 276.334125 
L 62.655618 276.334125 
L 63.613045 36.829061 
L 64.570471 35.462492 
L 65.527897 34.875214 
L 66.485323 34.740474 
L 67.44275 35.001344 
L 68.400176 35.591197 
L 69.357602 36.692743 
L 70.315028 276.334125 
L 73.187307 276.334125 
L 74.144734 36.755127 
L 75.10216 35.467788 
L 76.059586 34.973368 
L 77.017012 34.76776 
L 77.974439 34.884158 
L 78.931865 35.474394 
L 79.889291 36.670624 
L 80.846717 276.334125 
L 83.718996 276.334125 
L 84.676423 36.838722 
L 85.633849 35.52071 
L 86.591275 34.929884 
L 87.548701 34.794948 
L 88.506128 34.985506 
L 89.463554 35.54574 
L 90.42098 36.744894 
L 91.378407 276.334125 
L 94.250685 276.334125 
L 95.208112 36.646887 
L 96.165538 35.44378 
L 97.122964 34.831477 
L 98.08039 34.621339 
L 99.037817 34.834786 
L 99.995243 35.403591 
L 100.952669 36.716267 
L 101.910096 276.334125 
L 104.782374 276.334125 
L 105.739801 36.703378 
L 106.697227 35.388516 
L 107.654653 34.944486 
L 108.612079 34.689003 
L 109.569506 34.786028 
L 110.526932 35.373069 
L 111.484358 36.744462 
L 112.441785 276.334125 
L 115.314063 276.334125 
L 116.27149 36.74455 
L 117.228916 35.447123 
L 118.186342 34.859916 
L 119.143768 34.630209 
L 120.101195 34.810628 
L 121.058621 35.468807 
L 122.016047 36.617169 
L 122.973474 276.334125 
L 125.845752 276.334125 
L 126.803179 36.489854 
L 127.760605 35.253667 
L 128.718031 34.618431 
L 129.675457 34.414125 
L 130.632884 34.675453 
L 131.59031 35.289506 
L 132.547736 36.455481 
L 133.505163 276.334125 
L 136.377441 276.334125 
L 137.334868 36.619105 
L 138.292294 35.430331 
L 139.24972 34.768717 
L 140.207146 34.67365 
L 141.164573 34.883834 
L 142.121999 35.431744 
L 143.079425 36.677827 
L 144.036852 276.334125 
L 146.90913 276.334125 
L 147.866557 36.714598 
L 148.823983 35.356192 
L 149.781409 34.766394 
L 150.738835 34.586902 
L 151.696262 34.826571 
L 152.653688 35.392451 
L 153.611114 36.636639 
L 154.568541 276.334125 
L 157.440819 276.334125 
L 158.398246 36.637343 
L 159.355672 35.356142 
L 160.313098 34.78417 
L 161.270524 34.570121 
L 162.227951 34.774126 
L 163.185377 35.34062 
L 164.142803 36.545223 
L 165.10023 276.334125 
L 167.972508 276.334125 
L 168.929935 36.613816 
L 169.887361 35.32539 
L 170.844787 34.750829 
L 171.802213 34.629229 
L 172.75964 34.885525 
L 173.717066 35.425972 
L 174.674492 36.669699 
L 175.631919 276.334125 
L 178.504197 276.334125 
L 179.461624 36.469964 
L 180.41905 35.367222 
L 181.376476 34.786753 
L 182.333902 34.566987 
L 183.291329 34.739323 
L 184.248755 35.318594 
L 185.206181 36.689579 
L 186.163608 276.334125 
L 189.035886 276.334125 
L 189.993313 36.722313 
L 190.950739 35.425979 
L 191.908165 34.922327 
L 192.865591 34.679255 
L 193.823018 34.831328 
L 194.780444 35.470599 
L 195.73787 36.696652 
L 196.695297 276.334125 
L 199.567575 276.334125 
L 200.525002 36.724903 
L 201.482428 35.396337 
L 202.439854 34.903195 
L 203.39728 34.66282 
L 204.354707 34.891693 
L 205.312133 35.50403 
L 206.269559 36.740242 
L 207.226986 276.334125 
L 210.099264 276.334125 
L 211.056691 36.7197 
L 212.014117 35.461255 
L 212.971543 34.87323 
L 213.92897 34.682817 
L 214.886396 34.836366 
L 215.843822 35.56085 
L 216.801248 36.771824 
L 217.758675 276.334125 
L 220.630953 276.334125 
L 221.58838 36.694327 
L 222.545806 35.441952 
L 223.503232 34.848538 
L 224.460659 34.661166 
L 225.418085 34.884088 
L 226.375511 35.473023 
L 227.332937 36.638093 
L 228.290364 276.334125 
L 231.162642 276.334125 
L 232.120069 36.583842 
L 233.077495 35.34477 
L 234.034921 34.722725 
L 234.992348 34.628944 
L 235.949774 34.755672 
L 236.9072 35.410198 
L 237.864626 36.60553 
L 238.822053 276.334125 
L 241.694331 276.334125 
L 242.651758 36.552504 
L 243.609184 35.323007 
L 244.56661 34.709496 
L 245.524037 34.576514 
L 246.481463 34.809726 
L 247.438889 35.423879 
L 248.396315 36.610477 
L 249.353742 276.334125 
L 252.22602 276.334125 
L 253.183447 36.524183 
L 254.140873 35.218668 
L 255.098299 34.639062 
L 256.055726 34.441835 
L 257.013152 34.733596 
L 257.970578 35.359778 
L 258.928004 36.622342 
L 259.885431 276.334125 
L 262.757709 276.334125 
L 263.715136 36.589751 
L 264.672562 35.343417 
L 265.629988 34.66983 
L 266.587415 34.534986 
L 267.544841 34.650573 
L 268.502267 35.264389 
L 269.459693 36.569548 
L 270.41712 276.334125 
L 273.289398 276.334125 
L 274.246825 36.632079 
L 275.204251 35.410527 
L 276.161677 34.850434 
L 277.119104 34.65081 
L 278.07653 34.782633 
L 279.033956 35.362478 
L 279.991382 36.572682 
L 280.948809 276.334125 
L 283.821087 276.334125 
L 284.778514 36.551618 
L 285.73594 35.300115 
L 286.693366 34.73325 
L 287.650793 34.564776 
L 288.608219 34.748575 
L 289.565645 35.360021 
L 290.523071 36.58314 
L 291.480498 276.334125 
L 294.352776 276.334125 
L 295.310203 36.625554 
L 296.267629 35.374028 
L 297.225055 34.762823 
L 298.182482 34.564083 
L 299.139908 34.740337 
L 300.097334 35.34731 
L 301.05476 36.579516 
L 302.012187 276.334125 
L 304.884465 276.334125 
L 305.841892 36.586588 
L 306.799318 35.359062 
L 307.756744 34.67835 
L 308.714171 34.560054 
L 309.671597 34.722202 
L 310.629023 35.279794 
L 311.586449 36.550771 
L 312.543876 276.334125 
L 315.416154 276.334125 
L 316.373581 36.496074 
L 317.331007 35.268345 
L 318.288433 34.615262 
L 319.24586 34.471693 
L 320.203286 34.641893 
L 321.160712 35.266547 
L 322.118138 36.577999 
L 323.075565 276.334125 
L 325.947843 276.334125 
L 326.90527 36.641656 
L 327.862696 35.397315 
L 328.820122 34.824674 
L 329.777549 34.680768 
L 330.734975 34.894027 
L 331.692401 35.41586 
L 332.649827 36.674452 
L 333.607254 276.334125 
L 336.479533 276.334125 
L 337.436959 36.675862 
L 338.394385 35.426728 
L 339.351811 34.778429 
L 340.309238 34.622938 
L 341.266664 34.840259 
L 342.22409 35.413831 
L 343.181516 36.68659 
L 344.138943 276.334125 
L 347.011222 276.334125 
L 347.968648 36.691767 
L 348.926074 35.399596 
L 349.8835 34.741493 
L 350.840927 34.518259 
L 351.798353 34.735781 
L 352.755779 35.413871 
L 353.713205 36.599388 
L 354.670632 276.334125 
L 357.542911 276.334125 
L 358.500337 36.4544 
L 359.457763 35.220742 
L 360.415189 34.610604 
L 361.372616 34.548844 
L 362.330042 34.780962 
L 363.287468 35.339622 
L 364.244894 36.535416 
L 365.202321 276.334125 
L 368.0746 276.334125 
L 369.032026 36.622569 
L 369.989452 35.36048 
L 370.946878 34.78939 
L 371.904305 34.596361 
L 372.861731 34.67916 
L 373.819157 35.256207 
L 374.776583 36.567461 
L 375.73401 276.334125 
L 378.606289 276.334125 
L 379.563715 36.542215 
L 380.521141 35.344969 
L 381.478567 34.62388 
L 382.435994 34.428851 
L 383.39342 34.622571 
L 384.350846 35.317854 
L 385.308272 36.507699 
L 386.265699 276.334125 
L 387.223125 276.334125 
L 387.223125 276.334125 
" clip-path="url(#p6d5de350d3)" style="fill: none; stroke: #1f77b4; stroke-width: 1.5; stroke-linecap: square"/>
   </g>
   <g id="patch_3">
    <path d="M 30.103125 288.430125 
L 30.103125 22.318125 
" style="fill: none; stroke: #000000; stroke-width: 0.8; stroke-linejoin: miter; stroke-linecap: square"/>
   </g>
   <g id="patch_4">
    <path d="M 387.223125 288.430125 
L 387.223125 22.318125 
" style="fill: none; stroke: #000000; stroke-width: 0.8; stroke-linejoin: miter; stroke-linecap: square"/>
   </g>
   <g id="patch_5">
    <path d="M 30.103125 288.430125 
L 387.223125 288.430125 
" style="fill: none; stroke: #000000; stroke-width: 0.8; stroke-linejoin: miter; stroke-linecap: square"/>
   </g>
   <g id="patch_6">
    <path d="M 30.103125 22.318125 
L 387.223125 22.318125 
" style="fill: none; stroke: #000000; stroke-width: 0.8; stroke-linejoin: miter; stroke-linecap: square"/>
   </g>
   <g id="text_16">
    <!-- Fission Density -->
    <g transform="translate(163.87125 16.318125) scale(0.12 -0.12)">
     <defs>
      <path id="DejaVuSans-46" d="M 628 4666 
L 3309 4666 
L 3309 4134 
L 1259 4134 
L 1259 2759 
L 3109 2759 
L 3109 2228 
L 1259 2228 
L 1259 0 
L 628 0 
L 628 4666 
z
" transform="scale(0.015625)"/>
      <path id="DejaVuSans-69" d="M 603 3500 
L 1178 3500 
L 1178 0 
L 603 0 
L 603 3500 
z
M 603 4863 
L 1178 4863 
L 1178 4134 
L 603 4134 
L 603 4863 
z
" transform="scale(0.015625)"/>
      <path id="DejaVuSans-73" d="M 2834 3397 
L 2834 2853 
Q 2591 2978 2328 3040 
Q 2066 3103 1784 3103 
Q 1356 3103 1142 2972 
Q 928 2841 928 2578 
Q 928 2378 1081 2264 
Q 1234 2150 1697 2047 
L 1894 2003 
Q 2506 1872 2764 1633 
Q 3022 1394 3022 966 
Q 3022 478 2636 193 
Q 2250 -91 1575 -91 
Q 1294 -91 989 -36 
Q 684 19 347 128 
L 347 722 
Q 666 556 975 473 
Q 1284 391 1588 391 
Q 1994 391 2212 530 
Q 2431 669 2431 922 
Q 2431 1156 2273 1281 
Q 2116 1406 1581 1522 
L 1381 1569 
Q 847 1681 609 1914 
Q 372 2147 372 2553 
Q 372 3047 722 3315 
Q 1072 3584 1716 3584 
Q 2034 3584 2315 3537 
Q 2597 3491 2834 3397 
z
" transform="scale(0.015625)"/>
      <path id="DejaVuSans-6f" d="M 1959 3097 
Q 1497 3097 1228 2736 
Q 959 2375 959 1747 
Q 959 1119 1226 758 
Q 1494 397 1959 397 
Q 2419 397 2687 759 
Q 2956 1122 2956 1747 
Q 2956 2369 2687 2733 
Q 2419 3097 1959 3097 
z
M 1959 3584 
Q 2709 3584 3137 3096 
Q 3566 2609 3566 1747 
Q 3566 888 3137 398 
Q 2709 -91 1959 -91 
Q 1206 -91 779 398 
Q 353 888 353 1747 
Q 353 2609 779 3096 
Q 1206 3584 1959 3584 
z
" transform="scale(0.015625)"/>
      <path id="DejaVuSans-6e" d="M 3513 2113 
L 3513 0 
L 2938 0 
L 2938 2094 
Q 2938 2591 2744 2837 
Q 2550 3084 2163 3084 
Q 1697 3084 1428 2787 
Q 1159 2491 1159 1978 
L 1159 0 
L 581 0 
L 581 3500 
L 1159 3500 
L 1159 2956 
Q 1366 3272 1645 3428 
Q 1925 3584 2291 3584 
Q 2894 3584 3203 3211 
Q 3513 2838 3513 2113 
z
" transform="scale(0.015625)"/>
      <path id="DejaVuSans-20" transform="scale(0.015625)"/>
      <path id="DejaVuSans-44" d="M 1259 4147 
L 1259 519 
L 2022 519 
Q 2988 519 3436 956 
Q 3884 1394 3884 2338 
Q 3884 3275 3436 3711 
Q 2988 4147 2022 4147 
L 1259 4147 
z
M 628 4666 
L 1925 4666 
Q 3281 4666 3915 4102 
Q 4550 3538 4550 2338 
Q 4550 1131 3912 565 
Q 3275 0 1925 0 
L 628 0 
L 628 4666 
z
" transform="scale(0.015625)"/>
      <path id="DejaVuSans-65" d="M 3597 1894 
L 3597 1613 
L 953 1613 
Q 991 1019 1311 708 
Q 1631 397 2203 397 
Q 2534 397 2845 478 
Q 3156 559 3463 722 
L 3463 178 
Q 3153 47 2828 -22 
Q 2503 -91 2169 -91 
Q 1331 -91 842 396 
Q 353 884 353 1716 
Q 353 2575 817 3079 
Q 1281 3584 2069 3584 
Q 2775 3584 3186 3129 
Q 3597 2675 3597 1894 
z
M 3022 2063 
Q 3016 2534 2758 2815 
Q 2500 3097 2075 3097 
Q 1594 3097 1305 2825 
Q 1016 2553 972 2059 
L 3022 2063 
z
" transform="scale(0.015625)"/>
      <path id="DejaVuSans-74" d="M 1172 4494 
L 1172 3500 
L 2356 3500 
L 2356 3053 
L 1172 3053 
L 1172 1153 
Q 1172 725 1289 603 
Q 1406 481 1766 481 
L 2356 481 
L 2356 0 
L 1766 0 
Q 1100 0 847 248 
Q 594 497 594 1153 
L 594 3053 
L 172 3053 
L 172 3500 
L 594 3500 
L 594 4494 
L 1172 4494 
z
" transform="scale(0.015625)"/>
      <path id="DejaVuSans-79" d="M 2059 -325 
Q 1816 -950 1584 -1140 
Q 1353 -1331 966 -1331 
L 506 -1331 
L 506 -850 
L 844 -850 
Q 1081 -850 1212 -737 
Q 1344 -625 1503 -206 
L 1606 56 
L 191 3500 
L 800 3500 
L 1894 763 
L 2988 3500 
L 3597 3500 
L 2059 -325 
z
" transform="scale(0.015625)"/>
     </defs>
     <use xlink:href="#DejaVuSans-46"/>
     <use xlink:href="#DejaVuSans-69" x="50.269531"/>
     <use xlink:href="#DejaVuSans-73" x="78.052734"/>
     <use xlink:href="#DejaVuSans-73" x="130.152344"/>
     <use xlink:href="#DejaVuSans-69" x="182.251953"/>
     <use xlink:href="#DejaVuSans-6f" x="210.035156"/>
     <use xlink:href="#DejaVuSans-6e" x="271.216797"/>
     <use xlink:href="#DejaVuSans-20" x="334.595703"/>
     <use xlink:href="#DejaVuSans-44" x="366.382812"/>
     <use xlink:href="#DejaVuSans-65" x="443.384766"/>
     <use xlink:href="#DejaVuSans-6e" x="504.908203"/>
     <use xlink:href="#DejaVuSans-73" x="568.287109"/>
     <use xlink:href="#DejaVuSans-69" x="620.386719"/>
     <use xlink:href="#DejaVuSans-74" x="648.169922"/>
     <use xlink:href="#DejaVuSans-79" x="687.378906"/>
    </g>
   </g>
  </g>
 </g>
 <defs>
  <clipPath id="p6d5de350d3">
   <rect x="30.103125" y="22.318125" width="357.12" height="266.112"/>
  </clipPath>
 </defs>
</svg>
