<?xml version="1.0" encoding="utf-8" standalone="no"?>
<!DOCTYPE svg PUBLIC "-//W3C//DTD SVG 1.1//EN"
  "http://www.w3.org/Graphics/SVG/1.1/DTD/svg11.dtd">
<svg xmlns:xlink="http://www.w3.org/1999/xlink" width="391.245pt" height="312.30825pt" viewBox="0 0 391.245 312.30825" xmlns="http://www.w3.org/2000/svg" version="1.1">
 <metadata>
  <rdf:RDF xmlns:dc="http://purl.org/dc/elements/1.1/" xmlns:cc="http://creativecommons.org/ns#" xmlns:rdf="http://www.w3.org/1999/02/22-rdf-syntax-ns#">
   <cc:Work>
    <dc:type rdf:resource="http://purl.org/dc/dcmitype/StillImage"/>
    <dc:date>2024-03-15T15:44:13.072618</dc:date>
    <dc:format>image/svg+xml</dc:format>
    <dc:creator>
     <cc:Agent>
      <dc:title>Matplotlib v3.8.3, https://matplotlib.org/</dc:title>
     </cc:Agent>
    </dc:creator>
   </cc:Work>
  </rdf:RDF>
 </metadata>
 <defs>
  <style type="text/css">*{stroke-linejoin: round; stroke-linecap: butt}</style>
 </defs>
 <g id="figure_1">
  <g id="patch_1">
   <path d="M 0 312.30825 
L 391.245 312.30825 
L 391.245 0 
L 0 0 
z
" style="fill: #ffffff"/>
  </g>
  <g id="axes_1">
   <g id="patch_2">
    <path d="M 26.925 288.430125 
L 384.045 288.430125 
L 384.045 22.318125 
L 26.925 22.318125 
z
" style="fill: #ffffff"/>
   </g>
   <g id="matplotlib.axis_1">
    <g id="xtick_1">
     <g id="line2d_1">
      <defs>
       <path id="mc0f7ee6833" d="M 0 0 
L 0 3.5 
" style="stroke: #000000; stroke-width: 0.8"/>
      </defs>
      <g>
       <use xlink:href="#mc0f7ee6833" x="43.157727" y="288.430125" style="stroke: #000000; stroke-width: 0.8"/>
      </g>
     </g>
     <g id="text_1">
      <!-- 0 -->
      <g transform="translate(39.976477 303.028562) scale(0.1 -0.1)">
       <defs>
        <path id="DejaVuSans-30" d="M 2034 4250 
Q 1547 4250 1301 3770 
Q 1056 3291 1056 2328 
Q 1056 1369 1301 889 
Q 1547 409 2034 409 
Q 2525 409 2770 889 
Q 3016 1369 3016 2328 
Q 3016 3291 2770 3770 
Q 2525 4250 2034 4250 
z
M 2034 4750 
Q 2819 4750 3233 4129 
Q 3647 3509 3647 2328 
Q 3647 1150 3233 529 
Q 2819 -91 2034 -91 
Q 1250 -91 836 529 
Q 422 1150 422 2328 
Q 422 3509 836 4129 
Q 1250 4750 2034 4750 
z
" transform="scale(0.015625)"/>
       </defs>
       <use xlink:href="#DejaVuSans-30"/>
      </g>
     </g>
    </g>
    <g id="xtick_2">
     <g id="line2d_2">
      <g>
       <use xlink:href="#mc0f7ee6833" x="83.041578" y="288.430125" style="stroke: #000000; stroke-width: 0.8"/>
      </g>
     </g>
     <g id="text_2">
      <!-- 50 -->
      <g transform="translate(76.679078 303.028562) scale(0.1 -0.1)">
       <defs>
        <path id="DejaVuSans-35" d="M 691 4666 
L 3169 4666 
L 3169 4134 
L 1269 4134 
L 1269 2991 
Q 1406 3038 1543 3061 
Q 1681 3084 1819 3084 
Q 2600 3084 3056 2656 
Q 3513 2228 3513 1497 
Q 3513 744 3044 326 
Q 2575 -91 1722 -91 
Q 1428 -91 1123 -41 
Q 819 9 494 109 
L 494 744 
Q 775 591 1075 516 
Q 1375 441 1709 441 
Q 2250 441 2565 725 
Q 2881 1009 2881 1497 
Q 2881 1984 2565 2268 
Q 2250 2553 1709 2553 
Q 1456 2553 1204 2497 
Q 953 2441 691 2322 
L 691 4666 
z
" transform="scale(0.015625)"/>
       </defs>
       <use xlink:href="#DejaVuSans-35"/>
       <use xlink:href="#DejaVuSans-30" x="63.623047"/>
      </g>
     </g>
    </g>
    <g id="xtick_3">
     <g id="line2d_3">
      <g>
       <use xlink:href="#mc0f7ee6833" x="122.925429" y="288.430125" style="stroke: #000000; stroke-width: 0.8"/>
      </g>
     </g>
     <g id="text_3">
      <!-- 100 -->
      <g transform="translate(113.381679 303.028562) scale(0.1 -0.1)">
       <defs>
        <path id="DejaVuSans-31" d="M 794 531 
L 1825 531 
L 1825 4091 
L 703 3866 
L 703 4441 
L 1819 4666 
L 2450 4666 
L 2450 531 
L 3481 531 
L 3481 0 
L 794 0 
L 794 531 
z
" transform="scale(0.015625)"/>
       </defs>
       <use xlink:href="#DejaVuSans-31"/>
       <use xlink:href="#DejaVuSans-30" x="63.623047"/>
       <use xlink:href="#DejaVuSans-30" x="127.246094"/>
      </g>
     </g>
    </g>
    <g id="xtick_4">
     <g id="line2d_4">
      <g>
       <use xlink:href="#mc0f7ee6833" x="162.80928" y="288.430125" style="stroke: #000000; stroke-width: 0.8"/>
      </g>
     </g>
     <g id="text_4">
      <!-- 150 -->
      <g transform="translate(153.26553 303.028562) scale(0.1 -0.1)">
       <use xlink:href="#DejaVuSans-31"/>
       <use xlink:href="#DejaVuSans-35" x="63.623047"/>
       <use xlink:href="#DejaVuSans-30" x="127.246094"/>
      </g>
     </g>
    </g>
    <g id="xtick_5">
     <g id="line2d_5">
      <g>
       <use xlink:href="#mc0f7ee6833" x="202.69313" y="288.430125" style="stroke: #000000; stroke-width: 0.8"/>
      </g>
     </g>
     <g id="text_5">
      <!-- 200 -->
      <g transform="translate(193.14938 303.028562) scale(0.1 -0.1)">
       <defs>
        <path id="DejaVuSans-32" d="M 1228 531 
L 3431 531 
L 3431 0 
L 469 0 
L 469 531 
Q 828 903 1448 1529 
Q 2069 2156 2228 2338 
Q 2531 2678 2651 2914 
Q 2772 3150 2772 3378 
Q 2772 3750 2511 3984 
Q 2250 4219 1831 4219 
Q 1534 4219 1204 4116 
Q 875 4013 500 3803 
L 500 4441 
Q 881 4594 1212 4672 
Q 1544 4750 1819 4750 
Q 2544 4750 2975 4387 
Q 3406 4025 3406 3419 
Q 3406 3131 3298 2873 
Q 3191 2616 2906 2266 
Q 2828 2175 2409 1742 
Q 1991 1309 1228 531 
z
" transform="scale(0.015625)"/>
       </defs>
       <use xlink:href="#DejaVuSans-32"/>
       <use xlink:href="#DejaVuSans-30" x="63.623047"/>
       <use xlink:href="#DejaVuSans-30" x="127.246094"/>
      </g>
     </g>
    </g>
    <g id="xtick_6">
     <g id="line2d_6">
      <g>
       <use xlink:href="#mc0f7ee6833" x="242.576981" y="288.430125" style="stroke: #000000; stroke-width: 0.8"/>
      </g>
     </g>
     <g id="text_6">
      <!-- 250 -->
      <g transform="translate(233.033231 303.028562) scale(0.1 -0.1)">
       <use xlink:href="#DejaVuSans-32"/>
       <use xlink:href="#DejaVuSans-35" x="63.623047"/>
       <use xlink:href="#DejaVuSans-30" x="127.246094"/>
      </g>
     </g>
    </g>
    <g id="xtick_7">
     <g id="line2d_7">
      <g>
       <use xlink:href="#mc0f7ee6833" x="282.460832" y="288.430125" style="stroke: #000000; stroke-width: 0.8"/>
      </g>
     </g>
     <g id="text_7">
      <!-- 300 -->
      <g transform="translate(272.917082 303.028562) scale(0.1 -0.1)">
       <defs>
        <path id="DejaVuSans-33" d="M 2597 2516 
Q 3050 2419 3304 2112 
Q 3559 1806 3559 1356 
Q 3559 666 3084 287 
Q 2609 -91 1734 -91 
Q 1441 -91 1130 -33 
Q 819 25 488 141 
L 488 750 
Q 750 597 1062 519 
Q 1375 441 1716 441 
Q 2309 441 2620 675 
Q 2931 909 2931 1356 
Q 2931 1769 2642 2001 
Q 2353 2234 1838 2234 
L 1294 2234 
L 1294 2753 
L 1863 2753 
Q 2328 2753 2575 2939 
Q 2822 3125 2822 3475 
Q 2822 3834 2567 4026 
Q 2313 4219 1838 4219 
Q 1578 4219 1281 4162 
Q 984 4106 628 3988 
L 628 4550 
Q 988 4650 1302 4700 
Q 1616 4750 1894 4750 
Q 2613 4750 3031 4423 
Q 3450 4097 3450 3541 
Q 3450 3153 3228 2886 
Q 3006 2619 2597 2516 
z
" transform="scale(0.015625)"/>
       </defs>
       <use xlink:href="#DejaVuSans-33"/>
       <use xlink:href="#DejaVuSans-30" x="63.623047"/>
       <use xlink:href="#DejaVuSans-30" x="127.246094"/>
      </g>
     </g>
    </g>
    <g id="xtick_8">
     <g id="line2d_8">
      <g>
       <use xlink:href="#mc0f7ee6833" x="322.344683" y="288.430125" style="stroke: #000000; stroke-width: 0.8"/>
      </g>
     </g>
     <g id="text_8">
      <!-- 350 -->
      <g transform="translate(312.800933 303.028562) scale(0.1 -0.1)">
       <use xlink:href="#DejaVuSans-33"/>
       <use xlink:href="#DejaVuSans-35" x="63.623047"/>
       <use xlink:href="#DejaVuSans-30" x="127.246094"/>
      </g>
     </g>
    </g>
    <g id="xtick_9">
     <g id="line2d_9">
      <g>
       <use xlink:href="#mc0f7ee6833" x="362.228534" y="288.430125" style="stroke: #000000; stroke-width: 0.8"/>
      </g>
     </g>
     <g id="text_9">
      <!-- 400 -->
      <g transform="translate(352.684784 303.028562) scale(0.1 -0.1)">
       <defs>
        <path id="DejaVuSans-34" d="M 2419 4116 
L 825 1625 
L 2419 1625 
L 2419 4116 
z
M 2253 4666 
L 3047 4666 
L 3047 1625 
L 3713 1625 
L 3713 1100 
L 3047 1100 
L 3047 0 
L 2419 0 
L 2419 1100 
L 313 1100 
L 313 1709 
L 2253 4666 
z
" transform="scale(0.015625)"/>
       </defs>
       <use xlink:href="#DejaVuSans-34"/>
       <use xlink:href="#DejaVuSans-30" x="63.623047"/>
       <use xlink:href="#DejaVuSans-30" x="127.246094"/>
      </g>
     </g>
    </g>
   </g>
   <g id="matplotlib.axis_2">
    <g id="ytick_1">
     <g id="line2d_10">
      <defs>
       <path id="mfdc316b170" d="M 0 0 
L -3.5 0 
" style="stroke: #000000; stroke-width: 0.8"/>
      </defs>
      <g>
       <use xlink:href="#mfdc316b170" x="26.925" y="276.334125" style="stroke: #000000; stroke-width: 0.8"/>
      </g>
     </g>
     <g id="text_10">
      <!-- 0 -->
      <g transform="translate(13.5625 280.133344) scale(0.1 -0.1)">
       <use xlink:href="#DejaVuSans-30"/>
      </g>
     </g>
    </g>
    <g id="ytick_2">
     <g id="line2d_11">
      <g>
       <use xlink:href="#mfdc316b170" x="26.925" y="237.740733" style="stroke: #000000; stroke-width: 0.8"/>
      </g>
     </g>
     <g id="text_11">
      <!-- 5 -->
      <g transform="translate(13.5625 241.539952) scale(0.1 -0.1)">
       <use xlink:href="#DejaVuSans-35"/>
      </g>
     </g>
    </g>
    <g id="ytick_3">
     <g id="line2d_12">
      <g>
       <use xlink:href="#mfdc316b170" x="26.925" y="199.147341" style="stroke: #000000; stroke-width: 0.8"/>
      </g>
     </g>
     <g id="text_12">
      <!-- 10 -->
      <g transform="translate(7.2 202.94656) scale(0.1 -0.1)">
       <use xlink:href="#DejaVuSans-31"/>
       <use xlink:href="#DejaVuSans-30" x="63.623047"/>
      </g>
     </g>
    </g>
    <g id="ytick_4">
     <g id="line2d_13">
      <g>
       <use xlink:href="#mfdc316b170" x="26.925" y="160.553949" style="stroke: #000000; stroke-width: 0.8"/>
      </g>
     </g>
     <g id="text_13">
      <!-- 15 -->
      <g transform="translate(7.2 164.353168) scale(0.1 -0.1)">
       <use xlink:href="#DejaVuSans-31"/>
       <use xlink:href="#DejaVuSans-35" x="63.623047"/>
      </g>
     </g>
    </g>
    <g id="ytick_5">
     <g id="line2d_14">
      <g>
       <use xlink:href="#mfdc316b170" x="26.925" y="121.960557" style="stroke: #000000; stroke-width: 0.8"/>
      </g>
     </g>
     <g id="text_14">
      <!-- 20 -->
      <g transform="translate(7.2 125.759776) scale(0.1 -0.1)">
       <use xlink:href="#DejaVuSans-32"/>
       <use xlink:href="#DejaVuSans-30" x="63.623047"/>
      </g>
     </g>
    </g>
    <g id="ytick_6">
     <g id="line2d_15">
      <g>
       <use xlink:href="#mfdc316b170" x="26.925" y="83.367165" style="stroke: #000000; stroke-width: 0.8"/>
      </g>
     </g>
     <g id="text_15">
      <!-- 25 -->
      <g transform="translate(7.2 87.166384) scale(0.1 -0.1)">
       <use xlink:href="#DejaVuSans-32"/>
       <use xlink:href="#DejaVuSans-35" x="63.623047"/>
      </g>
     </g>
    </g>
    <g id="ytick_7">
     <g id="line2d_16">
      <g>
       <use xlink:href="#mfdc316b170" x="26.925" y="44.773773" style="stroke: #000000; stroke-width: 0.8"/>
      </g>
     </g>
     <g id="text_16">
      <!-- 30 -->
      <g transform="translate(7.2 48.572992) scale(0.1 -0.1)">
       <use xlink:href="#DejaVuSans-33"/>
       <use xlink:href="#DejaVuSans-30" x="63.623047"/>
      </g>
     </g>
    </g>
   </g>
   <g id="line2d_17">
    <path d="M 43.157727 276.334125 
L 43.955404 276.334125 
L 44.753081 265.151521 
L 45.550758 274.420314 
L 48.741466 274.076655 
L 49.539143 274.315023 
L 50.33682 248.547075 
L 51.134497 276.334125 
L 53.527528 276.334125 
L 54.325205 242.236449 
L 55.122883 270.856357 
L 55.92056 270.890721 
L 57.515914 270.679903 
L 59.111268 270.708931 
L 59.908945 208.232612 
L 60.706622 276.334125 
L 63.099653 276.334125 
L 63.89733 118.823127 
L 64.695007 229.174498 
L 65.492684 229.255161 
L 66.290361 239.387321 
L 67.088038 267.597234 
L 67.885715 268.212263 
L 68.683392 267.55391 
L 69.481069 226.939671 
L 70.278746 276.334125 
L 72.671777 276.334125 
L 73.469454 204.527654 
L 74.267131 268.184864 
L 75.064808 268.133305 
L 75.862485 268.391242 
L 76.660162 267.68901 
L 77.457839 266.400361 
L 78.255516 266.055565 
L 79.053193 201.07126 
L 79.85087 276.334125 
L 82.243901 276.334125 
L 83.041578 204.787932 
L 83.839255 266.628798 
L 84.636932 266.857069 
L 85.434609 266.779021 
L 86.232286 266.070981 
L 87.82764 265.947095 
L 88.625317 201.113406 
L 89.422994 276.334125 
L 91.816025 276.334125 
L 92.613702 208.800901 
L 93.411379 266.494151 
L 94.209056 266.429478 
L 95.006733 265.927724 
L 95.80441 266.756046 
L 96.602087 266.845733 
L 97.399764 267.126378 
L 98.197441 210.448838 
L 98.995118 276.334125 
L 101.388149 276.334125 
L 102.185826 213.033831 
L 102.983503 267.913684 
L 103.78118 267.720822 
L 104.578857 267.957041 
L 105.376535 267.826005 
L 106.971889 267.850115 
L 107.769566 198.895345 
L 108.567243 276.334125 
L 110.960274 276.334125 
L 111.757951 219.219199 
L 112.555628 267.412736 
L 113.353305 268.321255 
L 114.948659 268.325171 
L 115.746336 268.65721 
L 116.544013 262.964839 
L 117.34169 219.719682 
L 118.139367 276.334125 
L 120.532398 276.334125 
L 121.330075 217.150331 
L 122.127752 261.761377 
L 122.925429 261.487252 
L 123.723106 261.568213 
L 124.520783 262.140474 
L 125.31846 262.264971 
L 126.116137 260.678191 
L 126.913814 103.563937 
L 127.711491 276.334125 
L 130.104522 276.334125 
L 130.902199 157.826787 
L 131.699876 267.607502 
L 132.497553 267.532254 
L 133.29523 267.259625 
L 135.688261 266.889371 
L 136.485938 211.520807 
L 137.283615 276.334125 
L 139.676646 276.334125 
L 140.474323 185.551987 
L 141.272 266.374441 
L 142.069677 264.128912 
L 142.867354 257.977059 
L 144.462708 257.715802 
L 145.260385 257.632484 
L 146.058062 166.22815 
L 146.855739 276.334125 
L 149.24877 276.334125 
L 150.046447 129.852599 
L 150.844124 266.099094 
L 151.641801 266.535578 
L 152.439478 266.541717 
L 153.237155 261.067904 
L 154.034832 259.855834 
L 154.832509 259.096279 
L 155.630187 197.283996 
L 156.427864 276.334125 
L 158.820895 276.334125 
L 159.618572 223.340732 
L 160.416249 268.648404 
L 162.011603 268.848343 
L 162.80928 268.650127 
L 164.404634 268.721154 
L 165.202311 209.338015 
L 165.999988 276.334125 
L 168.393019 276.334125 
L 169.190696 196.849464 
L 169.988373 266.225903 
L 170.78605 266.11656 
L 172.381404 266.113681 
L 173.179081 266.691288 
L 173.976758 267.583257 
L 174.774435 213.886707 
L 175.572112 276.334125 
L 177.965143 276.334125 
L 178.76282 198.394731 
L 179.560497 267.71149 
L 180.358174 267.508934 
L 181.155851 268.014744 
L 183.548882 268.360046 
L 184.346559 198.353119 
L 185.144236 276.334125 
L 187.537267 276.334125 
L 188.334944 226.520622 
L 189.132621 267.081226 
L 190.727975 267.901807 
L 192.323329 267.707973 
L 193.121006 267.275033 
L 193.918683 211.254076 
L 194.71636 276.334125 
L 197.109391 276.334125 
L 197.907068 226.845922 
L 198.704745 269.281413 
L 199.502422 269.062487 
L 201.097776 269.309103 
L 201.895453 269.126645 
L 202.69313 269.270518 
L 203.490807 217.660035 
L 204.288484 276.334125 
L 206.681516 276.334125 
L 207.479193 222.445041 
L 208.27687 269.533749 
L 209.074547 269.458856 
L 209.872224 265.426963 
L 210.669901 263.477137 
L 211.467578 263.423164 
L 212.265255 261.040942 
L 213.062932 197.587922 
L 213.860609 276.334125 
L 216.25364 276.334125 
L 217.051317 219.814559 
L 217.848994 268.712554 
L 218.646671 268.515756 
L 219.444348 268.598793 
L 220.242025 268.381721 
L 221.039702 268.40914 
L 221.837379 268.613427 
L 222.635056 226.469124 
L 223.432733 276.334125 
L 225.825764 276.334125 
L 226.623441 223.860328 
L 227.421118 269.304185 
L 228.218795 268.630407 
L 229.016472 268.309933 
L 229.814149 268.158362 
L 230.611826 267.859694 
L 231.409503 267.251083 
L 232.20718 196.300564 
L 233.004857 276.334125 
L 235.397888 276.334125 
L 236.195565 217.653918 
L 236.993242 267.078442 
L 237.790919 266.745372 
L 238.588596 265.75262 
L 239.386273 266.118428 
L 240.18395 267.626117 
L 240.981627 267.429477 
L 241.779304 184.71424 
L 242.576981 276.334125 
L 244.970012 276.334125 
L 245.767689 206.189871 
L 246.565366 266.816921 
L 247.363043 266.573345 
L 248.16072 266.047611 
L 248.958397 265.861755 
L 249.756074 265.922834 
L 250.553751 266.169777 
L 251.351428 187.868506 
L 252.149105 276.334125 
L 254.542136 276.334125 
L 255.339813 188.891978 
L 256.137491 265.87845 
L 256.935168 266.69465 
L 257.732845 261.47636 
L 258.530522 257.823545 
L 260.125876 259.140785 
L 260.923553 193.298393 
L 261.72123 276.334125 
L 264.114261 276.334125 
L 264.911938 213.632068 
L 265.709615 259.906782 
L 267.304969 260.150491 
L 268.900323 260.010014 
L 269.698 259.506108 
L 270.495677 34.414125 
L 271.293354 276.334125 
L 273.686385 276.334125 
L 274.484062 208.666096 
L 275.281739 266.683725 
L 276.079416 265.990758 
L 276.877093 265.710111 
L 277.67477 265.900913 
L 278.472447 265.47154 
L 279.270124 265.65736 
L 280.067801 209.2835 
L 280.865478 276.334125 
L 283.258509 276.334125 
L 284.056186 218.160432 
L 284.853863 267.94546 
L 286.449217 267.709158 
L 287.246894 267.384719 
L 288.842248 267.49883 
L 289.639925 204.71194 
L 290.437602 276.334125 
L 292.830633 276.334125 
L 293.62831 126.477236 
L 294.425987 265.256317 
L 295.223664 265.249603 
L 296.819018 266.304901 
L 297.616695 266.327999 
L 298.414372 266.177931 
L 299.212049 227.638441 
L 300.009726 276.334125 
L 302.402757 276.334125 
L 303.200434 212.481097 
L 303.998111 265.760895 
L 306.391143 265.673636 
L 307.986497 268.076892 
L 308.784174 215.676742 
L 309.581851 276.334125 
L 311.974882 276.334125 
L 312.772559 221.326811 
L 313.570236 266.785779 
L 315.16559 266.678695 
L 315.963267 264.947009 
L 316.760944 262.355547 
L 317.558621 262.73298 
L 318.356298 188.506566 
L 319.153975 276.334125 
L 321.547006 276.334125 
L 322.344683 136.461631 
L 323.14236 261.715246 
L 323.940037 258.624922 
L 324.737714 259.72241 
L 325.535391 261.871759 
L 326.333068 262.625508 
L 327.130745 262.672756 
L 327.928422 190.201959 
L 328.726099 276.334125 
L 331.11913 276.334125 
L 331.916807 221.353613 
L 332.714484 269.486099 
L 333.512161 269.300246 
L 334.309838 262.199975 
L 335.107515 259.660432 
L 336.702869 259.85395 
L 337.500546 187.369127 
L 338.298223 276.334125 
L 340.691254 276.334125 
L 341.488931 86.250022 
L 342.286608 269.819263 
L 343.084285 269.795272 
L 343.881962 269.960409 
L 344.679639 269.484863 
L 345.477316 268.545641 
L 346.274993 268.675088 
L 347.07267 234.210577 
L 347.870347 276.334125 
L 350.263378 276.334125 
L 351.061055 243.369801 
L 351.858732 270.834008 
L 353.454086 270.774265 
L 354.251763 270.909884 
L 355.847117 270.992631 
L 356.644795 245.745941 
L 357.442472 276.334125 
L 359.835503 276.334125 
L 360.63318 248.350733 
L 361.430857 274.776194 
L 362.228534 274.737924 
L 364.621565 274.155057 
L 365.419242 274.239354 
L 366.216919 263.987359 
L 367.014596 276.334125 
L 367.812273 276.334125 
L 367.812273 276.334125 
" clip-path="url(#paa1b25bebf)" style="fill: none; stroke: #1f77b4; stroke-width: 1.5; stroke-linecap: square"/>
   </g>
   <g id="patch_3">
    <path d="M 26.925 288.430125 
L 26.925 22.318125 
" style="fill: none; stroke: #000000; stroke-width: 0.8; stroke-linejoin: miter; stroke-linecap: square"/>
   </g>
   <g id="patch_4">
    <path d="M 384.045 288.430125 
L 384.045 22.318125 
" style="fill: none; stroke: #000000; stroke-width: 0.8; stroke-linejoin: miter; stroke-linecap: square"/>
   </g>
   <g id="patch_5">
    <path d="M 26.925 288.430125 
L 384.045 288.430125 
" style="fill: none; stroke: #000000; stroke-width: 0.8; stroke-linejoin: miter; stroke-linecap: square"/>
   </g>
   <g id="patch_6">
    <path d="M 26.925 22.318125 
L 384.045 22.318125 
" style="fill: none; stroke: #000000; stroke-width: 0.8; stroke-linejoin: miter; stroke-linecap: square"/>
   </g>
   <g id="text_17">
    <!-- Fission Density -->
    <g transform="translate(160.693125 16.318125) scale(0.12 -0.12)">
     <defs>
      <path id="DejaVuSans-46" d="M 628 4666 
L 3309 4666 
L 3309 4134 
L 1259 4134 
L 1259 2759 
L 3109 2759 
L 3109 2228 
L 1259 2228 
L 1259 0 
L 628 0 
L 628 4666 
z
" transform="scale(0.015625)"/>
      <path id="DejaVuSans-69" d="M 603 3500 
L 1178 3500 
L 1178 0 
L 603 0 
L 603 3500 
z
M 603 4863 
L 1178 4863 
L 1178 4134 
L 603 4134 
L 603 4863 
z
" transform="scale(0.015625)"/>
      <path id="DejaVuSans-73" d="M 2834 3397 
L 2834 2853 
Q 2591 2978 2328 3040 
Q 2066 3103 1784 3103 
Q 1356 3103 1142 2972 
Q 928 2841 928 2578 
Q 928 2378 1081 2264 
Q 1234 2150 1697 2047 
L 1894 2003 
Q 2506 1872 2764 1633 
Q 3022 1394 3022 966 
Q 3022 478 2636 193 
Q 2250 -91 1575 -91 
Q 1294 -91 989 -36 
Q 684 19 347 128 
L 347 722 
Q 666 556 975 473 
Q 1284 391 1588 391 
Q 1994 391 2212 530 
Q 2431 669 2431 922 
Q 2431 1156 2273 1281 
Q 2116 1406 1581 1522 
L 1381 1569 
Q 847 1681 609 1914 
Q 372 2147 372 2553 
Q 372 3047 722 3315 
Q 1072 3584 1716 3584 
Q 2034 3584 2315 3537 
Q 2597 3491 2834 3397 
z
" transform="scale(0.015625)"/>
      <path id="DejaVuSans-6f" d="M 1959 3097 
Q 1497 3097 1228 2736 
Q 959 2375 959 1747 
Q 959 1119 1226 758 
Q 1494 397 1959 397 
Q 2419 397 2687 759 
Q 2956 1122 2956 1747 
Q 2956 2369 2687 2733 
Q 2419 3097 1959 3097 
z
M 1959 3584 
Q 2709 3584 3137 3096 
Q 3566 2609 3566 1747 
Q 3566 888 3137 398 
Q 2709 -91 1959 -91 
Q 1206 -91 779 398 
Q 353 888 353 1747 
Q 353 2609 779 3096 
Q 1206 3584 1959 3584 
z
" transform="scale(0.015625)"/>
      <path id="DejaVuSans-6e" d="M 3513 2113 
L 3513 0 
L 2938 0 
L 2938 2094 
Q 2938 2591 2744 2837 
Q 2550 3084 2163 3084 
Q 1697 3084 1428 2787 
Q 1159 2491 1159 1978 
L 1159 0 
L 581 0 
L 581 3500 
L 1159 3500 
L 1159 2956 
Q 1366 3272 1645 3428 
Q 1925 3584 2291 3584 
Q 2894 3584 3203 3211 
Q 3513 2838 3513 2113 
z
" transform="scale(0.015625)"/>
      <path id="DejaVuSans-20" transform="scale(0.015625)"/>
      <path id="DejaVuSans-44" d="M 1259 4147 
L 1259 519 
L 2022 519 
Q 2988 519 3436 956 
Q 3884 1394 3884 2338 
Q 3884 3275 3436 3711 
Q 2988 4147 2022 4147 
L 1259 4147 
z
M 628 4666 
L 1925 4666 
Q 3281 4666 3915 4102 
Q 4550 3538 4550 2338 
Q 4550 1131 3912 565 
Q 3275 0 1925 0 
L 628 0 
L 628 4666 
z
" transform="scale(0.015625)"/>
      <path id="DejaVuSans-65" d="M 3597 1894 
L 3597 1613 
L 953 1613 
Q 991 1019 1311 708 
Q 1631 397 2203 397 
Q 2534 397 2845 478 
Q 3156 559 3463 722 
L 3463 178 
Q 3153 47 2828 -22 
Q 2503 -91 2169 -91 
Q 1331 -91 842 396 
Q 353 884 353 1716 
Q 353 2575 817 3079 
Q 1281 3584 2069 3584 
Q 2775 3584 3186 3129 
Q 3597 2675 3597 1894 
z
M 3022 2063 
Q 3016 2534 2758 2815 
Q 2500 3097 2075 3097 
Q 1594 3097 1305 2825 
Q 1016 2553 972 2059 
L 3022 2063 
z
" transform="scale(0.015625)"/>
      <path id="DejaVuSans-74" d="M 1172 4494 
L 1172 3500 
L 2356 3500 
L 2356 3053 
L 1172 3053 
L 1172 1153 
Q 1172 725 1289 603 
Q 1406 481 1766 481 
L 2356 481 
L 2356 0 
L 1766 0 
Q 1100 0 847 248 
Q 594 497 594 1153 
L 594 3053 
L 172 3053 
L 172 3500 
L 594 3500 
L 594 4494 
L 1172 4494 
z
" transform="scale(0.015625)"/>
      <path id="DejaVuSans-79" d="M 2059 -325 
Q 1816 -950 1584 -1140 
Q 1353 -1331 966 -1331 
L 506 -1331 
L 506 -850 
L 844 -850 
Q 1081 -850 1212 -737 
Q 1344 -625 1503 -206 
L 1606 56 
L 191 3500 
L 800 3500 
L 1894 763 
L 2988 3500 
L 3597 3500 
L 2059 -325 
z
" transform="scale(0.015625)"/>
     </defs>
     <use xlink:href="#DejaVuSans-46"/>
     <use xlink:href="#DejaVuSans-69" x="50.269531"/>
     <use xlink:href="#DejaVuSans-73" x="78.052734"/>
     <use xlink:href="#DejaVuSans-73" x="130.152344"/>
     <use xlink:href="#DejaVuSans-69" x="182.251953"/>
     <use xlink:href="#DejaVuSans-6f" x="210.035156"/>
     <use xlink:href="#DejaVuSans-6e" x="271.216797"/>
     <use xlink:href="#DejaVuSans-20" x="334.595703"/>
     <use xlink:href="#DejaVuSans-44" x="366.382812"/>
     <use xlink:href="#DejaVuSans-65" x="443.384766"/>
     <use xlink:href="#DejaVuSans-6e" x="504.908203"/>
     <use xlink:href="#DejaVuSans-73" x="568.287109"/>
     <use xlink:href="#DejaVuSans-69" x="620.386719"/>
     <use xlink:href="#DejaVuSans-74" x="648.169922"/>
     <use xlink:href="#DejaVuSans-79" x="687.378906"/>
    </g>
   </g>
  </g>
 </g>
 <defs>
  <clipPath id="paa1b25bebf">
   <rect x="26.925" y="22.318125" width="357.12" height="266.112"/>
  </clipPath>
 </defs>
</svg>
