<?xml version="1.0" encoding="utf-8" standalone="no"?>
<!DOCTYPE svg PUBLIC "-//W3C//DTD SVG 1.1//EN"
  "http://www.w3.org/Graphics/SVG/1.1/DTD/svg11.dtd">
<svg xmlns:xlink="http://www.w3.org/1999/xlink" width="391.245pt" height="312.30825pt" viewBox="0 0 391.245 312.30825" xmlns="http://www.w3.org/2000/svg" version="1.1">
 <metadata>
  <rdf:RDF xmlns:dc="http://purl.org/dc/elements/1.1/" xmlns:cc="http://creativecommons.org/ns#" xmlns:rdf="http://www.w3.org/1999/02/22-rdf-syntax-ns#">
   <cc:Work>
    <dc:type rdf:resource="http://purl.org/dc/dcmitype/StillImage"/>
    <dc:date>2024-03-14T13:25:35.641886</dc:date>
    <dc:format>image/svg+xml</dc:format>
    <dc:creator>
     <cc:Agent>
      <dc:title>Matplotlib v3.8.3, https://matplotlib.org/</dc:title>
     </cc:Agent>
    </dc:creator>
   </cc:Work>
  </rdf:RDF>
 </metadata>
 <defs>
  <style type="text/css">*{stroke-linejoin: round; stroke-linecap: butt}</style>
 </defs>
 <g id="figure_1">
  <g id="patch_1">
   <path d="M 0 312.30825 
L 391.245 312.30825 
L 391.245 0 
L 0 0 
z
" style="fill: #ffffff"/>
  </g>
  <g id="axes_1">
   <g id="patch_2">
    <path d="M 26.925 288.430125 
L 384.045 288.430125 
L 384.045 22.318125 
L 26.925 22.318125 
z
" style="fill: #ffffff"/>
   </g>
   <g id="matplotlib.axis_1">
    <g id="xtick_1">
     <g id="line2d_1">
      <defs>
       <path id="m533dee6d0a" d="M 0 0 
L 0 3.5 
" style="stroke: #000000; stroke-width: 0.8"/>
      </defs>
      <g>
       <use xlink:href="#m533dee6d0a" x="43.157727" y="288.430125" style="stroke: #000000; stroke-width: 0.8"/>
      </g>
     </g>
     <g id="text_1">
      <!-- 0 -->
      <g transform="translate(39.976477 303.028562) scale(0.1 -0.1)">
       <defs>
        <path id="DejaVuSans-30" d="M 2034 4250 
Q 1547 4250 1301 3770 
Q 1056 3291 1056 2328 
Q 1056 1369 1301 889 
Q 1547 409 2034 409 
Q 2525 409 2770 889 
Q 3016 1369 3016 2328 
Q 3016 3291 2770 3770 
Q 2525 4250 2034 4250 
z
M 2034 4750 
Q 2819 4750 3233 4129 
Q 3647 3509 3647 2328 
Q 3647 1150 3233 529 
Q 2819 -91 2034 -91 
Q 1250 -91 836 529 
Q 422 1150 422 2328 
Q 422 3509 836 4129 
Q 1250 4750 2034 4750 
z
" transform="scale(0.015625)"/>
       </defs>
       <use xlink:href="#DejaVuSans-30"/>
      </g>
     </g>
    </g>
    <g id="xtick_2">
     <g id="line2d_2">
      <g>
       <use xlink:href="#m533dee6d0a" x="86.677103" y="288.430125" style="stroke: #000000; stroke-width: 0.8"/>
      </g>
     </g>
     <g id="text_2">
      <!-- 50 -->
      <g transform="translate(80.314603 303.028562) scale(0.1 -0.1)">
       <defs>
        <path id="DejaVuSans-35" d="M 691 4666 
L 3169 4666 
L 3169 4134 
L 1269 4134 
L 1269 2991 
Q 1406 3038 1543 3061 
Q 1681 3084 1819 3084 
Q 2600 3084 3056 2656 
Q 3513 2228 3513 1497 
Q 3513 744 3044 326 
Q 2575 -91 1722 -91 
Q 1428 -91 1123 -41 
Q 819 9 494 109 
L 494 744 
Q 775 591 1075 516 
Q 1375 441 1709 441 
Q 2250 441 2565 725 
Q 2881 1009 2881 1497 
Q 2881 1984 2565 2268 
Q 2250 2553 1709 2553 
Q 1456 2553 1204 2497 
Q 953 2441 691 2322 
L 691 4666 
z
" transform="scale(0.015625)"/>
       </defs>
       <use xlink:href="#DejaVuSans-35"/>
       <use xlink:href="#DejaVuSans-30" x="63.623047"/>
      </g>
     </g>
    </g>
    <g id="xtick_3">
     <g id="line2d_3">
      <g>
       <use xlink:href="#m533dee6d0a" x="130.196479" y="288.430125" style="stroke: #000000; stroke-width: 0.8"/>
      </g>
     </g>
     <g id="text_3">
      <!-- 100 -->
      <g transform="translate(120.652729 303.028562) scale(0.1 -0.1)">
       <defs>
        <path id="DejaVuSans-31" d="M 794 531 
L 1825 531 
L 1825 4091 
L 703 3866 
L 703 4441 
L 1819 4666 
L 2450 4666 
L 2450 531 
L 3481 531 
L 3481 0 
L 794 0 
L 794 531 
z
" transform="scale(0.015625)"/>
       </defs>
       <use xlink:href="#DejaVuSans-31"/>
       <use xlink:href="#DejaVuSans-30" x="63.623047"/>
       <use xlink:href="#DejaVuSans-30" x="127.246094"/>
      </g>
     </g>
    </g>
    <g id="xtick_4">
     <g id="line2d_4">
      <g>
       <use xlink:href="#m533dee6d0a" x="173.715855" y="288.430125" style="stroke: #000000; stroke-width: 0.8"/>
      </g>
     </g>
     <g id="text_4">
      <!-- 150 -->
      <g transform="translate(164.172105 303.028562) scale(0.1 -0.1)">
       <use xlink:href="#DejaVuSans-31"/>
       <use xlink:href="#DejaVuSans-35" x="63.623047"/>
       <use xlink:href="#DejaVuSans-30" x="127.246094"/>
      </g>
     </g>
    </g>
    <g id="xtick_5">
     <g id="line2d_5">
      <g>
       <use xlink:href="#m533dee6d0a" x="217.235232" y="288.430125" style="stroke: #000000; stroke-width: 0.8"/>
      </g>
     </g>
     <g id="text_5">
      <!-- 200 -->
      <g transform="translate(207.691482 303.028562) scale(0.1 -0.1)">
       <defs>
        <path id="DejaVuSans-32" d="M 1228 531 
L 3431 531 
L 3431 0 
L 469 0 
L 469 531 
Q 828 903 1448 1529 
Q 2069 2156 2228 2338 
Q 2531 2678 2651 2914 
Q 2772 3150 2772 3378 
Q 2772 3750 2511 3984 
Q 2250 4219 1831 4219 
Q 1534 4219 1204 4116 
Q 875 4013 500 3803 
L 500 4441 
Q 881 4594 1212 4672 
Q 1544 4750 1819 4750 
Q 2544 4750 2975 4387 
Q 3406 4025 3406 3419 
Q 3406 3131 3298 2873 
Q 3191 2616 2906 2266 
Q 2828 2175 2409 1742 
Q 1991 1309 1228 531 
z
" transform="scale(0.015625)"/>
       </defs>
       <use xlink:href="#DejaVuSans-32"/>
       <use xlink:href="#DejaVuSans-30" x="63.623047"/>
       <use xlink:href="#DejaVuSans-30" x="127.246094"/>
      </g>
     </g>
    </g>
    <g id="xtick_6">
     <g id="line2d_6">
      <g>
       <use xlink:href="#m533dee6d0a" x="260.754608" y="288.430125" style="stroke: #000000; stroke-width: 0.8"/>
      </g>
     </g>
     <g id="text_6">
      <!-- 250 -->
      <g transform="translate(251.210858 303.028562) scale(0.1 -0.1)">
       <use xlink:href="#DejaVuSans-32"/>
       <use xlink:href="#DejaVuSans-35" x="63.623047"/>
       <use xlink:href="#DejaVuSans-30" x="127.246094"/>
      </g>
     </g>
    </g>
    <g id="xtick_7">
     <g id="line2d_7">
      <g>
       <use xlink:href="#m533dee6d0a" x="304.273984" y="288.430125" style="stroke: #000000; stroke-width: 0.8"/>
      </g>
     </g>
     <g id="text_7">
      <!-- 300 -->
      <g transform="translate(294.730234 303.028562) scale(0.1 -0.1)">
       <defs>
        <path id="DejaVuSans-33" d="M 2597 2516 
Q 3050 2419 3304 2112 
Q 3559 1806 3559 1356 
Q 3559 666 3084 287 
Q 2609 -91 1734 -91 
Q 1441 -91 1130 -33 
Q 819 25 488 141 
L 488 750 
Q 750 597 1062 519 
Q 1375 441 1716 441 
Q 2309 441 2620 675 
Q 2931 909 2931 1356 
Q 2931 1769 2642 2001 
Q 2353 2234 1838 2234 
L 1294 2234 
L 1294 2753 
L 1863 2753 
Q 2328 2753 2575 2939 
Q 2822 3125 2822 3475 
Q 2822 3834 2567 4026 
Q 2313 4219 1838 4219 
Q 1578 4219 1281 4162 
Q 984 4106 628 3988 
L 628 4550 
Q 988 4650 1302 4700 
Q 1616 4750 1894 4750 
Q 2613 4750 3031 4423 
Q 3450 4097 3450 3541 
Q 3450 3153 3228 2886 
Q 3006 2619 2597 2516 
z
" transform="scale(0.015625)"/>
       </defs>
       <use xlink:href="#DejaVuSans-33"/>
       <use xlink:href="#DejaVuSans-30" x="63.623047"/>
       <use xlink:href="#DejaVuSans-30" x="127.246094"/>
      </g>
     </g>
    </g>
    <g id="xtick_8">
     <g id="line2d_8">
      <g>
       <use xlink:href="#m533dee6d0a" x="347.79336" y="288.430125" style="stroke: #000000; stroke-width: 0.8"/>
      </g>
     </g>
     <g id="text_8">
      <!-- 350 -->
      <g transform="translate(338.24961 303.028562) scale(0.1 -0.1)">
       <use xlink:href="#DejaVuSans-33"/>
       <use xlink:href="#DejaVuSans-35" x="63.623047"/>
       <use xlink:href="#DejaVuSans-30" x="127.246094"/>
      </g>
     </g>
    </g>
   </g>
   <g id="matplotlib.axis_2">
    <g id="ytick_1">
     <g id="line2d_9">
      <defs>
       <path id="m7f41957a3e" d="M 0 0 
L -3.5 0 
" style="stroke: #000000; stroke-width: 0.8"/>
      </defs>
      <g>
       <use xlink:href="#m7f41957a3e" x="26.925" y="276.334125" style="stroke: #000000; stroke-width: 0.8"/>
      </g>
     </g>
     <g id="text_9">
      <!-- 0 -->
      <g transform="translate(13.5625 280.133344) scale(0.1 -0.1)">
       <use xlink:href="#DejaVuSans-30"/>
      </g>
     </g>
    </g>
    <g id="ytick_2">
     <g id="line2d_10">
      <g>
       <use xlink:href="#m7f41957a3e" x="26.925" y="245.601809" style="stroke: #000000; stroke-width: 0.8"/>
      </g>
     </g>
     <g id="text_10">
      <!-- 5 -->
      <g transform="translate(13.5625 249.401028) scale(0.1 -0.1)">
       <use xlink:href="#DejaVuSans-35"/>
      </g>
     </g>
    </g>
    <g id="ytick_3">
     <g id="line2d_11">
      <g>
       <use xlink:href="#m7f41957a3e" x="26.925" y="214.869493" style="stroke: #000000; stroke-width: 0.8"/>
      </g>
     </g>
     <g id="text_11">
      <!-- 10 -->
      <g transform="translate(7.2 218.668712) scale(0.1 -0.1)">
       <use xlink:href="#DejaVuSans-31"/>
       <use xlink:href="#DejaVuSans-30" x="63.623047"/>
      </g>
     </g>
    </g>
    <g id="ytick_4">
     <g id="line2d_12">
      <g>
       <use xlink:href="#m7f41957a3e" x="26.925" y="184.137178" style="stroke: #000000; stroke-width: 0.8"/>
      </g>
     </g>
     <g id="text_12">
      <!-- 15 -->
      <g transform="translate(7.2 187.936396) scale(0.1 -0.1)">
       <use xlink:href="#DejaVuSans-31"/>
       <use xlink:href="#DejaVuSans-35" x="63.623047"/>
      </g>
     </g>
    </g>
    <g id="ytick_5">
     <g id="line2d_13">
      <g>
       <use xlink:href="#m7f41957a3e" x="26.925" y="153.404862" style="stroke: #000000; stroke-width: 0.8"/>
      </g>
     </g>
     <g id="text_13">
      <!-- 20 -->
      <g transform="translate(7.2 157.204081) scale(0.1 -0.1)">
       <use xlink:href="#DejaVuSans-32"/>
       <use xlink:href="#DejaVuSans-30" x="63.623047"/>
      </g>
     </g>
    </g>
    <g id="ytick_6">
     <g id="line2d_14">
      <g>
       <use xlink:href="#m7f41957a3e" x="26.925" y="122.672546" style="stroke: #000000; stroke-width: 0.8"/>
      </g>
     </g>
     <g id="text_14">
      <!-- 25 -->
      <g transform="translate(7.2 126.471765) scale(0.1 -0.1)">
       <use xlink:href="#DejaVuSans-32"/>
       <use xlink:href="#DejaVuSans-35" x="63.623047"/>
      </g>
     </g>
    </g>
    <g id="ytick_7">
     <g id="line2d_15">
      <g>
       <use xlink:href="#m7f41957a3e" x="26.925" y="91.94023" style="stroke: #000000; stroke-width: 0.8"/>
      </g>
     </g>
     <g id="text_15">
      <!-- 30 -->
      <g transform="translate(7.2 95.739449) scale(0.1 -0.1)">
       <use xlink:href="#DejaVuSans-33"/>
       <use xlink:href="#DejaVuSans-30" x="63.623047"/>
      </g>
     </g>
    </g>
    <g id="ytick_8">
     <g id="line2d_16">
      <g>
       <use xlink:href="#m7f41957a3e" x="26.925" y="61.207915" style="stroke: #000000; stroke-width: 0.8"/>
      </g>
     </g>
     <g id="text_16">
      <!-- 35 -->
      <g transform="translate(7.2 65.007133) scale(0.1 -0.1)">
       <use xlink:href="#DejaVuSans-33"/>
       <use xlink:href="#DejaVuSans-35" x="63.623047"/>
      </g>
     </g>
    </g>
    <g id="ytick_9">
     <g id="line2d_17">
      <g>
       <use xlink:href="#m7f41957a3e" x="26.925" y="30.475599" style="stroke: #000000; stroke-width: 0.8"/>
      </g>
     </g>
     <g id="text_17">
      <!-- 40 -->
      <g transform="translate(7.2 34.274818) scale(0.1 -0.1)">
       <defs>
        <path id="DejaVuSans-34" d="M 2419 4116 
L 825 1625 
L 2419 1625 
L 2419 4116 
z
M 2253 4666 
L 3047 4666 
L 3047 1625 
L 3713 1625 
L 3713 1100 
L 3047 1100 
L 3047 0 
L 2419 0 
L 2419 1100 
L 313 1100 
L 313 1709 
L 2253 4666 
z
" transform="scale(0.015625)"/>
       </defs>
       <use xlink:href="#DejaVuSans-34"/>
       <use xlink:href="#DejaVuSans-30" x="63.623047"/>
      </g>
     </g>
    </g>
   </g>
   <g id="line2d_18">
    <path d="M 43.157727 276.334125 
L 44.028115 276.334125 
L 44.898502 270.189469 
L 45.76889 276.015623 
L 49.25044 275.999946 
L 50.120827 252.941352 
L 50.991215 276.334125 
L 53.602378 276.334125 
L 54.472765 262.994401 
L 55.343153 274.220981 
L 56.21354 274.039274 
L 57.083928 273.625659 
L 58.824703 274.110749 
L 59.69509 249.764616 
L 60.565478 276.334125 
L 63.17664 276.334125 
L 64.047028 242.816105 
L 64.917415 273.423282 
L 66.65819 273.182538 
L 67.528578 273.309415 
L 68.398965 273.625717 
L 69.269353 236.265108 
L 70.13974 276.334125 
L 72.750903 276.334125 
L 73.621291 226.896617 
L 74.491678 273.10112 
L 75.362066 272.785573 
L 77.102841 272.816627 
L 77.973228 273.170741 
L 78.843616 226.425958 
L 79.714003 276.334125 
L 82.325166 276.334125 
L 83.195553 226.403463 
L 84.065941 272.869289 
L 84.936328 272.174776 
L 87.547491 272.748551 
L 88.417878 225.87048 
L 89.288266 276.334125 
L 91.899428 276.334125 
L 92.769816 214.991457 
L 93.640204 272.612908 
L 94.510591 271.992539 
L 96.251366 272.596105 
L 97.121754 273.062459 
L 97.992141 237.391106 
L 98.862529 276.334125 
L 101.473691 276.334125 
L 102.344079 217.106762 
L 103.214466 268.633471 
L 104.084854 271.541237 
L 104.955241 271.354923 
L 105.825629 271.401331 
L 106.696016 271.609907 
L 107.566404 217.493929 
L 108.436791 276.334125 
L 111.047954 276.334125 
L 111.918341 189.679137 
L 112.788729 255.366956 
L 113.659117 255.211348 
L 114.529504 255.257397 
L 115.399892 264.533166 
L 116.270279 267.011489 
L 117.140667 34.414125 
L 118.011054 276.334125 
L 120.622217 276.334125 
L 121.492604 232.610784 
L 122.362992 272.588699 
L 123.233379 272.47422 
L 124.103767 272.066383 
L 124.974154 272.130335 
L 125.844542 271.965253 
L 126.714929 145.038462 
L 127.585317 276.334125 
L 130.196479 276.334125 
L 131.066867 230.832453 
L 131.937254 273.172281 
L 133.678029 272.978191 
L 134.548417 272.929243 
L 135.418805 273.518415 
L 136.289192 234.269462 
L 137.15958 276.334125 
L 139.770742 276.334125 
L 140.64113 226.418576 
L 141.511517 271.756945 
L 144.12268 272.242089 
L 144.993067 272.667604 
L 145.863455 219.03564 
L 146.733842 276.334125 
L 149.345005 276.334125 
L 150.215392 222.921044 
L 151.08578 273.247876 
L 151.956167 272.768103 
L 152.826555 273.163942 
L 153.696942 273.052901 
L 154.56733 273.210785 
L 155.437718 215.484548 
L 156.308105 276.334125 
L 158.919268 276.334125 
L 159.789655 232.583217 
L 160.660043 272.795722 
L 161.53043 272.953917 
L 163.271205 272.566496 
L 164.141593 272.837567 
L 165.01198 220.86073 
L 165.882368 276.334125 
L 168.49353 276.334125 
L 169.363918 207.007824 
L 170.234305 271.091176 
L 171.104693 271.473969 
L 171.97508 273.036169 
L 172.845468 272.998402 
L 173.715855 273.106822 
L 174.586243 237.01562 
L 175.456631 276.334125 
L 178.067793 276.334125 
L 178.938181 210.15983 
L 179.808568 272.501202 
L 180.678956 272.21062 
L 181.549343 272.082398 
L 183.290118 272.0455 
L 184.160506 226.46186 
L 185.030893 276.334125 
L 187.642056 276.334125 
L 188.512443 234.25935 
L 189.382831 273.732533 
L 191.123606 273.679949 
L 191.993993 273.056618 
L 192.864381 273.647374 
L 193.734768 241.469476 
L 194.605156 276.334125 
L 197.216319 276.334125 
L 198.086706 238.242006 
L 198.957094 273.537044 
L 199.827481 272.933126 
L 200.697869 273.355362 
L 201.568256 273.095069 
L 202.438644 273.326415 
L 203.309031 202.887779 
L 204.179419 276.334125 
L 206.790581 276.334125 
L 207.660969 214.866934 
L 208.531356 269.799799 
L 209.401744 269.774021 
L 210.272131 269.529116 
L 211.142519 269.658787 
L 212.012906 272.697075 
L 212.883294 237.389773 
L 213.753681 276.334125 
L 216.364844 276.334125 
L 217.235232 175.447929 
L 218.105619 271.845291 
L 219.846394 271.690914 
L 221.587169 271.754368 
L 222.457557 224.627085 
L 223.327944 276.334125 
L 225.939107 276.334125 
L 226.809494 208.307847 
L 227.679882 273.067847 
L 228.550269 272.968262 
L 229.420657 273.237554 
L 231.161432 273.377268 
L 232.031819 211.246216 
L 232.902207 276.334125 
L 235.513369 276.334125 
L 236.383757 228.722883 
L 237.254145 272.973059 
L 239.865307 272.647491 
L 240.735695 272.93851 
L 241.606082 228.858686 
L 242.47647 276.334125 
L 245.087632 276.334125 
L 245.95802 236.244834 
L 246.828407 273.281094 
L 248.569182 273.183003 
L 249.43957 273.173988 
L 250.309957 272.377067 
L 251.180345 196.804383 
L 252.050732 276.334125 
L 254.661895 276.334125 
L 255.532282 230.160795 
L 256.40267 273.059983 
L 257.273058 273.316224 
L 258.143445 273.356735 
L 259.013833 272.097116 
L 259.88422 268.470666 
L 260.754608 101.805215 
L 261.624995 276.334125 
L 264.236158 276.334125 
L 265.106545 236.041564 
L 265.976933 273.06421 
L 266.84732 273.159746 
L 267.717708 273.007464 
L 269.458483 273.262548 
L 270.32887 222.894587 
L 271.199258 276.334125 
L 273.81042 276.334125 
L 274.680808 225.148389 
L 275.551195 272.227614 
L 276.421583 272.219068 
L 277.291971 271.979561 
L 278.162358 271.951073 
L 279.032746 272.234503 
L 279.903133 208.058433 
L 280.773521 276.334125 
L 283.384683 276.334125 
L 284.255071 242.129616 
L 285.125458 273.565894 
L 285.995846 273.651094 
L 286.866233 273.474715 
L 287.736621 273.11141 
L 288.607008 273.546731 
L 289.477396 239.989684 
L 290.347783 276.334125 
L 292.958946 276.334125 
L 293.829333 199.02664 
L 294.699721 272.588018 
L 295.570108 272.132695 
L 296.440496 272.448393 
L 297.310883 270.907464 
L 298.181271 273.063581 
L 299.051659 231.8154 
L 299.922046 276.334125 
L 302.533209 276.334125 
L 303.403596 232.214076 
L 304.273984 272.94451 
L 306.014759 272.779268 
L 307.755534 273.145738 
L 308.625921 234.708853 
L 309.496309 276.334125 
L 312.107471 276.334125 
L 312.977859 183.998102 
L 313.848246 248.506498 
L 314.718634 258.315745 
L 315.589021 258.242573 
L 316.459409 258.363417 
L 317.329796 261.062914 
L 318.200184 218.867663 
L 319.070572 276.334125 
L 321.681734 276.334125 
L 322.552122 217.876433 
L 323.422509 273.093943 
L 324.292897 273.202667 
L 325.163284 273.111136 
L 326.033672 273.21997 
L 326.904059 273.564236 
L 327.774447 231.686474 
L 328.644834 276.334125 
L 331.255997 276.334125 
L 332.126384 225.071169 
L 332.996772 273.003283 
L 333.867159 272.819076 
L 336.478322 273.115873 
L 337.348709 235.360897 
L 338.219097 276.334125 
L 340.83026 276.334125 
L 341.700647 233.668188 
L 342.571035 272.925379 
L 343.441422 272.989907 
L 344.31181 272.588726 
L 345.182197 272.584693 
L 346.052585 272.889804 
L 346.922972 227.341431 
L 347.79336 276.334125 
L 350.404522 276.334125 
L 351.27491 193.50921 
L 352.145297 271.049145 
L 353.015685 270.831507 
L 353.886072 271.019616 
L 354.75646 271.063692 
L 355.626847 271.337179 
L 356.497235 94.140812 
L 357.367622 276.334125 
L 359.978785 276.334125 
L 360.849173 249.917153 
L 361.71956 274.666109 
L 362.589948 273.757198 
L 363.460335 273.816876 
L 364.330723 273.71853 
L 365.20111 273.785896 
L 366.071498 264.937988 
L 366.941885 276.334125 
L 367.812273 276.334125 
L 367.812273 276.334125 
" clip-path="url(#p16cf42cd55)" style="fill: none; stroke: #1f77b4; stroke-width: 1.5; stroke-linecap: square"/>
   </g>
   <g id="patch_3">
    <path d="M 26.925 288.430125 
L 26.925 22.318125 
" style="fill: none; stroke: #000000; stroke-width: 0.8; stroke-linejoin: miter; stroke-linecap: square"/>
   </g>
   <g id="patch_4">
    <path d="M 384.045 288.430125 
L 384.045 22.318125 
" style="fill: none; stroke: #000000; stroke-width: 0.8; stroke-linejoin: miter; stroke-linecap: square"/>
   </g>
   <g id="patch_5">
    <path d="M 26.925 288.430125 
L 384.045 288.430125 
" style="fill: none; stroke: #000000; stroke-width: 0.8; stroke-linejoin: miter; stroke-linecap: square"/>
   </g>
   <g id="patch_6">
    <path d="M 26.925 22.318125 
L 384.045 22.318125 
" style="fill: none; stroke: #000000; stroke-width: 0.8; stroke-linejoin: miter; stroke-linecap: square"/>
   </g>
   <g id="text_18">
    <!-- Fission Density -->
    <g transform="translate(160.693125 16.318125) scale(0.12 -0.12)">
     <defs>
      <path id="DejaVuSans-46" d="M 628 4666 
L 3309 4666 
L 3309 4134 
L 1259 4134 
L 1259 2759 
L 3109 2759 
L 3109 2228 
L 1259 2228 
L 1259 0 
L 628 0 
L 628 4666 
z
" transform="scale(0.015625)"/>
      <path id="DejaVuSans-69" d="M 603 3500 
L 1178 3500 
L 1178 0 
L 603 0 
L 603 3500 
z
M 603 4863 
L 1178 4863 
L 1178 4134 
L 603 4134 
L 603 4863 
z
" transform="scale(0.015625)"/>
      <path id="DejaVuSans-73" d="M 2834 3397 
L 2834 2853 
Q 2591 2978 2328 3040 
Q 2066 3103 1784 3103 
Q 1356 3103 1142 2972 
Q 928 2841 928 2578 
Q 928 2378 1081 2264 
Q 1234 2150 1697 2047 
L 1894 2003 
Q 2506 1872 2764 1633 
Q 3022 1394 3022 966 
Q 3022 478 2636 193 
Q 2250 -91 1575 -91 
Q 1294 -91 989 -36 
Q 684 19 347 128 
L 347 722 
Q 666 556 975 473 
Q 1284 391 1588 391 
Q 1994 391 2212 530 
Q 2431 669 2431 922 
Q 2431 1156 2273 1281 
Q 2116 1406 1581 1522 
L 1381 1569 
Q 847 1681 609 1914 
Q 372 2147 372 2553 
Q 372 3047 722 3315 
Q 1072 3584 1716 3584 
Q 2034 3584 2315 3537 
Q 2597 3491 2834 3397 
z
" transform="scale(0.015625)"/>
      <path id="DejaVuSans-6f" d="M 1959 3097 
Q 1497 3097 1228 2736 
Q 959 2375 959 1747 
Q 959 1119 1226 758 
Q 1494 397 1959 397 
Q 2419 397 2687 759 
Q 2956 1122 2956 1747 
Q 2956 2369 2687 2733 
Q 2419 3097 1959 3097 
z
M 1959 3584 
Q 2709 3584 3137 3096 
Q 3566 2609 3566 1747 
Q 3566 888 3137 398 
Q 2709 -91 1959 -91 
Q 1206 -91 779 398 
Q 353 888 353 1747 
Q 353 2609 779 3096 
Q 1206 3584 1959 3584 
z
" transform="scale(0.015625)"/>
      <path id="DejaVuSans-6e" d="M 3513 2113 
L 3513 0 
L 2938 0 
L 2938 2094 
Q 2938 2591 2744 2837 
Q 2550 3084 2163 3084 
Q 1697 3084 1428 2787 
Q 1159 2491 1159 1978 
L 1159 0 
L 581 0 
L 581 3500 
L 1159 3500 
L 1159 2956 
Q 1366 3272 1645 3428 
Q 1925 3584 2291 3584 
Q 2894 3584 3203 3211 
Q 3513 2838 3513 2113 
z
" transform="scale(0.015625)"/>
      <path id="DejaVuSans-20" transform="scale(0.015625)"/>
      <path id="DejaVuSans-44" d="M 1259 4147 
L 1259 519 
L 2022 519 
Q 2988 519 3436 956 
Q 3884 1394 3884 2338 
Q 3884 3275 3436 3711 
Q 2988 4147 2022 4147 
L 1259 4147 
z
M 628 4666 
L 1925 4666 
Q 3281 4666 3915 4102 
Q 4550 3538 4550 2338 
Q 4550 1131 3912 565 
Q 3275 0 1925 0 
L 628 0 
L 628 4666 
z
" transform="scale(0.015625)"/>
      <path id="DejaVuSans-65" d="M 3597 1894 
L 3597 1613 
L 953 1613 
Q 991 1019 1311 708 
Q 1631 397 2203 397 
Q 2534 397 2845 478 
Q 3156 559 3463 722 
L 3463 178 
Q 3153 47 2828 -22 
Q 2503 -91 2169 -91 
Q 1331 -91 842 396 
Q 353 884 353 1716 
Q 353 2575 817 3079 
Q 1281 3584 2069 3584 
Q 2775 3584 3186 3129 
Q 3597 2675 3597 1894 
z
M 3022 2063 
Q 3016 2534 2758 2815 
Q 2500 3097 2075 3097 
Q 1594 3097 1305 2825 
Q 1016 2553 972 2059 
L 3022 2063 
z
" transform="scale(0.015625)"/>
      <path id="DejaVuSans-74" d="M 1172 4494 
L 1172 3500 
L 2356 3500 
L 2356 3053 
L 1172 3053 
L 1172 1153 
Q 1172 725 1289 603 
Q 1406 481 1766 481 
L 2356 481 
L 2356 0 
L 1766 0 
Q 1100 0 847 248 
Q 594 497 594 1153 
L 594 3053 
L 172 3053 
L 172 3500 
L 594 3500 
L 594 4494 
L 1172 4494 
z
" transform="scale(0.015625)"/>
      <path id="DejaVuSans-79" d="M 2059 -325 
Q 1816 -950 1584 -1140 
Q 1353 -1331 966 -1331 
L 506 -1331 
L 506 -850 
L 844 -850 
Q 1081 -850 1212 -737 
Q 1344 -625 1503 -206 
L 1606 56 
L 191 3500 
L 800 3500 
L 1894 763 
L 2988 3500 
L 3597 3500 
L 2059 -325 
z
" transform="scale(0.015625)"/>
     </defs>
     <use xlink:href="#DejaVuSans-46"/>
     <use xlink:href="#DejaVuSans-69" x="50.269531"/>
     <use xlink:href="#DejaVuSans-73" x="78.052734"/>
     <use xlink:href="#DejaVuSans-73" x="130.152344"/>
     <use xlink:href="#DejaVuSans-69" x="182.251953"/>
     <use xlink:href="#DejaVuSans-6f" x="210.035156"/>
     <use xlink:href="#DejaVuSans-6e" x="271.216797"/>
     <use xlink:href="#DejaVuSans-20" x="334.595703"/>
     <use xlink:href="#DejaVuSans-44" x="366.382812"/>
     <use xlink:href="#DejaVuSans-65" x="443.384766"/>
     <use xlink:href="#DejaVuSans-6e" x="504.908203"/>
     <use xlink:href="#DejaVuSans-73" x="568.287109"/>
     <use xlink:href="#DejaVuSans-69" x="620.386719"/>
     <use xlink:href="#DejaVuSans-74" x="648.169922"/>
     <use xlink:href="#DejaVuSans-79" x="687.378906"/>
    </g>
   </g>
  </g>
 </g>
 <defs>
  <clipPath id="p16cf42cd55">
   <rect x="26.925" y="22.318125" width="357.12" height="266.112"/>
  </clipPath>
 </defs>
</svg>
