<?xml version="1.0" encoding="utf-8" standalone="no"?>
<!DOCTYPE svg PUBLIC "-//W3C//DTD SVG 1.1//EN"
  "http://www.w3.org/Graphics/SVG/1.1/DTD/svg11.dtd">
<svg xmlns:xlink="http://www.w3.org/1999/xlink" width="394.423125pt" height="312.30825pt" viewBox="0 0 394.423125 312.30825" xmlns="http://www.w3.org/2000/svg" version="1.1">
 <metadata>
  <rdf:RDF xmlns:dc="http://purl.org/dc/elements/1.1/" xmlns:cc="http://creativecommons.org/ns#" xmlns:rdf="http://www.w3.org/1999/02/22-rdf-syntax-ns#">
   <cc:Work>
    <dc:type rdf:resource="http://purl.org/dc/dcmitype/StillImage"/>
    <dc:date>2024-03-18T09:15:19.834249</dc:date>
    <dc:format>image/svg+xml</dc:format>
    <dc:creator>
     <cc:Agent>
      <dc:title>Matplotlib v3.8.3, https://matplotlib.org/</dc:title>
     </cc:Agent>
    </dc:creator>
   </cc:Work>
  </rdf:RDF>
 </metadata>
 <defs>
  <style type="text/css">*{stroke-linejoin: round; stroke-linecap: butt}</style>
 </defs>
 <g id="figure_1">
  <g id="patch_1">
   <path d="M 0 312.30825 
L 394.423125 312.30825 
L 394.423125 0 
L 0 0 
z
" style="fill: #ffffff"/>
  </g>
  <g id="axes_1">
   <g id="patch_2">
    <path d="M 30.103125 288.430125 
L 387.223125 288.430125 
L 387.223125 22.318125 
L 30.103125 22.318125 
z
" style="fill: #ffffff"/>
   </g>
   <g id="matplotlib.axis_1">
    <g id="xtick_1">
     <g id="line2d_1">
      <defs>
       <path id="mbe43015dc2" d="M 0 0 
L 0 3.5 
" style="stroke: #000000; stroke-width: 0.8"/>
      </defs>
      <g>
       <use xlink:href="#mbe43015dc2" x="30.103125" y="288.430125" style="stroke: #000000; stroke-width: 0.8"/>
      </g>
     </g>
     <g id="text_1">
      <!-- 0 -->
      <g transform="translate(26.921875 303.028562) scale(0.1 -0.1)">
       <defs>
        <path id="DejaVuSans-30" d="M 2034 4250 
Q 1547 4250 1301 3770 
Q 1056 3291 1056 2328 
Q 1056 1369 1301 889 
Q 1547 409 2034 409 
Q 2525 409 2770 889 
Q 3016 1369 3016 2328 
Q 3016 3291 2770 3770 
Q 2525 4250 2034 4250 
z
M 2034 4750 
Q 2819 4750 3233 4129 
Q 3647 3509 3647 2328 
Q 3647 1150 3233 529 
Q 2819 -91 2034 -91 
Q 1250 -91 836 529 
Q 422 1150 422 2328 
Q 422 3509 836 4129 
Q 1250 4750 2034 4750 
z
" transform="scale(0.015625)"/>
       </defs>
       <use xlink:href="#DejaVuSans-30"/>
      </g>
     </g>
    </g>
    <g id="xtick_2">
     <g id="line2d_2">
      <g>
       <use xlink:href="#mbe43015dc2" x="71.717742" y="288.430125" style="stroke: #000000; stroke-width: 0.8"/>
      </g>
     </g>
     <g id="text_2">
      <!-- 5 -->
      <g transform="translate(68.536492 303.028562) scale(0.1 -0.1)">
       <defs>
        <path id="DejaVuSans-35" d="M 691 4666 
L 3169 4666 
L 3169 4134 
L 1269 4134 
L 1269 2991 
Q 1406 3038 1543 3061 
Q 1681 3084 1819 3084 
Q 2600 3084 3056 2656 
Q 3513 2228 3513 1497 
Q 3513 744 3044 326 
Q 2575 -91 1722 -91 
Q 1428 -91 1123 -41 
Q 819 9 494 109 
L 494 744 
Q 775 591 1075 516 
Q 1375 441 1709 441 
Q 2250 441 2565 725 
Q 2881 1009 2881 1497 
Q 2881 1984 2565 2268 
Q 2250 2553 1709 2553 
Q 1456 2553 1204 2497 
Q 953 2441 691 2322 
L 691 4666 
z
" transform="scale(0.015625)"/>
       </defs>
       <use xlink:href="#DejaVuSans-35"/>
      </g>
     </g>
    </g>
    <g id="xtick_3">
     <g id="line2d_3">
      <g>
       <use xlink:href="#mbe43015dc2" x="113.33236" y="288.430125" style="stroke: #000000; stroke-width: 0.8"/>
      </g>
     </g>
     <g id="text_3">
      <!-- 10 -->
      <g transform="translate(106.96986 303.028562) scale(0.1 -0.1)">
       <defs>
        <path id="DejaVuSans-31" d="M 794 531 
L 1825 531 
L 1825 4091 
L 703 3866 
L 703 4441 
L 1819 4666 
L 2450 4666 
L 2450 531 
L 3481 531 
L 3481 0 
L 794 0 
L 794 531 
z
" transform="scale(0.015625)"/>
       </defs>
       <use xlink:href="#DejaVuSans-31"/>
       <use xlink:href="#DejaVuSans-30" x="63.623047"/>
      </g>
     </g>
    </g>
    <g id="xtick_4">
     <g id="line2d_4">
      <g>
       <use xlink:href="#mbe43015dc2" x="154.946977" y="288.430125" style="stroke: #000000; stroke-width: 0.8"/>
      </g>
     </g>
     <g id="text_4">
      <!-- 15 -->
      <g transform="translate(148.584477 303.028562) scale(0.1 -0.1)">
       <use xlink:href="#DejaVuSans-31"/>
       <use xlink:href="#DejaVuSans-35" x="63.623047"/>
      </g>
     </g>
    </g>
    <g id="xtick_5">
     <g id="line2d_5">
      <g>
       <use xlink:href="#mbe43015dc2" x="196.561594" y="288.430125" style="stroke: #000000; stroke-width: 0.8"/>
      </g>
     </g>
     <g id="text_5">
      <!-- 20 -->
      <g transform="translate(190.199094 303.028562) scale(0.1 -0.1)">
       <defs>
        <path id="DejaVuSans-32" d="M 1228 531 
L 3431 531 
L 3431 0 
L 469 0 
L 469 531 
Q 828 903 1448 1529 
Q 2069 2156 2228 2338 
Q 2531 2678 2651 2914 
Q 2772 3150 2772 3378 
Q 2772 3750 2511 3984 
Q 2250 4219 1831 4219 
Q 1534 4219 1204 4116 
Q 875 4013 500 3803 
L 500 4441 
Q 881 4594 1212 4672 
Q 1544 4750 1819 4750 
Q 2544 4750 2975 4387 
Q 3406 4025 3406 3419 
Q 3406 3131 3298 2873 
Q 3191 2616 2906 2266 
Q 2828 2175 2409 1742 
Q 1991 1309 1228 531 
z
" transform="scale(0.015625)"/>
       </defs>
       <use xlink:href="#DejaVuSans-32"/>
       <use xlink:href="#DejaVuSans-30" x="63.623047"/>
      </g>
     </g>
    </g>
    <g id="xtick_6">
     <g id="line2d_6">
      <g>
       <use xlink:href="#mbe43015dc2" x="238.176212" y="288.430125" style="stroke: #000000; stroke-width: 0.8"/>
      </g>
     </g>
     <g id="text_6">
      <!-- 25 -->
      <g transform="translate(231.813712 303.028562) scale(0.1 -0.1)">
       <use xlink:href="#DejaVuSans-32"/>
       <use xlink:href="#DejaVuSans-35" x="63.623047"/>
      </g>
     </g>
    </g>
    <g id="xtick_7">
     <g id="line2d_7">
      <g>
       <use xlink:href="#mbe43015dc2" x="279.790829" y="288.430125" style="stroke: #000000; stroke-width: 0.8"/>
      </g>
     </g>
     <g id="text_7">
      <!-- 30 -->
      <g transform="translate(273.428329 303.028562) scale(0.1 -0.1)">
       <defs>
        <path id="DejaVuSans-33" d="M 2597 2516 
Q 3050 2419 3304 2112 
Q 3559 1806 3559 1356 
Q 3559 666 3084 287 
Q 2609 -91 1734 -91 
Q 1441 -91 1130 -33 
Q 819 25 488 141 
L 488 750 
Q 750 597 1062 519 
Q 1375 441 1716 441 
Q 2309 441 2620 675 
Q 2931 909 2931 1356 
Q 2931 1769 2642 2001 
Q 2353 2234 1838 2234 
L 1294 2234 
L 1294 2753 
L 1863 2753 
Q 2328 2753 2575 2939 
Q 2822 3125 2822 3475 
Q 2822 3834 2567 4026 
Q 2313 4219 1838 4219 
Q 1578 4219 1281 4162 
Q 984 4106 628 3988 
L 628 4550 
Q 988 4650 1302 4700 
Q 1616 4750 1894 4750 
Q 2613 4750 3031 4423 
Q 3450 4097 3450 3541 
Q 3450 3153 3228 2886 
Q 3006 2619 2597 2516 
z
" transform="scale(0.015625)"/>
       </defs>
       <use xlink:href="#DejaVuSans-33"/>
       <use xlink:href="#DejaVuSans-30" x="63.623047"/>
      </g>
     </g>
    </g>
    <g id="xtick_8">
     <g id="line2d_8">
      <g>
       <use xlink:href="#mbe43015dc2" x="321.405446" y="288.430125" style="stroke: #000000; stroke-width: 0.8"/>
      </g>
     </g>
     <g id="text_8">
      <!-- 35 -->
      <g transform="translate(315.042946 303.028562) scale(0.1 -0.1)">
       <use xlink:href="#DejaVuSans-33"/>
       <use xlink:href="#DejaVuSans-35" x="63.623047"/>
      </g>
     </g>
    </g>
    <g id="xtick_9">
     <g id="line2d_9">
      <g>
       <use xlink:href="#mbe43015dc2" x="363.020064" y="288.430125" style="stroke: #000000; stroke-width: 0.8"/>
      </g>
     </g>
     <g id="text_9">
      <!-- 40 -->
      <g transform="translate(356.657564 303.028562) scale(0.1 -0.1)">
       <defs>
        <path id="DejaVuSans-34" d="M 2419 4116 
L 825 1625 
L 2419 1625 
L 2419 4116 
z
M 2253 4666 
L 3047 4666 
L 3047 1625 
L 3713 1625 
L 3713 1100 
L 3047 1100 
L 3047 0 
L 2419 0 
L 2419 1100 
L 313 1100 
L 313 1709 
L 2253 4666 
z
" transform="scale(0.015625)"/>
       </defs>
       <use xlink:href="#DejaVuSans-34"/>
       <use xlink:href="#DejaVuSans-30" x="63.623047"/>
      </g>
     </g>
    </g>
   </g>
   <g id="matplotlib.axis_2">
    <g id="ytick_1">
     <g id="line2d_10">
      <defs>
       <path id="mbd71ef0ebf" d="M 0 0 
L -3.5 0 
" style="stroke: #000000; stroke-width: 0.8"/>
      </defs>
      <g>
       <use xlink:href="#mbd71ef0ebf" x="30.103125" y="276.334125" style="stroke: #000000; stroke-width: 0.8"/>
      </g>
     </g>
     <g id="text_10">
      <!-- 0.0 -->
      <g transform="translate(7.2 280.133344) scale(0.1 -0.1)">
       <defs>
        <path id="DejaVuSans-2e" d="M 684 794 
L 1344 794 
L 1344 0 
L 684 0 
L 684 794 
z
" transform="scale(0.015625)"/>
       </defs>
       <use xlink:href="#DejaVuSans-30"/>
       <use xlink:href="#DejaVuSans-2e" x="63.623047"/>
       <use xlink:href="#DejaVuSans-30" x="95.410156"/>
      </g>
     </g>
    </g>
    <g id="ytick_2">
     <g id="line2d_11">
      <g>
       <use xlink:href="#mbd71ef0ebf" x="30.103125" y="238.810998" style="stroke: #000000; stroke-width: 0.8"/>
      </g>
     </g>
     <g id="text_11">
      <!-- 0.5 -->
      <g transform="translate(7.2 242.610217) scale(0.1 -0.1)">
       <use xlink:href="#DejaVuSans-30"/>
       <use xlink:href="#DejaVuSans-2e" x="63.623047"/>
       <use xlink:href="#DejaVuSans-35" x="95.410156"/>
      </g>
     </g>
    </g>
    <g id="ytick_3">
     <g id="line2d_12">
      <g>
       <use xlink:href="#mbd71ef0ebf" x="30.103125" y="201.287871" style="stroke: #000000; stroke-width: 0.8"/>
      </g>
     </g>
     <g id="text_12">
      <!-- 1.0 -->
      <g transform="translate(7.2 205.08709) scale(0.1 -0.1)">
       <use xlink:href="#DejaVuSans-31"/>
       <use xlink:href="#DejaVuSans-2e" x="63.623047"/>
       <use xlink:href="#DejaVuSans-30" x="95.410156"/>
      </g>
     </g>
    </g>
    <g id="ytick_4">
     <g id="line2d_13">
      <g>
       <use xlink:href="#mbd71ef0ebf" x="30.103125" y="163.764744" style="stroke: #000000; stroke-width: 0.8"/>
      </g>
     </g>
     <g id="text_13">
      <!-- 1.5 -->
      <g transform="translate(7.2 167.563963) scale(0.1 -0.1)">
       <use xlink:href="#DejaVuSans-31"/>
       <use xlink:href="#DejaVuSans-2e" x="63.623047"/>
       <use xlink:href="#DejaVuSans-35" x="95.410156"/>
      </g>
     </g>
    </g>
    <g id="ytick_5">
     <g id="line2d_14">
      <g>
       <use xlink:href="#mbd71ef0ebf" x="30.103125" y="126.241617" style="stroke: #000000; stroke-width: 0.8"/>
      </g>
     </g>
     <g id="text_14">
      <!-- 2.0 -->
      <g transform="translate(7.2 130.040836) scale(0.1 -0.1)">
       <use xlink:href="#DejaVuSans-32"/>
       <use xlink:href="#DejaVuSans-2e" x="63.623047"/>
       <use xlink:href="#DejaVuSans-30" x="95.410156"/>
      </g>
     </g>
    </g>
    <g id="ytick_6">
     <g id="line2d_15">
      <g>
       <use xlink:href="#mbd71ef0ebf" x="30.103125" y="88.71849" style="stroke: #000000; stroke-width: 0.8"/>
      </g>
     </g>
     <g id="text_15">
      <!-- 2.5 -->
      <g transform="translate(7.2 92.517709) scale(0.1 -0.1)">
       <use xlink:href="#DejaVuSans-32"/>
       <use xlink:href="#DejaVuSans-2e" x="63.623047"/>
       <use xlink:href="#DejaVuSans-35" x="95.410156"/>
      </g>
     </g>
    </g>
    <g id="ytick_7">
     <g id="line2d_16">
      <g>
       <use xlink:href="#mbd71ef0ebf" x="30.103125" y="51.195364" style="stroke: #000000; stroke-width: 0.8"/>
      </g>
     </g>
     <g id="text_16">
      <!-- 3.0 -->
      <g transform="translate(7.2 54.994582) scale(0.1 -0.1)">
       <use xlink:href="#DejaVuSans-33"/>
       <use xlink:href="#DejaVuSans-2e" x="63.623047"/>
       <use xlink:href="#DejaVuSans-30" x="95.410156"/>
      </g>
     </g>
    </g>
   </g>
   <g id="line2d_17">
    <path d="M 30.103125 276.334125 
L 31.060551 276.334125 
L 32.017978 34.545961 
L 32.975404 41.195703 
L 33.93283 44.403889 
L 34.890256 45.346836 
L 35.847683 44.369614 
L 36.805109 41.338155 
L 37.762535 34.786909 
L 38.719961 276.334125 
L 41.59224 276.334125 
L 42.549667 35.085556 
L 43.507093 41.636907 
L 44.464519 44.520947 
L 45.421945 45.414022 
L 46.379372 44.482667 
L 47.336798 41.417812 
L 48.294224 34.723287 
L 49.25165 276.334125 
L 52.123929 276.334125 
L 53.081356 34.609795 
L 54.038782 41.323466 
L 54.996208 44.322003 
L 55.953634 45.335616 
L 56.911061 44.354626 
L 57.868487 41.12047 
L 58.825913 34.583669 
L 59.783339 276.334125 
L 62.655618 276.334125 
L 63.613045 34.605572 
L 64.570471 41.273387 
L 65.527897 44.14329 
L 66.485323 45.079002 
L 67.44275 44.323737 
L 68.400176 41.166223 
L 69.357602 34.616686 
L 70.315028 276.334125 
L 73.187307 276.334125 
L 74.144734 35.029175 
L 75.10216 41.592087 
L 76.059586 44.505879 
L 77.017012 45.55123 
L 77.974439 44.643277 
L 78.931865 41.49039 
L 79.889291 34.919759 
L 80.846717 276.334125 
L 83.718996 276.334125 
L 84.676423 34.802278 
L 85.633849 41.37339 
L 86.591275 44.393546 
L 87.548701 45.142537 
L 88.506128 44.158936 
L 89.463554 41.322942 
L 90.42098 34.862698 
L 91.378407 276.334125 
L 94.250685 276.334125 
L 95.208112 34.952089 
L 96.165538 41.49718 
L 97.122964 44.583724 
L 98.08039 45.628388 
L 99.037817 44.679757 
L 99.995243 41.596014 
L 100.952669 34.982409 
L 101.910096 276.334125 
L 104.782374 276.334125 
L 105.739801 35.059468 
L 106.697227 41.642769 
L 107.654653 44.596137 
L 108.612079 45.491032 
L 109.569506 44.454445 
L 110.526932 41.351628 
L 111.484358 34.658535 
L 112.441785 276.334125 
L 115.314063 276.334125 
L 116.27149 35.005243 
L 117.228916 41.438091 
L 118.186342 44.223529 
L 119.143768 45.27845 
L 120.101195 44.324148 
L 121.058621 41.371577 
L 122.016047 34.705444 
L 122.973474 276.334125 
L 125.845752 276.334125 
L 126.803179 34.683041 
L 127.760605 41.30728 
L 128.718031 44.117189 
L 129.675457 45.000628 
L 130.632884 44.237333 
L 131.59031 41.069502 
L 132.547736 34.463186 
L 133.505163 276.334125 
L 136.377441 276.334125 
L 137.334868 34.724124 
L 138.292294 41.269224 
L 139.24972 44.319771 
L 140.207146 45.298192 
L 141.164573 44.371078 
L 142.121999 41.541013 
L 143.079425 34.965555 
L 144.036852 276.334125 
L 146.90913 276.334125 
L 147.866557 34.81836 
L 148.823983 41.385011 
L 149.781409 44.507387 
L 150.738835 45.303354 
L 151.696262 44.201867 
L 152.653688 41.347337 
L 153.611114 34.708301 
L 154.568541 276.334125 
L 157.440819 276.334125 
L 158.398246 34.802751 
L 159.355672 41.424124 
L 160.313098 44.391351 
L 161.270524 45.277781 
L 162.227951 44.313411 
L 163.185377 41.341888 
L 164.142803 34.72056 
L 165.10023 276.334125 
L 167.972508 276.334125 
L 168.929935 34.784993 
L 169.887361 41.296313 
L 170.844787 44.444586 
L 171.802213 45.562141 
L 172.75964 44.505948 
L 173.717066 41.649889 
L 174.674492 34.979265 
L 175.631919 276.334125 
L 178.504197 276.334125 
L 179.461624 35.011189 
L 180.41905 41.452397 
L 181.376476 44.530454 
L 182.333902 45.335554 
L 183.291329 44.422523 
L 184.248755 41.45313 
L 185.206181 34.858992 
L 186.163608 276.334125 
L 189.035886 276.334125 
L 189.993313 34.685942 
L 190.950739 41.058685 
L 191.908165 44.346339 
L 192.865591 45.241539 
L 193.823018 44.203062 
L 194.780444 41.330743 
L 195.73787 34.714553 
L 196.695297 276.334125 
L 199.567575 276.334125 
L 200.525002 34.730935 
L 201.482428 41.331122 
L 202.439854 44.335292 
L 203.39728 45.278882 
L 204.354707 44.328383 
L 205.312133 41.286234 
L 206.269559 34.782811 
L 207.226986 276.334125 
L 210.099264 276.334125 
L 211.056691 34.830019 
L 212.014117 41.532981 
L 212.971543 44.453039 
L 213.92897 45.403594 
L 214.886396 44.512708 
L 215.843822 41.491769 
L 216.801248 34.880948 
L 217.758675 276.334125 
L 220.630953 276.334125 
L 221.58838 35.010169 
L 222.545806 41.707075 
L 223.503232 44.660198 
L 224.460659 45.518773 
L 225.418085 44.584643 
L 226.375511 41.54904 
L 227.332937 34.814609 
L 228.290364 276.334125 
L 231.162642 276.334125 
L 232.120069 34.876499 
L 233.077495 41.425644 
L 234.034921 44.255899 
L 234.992348 45.10336 
L 235.949774 44.057452 
L 236.9072 41.320124 
L 237.864626 34.569351 
L 238.822053 276.334125 
L 241.694331 276.334125 
L 242.651758 34.822082 
L 243.609184 41.349766 
L 244.56661 44.329659 
L 245.524037 45.194073 
L 246.481463 44.310546 
L 247.438889 41.322389 
L 248.396315 34.614866 
L 249.353742 276.334125 
L 252.22602 276.334125 
L 253.183447 34.738098 
L 254.140873 41.319834 
L 255.098299 44.325217 
L 256.055726 45.336053 
L 257.013152 44.41789 
L 257.970578 41.3013 
L 258.928004 34.822489 
L 259.885431 276.334125 
L 262.757709 276.334125 
L 263.715136 34.776389 
L 264.672562 41.313784 
L 265.629988 44.289388 
L 266.587415 45.211987 
L 267.544841 44.345298 
L 268.502267 41.342062 
L 269.459693 34.910478 
L 270.41712 276.334125 
L 273.289398 276.334125 
L 274.246825 34.823556 
L 275.204251 41.35443 
L 276.161677 44.434753 
L 277.119104 45.506812 
L 278.07653 44.735741 
L 279.033956 41.781076 
L 279.991382 34.981443 
L 280.948809 276.334125 
L 283.821087 276.334125 
L 284.778514 34.917951 
L 285.73594 41.308555 
L 286.693366 44.297777 
L 287.650793 45.24746 
L 288.608219 44.347954 
L 289.565645 41.514879 
L 290.523071 34.81191 
L 291.480498 276.334125 
L 294.352776 276.334125 
L 295.310203 34.767729 
L 296.267629 41.412154 
L 297.225055 44.442614 
L 298.182482 45.305798 
L 299.139908 44.390921 
L 300.097334 41.512703 
L 301.05476 34.90396 
L 302.012187 276.334125 
L 304.884465 276.334125 
L 305.841892 34.705869 
L 306.799318 41.384032 
L 307.756744 44.569123 
L 308.714171 45.298446 
L 309.671597 44.366405 
L 310.629023 41.27297 
L 311.586449 34.542296 
L 312.543876 276.334125 
L 315.416154 276.334125 
L 316.373581 34.414125 
L 317.331007 40.993645 
L 318.288433 44.071827 
L 319.24586 45.052608 
L 320.203286 44.203445 
L 321.160712 41.279999 
L 322.118138 34.755174 
L 323.075565 276.334125 
L 325.947843 276.334125 
L 326.90527 34.833023 
L 327.862696 41.406736 
L 328.820122 44.368894 
L 329.777549 45.386458 
L 330.734975 44.216104 
L 331.692401 41.321192 
L 332.649827 34.683229 
L 333.607254 276.334125 
L 336.479533 276.334125 
L 337.436959 34.665508 
L 338.394385 41.210609 
L 339.351811 44.223498 
L 340.309238 45.16963 
L 341.266664 44.429868 
L 342.22409 41.196051 
L 343.181516 34.777808 
L 344.138943 276.334125 
L 347.011222 276.334125 
L 347.968648 34.835567 
L 348.926074 41.306722 
L 349.8835 44.284237 
L 350.840927 45.345935 
L 351.798353 44.307572 
L 352.755779 41.360648 
L 353.713205 34.725731 
L 354.670632 276.334125 
L 357.542911 276.334125 
L 358.500337 34.868493 
L 359.457763 41.411861 
L 360.415189 44.486194 
L 361.372616 45.319275 
L 362.330042 44.258654 
L 363.287468 41.423862 
L 364.244894 34.820978 
L 365.202321 276.334125 
L 368.0746 276.334125 
L 369.032026 34.594488 
L 369.989452 41.198435 
L 370.946878 44.288486 
L 371.904305 45.289902 
L 372.861731 44.41447 
L 373.819157 41.317057 
L 374.776583 34.588771 
L 375.73401 276.334125 
L 378.606289 276.334125 
L 379.563715 34.716045 
L 380.521141 41.321344 
L 381.478567 44.393864 
L 382.435994 45.382998 
L 383.39342 44.48297 
L 384.350846 41.467535 
L 385.308272 35.051855 
L 386.265699 276.334125 
L 387.223125 276.334125 
L 387.223125 276.334125 
" clip-path="url(#p2da3e11a9b)" style="fill: none; stroke: #1f77b4; stroke-width: 1.5; stroke-linecap: square"/>
   </g>
   <g id="patch_3">
    <path d="M 30.103125 288.430125 
L 30.103125 22.318125 
" style="fill: none; stroke: #000000; stroke-width: 0.8; stroke-linejoin: miter; stroke-linecap: square"/>
   </g>
   <g id="patch_4">
    <path d="M 387.223125 288.430125 
L 387.223125 22.318125 
" style="fill: none; stroke: #000000; stroke-width: 0.8; stroke-linejoin: miter; stroke-linecap: square"/>
   </g>
   <g id="patch_5">
    <path d="M 30.103125 288.430125 
L 387.223125 288.430125 
" style="fill: none; stroke: #000000; stroke-width: 0.8; stroke-linejoin: miter; stroke-linecap: square"/>
   </g>
   <g id="patch_6">
    <path d="M 30.103125 22.318125 
L 387.223125 22.318125 
" style="fill: none; stroke: #000000; stroke-width: 0.8; stroke-linejoin: miter; stroke-linecap: square"/>
   </g>
   <g id="text_17">
    <!-- Fission Density -->
    <g transform="translate(163.87125 16.318125) scale(0.12 -0.12)">
     <defs>
      <path id="DejaVuSans-46" d="M 628 4666 
L 3309 4666 
L 3309 4134 
L 1259 4134 
L 1259 2759 
L 3109 2759 
L 3109 2228 
L 1259 2228 
L 1259 0 
L 628 0 
L 628 4666 
z
" transform="scale(0.015625)"/>
      <path id="DejaVuSans-69" d="M 603 3500 
L 1178 3500 
L 1178 0 
L 603 0 
L 603 3500 
z
M 603 4863 
L 1178 4863 
L 1178 4134 
L 603 4134 
L 603 4863 
z
" transform="scale(0.015625)"/>
      <path id="DejaVuSans-73" d="M 2834 3397 
L 2834 2853 
Q 2591 2978 2328 3040 
Q 2066 3103 1784 3103 
Q 1356 3103 1142 2972 
Q 928 2841 928 2578 
Q 928 2378 1081 2264 
Q 1234 2150 1697 2047 
L 1894 2003 
Q 2506 1872 2764 1633 
Q 3022 1394 3022 966 
Q 3022 478 2636 193 
Q 2250 -91 1575 -91 
Q 1294 -91 989 -36 
Q 684 19 347 128 
L 347 722 
Q 666 556 975 473 
Q 1284 391 1588 391 
Q 1994 391 2212 530 
Q 2431 669 2431 922 
Q 2431 1156 2273 1281 
Q 2116 1406 1581 1522 
L 1381 1569 
Q 847 1681 609 1914 
Q 372 2147 372 2553 
Q 372 3047 722 3315 
Q 1072 3584 1716 3584 
Q 2034 3584 2315 3537 
Q 2597 3491 2834 3397 
z
" transform="scale(0.015625)"/>
      <path id="DejaVuSans-6f" d="M 1959 3097 
Q 1497 3097 1228 2736 
Q 959 2375 959 1747 
Q 959 1119 1226 758 
Q 1494 397 1959 397 
Q 2419 397 2687 759 
Q 2956 1122 2956 1747 
Q 2956 2369 2687 2733 
Q 2419 3097 1959 3097 
z
M 1959 3584 
Q 2709 3584 3137 3096 
Q 3566 2609 3566 1747 
Q 3566 888 3137 398 
Q 2709 -91 1959 -91 
Q 1206 -91 779 398 
Q 353 888 353 1747 
Q 353 2609 779 3096 
Q 1206 3584 1959 3584 
z
" transform="scale(0.015625)"/>
      <path id="DejaVuSans-6e" d="M 3513 2113 
L 3513 0 
L 2938 0 
L 2938 2094 
Q 2938 2591 2744 2837 
Q 2550 3084 2163 3084 
Q 1697 3084 1428 2787 
Q 1159 2491 1159 1978 
L 1159 0 
L 581 0 
L 581 3500 
L 1159 3500 
L 1159 2956 
Q 1366 3272 1645 3428 
Q 1925 3584 2291 3584 
Q 2894 3584 3203 3211 
Q 3513 2838 3513 2113 
z
" transform="scale(0.015625)"/>
      <path id="DejaVuSans-20" transform="scale(0.015625)"/>
      <path id="DejaVuSans-44" d="M 1259 4147 
L 1259 519 
L 2022 519 
Q 2988 519 3436 956 
Q 3884 1394 3884 2338 
Q 3884 3275 3436 3711 
Q 2988 4147 2022 4147 
L 1259 4147 
z
M 628 4666 
L 1925 4666 
Q 3281 4666 3915 4102 
Q 4550 3538 4550 2338 
Q 4550 1131 3912 565 
Q 3275 0 1925 0 
L 628 0 
L 628 4666 
z
" transform="scale(0.015625)"/>
      <path id="DejaVuSans-65" d="M 3597 1894 
L 3597 1613 
L 953 1613 
Q 991 1019 1311 708 
Q 1631 397 2203 397 
Q 2534 397 2845 478 
Q 3156 559 3463 722 
L 3463 178 
Q 3153 47 2828 -22 
Q 2503 -91 2169 -91 
Q 1331 -91 842 396 
Q 353 884 353 1716 
Q 353 2575 817 3079 
Q 1281 3584 2069 3584 
Q 2775 3584 3186 3129 
Q 3597 2675 3597 1894 
z
M 3022 2063 
Q 3016 2534 2758 2815 
Q 2500 3097 2075 3097 
Q 1594 3097 1305 2825 
Q 1016 2553 972 2059 
L 3022 2063 
z
" transform="scale(0.015625)"/>
      <path id="DejaVuSans-74" d="M 1172 4494 
L 1172 3500 
L 2356 3500 
L 2356 3053 
L 1172 3053 
L 1172 1153 
Q 1172 725 1289 603 
Q 1406 481 1766 481 
L 2356 481 
L 2356 0 
L 1766 0 
Q 1100 0 847 248 
Q 594 497 594 1153 
L 594 3053 
L 172 3053 
L 172 3500 
L 594 3500 
L 594 4494 
L 1172 4494 
z
" transform="scale(0.015625)"/>
      <path id="DejaVuSans-79" d="M 2059 -325 
Q 1816 -950 1584 -1140 
Q 1353 -1331 966 -1331 
L 506 -1331 
L 506 -850 
L 844 -850 
Q 1081 -850 1212 -737 
Q 1344 -625 1503 -206 
L 1606 56 
L 191 3500 
L 800 3500 
L 1894 763 
L 2988 3500 
L 3597 3500 
L 2059 -325 
z
" transform="scale(0.015625)"/>
     </defs>
     <use xlink:href="#DejaVuSans-46"/>
     <use xlink:href="#DejaVuSans-69" x="50.269531"/>
     <use xlink:href="#DejaVuSans-73" x="78.052734"/>
     <use xlink:href="#DejaVuSans-73" x="130.152344"/>
     <use xlink:href="#DejaVuSans-69" x="182.251953"/>
     <use xlink:href="#DejaVuSans-6f" x="210.035156"/>
     <use xlink:href="#DejaVuSans-6e" x="271.216797"/>
     <use xlink:href="#DejaVuSans-20" x="334.595703"/>
     <use xlink:href="#DejaVuSans-44" x="366.382812"/>
     <use xlink:href="#DejaVuSans-65" x="443.384766"/>
     <use xlink:href="#DejaVuSans-6e" x="504.908203"/>
     <use xlink:href="#DejaVuSans-73" x="568.287109"/>
     <use xlink:href="#DejaVuSans-69" x="620.386719"/>
     <use xlink:href="#DejaVuSans-74" x="648.169922"/>
     <use xlink:href="#DejaVuSans-79" x="687.378906"/>
    </g>
   </g>
  </g>
 </g>
 <defs>
  <clipPath id="p2da3e11a9b">
   <rect x="30.103125" y="22.318125" width="357.12" height="266.112"/>
  </clipPath>
 </defs>
</svg>
