<?xml version="1.0" encoding="utf-8" standalone="no"?>
<!DOCTYPE svg PUBLIC "-//W3C//DTD SVG 1.1//EN"
  "http://www.w3.org/Graphics/SVG/1.1/DTD/svg11.dtd">
<svg xmlns:xlink="http://www.w3.org/1999/xlink" width="410.329375pt" height="312.30825pt" viewBox="0 0 410.329375 312.30825" xmlns="http://www.w3.org/2000/svg" version="1.1">
 <metadata>
  <rdf:RDF xmlns:dc="http://purl.org/dc/elements/1.1/" xmlns:cc="http://creativecommons.org/ns#" xmlns:rdf="http://www.w3.org/1999/02/22-rdf-syntax-ns#">
   <cc:Work>
    <dc:type rdf:resource="http://purl.org/dc/dcmitype/StillImage"/>
    <dc:date>2024-03-22T10:08:29.271096</dc:date>
    <dc:format>image/svg+xml</dc:format>
    <dc:creator>
     <cc:Agent>
      <dc:title>Matplotlib v3.8.3, https://matplotlib.org/</dc:title>
     </cc:Agent>
    </dc:creator>
   </cc:Work>
  </rdf:RDF>
 </metadata>
 <defs>
  <style type="text/css">*{stroke-linejoin: round; stroke-linecap: butt}</style>
 </defs>
 <g id="figure_1">
  <g id="patch_1">
   <path d="M 0 312.30825 
L 410.329375 312.30825 
L 410.329375 0 
L 0 0 
z
" style="fill: #ffffff"/>
  </g>
  <g id="axes_1">
   <g id="patch_2">
    <path d="M 36.465625 288.430125 
L 393.585625 288.430125 
L 393.585625 22.318125 
L 36.465625 22.318125 
z
" style="fill: #ffffff"/>
   </g>
   <g id="matplotlib.axis_1">
    <g id="xtick_1">
     <g id="line2d_1">
      <defs>
       <path id="m7f76361a7f" d="M 0 0 
L 0 3.5 
" style="stroke: #000000; stroke-width: 0.8"/>
      </defs>
      <g>
       <use xlink:href="#m7f76361a7f" x="36.465625" y="288.430125" style="stroke: #000000; stroke-width: 0.8"/>
      </g>
     </g>
     <g id="text_1">
      <!-- 0 -->
      <g transform="translate(33.284375 303.028562) scale(0.1 -0.1)">
       <defs>
        <path id="DejaVuSans-30" d="M 2034 4250 
Q 1547 4250 1301 3770 
Q 1056 3291 1056 2328 
Q 1056 1369 1301 889 
Q 1547 409 2034 409 
Q 2525 409 2770 889 
Q 3016 1369 3016 2328 
Q 3016 3291 2770 3770 
Q 2525 4250 2034 4250 
z
M 2034 4750 
Q 2819 4750 3233 4129 
Q 3647 3509 3647 2328 
Q 3647 1150 3233 529 
Q 2819 -91 2034 -91 
Q 1250 -91 836 529 
Q 422 1150 422 2328 
Q 422 3509 836 4129 
Q 1250 4750 2034 4750 
z
" transform="scale(0.015625)"/>
       </defs>
       <use xlink:href="#DejaVuSans-30"/>
      </g>
     </g>
    </g>
    <g id="xtick_2">
     <g id="line2d_2">
      <g>
       <use xlink:href="#m7f76361a7f" x="107.889625" y="288.430125" style="stroke: #000000; stroke-width: 0.8"/>
      </g>
     </g>
     <g id="text_2">
      <!-- 20 -->
      <g transform="translate(101.527125 303.028562) scale(0.1 -0.1)">
       <defs>
        <path id="DejaVuSans-32" d="M 1228 531 
L 3431 531 
L 3431 0 
L 469 0 
L 469 531 
Q 828 903 1448 1529 
Q 2069 2156 2228 2338 
Q 2531 2678 2651 2914 
Q 2772 3150 2772 3378 
Q 2772 3750 2511 3984 
Q 2250 4219 1831 4219 
Q 1534 4219 1204 4116 
Q 875 4013 500 3803 
L 500 4441 
Q 881 4594 1212 4672 
Q 1544 4750 1819 4750 
Q 2544 4750 2975 4387 
Q 3406 4025 3406 3419 
Q 3406 3131 3298 2873 
Q 3191 2616 2906 2266 
Q 2828 2175 2409 1742 
Q 1991 1309 1228 531 
z
" transform="scale(0.015625)"/>
       </defs>
       <use xlink:href="#DejaVuSans-32"/>
       <use xlink:href="#DejaVuSans-30" x="63.623047"/>
      </g>
     </g>
    </g>
    <g id="xtick_3">
     <g id="line2d_3">
      <g>
       <use xlink:href="#m7f76361a7f" x="179.313625" y="288.430125" style="stroke: #000000; stroke-width: 0.8"/>
      </g>
     </g>
     <g id="text_3">
      <!-- 40 -->
      <g transform="translate(172.951125 303.028562) scale(0.1 -0.1)">
       <defs>
        <path id="DejaVuSans-34" d="M 2419 4116 
L 825 1625 
L 2419 1625 
L 2419 4116 
z
M 2253 4666 
L 3047 4666 
L 3047 1625 
L 3713 1625 
L 3713 1100 
L 3047 1100 
L 3047 0 
L 2419 0 
L 2419 1100 
L 313 1100 
L 313 1709 
L 2253 4666 
z
" transform="scale(0.015625)"/>
       </defs>
       <use xlink:href="#DejaVuSans-34"/>
       <use xlink:href="#DejaVuSans-30" x="63.623047"/>
      </g>
     </g>
    </g>
    <g id="xtick_4">
     <g id="line2d_4">
      <g>
       <use xlink:href="#m7f76361a7f" x="250.737625" y="288.430125" style="stroke: #000000; stroke-width: 0.8"/>
      </g>
     </g>
     <g id="text_4">
      <!-- 60 -->
      <g transform="translate(244.375125 303.028562) scale(0.1 -0.1)">
       <defs>
        <path id="DejaVuSans-36" d="M 2113 2584 
Q 1688 2584 1439 2293 
Q 1191 2003 1191 1497 
Q 1191 994 1439 701 
Q 1688 409 2113 409 
Q 2538 409 2786 701 
Q 3034 994 3034 1497 
Q 3034 2003 2786 2293 
Q 2538 2584 2113 2584 
z
M 3366 4563 
L 3366 3988 
Q 3128 4100 2886 4159 
Q 2644 4219 2406 4219 
Q 1781 4219 1451 3797 
Q 1122 3375 1075 2522 
Q 1259 2794 1537 2939 
Q 1816 3084 2150 3084 
Q 2853 3084 3261 2657 
Q 3669 2231 3669 1497 
Q 3669 778 3244 343 
Q 2819 -91 2113 -91 
Q 1303 -91 875 529 
Q 447 1150 447 2328 
Q 447 3434 972 4092 
Q 1497 4750 2381 4750 
Q 2619 4750 2861 4703 
Q 3103 4656 3366 4563 
z
" transform="scale(0.015625)"/>
       </defs>
       <use xlink:href="#DejaVuSans-36"/>
       <use xlink:href="#DejaVuSans-30" x="63.623047"/>
      </g>
     </g>
    </g>
    <g id="xtick_5">
     <g id="line2d_5">
      <g>
       <use xlink:href="#m7f76361a7f" x="322.161625" y="288.430125" style="stroke: #000000; stroke-width: 0.8"/>
      </g>
     </g>
     <g id="text_5">
      <!-- 80 -->
      <g transform="translate(315.799125 303.028562) scale(0.1 -0.1)">
       <defs>
        <path id="DejaVuSans-38" d="M 2034 2216 
Q 1584 2216 1326 1975 
Q 1069 1734 1069 1313 
Q 1069 891 1326 650 
Q 1584 409 2034 409 
Q 2484 409 2743 651 
Q 3003 894 3003 1313 
Q 3003 1734 2745 1975 
Q 2488 2216 2034 2216 
z
M 1403 2484 
Q 997 2584 770 2862 
Q 544 3141 544 3541 
Q 544 4100 942 4425 
Q 1341 4750 2034 4750 
Q 2731 4750 3128 4425 
Q 3525 4100 3525 3541 
Q 3525 3141 3298 2862 
Q 3072 2584 2669 2484 
Q 3125 2378 3379 2068 
Q 3634 1759 3634 1313 
Q 3634 634 3220 271 
Q 2806 -91 2034 -91 
Q 1263 -91 848 271 
Q 434 634 434 1313 
Q 434 1759 690 2068 
Q 947 2378 1403 2484 
z
M 1172 3481 
Q 1172 3119 1398 2916 
Q 1625 2713 2034 2713 
Q 2441 2713 2670 2916 
Q 2900 3119 2900 3481 
Q 2900 3844 2670 4047 
Q 2441 4250 2034 4250 
Q 1625 4250 1398 4047 
Q 1172 3844 1172 3481 
z
" transform="scale(0.015625)"/>
       </defs>
       <use xlink:href="#DejaVuSans-38"/>
       <use xlink:href="#DejaVuSans-30" x="63.623047"/>
      </g>
     </g>
    </g>
    <g id="xtick_6">
     <g id="line2d_6">
      <g>
       <use xlink:href="#m7f76361a7f" x="393.585625" y="288.430125" style="stroke: #000000; stroke-width: 0.8"/>
      </g>
     </g>
     <g id="text_6">
      <!-- 100 -->
      <g transform="translate(384.041875 303.028562) scale(0.1 -0.1)">
       <defs>
        <path id="DejaVuSans-31" d="M 794 531 
L 1825 531 
L 1825 4091 
L 703 3866 
L 703 4441 
L 1819 4666 
L 2450 4666 
L 2450 531 
L 3481 531 
L 3481 0 
L 794 0 
L 794 531 
z
" transform="scale(0.015625)"/>
       </defs>
       <use xlink:href="#DejaVuSans-31"/>
       <use xlink:href="#DejaVuSans-30" x="63.623047"/>
       <use xlink:href="#DejaVuSans-30" x="127.246094"/>
      </g>
     </g>
    </g>
   </g>
   <g id="matplotlib.axis_2">
    <g id="ytick_1">
     <g id="line2d_7">
      <defs>
       <path id="ma08be2fc1d" d="M 0 0 
L -3.5 0 
" style="stroke: #000000; stroke-width: 0.8"/>
      </defs>
      <g>
       <use xlink:href="#ma08be2fc1d" x="36.465625" y="288.430125" style="stroke: #000000; stroke-width: 0.8"/>
      </g>
     </g>
     <g id="text_7">
      <!-- 0.00 -->
      <g transform="translate(7.2 292.229344) scale(0.1 -0.1)">
       <defs>
        <path id="DejaVuSans-2e" d="M 684 794 
L 1344 794 
L 1344 0 
L 684 0 
L 684 794 
z
" transform="scale(0.015625)"/>
       </defs>
       <use xlink:href="#DejaVuSans-30"/>
       <use xlink:href="#DejaVuSans-2e" x="63.623047"/>
       <use xlink:href="#DejaVuSans-30" x="95.410156"/>
       <use xlink:href="#DejaVuSans-30" x="159.033203"/>
      </g>
     </g>
    </g>
    <g id="ytick_2">
     <g id="line2d_8">
      <g>
       <use xlink:href="#ma08be2fc1d" x="36.465625" y="255.166125" style="stroke: #000000; stroke-width: 0.8"/>
      </g>
     </g>
     <g id="text_8">
      <!-- 0.25 -->
      <g transform="translate(7.2 258.965344) scale(0.1 -0.1)">
       <defs>
        <path id="DejaVuSans-35" d="M 691 4666 
L 3169 4666 
L 3169 4134 
L 1269 4134 
L 1269 2991 
Q 1406 3038 1543 3061 
Q 1681 3084 1819 3084 
Q 2600 3084 3056 2656 
Q 3513 2228 3513 1497 
Q 3513 744 3044 326 
Q 2575 -91 1722 -91 
Q 1428 -91 1123 -41 
Q 819 9 494 109 
L 494 744 
Q 775 591 1075 516 
Q 1375 441 1709 441 
Q 2250 441 2565 725 
Q 2881 1009 2881 1497 
Q 2881 1984 2565 2268 
Q 2250 2553 1709 2553 
Q 1456 2553 1204 2497 
Q 953 2441 691 2322 
L 691 4666 
z
" transform="scale(0.015625)"/>
       </defs>
       <use xlink:href="#DejaVuSans-30"/>
       <use xlink:href="#DejaVuSans-2e" x="63.623047"/>
       <use xlink:href="#DejaVuSans-32" x="95.410156"/>
       <use xlink:href="#DejaVuSans-35" x="159.033203"/>
      </g>
     </g>
    </g>
    <g id="ytick_3">
     <g id="line2d_9">
      <g>
       <use xlink:href="#ma08be2fc1d" x="36.465625" y="221.902125" style="stroke: #000000; stroke-width: 0.8"/>
      </g>
     </g>
     <g id="text_9">
      <!-- 0.50 -->
      <g transform="translate(7.2 225.701344) scale(0.1 -0.1)">
       <use xlink:href="#DejaVuSans-30"/>
       <use xlink:href="#DejaVuSans-2e" x="63.623047"/>
       <use xlink:href="#DejaVuSans-35" x="95.410156"/>
       <use xlink:href="#DejaVuSans-30" x="159.033203"/>
      </g>
     </g>
    </g>
    <g id="ytick_4">
     <g id="line2d_10">
      <g>
       <use xlink:href="#ma08be2fc1d" x="36.465625" y="188.638125" style="stroke: #000000; stroke-width: 0.8"/>
      </g>
     </g>
     <g id="text_10">
      <!-- 0.75 -->
      <g transform="translate(7.2 192.437344) scale(0.1 -0.1)">
       <defs>
        <path id="DejaVuSans-37" d="M 525 4666 
L 3525 4666 
L 3525 4397 
L 1831 0 
L 1172 0 
L 2766 4134 
L 525 4134 
L 525 4666 
z
" transform="scale(0.015625)"/>
       </defs>
       <use xlink:href="#DejaVuSans-30"/>
       <use xlink:href="#DejaVuSans-2e" x="63.623047"/>
       <use xlink:href="#DejaVuSans-37" x="95.410156"/>
       <use xlink:href="#DejaVuSans-35" x="159.033203"/>
      </g>
     </g>
    </g>
    <g id="ytick_5">
     <g id="line2d_11">
      <g>
       <use xlink:href="#ma08be2fc1d" x="36.465625" y="155.374125" style="stroke: #000000; stroke-width: 0.8"/>
      </g>
     </g>
     <g id="text_11">
      <!-- 1.00 -->
      <g transform="translate(7.2 159.173344) scale(0.1 -0.1)">
       <use xlink:href="#DejaVuSans-31"/>
       <use xlink:href="#DejaVuSans-2e" x="63.623047"/>
       <use xlink:href="#DejaVuSans-30" x="95.410156"/>
       <use xlink:href="#DejaVuSans-30" x="159.033203"/>
      </g>
     </g>
    </g>
    <g id="ytick_6">
     <g id="line2d_12">
      <g>
       <use xlink:href="#ma08be2fc1d" x="36.465625" y="122.110125" style="stroke: #000000; stroke-width: 0.8"/>
      </g>
     </g>
     <g id="text_12">
      <!-- 1.25 -->
      <g transform="translate(7.2 125.909344) scale(0.1 -0.1)">
       <use xlink:href="#DejaVuSans-31"/>
       <use xlink:href="#DejaVuSans-2e" x="63.623047"/>
       <use xlink:href="#DejaVuSans-32" x="95.410156"/>
       <use xlink:href="#DejaVuSans-35" x="159.033203"/>
      </g>
     </g>
    </g>
    <g id="ytick_7">
     <g id="line2d_13">
      <g>
       <use xlink:href="#ma08be2fc1d" x="36.465625" y="88.846125" style="stroke: #000000; stroke-width: 0.8"/>
      </g>
     </g>
     <g id="text_13">
      <!-- 1.50 -->
      <g transform="translate(7.2 92.645344) scale(0.1 -0.1)">
       <use xlink:href="#DejaVuSans-31"/>
       <use xlink:href="#DejaVuSans-2e" x="63.623047"/>
       <use xlink:href="#DejaVuSans-35" x="95.410156"/>
       <use xlink:href="#DejaVuSans-30" x="159.033203"/>
      </g>
     </g>
    </g>
    <g id="ytick_8">
     <g id="line2d_14">
      <g>
       <use xlink:href="#ma08be2fc1d" x="36.465625" y="55.582125" style="stroke: #000000; stroke-width: 0.8"/>
      </g>
     </g>
     <g id="text_14">
      <!-- 1.75 -->
      <g transform="translate(7.2 59.381344) scale(0.1 -0.1)">
       <use xlink:href="#DejaVuSans-31"/>
       <use xlink:href="#DejaVuSans-2e" x="63.623047"/>
       <use xlink:href="#DejaVuSans-37" x="95.410156"/>
       <use xlink:href="#DejaVuSans-35" x="159.033203"/>
      </g>
     </g>
    </g>
    <g id="ytick_9">
     <g id="line2d_15">
      <g>
       <use xlink:href="#ma08be2fc1d" x="36.465625" y="22.318125" style="stroke: #000000; stroke-width: 0.8"/>
      </g>
     </g>
     <g id="text_15">
      <!-- 2.00 -->
      <g transform="translate(7.2 26.117344) scale(0.1 -0.1)">
       <use xlink:href="#DejaVuSans-32"/>
       <use xlink:href="#DejaVuSans-2e" x="63.623047"/>
       <use xlink:href="#DejaVuSans-30" x="95.410156"/>
       <use xlink:href="#DejaVuSans-30" x="159.033203"/>
      </g>
     </g>
    </g>
   </g>
   <g id="line2d_16">
    <defs>
     <path id="me05487372f" d="M 0 3 
C 0.795609 3 1.55874 2.683901 2.12132 2.12132 
C 2.683901 1.55874 3 0.795609 3 0 
C 3 -0.795609 2.683901 -1.55874 2.12132 -2.12132 
C 1.55874 -2.683901 0.795609 -3 0 -3 
C -0.795609 -3 -1.55874 -2.683901 -2.12132 -2.12132 
C -2.683901 -1.55874 -3 -0.795609 -3 0 
C -3 0.795609 -2.683901 1.55874 -2.12132 2.12132 
C -1.55874 2.683901 -0.795609 3 0 3 
z
" style="stroke: #1f77b4"/>
    </defs>
    <g clip-path="url(#p9b3cf2f313)">
     <use xlink:href="#me05487372f" x="36.465625" y="120.619163" style="fill-opacity: 0; stroke: #1f77b4"/>
     <use xlink:href="#me05487372f" x="40.036825" y="120.863232" style="fill-opacity: 0; stroke: #1f77b4"/>
     <use xlink:href="#me05487372f" x="43.608025" y="120.651869" style="fill-opacity: 0; stroke: #1f77b4"/>
     <use xlink:href="#me05487372f" x="47.179225" y="120.796554" style="fill-opacity: 0; stroke: #1f77b4"/>
     <use xlink:href="#me05487372f" x="50.750425" y="120.680746" style="fill-opacity: 0; stroke: #1f77b4"/>
     <use xlink:href="#me05487372f" x="54.321625" y="120.645124" style="fill-opacity: 0; stroke: #1f77b4"/>
     <use xlink:href="#me05487372f" x="57.892825" y="120.908034" style="fill-opacity: 0; stroke: #1f77b4"/>
     <use xlink:href="#me05487372f" x="61.464025" y="121.046098" style="fill-opacity: 0; stroke: #1f77b4"/>
     <use xlink:href="#me05487372f" x="65.035225" y="120.737747" style="fill-opacity: 0; stroke: #1f77b4"/>
     <use xlink:href="#me05487372f" x="68.606425" y="120.580637" style="fill-opacity: 0; stroke: #1f77b4"/>
     <use xlink:href="#me05487372f" x="72.177625" y="120.752609" style="fill-opacity: 0; stroke: #1f77b4"/>
     <use xlink:href="#me05487372f" x="75.748825" y="120.99234" style="fill-opacity: 0; stroke: #1f77b4"/>
     <use xlink:href="#me05487372f" x="79.320025" y="120.781158" style="fill-opacity: 0; stroke: #1f77b4"/>
     <use xlink:href="#me05487372f" x="82.891225" y="120.850404" style="fill-opacity: 0; stroke: #1f77b4"/>
     <use xlink:href="#me05487372f" x="86.462425" y="120.666587" style="fill-opacity: 0; stroke: #1f77b4"/>
     <use xlink:href="#me05487372f" x="90.033625" y="120.948941" style="fill-opacity: 0; stroke: #1f77b4"/>
     <use xlink:href="#me05487372f" x="93.604825" y="120.756955" style="fill-opacity: 0; stroke: #1f77b4"/>
     <use xlink:href="#me05487372f" x="97.176025" y="120.897606" style="fill-opacity: 0; stroke: #1f77b4"/>
     <use xlink:href="#me05487372f" x="100.747225" y="120.889011" style="fill-opacity: 0; stroke: #1f77b4"/>
     <use xlink:href="#me05487372f" x="104.318425" y="121.139469" style="fill-opacity: 0; stroke: #1f77b4"/>
     <use xlink:href="#me05487372f" x="107.889625" y="120.895657" style="fill-opacity: 0; stroke: #1f77b4"/>
     <use xlink:href="#me05487372f" x="111.460825" y="121.149121" style="fill-opacity: 0; stroke: #1f77b4"/>
     <use xlink:href="#me05487372f" x="115.032025" y="120.711729" style="fill-opacity: 0; stroke: #1f77b4"/>
     <use xlink:href="#me05487372f" x="118.603225" y="120.947847" style="fill-opacity: 0; stroke: #1f77b4"/>
     <use xlink:href="#me05487372f" x="122.174425" y="120.942733" style="fill-opacity: 0; stroke: #1f77b4"/>
     <use xlink:href="#me05487372f" x="125.745625" y="120.652511" style="fill-opacity: 0; stroke: #1f77b4"/>
     <use xlink:href="#me05487372f" x="129.316825" y="121.011888" style="fill-opacity: 0; stroke: #1f77b4"/>
     <use xlink:href="#me05487372f" x="132.888025" y="120.883405" style="fill-opacity: 0; stroke: #1f77b4"/>
     <use xlink:href="#me05487372f" x="136.459225" y="120.817752" style="fill-opacity: 0; stroke: #1f77b4"/>
     <use xlink:href="#me05487372f" x="140.030425" y="120.995081" style="fill-opacity: 0; stroke: #1f77b4"/>
     <use xlink:href="#me05487372f" x="143.601625" y="120.629159" style="fill-opacity: 0; stroke: #1f77b4"/>
     <use xlink:href="#me05487372f" x="147.172825" y="120.598171" style="fill-opacity: 0; stroke: #1f77b4"/>
     <use xlink:href="#me05487372f" x="150.744025" y="120.677806" style="fill-opacity: 0; stroke: #1f77b4"/>
     <use xlink:href="#me05487372f" x="154.315225" y="120.647776" style="fill-opacity: 0; stroke: #1f77b4"/>
     <use xlink:href="#me05487372f" x="157.886425" y="120.934443" style="fill-opacity: 0; stroke: #1f77b4"/>
     <use xlink:href="#me05487372f" x="161.457625" y="120.7383" style="fill-opacity: 0; stroke: #1f77b4"/>
     <use xlink:href="#me05487372f" x="165.028825" y="120.770483" style="fill-opacity: 0; stroke: #1f77b4"/>
     <use xlink:href="#me05487372f" x="168.600025" y="120.923132" style="fill-opacity: 0; stroke: #1f77b4"/>
     <use xlink:href="#me05487372f" x="172.171225" y="120.839292" style="fill-opacity: 0; stroke: #1f77b4"/>
     <use xlink:href="#me05487372f" x="175.742425" y="120.742501" style="fill-opacity: 0; stroke: #1f77b4"/>
     <use xlink:href="#me05487372f" x="179.313625" y="120.753295" style="fill-opacity: 0; stroke: #1f77b4"/>
     <use xlink:href="#me05487372f" x="182.884825" y="120.831149" style="fill-opacity: 0; stroke: #1f77b4"/>
     <use xlink:href="#me05487372f" x="186.456025" y="120.560581" style="fill-opacity: 0; stroke: #1f77b4"/>
     <use xlink:href="#me05487372f" x="190.027225" y="121.138741" style="fill-opacity: 0; stroke: #1f77b4"/>
     <use xlink:href="#me05487372f" x="193.598425" y="120.739987" style="fill-opacity: 0; stroke: #1f77b4"/>
     <use xlink:href="#me05487372f" x="197.169625" y="120.396249" style="fill-opacity: 0; stroke: #1f77b4"/>
     <use xlink:href="#me05487372f" x="200.740825" y="120.651797" style="fill-opacity: 0; stroke: #1f77b4"/>
     <use xlink:href="#me05487372f" x="204.312025" y="120.740828" style="fill-opacity: 0; stroke: #1f77b4"/>
     <use xlink:href="#me05487372f" x="207.883225" y="120.963316" style="fill-opacity: 0; stroke: #1f77b4"/>
     <use xlink:href="#me05487372f" x="211.454425" y="120.662158" style="fill-opacity: 0; stroke: #1f77b4"/>
     <use xlink:href="#me05487372f" x="215.025625" y="120.745588" style="fill-opacity: 0; stroke: #1f77b4"/>
     <use xlink:href="#me05487372f" x="218.596825" y="120.660794" style="fill-opacity: 0; stroke: #1f77b4"/>
     <use xlink:href="#me05487372f" x="222.168025" y="120.776016" style="fill-opacity: 0; stroke: #1f77b4"/>
     <use xlink:href="#me05487372f" x="225.739225" y="120.656751" style="fill-opacity: 0; stroke: #1f77b4"/>
     <use xlink:href="#me05487372f" x="229.310425" y="121.008089" style="fill-opacity: 0; stroke: #1f77b4"/>
     <use xlink:href="#me05487372f" x="232.881625" y="120.728884" style="fill-opacity: 0; stroke: #1f77b4"/>
     <use xlink:href="#me05487372f" x="236.452825" y="121.0236" style="fill-opacity: 0; stroke: #1f77b4"/>
     <use xlink:href="#me05487372f" x="240.024025" y="121.10539" style="fill-opacity: 0; stroke: #1f77b4"/>
     <use xlink:href="#me05487372f" x="243.595225" y="120.764601" style="fill-opacity: 0; stroke: #1f77b4"/>
     <use xlink:href="#me05487372f" x="247.166425" y="120.531437" style="fill-opacity: 0; stroke: #1f77b4"/>
     <use xlink:href="#me05487372f" x="250.737625" y="120.982171" style="fill-opacity: 0; stroke: #1f77b4"/>
     <use xlink:href="#me05487372f" x="254.308825" y="120.829983" style="fill-opacity: 0; stroke: #1f77b4"/>
     <use xlink:href="#me05487372f" x="257.880025" y="120.764886" style="fill-opacity: 0; stroke: #1f77b4"/>
     <use xlink:href="#me05487372f" x="261.451225" y="120.950492" style="fill-opacity: 0; stroke: #1f77b4"/>
     <use xlink:href="#me05487372f" x="265.022425" y="120.725199" style="fill-opacity: 0; stroke: #1f77b4"/>
     <use xlink:href="#me05487372f" x="268.593625" y="120.649274" style="fill-opacity: 0; stroke: #1f77b4"/>
     <use xlink:href="#me05487372f" x="272.164825" y="120.81989" style="fill-opacity: 0; stroke: #1f77b4"/>
     <use xlink:href="#me05487372f" x="275.736025" y="120.879678" style="fill-opacity: 0; stroke: #1f77b4"/>
     <use xlink:href="#me05487372f" x="279.307225" y="120.756101" style="fill-opacity: 0; stroke: #1f77b4"/>
     <use xlink:href="#me05487372f" x="282.878425" y="120.760546" style="fill-opacity: 0; stroke: #1f77b4"/>
     <use xlink:href="#me05487372f" x="286.449625" y="120.814271" style="fill-opacity: 0; stroke: #1f77b4"/>
     <use xlink:href="#me05487372f" x="290.020825" y="120.886326" style="fill-opacity: 0; stroke: #1f77b4"/>
     <use xlink:href="#me05487372f" x="293.592025" y="121.129711" style="fill-opacity: 0; stroke: #1f77b4"/>
     <use xlink:href="#me05487372f" x="297.163225" y="120.846651" style="fill-opacity: 0; stroke: #1f77b4"/>
     <use xlink:href="#me05487372f" x="300.734425" y="120.789833" style="fill-opacity: 0; stroke: #1f77b4"/>
     <use xlink:href="#me05487372f" x="304.305625" y="120.899462" style="fill-opacity: 0; stroke: #1f77b4"/>
     <use xlink:href="#me05487372f" x="307.876825" y="120.603629" style="fill-opacity: 0; stroke: #1f77b4"/>
     <use xlink:href="#me05487372f" x="311.448025" y="120.582273" style="fill-opacity: 0; stroke: #1f77b4"/>
     <use xlink:href="#me05487372f" x="315.019225" y="120.764562" style="fill-opacity: 0; stroke: #1f77b4"/>
     <use xlink:href="#me05487372f" x="318.590425" y="121.193963" style="fill-opacity: 0; stroke: #1f77b4"/>
     <use xlink:href="#me05487372f" x="322.161625" y="120.689812" style="fill-opacity: 0; stroke: #1f77b4"/>
     <use xlink:href="#me05487372f" x="325.732825" y="120.844402" style="fill-opacity: 0; stroke: #1f77b4"/>
     <use xlink:href="#me05487372f" x="329.304025" y="120.973321" style="fill-opacity: 0; stroke: #1f77b4"/>
     <use xlink:href="#me05487372f" x="332.875225" y="120.842842" style="fill-opacity: 0; stroke: #1f77b4"/>
     <use xlink:href="#me05487372f" x="336.446425" y="120.659772" style="fill-opacity: 0; stroke: #1f77b4"/>
     <use xlink:href="#me05487372f" x="340.017625" y="120.737992" style="fill-opacity: 0; stroke: #1f77b4"/>
     <use xlink:href="#me05487372f" x="343.588825" y="120.713958" style="fill-opacity: 0; stroke: #1f77b4"/>
     <use xlink:href="#me05487372f" x="347.160025" y="120.740535" style="fill-opacity: 0; stroke: #1f77b4"/>
     <use xlink:href="#me05487372f" x="350.731225" y="121.109465" style="fill-opacity: 0; stroke: #1f77b4"/>
     <use xlink:href="#me05487372f" x="354.302425" y="120.755657" style="fill-opacity: 0; stroke: #1f77b4"/>
     <use xlink:href="#me05487372f" x="357.873625" y="120.801647" style="fill-opacity: 0; stroke: #1f77b4"/>
     <use xlink:href="#me05487372f" x="361.444825" y="120.919002" style="fill-opacity: 0; stroke: #1f77b4"/>
     <use xlink:href="#me05487372f" x="365.016025" y="120.79101" style="fill-opacity: 0; stroke: #1f77b4"/>
     <use xlink:href="#me05487372f" x="368.587225" y="120.843482" style="fill-opacity: 0; stroke: #1f77b4"/>
     <use xlink:href="#me05487372f" x="372.158425" y="120.622238" style="fill-opacity: 0; stroke: #1f77b4"/>
     <use xlink:href="#me05487372f" x="375.729625" y="121.043864" style="fill-opacity: 0; stroke: #1f77b4"/>
     <use xlink:href="#me05487372f" x="379.300825" y="120.735219" style="fill-opacity: 0; stroke: #1f77b4"/>
     <use xlink:href="#me05487372f" x="382.872025" y="120.899469" style="fill-opacity: 0; stroke: #1f77b4"/>
     <use xlink:href="#me05487372f" x="386.443225" y="120.657164" style="fill-opacity: 0; stroke: #1f77b4"/>
     <use xlink:href="#me05487372f" x="390.014425" y="120.411007" style="fill-opacity: 0; stroke: #1f77b4"/>
    </g>
   </g>
   <g id="line2d_17">
    <path d="M 36.465625 288.430125 
L 40.036825 288.430125 
L 43.608025 288.430125 
L 47.179225 288.430125 
L 50.750425 288.430125 
L 54.321625 120.645124 
L 57.892825 120.776579 
L 61.464025 120.866419 
L 65.035225 120.834251 
L 68.606425 120.783528 
L 72.177625 120.778375 
L 75.748825 120.808941 
L 79.320025 120.805468 
L 82.891225 120.810461 
L 86.462425 120.796074 
L 90.033625 120.809971 
L 93.604825 120.805553 
L 97.176025 120.812634 
L 100.747225 120.818089 
L 104.318425 120.839515 
L 107.889625 120.843024 
L 111.460825 120.861029 
L 115.032025 120.852735 
L 118.603225 120.857741 
L 122.174425 120.86199 
L 125.745625 120.852015 
L 129.316825 120.859282 
L 132.888025 120.860331 
L 136.459225 120.858557 
L 140.030425 120.864018 
L 143.601625 120.854985 
L 147.172825 120.845473 
L 150.744025 120.839485 
L 154.315225 120.832874 
L 157.886425 120.83626 
L 161.457625 120.8331 
L 165.028825 120.831143 
L 168.600025 120.833931 
L 172.171225 120.834088 
L 175.742425 120.831472 
L 179.313625 120.8293 
L 182.884825 120.82935 
L 186.456025 120.822277 
L 190.027225 120.830392 
L 193.598425 120.828132 
L 197.169625 120.817598 
L 200.740825 120.81365 
L 204.312025 120.811957 
L 207.883225 120.815397 
L 211.454425 120.811991 
L 215.025625 120.810548 
L 218.596825 120.807361 
L 222.168025 120.806708 
L 225.739225 120.803648 
L 229.310425 120.807737 
L 232.881625 120.806191 
L 236.452825 120.810372 
L 240.024025 120.815938 
L 243.595225 120.814987 
L 247.166425 120.809832 
L 250.737625 120.812909 
L 254.308825 120.813209 
L 257.880025 120.812376 
L 261.451225 120.814717 
L 265.022425 120.813225 
L 268.593625 120.810537 
L 272.164825 120.810688 
L 275.736025 120.811783 
L 279.307225 120.810913 
L 282.878425 120.810138 
L 286.449625 120.810201 
L 290.020825 120.811337 
L 293.592025 120.816019 
L 297.163225 120.816463 
L 300.734425 120.816082 
L 304.305625 120.817257 
L 307.876825 120.81429 
L 311.448025 120.811111 
L 315.019225 120.810482 
L 318.590425 120.815595 
L 322.161625 120.81394 
L 325.732825 120.814336 
L 329.304025 120.816374 
L 332.875225 120.816709 
L 336.446425 120.814748 
L 340.017625 120.8138 
L 343.588825 120.812582 
L 347.160025 120.811714 
L 350.731225 120.815259 
L 354.302425 120.814558 
L 357.873625 120.814408 
L 361.444825 120.81561 
L 365.016025 120.81533 
L 368.587225 120.815647 
L 372.158425 120.813498 
L 375.729625 120.816029 
L 379.300825 120.815151 
L 382.872025 120.816058 
L 386.443225 120.814367 
L 390.014425 120.810121 
" clip-path="url(#p9b3cf2f313)" style="fill: none; stroke: #ffa500; stroke-width: 1.5; stroke-linecap: square"/>
   </g>
   <g id="patch_3">
    <path d="M 36.465625 288.430125 
L 36.465625 22.318125 
" style="fill: none; stroke: #000000; stroke-width: 0.8; stroke-linejoin: miter; stroke-linecap: square"/>
   </g>
   <g id="patch_4">
    <path d="M 393.585625 288.430125 
L 393.585625 22.318125 
" style="fill: none; stroke: #000000; stroke-width: 0.8; stroke-linejoin: miter; stroke-linecap: square"/>
   </g>
   <g id="patch_5">
    <path d="M 36.465625 288.430125 
L 393.585625 288.430125 
" style="fill: none; stroke: #000000; stroke-width: 0.8; stroke-linejoin: miter; stroke-linecap: square"/>
   </g>
   <g id="patch_6">
    <path d="M 36.465625 22.318125 
L 393.585625 22.318125 
" style="fill: none; stroke: #000000; stroke-width: 0.8; stroke-linejoin: miter; stroke-linecap: square"/>
   </g>
   <g id="text_16">
    <!-- Multiplication Factor -->
    <g transform="translate(154.4725 16.318125) scale(0.12 -0.12)">
     <defs>
      <path id="DejaVuSans-4d" d="M 628 4666 
L 1569 4666 
L 2759 1491 
L 3956 4666 
L 4897 4666 
L 4897 0 
L 4281 0 
L 4281 4097 
L 3078 897 
L 2444 897 
L 1241 4097 
L 1241 0 
L 628 0 
L 628 4666 
z
" transform="scale(0.015625)"/>
      <path id="DejaVuSans-75" d="M 544 1381 
L 544 3500 
L 1119 3500 
L 1119 1403 
Q 1119 906 1312 657 
Q 1506 409 1894 409 
Q 2359 409 2629 706 
Q 2900 1003 2900 1516 
L 2900 3500 
L 3475 3500 
L 3475 0 
L 2900 0 
L 2900 538 
Q 2691 219 2414 64 
Q 2138 -91 1772 -91 
Q 1169 -91 856 284 
Q 544 659 544 1381 
z
M 1991 3584 
L 1991 3584 
z
" transform="scale(0.015625)"/>
      <path id="DejaVuSans-6c" d="M 603 4863 
L 1178 4863 
L 1178 0 
L 603 0 
L 603 4863 
z
" transform="scale(0.015625)"/>
      <path id="DejaVuSans-74" d="M 1172 4494 
L 1172 3500 
L 2356 3500 
L 2356 3053 
L 1172 3053 
L 1172 1153 
Q 1172 725 1289 603 
Q 1406 481 1766 481 
L 2356 481 
L 2356 0 
L 1766 0 
Q 1100 0 847 248 
Q 594 497 594 1153 
L 594 3053 
L 172 3053 
L 172 3500 
L 594 3500 
L 594 4494 
L 1172 4494 
z
" transform="scale(0.015625)"/>
      <path id="DejaVuSans-69" d="M 603 3500 
L 1178 3500 
L 1178 0 
L 603 0 
L 603 3500 
z
M 603 4863 
L 1178 4863 
L 1178 4134 
L 603 4134 
L 603 4863 
z
" transform="scale(0.015625)"/>
      <path id="DejaVuSans-70" d="M 1159 525 
L 1159 -1331 
L 581 -1331 
L 581 3500 
L 1159 3500 
L 1159 2969 
Q 1341 3281 1617 3432 
Q 1894 3584 2278 3584 
Q 2916 3584 3314 3078 
Q 3713 2572 3713 1747 
Q 3713 922 3314 415 
Q 2916 -91 2278 -91 
Q 1894 -91 1617 61 
Q 1341 213 1159 525 
z
M 3116 1747 
Q 3116 2381 2855 2742 
Q 2594 3103 2138 3103 
Q 1681 3103 1420 2742 
Q 1159 2381 1159 1747 
Q 1159 1113 1420 752 
Q 1681 391 2138 391 
Q 2594 391 2855 752 
Q 3116 1113 3116 1747 
z
" transform="scale(0.015625)"/>
      <path id="DejaVuSans-63" d="M 3122 3366 
L 3122 2828 
Q 2878 2963 2633 3030 
Q 2388 3097 2138 3097 
Q 1578 3097 1268 2742 
Q 959 2388 959 1747 
Q 959 1106 1268 751 
Q 1578 397 2138 397 
Q 2388 397 2633 464 
Q 2878 531 3122 666 
L 3122 134 
Q 2881 22 2623 -34 
Q 2366 -91 2075 -91 
Q 1284 -91 818 406 
Q 353 903 353 1747 
Q 353 2603 823 3093 
Q 1294 3584 2113 3584 
Q 2378 3584 2631 3529 
Q 2884 3475 3122 3366 
z
" transform="scale(0.015625)"/>
      <path id="DejaVuSans-61" d="M 2194 1759 
Q 1497 1759 1228 1600 
Q 959 1441 959 1056 
Q 959 750 1161 570 
Q 1363 391 1709 391 
Q 2188 391 2477 730 
Q 2766 1069 2766 1631 
L 2766 1759 
L 2194 1759 
z
M 3341 1997 
L 3341 0 
L 2766 0 
L 2766 531 
Q 2569 213 2275 61 
Q 1981 -91 1556 -91 
Q 1019 -91 701 211 
Q 384 513 384 1019 
Q 384 1609 779 1909 
Q 1175 2209 1959 2209 
L 2766 2209 
L 2766 2266 
Q 2766 2663 2505 2880 
Q 2244 3097 1772 3097 
Q 1472 3097 1187 3025 
Q 903 2953 641 2809 
L 641 3341 
Q 956 3463 1253 3523 
Q 1550 3584 1831 3584 
Q 2591 3584 2966 3190 
Q 3341 2797 3341 1997 
z
" transform="scale(0.015625)"/>
      <path id="DejaVuSans-6f" d="M 1959 3097 
Q 1497 3097 1228 2736 
Q 959 2375 959 1747 
Q 959 1119 1226 758 
Q 1494 397 1959 397 
Q 2419 397 2687 759 
Q 2956 1122 2956 1747 
Q 2956 2369 2687 2733 
Q 2419 3097 1959 3097 
z
M 1959 3584 
Q 2709 3584 3137 3096 
Q 3566 2609 3566 1747 
Q 3566 888 3137 398 
Q 2709 -91 1959 -91 
Q 1206 -91 779 398 
Q 353 888 353 1747 
Q 353 2609 779 3096 
Q 1206 3584 1959 3584 
z
" transform="scale(0.015625)"/>
      <path id="DejaVuSans-6e" d="M 3513 2113 
L 3513 0 
L 2938 0 
L 2938 2094 
Q 2938 2591 2744 2837 
Q 2550 3084 2163 3084 
Q 1697 3084 1428 2787 
Q 1159 2491 1159 1978 
L 1159 0 
L 581 0 
L 581 3500 
L 1159 3500 
L 1159 2956 
Q 1366 3272 1645 3428 
Q 1925 3584 2291 3584 
Q 2894 3584 3203 3211 
Q 3513 2838 3513 2113 
z
" transform="scale(0.015625)"/>
      <path id="DejaVuSans-20" transform="scale(0.015625)"/>
      <path id="DejaVuSans-46" d="M 628 4666 
L 3309 4666 
L 3309 4134 
L 1259 4134 
L 1259 2759 
L 3109 2759 
L 3109 2228 
L 1259 2228 
L 1259 0 
L 628 0 
L 628 4666 
z
" transform="scale(0.015625)"/>
      <path id="DejaVuSans-72" d="M 2631 2963 
Q 2534 3019 2420 3045 
Q 2306 3072 2169 3072 
Q 1681 3072 1420 2755 
Q 1159 2438 1159 1844 
L 1159 0 
L 581 0 
L 581 3500 
L 1159 3500 
L 1159 2956 
Q 1341 3275 1631 3429 
Q 1922 3584 2338 3584 
Q 2397 3584 2469 3576 
Q 2541 3569 2628 3553 
L 2631 2963 
z
" transform="scale(0.015625)"/>
     </defs>
     <use xlink:href="#DejaVuSans-4d"/>
     <use xlink:href="#DejaVuSans-75" x="86.279297"/>
     <use xlink:href="#DejaVuSans-6c" x="149.658203"/>
     <use xlink:href="#DejaVuSans-74" x="177.441406"/>
     <use xlink:href="#DejaVuSans-69" x="216.650391"/>
     <use xlink:href="#DejaVuSans-70" x="244.433594"/>
     <use xlink:href="#DejaVuSans-6c" x="307.910156"/>
     <use xlink:href="#DejaVuSans-69" x="335.693359"/>
     <use xlink:href="#DejaVuSans-63" x="363.476562"/>
     <use xlink:href="#DejaVuSans-61" x="418.457031"/>
     <use xlink:href="#DejaVuSans-74" x="479.736328"/>
     <use xlink:href="#DejaVuSans-69" x="518.945312"/>
     <use xlink:href="#DejaVuSans-6f" x="546.728516"/>
     <use xlink:href="#DejaVuSans-6e" x="607.910156"/>
     <use xlink:href="#DejaVuSans-20" x="671.289062"/>
     <use xlink:href="#DejaVuSans-46" x="703.076172"/>
     <use xlink:href="#DejaVuSans-61" x="751.470703"/>
     <use xlink:href="#DejaVuSans-63" x="812.75"/>
     <use xlink:href="#DejaVuSans-74" x="867.730469"/>
     <use xlink:href="#DejaVuSans-6f" x="906.939453"/>
     <use xlink:href="#DejaVuSans-72" x="968.121094"/>
    </g>
   </g>
  </g>
 </g>
 <defs>
  <clipPath id="p9b3cf2f313">
   <rect x="36.465625" y="22.318125" width="357.12" height="266.112"/>
  </clipPath>
 </defs>
</svg>
