<?xml version="1.0" encoding="utf-8" standalone="no"?>
<!DOCTYPE svg PUBLIC "-//W3C//DTD SVG 1.1//EN"
  "http://www.w3.org/Graphics/SVG/1.1/DTD/svg11.dtd">
<svg xmlns:xlink="http://www.w3.org/1999/xlink" width="397.6075pt" height="312.30825pt" viewBox="0 0 397.6075 312.30825" xmlns="http://www.w3.org/2000/svg" version="1.1">
 <metadata>
  <rdf:RDF xmlns:dc="http://purl.org/dc/elements/1.1/" xmlns:cc="http://creativecommons.org/ns#" xmlns:rdf="http://www.w3.org/1999/02/22-rdf-syntax-ns#">
   <cc:Work>
    <dc:type rdf:resource="http://purl.org/dc/dcmitype/StillImage"/>
    <dc:date>2024-03-16T12:28:44.712201</dc:date>
    <dc:format>image/svg+xml</dc:format>
    <dc:creator>
     <cc:Agent>
      <dc:title>Matplotlib v3.8.3, https://matplotlib.org/</dc:title>
     </cc:Agent>
    </dc:creator>
   </cc:Work>
  </rdf:RDF>
 </metadata>
 <defs>
  <style type="text/css">*{stroke-linejoin: round; stroke-linecap: butt}</style>
 </defs>
 <g id="figure_1">
  <g id="patch_1">
   <path d="M 0 312.30825 
L 397.6075 312.30825 
L 397.6075 0 
L 0 0 
z
" style="fill: #ffffff"/>
  </g>
  <g id="axes_1">
   <g id="patch_2">
    <path d="M 33.2875 288.430125 
L 390.4075 288.430125 
L 390.4075 22.318125 
L 33.2875 22.318125 
z
" style="fill: #ffffff"/>
   </g>
   <g id="matplotlib.axis_1">
    <g id="xtick_1">
     <g id="line2d_1">
      <defs>
       <path id="m27df8944d2" d="M 0 0 
L 0 3.5 
" style="stroke: #000000; stroke-width: 0.8"/>
      </defs>
      <g>
       <use xlink:href="#m27df8944d2" x="49.520227" y="288.430125" style="stroke: #000000; stroke-width: 0.8"/>
      </g>
     </g>
     <g id="text_1">
      <!-- 0 -->
      <g transform="translate(46.338977 303.028562) scale(0.1 -0.1)">
       <defs>
        <path id="DejaVuSans-30" d="M 2034 4250 
Q 1547 4250 1301 3770 
Q 1056 3291 1056 2328 
Q 1056 1369 1301 889 
Q 1547 409 2034 409 
Q 2525 409 2770 889 
Q 3016 1369 3016 2328 
Q 3016 3291 2770 3770 
Q 2525 4250 2034 4250 
z
M 2034 4750 
Q 2819 4750 3233 4129 
Q 3647 3509 3647 2328 
Q 3647 1150 3233 529 
Q 2819 -91 2034 -91 
Q 1250 -91 836 529 
Q 422 1150 422 2328 
Q 422 3509 836 4129 
Q 1250 4750 2034 4750 
z
" transform="scale(0.015625)"/>
       </defs>
       <use xlink:href="#DejaVuSans-30"/>
      </g>
     </g>
    </g>
    <g id="xtick_2">
     <g id="line2d_2">
      <g>
       <use xlink:href="#m27df8944d2" x="89.404078" y="288.430125" style="stroke: #000000; stroke-width: 0.8"/>
      </g>
     </g>
     <g id="text_2">
      <!-- 50 -->
      <g transform="translate(83.041578 303.028562) scale(0.1 -0.1)">
       <defs>
        <path id="DejaVuSans-35" d="M 691 4666 
L 3169 4666 
L 3169 4134 
L 1269 4134 
L 1269 2991 
Q 1406 3038 1543 3061 
Q 1681 3084 1819 3084 
Q 2600 3084 3056 2656 
Q 3513 2228 3513 1497 
Q 3513 744 3044 326 
Q 2575 -91 1722 -91 
Q 1428 -91 1123 -41 
Q 819 9 494 109 
L 494 744 
Q 775 591 1075 516 
Q 1375 441 1709 441 
Q 2250 441 2565 725 
Q 2881 1009 2881 1497 
Q 2881 1984 2565 2268 
Q 2250 2553 1709 2553 
Q 1456 2553 1204 2497 
Q 953 2441 691 2322 
L 691 4666 
z
" transform="scale(0.015625)"/>
       </defs>
       <use xlink:href="#DejaVuSans-35"/>
       <use xlink:href="#DejaVuSans-30" x="63.623047"/>
      </g>
     </g>
    </g>
    <g id="xtick_3">
     <g id="line2d_3">
      <g>
       <use xlink:href="#m27df8944d2" x="129.287929" y="288.430125" style="stroke: #000000; stroke-width: 0.8"/>
      </g>
     </g>
     <g id="text_3">
      <!-- 100 -->
      <g transform="translate(119.744179 303.028562) scale(0.1 -0.1)">
       <defs>
        <path id="DejaVuSans-31" d="M 794 531 
L 1825 531 
L 1825 4091 
L 703 3866 
L 703 4441 
L 1819 4666 
L 2450 4666 
L 2450 531 
L 3481 531 
L 3481 0 
L 794 0 
L 794 531 
z
" transform="scale(0.015625)"/>
       </defs>
       <use xlink:href="#DejaVuSans-31"/>
       <use xlink:href="#DejaVuSans-30" x="63.623047"/>
       <use xlink:href="#DejaVuSans-30" x="127.246094"/>
      </g>
     </g>
    </g>
    <g id="xtick_4">
     <g id="line2d_4">
      <g>
       <use xlink:href="#m27df8944d2" x="169.17178" y="288.430125" style="stroke: #000000; stroke-width: 0.8"/>
      </g>
     </g>
     <g id="text_4">
      <!-- 150 -->
      <g transform="translate(159.62803 303.028562) scale(0.1 -0.1)">
       <use xlink:href="#DejaVuSans-31"/>
       <use xlink:href="#DejaVuSans-35" x="63.623047"/>
       <use xlink:href="#DejaVuSans-30" x="127.246094"/>
      </g>
     </g>
    </g>
    <g id="xtick_5">
     <g id="line2d_5">
      <g>
       <use xlink:href="#m27df8944d2" x="209.05563" y="288.430125" style="stroke: #000000; stroke-width: 0.8"/>
      </g>
     </g>
     <g id="text_5">
      <!-- 200 -->
      <g transform="translate(199.51188 303.028562) scale(0.1 -0.1)">
       <defs>
        <path id="DejaVuSans-32" d="M 1228 531 
L 3431 531 
L 3431 0 
L 469 0 
L 469 531 
Q 828 903 1448 1529 
Q 2069 2156 2228 2338 
Q 2531 2678 2651 2914 
Q 2772 3150 2772 3378 
Q 2772 3750 2511 3984 
Q 2250 4219 1831 4219 
Q 1534 4219 1204 4116 
Q 875 4013 500 3803 
L 500 4441 
Q 881 4594 1212 4672 
Q 1544 4750 1819 4750 
Q 2544 4750 2975 4387 
Q 3406 4025 3406 3419 
Q 3406 3131 3298 2873 
Q 3191 2616 2906 2266 
Q 2828 2175 2409 1742 
Q 1991 1309 1228 531 
z
" transform="scale(0.015625)"/>
       </defs>
       <use xlink:href="#DejaVuSans-32"/>
       <use xlink:href="#DejaVuSans-30" x="63.623047"/>
       <use xlink:href="#DejaVuSans-30" x="127.246094"/>
      </g>
     </g>
    </g>
    <g id="xtick_6">
     <g id="line2d_6">
      <g>
       <use xlink:href="#m27df8944d2" x="248.939481" y="288.430125" style="stroke: #000000; stroke-width: 0.8"/>
      </g>
     </g>
     <g id="text_6">
      <!-- 250 -->
      <g transform="translate(239.395731 303.028562) scale(0.1 -0.1)">
       <use xlink:href="#DejaVuSans-32"/>
       <use xlink:href="#DejaVuSans-35" x="63.623047"/>
       <use xlink:href="#DejaVuSans-30" x="127.246094"/>
      </g>
     </g>
    </g>
    <g id="xtick_7">
     <g id="line2d_7">
      <g>
       <use xlink:href="#m27df8944d2" x="288.823332" y="288.430125" style="stroke: #000000; stroke-width: 0.8"/>
      </g>
     </g>
     <g id="text_7">
      <!-- 300 -->
      <g transform="translate(279.279582 303.028562) scale(0.1 -0.1)">
       <defs>
        <path id="DejaVuSans-33" d="M 2597 2516 
Q 3050 2419 3304 2112 
Q 3559 1806 3559 1356 
Q 3559 666 3084 287 
Q 2609 -91 1734 -91 
Q 1441 -91 1130 -33 
Q 819 25 488 141 
L 488 750 
Q 750 597 1062 519 
Q 1375 441 1716 441 
Q 2309 441 2620 675 
Q 2931 909 2931 1356 
Q 2931 1769 2642 2001 
Q 2353 2234 1838 2234 
L 1294 2234 
L 1294 2753 
L 1863 2753 
Q 2328 2753 2575 2939 
Q 2822 3125 2822 3475 
Q 2822 3834 2567 4026 
Q 2313 4219 1838 4219 
Q 1578 4219 1281 4162 
Q 984 4106 628 3988 
L 628 4550 
Q 988 4650 1302 4700 
Q 1616 4750 1894 4750 
Q 2613 4750 3031 4423 
Q 3450 4097 3450 3541 
Q 3450 3153 3228 2886 
Q 3006 2619 2597 2516 
z
" transform="scale(0.015625)"/>
       </defs>
       <use xlink:href="#DejaVuSans-33"/>
       <use xlink:href="#DejaVuSans-30" x="63.623047"/>
       <use xlink:href="#DejaVuSans-30" x="127.246094"/>
      </g>
     </g>
    </g>
    <g id="xtick_8">
     <g id="line2d_8">
      <g>
       <use xlink:href="#m27df8944d2" x="328.707183" y="288.430125" style="stroke: #000000; stroke-width: 0.8"/>
      </g>
     </g>
     <g id="text_8">
      <!-- 350 -->
      <g transform="translate(319.163433 303.028562) scale(0.1 -0.1)">
       <use xlink:href="#DejaVuSans-33"/>
       <use xlink:href="#DejaVuSans-35" x="63.623047"/>
       <use xlink:href="#DejaVuSans-30" x="127.246094"/>
      </g>
     </g>
    </g>
    <g id="xtick_9">
     <g id="line2d_9">
      <g>
       <use xlink:href="#m27df8944d2" x="368.591034" y="288.430125" style="stroke: #000000; stroke-width: 0.8"/>
      </g>
     </g>
     <g id="text_9">
      <!-- 400 -->
      <g transform="translate(359.047284 303.028562) scale(0.1 -0.1)">
       <defs>
        <path id="DejaVuSans-34" d="M 2419 4116 
L 825 1625 
L 2419 1625 
L 2419 4116 
z
M 2253 4666 
L 3047 4666 
L 3047 1625 
L 3713 1625 
L 3713 1100 
L 3047 1100 
L 3047 0 
L 2419 0 
L 2419 1100 
L 313 1100 
L 313 1709 
L 2253 4666 
z
" transform="scale(0.015625)"/>
       </defs>
       <use xlink:href="#DejaVuSans-34"/>
       <use xlink:href="#DejaVuSans-30" x="63.623047"/>
       <use xlink:href="#DejaVuSans-30" x="127.246094"/>
      </g>
     </g>
    </g>
   </g>
   <g id="matplotlib.axis_2">
    <g id="ytick_1">
     <g id="line2d_10">
      <defs>
       <path id="m02eb1ed973" d="M 0 0 
L -3.5 0 
" style="stroke: #000000; stroke-width: 0.8"/>
      </defs>
      <g>
       <use xlink:href="#m02eb1ed973" x="33.2875" y="277.900744" style="stroke: #000000; stroke-width: 0.8"/>
      </g>
     </g>
     <g id="text_10">
      <!-- 0 -->
      <g transform="translate(19.925 281.699962) scale(0.1 -0.1)">
       <use xlink:href="#DejaVuSans-30"/>
      </g>
     </g>
    </g>
    <g id="ytick_2">
     <g id="line2d_11">
      <g>
       <use xlink:href="#m02eb1ed973" x="33.2875" y="222.555387" style="stroke: #000000; stroke-width: 0.8"/>
      </g>
     </g>
     <g id="text_11">
      <!-- 50 -->
      <g transform="translate(13.5625 226.354605) scale(0.1 -0.1)">
       <use xlink:href="#DejaVuSans-35"/>
       <use xlink:href="#DejaVuSans-30" x="63.623047"/>
      </g>
     </g>
    </g>
    <g id="ytick_3">
     <g id="line2d_12">
      <g>
       <use xlink:href="#m02eb1ed973" x="33.2875" y="167.21003" style="stroke: #000000; stroke-width: 0.8"/>
      </g>
     </g>
     <g id="text_12">
      <!-- 100 -->
      <g transform="translate(7.2 171.009248) scale(0.1 -0.1)">
       <use xlink:href="#DejaVuSans-31"/>
       <use xlink:href="#DejaVuSans-30" x="63.623047"/>
       <use xlink:href="#DejaVuSans-30" x="127.246094"/>
      </g>
     </g>
    </g>
    <g id="ytick_4">
     <g id="line2d_13">
      <g>
       <use xlink:href="#m02eb1ed973" x="33.2875" y="111.864673" style="stroke: #000000; stroke-width: 0.8"/>
      </g>
     </g>
     <g id="text_13">
      <!-- 150 -->
      <g transform="translate(7.2 115.663891) scale(0.1 -0.1)">
       <use xlink:href="#DejaVuSans-31"/>
       <use xlink:href="#DejaVuSans-35" x="63.623047"/>
       <use xlink:href="#DejaVuSans-30" x="127.246094"/>
      </g>
     </g>
    </g>
    <g id="ytick_5">
     <g id="line2d_14">
      <g>
       <use xlink:href="#m02eb1ed973" x="33.2875" y="56.519316" style="stroke: #000000; stroke-width: 0.8"/>
      </g>
     </g>
     <g id="text_14">
      <!-- 200 -->
      <g transform="translate(7.2 60.318535) scale(0.1 -0.1)">
       <use xlink:href="#DejaVuSans-32"/>
       <use xlink:href="#DejaVuSans-30" x="63.623047"/>
       <use xlink:href="#DejaVuSans-30" x="127.246094"/>
      </g>
     </g>
    </g>
   </g>
   <g id="line2d_15">
    <path d="M 49.520227 276.285522 
L 51.115581 255.219171 
L 51.913258 269.683211 
L 53.508612 269.19803 
L 54.306289 271.266162 
L 55.103966 271.206136 
L 55.901643 271.388931 
L 56.69932 221.469219 
L 57.496997 254.988105 
L 58.294674 271.352502 
L 59.092351 271.384176 
L 59.890028 257.921638 
L 60.687705 227.741761 
L 61.485383 269.477403 
L 63.080737 271.24709 
L 63.878414 270.99123 
L 64.676091 271.37141 
L 65.473768 271.197068 
L 66.271445 239.688153 
L 67.069122 261.542028 
L 67.866799 274.393834 
L 68.664476 274.417535 
L 69.462153 257.55359 
L 70.25983 234.4033 
L 71.057507 271.339875 
L 72.652861 271.214671 
L 73.450538 270.420396 
L 74.248215 270.527795 
L 75.045892 270.472746 
L 75.843569 232.678415 
L 76.641246 255.175371 
L 77.438923 273.431305 
L 78.2366 273.465521 
L 79.034277 257.778767 
L 79.831954 227.956096 
L 80.629631 267.310204 
L 82.224985 265.030086 
L 83.022662 265.016252 
L 83.820339 264.886578 
L 84.618016 265.115792 
L 85.415693 209.015755 
L 86.21337 251.865109 
L 87.011047 269.262708 
L 87.808724 269.232647 
L 88.606401 228.00078 
L 89.404078 147.182282 
L 90.201755 269.510009 
L 90.999432 268.858141 
L 91.797109 268.726271 
L 94.19014 269.353798 
L 94.987817 234.723816 
L 95.785494 256.254464 
L 96.583171 273.426334 
L 97.380848 273.414504 
L 98.178525 257.144184 
L 98.976202 235.121526 
L 99.773879 269.537831 
L 100.571556 269.302146 
L 101.369233 269.245224 
L 102.16691 269.069894 
L 102.964587 270.192771 
L 103.762264 270.646817 
L 104.559941 213.927688 
L 105.357618 253.543366 
L 106.155295 271.999278 
L 106.952972 272.028694 
L 107.750649 254.352642 
L 108.548326 225.703409 
L 109.346003 269.15547 
L 110.14368 268.173984 
L 111.739035 269.658418 
L 112.536712 269.760702 
L 113.334389 269.742643 
L 114.132066 227.8071 
L 114.929743 257.51367 
L 115.72742 272.971504 
L 116.525097 272.98621 
L 117.322774 254.863392 
L 118.120451 225.955394 
L 118.918128 271.418021 
L 119.715805 271.505397 
L 120.513482 271.12157 
L 121.311159 271.507999 
L 122.906513 271.522481 
L 123.70419 239.742025 
L 124.501867 262.285994 
L 125.299544 273.979365 
L 126.097221 273.839865 
L 126.894898 219.742534 
L 127.692575 144.530916 
L 128.490252 258.208396 
L 129.287929 258.177496 
L 130.883283 258.386354 
L 132.478637 258.444552 
L 133.276314 243.046941 
L 134.073991 261.883553 
L 134.871668 273.663132 
L 135.669345 273.60962 
L 136.467022 260.546114 
L 137.264699 237.894376 
L 138.062376 270.990653 
L 138.860053 270.563198 
L 139.65773 270.563184 
L 140.455407 270.83773 
L 141.253084 269.861322 
L 142.050761 267.113442 
L 142.848438 236.475324 
L 143.646115 257.323758 
L 144.443792 274.445858 
L 145.241469 274.470884 
L 146.039146 258.12244 
L 146.836823 235.438753 
L 147.6345 269.394824 
L 148.432177 269.602659 
L 150.027531 269.650297 
L 150.825208 269.284013 
L 151.622885 269.636878 
L 152.420562 234.059916 
L 153.218239 257.739163 
L 154.015916 272.80949 
L 154.813593 272.880493 
L 155.61127 254.645233 
L 156.408947 220.74223 
L 157.206624 270.303762 
L 158.004301 270.130718 
L 158.801978 269.752594 
L 159.599655 269.699592 
L 160.397332 270.097788 
L 161.195009 270.890907 
L 161.992687 235.283746 
L 162.790364 257.139827 
L 163.588041 274.410574 
L 164.385718 274.357001 
L 165.981072 107.864389 
L 166.778749 222.560669 
L 167.576426 222.999057 
L 168.374103 247.536725 
L 169.17178 264.562419 
L 169.969457 266.819768 
L 170.767134 266.456074 
L 171.564811 238.737364 
L 172.362488 257.357257 
L 173.160165 269.033517 
L 173.957842 269.104111 
L 174.755519 238.944154 
L 175.553196 224.197848 
L 176.350873 265.302039 
L 177.14855 265.680245 
L 177.946227 266.478545 
L 178.743904 266.514668 
L 179.541581 266.127639 
L 180.339258 266.266427 
L 181.136935 147.821448 
L 181.934612 221.60568 
L 182.732289 274.150754 
L 183.529966 274.183227 
L 184.327643 261.486122 
L 185.12532 242.646522 
L 185.922997 270.671181 
L 187.518351 270.773786 
L 189.113705 270.467086 
L 189.911382 270.973488 
L 190.709059 231.039361 
L 191.506736 257.132821 
L 192.304413 274.199396 
L 193.10209 274.157931 
L 193.899767 261.594279 
L 194.697444 236.043303 
L 195.495121 272.221226 
L 198.685829 271.667595 
L 199.483506 271.826538 
L 200.281183 232.967032 
L 201.07886 257.631986 
L 201.876537 272.21271 
L 202.674214 272.337094 
L 203.471891 254.10336 
L 204.269568 228.489279 
L 205.067245 267.41929 
L 205.864922 268.042889 
L 206.662599 268.465219 
L 207.460276 269.098492 
L 208.257953 263.663565 
L 209.05563 262.20025 
L 209.853307 225.998718 
L 210.650984 251.122837 
L 211.448661 264.465625 
L 212.246339 264.651032 
L 213.044016 220.739481 
L 213.841693 110.867728 
L 214.63937 269.349043 
L 215.437047 269.238364 
L 217.032401 269.432901 
L 217.830078 269.472425 
L 218.627755 269.715995 
L 219.425432 236.71472 
L 220.223109 259.122383 
L 221.020786 274.129497 
L 221.818463 274.188339 
L 222.61614 262.541933 
L 223.413817 245.885822 
L 224.211494 271.566034 
L 225.009171 271.846036 
L 225.806848 271.450794 
L 226.604525 271.639072 
L 227.402202 270.021446 
L 228.199879 268.975933 
L 228.997556 237.867244 
L 229.795233 259.173949 
L 230.59291 274.009012 
L 231.390587 273.983386 
L 232.985941 231.150017 
L 233.783618 269.289052 
L 234.581295 269.786527 
L 235.378972 269.842498 
L 236.974326 270.619832 
L 237.772003 270.705756 
L 238.56968 239.556159 
L 239.367357 261.788072 
L 240.165034 273.65327 
L 240.962711 273.613512 
L 242.558065 147.346676 
L 243.355742 230.348956 
L 244.153419 262.765751 
L 244.951096 271.801157 
L 245.748773 271.623825 
L 246.54645 270.785958 
L 247.344127 270.731146 
L 248.141804 247.814402 
L 248.939481 252.945056 
L 249.737158 273.338736 
L 250.534835 273.193773 
L 251.332512 260.553581 
L 252.130189 216.244797 
L 252.927866 271.892061 
L 253.725543 271.690219 
L 254.52322 271.633702 
L 255.320897 270.904407 
L 256.916251 270.728029 
L 257.713928 140.27292 
L 258.511605 221.352238 
L 259.309282 269.935451 
L 260.106959 269.94395 
L 260.904636 257.895813 
L 261.702313 177.006066 
L 262.499991 266.945124 
L 263.297668 267.420897 
L 264.095345 267.347054 
L 264.893022 267.137419 
L 265.690699 267.595839 
L 266.488376 268.292621 
L 267.286053 246.375881 
L 268.08373 252.655626 
L 268.881407 271.797688 
L 269.679084 271.869933 
L 270.476761 261.733316 
L 271.274438 243.320993 
L 272.072115 265.444565 
L 272.869792 267.414596 
L 273.667469 268.277475 
L 275.262823 268.36039 
L 276.0605 269.062867 
L 276.858177 225.56976 
L 277.655854 255.259361 
L 278.453531 274.383467 
L 279.251208 274.432149 
L 280.846562 242.565894 
L 281.644239 269.392862 
L 284.834947 270.356884 
L 285.632624 270.314806 
L 286.430301 232.936144 
L 287.227978 258.600829 
L 288.025655 274.716087 
L 288.823332 274.670033 
L 289.621009 262.689156 
L 290.418686 245.597161 
L 291.216363 271.977055 
L 292.01404 271.834682 
L 292.811717 271.573802 
L 294.407071 271.422174 
L 295.204748 271.727892 
L 296.002425 221.451797 
L 296.800102 254.866489 
L 297.597779 272.709447 
L 298.395456 272.654122 
L 299.193133 231.107754 
L 299.99081 156.881998 
L 300.788487 268.929265 
L 301.586164 269.201507 
L 302.383841 269.692669 
L 303.181518 269.482582 
L 304.776872 269.645988 
L 305.574549 232.42494 
L 306.372226 236.980567 
L 307.169903 272.149233 
L 307.96758 272.156768 
L 308.765257 258.194455 
L 309.562934 196.722271 
L 310.360611 269.267883 
L 311.158288 269.573785 
L 312.753643 269.516518 
L 313.55132 269.760998 
L 314.348997 270.154137 
L 315.146674 237.643842 
L 315.944351 251.090108 
L 316.742028 271.898798 
L 317.539705 271.716961 
L 319.135059 235.480445 
L 319.932736 269.823389 
L 320.730413 269.353163 
L 321.52809 269.27687 
L 322.325767 270.133349 
L 323.123444 271.500128 
L 323.921121 271.657791 
L 324.718798 237.729053 
L 325.516475 260.01766 
L 326.314152 274.447206 
L 327.111829 274.360868 
L 327.909506 261.828808 
L 328.707183 239.797196 
L 329.50486 270.555546 
L 331.100214 270.294892 
L 331.897891 270.754634 
L 332.695568 271.545531 
L 333.493245 271.611884 
L 334.290922 220.613847 
L 335.088599 255.597254 
L 335.886276 271.332758 
L 336.683953 271.350777 
L 337.48163 253.615979 
L 338.279307 225.10099 
L 339.076984 269.979185 
L 339.874661 270.353778 
L 340.672338 269.991484 
L 341.470015 262.914385 
L 342.267692 260.690892 
L 343.065369 254.020499 
L 343.863046 200.042693 
L 344.660723 241.69402 
L 345.4584 263.944065 
L 346.256077 263.922589 
L 347.053754 217.212095 
L 347.851431 225.981043 
L 348.649108 259.578328 
L 350.244462 259.441837 
L 351.839816 259.943638 
L 352.637493 259.62106 
L 353.43517 34.414125 
L 354.232847 176.144472 
L 355.030524 274.083535 
L 355.828201 274.138179 
L 356.625878 261.174641 
L 357.423555 239.037528 
L 358.221232 271.405982 
L 359.018909 270.9283 
L 359.816586 270.608119 
L 362.209617 271.127396 
L 363.007295 231.342238 
L 363.804972 259.166512 
L 364.602649 273.564849 
L 365.400326 273.598695 
L 366.198003 248.707934 
L 366.99568 216.014321 
L 367.793357 263.682454 
L 369.388711 265.901475 
L 370.186388 266.038331 
L 371.781742 271.502598 
L 372.579419 260.119074 
L 374.174773 276.334125 
L 374.174773 276.334125 
" clip-path="url(#pb49f489055)" style="fill: none; stroke: #1f77b4; stroke-width: 1.5; stroke-linecap: square"/>
   </g>
   <g id="patch_3">
    <path d="M 33.2875 288.430125 
L 33.2875 22.318125 
" style="fill: none; stroke: #000000; stroke-width: 0.8; stroke-linejoin: miter; stroke-linecap: square"/>
   </g>
   <g id="patch_4">
    <path d="M 390.4075 288.430125 
L 390.4075 22.318125 
" style="fill: none; stroke: #000000; stroke-width: 0.8; stroke-linejoin: miter; stroke-linecap: square"/>
   </g>
   <g id="patch_5">
    <path d="M 33.2875 288.430125 
L 390.4075 288.430125 
" style="fill: none; stroke: #000000; stroke-width: 0.8; stroke-linejoin: miter; stroke-linecap: square"/>
   </g>
   <g id="patch_6">
    <path d="M 33.2875 22.318125 
L 390.4075 22.318125 
" style="fill: none; stroke: #000000; stroke-width: 0.8; stroke-linejoin: miter; stroke-linecap: square"/>
   </g>
   <g id="text_15">
    <!-- Thermal Flux -->
    <g transform="translate(172.760313 16.318125) scale(0.12 -0.12)">
     <defs>
      <path id="DejaVuSans-54" d="M -19 4666 
L 3928 4666 
L 3928 4134 
L 2272 4134 
L 2272 0 
L 1638 0 
L 1638 4134 
L -19 4134 
L -19 4666 
z
" transform="scale(0.015625)"/>
      <path id="DejaVuSans-68" d="M 3513 2113 
L 3513 0 
L 2938 0 
L 2938 2094 
Q 2938 2591 2744 2837 
Q 2550 3084 2163 3084 
Q 1697 3084 1428 2787 
Q 1159 2491 1159 1978 
L 1159 0 
L 581 0 
L 581 4863 
L 1159 4863 
L 1159 2956 
Q 1366 3272 1645 3428 
Q 1925 3584 2291 3584 
Q 2894 3584 3203 3211 
Q 3513 2838 3513 2113 
z
" transform="scale(0.015625)"/>
      <path id="DejaVuSans-65" d="M 3597 1894 
L 3597 1613 
L 953 1613 
Q 991 1019 1311 708 
Q 1631 397 2203 397 
Q 2534 397 2845 478 
Q 3156 559 3463 722 
L 3463 178 
Q 3153 47 2828 -22 
Q 2503 -91 2169 -91 
Q 1331 -91 842 396 
Q 353 884 353 1716 
Q 353 2575 817 3079 
Q 1281 3584 2069 3584 
Q 2775 3584 3186 3129 
Q 3597 2675 3597 1894 
z
M 3022 2063 
Q 3016 2534 2758 2815 
Q 2500 3097 2075 3097 
Q 1594 3097 1305 2825 
Q 1016 2553 972 2059 
L 3022 2063 
z
" transform="scale(0.015625)"/>
      <path id="DejaVuSans-72" d="M 2631 2963 
Q 2534 3019 2420 3045 
Q 2306 3072 2169 3072 
Q 1681 3072 1420 2755 
Q 1159 2438 1159 1844 
L 1159 0 
L 581 0 
L 581 3500 
L 1159 3500 
L 1159 2956 
Q 1341 3275 1631 3429 
Q 1922 3584 2338 3584 
Q 2397 3584 2469 3576 
Q 2541 3569 2628 3553 
L 2631 2963 
z
" transform="scale(0.015625)"/>
      <path id="DejaVuSans-6d" d="M 3328 2828 
Q 3544 3216 3844 3400 
Q 4144 3584 4550 3584 
Q 5097 3584 5394 3201 
Q 5691 2819 5691 2113 
L 5691 0 
L 5113 0 
L 5113 2094 
Q 5113 2597 4934 2840 
Q 4756 3084 4391 3084 
Q 3944 3084 3684 2787 
Q 3425 2491 3425 1978 
L 3425 0 
L 2847 0 
L 2847 2094 
Q 2847 2600 2669 2842 
Q 2491 3084 2119 3084 
Q 1678 3084 1418 2786 
Q 1159 2488 1159 1978 
L 1159 0 
L 581 0 
L 581 3500 
L 1159 3500 
L 1159 2956 
Q 1356 3278 1631 3431 
Q 1906 3584 2284 3584 
Q 2666 3584 2933 3390 
Q 3200 3197 3328 2828 
z
" transform="scale(0.015625)"/>
      <path id="DejaVuSans-61" d="M 2194 1759 
Q 1497 1759 1228 1600 
Q 959 1441 959 1056 
Q 959 750 1161 570 
Q 1363 391 1709 391 
Q 2188 391 2477 730 
Q 2766 1069 2766 1631 
L 2766 1759 
L 2194 1759 
z
M 3341 1997 
L 3341 0 
L 2766 0 
L 2766 531 
Q 2569 213 2275 61 
Q 1981 -91 1556 -91 
Q 1019 -91 701 211 
Q 384 513 384 1019 
Q 384 1609 779 1909 
Q 1175 2209 1959 2209 
L 2766 2209 
L 2766 2266 
Q 2766 2663 2505 2880 
Q 2244 3097 1772 3097 
Q 1472 3097 1187 3025 
Q 903 2953 641 2809 
L 641 3341 
Q 956 3463 1253 3523 
Q 1550 3584 1831 3584 
Q 2591 3584 2966 3190 
Q 3341 2797 3341 1997 
z
" transform="scale(0.015625)"/>
      <path id="DejaVuSans-6c" d="M 603 4863 
L 1178 4863 
L 1178 0 
L 603 0 
L 603 4863 
z
" transform="scale(0.015625)"/>
      <path id="DejaVuSans-20" transform="scale(0.015625)"/>
      <path id="DejaVuSans-46" d="M 628 4666 
L 3309 4666 
L 3309 4134 
L 1259 4134 
L 1259 2759 
L 3109 2759 
L 3109 2228 
L 1259 2228 
L 1259 0 
L 628 0 
L 628 4666 
z
" transform="scale(0.015625)"/>
      <path id="DejaVuSans-75" d="M 544 1381 
L 544 3500 
L 1119 3500 
L 1119 1403 
Q 1119 906 1312 657 
Q 1506 409 1894 409 
Q 2359 409 2629 706 
Q 2900 1003 2900 1516 
L 2900 3500 
L 3475 3500 
L 3475 0 
L 2900 0 
L 2900 538 
Q 2691 219 2414 64 
Q 2138 -91 1772 -91 
Q 1169 -91 856 284 
Q 544 659 544 1381 
z
M 1991 3584 
L 1991 3584 
z
" transform="scale(0.015625)"/>
      <path id="DejaVuSans-78" d="M 3513 3500 
L 2247 1797 
L 3578 0 
L 2900 0 
L 1881 1375 
L 863 0 
L 184 0 
L 1544 1831 
L 300 3500 
L 978 3500 
L 1906 2253 
L 2834 3500 
L 3513 3500 
z
" transform="scale(0.015625)"/>
     </defs>
     <use xlink:href="#DejaVuSans-54"/>
     <use xlink:href="#DejaVuSans-68" x="61.083984"/>
     <use xlink:href="#DejaVuSans-65" x="124.462891"/>
     <use xlink:href="#DejaVuSans-72" x="185.986328"/>
     <use xlink:href="#DejaVuSans-6d" x="225.349609"/>
     <use xlink:href="#DejaVuSans-61" x="322.761719"/>
     <use xlink:href="#DejaVuSans-6c" x="384.041016"/>
     <use xlink:href="#DejaVuSans-20" x="411.824219"/>
     <use xlink:href="#DejaVuSans-46" x="443.611328"/>
     <use xlink:href="#DejaVuSans-6c" x="501.130859"/>
     <use xlink:href="#DejaVuSans-75" x="528.914062"/>
     <use xlink:href="#DejaVuSans-78" x="592.292969"/>
    </g>
   </g>
  </g>
 </g>
 <defs>
  <clipPath id="pb49f489055">
   <rect x="33.2875" y="22.318125" width="357.12" height="266.112"/>
  </clipPath>
 </defs>
</svg>
