<?xml version="1.0" encoding="utf-8" standalone="no"?>
<!DOCTYPE svg PUBLIC "-//W3C//DTD SVG 1.1//EN"
  "http://www.w3.org/Graphics/SVG/1.1/DTD/svg11.dtd">
<svg xmlns:xlink="http://www.w3.org/1999/xlink" width="394.423125pt" height="312.30825pt" viewBox="0 0 394.423125 312.30825" xmlns="http://www.w3.org/2000/svg" version="1.1">
 <metadata>
  <rdf:RDF xmlns:dc="http://purl.org/dc/elements/1.1/" xmlns:cc="http://creativecommons.org/ns#" xmlns:rdf="http://www.w3.org/1999/02/22-rdf-syntax-ns#">
   <cc:Work>
    <dc:type rdf:resource="http://purl.org/dc/dcmitype/StillImage"/>
    <dc:date>2024-03-15T12:29:39.501122</dc:date>
    <dc:format>image/svg+xml</dc:format>
    <dc:creator>
     <cc:Agent>
      <dc:title>Matplotlib v3.8.3, https://matplotlib.org/</dc:title>
     </cc:Agent>
    </dc:creator>
   </cc:Work>
  </rdf:RDF>
 </metadata>
 <defs>
  <style type="text/css">*{stroke-linejoin: round; stroke-linecap: butt}</style>
 </defs>
 <g id="figure_1">
  <g id="patch_1">
   <path d="M 0 312.30825 
L 394.423125 312.30825 
L 394.423125 0 
L 0 0 
z
" style="fill: #ffffff"/>
  </g>
  <g id="axes_1">
   <g id="patch_2">
    <path d="M 30.103125 288.430125 
L 387.223125 288.430125 
L 387.223125 22.318125 
L 30.103125 22.318125 
z
" style="fill: #ffffff"/>
   </g>
   <g id="matplotlib.axis_1">
    <g id="xtick_1">
     <g id="line2d_1">
      <defs>
       <path id="mdf6ec4eda8" d="M 0 0 
L 0 3.5 
" style="stroke: #000000; stroke-width: 0.8"/>
      </defs>
      <g>
       <use xlink:href="#mdf6ec4eda8" x="46.335852" y="288.430125" style="stroke: #000000; stroke-width: 0.8"/>
      </g>
     </g>
     <g id="text_1">
      <!-- 0 -->
      <g transform="translate(43.154602 303.028562) scale(0.1 -0.1)">
       <defs>
        <path id="DejaVuSans-30" d="M 2034 4250 
Q 1547 4250 1301 3770 
Q 1056 3291 1056 2328 
Q 1056 1369 1301 889 
Q 1547 409 2034 409 
Q 2525 409 2770 889 
Q 3016 1369 3016 2328 
Q 3016 3291 2770 3770 
Q 2525 4250 2034 4250 
z
M 2034 4750 
Q 2819 4750 3233 4129 
Q 3647 3509 3647 2328 
Q 3647 1150 3233 529 
Q 2819 -91 2034 -91 
Q 1250 -91 836 529 
Q 422 1150 422 2328 
Q 422 3509 836 4129 
Q 1250 4750 2034 4750 
z
" transform="scale(0.015625)"/>
       </defs>
       <use xlink:href="#DejaVuSans-30"/>
      </g>
     </g>
    </g>
    <g id="xtick_2">
     <g id="line2d_2">
      <g>
       <use xlink:href="#mdf6ec4eda8" x="89.855228" y="288.430125" style="stroke: #000000; stroke-width: 0.8"/>
      </g>
     </g>
     <g id="text_2">
      <!-- 50 -->
      <g transform="translate(83.492728 303.028562) scale(0.1 -0.1)">
       <defs>
        <path id="DejaVuSans-35" d="M 691 4666 
L 3169 4666 
L 3169 4134 
L 1269 4134 
L 1269 2991 
Q 1406 3038 1543 3061 
Q 1681 3084 1819 3084 
Q 2600 3084 3056 2656 
Q 3513 2228 3513 1497 
Q 3513 744 3044 326 
Q 2575 -91 1722 -91 
Q 1428 -91 1123 -41 
Q 819 9 494 109 
L 494 744 
Q 775 591 1075 516 
Q 1375 441 1709 441 
Q 2250 441 2565 725 
Q 2881 1009 2881 1497 
Q 2881 1984 2565 2268 
Q 2250 2553 1709 2553 
Q 1456 2553 1204 2497 
Q 953 2441 691 2322 
L 691 4666 
z
" transform="scale(0.015625)"/>
       </defs>
       <use xlink:href="#DejaVuSans-35"/>
       <use xlink:href="#DejaVuSans-30" x="63.623047"/>
      </g>
     </g>
    </g>
    <g id="xtick_3">
     <g id="line2d_3">
      <g>
       <use xlink:href="#mdf6ec4eda8" x="133.374604" y="288.430125" style="stroke: #000000; stroke-width: 0.8"/>
      </g>
     </g>
     <g id="text_3">
      <!-- 100 -->
      <g transform="translate(123.830854 303.028562) scale(0.1 -0.1)">
       <defs>
        <path id="DejaVuSans-31" d="M 794 531 
L 1825 531 
L 1825 4091 
L 703 3866 
L 703 4441 
L 1819 4666 
L 2450 4666 
L 2450 531 
L 3481 531 
L 3481 0 
L 794 0 
L 794 531 
z
" transform="scale(0.015625)"/>
       </defs>
       <use xlink:href="#DejaVuSans-31"/>
       <use xlink:href="#DejaVuSans-30" x="63.623047"/>
       <use xlink:href="#DejaVuSans-30" x="127.246094"/>
      </g>
     </g>
    </g>
    <g id="xtick_4">
     <g id="line2d_4">
      <g>
       <use xlink:href="#mdf6ec4eda8" x="176.89398" y="288.430125" style="stroke: #000000; stroke-width: 0.8"/>
      </g>
     </g>
     <g id="text_4">
      <!-- 150 -->
      <g transform="translate(167.35023 303.028562) scale(0.1 -0.1)">
       <use xlink:href="#DejaVuSans-31"/>
       <use xlink:href="#DejaVuSans-35" x="63.623047"/>
       <use xlink:href="#DejaVuSans-30" x="127.246094"/>
      </g>
     </g>
    </g>
    <g id="xtick_5">
     <g id="line2d_5">
      <g>
       <use xlink:href="#mdf6ec4eda8" x="220.413357" y="288.430125" style="stroke: #000000; stroke-width: 0.8"/>
      </g>
     </g>
     <g id="text_5">
      <!-- 200 -->
      <g transform="translate(210.869607 303.028562) scale(0.1 -0.1)">
       <defs>
        <path id="DejaVuSans-32" d="M 1228 531 
L 3431 531 
L 3431 0 
L 469 0 
L 469 531 
Q 828 903 1448 1529 
Q 2069 2156 2228 2338 
Q 2531 2678 2651 2914 
Q 2772 3150 2772 3378 
Q 2772 3750 2511 3984 
Q 2250 4219 1831 4219 
Q 1534 4219 1204 4116 
Q 875 4013 500 3803 
L 500 4441 
Q 881 4594 1212 4672 
Q 1544 4750 1819 4750 
Q 2544 4750 2975 4387 
Q 3406 4025 3406 3419 
Q 3406 3131 3298 2873 
Q 3191 2616 2906 2266 
Q 2828 2175 2409 1742 
Q 1991 1309 1228 531 
z
" transform="scale(0.015625)"/>
       </defs>
       <use xlink:href="#DejaVuSans-32"/>
       <use xlink:href="#DejaVuSans-30" x="63.623047"/>
       <use xlink:href="#DejaVuSans-30" x="127.246094"/>
      </g>
     </g>
    </g>
    <g id="xtick_6">
     <g id="line2d_6">
      <g>
       <use xlink:href="#mdf6ec4eda8" x="263.932733" y="288.430125" style="stroke: #000000; stroke-width: 0.8"/>
      </g>
     </g>
     <g id="text_6">
      <!-- 250 -->
      <g transform="translate(254.388983 303.028562) scale(0.1 -0.1)">
       <use xlink:href="#DejaVuSans-32"/>
       <use xlink:href="#DejaVuSans-35" x="63.623047"/>
       <use xlink:href="#DejaVuSans-30" x="127.246094"/>
      </g>
     </g>
    </g>
    <g id="xtick_7">
     <g id="line2d_7">
      <g>
       <use xlink:href="#mdf6ec4eda8" x="307.452109" y="288.430125" style="stroke: #000000; stroke-width: 0.8"/>
      </g>
     </g>
     <g id="text_7">
      <!-- 300 -->
      <g transform="translate(297.908359 303.028562) scale(0.1 -0.1)">
       <defs>
        <path id="DejaVuSans-33" d="M 2597 2516 
Q 3050 2419 3304 2112 
Q 3559 1806 3559 1356 
Q 3559 666 3084 287 
Q 2609 -91 1734 -91 
Q 1441 -91 1130 -33 
Q 819 25 488 141 
L 488 750 
Q 750 597 1062 519 
Q 1375 441 1716 441 
Q 2309 441 2620 675 
Q 2931 909 2931 1356 
Q 2931 1769 2642 2001 
Q 2353 2234 1838 2234 
L 1294 2234 
L 1294 2753 
L 1863 2753 
Q 2328 2753 2575 2939 
Q 2822 3125 2822 3475 
Q 2822 3834 2567 4026 
Q 2313 4219 1838 4219 
Q 1578 4219 1281 4162 
Q 984 4106 628 3988 
L 628 4550 
Q 988 4650 1302 4700 
Q 1616 4750 1894 4750 
Q 2613 4750 3031 4423 
Q 3450 4097 3450 3541 
Q 3450 3153 3228 2886 
Q 3006 2619 2597 2516 
z
" transform="scale(0.015625)"/>
       </defs>
       <use xlink:href="#DejaVuSans-33"/>
       <use xlink:href="#DejaVuSans-30" x="63.623047"/>
       <use xlink:href="#DejaVuSans-30" x="127.246094"/>
      </g>
     </g>
    </g>
    <g id="xtick_8">
     <g id="line2d_8">
      <g>
       <use xlink:href="#mdf6ec4eda8" x="350.971485" y="288.430125" style="stroke: #000000; stroke-width: 0.8"/>
      </g>
     </g>
     <g id="text_8">
      <!-- 350 -->
      <g transform="translate(341.427735 303.028562) scale(0.1 -0.1)">
       <use xlink:href="#DejaVuSans-33"/>
       <use xlink:href="#DejaVuSans-35" x="63.623047"/>
       <use xlink:href="#DejaVuSans-30" x="127.246094"/>
      </g>
     </g>
    </g>
   </g>
   <g id="matplotlib.axis_2">
    <g id="ytick_1">
     <g id="line2d_9">
      <defs>
       <path id="mbf629ea20a" d="M 0 0 
L -3.5 0 
" style="stroke: #000000; stroke-width: 0.8"/>
      </defs>
      <g>
       <use xlink:href="#mbf629ea20a" x="30.103125" y="276.334125" style="stroke: #000000; stroke-width: 0.8"/>
      </g>
     </g>
     <g id="text_9">
      <!-- 0.0 -->
      <g transform="translate(7.2 280.133344) scale(0.1 -0.1)">
       <defs>
        <path id="DejaVuSans-2e" d="M 684 794 
L 1344 794 
L 1344 0 
L 684 0 
L 684 794 
z
" transform="scale(0.015625)"/>
       </defs>
       <use xlink:href="#DejaVuSans-30"/>
       <use xlink:href="#DejaVuSans-2e" x="63.623047"/>
       <use xlink:href="#DejaVuSans-30" x="95.410156"/>
      </g>
     </g>
    </g>
    <g id="ytick_2">
     <g id="line2d_10">
      <g>
       <use xlink:href="#mbf629ea20a" x="30.103125" y="235.220476" style="stroke: #000000; stroke-width: 0.8"/>
      </g>
     </g>
     <g id="text_10">
      <!-- 0.5 -->
      <g transform="translate(7.2 239.019694) scale(0.1 -0.1)">
       <use xlink:href="#DejaVuSans-30"/>
       <use xlink:href="#DejaVuSans-2e" x="63.623047"/>
       <use xlink:href="#DejaVuSans-35" x="95.410156"/>
      </g>
     </g>
    </g>
    <g id="ytick_3">
     <g id="line2d_11">
      <g>
       <use xlink:href="#mbf629ea20a" x="30.103125" y="194.106826" style="stroke: #000000; stroke-width: 0.8"/>
      </g>
     </g>
     <g id="text_11">
      <!-- 1.0 -->
      <g transform="translate(7.2 197.906045) scale(0.1 -0.1)">
       <use xlink:href="#DejaVuSans-31"/>
       <use xlink:href="#DejaVuSans-2e" x="63.623047"/>
       <use xlink:href="#DejaVuSans-30" x="95.410156"/>
      </g>
     </g>
    </g>
    <g id="ytick_4">
     <g id="line2d_12">
      <g>
       <use xlink:href="#mbf629ea20a" x="30.103125" y="152.993177" style="stroke: #000000; stroke-width: 0.8"/>
      </g>
     </g>
     <g id="text_12">
      <!-- 1.5 -->
      <g transform="translate(7.2 156.792396) scale(0.1 -0.1)">
       <use xlink:href="#DejaVuSans-31"/>
       <use xlink:href="#DejaVuSans-2e" x="63.623047"/>
       <use xlink:href="#DejaVuSans-35" x="95.410156"/>
      </g>
     </g>
    </g>
    <g id="ytick_5">
     <g id="line2d_13">
      <g>
       <use xlink:href="#mbf629ea20a" x="30.103125" y="111.879528" style="stroke: #000000; stroke-width: 0.8"/>
      </g>
     </g>
     <g id="text_13">
      <!-- 2.0 -->
      <g transform="translate(7.2 115.678746) scale(0.1 -0.1)">
       <use xlink:href="#DejaVuSans-32"/>
       <use xlink:href="#DejaVuSans-2e" x="63.623047"/>
       <use xlink:href="#DejaVuSans-30" x="95.410156"/>
      </g>
     </g>
    </g>
    <g id="ytick_6">
     <g id="line2d_14">
      <g>
       <use xlink:href="#mbf629ea20a" x="30.103125" y="70.765878" style="stroke: #000000; stroke-width: 0.8"/>
      </g>
     </g>
     <g id="text_14">
      <!-- 2.5 -->
      <g transform="translate(7.2 74.565097) scale(0.1 -0.1)">
       <use xlink:href="#DejaVuSans-32"/>
       <use xlink:href="#DejaVuSans-2e" x="63.623047"/>
       <use xlink:href="#DejaVuSans-35" x="95.410156"/>
      </g>
     </g>
    </g>
    <g id="ytick_7">
     <g id="line2d_15">
      <g>
       <use xlink:href="#mbf629ea20a" x="30.103125" y="29.652229" style="stroke: #000000; stroke-width: 0.8"/>
      </g>
     </g>
     <g id="text_15">
      <!-- 3.0 -->
      <g transform="translate(7.2 33.451448) scale(0.1 -0.1)">
       <use xlink:href="#DejaVuSans-33"/>
       <use xlink:href="#DejaVuSans-2e" x="63.623047"/>
       <use xlink:href="#DejaVuSans-30" x="95.410156"/>
      </g>
     </g>
    </g>
   </g>
   <g id="line2d_16">
    <path d="M 46.335852 276.334125 
L 53.298952 276.334125 
L 54.16934 264.366606 
L 55.910115 236.905476 
L 56.780503 244.345946 
L 57.65089 113.133314 
L 58.521278 73.929859 
L 59.391665 69.726552 
L 60.262053 87.30247 
L 61.13244 79.228518 
L 62.002828 109.822626 
L 62.873215 150.106104 
L 63.743603 264.281003 
L 65.484378 234.719015 
L 66.354765 249.608977 
L 67.225153 145.150624 
L 68.09554 118.775622 
L 68.965928 108.873385 
L 69.836315 89.004249 
L 70.706703 96.082599 
L 71.57709 122.076431 
L 72.447478 153.807378 
L 73.317865 259.986916 
L 74.188253 244.325548 
L 75.05864 237.759902 
L 75.929028 235.678898 
L 76.799416 145.323794 
L 77.669803 91.088667 
L 78.540191 79.538185 
L 79.410578 74.995443 
L 80.280966 93.588636 
L 81.151353 115.520281 
L 82.021741 173.497551 
L 82.892128 258.361561 
L 83.762516 247.449045 
L 84.632903 240.246496 
L 85.503291 256.030399 
L 86.373678 127.644303 
L 87.244066 90.101333 
L 88.114453 84.331034 
L 88.984841 87.024656 
L 89.855228 120.23154 
L 90.725616 131.330648 
L 91.596003 157.139117 
L 92.466391 258.400351 
L 93.336778 241.661424 
L 94.207166 229.373195 
L 95.077553 238.304546 
L 95.947941 115.049414 
L 96.818329 74.682815 
L 97.688716 64.294649 
L 98.559104 56.815895 
L 99.429491 65.276742 
L 100.299879 100.398767 
L 101.170266 150.742323 
L 102.040654 259.223307 
L 102.911041 250.986833 
L 103.781429 239.43844 
L 104.651816 237.819083 
L 105.522204 100.271038 
L 106.392591 42.737646 
L 107.262979 45.592494 
L 109.003754 86.273311 
L 109.874141 104.279927 
L 110.744529 155.278296 
L 111.614916 263.216253 
L 112.485304 255.349533 
L 113.355691 243.719718 
L 114.226079 244.99012 
L 115.096466 149.199778 
L 115.966854 95.957018 
L 116.837242 107.307887 
L 117.707629 101.579874 
L 118.578017 87.189908 
L 119.448404 118.082335 
L 120.318792 176.182529 
L 121.189179 259.42271 
L 122.059567 249.982659 
L 122.929954 245.239937 
L 123.800342 253.162811 
L 124.670729 126.717039 
L 125.541117 88.028249 
L 126.411504 81.396276 
L 128.152279 103.393354 
L 129.022667 121.293056 
L 129.893054 170.66541 
L 130.763442 257.216356 
L 131.633829 240.022693 
L 132.504217 232.488996 
L 133.374604 238.962675 
L 134.244992 130.221407 
L 135.115379 92.921888 
L 135.985767 93.656203 
L 136.856154 65.915461 
L 137.726542 96.575204 
L 138.59693 112.146822 
L 139.467317 163.188747 
L 140.337705 264.222288 
L 142.07848 241.527443 
L 142.948867 254.295153 
L 143.819255 119.796821 
L 144.689642 79.695207 
L 145.56003 64.611877 
L 146.430417 65.984045 
L 148.171192 116.417591 
L 149.04158 156.317186 
L 149.911967 257.053225 
L 150.782355 250.204493 
L 151.652742 249.957845 
L 152.52313 253.833692 
L 153.393517 138.572419 
L 154.263905 103.71862 
L 155.134292 89.434583 
L 156.00468 92.488767 
L 156.875067 106.390053 
L 157.745455 132.900051 
L 158.615843 164.305291 
L 159.48623 260.063014 
L 160.356618 246.016463 
L 161.227005 238.962446 
L 162.097393 240.529327 
L 162.96778 125.286875 
L 163.838168 89.684775 
L 164.708555 87.909782 
L 165.578943 66.457693 
L 166.44933 78.15897 
L 167.319718 109.772473 
L 168.190105 149.412071 
L 169.060493 256.607715 
L 169.93088 239.489618 
L 170.801268 234.603171 
L 171.671655 246.046646 
L 172.542043 132.261222 
L 173.41243 93.946452 
L 174.282818 64.224157 
L 175.153205 85.871999 
L 176.023593 115.209695 
L 176.89398 118.518715 
L 177.764368 165.706039 
L 178.634756 263.472073 
L 179.505143 249.726487 
L 180.375531 240.297371 
L 181.245918 246.898256 
L 182.116306 120.246317 
L 182.986693 91.734988 
L 183.857081 81.942157 
L 184.727468 105.005261 
L 185.597856 106.112086 
L 187.338631 154.605149 
L 188.209018 263.396341 
L 189.079406 248.774152 
L 189.949793 246.48118 
L 190.820181 246.723625 
L 191.690568 116.395772 
L 192.560956 62.23469 
L 193.431343 64.15108 
L 194.301731 61.483825 
L 195.172118 82.370967 
L 196.912893 161.377089 
L 197.783281 257.944351 
L 198.653669 251.916115 
L 199.524056 248.683405 
L 200.394444 252.738198 
L 201.264831 114.20821 
L 202.135219 52.112483 
L 203.005606 48.007921 
L 203.875994 66.782083 
L 204.746381 54.849089 
L 206.487156 146.269387 
L 207.357544 248.911946 
L 208.227931 227.977693 
L 209.098319 228.86612 
L 209.968706 242.727687 
L 210.839094 142.008135 
L 211.709481 100.471454 
L 212.579869 80.17681 
L 213.450256 72.208675 
L 214.320644 93.474816 
L 215.191031 118.753296 
L 216.061419 162.743847 
L 216.931806 260.109546 
L 217.802194 252.350301 
L 218.672581 249.242985 
L 219.542969 250.183206 
L 220.413357 108.512799 
L 221.283744 67.161016 
L 222.154132 56.4441 
L 223.024519 65.199161 
L 223.894907 79.984918 
L 224.765294 90.73027 
L 225.635682 143.400465 
L 226.506069 265.902247 
L 227.376457 251.224401 
L 228.246844 243.169859 
L 229.117232 245.07435 
L 229.987619 118.534931 
L 231.728394 69.506483 
L 232.598782 74.607875 
L 233.469169 90.643601 
L 234.339557 122.164994 
L 235.209944 174.714628 
L 236.080332 256.139973 
L 236.950719 247.241415 
L 237.821107 236.568845 
L 238.691494 244.888617 
L 239.561882 151.695788 
L 240.43227 100.268068 
L 241.302657 100.343956 
L 242.173045 79.885636 
L 243.043432 91.974326 
L 243.91382 123.951241 
L 244.784207 166.271227 
L 245.654595 258.734723 
L 246.524982 250.391949 
L 247.39537 244.462866 
L 248.265757 254.412308 
L 249.136145 146.905797 
L 250.006532 84.079854 
L 250.87692 80.997201 
L 251.747307 79.217748 
L 252.617695 115.001546 
L 253.488082 134.407457 
L 254.35847 172.135386 
L 255.228857 253.354781 
L 256.099245 243.963989 
L 256.969632 247.886982 
L 257.84002 247.096965 
L 258.710407 132.482676 
L 259.580795 90.403601 
L 260.451183 70.420366 
L 261.32157 34.414125 
L 263.062345 143.356609 
L 263.932733 164.879063 
L 264.80312 261.387135 
L 265.673508 253.577849 
L 266.543895 243.939321 
L 267.414283 248.650055 
L 268.28467 99.189424 
L 269.155058 53.370854 
L 270.025445 34.906211 
L 270.895833 39.982915 
L 271.76622 65.914039 
L 273.506995 161.529987 
L 274.377383 261.673886 
L 275.24777 246.303192 
L 276.118158 238.083834 
L 276.988545 242.458564 
L 277.858933 131.931541 
L 278.72932 109.388641 
L 279.599708 80.299766 
L 280.470096 77.438144 
L 281.340483 97.914777 
L 282.210871 130.700939 
L 283.081258 175.744458 
L 283.951646 266.57423 
L 284.822033 250.147598 
L 285.692421 244.211625 
L 286.562808 251.455883 
L 287.433196 139.726748 
L 288.303583 100.091828 
L 289.173971 94.033816 
L 290.044358 93.078399 
L 290.914746 101.602974 
L 291.785133 108.80047 
L 292.655521 158.815799 
L 293.525908 259.263866 
L 294.396296 240.913758 
L 295.266683 232.997214 
L 296.137071 247.996747 
L 297.007458 132.798378 
L 297.877846 113.482692 
L 298.748233 114.163035 
L 299.618621 99.218113 
L 300.489008 105.108472 
L 301.359396 125.806423 
L 302.229784 171.719591 
L 303.100171 259.214951 
L 303.970559 250.743469 
L 304.840946 246.226332 
L 305.711334 251.923039 
L 306.581721 131.724239 
L 307.452109 111.693662 
L 308.322496 74.543141 
L 309.192884 61.970551 
L 310.063271 76.134057 
L 310.933659 113.571217 
L 311.804046 169.125457 
L 312.674434 258.963633 
L 313.544821 241.122196 
L 314.415209 231.322285 
L 315.285596 243.276427 
L 316.155984 119.119493 
L 317.026371 89.257977 
L 317.896759 87.981397 
L 318.767146 89.474329 
L 319.637534 102.977093 
L 320.507921 126.186633 
L 321.378309 157.608096 
L 322.248697 262.356527 
L 323.119084 243.639225 
L 323.989472 228.575029 
L 324.859859 242.744281 
L 325.730247 125.670422 
L 326.600634 86.858744 
L 327.471022 96.296822 
L 328.341409 95.18977 
L 329.211797 95.36157 
L 330.082184 121.754113 
L 330.952572 154.440945 
L 331.822959 263.241645 
L 332.693347 251.786775 
L 333.563734 244.247696 
L 334.434122 251.615868 
L 335.304509 145.511383 
L 336.174897 97.435485 
L 337.045284 63.209573 
L 337.915672 76.129383 
L 339.656447 119.0996 
L 340.526834 162.893557 
L 341.397222 262.92475 
L 342.26761 251.646151 
L 343.137997 245.940635 
L 344.008385 241.072946 
L 344.878772 124.386483 
L 345.74916 89.130913 
L 346.619547 69.701654 
L 347.489935 62.779096 
L 348.360322 85.965091 
L 350.101097 162.592634 
L 350.971485 260.045092 
L 351.841872 236.735469 
L 352.71226 245.941042 
L 353.582647 249.159046 
L 354.453035 126.592287 
L 355.323422 79.028413 
L 356.19381 76.304118 
L 357.064197 67.141484 
L 357.934585 82.396351 
L 358.804972 117.528258 
L 359.67536 170.258943 
L 360.545747 255.165913 
L 362.286523 231.418259 
L 363.15691 239.49043 
L 364.027298 109.031728 
L 364.897685 86.081696 
L 365.768073 99.67713 
L 366.63846 101.77834 
L 367.508848 101.005728 
L 368.379235 94.819501 
L 369.249623 158.012713 
L 370.12001 276.334125 
L 370.990398 276.334125 
L 370.990398 276.334125 
" clip-path="url(#p82c835c55c)" style="fill: none; stroke: #1f77b4; stroke-width: 1.5; stroke-linecap: square"/>
   </g>
   <g id="patch_3">
    <path d="M 30.103125 288.430125 
L 30.103125 22.318125 
" style="fill: none; stroke: #000000; stroke-width: 0.8; stroke-linejoin: miter; stroke-linecap: square"/>
   </g>
   <g id="patch_4">
    <path d="M 387.223125 288.430125 
L 387.223125 22.318125 
" style="fill: none; stroke: #000000; stroke-width: 0.8; stroke-linejoin: miter; stroke-linecap: square"/>
   </g>
   <g id="patch_5">
    <path d="M 30.103125 288.430125 
L 387.223125 288.430125 
" style="fill: none; stroke: #000000; stroke-width: 0.8; stroke-linejoin: miter; stroke-linecap: square"/>
   </g>
   <g id="patch_6">
    <path d="M 30.103125 22.318125 
L 387.223125 22.318125 
" style="fill: none; stroke: #000000; stroke-width: 0.8; stroke-linejoin: miter; stroke-linecap: square"/>
   </g>
   <g id="text_16">
    <!-- Thermal Flux -->
    <g transform="translate(169.575938 16.318125) scale(0.12 -0.12)">
     <defs>
      <path id="DejaVuSans-54" d="M -19 4666 
L 3928 4666 
L 3928 4134 
L 2272 4134 
L 2272 0 
L 1638 0 
L 1638 4134 
L -19 4134 
L -19 4666 
z
" transform="scale(0.015625)"/>
      <path id="DejaVuSans-68" d="M 3513 2113 
L 3513 0 
L 2938 0 
L 2938 2094 
Q 2938 2591 2744 2837 
Q 2550 3084 2163 3084 
Q 1697 3084 1428 2787 
Q 1159 2491 1159 1978 
L 1159 0 
L 581 0 
L 581 4863 
L 1159 4863 
L 1159 2956 
Q 1366 3272 1645 3428 
Q 1925 3584 2291 3584 
Q 2894 3584 3203 3211 
Q 3513 2838 3513 2113 
z
" transform="scale(0.015625)"/>
      <path id="DejaVuSans-65" d="M 3597 1894 
L 3597 1613 
L 953 1613 
Q 991 1019 1311 708 
Q 1631 397 2203 397 
Q 2534 397 2845 478 
Q 3156 559 3463 722 
L 3463 178 
Q 3153 47 2828 -22 
Q 2503 -91 2169 -91 
Q 1331 -91 842 396 
Q 353 884 353 1716 
Q 353 2575 817 3079 
Q 1281 3584 2069 3584 
Q 2775 3584 3186 3129 
Q 3597 2675 3597 1894 
z
M 3022 2063 
Q 3016 2534 2758 2815 
Q 2500 3097 2075 3097 
Q 1594 3097 1305 2825 
Q 1016 2553 972 2059 
L 3022 2063 
z
" transform="scale(0.015625)"/>
      <path id="DejaVuSans-72" d="M 2631 2963 
Q 2534 3019 2420 3045 
Q 2306 3072 2169 3072 
Q 1681 3072 1420 2755 
Q 1159 2438 1159 1844 
L 1159 0 
L 581 0 
L 581 3500 
L 1159 3500 
L 1159 2956 
Q 1341 3275 1631 3429 
Q 1922 3584 2338 3584 
Q 2397 3584 2469 3576 
Q 2541 3569 2628 3553 
L 2631 2963 
z
" transform="scale(0.015625)"/>
      <path id="DejaVuSans-6d" d="M 3328 2828 
Q 3544 3216 3844 3400 
Q 4144 3584 4550 3584 
Q 5097 3584 5394 3201 
Q 5691 2819 5691 2113 
L 5691 0 
L 5113 0 
L 5113 2094 
Q 5113 2597 4934 2840 
Q 4756 3084 4391 3084 
Q 3944 3084 3684 2787 
Q 3425 2491 3425 1978 
L 3425 0 
L 2847 0 
L 2847 2094 
Q 2847 2600 2669 2842 
Q 2491 3084 2119 3084 
Q 1678 3084 1418 2786 
Q 1159 2488 1159 1978 
L 1159 0 
L 581 0 
L 581 3500 
L 1159 3500 
L 1159 2956 
Q 1356 3278 1631 3431 
Q 1906 3584 2284 3584 
Q 2666 3584 2933 3390 
Q 3200 3197 3328 2828 
z
" transform="scale(0.015625)"/>
      <path id="DejaVuSans-61" d="M 2194 1759 
Q 1497 1759 1228 1600 
Q 959 1441 959 1056 
Q 959 750 1161 570 
Q 1363 391 1709 391 
Q 2188 391 2477 730 
Q 2766 1069 2766 1631 
L 2766 1759 
L 2194 1759 
z
M 3341 1997 
L 3341 0 
L 2766 0 
L 2766 531 
Q 2569 213 2275 61 
Q 1981 -91 1556 -91 
Q 1019 -91 701 211 
Q 384 513 384 1019 
Q 384 1609 779 1909 
Q 1175 2209 1959 2209 
L 2766 2209 
L 2766 2266 
Q 2766 2663 2505 2880 
Q 2244 3097 1772 3097 
Q 1472 3097 1187 3025 
Q 903 2953 641 2809 
L 641 3341 
Q 956 3463 1253 3523 
Q 1550 3584 1831 3584 
Q 2591 3584 2966 3190 
Q 3341 2797 3341 1997 
z
" transform="scale(0.015625)"/>
      <path id="DejaVuSans-6c" d="M 603 4863 
L 1178 4863 
L 1178 0 
L 603 0 
L 603 4863 
z
" transform="scale(0.015625)"/>
      <path id="DejaVuSans-20" transform="scale(0.015625)"/>
      <path id="DejaVuSans-46" d="M 628 4666 
L 3309 4666 
L 3309 4134 
L 1259 4134 
L 1259 2759 
L 3109 2759 
L 3109 2228 
L 1259 2228 
L 1259 0 
L 628 0 
L 628 4666 
z
" transform="scale(0.015625)"/>
      <path id="DejaVuSans-75" d="M 544 1381 
L 544 3500 
L 1119 3500 
L 1119 1403 
Q 1119 906 1312 657 
Q 1506 409 1894 409 
Q 2359 409 2629 706 
Q 2900 1003 2900 1516 
L 2900 3500 
L 3475 3500 
L 3475 0 
L 2900 0 
L 2900 538 
Q 2691 219 2414 64 
Q 2138 -91 1772 -91 
Q 1169 -91 856 284 
Q 544 659 544 1381 
z
M 1991 3584 
L 1991 3584 
z
" transform="scale(0.015625)"/>
      <path id="DejaVuSans-78" d="M 3513 3500 
L 2247 1797 
L 3578 0 
L 2900 0 
L 1881 1375 
L 863 0 
L 184 0 
L 1544 1831 
L 300 3500 
L 978 3500 
L 1906 2253 
L 2834 3500 
L 3513 3500 
z
" transform="scale(0.015625)"/>
     </defs>
     <use xlink:href="#DejaVuSans-54"/>
     <use xlink:href="#DejaVuSans-68" x="61.083984"/>
     <use xlink:href="#DejaVuSans-65" x="124.462891"/>
     <use xlink:href="#DejaVuSans-72" x="185.986328"/>
     <use xlink:href="#DejaVuSans-6d" x="225.349609"/>
     <use xlink:href="#DejaVuSans-61" x="322.761719"/>
     <use xlink:href="#DejaVuSans-6c" x="384.041016"/>
     <use xlink:href="#DejaVuSans-20" x="411.824219"/>
     <use xlink:href="#DejaVuSans-46" x="443.611328"/>
     <use xlink:href="#DejaVuSans-6c" x="501.130859"/>
     <use xlink:href="#DejaVuSans-75" x="528.914062"/>
     <use xlink:href="#DejaVuSans-78" x="592.292969"/>
    </g>
   </g>
  </g>
 </g>
 <defs>
  <clipPath id="p82c835c55c">
   <rect x="30.103125" y="22.318125" width="357.12" height="266.112"/>
  </clipPath>
 </defs>
</svg>
