<?xml version="1.0" encoding="utf-8" standalone="no"?>
<!DOCTYPE svg PUBLIC "-//W3C//DTD SVG 1.1//EN"
  "http://www.w3.org/Graphics/SVG/1.1/DTD/svg11.dtd">
<svg xmlns:xlink="http://www.w3.org/1999/xlink" width="394.423125pt" height="312.30825pt" viewBox="0 0 394.423125 312.30825" xmlns="http://www.w3.org/2000/svg" version="1.1">
 <metadata>
  <rdf:RDF xmlns:dc="http://purl.org/dc/elements/1.1/" xmlns:cc="http://creativecommons.org/ns#" xmlns:rdf="http://www.w3.org/1999/02/22-rdf-syntax-ns#">
   <cc:Work>
    <dc:type rdf:resource="http://purl.org/dc/dcmitype/StillImage"/>
    <dc:date>2024-03-20T20:13:31.103279</dc:date>
    <dc:format>image/svg+xml</dc:format>
    <dc:creator>
     <cc:Agent>
      <dc:title>Matplotlib v3.8.3, https://matplotlib.org/</dc:title>
     </cc:Agent>
    </dc:creator>
   </cc:Work>
  </rdf:RDF>
 </metadata>
 <defs>
  <style type="text/css">*{stroke-linejoin: round; stroke-linecap: butt}</style>
 </defs>
 <g id="figure_1">
  <g id="patch_1">
   <path d="M 0 312.30825 
L 394.423125 312.30825 
L 394.423125 0 
L 0 0 
z
" style="fill: #ffffff"/>
  </g>
  <g id="axes_1">
   <g id="patch_2">
    <path d="M 30.103125 288.430125 
L 387.223125 288.430125 
L 387.223125 22.318125 
L 30.103125 22.318125 
z
" style="fill: #ffffff"/>
   </g>
   <g id="matplotlib.axis_1">
    <g id="xtick_1">
     <g id="line2d_1">
      <defs>
       <path id="mf83f554ac9" d="M 0 0 
L 0 3.5 
" style="stroke: #000000; stroke-width: 0.8"/>
      </defs>
      <g>
       <use xlink:href="#mf83f554ac9" x="30.103125" y="288.430125" style="stroke: #000000; stroke-width: 0.8"/>
      </g>
     </g>
     <g id="text_1">
      <!-- 0 -->
      <g transform="translate(26.921875 303.028562) scale(0.1 -0.1)">
       <defs>
        <path id="DejaVuSans-30" d="M 2034 4250 
Q 1547 4250 1301 3770 
Q 1056 3291 1056 2328 
Q 1056 1369 1301 889 
Q 1547 409 2034 409 
Q 2525 409 2770 889 
Q 3016 1369 3016 2328 
Q 3016 3291 2770 3770 
Q 2525 4250 2034 4250 
z
M 2034 4750 
Q 2819 4750 3233 4129 
Q 3647 3509 3647 2328 
Q 3647 1150 3233 529 
Q 2819 -91 2034 -91 
Q 1250 -91 836 529 
Q 422 1150 422 2328 
Q 422 3509 836 4129 
Q 1250 4750 2034 4750 
z
" transform="scale(0.015625)"/>
       </defs>
       <use xlink:href="#DejaVuSans-30"/>
      </g>
     </g>
    </g>
    <g id="xtick_2">
     <g id="line2d_2">
      <g>
       <use xlink:href="#mf83f554ac9" x="71.927452" y="288.430125" style="stroke: #000000; stroke-width: 0.8"/>
      </g>
     </g>
     <g id="text_2">
      <!-- 5 -->
      <g transform="translate(68.746202 303.028562) scale(0.1 -0.1)">
       <defs>
        <path id="DejaVuSans-35" d="M 691 4666 
L 3169 4666 
L 3169 4134 
L 1269 4134 
L 1269 2991 
Q 1406 3038 1543 3061 
Q 1681 3084 1819 3084 
Q 2600 3084 3056 2656 
Q 3513 2228 3513 1497 
Q 3513 744 3044 326 
Q 2575 -91 1722 -91 
Q 1428 -91 1123 -41 
Q 819 9 494 109 
L 494 744 
Q 775 591 1075 516 
Q 1375 441 1709 441 
Q 2250 441 2565 725 
Q 2881 1009 2881 1497 
Q 2881 1984 2565 2268 
Q 2250 2553 1709 2553 
Q 1456 2553 1204 2497 
Q 953 2441 691 2322 
L 691 4666 
z
" transform="scale(0.015625)"/>
       </defs>
       <use xlink:href="#DejaVuSans-35"/>
      </g>
     </g>
    </g>
    <g id="xtick_3">
     <g id="line2d_3">
      <g>
       <use xlink:href="#mf83f554ac9" x="113.751778" y="288.430125" style="stroke: #000000; stroke-width: 0.8"/>
      </g>
     </g>
     <g id="text_3">
      <!-- 10 -->
      <g transform="translate(107.389278 303.028562) scale(0.1 -0.1)">
       <defs>
        <path id="DejaVuSans-31" d="M 794 531 
L 1825 531 
L 1825 4091 
L 703 3866 
L 703 4441 
L 1819 4666 
L 2450 4666 
L 2450 531 
L 3481 531 
L 3481 0 
L 794 0 
L 794 531 
z
" transform="scale(0.015625)"/>
       </defs>
       <use xlink:href="#DejaVuSans-31"/>
       <use xlink:href="#DejaVuSans-30" x="63.623047"/>
      </g>
     </g>
    </g>
    <g id="xtick_4">
     <g id="line2d_4">
      <g>
       <use xlink:href="#mf83f554ac9" x="155.576105" y="288.430125" style="stroke: #000000; stroke-width: 0.8"/>
      </g>
     </g>
     <g id="text_4">
      <!-- 15 -->
      <g transform="translate(149.213605 303.028562) scale(0.1 -0.1)">
       <use xlink:href="#DejaVuSans-31"/>
       <use xlink:href="#DejaVuSans-35" x="63.623047"/>
      </g>
     </g>
    </g>
    <g id="xtick_5">
     <g id="line2d_5">
      <g>
       <use xlink:href="#mf83f554ac9" x="197.400431" y="288.430125" style="stroke: #000000; stroke-width: 0.8"/>
      </g>
     </g>
     <g id="text_5">
      <!-- 20 -->
      <g transform="translate(191.037931 303.028562) scale(0.1 -0.1)">
       <defs>
        <path id="DejaVuSans-32" d="M 1228 531 
L 3431 531 
L 3431 0 
L 469 0 
L 469 531 
Q 828 903 1448 1529 
Q 2069 2156 2228 2338 
Q 2531 2678 2651 2914 
Q 2772 3150 2772 3378 
Q 2772 3750 2511 3984 
Q 2250 4219 1831 4219 
Q 1534 4219 1204 4116 
Q 875 4013 500 3803 
L 500 4441 
Q 881 4594 1212 4672 
Q 1544 4750 1819 4750 
Q 2544 4750 2975 4387 
Q 3406 4025 3406 3419 
Q 3406 3131 3298 2873 
Q 3191 2616 2906 2266 
Q 2828 2175 2409 1742 
Q 1991 1309 1228 531 
z
" transform="scale(0.015625)"/>
       </defs>
       <use xlink:href="#DejaVuSans-32"/>
       <use xlink:href="#DejaVuSans-30" x="63.623047"/>
      </g>
     </g>
    </g>
    <g id="xtick_6">
     <g id="line2d_6">
      <g>
       <use xlink:href="#mf83f554ac9" x="239.224758" y="288.430125" style="stroke: #000000; stroke-width: 0.8"/>
      </g>
     </g>
     <g id="text_6">
      <!-- 25 -->
      <g transform="translate(232.862258 303.028562) scale(0.1 -0.1)">
       <use xlink:href="#DejaVuSans-32"/>
       <use xlink:href="#DejaVuSans-35" x="63.623047"/>
      </g>
     </g>
    </g>
    <g id="xtick_7">
     <g id="line2d_7">
      <g>
       <use xlink:href="#mf83f554ac9" x="281.049085" y="288.430125" style="stroke: #000000; stroke-width: 0.8"/>
      </g>
     </g>
     <g id="text_7">
      <!-- 30 -->
      <g transform="translate(274.686585 303.028562) scale(0.1 -0.1)">
       <defs>
        <path id="DejaVuSans-33" d="M 2597 2516 
Q 3050 2419 3304 2112 
Q 3559 1806 3559 1356 
Q 3559 666 3084 287 
Q 2609 -91 1734 -91 
Q 1441 -91 1130 -33 
Q 819 25 488 141 
L 488 750 
Q 750 597 1062 519 
Q 1375 441 1716 441 
Q 2309 441 2620 675 
Q 2931 909 2931 1356 
Q 2931 1769 2642 2001 
Q 2353 2234 1838 2234 
L 1294 2234 
L 1294 2753 
L 1863 2753 
Q 2328 2753 2575 2939 
Q 2822 3125 2822 3475 
Q 2822 3834 2567 4026 
Q 2313 4219 1838 4219 
Q 1578 4219 1281 4162 
Q 984 4106 628 3988 
L 628 4550 
Q 988 4650 1302 4700 
Q 1616 4750 1894 4750 
Q 2613 4750 3031 4423 
Q 3450 4097 3450 3541 
Q 3450 3153 3228 2886 
Q 3006 2619 2597 2516 
z
" transform="scale(0.015625)"/>
       </defs>
       <use xlink:href="#DejaVuSans-33"/>
       <use xlink:href="#DejaVuSans-30" x="63.623047"/>
      </g>
     </g>
    </g>
    <g id="xtick_8">
     <g id="line2d_8">
      <g>
       <use xlink:href="#mf83f554ac9" x="322.873411" y="288.430125" style="stroke: #000000; stroke-width: 0.8"/>
      </g>
     </g>
     <g id="text_8">
      <!-- 35 -->
      <g transform="translate(316.510911 303.028562) scale(0.1 -0.1)">
       <use xlink:href="#DejaVuSans-33"/>
       <use xlink:href="#DejaVuSans-35" x="63.623047"/>
      </g>
     </g>
    </g>
    <g id="xtick_9">
     <g id="line2d_9">
      <g>
       <use xlink:href="#mf83f554ac9" x="364.697738" y="288.430125" style="stroke: #000000; stroke-width: 0.8"/>
      </g>
     </g>
     <g id="text_9">
      <!-- 40 -->
      <g transform="translate(358.335238 303.028562) scale(0.1 -0.1)">
       <defs>
        <path id="DejaVuSans-34" d="M 2419 4116 
L 825 1625 
L 2419 1625 
L 2419 4116 
z
M 2253 4666 
L 3047 4666 
L 3047 1625 
L 3713 1625 
L 3713 1100 
L 3047 1100 
L 3047 0 
L 2419 0 
L 2419 1100 
L 313 1100 
L 313 1709 
L 2253 4666 
z
" transform="scale(0.015625)"/>
       </defs>
       <use xlink:href="#DejaVuSans-34"/>
       <use xlink:href="#DejaVuSans-30" x="63.623047"/>
      </g>
     </g>
    </g>
   </g>
   <g id="matplotlib.axis_2">
    <g id="ytick_1">
     <g id="line2d_10">
      <defs>
       <path id="m36092c62a2" d="M 0 0 
L -3.5 0 
" style="stroke: #000000; stroke-width: 0.8"/>
      </defs>
      <g>
       <use xlink:href="#m36092c62a2" x="30.103125" y="263.978586" style="stroke: #000000; stroke-width: 0.8"/>
      </g>
     </g>
     <g id="text_10">
      <!-- 2.4 -->
      <g transform="translate(7.2 267.777804) scale(0.1 -0.1)">
       <defs>
        <path id="DejaVuSans-2e" d="M 684 794 
L 1344 794 
L 1344 0 
L 684 0 
L 684 794 
z
" transform="scale(0.015625)"/>
       </defs>
       <use xlink:href="#DejaVuSans-32"/>
       <use xlink:href="#DejaVuSans-2e" x="63.623047"/>
       <use xlink:href="#DejaVuSans-34" x="95.410156"/>
      </g>
     </g>
    </g>
    <g id="ytick_2">
     <g id="line2d_11">
      <g>
       <use xlink:href="#m36092c62a2" x="30.103125" y="210.770915" style="stroke: #000000; stroke-width: 0.8"/>
      </g>
     </g>
     <g id="text_11">
      <!-- 2.6 -->
      <g transform="translate(7.2 214.570133) scale(0.1 -0.1)">
       <defs>
        <path id="DejaVuSans-36" d="M 2113 2584 
Q 1688 2584 1439 2293 
Q 1191 2003 1191 1497 
Q 1191 994 1439 701 
Q 1688 409 2113 409 
Q 2538 409 2786 701 
Q 3034 994 3034 1497 
Q 3034 2003 2786 2293 
Q 2538 2584 2113 2584 
z
M 3366 4563 
L 3366 3988 
Q 3128 4100 2886 4159 
Q 2644 4219 2406 4219 
Q 1781 4219 1451 3797 
Q 1122 3375 1075 2522 
Q 1259 2794 1537 2939 
Q 1816 3084 2150 3084 
Q 2853 3084 3261 2657 
Q 3669 2231 3669 1497 
Q 3669 778 3244 343 
Q 2819 -91 2113 -91 
Q 1303 -91 875 529 
Q 447 1150 447 2328 
Q 447 3434 972 4092 
Q 1497 4750 2381 4750 
Q 2619 4750 2861 4703 
Q 3103 4656 3366 4563 
z
" transform="scale(0.015625)"/>
       </defs>
       <use xlink:href="#DejaVuSans-32"/>
       <use xlink:href="#DejaVuSans-2e" x="63.623047"/>
       <use xlink:href="#DejaVuSans-36" x="95.410156"/>
      </g>
     </g>
    </g>
    <g id="ytick_3">
     <g id="line2d_12">
      <g>
       <use xlink:href="#m36092c62a2" x="30.103125" y="157.563243" style="stroke: #000000; stroke-width: 0.8"/>
      </g>
     </g>
     <g id="text_12">
      <!-- 2.8 -->
      <g transform="translate(7.2 161.362462) scale(0.1 -0.1)">
       <defs>
        <path id="DejaVuSans-38" d="M 2034 2216 
Q 1584 2216 1326 1975 
Q 1069 1734 1069 1313 
Q 1069 891 1326 650 
Q 1584 409 2034 409 
Q 2484 409 2743 651 
Q 3003 894 3003 1313 
Q 3003 1734 2745 1975 
Q 2488 2216 2034 2216 
z
M 1403 2484 
Q 997 2584 770 2862 
Q 544 3141 544 3541 
Q 544 4100 942 4425 
Q 1341 4750 2034 4750 
Q 2731 4750 3128 4425 
Q 3525 4100 3525 3541 
Q 3525 3141 3298 2862 
Q 3072 2584 2669 2484 
Q 3125 2378 3379 2068 
Q 3634 1759 3634 1313 
Q 3634 634 3220 271 
Q 2806 -91 2034 -91 
Q 1263 -91 848 271 
Q 434 634 434 1313 
Q 434 1759 690 2068 
Q 947 2378 1403 2484 
z
M 1172 3481 
Q 1172 3119 1398 2916 
Q 1625 2713 2034 2713 
Q 2441 2713 2670 2916 
Q 2900 3119 2900 3481 
Q 2900 3844 2670 4047 
Q 2441 4250 2034 4250 
Q 1625 4250 1398 4047 
Q 1172 3844 1172 3481 
z
" transform="scale(0.015625)"/>
       </defs>
       <use xlink:href="#DejaVuSans-32"/>
       <use xlink:href="#DejaVuSans-2e" x="63.623047"/>
       <use xlink:href="#DejaVuSans-38" x="95.410156"/>
      </g>
     </g>
    </g>
    <g id="ytick_4">
     <g id="line2d_13">
      <g>
       <use xlink:href="#m36092c62a2" x="30.103125" y="104.355572" style="stroke: #000000; stroke-width: 0.8"/>
      </g>
     </g>
     <g id="text_13">
      <!-- 3.0 -->
      <g transform="translate(7.2 108.154791) scale(0.1 -0.1)">
       <use xlink:href="#DejaVuSans-33"/>
       <use xlink:href="#DejaVuSans-2e" x="63.623047"/>
       <use xlink:href="#DejaVuSans-30" x="95.410156"/>
      </g>
     </g>
    </g>
    <g id="ytick_5">
     <g id="line2d_14">
      <g>
       <use xlink:href="#m36092c62a2" x="30.103125" y="51.147901" style="stroke: #000000; stroke-width: 0.8"/>
      </g>
     </g>
     <g id="text_14">
      <!-- 3.2 -->
      <g transform="translate(7.2 54.94712) scale(0.1 -0.1)">
       <use xlink:href="#DejaVuSans-33"/>
       <use xlink:href="#DejaVuSans-2e" x="63.623047"/>
       <use xlink:href="#DejaVuSans-32" x="95.410156"/>
      </g>
     </g>
    </g>
    <g id="text_15">
     <!-- 1e16 -->
     <g transform="translate(30.103125 19.318125) scale(0.1 -0.1)">
      <defs>
       <path id="DejaVuSans-65" d="M 3597 1894 
L 3597 1613 
L 953 1613 
Q 991 1019 1311 708 
Q 1631 397 2203 397 
Q 2534 397 2845 478 
Q 3156 559 3463 722 
L 3463 178 
Q 3153 47 2828 -22 
Q 2503 -91 2169 -91 
Q 1331 -91 842 396 
Q 353 884 353 1716 
Q 353 2575 817 3079 
Q 1281 3584 2069 3584 
Q 2775 3584 3186 3129 
Q 3597 2675 3597 1894 
z
M 3022 2063 
Q 3016 2534 2758 2815 
Q 2500 3097 2075 3097 
Q 1594 3097 1305 2825 
Q 1016 2553 972 2059 
L 3022 2063 
z
" transform="scale(0.015625)"/>
      </defs>
      <use xlink:href="#DejaVuSans-31"/>
      <use xlink:href="#DejaVuSans-65" x="63.623047"/>
      <use xlink:href="#DejaVuSans-31" x="125.146484"/>
      <use xlink:href="#DejaVuSans-36" x="188.769531"/>
     </g>
    </g>
   </g>
   <g id="line2d_15">
    <path d="M 30.103125 177.23908 
L 31.060551 182.242746 
L 32.975404 240.957299 
L 33.93283 243.881756 
L 34.890256 260.215905 
L 35.847683 239.533909 
L 36.805109 210.301786 
L 38.719961 168.255706 
L 39.677388 138.40561 
L 40.634814 138.371843 
L 41.59224 141.624479 
L 42.549667 194.347842 
L 43.507093 217.183523 
L 44.464519 232.391946 
L 46.379372 227.135382 
L 47.336798 219.913217 
L 48.294224 193.49884 
L 49.25165 158.680767 
L 50.209077 148.976097 
L 51.166503 143.779108 
L 52.123929 154.611648 
L 53.081356 186.747379 
L 54.038782 208.676886 
L 55.953634 242.322883 
L 56.911061 229.452713 
L 57.868487 220.270969 
L 58.825913 218.49458 
L 59.783339 196.277035 
L 60.740766 181.810388 
L 61.698192 171.896166 
L 62.655618 198.579203 
L 63.613045 222.155172 
L 64.570471 227.529682 
L 65.527897 236.8392 
L 66.485323 242.459988 
L 67.44275 235.80472 
L 68.400176 219.732897 
L 69.357602 208.567035 
L 70.315028 157.593157 
L 71.272455 151.918709 
L 72.229881 148.401318 
L 73.187307 153.597897 
L 74.144734 201.696395 
L 75.10216 215.909129 
L 76.059586 219.451818 
L 77.017012 209.442086 
L 77.974439 211.730888 
L 78.931865 191.1353 
L 79.889291 184.636723 
L 80.846717 163.41786 
L 81.804144 139.114968 
L 82.76157 138.97333 
L 83.718996 156.118554 
L 84.676423 179.693871 
L 85.633849 194.129263 
L 86.591275 169.078889 
L 87.548701 155.760563 
L 88.506128 136.094622 
L 89.463554 143.471151 
L 90.42098 163.50349 
L 91.378407 201.180267 
L 92.335833 211.113847 
L 93.293259 202.012423 
L 94.250685 217.515685 
L 95.208112 222.554293 
L 96.165538 217.930005 
L 97.122964 202.234772 
L 98.08039 175.476977 
L 99.037817 164.589713 
L 99.995243 152.349385 
L 100.952669 169.309461 
L 101.910096 200.510113 
L 102.867522 223.937765 
L 103.824948 233.272915 
L 104.782374 232.490348 
L 105.739801 230.384635 
L 106.697227 205.46635 
L 107.654653 202.235579 
L 108.612079 166.530997 
L 109.569506 153.581161 
L 110.526932 172.900306 
L 111.484358 179.790989 
L 112.441785 214.739982 
L 114.356637 257.537752 
L 115.314063 263.741723 
L 116.27149 248.337943 
L 117.228916 238.665686 
L 118.186342 221.611304 
L 119.143768 195.307409 
L 120.101195 187.768436 
L 121.058621 175.818474 
L 122.016047 188.041308 
L 122.973474 221.011093 
L 123.9309 227.037796 
L 124.888326 227.445599 
L 125.845752 245.669868 
L 126.803179 235.012461 
L 127.760605 234.047271 
L 128.718031 212.827394 
L 129.675457 174.123917 
L 130.632884 178.050455 
L 132.547736 187.904529 
L 134.462589 243.243924 
L 135.420015 256.338562 
L 136.377441 265.473236 
L 137.334868 254.297642 
L 138.292294 255.549893 
L 139.24972 242.321118 
L 140.207146 196.093323 
L 141.164573 187.593037 
L 142.121999 185.756829 
L 143.079425 197.251866 
L 144.036852 216.098691 
L 144.994278 237.933756 
L 145.951704 264.674459 
L 146.90913 273.819188 
L 147.866557 276.334125 
L 148.823983 267.865579 
L 151.696262 185.531474 
L 152.653688 184.36278 
L 153.611114 196.716959 
L 154.568541 225.555729 
L 155.525967 229.294989 
L 156.483393 262.745747 
L 157.440819 268.202608 
L 158.398246 265.936877 
L 159.355672 257.18626 
L 160.313098 231.011864 
L 161.270524 189.528659 
L 162.227951 180.366838 
L 163.185377 185.525353 
L 164.142803 184.325698 
L 165.10023 222.842993 
L 166.057656 245.212532 
L 167.015082 251.664328 
L 167.972508 247.924972 
L 168.929935 256.784753 
L 169.887361 252.827086 
L 170.844787 229.784444 
L 171.802213 188.87744 
L 172.75964 173.439518 
L 173.717066 184.603468 
L 174.674492 194.112257 
L 175.631919 221.779308 
L 176.589345 246.090472 
L 177.546771 248.453902 
L 178.504197 255.664339 
L 179.461624 261.32161 
L 180.41905 240.417781 
L 181.376476 224.027563 
L 182.333902 191.345667 
L 183.291329 191.761647 
L 184.248755 188.804382 
L 185.206181 183.934402 
L 187.121034 227.126803 
L 188.07846 219.073818 
L 189.035886 228.1948 
L 189.993313 210.902038 
L 191.908165 169.216764 
L 192.865591 142.016416 
L 193.823018 133.759785 
L 194.780444 121.682721 
L 195.73787 143.673642 
L 196.695297 177.211282 
L 198.610149 208.74074 
L 199.567575 208.741992 
L 200.525002 183.795911 
L 201.482428 151.482829 
L 202.439854 130.87845 
L 203.39728 73.589785 
L 204.354707 55.136726 
L 205.312133 34.414125 
L 206.269559 40.272168 
L 207.226986 47.912435 
L 208.184412 61.492971 
L 209.141838 81.970613 
L 210.099264 95.119767 
L 211.056691 144.139882 
L 212.014117 172.721171 
L 212.971543 185.793825 
L 213.92897 192.574122 
L 214.886396 194.3771 
L 215.843822 183.645653 
L 216.801248 175.665879 
L 217.758675 149.843881 
L 218.716101 127.080122 
L 219.673527 140.156951 
L 220.630953 141.412373 
L 221.58838 187.010862 
L 222.545806 217.915355 
L 223.503232 215.811062 
L 224.460659 224.043658 
L 225.418085 209.453731 
L 226.375511 215.830225 
L 227.332937 187.349183 
L 228.290364 155.412905 
L 229.24779 148.403232 
L 230.205216 157.728605 
L 231.162642 164.733942 
L 233.077495 235.521693 
L 234.034921 242.984168 
L 234.992348 244.420641 
L 235.949774 225.742998 
L 236.9072 216.752161 
L 237.864626 197.162721 
L 238.822053 159.969033 
L 239.779479 176.871677 
L 240.736905 172.113388 
L 241.694331 180.148181 
L 242.651758 218.490153 
L 243.609184 240.19472 
L 244.56661 256.054014 
L 245.524037 254.965079 
L 246.481463 240.313949 
L 247.438889 236.985027 
L 248.396315 209.011658 
L 249.353742 186.457651 
L 250.311168 183.659719 
L 251.268594 176.15513 
L 252.22602 179.551537 
L 253.183447 222.964291 
L 254.140873 236.434132 
L 255.098299 253.225961 
L 256.055726 260.981386 
L 257.013152 254.556323 
L 259.885431 204.699118 
L 260.842857 212.231543 
L 261.800283 204.680584 
L 262.757709 192.537394 
L 263.715136 234.257898 
L 265.629988 267.297136 
L 266.587415 267.92101 
L 267.544841 250.279215 
L 268.502267 257.465114 
L 269.459693 240.761278 
L 270.41712 198.31723 
L 271.374546 193.628441 
L 272.331972 190.868883 
L 273.289398 204.879568 
L 274.246825 228.456625 
L 275.204251 247.644034 
L 276.161677 260.493858 
L 277.119104 237.045154 
L 278.07653 256.241543 
L 279.991382 214.502127 
L 280.948809 170.642557 
L 281.906235 160.797443 
L 282.863661 191.598998 
L 283.821087 197.513518 
L 284.778514 231.502485 
L 285.73594 243.632307 
L 286.693366 253.440597 
L 287.650793 252.208844 
L 288.608219 257.721764 
L 289.565645 244.271945 
L 290.523071 245.862018 
L 291.480498 204.705026 
L 292.437924 187.853983 
L 293.39535 199.317126 
L 294.352776 204.012622 
L 295.310203 242.755347 
L 296.267629 265.082655 
L 297.225055 251.410499 
L 298.182482 248.552045 
L 299.139908 255.84113 
L 300.097334 241.970584 
L 301.05476 216.816151 
L 302.012187 182.905993 
L 303.927039 172.352778 
L 304.884465 203.292017 
L 305.841892 224.165305 
L 306.799318 249.683885 
L 307.756744 251.242259 
L 308.714171 249.768121 
L 309.671597 249.595432 
L 310.629023 248.369519 
L 311.586449 230.794833 
L 312.543876 202.003775 
L 313.501302 191.82356 
L 314.458728 195.301203 
L 315.416154 203.415434 
L 316.373581 227.841856 
L 317.331007 242.73993 
L 318.288433 252.050164 
L 319.24586 250.012108 
L 320.203286 243.622925 
L 321.160712 236.452366 
L 322.118138 231.307465 
L 323.075565 202.103318 
L 324.032991 195.738818 
L 324.990417 188.271004 
L 325.947843 202.815481 
L 326.90527 242.127703 
L 327.862696 254.866054 
L 328.820122 244.082584 
L 329.777549 246.717661 
L 330.734975 251.195433 
L 331.692401 232.675636 
L 332.649827 228.293201 
L 333.607254 204.828151 
L 334.56468 169.353583 
L 335.522106 167.022058 
L 336.479533 162.292224 
L 337.436959 199.362162 
L 338.394385 222.013486 
L 339.351811 226.732141 
L 340.309238 229.39376 
L 341.266664 239.613219 
L 342.22409 226.702802 
L 343.181516 207.888518 
L 344.138943 184.486752 
L 345.096369 173.424526 
L 346.053795 167.43213 
L 347.968648 212.703763 
L 348.926074 217.67049 
L 349.8835 221.179538 
L 350.840927 221.531396 
L 351.798353 223.575756 
L 352.755779 228.258554 
L 353.713205 213.90171 
L 354.670632 175.701584 
L 355.628058 177.386847 
L 356.585484 183.592707 
L 357.542911 193.4422 
L 359.457763 243.336936 
L 360.415189 263.801406 
L 362.330042 243.473377 
L 363.287468 235.477099 
L 364.244894 210.023193 
L 365.202321 178.490738 
L 366.159747 173.945299 
L 367.117173 192.08054 
L 368.0746 192.241608 
L 369.032026 223.281771 
L 369.989452 258.01303 
L 370.946878 268.754228 
L 371.904305 265.55598 
L 372.861731 256.858001 
L 373.819157 241.177685 
L 374.776583 234.299348 
L 376.691436 199.608829 
L 377.648862 179.177604 
L 378.606289 193.056245 
L 379.563715 236.951165 
L 380.521141 259.28958 
L 381.478567 263.29196 
L 382.435994 263.706186 
L 384.350846 243.756854 
L 385.308272 231.749708 
L 386.265699 208.764262 
L 387.223125 198.711253 
L 387.223125 198.711253 
" clip-path="url(#p3f836d6def)" style="fill: none; stroke: #1f77b4; stroke-width: 1.5; stroke-linecap: square"/>
   </g>
   <g id="line2d_16">
    <path d="M 30.103125 200.043278 
L 208.184412 200.043278 
L 209.141838 214.745509 
L 387.223125 214.745509 
L 387.223125 214.745509 
" clip-path="url(#p3f836d6def)" style="fill: none; stroke: #ffa500; stroke-width: 1.5; stroke-linecap: square"/>
   </g>
   <g id="patch_3">
    <path d="M 30.103125 288.430125 
L 30.103125 22.318125 
" style="fill: none; stroke: #000000; stroke-width: 0.8; stroke-linejoin: miter; stroke-linecap: square"/>
   </g>
   <g id="patch_4">
    <path d="M 387.223125 288.430125 
L 387.223125 22.318125 
" style="fill: none; stroke: #000000; stroke-width: 0.8; stroke-linejoin: miter; stroke-linecap: square"/>
   </g>
   <g id="patch_5">
    <path d="M 30.103125 288.430125 
L 387.223125 288.430125 
" style="fill: none; stroke: #000000; stroke-width: 0.8; stroke-linejoin: miter; stroke-linecap: square"/>
   </g>
   <g id="patch_6">
    <path d="M 30.103125 22.318125 
L 387.223125 22.318125 
" style="fill: none; stroke: #000000; stroke-width: 0.8; stroke-linejoin: miter; stroke-linecap: square"/>
   </g>
   <g id="text_16">
    <!-- Thermal Flux -->
    <g transform="translate(169.575938 16.318125) scale(0.12 -0.12)">
     <defs>
      <path id="DejaVuSans-54" d="M -19 4666 
L 3928 4666 
L 3928 4134 
L 2272 4134 
L 2272 0 
L 1638 0 
L 1638 4134 
L -19 4134 
L -19 4666 
z
" transform="scale(0.015625)"/>
      <path id="DejaVuSans-68" d="M 3513 2113 
L 3513 0 
L 2938 0 
L 2938 2094 
Q 2938 2591 2744 2837 
Q 2550 3084 2163 3084 
Q 1697 3084 1428 2787 
Q 1159 2491 1159 1978 
L 1159 0 
L 581 0 
L 581 4863 
L 1159 4863 
L 1159 2956 
Q 1366 3272 1645 3428 
Q 1925 3584 2291 3584 
Q 2894 3584 3203 3211 
Q 3513 2838 3513 2113 
z
" transform="scale(0.015625)"/>
      <path id="DejaVuSans-72" d="M 2631 2963 
Q 2534 3019 2420 3045 
Q 2306 3072 2169 3072 
Q 1681 3072 1420 2755 
Q 1159 2438 1159 1844 
L 1159 0 
L 581 0 
L 581 3500 
L 1159 3500 
L 1159 2956 
Q 1341 3275 1631 3429 
Q 1922 3584 2338 3584 
Q 2397 3584 2469 3576 
Q 2541 3569 2628 3553 
L 2631 2963 
z
" transform="scale(0.015625)"/>
      <path id="DejaVuSans-6d" d="M 3328 2828 
Q 3544 3216 3844 3400 
Q 4144 3584 4550 3584 
Q 5097 3584 5394 3201 
Q 5691 2819 5691 2113 
L 5691 0 
L 5113 0 
L 5113 2094 
Q 5113 2597 4934 2840 
Q 4756 3084 4391 3084 
Q 3944 3084 3684 2787 
Q 3425 2491 3425 1978 
L 3425 0 
L 2847 0 
L 2847 2094 
Q 2847 2600 2669 2842 
Q 2491 3084 2119 3084 
Q 1678 3084 1418 2786 
Q 1159 2488 1159 1978 
L 1159 0 
L 581 0 
L 581 3500 
L 1159 3500 
L 1159 2956 
Q 1356 3278 1631 3431 
Q 1906 3584 2284 3584 
Q 2666 3584 2933 3390 
Q 3200 3197 3328 2828 
z
" transform="scale(0.015625)"/>
      <path id="DejaVuSans-61" d="M 2194 1759 
Q 1497 1759 1228 1600 
Q 959 1441 959 1056 
Q 959 750 1161 570 
Q 1363 391 1709 391 
Q 2188 391 2477 730 
Q 2766 1069 2766 1631 
L 2766 1759 
L 2194 1759 
z
M 3341 1997 
L 3341 0 
L 2766 0 
L 2766 531 
Q 2569 213 2275 61 
Q 1981 -91 1556 -91 
Q 1019 -91 701 211 
Q 384 513 384 1019 
Q 384 1609 779 1909 
Q 1175 2209 1959 2209 
L 2766 2209 
L 2766 2266 
Q 2766 2663 2505 2880 
Q 2244 3097 1772 3097 
Q 1472 3097 1187 3025 
Q 903 2953 641 2809 
L 641 3341 
Q 956 3463 1253 3523 
Q 1550 3584 1831 3584 
Q 2591 3584 2966 3190 
Q 3341 2797 3341 1997 
z
" transform="scale(0.015625)"/>
      <path id="DejaVuSans-6c" d="M 603 4863 
L 1178 4863 
L 1178 0 
L 603 0 
L 603 4863 
z
" transform="scale(0.015625)"/>
      <path id="DejaVuSans-20" transform="scale(0.015625)"/>
      <path id="DejaVuSans-46" d="M 628 4666 
L 3309 4666 
L 3309 4134 
L 1259 4134 
L 1259 2759 
L 3109 2759 
L 3109 2228 
L 1259 2228 
L 1259 0 
L 628 0 
L 628 4666 
z
" transform="scale(0.015625)"/>
      <path id="DejaVuSans-75" d="M 544 1381 
L 544 3500 
L 1119 3500 
L 1119 1403 
Q 1119 906 1312 657 
Q 1506 409 1894 409 
Q 2359 409 2629 706 
Q 2900 1003 2900 1516 
L 2900 3500 
L 3475 3500 
L 3475 0 
L 2900 0 
L 2900 538 
Q 2691 219 2414 64 
Q 2138 -91 1772 -91 
Q 1169 -91 856 284 
Q 544 659 544 1381 
z
M 1991 3584 
L 1991 3584 
z
" transform="scale(0.015625)"/>
      <path id="DejaVuSans-78" d="M 3513 3500 
L 2247 1797 
L 3578 0 
L 2900 0 
L 1881 1375 
L 863 0 
L 184 0 
L 1544 1831 
L 300 3500 
L 978 3500 
L 1906 2253 
L 2834 3500 
L 3513 3500 
z
" transform="scale(0.015625)"/>
     </defs>
     <use xlink:href="#DejaVuSans-54"/>
     <use xlink:href="#DejaVuSans-68" x="61.083984"/>
     <use xlink:href="#DejaVuSans-65" x="124.462891"/>
     <use xlink:href="#DejaVuSans-72" x="185.986328"/>
     <use xlink:href="#DejaVuSans-6d" x="225.349609"/>
     <use xlink:href="#DejaVuSans-61" x="322.761719"/>
     <use xlink:href="#DejaVuSans-6c" x="384.041016"/>
     <use xlink:href="#DejaVuSans-20" x="411.824219"/>
     <use xlink:href="#DejaVuSans-46" x="443.611328"/>
     <use xlink:href="#DejaVuSans-6c" x="501.130859"/>
     <use xlink:href="#DejaVuSans-75" x="528.914062"/>
     <use xlink:href="#DejaVuSans-78" x="592.292969"/>
    </g>
   </g>
  </g>
 </g>
 <defs>
  <clipPath id="p3f836d6def">
   <rect x="30.103125" y="22.318125" width="357.12" height="266.112"/>
  </clipPath>
 </defs>
</svg>
