<?xml version="1.0" encoding="utf-8" standalone="no"?>
<!DOCTYPE svg PUBLIC "-//W3C//DTD SVG 1.1//EN"
  "http://www.w3.org/Graphics/SVG/1.1/DTD/svg11.dtd">
<svg xmlns:xlink="http://www.w3.org/1999/xlink" width="394.423125pt" height="312.30825pt" viewBox="0 0 394.423125 312.30825" xmlns="http://www.w3.org/2000/svg" version="1.1">
 <metadata>
  <rdf:RDF xmlns:dc="http://purl.org/dc/elements/1.1/" xmlns:cc="http://creativecommons.org/ns#" xmlns:rdf="http://www.w3.org/1999/02/22-rdf-syntax-ns#">
   <cc:Work>
    <dc:type rdf:resource="http://purl.org/dc/dcmitype/StillImage"/>
    <dc:date>2024-03-17T11:31:58.491201</dc:date>
    <dc:format>image/svg+xml</dc:format>
    <dc:creator>
     <cc:Agent>
      <dc:title>Matplotlib v3.8.3, https://matplotlib.org/</dc:title>
     </cc:Agent>
    </dc:creator>
   </cc:Work>
  </rdf:RDF>
 </metadata>
 <defs>
  <style type="text/css">*{stroke-linejoin: round; stroke-linecap: butt}</style>
 </defs>
 <g id="figure_1">
  <g id="patch_1">
   <path d="M 0 312.30825 
L 394.423125 312.30825 
L 394.423125 0 
L 0 0 
z
" style="fill: #ffffff"/>
  </g>
  <g id="axes_1">
   <g id="patch_2">
    <path d="M 30.103125 288.430125 
L 387.223125 288.430125 
L 387.223125 22.318125 
L 30.103125 22.318125 
z
" style="fill: #ffffff"/>
   </g>
   <g id="matplotlib.axis_1">
    <g id="xtick_1">
     <g id="line2d_1">
      <defs>
       <path id="m004829b6b4" d="M 0 0 
L 0 3.5 
" style="stroke: #000000; stroke-width: 0.8"/>
      </defs>
      <g>
       <use xlink:href="#m004829b6b4" x="30.103125" y="288.430125" style="stroke: #000000; stroke-width: 0.8"/>
      </g>
     </g>
     <g id="text_1">
      <!-- 0 -->
      <g transform="translate(26.921875 303.028562) scale(0.1 -0.1)">
       <defs>
        <path id="DejaVuSans-30" d="M 2034 4250 
Q 1547 4250 1301 3770 
Q 1056 3291 1056 2328 
Q 1056 1369 1301 889 
Q 1547 409 2034 409 
Q 2525 409 2770 889 
Q 3016 1369 3016 2328 
Q 3016 3291 2770 3770 
Q 2525 4250 2034 4250 
z
M 2034 4750 
Q 2819 4750 3233 4129 
Q 3647 3509 3647 2328 
Q 3647 1150 3233 529 
Q 2819 -91 2034 -91 
Q 1250 -91 836 529 
Q 422 1150 422 2328 
Q 422 3509 836 4129 
Q 1250 4750 2034 4750 
z
" transform="scale(0.015625)"/>
       </defs>
       <use xlink:href="#DejaVuSans-30"/>
      </g>
     </g>
    </g>
    <g id="xtick_2">
     <g id="line2d_2">
      <g>
       <use xlink:href="#m004829b6b4" x="71.385715" y="288.430125" style="stroke: #000000; stroke-width: 0.8"/>
      </g>
     </g>
     <g id="text_2">
      <!-- 10 -->
      <g transform="translate(65.023215 303.028562) scale(0.1 -0.1)">
       <defs>
        <path id="DejaVuSans-31" d="M 794 531 
L 1825 531 
L 1825 4091 
L 703 3866 
L 703 4441 
L 1819 4666 
L 2450 4666 
L 2450 531 
L 3481 531 
L 3481 0 
L 794 0 
L 794 531 
z
" transform="scale(0.015625)"/>
       </defs>
       <use xlink:href="#DejaVuSans-31"/>
       <use xlink:href="#DejaVuSans-30" x="63.623047"/>
      </g>
     </g>
    </g>
    <g id="xtick_3">
     <g id="line2d_3">
      <g>
       <use xlink:href="#m004829b6b4" x="112.668305" y="288.430125" style="stroke: #000000; stroke-width: 0.8"/>
      </g>
     </g>
     <g id="text_3">
      <!-- 20 -->
      <g transform="translate(106.305805 303.028562) scale(0.1 -0.1)">
       <defs>
        <path id="DejaVuSans-32" d="M 1228 531 
L 3431 531 
L 3431 0 
L 469 0 
L 469 531 
Q 828 903 1448 1529 
Q 2069 2156 2228 2338 
Q 2531 2678 2651 2914 
Q 2772 3150 2772 3378 
Q 2772 3750 2511 3984 
Q 2250 4219 1831 4219 
Q 1534 4219 1204 4116 
Q 875 4013 500 3803 
L 500 4441 
Q 881 4594 1212 4672 
Q 1544 4750 1819 4750 
Q 2544 4750 2975 4387 
Q 3406 4025 3406 3419 
Q 3406 3131 3298 2873 
Q 3191 2616 2906 2266 
Q 2828 2175 2409 1742 
Q 1991 1309 1228 531 
z
" transform="scale(0.015625)"/>
       </defs>
       <use xlink:href="#DejaVuSans-32"/>
       <use xlink:href="#DejaVuSans-30" x="63.623047"/>
      </g>
     </g>
    </g>
    <g id="xtick_4">
     <g id="line2d_4">
      <g>
       <use xlink:href="#m004829b6b4" x="153.950895" y="288.430125" style="stroke: #000000; stroke-width: 0.8"/>
      </g>
     </g>
     <g id="text_4">
      <!-- 30 -->
      <g transform="translate(147.588395 303.028562) scale(0.1 -0.1)">
       <defs>
        <path id="DejaVuSans-33" d="M 2597 2516 
Q 3050 2419 3304 2112 
Q 3559 1806 3559 1356 
Q 3559 666 3084 287 
Q 2609 -91 1734 -91 
Q 1441 -91 1130 -33 
Q 819 25 488 141 
L 488 750 
Q 750 597 1062 519 
Q 1375 441 1716 441 
Q 2309 441 2620 675 
Q 2931 909 2931 1356 
Q 2931 1769 2642 2001 
Q 2353 2234 1838 2234 
L 1294 2234 
L 1294 2753 
L 1863 2753 
Q 2328 2753 2575 2939 
Q 2822 3125 2822 3475 
Q 2822 3834 2567 4026 
Q 2313 4219 1838 4219 
Q 1578 4219 1281 4162 
Q 984 4106 628 3988 
L 628 4550 
Q 988 4650 1302 4700 
Q 1616 4750 1894 4750 
Q 2613 4750 3031 4423 
Q 3450 4097 3450 3541 
Q 3450 3153 3228 2886 
Q 3006 2619 2597 2516 
z
" transform="scale(0.015625)"/>
       </defs>
       <use xlink:href="#DejaVuSans-33"/>
       <use xlink:href="#DejaVuSans-30" x="63.623047"/>
      </g>
     </g>
    </g>
    <g id="xtick_5">
     <g id="line2d_5">
      <g>
       <use xlink:href="#m004829b6b4" x="195.233486" y="288.430125" style="stroke: #000000; stroke-width: 0.8"/>
      </g>
     </g>
     <g id="text_5">
      <!-- 40 -->
      <g transform="translate(188.870986 303.028562) scale(0.1 -0.1)">
       <defs>
        <path id="DejaVuSans-34" d="M 2419 4116 
L 825 1625 
L 2419 1625 
L 2419 4116 
z
M 2253 4666 
L 3047 4666 
L 3047 1625 
L 3713 1625 
L 3713 1100 
L 3047 1100 
L 3047 0 
L 2419 0 
L 2419 1100 
L 313 1100 
L 313 1709 
L 2253 4666 
z
" transform="scale(0.015625)"/>
       </defs>
       <use xlink:href="#DejaVuSans-34"/>
       <use xlink:href="#DejaVuSans-30" x="63.623047"/>
      </g>
     </g>
    </g>
    <g id="xtick_6">
     <g id="line2d_6">
      <g>
       <use xlink:href="#m004829b6b4" x="236.516076" y="288.430125" style="stroke: #000000; stroke-width: 0.8"/>
      </g>
     </g>
     <g id="text_6">
      <!-- 50 -->
      <g transform="translate(230.153576 303.028562) scale(0.1 -0.1)">
       <defs>
        <path id="DejaVuSans-35" d="M 691 4666 
L 3169 4666 
L 3169 4134 
L 1269 4134 
L 1269 2991 
Q 1406 3038 1543 3061 
Q 1681 3084 1819 3084 
Q 2600 3084 3056 2656 
Q 3513 2228 3513 1497 
Q 3513 744 3044 326 
Q 2575 -91 1722 -91 
Q 1428 -91 1123 -41 
Q 819 9 494 109 
L 494 744 
Q 775 591 1075 516 
Q 1375 441 1709 441 
Q 2250 441 2565 725 
Q 2881 1009 2881 1497 
Q 2881 1984 2565 2268 
Q 2250 2553 1709 2553 
Q 1456 2553 1204 2497 
Q 953 2441 691 2322 
L 691 4666 
z
" transform="scale(0.015625)"/>
       </defs>
       <use xlink:href="#DejaVuSans-35"/>
       <use xlink:href="#DejaVuSans-30" x="63.623047"/>
      </g>
     </g>
    </g>
    <g id="xtick_7">
     <g id="line2d_7">
      <g>
       <use xlink:href="#m004829b6b4" x="277.798666" y="288.430125" style="stroke: #000000; stroke-width: 0.8"/>
      </g>
     </g>
     <g id="text_7">
      <!-- 60 -->
      <g transform="translate(271.436166 303.028562) scale(0.1 -0.1)">
       <defs>
        <path id="DejaVuSans-36" d="M 2113 2584 
Q 1688 2584 1439 2293 
Q 1191 2003 1191 1497 
Q 1191 994 1439 701 
Q 1688 409 2113 409 
Q 2538 409 2786 701 
Q 3034 994 3034 1497 
Q 3034 2003 2786 2293 
Q 2538 2584 2113 2584 
z
M 3366 4563 
L 3366 3988 
Q 3128 4100 2886 4159 
Q 2644 4219 2406 4219 
Q 1781 4219 1451 3797 
Q 1122 3375 1075 2522 
Q 1259 2794 1537 2939 
Q 1816 3084 2150 3084 
Q 2853 3084 3261 2657 
Q 3669 2231 3669 1497 
Q 3669 778 3244 343 
Q 2819 -91 2113 -91 
Q 1303 -91 875 529 
Q 447 1150 447 2328 
Q 447 3434 972 4092 
Q 1497 4750 2381 4750 
Q 2619 4750 2861 4703 
Q 3103 4656 3366 4563 
z
" transform="scale(0.015625)"/>
       </defs>
       <use xlink:href="#DejaVuSans-36"/>
       <use xlink:href="#DejaVuSans-30" x="63.623047"/>
      </g>
     </g>
    </g>
    <g id="xtick_8">
     <g id="line2d_8">
      <g>
       <use xlink:href="#m004829b6b4" x="319.081256" y="288.430125" style="stroke: #000000; stroke-width: 0.8"/>
      </g>
     </g>
     <g id="text_8">
      <!-- 70 -->
      <g transform="translate(312.718756 303.028562) scale(0.1 -0.1)">
       <defs>
        <path id="DejaVuSans-37" d="M 525 4666 
L 3525 4666 
L 3525 4397 
L 1831 0 
L 1172 0 
L 2766 4134 
L 525 4134 
L 525 4666 
z
" transform="scale(0.015625)"/>
       </defs>
       <use xlink:href="#DejaVuSans-37"/>
       <use xlink:href="#DejaVuSans-30" x="63.623047"/>
      </g>
     </g>
    </g>
    <g id="xtick_9">
     <g id="line2d_9">
      <g>
       <use xlink:href="#m004829b6b4" x="360.363846" y="288.430125" style="stroke: #000000; stroke-width: 0.8"/>
      </g>
     </g>
     <g id="text_9">
      <!-- 80 -->
      <g transform="translate(354.001346 303.028562) scale(0.1 -0.1)">
       <defs>
        <path id="DejaVuSans-38" d="M 2034 2216 
Q 1584 2216 1326 1975 
Q 1069 1734 1069 1313 
Q 1069 891 1326 650 
Q 1584 409 2034 409 
Q 2484 409 2743 651 
Q 3003 894 3003 1313 
Q 3003 1734 2745 1975 
Q 2488 2216 2034 2216 
z
M 1403 2484 
Q 997 2584 770 2862 
Q 544 3141 544 3541 
Q 544 4100 942 4425 
Q 1341 4750 2034 4750 
Q 2731 4750 3128 4425 
Q 3525 4100 3525 3541 
Q 3525 3141 3298 2862 
Q 3072 2584 2669 2484 
Q 3125 2378 3379 2068 
Q 3634 1759 3634 1313 
Q 3634 634 3220 271 
Q 2806 -91 2034 -91 
Q 1263 -91 848 271 
Q 434 634 434 1313 
Q 434 1759 690 2068 
Q 947 2378 1403 2484 
z
M 1172 3481 
Q 1172 3119 1398 2916 
Q 1625 2713 2034 2713 
Q 2441 2713 2670 2916 
Q 2900 3119 2900 3481 
Q 2900 3844 2670 4047 
Q 2441 4250 2034 4250 
Q 1625 4250 1398 4047 
Q 1172 3844 1172 3481 
z
" transform="scale(0.015625)"/>
       </defs>
       <use xlink:href="#DejaVuSans-38"/>
       <use xlink:href="#DejaVuSans-30" x="63.623047"/>
      </g>
     </g>
    </g>
   </g>
   <g id="matplotlib.axis_2">
    <g id="ytick_1">
     <g id="line2d_10">
      <defs>
       <path id="m5bcd0bf3b1" d="M 0 0 
L -3.5 0 
" style="stroke: #000000; stroke-width: 0.8"/>
      </defs>
      <g>
       <use xlink:href="#m5bcd0bf3b1" x="30.103125" y="252.026438" style="stroke: #000000; stroke-width: 0.8"/>
      </g>
     </g>
     <g id="text_10">
      <!-- 4.6 -->
      <g transform="translate(7.2 255.825657) scale(0.1 -0.1)">
       <defs>
        <path id="DejaVuSans-2e" d="M 684 794 
L 1344 794 
L 1344 0 
L 684 0 
L 684 794 
z
" transform="scale(0.015625)"/>
       </defs>
       <use xlink:href="#DejaVuSans-34"/>
       <use xlink:href="#DejaVuSans-2e" x="63.623047"/>
       <use xlink:href="#DejaVuSans-36" x="95.410156"/>
      </g>
     </g>
    </g>
    <g id="ytick_2">
     <g id="line2d_11">
      <g>
       <use xlink:href="#m5bcd0bf3b1" x="30.103125" y="211.361748" style="stroke: #000000; stroke-width: 0.8"/>
      </g>
     </g>
     <g id="text_11">
      <!-- 4.7 -->
      <g transform="translate(7.2 215.160967) scale(0.1 -0.1)">
       <use xlink:href="#DejaVuSans-34"/>
       <use xlink:href="#DejaVuSans-2e" x="63.623047"/>
       <use xlink:href="#DejaVuSans-37" x="95.410156"/>
      </g>
     </g>
    </g>
    <g id="ytick_3">
     <g id="line2d_12">
      <g>
       <use xlink:href="#m5bcd0bf3b1" x="30.103125" y="170.697059" style="stroke: #000000; stroke-width: 0.8"/>
      </g>
     </g>
     <g id="text_12">
      <!-- 4.8 -->
      <g transform="translate(7.2 174.496277) scale(0.1 -0.1)">
       <use xlink:href="#DejaVuSans-34"/>
       <use xlink:href="#DejaVuSans-2e" x="63.623047"/>
       <use xlink:href="#DejaVuSans-38" x="95.410156"/>
      </g>
     </g>
    </g>
    <g id="ytick_4">
     <g id="line2d_13">
      <g>
       <use xlink:href="#m5bcd0bf3b1" x="30.103125" y="130.032369" style="stroke: #000000; stroke-width: 0.8"/>
      </g>
     </g>
     <g id="text_13">
      <!-- 4.9 -->
      <g transform="translate(7.2 133.831587) scale(0.1 -0.1)">
       <defs>
        <path id="DejaVuSans-39" d="M 703 97 
L 703 672 
Q 941 559 1184 500 
Q 1428 441 1663 441 
Q 2288 441 2617 861 
Q 2947 1281 2994 2138 
Q 2813 1869 2534 1725 
Q 2256 1581 1919 1581 
Q 1219 1581 811 2004 
Q 403 2428 403 3163 
Q 403 3881 828 4315 
Q 1253 4750 1959 4750 
Q 2769 4750 3195 4129 
Q 3622 3509 3622 2328 
Q 3622 1225 3098 567 
Q 2575 -91 1691 -91 
Q 1453 -91 1209 -44 
Q 966 3 703 97 
z
M 1959 2075 
Q 2384 2075 2632 2365 
Q 2881 2656 2881 3163 
Q 2881 3666 2632 3958 
Q 2384 4250 1959 4250 
Q 1534 4250 1286 3958 
Q 1038 3666 1038 3163 
Q 1038 2656 1286 2365 
Q 1534 2075 1959 2075 
z
" transform="scale(0.015625)"/>
       </defs>
       <use xlink:href="#DejaVuSans-34"/>
       <use xlink:href="#DejaVuSans-2e" x="63.623047"/>
       <use xlink:href="#DejaVuSans-39" x="95.410156"/>
      </g>
     </g>
    </g>
    <g id="ytick_5">
     <g id="line2d_14">
      <g>
       <use xlink:href="#m5bcd0bf3b1" x="30.103125" y="89.367679" style="stroke: #000000; stroke-width: 0.8"/>
      </g>
     </g>
     <g id="text_14">
      <!-- 5.0 -->
      <g transform="translate(7.2 93.166898) scale(0.1 -0.1)">
       <use xlink:href="#DejaVuSans-35"/>
       <use xlink:href="#DejaVuSans-2e" x="63.623047"/>
       <use xlink:href="#DejaVuSans-30" x="95.410156"/>
      </g>
     </g>
    </g>
    <g id="ytick_6">
     <g id="line2d_15">
      <g>
       <use xlink:href="#m5bcd0bf3b1" x="30.103125" y="48.702989" style="stroke: #000000; stroke-width: 0.8"/>
      </g>
     </g>
     <g id="text_15">
      <!-- 5.1 -->
      <g transform="translate(7.2 52.502208) scale(0.1 -0.1)">
       <use xlink:href="#DejaVuSans-35"/>
       <use xlink:href="#DejaVuSans-2e" x="63.623047"/>
       <use xlink:href="#DejaVuSans-31" x="95.410156"/>
      </g>
     </g>
    </g>
    <g id="text_16">
     <!-- 1e13 -->
     <g transform="translate(30.103125 19.318125) scale(0.1 -0.1)">
      <defs>
       <path id="DejaVuSans-65" d="M 3597 1894 
L 3597 1613 
L 953 1613 
Q 991 1019 1311 708 
Q 1631 397 2203 397 
Q 2534 397 2845 478 
Q 3156 559 3463 722 
L 3463 178 
Q 3153 47 2828 -22 
Q 2503 -91 2169 -91 
Q 1331 -91 842 396 
Q 353 884 353 1716 
Q 353 2575 817 3079 
Q 1281 3584 2069 3584 
Q 2775 3584 3186 3129 
Q 3597 2675 3597 1894 
z
M 3022 2063 
Q 3016 2534 2758 2815 
Q 2500 3097 2075 3097 
Q 1594 3097 1305 2825 
Q 1016 2553 972 2059 
L 3022 2063 
z
" transform="scale(0.015625)"/>
      </defs>
      <use xlink:href="#DejaVuSans-31"/>
      <use xlink:href="#DejaVuSans-65" x="63.623047"/>
      <use xlink:href="#DejaVuSans-31" x="125.146484"/>
      <use xlink:href="#DejaVuSans-33" x="188.769531"/>
     </g>
    </g>
   </g>
   <g id="line2d_16">
    <path d="M 30.103125 34.429818 
L 31.156576 98.328869 
L 32.210028 208.974896 
L 33.263479 249.614128 
L 34.31693 266.833088 
L 35.370382 265.920014 
L 36.423833 251.294 
L 37.477284 211.87407 
L 38.530736 103.720286 
L 39.584187 40.615565 
L 40.637638 40.384707 
L 41.69109 108.180492 
L 42.744541 217.257692 
L 43.797992 256.110581 
L 44.851444 272.53656 
L 45.904895 269.192712 
L 46.958346 253.065887 
L 48.011798 213.403609 
L 49.065249 103.857023 
L 50.1187 37.450297 
L 51.172152 40.499973 
L 52.225603 107.128028 
L 53.279054 215.399165 
L 54.332506 258.271034 
L 55.385957 273.575967 
L 56.439408 269.169457 
L 57.49286 251.179061 
L 58.546311 213.655812 
L 59.599762 107.38872 
L 60.653213 43.65389 
L 61.706665 43.873662 
L 62.760116 109.002344 
L 63.813567 216.511189 
L 64.867019 254.167326 
L 65.92047 271.380002 
L 66.973921 271.617053 
L 68.027373 252.960553 
L 69.080824 216.658067 
L 70.134275 109.246557 
L 71.187727 49.251439 
L 72.241178 50.927029 
L 73.294629 112.331936 
L 74.348081 221.414785 
L 75.401532 257.853856 
L 76.454983 275.253324 
L 77.508435 273.303983 
L 78.561886 256.779315 
L 79.615337 218.309964 
L 80.668789 108.623124 
L 81.72224 40.23331 
L 82.775691 42.656108 
L 83.829143 106.684851 
L 84.882594 214.613381 
L 85.936045 254.570268 
L 86.989497 270.299858 
L 88.042948 271.341157 
L 89.096399 256.173593 
L 90.149851 218.461206 
L 91.203302 105.781037 
L 92.256753 38.310375 
L 93.310205 41.868936 
L 94.363656 102.649527 
L 95.417107 208.846309 
L 96.470559 247.930166 
L 97.52401 264.834133 
L 98.577461 264.234901 
L 99.630913 246.975873 
L 100.684364 210.708045 
L 101.737815 101.914304 
L 102.791267 37.120885 
L 103.844718 40.868428 
L 104.898169 105.307371 
L 105.951621 215.09693 
L 107.005072 256.504515 
L 108.058523 272.430354 
L 109.111975 270.290498 
L 110.165426 252.483508 
L 111.218877 214.854679 
L 112.272329 104.362366 
L 113.32578 41.29681 
L 114.379231 41.860645 
L 115.432683 106.605936 
L 116.486134 213.624893 
L 117.539585 253.510055 
L 118.593037 267.88137 
L 119.646488 268.552133 
L 120.699939 254.079697 
L 121.75339 215.749437 
L 122.806842 104.896057 
L 123.860293 34.414125 
L 124.913744 35.656263 
L 125.967196 100.389291 
L 127.020647 209.673758 
L 128.074098 251.75867 
L 129.12755 268.876604 
L 130.181001 268.488273 
L 131.234452 250.990188 
L 132.287904 211.844341 
L 133.341355 103.19004 
L 134.394806 37.319203 
L 135.448258 39.812467 
L 136.501709 104.216786 
L 137.55516 210.04563 
L 138.608612 249.231627 
L 139.662063 264.932841 
L 140.715514 267.205423 
L 141.768966 254.513369 
L 142.822417 215.266224 
L 143.875868 107.860333 
L 144.92932 44.824044 
L 145.982771 42.446707 
L 147.036222 105.14278 
L 148.089674 211.36862 
L 149.143125 255.611704 
L 150.196576 272.496598 
L 151.250028 273.169913 
L 152.303479 258.453263 
L 153.35693 220.641922 
L 154.410382 112.4142 
L 155.463833 46.731304 
L 156.517284 47.193373 
L 157.570736 110.247797 
L 158.624187 215.509939 
L 159.677638 254.993275 
L 160.73109 269.155375 
L 161.784541 270.501985 
L 162.837992 253.321122 
L 163.891444 215.188899 
L 164.944895 107.087862 
L 165.998346 39.3461 
L 167.051798 39.473034 
L 168.105249 110.336928 
L 169.1587 221.042032 
L 170.212152 261.004788 
L 171.265603 275.530536 
L 172.319054 273.595567 
L 173.372506 258.132417 
L 174.425957 220.619101 
L 175.479408 111.629893 
L 176.53286 44.329479 
L 177.586311 39.820524 
L 178.639762 105.390351 
L 179.693213 215.264705 
L 180.746665 252.512376 
L 181.800116 269.322038 
L 182.853567 269.052256 
L 183.907019 251.218296 
L 184.96047 210.593872 
L 186.013921 102.51394 
L 187.067373 38.225142 
L 188.120824 38.285541 
L 189.174275 104.283916 
L 190.227727 209.232634 
L 191.281178 250.929541 
L 192.334629 266.787473 
L 193.388081 267.772014 
L 194.441532 252.577617 
L 195.494983 213.079349 
L 196.548435 107.823631 
L 197.601886 40.646567 
L 198.655337 41.375783 
L 199.708789 109.331987 
L 200.76224 215.425747 
L 201.815691 255.298596 
L 202.869143 271.122756 
L 203.922594 270.134254 
L 204.976045 252.269781 
L 206.029497 214.824194 
L 207.082948 105.586038 
L 208.136399 42.260764 
L 209.189851 41.841868 
L 210.243302 108.371775 
L 211.296753 218.788443 
L 212.350205 255.722965 
L 213.403656 271.800526 
L 214.457107 271.128146 
L 215.510559 251.883278 
L 216.56401 215.876044 
L 217.617461 108.635271 
L 218.670913 46.337595 
L 219.724364 46.055096 
L 220.777815 111.832626 
L 221.831267 221.743923 
L 222.884718 258.112377 
L 223.938169 276.334125 
L 224.991621 275.979553 
L 226.045072 258.698054 
L 227.098523 218.380694 
L 228.151975 112.303493 
L 229.205426 41.672543 
L 230.258877 40.614287 
L 231.312329 107.879056 
L 232.36578 213.881385 
L 233.419231 252.452653 
L 234.472683 269.207553 
L 235.526134 268.697859 
L 236.579585 255.062968 
L 237.633037 214.095134 
L 238.686488 113.427273 
L 239.739939 47.94651 
L 240.79339 49.180497 
L 241.846842 109.742298 
L 242.900293 216.403399 
L 243.953744 255.597289 
L 245.007196 271.187365 
L 246.060647 268.208366 
L 247.114098 252.86154 
L 248.16755 213.385041 
L 249.221001 108.08615 
L 250.274452 41.469019 
L 251.327904 40.0171 
L 252.381355 104.43993 
L 253.434806 211.53978 
L 254.488258 250.549524 
L 255.541709 268.117087 
L 256.59516 266.781305 
L 257.648612 249.488638 
L 258.702063 213.474461 
L 259.755514 102.512708 
L 260.808966 36.178984 
L 261.862417 40.030981 
L 262.915868 104.442755 
L 263.96932 217.188468 
L 265.022771 253.33136 
L 266.076222 268.338323 
L 267.129674 269.175443 
L 268.183125 253.390644 
L 269.236576 214.626881 
L 270.290028 107.089337 
L 271.343479 42.526485 
L 272.39693 39.234231 
L 273.450382 103.077469 
L 274.503833 210.253537 
L 275.557284 250.777878 
L 276.610736 265.14739 
L 277.664187 265.959026 
L 278.717638 253.911339 
L 279.77109 215.311628 
L 280.824541 104.650408 
L 281.877992 39.30129 
L 282.931444 39.318914 
L 283.984895 101.820697 
L 285.038346 208.447551 
L 286.091798 250.359253 
L 287.145249 267.133958 
L 288.1987 265.976539 
L 289.252152 253.633536 
L 290.305603 216.118286 
L 291.359054 109.01578 
L 292.412506 42.88882 
L 293.465957 46.001424 
L 294.519408 109.03509 
L 295.57286 216.643621 
L 296.626311 258.235785 
L 297.679762 273.645007 
L 298.733213 270.907565 
L 299.786665 251.681312 
L 300.840116 214.928867 
L 301.893567 106.404955 
L 302.947019 37.642162 
L 304.00047 39.438487 
L 305.053921 105.153355 
L 306.107373 214.033477 
L 307.160824 252.920046 
L 308.214275 270.412344 
L 309.267727 270.377253 
L 310.321178 254.313811 
L 311.374629 211.947654 
L 312.428081 106.135958 
L 313.481532 38.513138 
L 314.534983 39.27157 
L 315.588435 105.157987 
L 316.641886 209.555823 
L 317.695337 248.578117 
L 318.748789 264.714654 
L 319.80224 266.913947 
L 320.855691 251.255977 
L 321.909143 213.093883 
L 322.962594 104.128163 
L 324.016045 38.639809 
L 325.069497 36.455086 
L 326.122948 103.910715 
L 327.176399 208.413643 
L 328.229851 249.62762 
L 329.283302 269.102551 
L 330.336753 266.578608 
L 331.390205 248.208847 
L 332.443656 211.899859 
L 333.497107 103.697673 
L 334.550559 37.389941 
L 335.60401 39.472455 
L 336.657461 101.032666 
L 337.710913 212.829921 
L 338.764364 252.906144 
L 339.817815 271.6524 
L 340.871267 271.216559 
L 341.924718 255.345604 
L 342.978169 216.989475 
L 344.031621 105.79056 
L 345.085072 44.581857 
L 346.138523 41.277644 
L 347.191975 108.091691 
L 348.245426 217.795098 
L 349.298877 254.119332 
L 350.352329 268.053262 
L 351.40578 268.212454 
L 352.459231 254.439863 
L 353.512683 217.802316 
L 354.566134 113.402337 
L 355.619585 46.002144 
L 356.673037 43.781812 
L 357.726488 106.77911 
L 358.779939 211.6426 
L 359.83339 254.963153 
L 360.886842 267.961223 
L 361.940293 269.132637 
L 362.993744 253.637609 
L 364.047196 217.349639 
L 365.100647 109.85104 
L 366.154098 42.70513 
L 367.20755 40.178686 
L 368.261001 105.702133 
L 369.314452 214.220888 
L 370.367904 252.566181 
L 371.421355 270.255344 
L 372.474806 268.901246 
L 373.528258 250.114524 
L 374.581709 213.012375 
L 375.63516 107.071845 
L 376.688612 43.187561 
L 377.742063 44.816275 
L 378.795514 108.216831 
L 379.848966 213.245651 
L 380.902417 252.239452 
L 381.955868 269.358787 
L 383.00932 270.514045 
L 384.062771 254.718961 
L 385.116222 216.540901 
L 386.169674 110.233783 
L 387.223125 46.064345 
L 387.223125 46.064345 
" clip-path="url(#p8cd300ed9d)" style="fill: none; stroke: #1f77b4; stroke-width: 1.5; stroke-linecap: square"/>
   </g>
   <g id="patch_3">
    <path d="M 30.103125 288.430125 
L 30.103125 22.318125 
" style="fill: none; stroke: #000000; stroke-width: 0.8; stroke-linejoin: miter; stroke-linecap: square"/>
   </g>
   <g id="patch_4">
    <path d="M 387.223125 288.430125 
L 387.223125 22.318125 
" style="fill: none; stroke: #000000; stroke-width: 0.8; stroke-linejoin: miter; stroke-linecap: square"/>
   </g>
   <g id="patch_5">
    <path d="M 30.103125 288.430125 
L 387.223125 288.430125 
" style="fill: none; stroke: #000000; stroke-width: 0.8; stroke-linejoin: miter; stroke-linecap: square"/>
   </g>
   <g id="patch_6">
    <path d="M 30.103125 22.318125 
L 387.223125 22.318125 
" style="fill: none; stroke: #000000; stroke-width: 0.8; stroke-linejoin: miter; stroke-linecap: square"/>
   </g>
   <g id="text_17">
    <!-- Thermal Flux -->
    <g transform="translate(169.575938 16.318125) scale(0.12 -0.12)">
     <defs>
      <path id="DejaVuSans-54" d="M -19 4666 
L 3928 4666 
L 3928 4134 
L 2272 4134 
L 2272 0 
L 1638 0 
L 1638 4134 
L -19 4134 
L -19 4666 
z
" transform="scale(0.015625)"/>
      <path id="DejaVuSans-68" d="M 3513 2113 
L 3513 0 
L 2938 0 
L 2938 2094 
Q 2938 2591 2744 2837 
Q 2550 3084 2163 3084 
Q 1697 3084 1428 2787 
Q 1159 2491 1159 1978 
L 1159 0 
L 581 0 
L 581 4863 
L 1159 4863 
L 1159 2956 
Q 1366 3272 1645 3428 
Q 1925 3584 2291 3584 
Q 2894 3584 3203 3211 
Q 3513 2838 3513 2113 
z
" transform="scale(0.015625)"/>
      <path id="DejaVuSans-72" d="M 2631 2963 
Q 2534 3019 2420 3045 
Q 2306 3072 2169 3072 
Q 1681 3072 1420 2755 
Q 1159 2438 1159 1844 
L 1159 0 
L 581 0 
L 581 3500 
L 1159 3500 
L 1159 2956 
Q 1341 3275 1631 3429 
Q 1922 3584 2338 3584 
Q 2397 3584 2469 3576 
Q 2541 3569 2628 3553 
L 2631 2963 
z
" transform="scale(0.015625)"/>
      <path id="DejaVuSans-6d" d="M 3328 2828 
Q 3544 3216 3844 3400 
Q 4144 3584 4550 3584 
Q 5097 3584 5394 3201 
Q 5691 2819 5691 2113 
L 5691 0 
L 5113 0 
L 5113 2094 
Q 5113 2597 4934 2840 
Q 4756 3084 4391 3084 
Q 3944 3084 3684 2787 
Q 3425 2491 3425 1978 
L 3425 0 
L 2847 0 
L 2847 2094 
Q 2847 2600 2669 2842 
Q 2491 3084 2119 3084 
Q 1678 3084 1418 2786 
Q 1159 2488 1159 1978 
L 1159 0 
L 581 0 
L 581 3500 
L 1159 3500 
L 1159 2956 
Q 1356 3278 1631 3431 
Q 1906 3584 2284 3584 
Q 2666 3584 2933 3390 
Q 3200 3197 3328 2828 
z
" transform="scale(0.015625)"/>
      <path id="DejaVuSans-61" d="M 2194 1759 
Q 1497 1759 1228 1600 
Q 959 1441 959 1056 
Q 959 750 1161 570 
Q 1363 391 1709 391 
Q 2188 391 2477 730 
Q 2766 1069 2766 1631 
L 2766 1759 
L 2194 1759 
z
M 3341 1997 
L 3341 0 
L 2766 0 
L 2766 531 
Q 2569 213 2275 61 
Q 1981 -91 1556 -91 
Q 1019 -91 701 211 
Q 384 513 384 1019 
Q 384 1609 779 1909 
Q 1175 2209 1959 2209 
L 2766 2209 
L 2766 2266 
Q 2766 2663 2505 2880 
Q 2244 3097 1772 3097 
Q 1472 3097 1187 3025 
Q 903 2953 641 2809 
L 641 3341 
Q 956 3463 1253 3523 
Q 1550 3584 1831 3584 
Q 2591 3584 2966 3190 
Q 3341 2797 3341 1997 
z
" transform="scale(0.015625)"/>
      <path id="DejaVuSans-6c" d="M 603 4863 
L 1178 4863 
L 1178 0 
L 603 0 
L 603 4863 
z
" transform="scale(0.015625)"/>
      <path id="DejaVuSans-20" transform="scale(0.015625)"/>
      <path id="DejaVuSans-46" d="M 628 4666 
L 3309 4666 
L 3309 4134 
L 1259 4134 
L 1259 2759 
L 3109 2759 
L 3109 2228 
L 1259 2228 
L 1259 0 
L 628 0 
L 628 4666 
z
" transform="scale(0.015625)"/>
      <path id="DejaVuSans-75" d="M 544 1381 
L 544 3500 
L 1119 3500 
L 1119 1403 
Q 1119 906 1312 657 
Q 1506 409 1894 409 
Q 2359 409 2629 706 
Q 2900 1003 2900 1516 
L 2900 3500 
L 3475 3500 
L 3475 0 
L 2900 0 
L 2900 538 
Q 2691 219 2414 64 
Q 2138 -91 1772 -91 
Q 1169 -91 856 284 
Q 544 659 544 1381 
z
M 1991 3584 
L 1991 3584 
z
" transform="scale(0.015625)"/>
      <path id="DejaVuSans-78" d="M 3513 3500 
L 2247 1797 
L 3578 0 
L 2900 0 
L 1881 1375 
L 863 0 
L 184 0 
L 1544 1831 
L 300 3500 
L 978 3500 
L 1906 2253 
L 2834 3500 
L 3513 3500 
z
" transform="scale(0.015625)"/>
     </defs>
     <use xlink:href="#DejaVuSans-54"/>
     <use xlink:href="#DejaVuSans-68" x="61.083984"/>
     <use xlink:href="#DejaVuSans-65" x="124.462891"/>
     <use xlink:href="#DejaVuSans-72" x="185.986328"/>
     <use xlink:href="#DejaVuSans-6d" x="225.349609"/>
     <use xlink:href="#DejaVuSans-61" x="322.761719"/>
     <use xlink:href="#DejaVuSans-6c" x="384.041016"/>
     <use xlink:href="#DejaVuSans-20" x="411.824219"/>
     <use xlink:href="#DejaVuSans-46" x="443.611328"/>
     <use xlink:href="#DejaVuSans-6c" x="501.130859"/>
     <use xlink:href="#DejaVuSans-75" x="528.914062"/>
     <use xlink:href="#DejaVuSans-78" x="592.292969"/>
    </g>
   </g>
  </g>
 </g>
 <defs>
  <clipPath id="p8cd300ed9d">
   <rect x="30.103125" y="22.318125" width="357.12" height="266.112"/>
  </clipPath>
 </defs>
</svg>
