<?xml version="1.0" encoding="utf-8" standalone="no"?>
<!DOCTYPE svg PUBLIC "-//W3C//DTD SVG 1.1//EN"
  "http://www.w3.org/Graphics/SVG/1.1/DTD/svg11.dtd">
<svg xmlns:xlink="http://www.w3.org/1999/xlink" width="403.97pt" height="312.30825pt" viewBox="0 0 403.97 312.30825" xmlns="http://www.w3.org/2000/svg" version="1.1">
 <metadata>
  <rdf:RDF xmlns:dc="http://purl.org/dc/elements/1.1/" xmlns:cc="http://creativecommons.org/ns#" xmlns:rdf="http://www.w3.org/1999/02/22-rdf-syntax-ns#">
   <cc:Work>
    <dc:type rdf:resource="http://purl.org/dc/dcmitype/StillImage"/>
    <dc:date>2024-03-13T19:25:49.297192</dc:date>
    <dc:format>image/svg+xml</dc:format>
    <dc:creator>
     <cc:Agent>
      <dc:title>Matplotlib v3.8.3, https://matplotlib.org/</dc:title>
     </cc:Agent>
    </dc:creator>
   </cc:Work>
  </rdf:RDF>
 </metadata>
 <defs>
  <style type="text/css">*{stroke-linejoin: round; stroke-linecap: butt}</style>
 </defs>
 <g id="figure_1">
  <g id="patch_1">
   <path d="M 0 312.30825 
L 403.97 312.30825 
L 403.97 0 
L 0 0 
z
" style="fill: #ffffff"/>
  </g>
  <g id="axes_1">
   <g id="patch_2">
    <path d="M 39.65 288.430125 
L 396.77 288.430125 
L 396.77 22.318125 
L 39.65 22.318125 
z
" style="fill: #ffffff"/>
   </g>
   <g id="matplotlib.axis_1">
    <g id="xtick_1">
     <g id="line2d_1">
      <defs>
       <path id="m7024da258d" d="M 0 0 
L 0 3.5 
" style="stroke: #000000; stroke-width: 0.8"/>
      </defs>
      <g>
       <use xlink:href="#m7024da258d" x="55.882727" y="288.430125" style="stroke: #000000; stroke-width: 0.8"/>
      </g>
     </g>
     <g id="text_1">
      <!-- 0 -->
      <g transform="translate(52.701477 303.028562) scale(0.1 -0.1)">
       <defs>
        <path id="DejaVuSans-30" d="M 2034 4250 
Q 1547 4250 1301 3770 
Q 1056 3291 1056 2328 
Q 1056 1369 1301 889 
Q 1547 409 2034 409 
Q 2525 409 2770 889 
Q 3016 1369 3016 2328 
Q 3016 3291 2770 3770 
Q 2525 4250 2034 4250 
z
M 2034 4750 
Q 2819 4750 3233 4129 
Q 3647 3509 3647 2328 
Q 3647 1150 3233 529 
Q 2819 -91 2034 -91 
Q 1250 -91 836 529 
Q 422 1150 422 2328 
Q 422 3509 836 4129 
Q 1250 4750 2034 4750 
z
" transform="scale(0.015625)"/>
       </defs>
       <use xlink:href="#DejaVuSans-30"/>
      </g>
     </g>
    </g>
    <g id="xtick_2">
     <g id="line2d_2">
      <g>
       <use xlink:href="#m7024da258d" x="99.402103" y="288.430125" style="stroke: #000000; stroke-width: 0.8"/>
      </g>
     </g>
     <g id="text_2">
      <!-- 50 -->
      <g transform="translate(93.039603 303.028562) scale(0.1 -0.1)">
       <defs>
        <path id="DejaVuSans-35" d="M 691 4666 
L 3169 4666 
L 3169 4134 
L 1269 4134 
L 1269 2991 
Q 1406 3038 1543 3061 
Q 1681 3084 1819 3084 
Q 2600 3084 3056 2656 
Q 3513 2228 3513 1497 
Q 3513 744 3044 326 
Q 2575 -91 1722 -91 
Q 1428 -91 1123 -41 
Q 819 9 494 109 
L 494 744 
Q 775 591 1075 516 
Q 1375 441 1709 441 
Q 2250 441 2565 725 
Q 2881 1009 2881 1497 
Q 2881 1984 2565 2268 
Q 2250 2553 1709 2553 
Q 1456 2553 1204 2497 
Q 953 2441 691 2322 
L 691 4666 
z
" transform="scale(0.015625)"/>
       </defs>
       <use xlink:href="#DejaVuSans-35"/>
       <use xlink:href="#DejaVuSans-30" x="63.623047"/>
      </g>
     </g>
    </g>
    <g id="xtick_3">
     <g id="line2d_3">
      <g>
       <use xlink:href="#m7024da258d" x="142.921479" y="288.430125" style="stroke: #000000; stroke-width: 0.8"/>
      </g>
     </g>
     <g id="text_3">
      <!-- 100 -->
      <g transform="translate(133.377729 303.028562) scale(0.1 -0.1)">
       <defs>
        <path id="DejaVuSans-31" d="M 794 531 
L 1825 531 
L 1825 4091 
L 703 3866 
L 703 4441 
L 1819 4666 
L 2450 4666 
L 2450 531 
L 3481 531 
L 3481 0 
L 794 0 
L 794 531 
z
" transform="scale(0.015625)"/>
       </defs>
       <use xlink:href="#DejaVuSans-31"/>
       <use xlink:href="#DejaVuSans-30" x="63.623047"/>
       <use xlink:href="#DejaVuSans-30" x="127.246094"/>
      </g>
     </g>
    </g>
    <g id="xtick_4">
     <g id="line2d_4">
      <g>
       <use xlink:href="#m7024da258d" x="186.440855" y="288.430125" style="stroke: #000000; stroke-width: 0.8"/>
      </g>
     </g>
     <g id="text_4">
      <!-- 150 -->
      <g transform="translate(176.897105 303.028562) scale(0.1 -0.1)">
       <use xlink:href="#DejaVuSans-31"/>
       <use xlink:href="#DejaVuSans-35" x="63.623047"/>
       <use xlink:href="#DejaVuSans-30" x="127.246094"/>
      </g>
     </g>
    </g>
    <g id="xtick_5">
     <g id="line2d_5">
      <g>
       <use xlink:href="#m7024da258d" x="229.960232" y="288.430125" style="stroke: #000000; stroke-width: 0.8"/>
      </g>
     </g>
     <g id="text_5">
      <!-- 200 -->
      <g transform="translate(220.416482 303.028562) scale(0.1 -0.1)">
       <defs>
        <path id="DejaVuSans-32" d="M 1228 531 
L 3431 531 
L 3431 0 
L 469 0 
L 469 531 
Q 828 903 1448 1529 
Q 2069 2156 2228 2338 
Q 2531 2678 2651 2914 
Q 2772 3150 2772 3378 
Q 2772 3750 2511 3984 
Q 2250 4219 1831 4219 
Q 1534 4219 1204 4116 
Q 875 4013 500 3803 
L 500 4441 
Q 881 4594 1212 4672 
Q 1544 4750 1819 4750 
Q 2544 4750 2975 4387 
Q 3406 4025 3406 3419 
Q 3406 3131 3298 2873 
Q 3191 2616 2906 2266 
Q 2828 2175 2409 1742 
Q 1991 1309 1228 531 
z
" transform="scale(0.015625)"/>
       </defs>
       <use xlink:href="#DejaVuSans-32"/>
       <use xlink:href="#DejaVuSans-30" x="63.623047"/>
       <use xlink:href="#DejaVuSans-30" x="127.246094"/>
      </g>
     </g>
    </g>
    <g id="xtick_6">
     <g id="line2d_6">
      <g>
       <use xlink:href="#m7024da258d" x="273.479608" y="288.430125" style="stroke: #000000; stroke-width: 0.8"/>
      </g>
     </g>
     <g id="text_6">
      <!-- 250 -->
      <g transform="translate(263.935858 303.028562) scale(0.1 -0.1)">
       <use xlink:href="#DejaVuSans-32"/>
       <use xlink:href="#DejaVuSans-35" x="63.623047"/>
       <use xlink:href="#DejaVuSans-30" x="127.246094"/>
      </g>
     </g>
    </g>
    <g id="xtick_7">
     <g id="line2d_7">
      <g>
       <use xlink:href="#m7024da258d" x="316.998984" y="288.430125" style="stroke: #000000; stroke-width: 0.8"/>
      </g>
     </g>
     <g id="text_7">
      <!-- 300 -->
      <g transform="translate(307.455234 303.028562) scale(0.1 -0.1)">
       <defs>
        <path id="DejaVuSans-33" d="M 2597 2516 
Q 3050 2419 3304 2112 
Q 3559 1806 3559 1356 
Q 3559 666 3084 287 
Q 2609 -91 1734 -91 
Q 1441 -91 1130 -33 
Q 819 25 488 141 
L 488 750 
Q 750 597 1062 519 
Q 1375 441 1716 441 
Q 2309 441 2620 675 
Q 2931 909 2931 1356 
Q 2931 1769 2642 2001 
Q 2353 2234 1838 2234 
L 1294 2234 
L 1294 2753 
L 1863 2753 
Q 2328 2753 2575 2939 
Q 2822 3125 2822 3475 
Q 2822 3834 2567 4026 
Q 2313 4219 1838 4219 
Q 1578 4219 1281 4162 
Q 984 4106 628 3988 
L 628 4550 
Q 988 4650 1302 4700 
Q 1616 4750 1894 4750 
Q 2613 4750 3031 4423 
Q 3450 4097 3450 3541 
Q 3450 3153 3228 2886 
Q 3006 2619 2597 2516 
z
" transform="scale(0.015625)"/>
       </defs>
       <use xlink:href="#DejaVuSans-33"/>
       <use xlink:href="#DejaVuSans-30" x="63.623047"/>
       <use xlink:href="#DejaVuSans-30" x="127.246094"/>
      </g>
     </g>
    </g>
    <g id="xtick_8">
     <g id="line2d_8">
      <g>
       <use xlink:href="#m7024da258d" x="360.51836" y="288.430125" style="stroke: #000000; stroke-width: 0.8"/>
      </g>
     </g>
     <g id="text_8">
      <!-- 350 -->
      <g transform="translate(350.97461 303.028562) scale(0.1 -0.1)">
       <use xlink:href="#DejaVuSans-33"/>
       <use xlink:href="#DejaVuSans-35" x="63.623047"/>
       <use xlink:href="#DejaVuSans-30" x="127.246094"/>
      </g>
     </g>
    </g>
   </g>
   <g id="matplotlib.axis_2">
    <g id="ytick_1">
     <g id="line2d_9">
      <defs>
       <path id="m23845a07ff" d="M 0 0 
L -3.5 0 
" style="stroke: #000000; stroke-width: 0.8"/>
      </defs>
      <g>
       <use xlink:href="#m23845a07ff" x="39.65" y="274.828991" style="stroke: #000000; stroke-width: 0.8"/>
      </g>
     </g>
     <g id="text_9">
      <!-- 0 -->
      <g transform="translate(26.2875 278.62821) scale(0.1 -0.1)">
       <use xlink:href="#DejaVuSans-30"/>
      </g>
     </g>
    </g>
    <g id="ytick_2">
     <g id="line2d_10">
      <g>
       <use xlink:href="#m23845a07ff" x="39.65" y="244.886257" style="stroke: #000000; stroke-width: 0.8"/>
      </g>
     </g>
     <g id="text_10">
      <!-- 500 -->
      <g transform="translate(13.5625 248.685476) scale(0.1 -0.1)">
       <use xlink:href="#DejaVuSans-35"/>
       <use xlink:href="#DejaVuSans-30" x="63.623047"/>
       <use xlink:href="#DejaVuSans-30" x="127.246094"/>
      </g>
     </g>
    </g>
    <g id="ytick_3">
     <g id="line2d_11">
      <g>
       <use xlink:href="#m23845a07ff" x="39.65" y="214.943523" style="stroke: #000000; stroke-width: 0.8"/>
      </g>
     </g>
     <g id="text_11">
      <!-- 1000 -->
      <g transform="translate(7.2 218.742742) scale(0.1 -0.1)">
       <use xlink:href="#DejaVuSans-31"/>
       <use xlink:href="#DejaVuSans-30" x="63.623047"/>
       <use xlink:href="#DejaVuSans-30" x="127.246094"/>
       <use xlink:href="#DejaVuSans-30" x="190.869141"/>
      </g>
     </g>
    </g>
    <g id="ytick_4">
     <g id="line2d_12">
      <g>
       <use xlink:href="#m23845a07ff" x="39.65" y="185.000789" style="stroke: #000000; stroke-width: 0.8"/>
      </g>
     </g>
     <g id="text_12">
      <!-- 1500 -->
      <g transform="translate(7.2 188.800008) scale(0.1 -0.1)">
       <use xlink:href="#DejaVuSans-31"/>
       <use xlink:href="#DejaVuSans-35" x="63.623047"/>
       <use xlink:href="#DejaVuSans-30" x="127.246094"/>
       <use xlink:href="#DejaVuSans-30" x="190.869141"/>
      </g>
     </g>
    </g>
    <g id="ytick_5">
     <g id="line2d_13">
      <g>
       <use xlink:href="#m23845a07ff" x="39.65" y="155.058055" style="stroke: #000000; stroke-width: 0.8"/>
      </g>
     </g>
     <g id="text_13">
      <!-- 2000 -->
      <g transform="translate(7.2 158.857274) scale(0.1 -0.1)">
       <use xlink:href="#DejaVuSans-32"/>
       <use xlink:href="#DejaVuSans-30" x="63.623047"/>
       <use xlink:href="#DejaVuSans-30" x="127.246094"/>
       <use xlink:href="#DejaVuSans-30" x="190.869141"/>
      </g>
     </g>
    </g>
    <g id="ytick_6">
     <g id="line2d_14">
      <g>
       <use xlink:href="#m23845a07ff" x="39.65" y="125.115321" style="stroke: #000000; stroke-width: 0.8"/>
      </g>
     </g>
     <g id="text_14">
      <!-- 2500 -->
      <g transform="translate(7.2 128.91454) scale(0.1 -0.1)">
       <use xlink:href="#DejaVuSans-32"/>
       <use xlink:href="#DejaVuSans-35" x="63.623047"/>
       <use xlink:href="#DejaVuSans-30" x="127.246094"/>
       <use xlink:href="#DejaVuSans-30" x="190.869141"/>
      </g>
     </g>
    </g>
    <g id="ytick_7">
     <g id="line2d_15">
      <g>
       <use xlink:href="#m23845a07ff" x="39.65" y="95.172587" style="stroke: #000000; stroke-width: 0.8"/>
      </g>
     </g>
     <g id="text_15">
      <!-- 3000 -->
      <g transform="translate(7.2 98.971806) scale(0.1 -0.1)">
       <use xlink:href="#DejaVuSans-33"/>
       <use xlink:href="#DejaVuSans-30" x="63.623047"/>
       <use xlink:href="#DejaVuSans-30" x="127.246094"/>
       <use xlink:href="#DejaVuSans-30" x="190.869141"/>
      </g>
     </g>
    </g>
    <g id="ytick_8">
     <g id="line2d_16">
      <g>
       <use xlink:href="#m23845a07ff" x="39.65" y="65.229853" style="stroke: #000000; stroke-width: 0.8"/>
      </g>
     </g>
     <g id="text_16">
      <!-- 3500 -->
      <g transform="translate(7.2 69.029072) scale(0.1 -0.1)">
       <use xlink:href="#DejaVuSans-33"/>
       <use xlink:href="#DejaVuSans-35" x="63.623047"/>
       <use xlink:href="#DejaVuSans-30" x="127.246094"/>
       <use xlink:href="#DejaVuSans-30" x="190.869141"/>
      </g>
     </g>
    </g>
    <g id="ytick_9">
     <g id="line2d_17">
      <g>
       <use xlink:href="#m23845a07ff" x="39.65" y="35.287119" style="stroke: #000000; stroke-width: 0.8"/>
      </g>
     </g>
     <g id="text_17">
      <!-- 4000 -->
      <g transform="translate(7.2 39.086338) scale(0.1 -0.1)">
       <defs>
        <path id="DejaVuSans-34" d="M 2419 4116 
L 825 1625 
L 2419 1625 
L 2419 4116 
z
M 2253 4666 
L 3047 4666 
L 3047 1625 
L 3713 1625 
L 3713 1100 
L 3047 1100 
L 3047 0 
L 2419 0 
L 2419 1100 
L 313 1100 
L 313 1709 
L 2253 4666 
z
" transform="scale(0.015625)"/>
       </defs>
       <use xlink:href="#DejaVuSans-34"/>
       <use xlink:href="#DejaVuSans-30" x="63.623047"/>
       <use xlink:href="#DejaVuSans-30" x="127.246094"/>
       <use xlink:href="#DejaVuSans-30" x="190.869141"/>
      </g>
     </g>
    </g>
   </g>
   <g id="line2d_18">
    <path d="M 55.882727 274.828991 
L 66.327378 274.828991 
L 67.197765 272.873141 
L 68.068153 274.061709 
L 68.93854 272.735513 
L 70.679315 272.806733 
L 71.549703 269.990553 
L 72.42009 272.595224 
L 73.290478 273.731618 
L 74.160865 274.191463 
L 75.031253 274.828991 
L 75.90164 274.828991 
L 76.772028 273.749457 
L 77.642415 273.848848 
L 78.512803 274.531026 
L 80.253578 272.556589 
L 81.123965 273.367141 
L 81.994353 272.985817 
L 82.86474 272.883077 
L 83.735128 273.352883 
L 84.605515 274.828991 
L 85.475903 274.828991 
L 86.346291 273.807756 
L 87.216678 273.563405 
L 88.087066 272.736349 
L 88.957453 272.349291 
L 89.827841 273.604704 
L 90.698228 272.633496 
L 91.568616 274.313266 
L 92.439003 273.019822 
L 93.309391 273.538176 
L 94.179778 274.828991 
L 95.050166 274.828991 
L 95.920553 274.258637 
L 96.790941 272.907308 
L 97.661328 273.494901 
L 98.531716 271.929644 
L 99.402103 273.147657 
L 100.272491 273.684667 
L 101.142878 274.041544 
L 102.013266 273.896125 
L 102.883653 275.161096 
L 103.754041 274.828991 
L 104.624428 274.828991 
L 105.494816 272.745429 
L 106.365204 272.32988 
L 107.235591 272.716058 
L 108.105979 272.597819 
L 108.976366 271.463153 
L 109.846754 272.492526 
L 110.717141 274.292874 
L 111.587529 273.718377 
L 112.457916 273.623362 
L 113.328304 274.828991 
L 114.198691 274.828991 
L 115.069079 274.646177 
L 115.939466 274.812382 
L 116.809854 274.236143 
L 118.550629 272.241744 
L 119.421016 273.061686 
L 120.291404 274.896953 
L 121.161791 273.382459 
L 122.032179 273.897564 
L 122.902566 274.828991 
L 123.772954 274.828991 
L 124.643341 272.413159 
L 125.513729 272.556112 
L 126.384117 273.598815 
L 127.254504 271.852705 
L 128.124892 273.44956 
L 128.995279 273.655986 
L 129.865667 274.253499 
L 131.606442 274.13405 
L 132.476829 274.828991 
L 133.347217 274.828991 
L 134.217604 274.099526 
L 135.087992 274.017092 
L 135.958379 272.194157 
L 136.828767 273.100667 
L 137.699154 272.135503 
L 138.569542 268.895311 
L 139.439929 271.256026 
L 140.310317 275.001795 
L 141.180704 275.101958 
L 142.051092 274.828991 
L 143.791867 274.728953 
L 144.662254 270.379609 
L 145.532642 270.398685 
L 148.143805 273.799077 
L 149.014192 274.799353 
L 149.88458 274.209735 
L 150.754967 274.707126 
L 151.625355 274.828991 
L 152.495742 274.828991 
L 153.36613 273.455728 
L 154.236517 273.965947 
L 155.106905 272.921413 
L 155.977292 272.201632 
L 156.84768 272.802967 
L 157.718067 273.030307 
L 159.458842 274.859145 
L 160.32923 273.886163 
L 161.199617 274.828991 
L 162.070005 274.828991 
L 162.940392 274.357098 
L 163.81078 274.120826 
L 164.681167 272.620008 
L 165.551555 272.810888 
L 166.421942 272.199685 
L 167.29233 271.804801 
L 168.162718 272.936826 
L 169.033105 275.618788 
L 169.903493 274.238563 
L 170.77388 274.828991 
L 171.644268 274.828991 
L 172.514655 273.707736 
L 173.385043 274.292195 
L 174.25543 274.093224 
L 175.125818 274.136897 
L 175.996205 272.580358 
L 176.866593 273.253323 
L 177.73698 275.131689 
L 178.607368 274.081819 
L 179.477755 272.548134 
L 180.348143 274.828991 
L 181.21853 274.828991 
L 182.088918 273.923269 
L 182.959305 272.282328 
L 183.829693 272.566449 
L 184.70008 272.968817 
L 185.570468 272.570949 
L 186.440855 272.707977 
L 187.311243 274.039345 
L 188.181631 274.063789 
L 189.052018 274.70101 
L 189.922406 274.828991 
L 190.792793 274.828991 
L 191.663181 273.413596 
L 192.533568 273.738857 
L 194.274343 272.74589 
L 195.144731 271.844911 
L 196.015118 272.698389 
L 196.885506 273.787245 
L 197.755893 274.511066 
L 198.626281 274.262123 
L 199.496668 274.828991 
L 200.367056 274.828991 
L 201.237443 273.47774 
L 202.107831 271.728345 
L 202.978218 273.276749 
L 203.848606 273.157599 
L 204.718993 272.738091 
L 205.589381 271.979315 
L 206.459768 269.94406 
L 207.330156 275.43135 
L 208.200544 274.61153 
L 209.070931 274.828991 
L 209.941319 274.828991 
L 210.811706 272.646056 
L 211.682094 273.014321 
L 212.552481 272.058712 
L 213.422869 271.545172 
L 214.293256 271.566719 
L 215.163644 272.681669 
L 216.034031 274.141851 
L 216.904419 274.334322 
L 217.774806 275.037468 
L 218.645194 274.828991 
L 219.515581 274.828991 
L 220.385969 273.882969 
L 221.256356 273.627019 
L 222.997131 272.246525 
L 223.867519 272.062241 
L 224.737906 272.382135 
L 225.608294 273.395889 
L 226.478681 276.334125 
L 227.349069 275.118614 
L 228.219456 274.828991 
L 229.089844 274.828991 
L 229.960232 272.782873 
L 230.830619 273.36076 
L 231.701007 272.968675 
L 232.571394 269.415301 
L 233.441782 271.262427 
L 234.312169 271.759047 
L 235.182557 273.785827 
L 236.052944 273.803393 
L 236.923332 274.773983 
L 238.664107 274.828991 
L 239.534494 274.223289 
L 240.404882 274.256323 
L 241.275269 272.016115 
L 242.145657 272.823672 
L 243.016044 273.423378 
L 243.886432 273.133884 
L 244.756819 274.027496 
L 245.627207 271.328487 
L 246.497594 272.847489 
L 247.367982 274.828991 
L 248.238369 274.828991 
L 249.108757 273.314734 
L 249.979145 274.319433 
L 250.849532 273.120031 
L 251.71992 272.724979 
L 252.590307 273.231567 
L 253.460695 272.279919 
L 254.331082 273.454931 
L 256.071857 274.584723 
L 256.942245 274.828991 
L 257.812632 274.828991 
L 259.553407 273.742897 
L 260.423795 271.295251 
L 261.294182 272.479142 
L 262.16457 272.669029 
L 263.034957 272.994955 
L 263.905345 273.721899 
L 264.775732 273.601008 
L 265.64612 274.68195 
L 266.516507 274.828991 
L 267.386895 274.828991 
L 268.257282 273.117736 
L 269.12767 272.906128 
L 269.998058 273.172653 
L 270.868445 265.025502 
L 271.738833 270.774858 
L 272.60922 272.715157 
L 273.479608 271.317603 
L 274.349995 274.276689 
L 275.220383 273.929276 
L 276.09077 274.828991 
L 277.831545 274.7518 
L 278.701933 274.418879 
L 279.57232 273.61236 
L 280.442708 267.862983 
L 282.183483 271.656837 
L 283.924258 273.340769 
L 284.794645 273.422649 
L 285.665033 274.828991 
L 286.53542 274.828991 
L 288.276195 272.774251 
L 289.146583 274.289098 
L 290.016971 272.726058 
L 290.887358 268.842384 
L 291.757746 270.376325 
L 292.628133 272.625862 
L 293.498521 274.379011 
L 294.368908 273.731838 
L 295.239296 274.828991 
L 296.109683 274.828991 
L 296.980071 273.712775 
L 297.850458 273.679308 
L 298.720846 270.73057 
L 299.591233 268.99599 
L 300.461621 271.792462 
L 301.332008 270.005251 
L 302.202396 271.697965 
L 303.072783 274.338787 
L 303.943171 274.29155 
L 304.813558 274.828991 
L 306.554333 274.77119 
L 307.424721 273.372148 
L 308.295108 273.442996 
L 309.165496 270.968888 
L 310.035883 272.129844 
L 310.906271 271.452526 
L 311.776659 273.684381 
L 313.517434 273.970388 
L 314.387821 274.828991 
L 315.258209 274.828991 
L 316.128596 272.621569 
L 316.998984 273.201168 
L 317.869371 273.171323 
L 318.739759 262.259587 
L 319.610146 270.496092 
L 320.480534 270.917619 
L 321.350921 272.330396 
L 322.221309 274.287518 
L 323.091696 273.464224 
L 323.962084 274.828991 
L 324.832471 274.828991 
L 325.702859 265.339287 
L 326.573246 269.422154 
L 327.443634 268.235895 
L 328.314021 272.539352 
L 329.184409 272.068021 
L 330.925184 273.311458 
L 332.665959 275.795783 
L 333.536347 274.828991 
L 334.406734 274.828991 
L 335.277122 273.725179 
L 336.147509 274.0132 
L 337.017897 274.130809 
L 337.888284 274.028261 
L 338.758672 262.348054 
L 339.629059 270.016249 
L 341.369834 274.103471 
L 342.240222 274.79041 
L 343.980997 274.828991 
L 344.851384 273.888502 
L 345.721772 273.595113 
L 346.592159 34.414125 
L 347.462547 194.644022 
L 348.332934 194.928874 
L 349.203322 185.726456 
L 350.073709 266.006568 
L 350.944097 274.383975 
L 351.814485 275.495836 
L 352.684872 274.828991 
L 353.55526 274.828991 
L 354.425647 273.305219 
L 355.296035 273.737692 
L 356.166422 273.020137 
L 357.03681 272.639575 
L 357.907197 272.940626 
L 358.777585 272.469191 
L 359.647972 274.386513 
L 360.51836 274.538736 
L 361.388747 274.804781 
L 363.99991 274.940461 
L 364.870297 269.261889 
L 365.740685 273.013504 
L 366.611072 209.737327 
L 367.48146 257.10242 
L 368.351847 258.744324 
L 369.222235 260.089751 
L 370.092622 275.478309 
L 370.96301 273.930306 
L 371.833398 274.828991 
L 372.703785 274.828991 
L 373.574173 273.69002 
L 374.44456 273.080199 
L 375.314948 273.978987 
L 376.185335 270.855358 
L 377.055723 273.180892 
L 377.92611 270.857996 
L 378.796498 273.270026 
L 379.666885 274.15843 
L 380.537273 273.721675 
L 380.537273 273.721675 
" clip-path="url(#paa6b38b62e)" style="fill: none; stroke: #1f77b4; stroke-width: 1.5; stroke-linecap: square"/>
   </g>
   <g id="patch_3">
    <path d="M 39.65 288.430125 
L 39.65 22.318125 
" style="fill: none; stroke: #000000; stroke-width: 0.8; stroke-linejoin: miter; stroke-linecap: square"/>
   </g>
   <g id="patch_4">
    <path d="M 396.77 288.430125 
L 396.77 22.318125 
" style="fill: none; stroke: #000000; stroke-width: 0.8; stroke-linejoin: miter; stroke-linecap: square"/>
   </g>
   <g id="patch_5">
    <path d="M 39.65 288.430125 
L 396.77 288.430125 
" style="fill: none; stroke: #000000; stroke-width: 0.8; stroke-linejoin: miter; stroke-linecap: square"/>
   </g>
   <g id="patch_6">
    <path d="M 39.65 22.318125 
L 396.77 22.318125 
" style="fill: none; stroke: #000000; stroke-width: 0.8; stroke-linejoin: miter; stroke-linecap: square"/>
   </g>
   <g id="text_18">
    <!-- Thermal Flux -->
    <g transform="translate(179.122813 16.318125) scale(0.12 -0.12)">
     <defs>
      <path id="DejaVuSans-54" d="M -19 4666 
L 3928 4666 
L 3928 4134 
L 2272 4134 
L 2272 0 
L 1638 0 
L 1638 4134 
L -19 4134 
L -19 4666 
z
" transform="scale(0.015625)"/>
      <path id="DejaVuSans-68" d="M 3513 2113 
L 3513 0 
L 2938 0 
L 2938 2094 
Q 2938 2591 2744 2837 
Q 2550 3084 2163 3084 
Q 1697 3084 1428 2787 
Q 1159 2491 1159 1978 
L 1159 0 
L 581 0 
L 581 4863 
L 1159 4863 
L 1159 2956 
Q 1366 3272 1645 3428 
Q 1925 3584 2291 3584 
Q 2894 3584 3203 3211 
Q 3513 2838 3513 2113 
z
" transform="scale(0.015625)"/>
      <path id="DejaVuSans-65" d="M 3597 1894 
L 3597 1613 
L 953 1613 
Q 991 1019 1311 708 
Q 1631 397 2203 397 
Q 2534 397 2845 478 
Q 3156 559 3463 722 
L 3463 178 
Q 3153 47 2828 -22 
Q 2503 -91 2169 -91 
Q 1331 -91 842 396 
Q 353 884 353 1716 
Q 353 2575 817 3079 
Q 1281 3584 2069 3584 
Q 2775 3584 3186 3129 
Q 3597 2675 3597 1894 
z
M 3022 2063 
Q 3016 2534 2758 2815 
Q 2500 3097 2075 3097 
Q 1594 3097 1305 2825 
Q 1016 2553 972 2059 
L 3022 2063 
z
" transform="scale(0.015625)"/>
      <path id="DejaVuSans-72" d="M 2631 2963 
Q 2534 3019 2420 3045 
Q 2306 3072 2169 3072 
Q 1681 3072 1420 2755 
Q 1159 2438 1159 1844 
L 1159 0 
L 581 0 
L 581 3500 
L 1159 3500 
L 1159 2956 
Q 1341 3275 1631 3429 
Q 1922 3584 2338 3584 
Q 2397 3584 2469 3576 
Q 2541 3569 2628 3553 
L 2631 2963 
z
" transform="scale(0.015625)"/>
      <path id="DejaVuSans-6d" d="M 3328 2828 
Q 3544 3216 3844 3400 
Q 4144 3584 4550 3584 
Q 5097 3584 5394 3201 
Q 5691 2819 5691 2113 
L 5691 0 
L 5113 0 
L 5113 2094 
Q 5113 2597 4934 2840 
Q 4756 3084 4391 3084 
Q 3944 3084 3684 2787 
Q 3425 2491 3425 1978 
L 3425 0 
L 2847 0 
L 2847 2094 
Q 2847 2600 2669 2842 
Q 2491 3084 2119 3084 
Q 1678 3084 1418 2786 
Q 1159 2488 1159 1978 
L 1159 0 
L 581 0 
L 581 3500 
L 1159 3500 
L 1159 2956 
Q 1356 3278 1631 3431 
Q 1906 3584 2284 3584 
Q 2666 3584 2933 3390 
Q 3200 3197 3328 2828 
z
" transform="scale(0.015625)"/>
      <path id="DejaVuSans-61" d="M 2194 1759 
Q 1497 1759 1228 1600 
Q 959 1441 959 1056 
Q 959 750 1161 570 
Q 1363 391 1709 391 
Q 2188 391 2477 730 
Q 2766 1069 2766 1631 
L 2766 1759 
L 2194 1759 
z
M 3341 1997 
L 3341 0 
L 2766 0 
L 2766 531 
Q 2569 213 2275 61 
Q 1981 -91 1556 -91 
Q 1019 -91 701 211 
Q 384 513 384 1019 
Q 384 1609 779 1909 
Q 1175 2209 1959 2209 
L 2766 2209 
L 2766 2266 
Q 2766 2663 2505 2880 
Q 2244 3097 1772 3097 
Q 1472 3097 1187 3025 
Q 903 2953 641 2809 
L 641 3341 
Q 956 3463 1253 3523 
Q 1550 3584 1831 3584 
Q 2591 3584 2966 3190 
Q 3341 2797 3341 1997 
z
" transform="scale(0.015625)"/>
      <path id="DejaVuSans-6c" d="M 603 4863 
L 1178 4863 
L 1178 0 
L 603 0 
L 603 4863 
z
" transform="scale(0.015625)"/>
      <path id="DejaVuSans-20" transform="scale(0.015625)"/>
      <path id="DejaVuSans-46" d="M 628 4666 
L 3309 4666 
L 3309 4134 
L 1259 4134 
L 1259 2759 
L 3109 2759 
L 3109 2228 
L 1259 2228 
L 1259 0 
L 628 0 
L 628 4666 
z
" transform="scale(0.015625)"/>
      <path id="DejaVuSans-75" d="M 544 1381 
L 544 3500 
L 1119 3500 
L 1119 1403 
Q 1119 906 1312 657 
Q 1506 409 1894 409 
Q 2359 409 2629 706 
Q 2900 1003 2900 1516 
L 2900 3500 
L 3475 3500 
L 3475 0 
L 2900 0 
L 2900 538 
Q 2691 219 2414 64 
Q 2138 -91 1772 -91 
Q 1169 -91 856 284 
Q 544 659 544 1381 
z
M 1991 3584 
L 1991 3584 
z
" transform="scale(0.015625)"/>
      <path id="DejaVuSans-78" d="M 3513 3500 
L 2247 1797 
L 3578 0 
L 2900 0 
L 1881 1375 
L 863 0 
L 184 0 
L 1544 1831 
L 300 3500 
L 978 3500 
L 1906 2253 
L 2834 3500 
L 3513 3500 
z
" transform="scale(0.015625)"/>
     </defs>
     <use xlink:href="#DejaVuSans-54"/>
     <use xlink:href="#DejaVuSans-68" x="61.083984"/>
     <use xlink:href="#DejaVuSans-65" x="124.462891"/>
     <use xlink:href="#DejaVuSans-72" x="185.986328"/>
     <use xlink:href="#DejaVuSans-6d" x="225.349609"/>
     <use xlink:href="#DejaVuSans-61" x="322.761719"/>
     <use xlink:href="#DejaVuSans-6c" x="384.041016"/>
     <use xlink:href="#DejaVuSans-20" x="411.824219"/>
     <use xlink:href="#DejaVuSans-46" x="443.611328"/>
     <use xlink:href="#DejaVuSans-6c" x="501.130859"/>
     <use xlink:href="#DejaVuSans-75" x="528.914062"/>
     <use xlink:href="#DejaVuSans-78" x="592.292969"/>
    </g>
   </g>
  </g>
 </g>
 <defs>
  <clipPath id="paa6b38b62e">
   <rect x="39.65" y="22.318125" width="357.12" height="266.112"/>
  </clipPath>
 </defs>
</svg>
