<?xml version="1.0" encoding="utf-8" standalone="no"?>
<!DOCTYPE svg PUBLIC "-//W3C//DTD SVG 1.1//EN"
  "http://www.w3.org/Graphics/SVG/1.1/DTD/svg11.dtd">
<svg xmlns:xlink="http://www.w3.org/1999/xlink" width="400.785625pt" height="312.30825pt" viewBox="0 0 400.785625 312.30825" xmlns="http://www.w3.org/2000/svg" version="1.1">
 <metadata>
  <rdf:RDF xmlns:dc="http://purl.org/dc/elements/1.1/" xmlns:cc="http://creativecommons.org/ns#" xmlns:rdf="http://www.w3.org/1999/02/22-rdf-syntax-ns#">
   <cc:Work>
    <dc:type rdf:resource="http://purl.org/dc/dcmitype/StillImage"/>
    <dc:date>2024-03-18T09:15:19.738878</dc:date>
    <dc:format>image/svg+xml</dc:format>
    <dc:creator>
     <cc:Agent>
      <dc:title>Matplotlib v3.8.3, https://matplotlib.org/</dc:title>
     </cc:Agent>
    </dc:creator>
   </cc:Work>
  </rdf:RDF>
 </metadata>
 <defs>
  <style type="text/css">*{stroke-linejoin: round; stroke-linecap: butt}</style>
 </defs>
 <g id="figure_1">
  <g id="patch_1">
   <path d="M 0 312.30825 
L 400.785625 312.30825 
L 400.785625 0 
L 0 0 
z
" style="fill: #ffffff"/>
  </g>
  <g id="axes_1">
   <g id="patch_2">
    <path d="M 36.465625 288.430125 
L 393.585625 288.430125 
L 393.585625 22.318125 
L 36.465625 22.318125 
z
" style="fill: #ffffff"/>
   </g>
   <g id="matplotlib.axis_1">
    <g id="xtick_1">
     <g id="line2d_1">
      <defs>
       <path id="m1e494e1a66" d="M 0 0 
L 0 3.5 
" style="stroke: #000000; stroke-width: 0.8"/>
      </defs>
      <g>
       <use xlink:href="#m1e494e1a66" x="36.465625" y="288.430125" style="stroke: #000000; stroke-width: 0.8"/>
      </g>
     </g>
     <g id="text_1">
      <!-- 0 -->
      <g transform="translate(33.284375 303.028562) scale(0.1 -0.1)">
       <defs>
        <path id="DejaVuSans-30" d="M 2034 4250 
Q 1547 4250 1301 3770 
Q 1056 3291 1056 2328 
Q 1056 1369 1301 889 
Q 1547 409 2034 409 
Q 2525 409 2770 889 
Q 3016 1369 3016 2328 
Q 3016 3291 2770 3770 
Q 2525 4250 2034 4250 
z
M 2034 4750 
Q 2819 4750 3233 4129 
Q 3647 3509 3647 2328 
Q 3647 1150 3233 529 
Q 2819 -91 2034 -91 
Q 1250 -91 836 529 
Q 422 1150 422 2328 
Q 422 3509 836 4129 
Q 1250 4750 2034 4750 
z
" transform="scale(0.015625)"/>
       </defs>
       <use xlink:href="#DejaVuSans-30"/>
      </g>
     </g>
    </g>
    <g id="xtick_2">
     <g id="line2d_2">
      <g>
       <use xlink:href="#m1e494e1a66" x="78.080242" y="288.430125" style="stroke: #000000; stroke-width: 0.8"/>
      </g>
     </g>
     <g id="text_2">
      <!-- 5 -->
      <g transform="translate(74.898992 303.028562) scale(0.1 -0.1)">
       <defs>
        <path id="DejaVuSans-35" d="M 691 4666 
L 3169 4666 
L 3169 4134 
L 1269 4134 
L 1269 2991 
Q 1406 3038 1543 3061 
Q 1681 3084 1819 3084 
Q 2600 3084 3056 2656 
Q 3513 2228 3513 1497 
Q 3513 744 3044 326 
Q 2575 -91 1722 -91 
Q 1428 -91 1123 -41 
Q 819 9 494 109 
L 494 744 
Q 775 591 1075 516 
Q 1375 441 1709 441 
Q 2250 441 2565 725 
Q 2881 1009 2881 1497 
Q 2881 1984 2565 2268 
Q 2250 2553 1709 2553 
Q 1456 2553 1204 2497 
Q 953 2441 691 2322 
L 691 4666 
z
" transform="scale(0.015625)"/>
       </defs>
       <use xlink:href="#DejaVuSans-35"/>
      </g>
     </g>
    </g>
    <g id="xtick_3">
     <g id="line2d_3">
      <g>
       <use xlink:href="#m1e494e1a66" x="119.69486" y="288.430125" style="stroke: #000000; stroke-width: 0.8"/>
      </g>
     </g>
     <g id="text_3">
      <!-- 10 -->
      <g transform="translate(113.33236 303.028562) scale(0.1 -0.1)">
       <defs>
        <path id="DejaVuSans-31" d="M 794 531 
L 1825 531 
L 1825 4091 
L 703 3866 
L 703 4441 
L 1819 4666 
L 2450 4666 
L 2450 531 
L 3481 531 
L 3481 0 
L 794 0 
L 794 531 
z
" transform="scale(0.015625)"/>
       </defs>
       <use xlink:href="#DejaVuSans-31"/>
       <use xlink:href="#DejaVuSans-30" x="63.623047"/>
      </g>
     </g>
    </g>
    <g id="xtick_4">
     <g id="line2d_4">
      <g>
       <use xlink:href="#m1e494e1a66" x="161.309477" y="288.430125" style="stroke: #000000; stroke-width: 0.8"/>
      </g>
     </g>
     <g id="text_4">
      <!-- 15 -->
      <g transform="translate(154.946977 303.028562) scale(0.1 -0.1)">
       <use xlink:href="#DejaVuSans-31"/>
       <use xlink:href="#DejaVuSans-35" x="63.623047"/>
      </g>
     </g>
    </g>
    <g id="xtick_5">
     <g id="line2d_5">
      <g>
       <use xlink:href="#m1e494e1a66" x="202.924094" y="288.430125" style="stroke: #000000; stroke-width: 0.8"/>
      </g>
     </g>
     <g id="text_5">
      <!-- 20 -->
      <g transform="translate(196.561594 303.028562) scale(0.1 -0.1)">
       <defs>
        <path id="DejaVuSans-32" d="M 1228 531 
L 3431 531 
L 3431 0 
L 469 0 
L 469 531 
Q 828 903 1448 1529 
Q 2069 2156 2228 2338 
Q 2531 2678 2651 2914 
Q 2772 3150 2772 3378 
Q 2772 3750 2511 3984 
Q 2250 4219 1831 4219 
Q 1534 4219 1204 4116 
Q 875 4013 500 3803 
L 500 4441 
Q 881 4594 1212 4672 
Q 1544 4750 1819 4750 
Q 2544 4750 2975 4387 
Q 3406 4025 3406 3419 
Q 3406 3131 3298 2873 
Q 3191 2616 2906 2266 
Q 2828 2175 2409 1742 
Q 1991 1309 1228 531 
z
" transform="scale(0.015625)"/>
       </defs>
       <use xlink:href="#DejaVuSans-32"/>
       <use xlink:href="#DejaVuSans-30" x="63.623047"/>
      </g>
     </g>
    </g>
    <g id="xtick_6">
     <g id="line2d_6">
      <g>
       <use xlink:href="#m1e494e1a66" x="244.538712" y="288.430125" style="stroke: #000000; stroke-width: 0.8"/>
      </g>
     </g>
     <g id="text_6">
      <!-- 25 -->
      <g transform="translate(238.176212 303.028562) scale(0.1 -0.1)">
       <use xlink:href="#DejaVuSans-32"/>
       <use xlink:href="#DejaVuSans-35" x="63.623047"/>
      </g>
     </g>
    </g>
    <g id="xtick_7">
     <g id="line2d_7">
      <g>
       <use xlink:href="#m1e494e1a66" x="286.153329" y="288.430125" style="stroke: #000000; stroke-width: 0.8"/>
      </g>
     </g>
     <g id="text_7">
      <!-- 30 -->
      <g transform="translate(279.790829 303.028562) scale(0.1 -0.1)">
       <defs>
        <path id="DejaVuSans-33" d="M 2597 2516 
Q 3050 2419 3304 2112 
Q 3559 1806 3559 1356 
Q 3559 666 3084 287 
Q 2609 -91 1734 -91 
Q 1441 -91 1130 -33 
Q 819 25 488 141 
L 488 750 
Q 750 597 1062 519 
Q 1375 441 1716 441 
Q 2309 441 2620 675 
Q 2931 909 2931 1356 
Q 2931 1769 2642 2001 
Q 2353 2234 1838 2234 
L 1294 2234 
L 1294 2753 
L 1863 2753 
Q 2328 2753 2575 2939 
Q 2822 3125 2822 3475 
Q 2822 3834 2567 4026 
Q 2313 4219 1838 4219 
Q 1578 4219 1281 4162 
Q 984 4106 628 3988 
L 628 4550 
Q 988 4650 1302 4700 
Q 1616 4750 1894 4750 
Q 2613 4750 3031 4423 
Q 3450 4097 3450 3541 
Q 3450 3153 3228 2886 
Q 3006 2619 2597 2516 
z
" transform="scale(0.015625)"/>
       </defs>
       <use xlink:href="#DejaVuSans-33"/>
       <use xlink:href="#DejaVuSans-30" x="63.623047"/>
      </g>
     </g>
    </g>
    <g id="xtick_8">
     <g id="line2d_8">
      <g>
       <use xlink:href="#m1e494e1a66" x="327.767946" y="288.430125" style="stroke: #000000; stroke-width: 0.8"/>
      </g>
     </g>
     <g id="text_8">
      <!-- 35 -->
      <g transform="translate(321.405446 303.028562) scale(0.1 -0.1)">
       <use xlink:href="#DejaVuSans-33"/>
       <use xlink:href="#DejaVuSans-35" x="63.623047"/>
      </g>
     </g>
    </g>
    <g id="xtick_9">
     <g id="line2d_9">
      <g>
       <use xlink:href="#m1e494e1a66" x="369.382564" y="288.430125" style="stroke: #000000; stroke-width: 0.8"/>
      </g>
     </g>
     <g id="text_9">
      <!-- 40 -->
      <g transform="translate(363.020064 303.028562) scale(0.1 -0.1)">
       <defs>
        <path id="DejaVuSans-34" d="M 2419 4116 
L 825 1625 
L 2419 1625 
L 2419 4116 
z
M 2253 4666 
L 3047 4666 
L 3047 1625 
L 3713 1625 
L 3713 1100 
L 3047 1100 
L 3047 0 
L 2419 0 
L 2419 1100 
L 313 1100 
L 313 1709 
L 2253 4666 
z
" transform="scale(0.015625)"/>
       </defs>
       <use xlink:href="#DejaVuSans-34"/>
       <use xlink:href="#DejaVuSans-30" x="63.623047"/>
      </g>
     </g>
    </g>
   </g>
   <g id="matplotlib.axis_2">
    <g id="ytick_1">
     <g id="line2d_10">
      <defs>
       <path id="m6e5aa05ab3" d="M 0 0 
L -3.5 0 
" style="stroke: #000000; stroke-width: 0.8"/>
      </defs>
      <g>
       <use xlink:href="#m6e5aa05ab3" x="36.465625" y="276.185323" style="stroke: #000000; stroke-width: 0.8"/>
      </g>
     </g>
     <g id="text_10">
      <!-- 12.2 -->
      <g transform="translate(7.2 279.984542) scale(0.1 -0.1)">
       <defs>
        <path id="DejaVuSans-2e" d="M 684 794 
L 1344 794 
L 1344 0 
L 684 0 
L 684 794 
z
" transform="scale(0.015625)"/>
       </defs>
       <use xlink:href="#DejaVuSans-31"/>
       <use xlink:href="#DejaVuSans-32" x="63.623047"/>
       <use xlink:href="#DejaVuSans-2e" x="127.246094"/>
       <use xlink:href="#DejaVuSans-32" x="159.033203"/>
      </g>
     </g>
    </g>
    <g id="ytick_2">
     <g id="line2d_11">
      <g>
       <use xlink:href="#m6e5aa05ab3" x="36.465625" y="242.005021" style="stroke: #000000; stroke-width: 0.8"/>
      </g>
     </g>
     <g id="text_11">
      <!-- 12.4 -->
      <g transform="translate(7.2 245.804239) scale(0.1 -0.1)">
       <use xlink:href="#DejaVuSans-31"/>
       <use xlink:href="#DejaVuSans-32" x="63.623047"/>
       <use xlink:href="#DejaVuSans-2e" x="127.246094"/>
       <use xlink:href="#DejaVuSans-34" x="159.033203"/>
      </g>
     </g>
    </g>
    <g id="ytick_3">
     <g id="line2d_12">
      <g>
       <use xlink:href="#m6e5aa05ab3" x="36.465625" y="207.824718" style="stroke: #000000; stroke-width: 0.8"/>
      </g>
     </g>
     <g id="text_12">
      <!-- 12.6 -->
      <g transform="translate(7.2 211.623937) scale(0.1 -0.1)">
       <defs>
        <path id="DejaVuSans-36" d="M 2113 2584 
Q 1688 2584 1439 2293 
Q 1191 2003 1191 1497 
Q 1191 994 1439 701 
Q 1688 409 2113 409 
Q 2538 409 2786 701 
Q 3034 994 3034 1497 
Q 3034 2003 2786 2293 
Q 2538 2584 2113 2584 
z
M 3366 4563 
L 3366 3988 
Q 3128 4100 2886 4159 
Q 2644 4219 2406 4219 
Q 1781 4219 1451 3797 
Q 1122 3375 1075 2522 
Q 1259 2794 1537 2939 
Q 1816 3084 2150 3084 
Q 2853 3084 3261 2657 
Q 3669 2231 3669 1497 
Q 3669 778 3244 343 
Q 2819 -91 2113 -91 
Q 1303 -91 875 529 
Q 447 1150 447 2328 
Q 447 3434 972 4092 
Q 1497 4750 2381 4750 
Q 2619 4750 2861 4703 
Q 3103 4656 3366 4563 
z
" transform="scale(0.015625)"/>
       </defs>
       <use xlink:href="#DejaVuSans-31"/>
       <use xlink:href="#DejaVuSans-32" x="63.623047"/>
       <use xlink:href="#DejaVuSans-2e" x="127.246094"/>
       <use xlink:href="#DejaVuSans-36" x="159.033203"/>
      </g>
     </g>
    </g>
    <g id="ytick_4">
     <g id="line2d_13">
      <g>
       <use xlink:href="#m6e5aa05ab3" x="36.465625" y="173.644415" style="stroke: #000000; stroke-width: 0.8"/>
      </g>
     </g>
     <g id="text_13">
      <!-- 12.8 -->
      <g transform="translate(7.2 177.443634) scale(0.1 -0.1)">
       <defs>
        <path id="DejaVuSans-38" d="M 2034 2216 
Q 1584 2216 1326 1975 
Q 1069 1734 1069 1313 
Q 1069 891 1326 650 
Q 1584 409 2034 409 
Q 2484 409 2743 651 
Q 3003 894 3003 1313 
Q 3003 1734 2745 1975 
Q 2488 2216 2034 2216 
z
M 1403 2484 
Q 997 2584 770 2862 
Q 544 3141 544 3541 
Q 544 4100 942 4425 
Q 1341 4750 2034 4750 
Q 2731 4750 3128 4425 
Q 3525 4100 3525 3541 
Q 3525 3141 3298 2862 
Q 3072 2584 2669 2484 
Q 3125 2378 3379 2068 
Q 3634 1759 3634 1313 
Q 3634 634 3220 271 
Q 2806 -91 2034 -91 
Q 1263 -91 848 271 
Q 434 634 434 1313 
Q 434 1759 690 2068 
Q 947 2378 1403 2484 
z
M 1172 3481 
Q 1172 3119 1398 2916 
Q 1625 2713 2034 2713 
Q 2441 2713 2670 2916 
Q 2900 3119 2900 3481 
Q 2900 3844 2670 4047 
Q 2441 4250 2034 4250 
Q 1625 4250 1398 4047 
Q 1172 3844 1172 3481 
z
" transform="scale(0.015625)"/>
       </defs>
       <use xlink:href="#DejaVuSans-31"/>
       <use xlink:href="#DejaVuSans-32" x="63.623047"/>
       <use xlink:href="#DejaVuSans-2e" x="127.246094"/>
       <use xlink:href="#DejaVuSans-38" x="159.033203"/>
      </g>
     </g>
    </g>
    <g id="ytick_5">
     <g id="line2d_14">
      <g>
       <use xlink:href="#m6e5aa05ab3" x="36.465625" y="139.464112" style="stroke: #000000; stroke-width: 0.8"/>
      </g>
     </g>
     <g id="text_14">
      <!-- 13.0 -->
      <g transform="translate(7.2 143.263331) scale(0.1 -0.1)">
       <use xlink:href="#DejaVuSans-31"/>
       <use xlink:href="#DejaVuSans-33" x="63.623047"/>
       <use xlink:href="#DejaVuSans-2e" x="127.246094"/>
       <use xlink:href="#DejaVuSans-30" x="159.033203"/>
      </g>
     </g>
    </g>
    <g id="ytick_6">
     <g id="line2d_15">
      <g>
       <use xlink:href="#m6e5aa05ab3" x="36.465625" y="105.28381" style="stroke: #000000; stroke-width: 0.8"/>
      </g>
     </g>
     <g id="text_15">
      <!-- 13.2 -->
      <g transform="translate(7.2 109.083028) scale(0.1 -0.1)">
       <use xlink:href="#DejaVuSans-31"/>
       <use xlink:href="#DejaVuSans-33" x="63.623047"/>
       <use xlink:href="#DejaVuSans-2e" x="127.246094"/>
       <use xlink:href="#DejaVuSans-32" x="159.033203"/>
      </g>
     </g>
    </g>
    <g id="ytick_7">
     <g id="line2d_16">
      <g>
       <use xlink:href="#m6e5aa05ab3" x="36.465625" y="71.103507" style="stroke: #000000; stroke-width: 0.8"/>
      </g>
     </g>
     <g id="text_16">
      <!-- 13.4 -->
      <g transform="translate(7.2 74.902726) scale(0.1 -0.1)">
       <use xlink:href="#DejaVuSans-31"/>
       <use xlink:href="#DejaVuSans-33" x="63.623047"/>
       <use xlink:href="#DejaVuSans-2e" x="127.246094"/>
       <use xlink:href="#DejaVuSans-34" x="159.033203"/>
      </g>
     </g>
    </g>
    <g id="ytick_8">
     <g id="line2d_17">
      <g>
       <use xlink:href="#m6e5aa05ab3" x="36.465625" y="36.923204" style="stroke: #000000; stroke-width: 0.8"/>
      </g>
     </g>
     <g id="text_17">
      <!-- 13.6 -->
      <g transform="translate(7.2 40.722423) scale(0.1 -0.1)">
       <use xlink:href="#DejaVuSans-31"/>
       <use xlink:href="#DejaVuSans-33" x="63.623047"/>
       <use xlink:href="#DejaVuSans-2e" x="127.246094"/>
       <use xlink:href="#DejaVuSans-36" x="159.033203"/>
      </g>
     </g>
    </g>
   </g>
   <g id="line2d_18">
    <path d="M 36.465625 35.50924 
L 37.423051 73.708228 
L 38.380478 176.18406 
L 39.337904 236.276679 
L 40.29533 265.268523 
L 41.252756 273.789784 
L 42.210183 264.958789 
L 43.167609 237.563991 
L 44.125035 178.361463 
L 45.082461 77.126908 
L 46.039888 38.857588 
L 46.997314 38.936303 
L 47.95474 78.326914 
L 48.912167 181.060291 
L 49.869593 240.263768 
L 50.827019 266.326362 
L 51.784445 274.396931 
L 52.741872 265.980426 
L 53.699298 238.283845 
L 54.656724 177.786523 
L 55.61415 75.136866 
L 56.571577 39.050831 
L 57.529003 38.038189 
L 58.486429 73.783981 
L 59.443856 176.760918 
L 60.401282 237.431255 
L 61.358708 264.528534 
L 62.316134 273.688392 
L 63.273561 264.823342 
L 64.230987 235.596812 
L 65.188413 176.524816 
L 66.145839 74.808115 
L 67.103266 37.716686 
L 68.060692 37.194141 
L 69.018118 73.107577 
L 69.975545 176.722755 
L 70.932971 236.9787 
L 71.890397 262.913533 
L 72.847823 271.36941 
L 73.80525 264.544203 
L 74.762676 236.01027 
L 75.720102 176.823191 
L 76.677528 75.420049 
L 77.634955 38.377062 
L 78.592381 40.963693 
L 79.549807 78.29687 
L 80.507234 180.550781 
L 81.46466 239.858736 
L 82.422086 266.190191 
L 83.379512 275.63686 
L 84.336939 267.431835 
L 85.294365 238.93972 
L 86.251791 179.562011 
L 87.209217 76.275668 
L 88.166644 38.465633 
L 89.12407 38.492479 
L 90.081496 76.851538 
L 91.038923 178.500352 
L 91.996349 237.882405 
L 92.953775 265.175056 
L 93.911201 271.943562 
L 94.868628 263.054922 
L 95.826054 237.426518 
L 96.78348 179.046359 
L 97.740907 77.407679 
L 98.698333 40.754598 
L 99.655759 40.826329 
L 100.613185 76.779172 
L 101.570612 179.854166 
L 102.528038 239.001072 
L 103.485464 266.893663 
L 104.44289 276.334125 
L 105.400317 267.761502 
L 106.357743 239.894227 
L 107.315169 180.128162 
L 108.272596 78.174862 
L 109.230022 40.818867 
L 110.187448 40.760905 
L 111.144874 78.713034 
L 112.102301 180.824531 
L 113.059727 240.316738 
L 114.017153 267.005836 
L 114.974579 275.09286 
L 115.932006 265.725389 
L 116.889432 237.68575 
L 117.846858 177.201374 
L 118.804285 76.631918 
L 119.761711 39.47666 
L 120.719137 39.776208 
L 121.676563 77.956177 
L 122.63399 180.334513 
L 123.591416 238.467103 
L 124.548842 263.638641 
L 125.506268 273.171789 
L 126.463695 264.547916 
L 127.421121 237.866027 
L 128.378547 177.625279 
L 129.335974 74.551095 
L 130.2934 36.30914 
L 131.250826 35.841004 
L 132.208252 74.094608 
L 133.165679 177.422826 
L 134.123105 237.284981 
L 135.080531 262.677663 
L 136.037957 270.661158 
L 136.995384 263.763388 
L 137.95281 235.13622 
L 138.910236 175.436032 
L 139.867663 75.146974 
L 140.825089 38.044881 
L 141.782515 37.310226 
L 142.739941 75.193445 
L 143.697368 177.794088 
L 144.654794 236.94108 
L 145.61222 264.508363 
L 146.569646 273.350195 
L 147.527073 264.972019 
L 148.484499 239.397188 
L 149.441925 179.975855 
L 150.399352 77.91895 
L 151.356778 39.885234 
L 152.314204 40.901959 
L 153.27163 79.145351 
L 154.229057 178.645681 
L 155.186483 237.987419 
L 156.143909 266.203818 
L 157.101335 273.39684 
L 158.058762 263.44289 
L 159.016188 237.646973 
L 159.973614 177.651099 
L 160.931041 77.403332 
L 161.888467 38.830555 
L 162.845893 39.513653 
L 163.803319 75.964508 
L 164.760746 178.504631 
L 165.718172 238.340877 
L 166.675598 265.15522 
L 167.633024 273.165745 
L 168.590451 264.450889 
L 169.547877 237.597732 
L 170.505303 177.761879 
L 171.46273 76.066604 
L 172.420156 38.958338 
L 173.377582 39.616415 
L 174.335008 76.373729 
L 175.292435 178.34415 
L 176.249861 237.185877 
L 177.207287 265.636301 
L 178.164713 275.735456 
L 179.12214 266.190817 
L 180.079566 240.381079 
L 181.036992 180.099755 
L 181.994419 81.327922 
L 182.951845 42.873366 
L 183.909271 41.671714 
L 184.866697 79.394431 
L 185.824124 180.388246 
L 186.78155 238.596379 
L 187.738976 266.412277 
L 188.696402 273.687825 
L 189.653829 265.43692 
L 190.611255 238.603006 
L 191.568681 179.012868 
L 192.526108 75.991134 
L 193.483534 38.723549 
L 194.44096 36.283651 
L 195.398386 75.205192 
L 196.355813 177.44904 
L 197.313239 235.03847 
L 198.270665 264.748457 
L 199.228091 272.838226 
L 200.185518 263.45369 
L 201.142944 237.497012 
L 202.10037 177.707593 
L 203.057797 78.195396 
L 204.015223 40.514382 
L 204.972649 40.678907 
L 205.930075 76.439274 
L 206.887502 177.855635 
L 207.844928 237.500441 
L 208.802354 264.648626 
L 209.75978 273.175697 
L 210.717207 264.586192 
L 211.674633 237.094789 
L 212.632059 178.324434 
L 213.589486 77.309686 
L 214.546912 38.312375 
L 215.504338 38.037361 
L 216.461764 76.546204 
L 217.419191 178.751041 
L 218.376617 239.324605 
L 219.334043 265.712687 
L 220.29147 274.302697 
L 221.248896 266.251906 
L 222.206322 238.952174 
L 223.163748 179.211277 
L 224.121175 76.352922 
L 225.078601 40.66315 
L 226.036027 41.731129 
L 226.993453 79.434023 
L 227.95088 180.379031 
L 228.908306 240.897863 
L 229.865732 267.584749 
L 230.823159 275.343547 
L 231.780585 266.901968 
L 232.738011 239.469722 
L 233.695437 178.611787 
L 234.652864 76.694583 
L 235.61029 39.830516 
L 236.567716 38.565333 
L 237.525142 77.077374 
L 238.482569 179.171075 
L 239.439995 238.354613 
L 240.397421 263.931168 
L 241.354848 271.589533 
L 242.312274 262.137834 
L 243.2697 237.401053 
L 244.227126 176.395429 
L 245.184553 76.913858 
L 246.141979 39.276781 
L 247.099405 37.862299 
L 248.056831 77.657867 
L 249.014258 178.679313 
L 249.971684 237.668916 
L 250.92911 264.59772 
L 251.886537 272.409286 
L 252.843963 264.424999 
L 253.801389 237.421518 
L 254.758815 176.806742 
L 255.716242 76.253284 
L 256.673668 38.340673 
L 257.631094 37.084394 
L 258.58852 76.408451 
L 259.545947 177.920364 
L 260.503373 237.398431 
L 261.460799 264.557576 
L 262.418226 273.692337 
L 263.375652 265.395051 
L 264.333078 237.230939 
L 265.290504 178.682995 
L 266.247931 77.213776 
L 267.205357 40.244237 
L 268.162783 39.439894 
L 269.120209 76.656861 
L 270.077636 178.266401 
L 271.035062 237.343754 
L 271.992488 264.233804 
L 272.949915 272.571178 
L 273.907341 264.739053 
L 274.864767 237.599299 
L 275.822193 179.478138 
L 276.77962 77.018099 
L 277.737046 38.024926 
L 278.694472 37.059157 
L 279.651898 75.260739 
L 280.609325 178.692639 
L 281.566751 237.711069 
L 282.524177 265.547438 
L 283.481604 275.235463 
L 284.43903 268.267418 
L 285.396456 241.566598 
L 286.353882 180.119433 
L 287.311309 78.197124 
L 288.268735 40.40847 
L 289.226161 40.34188 
L 290.183587 78.783976 
L 291.141014 179.54567 
L 292.09844 237.296506 
L 293.055866 264.309609 
L 294.013293 272.891734 
L 294.970719 264.763047 
L 295.928145 239.161021 
L 296.885571 178.587397 
L 297.842998 76.275814 
L 298.800424 36.71872 
L 299.75785 35.963193 
L 300.715276 75.069917 
L 301.672703 178.188142 
L 302.630129 238.232715 
L 303.587555 265.618474 
L 304.544982 273.418928 
L 305.502408 265.151333 
L 306.459834 239.141351 
L 307.41726 179.419236 
L 308.374687 76.595166 
L 309.332113 39.202386 
L 310.289539 39.001146 
L 311.246965 76.094242 
L 312.204392 177.629117 
L 313.161818 237.978581 
L 314.119244 266.761721 
L 315.076671 273.352488 
L 316.034097 264.929785 
L 316.991523 236.974925 
L 317.948949 176.150941 
L 318.906376 72.450603 
L 319.863802 34.414125 
L 320.821228 35.044926 
L 321.778654 73.16601 
L 322.736081 174.992677 
L 323.693507 234.450715 
L 324.650933 262.26774 
L 325.60836 271.130892 
L 326.565786 263.45715 
L 327.523212 237.038446 
L 328.480638 178.074678 
L 329.438065 75.400441 
L 330.395491 36.675036 
L 331.352917 38.166568 
L 332.310343 78.088003 
L 333.26777 178.778187 
L 334.225196 238.18375 
L 335.182622 264.952285 
L 336.140049 274.147839 
L 337.097475 263.571545 
L 338.054901 237.410706 
L 339.012327 177.424524 
L 339.969754 76.419665 
L 340.92718 38.35987 
L 341.884606 38.241998 
L 342.842033 75.966803 
L 343.799459 177.264386 
L 344.756885 236.41138 
L 345.714311 263.638361 
L 346.671738 272.188405 
L 347.629164 265.503293 
L 348.58659 236.279823 
L 349.544016 178.279219 
L 350.501443 76.950534 
L 351.458869 40.609274 
L 352.416295 41.64995 
L 353.373722 79.269723 
L 354.331148 178.80118 
L 355.288574 237.279938 
L 356.246 264.187247 
L 357.203427 273.781639 
L 358.160853 264.398129 
L 359.118279 237.76726 
L 360.075705 177.808612 
L 361.033132 75.549078 
L 361.990558 37.570733 
L 362.947984 38.8099 
L 363.905411 77.657435 
L 364.862837 179.09873 
L 365.820263 238.230066 
L 366.777689 266.012303 
L 367.735116 273.540722 
L 368.692542 263.95606 
L 369.649968 238.338516 
L 370.607394 178.669343 
L 371.564821 76.328239 
L 372.522247 39.164399 
L 373.479673 37.565822 
L 374.4371 74.482193 
L 375.394526 176.622591 
L 376.351952 236.301363 
L 377.309378 264.225648 
L 378.266805 273.27528 
L 379.224231 265.364143 
L 380.181657 237.373339 
L 381.139083 176.570924 
L 382.09651 75.921672 
L 383.053936 37.950022 
L 384.011362 37.134643 
L 384.968789 77.077218 
L 385.926215 177.721076 
L 386.883641 237.412078 
L 387.841067 265.177927 
L 388.798494 274.116575 
L 389.75592 265.983164 
L 390.713346 238.733177 
L 391.670772 180.755736 
L 392.628199 78.779967 
L 393.585625 39.173981 
L 393.585625 39.173981 
" clip-path="url(#p7f56a98541)" style="fill: none; stroke: #1f77b4; stroke-width: 1.5; stroke-linecap: square"/>
   </g>
   <g id="patch_3">
    <path d="M 36.465625 288.430125 
L 36.465625 22.318125 
" style="fill: none; stroke: #000000; stroke-width: 0.8; stroke-linejoin: miter; stroke-linecap: square"/>
   </g>
   <g id="patch_4">
    <path d="M 393.585625 288.430125 
L 393.585625 22.318125 
" style="fill: none; stroke: #000000; stroke-width: 0.8; stroke-linejoin: miter; stroke-linecap: square"/>
   </g>
   <g id="patch_5">
    <path d="M 36.465625 288.430125 
L 393.585625 288.430125 
" style="fill: none; stroke: #000000; stroke-width: 0.8; stroke-linejoin: miter; stroke-linecap: square"/>
   </g>
   <g id="patch_6">
    <path d="M 36.465625 22.318125 
L 393.585625 22.318125 
" style="fill: none; stroke: #000000; stroke-width: 0.8; stroke-linejoin: miter; stroke-linecap: square"/>
   </g>
   <g id="text_18">
    <!-- Thermal Flux -->
    <g transform="translate(175.938438 16.318125) scale(0.12 -0.12)">
     <defs>
      <path id="DejaVuSans-54" d="M -19 4666 
L 3928 4666 
L 3928 4134 
L 2272 4134 
L 2272 0 
L 1638 0 
L 1638 4134 
L -19 4134 
L -19 4666 
z
" transform="scale(0.015625)"/>
      <path id="DejaVuSans-68" d="M 3513 2113 
L 3513 0 
L 2938 0 
L 2938 2094 
Q 2938 2591 2744 2837 
Q 2550 3084 2163 3084 
Q 1697 3084 1428 2787 
Q 1159 2491 1159 1978 
L 1159 0 
L 581 0 
L 581 4863 
L 1159 4863 
L 1159 2956 
Q 1366 3272 1645 3428 
Q 1925 3584 2291 3584 
Q 2894 3584 3203 3211 
Q 3513 2838 3513 2113 
z
" transform="scale(0.015625)"/>
      <path id="DejaVuSans-65" d="M 3597 1894 
L 3597 1613 
L 953 1613 
Q 991 1019 1311 708 
Q 1631 397 2203 397 
Q 2534 397 2845 478 
Q 3156 559 3463 722 
L 3463 178 
Q 3153 47 2828 -22 
Q 2503 -91 2169 -91 
Q 1331 -91 842 396 
Q 353 884 353 1716 
Q 353 2575 817 3079 
Q 1281 3584 2069 3584 
Q 2775 3584 3186 3129 
Q 3597 2675 3597 1894 
z
M 3022 2063 
Q 3016 2534 2758 2815 
Q 2500 3097 2075 3097 
Q 1594 3097 1305 2825 
Q 1016 2553 972 2059 
L 3022 2063 
z
" transform="scale(0.015625)"/>
      <path id="DejaVuSans-72" d="M 2631 2963 
Q 2534 3019 2420 3045 
Q 2306 3072 2169 3072 
Q 1681 3072 1420 2755 
Q 1159 2438 1159 1844 
L 1159 0 
L 581 0 
L 581 3500 
L 1159 3500 
L 1159 2956 
Q 1341 3275 1631 3429 
Q 1922 3584 2338 3584 
Q 2397 3584 2469 3576 
Q 2541 3569 2628 3553 
L 2631 2963 
z
" transform="scale(0.015625)"/>
      <path id="DejaVuSans-6d" d="M 3328 2828 
Q 3544 3216 3844 3400 
Q 4144 3584 4550 3584 
Q 5097 3584 5394 3201 
Q 5691 2819 5691 2113 
L 5691 0 
L 5113 0 
L 5113 2094 
Q 5113 2597 4934 2840 
Q 4756 3084 4391 3084 
Q 3944 3084 3684 2787 
Q 3425 2491 3425 1978 
L 3425 0 
L 2847 0 
L 2847 2094 
Q 2847 2600 2669 2842 
Q 2491 3084 2119 3084 
Q 1678 3084 1418 2786 
Q 1159 2488 1159 1978 
L 1159 0 
L 581 0 
L 581 3500 
L 1159 3500 
L 1159 2956 
Q 1356 3278 1631 3431 
Q 1906 3584 2284 3584 
Q 2666 3584 2933 3390 
Q 3200 3197 3328 2828 
z
" transform="scale(0.015625)"/>
      <path id="DejaVuSans-61" d="M 2194 1759 
Q 1497 1759 1228 1600 
Q 959 1441 959 1056 
Q 959 750 1161 570 
Q 1363 391 1709 391 
Q 2188 391 2477 730 
Q 2766 1069 2766 1631 
L 2766 1759 
L 2194 1759 
z
M 3341 1997 
L 3341 0 
L 2766 0 
L 2766 531 
Q 2569 213 2275 61 
Q 1981 -91 1556 -91 
Q 1019 -91 701 211 
Q 384 513 384 1019 
Q 384 1609 779 1909 
Q 1175 2209 1959 2209 
L 2766 2209 
L 2766 2266 
Q 2766 2663 2505 2880 
Q 2244 3097 1772 3097 
Q 1472 3097 1187 3025 
Q 903 2953 641 2809 
L 641 3341 
Q 956 3463 1253 3523 
Q 1550 3584 1831 3584 
Q 2591 3584 2966 3190 
Q 3341 2797 3341 1997 
z
" transform="scale(0.015625)"/>
      <path id="DejaVuSans-6c" d="M 603 4863 
L 1178 4863 
L 1178 0 
L 603 0 
L 603 4863 
z
" transform="scale(0.015625)"/>
      <path id="DejaVuSans-20" transform="scale(0.015625)"/>
      <path id="DejaVuSans-46" d="M 628 4666 
L 3309 4666 
L 3309 4134 
L 1259 4134 
L 1259 2759 
L 3109 2759 
L 3109 2228 
L 1259 2228 
L 1259 0 
L 628 0 
L 628 4666 
z
" transform="scale(0.015625)"/>
      <path id="DejaVuSans-75" d="M 544 1381 
L 544 3500 
L 1119 3500 
L 1119 1403 
Q 1119 906 1312 657 
Q 1506 409 1894 409 
Q 2359 409 2629 706 
Q 2900 1003 2900 1516 
L 2900 3500 
L 3475 3500 
L 3475 0 
L 2900 0 
L 2900 538 
Q 2691 219 2414 64 
Q 2138 -91 1772 -91 
Q 1169 -91 856 284 
Q 544 659 544 1381 
z
M 1991 3584 
L 1991 3584 
z
" transform="scale(0.015625)"/>
      <path id="DejaVuSans-78" d="M 3513 3500 
L 2247 1797 
L 3578 0 
L 2900 0 
L 1881 1375 
L 863 0 
L 184 0 
L 1544 1831 
L 300 3500 
L 978 3500 
L 1906 2253 
L 2834 3500 
L 3513 3500 
z
" transform="scale(0.015625)"/>
     </defs>
     <use xlink:href="#DejaVuSans-54"/>
     <use xlink:href="#DejaVuSans-68" x="61.083984"/>
     <use xlink:href="#DejaVuSans-65" x="124.462891"/>
     <use xlink:href="#DejaVuSans-72" x="185.986328"/>
     <use xlink:href="#DejaVuSans-6d" x="225.349609"/>
     <use xlink:href="#DejaVuSans-61" x="322.761719"/>
     <use xlink:href="#DejaVuSans-6c" x="384.041016"/>
     <use xlink:href="#DejaVuSans-20" x="411.824219"/>
     <use xlink:href="#DejaVuSans-46" x="443.611328"/>
     <use xlink:href="#DejaVuSans-6c" x="501.130859"/>
     <use xlink:href="#DejaVuSans-75" x="528.914062"/>
     <use xlink:href="#DejaVuSans-78" x="592.292969"/>
    </g>
   </g>
  </g>
 </g>
 <defs>
  <clipPath id="p7f56a98541">
   <rect x="36.465625" y="22.318125" width="357.12" height="266.112"/>
  </clipPath>
 </defs>
</svg>
