<?xml version="1.0" encoding="utf-8" standalone="no"?>
<!DOCTYPE svg PUBLIC "-//W3C//DTD SVG 1.1//EN"
  "http://www.w3.org/Graphics/SVG/1.1/DTD/svg11.dtd">
<svg xmlns:xlink="http://www.w3.org/1999/xlink" width="397.6075pt" height="312.30825pt" viewBox="0 0 397.6075 312.30825" xmlns="http://www.w3.org/2000/svg" version="1.1">
 <metadata>
  <rdf:RDF xmlns:dc="http://purl.org/dc/elements/1.1/" xmlns:cc="http://creativecommons.org/ns#" xmlns:rdf="http://www.w3.org/1999/02/22-rdf-syntax-ns#">
   <cc:Work>
    <dc:type rdf:resource="http://purl.org/dc/dcmitype/StillImage"/>
    <dc:date>2024-03-15T15:44:12.977534</dc:date>
    <dc:format>image/svg+xml</dc:format>
    <dc:creator>
     <cc:Agent>
      <dc:title>Matplotlib v3.8.3, https://matplotlib.org/</dc:title>
     </cc:Agent>
    </dc:creator>
   </cc:Work>
  </rdf:RDF>
 </metadata>
 <defs>
  <style type="text/css">*{stroke-linejoin: round; stroke-linecap: butt}</style>
 </defs>
 <g id="figure_1">
  <g id="patch_1">
   <path d="M 0 312.30825 
L 397.6075 312.30825 
L 397.6075 0 
L 0 0 
z
" style="fill: #ffffff"/>
  </g>
  <g id="axes_1">
   <g id="patch_2">
    <path d="M 33.2875 288.430125 
L 390.4075 288.430125 
L 390.4075 22.318125 
L 33.2875 22.318125 
z
" style="fill: #ffffff"/>
   </g>
   <g id="matplotlib.axis_1">
    <g id="xtick_1">
     <g id="line2d_1">
      <defs>
       <path id="m7e83f201ac" d="M 0 0 
L 0 3.5 
" style="stroke: #000000; stroke-width: 0.8"/>
      </defs>
      <g>
       <use xlink:href="#m7e83f201ac" x="49.520227" y="288.430125" style="stroke: #000000; stroke-width: 0.8"/>
      </g>
     </g>
     <g id="text_1">
      <!-- 0 -->
      <g transform="translate(46.338977 303.028562) scale(0.1 -0.1)">
       <defs>
        <path id="DejaVuSans-30" d="M 2034 4250 
Q 1547 4250 1301 3770 
Q 1056 3291 1056 2328 
Q 1056 1369 1301 889 
Q 1547 409 2034 409 
Q 2525 409 2770 889 
Q 3016 1369 3016 2328 
Q 3016 3291 2770 3770 
Q 2525 4250 2034 4250 
z
M 2034 4750 
Q 2819 4750 3233 4129 
Q 3647 3509 3647 2328 
Q 3647 1150 3233 529 
Q 2819 -91 2034 -91 
Q 1250 -91 836 529 
Q 422 1150 422 2328 
Q 422 3509 836 4129 
Q 1250 4750 2034 4750 
z
" transform="scale(0.015625)"/>
       </defs>
       <use xlink:href="#DejaVuSans-30"/>
      </g>
     </g>
    </g>
    <g id="xtick_2">
     <g id="line2d_2">
      <g>
       <use xlink:href="#m7e83f201ac" x="89.404078" y="288.430125" style="stroke: #000000; stroke-width: 0.8"/>
      </g>
     </g>
     <g id="text_2">
      <!-- 50 -->
      <g transform="translate(83.041578 303.028562) scale(0.1 -0.1)">
       <defs>
        <path id="DejaVuSans-35" d="M 691 4666 
L 3169 4666 
L 3169 4134 
L 1269 4134 
L 1269 2991 
Q 1406 3038 1543 3061 
Q 1681 3084 1819 3084 
Q 2600 3084 3056 2656 
Q 3513 2228 3513 1497 
Q 3513 744 3044 326 
Q 2575 -91 1722 -91 
Q 1428 -91 1123 -41 
Q 819 9 494 109 
L 494 744 
Q 775 591 1075 516 
Q 1375 441 1709 441 
Q 2250 441 2565 725 
Q 2881 1009 2881 1497 
Q 2881 1984 2565 2268 
Q 2250 2553 1709 2553 
Q 1456 2553 1204 2497 
Q 953 2441 691 2322 
L 691 4666 
z
" transform="scale(0.015625)"/>
       </defs>
       <use xlink:href="#DejaVuSans-35"/>
       <use xlink:href="#DejaVuSans-30" x="63.623047"/>
      </g>
     </g>
    </g>
    <g id="xtick_3">
     <g id="line2d_3">
      <g>
       <use xlink:href="#m7e83f201ac" x="129.287929" y="288.430125" style="stroke: #000000; stroke-width: 0.8"/>
      </g>
     </g>
     <g id="text_3">
      <!-- 100 -->
      <g transform="translate(119.744179 303.028562) scale(0.1 -0.1)">
       <defs>
        <path id="DejaVuSans-31" d="M 794 531 
L 1825 531 
L 1825 4091 
L 703 3866 
L 703 4441 
L 1819 4666 
L 2450 4666 
L 2450 531 
L 3481 531 
L 3481 0 
L 794 0 
L 794 531 
z
" transform="scale(0.015625)"/>
       </defs>
       <use xlink:href="#DejaVuSans-31"/>
       <use xlink:href="#DejaVuSans-30" x="63.623047"/>
       <use xlink:href="#DejaVuSans-30" x="127.246094"/>
      </g>
     </g>
    </g>
    <g id="xtick_4">
     <g id="line2d_4">
      <g>
       <use xlink:href="#m7e83f201ac" x="169.17178" y="288.430125" style="stroke: #000000; stroke-width: 0.8"/>
      </g>
     </g>
     <g id="text_4">
      <!-- 150 -->
      <g transform="translate(159.62803 303.028562) scale(0.1 -0.1)">
       <use xlink:href="#DejaVuSans-31"/>
       <use xlink:href="#DejaVuSans-35" x="63.623047"/>
       <use xlink:href="#DejaVuSans-30" x="127.246094"/>
      </g>
     </g>
    </g>
    <g id="xtick_5">
     <g id="line2d_5">
      <g>
       <use xlink:href="#m7e83f201ac" x="209.05563" y="288.430125" style="stroke: #000000; stroke-width: 0.8"/>
      </g>
     </g>
     <g id="text_5">
      <!-- 200 -->
      <g transform="translate(199.51188 303.028562) scale(0.1 -0.1)">
       <defs>
        <path id="DejaVuSans-32" d="M 1228 531 
L 3431 531 
L 3431 0 
L 469 0 
L 469 531 
Q 828 903 1448 1529 
Q 2069 2156 2228 2338 
Q 2531 2678 2651 2914 
Q 2772 3150 2772 3378 
Q 2772 3750 2511 3984 
Q 2250 4219 1831 4219 
Q 1534 4219 1204 4116 
Q 875 4013 500 3803 
L 500 4441 
Q 881 4594 1212 4672 
Q 1544 4750 1819 4750 
Q 2544 4750 2975 4387 
Q 3406 4025 3406 3419 
Q 3406 3131 3298 2873 
Q 3191 2616 2906 2266 
Q 2828 2175 2409 1742 
Q 1991 1309 1228 531 
z
" transform="scale(0.015625)"/>
       </defs>
       <use xlink:href="#DejaVuSans-32"/>
       <use xlink:href="#DejaVuSans-30" x="63.623047"/>
       <use xlink:href="#DejaVuSans-30" x="127.246094"/>
      </g>
     </g>
    </g>
    <g id="xtick_6">
     <g id="line2d_6">
      <g>
       <use xlink:href="#m7e83f201ac" x="248.939481" y="288.430125" style="stroke: #000000; stroke-width: 0.8"/>
      </g>
     </g>
     <g id="text_6">
      <!-- 250 -->
      <g transform="translate(239.395731 303.028562) scale(0.1 -0.1)">
       <use xlink:href="#DejaVuSans-32"/>
       <use xlink:href="#DejaVuSans-35" x="63.623047"/>
       <use xlink:href="#DejaVuSans-30" x="127.246094"/>
      </g>
     </g>
    </g>
    <g id="xtick_7">
     <g id="line2d_7">
      <g>
       <use xlink:href="#m7e83f201ac" x="288.823332" y="288.430125" style="stroke: #000000; stroke-width: 0.8"/>
      </g>
     </g>
     <g id="text_7">
      <!-- 300 -->
      <g transform="translate(279.279582 303.028562) scale(0.1 -0.1)">
       <defs>
        <path id="DejaVuSans-33" d="M 2597 2516 
Q 3050 2419 3304 2112 
Q 3559 1806 3559 1356 
Q 3559 666 3084 287 
Q 2609 -91 1734 -91 
Q 1441 -91 1130 -33 
Q 819 25 488 141 
L 488 750 
Q 750 597 1062 519 
Q 1375 441 1716 441 
Q 2309 441 2620 675 
Q 2931 909 2931 1356 
Q 2931 1769 2642 2001 
Q 2353 2234 1838 2234 
L 1294 2234 
L 1294 2753 
L 1863 2753 
Q 2328 2753 2575 2939 
Q 2822 3125 2822 3475 
Q 2822 3834 2567 4026 
Q 2313 4219 1838 4219 
Q 1578 4219 1281 4162 
Q 984 4106 628 3988 
L 628 4550 
Q 988 4650 1302 4700 
Q 1616 4750 1894 4750 
Q 2613 4750 3031 4423 
Q 3450 4097 3450 3541 
Q 3450 3153 3228 2886 
Q 3006 2619 2597 2516 
z
" transform="scale(0.015625)"/>
       </defs>
       <use xlink:href="#DejaVuSans-33"/>
       <use xlink:href="#DejaVuSans-30" x="63.623047"/>
       <use xlink:href="#DejaVuSans-30" x="127.246094"/>
      </g>
     </g>
    </g>
    <g id="xtick_8">
     <g id="line2d_8">
      <g>
       <use xlink:href="#m7e83f201ac" x="328.707183" y="288.430125" style="stroke: #000000; stroke-width: 0.8"/>
      </g>
     </g>
     <g id="text_8">
      <!-- 350 -->
      <g transform="translate(319.163433 303.028562) scale(0.1 -0.1)">
       <use xlink:href="#DejaVuSans-33"/>
       <use xlink:href="#DejaVuSans-35" x="63.623047"/>
       <use xlink:href="#DejaVuSans-30" x="127.246094"/>
      </g>
     </g>
    </g>
    <g id="xtick_9">
     <g id="line2d_9">
      <g>
       <use xlink:href="#m7e83f201ac" x="368.591034" y="288.430125" style="stroke: #000000; stroke-width: 0.8"/>
      </g>
     </g>
     <g id="text_9">
      <!-- 400 -->
      <g transform="translate(359.047284 303.028562) scale(0.1 -0.1)">
       <defs>
        <path id="DejaVuSans-34" d="M 2419 4116 
L 825 1625 
L 2419 1625 
L 2419 4116 
z
M 2253 4666 
L 3047 4666 
L 3047 1625 
L 3713 1625 
L 3713 1100 
L 3047 1100 
L 3047 0 
L 2419 0 
L 2419 1100 
L 313 1100 
L 313 1709 
L 2253 4666 
z
" transform="scale(0.015625)"/>
       </defs>
       <use xlink:href="#DejaVuSans-34"/>
       <use xlink:href="#DejaVuSans-30" x="63.623047"/>
       <use xlink:href="#DejaVuSans-30" x="127.246094"/>
      </g>
     </g>
    </g>
   </g>
   <g id="matplotlib.axis_2">
    <g id="ytick_1">
     <g id="line2d_10">
      <defs>
       <path id="m4ee6d2c591" d="M 0 0 
L -3.5 0 
" style="stroke: #000000; stroke-width: 0.8"/>
      </defs>
      <g>
       <use xlink:href="#m4ee6d2c591" x="33.2875" y="277.261127" style="stroke: #000000; stroke-width: 0.8"/>
      </g>
     </g>
     <g id="text_10">
      <!-- 0 -->
      <g transform="translate(19.925 281.060346) scale(0.1 -0.1)">
       <use xlink:href="#DejaVuSans-30"/>
      </g>
     </g>
    </g>
    <g id="ytick_2">
     <g id="line2d_11">
      <g>
       <use xlink:href="#m4ee6d2c591" x="33.2875" y="240.612406" style="stroke: #000000; stroke-width: 0.8"/>
      </g>
     </g>
     <g id="text_11">
      <!-- 20 -->
      <g transform="translate(13.5625 244.411624) scale(0.1 -0.1)">
       <use xlink:href="#DejaVuSans-32"/>
       <use xlink:href="#DejaVuSans-30" x="63.623047"/>
      </g>
     </g>
    </g>
    <g id="ytick_3">
     <g id="line2d_12">
      <g>
       <use xlink:href="#m4ee6d2c591" x="33.2875" y="203.963684" style="stroke: #000000; stroke-width: 0.8"/>
      </g>
     </g>
     <g id="text_12">
      <!-- 40 -->
      <g transform="translate(13.5625 207.762903) scale(0.1 -0.1)">
       <use xlink:href="#DejaVuSans-34"/>
       <use xlink:href="#DejaVuSans-30" x="63.623047"/>
      </g>
     </g>
    </g>
    <g id="ytick_4">
     <g id="line2d_13">
      <g>
       <use xlink:href="#m4ee6d2c591" x="33.2875" y="167.314962" style="stroke: #000000; stroke-width: 0.8"/>
      </g>
     </g>
     <g id="text_13">
      <!-- 60 -->
      <g transform="translate(13.5625 171.114181) scale(0.1 -0.1)">
       <defs>
        <path id="DejaVuSans-36" d="M 2113 2584 
Q 1688 2584 1439 2293 
Q 1191 2003 1191 1497 
Q 1191 994 1439 701 
Q 1688 409 2113 409 
Q 2538 409 2786 701 
Q 3034 994 3034 1497 
Q 3034 2003 2786 2293 
Q 2538 2584 2113 2584 
z
M 3366 4563 
L 3366 3988 
Q 3128 4100 2886 4159 
Q 2644 4219 2406 4219 
Q 1781 4219 1451 3797 
Q 1122 3375 1075 2522 
Q 1259 2794 1537 2939 
Q 1816 3084 2150 3084 
Q 2853 3084 3261 2657 
Q 3669 2231 3669 1497 
Q 3669 778 3244 343 
Q 2819 -91 2113 -91 
Q 1303 -91 875 529 
Q 447 1150 447 2328 
Q 447 3434 972 4092 
Q 1497 4750 2381 4750 
Q 2619 4750 2861 4703 
Q 3103 4656 3366 4563 
z
" transform="scale(0.015625)"/>
       </defs>
       <use xlink:href="#DejaVuSans-36"/>
       <use xlink:href="#DejaVuSans-30" x="63.623047"/>
      </g>
     </g>
    </g>
    <g id="ytick_5">
     <g id="line2d_14">
      <g>
       <use xlink:href="#m4ee6d2c591" x="33.2875" y="130.666241" style="stroke: #000000; stroke-width: 0.8"/>
      </g>
     </g>
     <g id="text_14">
      <!-- 80 -->
      <g transform="translate(13.5625 134.465459) scale(0.1 -0.1)">
       <defs>
        <path id="DejaVuSans-38" d="M 2034 2216 
Q 1584 2216 1326 1975 
Q 1069 1734 1069 1313 
Q 1069 891 1326 650 
Q 1584 409 2034 409 
Q 2484 409 2743 651 
Q 3003 894 3003 1313 
Q 3003 1734 2745 1975 
Q 2488 2216 2034 2216 
z
M 1403 2484 
Q 997 2584 770 2862 
Q 544 3141 544 3541 
Q 544 4100 942 4425 
Q 1341 4750 2034 4750 
Q 2731 4750 3128 4425 
Q 3525 4100 3525 3541 
Q 3525 3141 3298 2862 
Q 3072 2584 2669 2484 
Q 3125 2378 3379 2068 
Q 3634 1759 3634 1313 
Q 3634 634 3220 271 
Q 2806 -91 2034 -91 
Q 1263 -91 848 271 
Q 434 634 434 1313 
Q 434 1759 690 2068 
Q 947 2378 1403 2484 
z
M 1172 3481 
Q 1172 3119 1398 2916 
Q 1625 2713 2034 2713 
Q 2441 2713 2670 2916 
Q 2900 3119 2900 3481 
Q 2900 3844 2670 4047 
Q 2441 4250 2034 4250 
Q 1625 4250 1398 4047 
Q 1172 3844 1172 3481 
z
" transform="scale(0.015625)"/>
       </defs>
       <use xlink:href="#DejaVuSans-38"/>
       <use xlink:href="#DejaVuSans-30" x="63.623047"/>
      </g>
     </g>
    </g>
    <g id="ytick_6">
     <g id="line2d_15">
      <g>
       <use xlink:href="#m4ee6d2c591" x="33.2875" y="94.017519" style="stroke: #000000; stroke-width: 0.8"/>
      </g>
     </g>
     <g id="text_15">
      <!-- 100 -->
      <g transform="translate(7.2 97.816738) scale(0.1 -0.1)">
       <use xlink:href="#DejaVuSans-31"/>
       <use xlink:href="#DejaVuSans-30" x="63.623047"/>
       <use xlink:href="#DejaVuSans-30" x="127.246094"/>
      </g>
     </g>
    </g>
    <g id="ytick_7">
     <g id="line2d_16">
      <g>
       <use xlink:href="#m4ee6d2c591" x="33.2875" y="57.368797" style="stroke: #000000; stroke-width: 0.8"/>
      </g>
     </g>
     <g id="text_16">
      <!-- 120 -->
      <g transform="translate(7.2 61.168016) scale(0.1 -0.1)">
       <use xlink:href="#DejaVuSans-31"/>
       <use xlink:href="#DejaVuSans-32" x="63.623047"/>
       <use xlink:href="#DejaVuSans-30" x="127.246094"/>
      </g>
     </g>
    </g>
   </g>
   <g id="line2d_17">
    <path d="M 49.520227 207.885871 
L 50.317904 274.937641 
L 51.115581 272.624053 
L 51.913258 275.92256 
L 54.306289 275.837875 
L 55.103966 275.74182 
L 55.901643 276.016756 
L 56.69932 264.581391 
L 57.496997 272.073506 
L 58.294674 275.980052 
L 59.092351 275.807871 
L 59.890028 269.046794 
L 60.687705 258.812927 
L 61.485383 273.583101 
L 62.28306 273.648828 
L 63.878414 273.425993 
L 65.473768 273.473949 
L 66.271445 219.991516 
L 67.069122 255.195838 
L 67.866799 271.741592 
L 68.664476 271.711405 
L 70.25983 123.961188 
L 71.057507 226.357044 
L 71.855184 226.384784 
L 72.652861 238.070038 
L 73.450538 270.740906 
L 74.248215 271.447902 
L 75.045892 271.091232 
L 75.843569 247.596184 
L 76.641246 263.416812 
L 77.438923 273.226189 
L 78.2366 273.212556 
L 79.034277 260.069824 
L 79.831954 233.989314 
L 80.629631 271.558808 
L 81.427308 271.55217 
L 82.224985 271.777395 
L 83.022662 270.779844 
L 83.820339 269.120018 
L 84.618016 268.671672 
L 85.415693 219.546034 
L 86.21337 253.629036 
L 87.011047 272.138151 
L 87.808724 272.150318 
L 88.606401 252.166342 
L 89.404078 224.038306 
L 90.201755 269.798419 
L 90.999432 270.192836 
L 91.797109 270.251682 
L 92.594786 269.472131 
L 93.392463 269.457643 
L 94.19014 269.662775 
L 94.987817 230.31367 
L 95.785494 255.790146 
L 96.583171 272.783276 
L 97.380848 272.797528 
L 98.178525 259.508812 
L 98.976202 232.12777 
L 99.773879 270.116683 
L 100.571556 270.155111 
L 101.369233 269.636981 
L 102.16691 270.599954 
L 103.762264 270.770591 
L 104.559941 246.305903 
L 105.357618 262.537471 
L 106.155295 273.864488 
L 106.952972 273.883983 
L 107.750649 264.633772 
L 108.548326 247.184484 
L 109.346003 271.729996 
L 110.941357 271.504532 
L 112.536712 271.537606 
L 113.334389 271.4077 
L 114.132066 237.673222 
L 114.929743 260.396362 
L 115.72742 274.562061 
L 116.525097 274.567068 
L 117.322774 266.391733 
L 118.120451 250.61375 
L 118.918128 272.263446 
L 119.715805 272.925947 
L 120.513482 272.656158 
L 121.311159 272.569783 
L 122.906513 272.887166 
L 123.70419 246.309053 
L 124.501867 263.715506 
L 125.299544 274.026536 
L 126.097221 274.013319 
L 126.894898 262.578779 
L 127.692575 244.321834 
L 128.490252 270.325064 
L 129.287929 270.060757 
L 130.085606 270.4228 
L 130.883283 271.302838 
L 131.68096 271.461579 
L 132.478637 269.52448 
L 133.276314 248.661099 
L 134.073991 262.384421 
L 134.871668 273.84021 
L 135.669345 273.840887 
L 136.467022 236.993013 
L 137.264699 183.517385 
L 138.062376 270.498961 
L 138.860053 270.586798 
L 140.455407 270.414474 
L 142.050761 270.136302 
L 142.848438 234.821617 
L 143.646115 241.616124 
L 144.443792 271.886648 
L 145.241469 271.890102 
L 146.039146 259.601077 
L 146.836823 208.096128 
L 147.6345 269.728208 
L 148.432177 267.213439 
L 149.229854 260.151592 
L 151.622885 259.722236 
L 152.420562 198.623049 
L 153.218239 240.270053 
L 154.015916 266.038759 
L 154.813593 266.20551 
L 155.61127 227.77548 
L 156.408947 139.234024 
L 157.206624 269.360094 
L 158.801978 269.380037 
L 159.599655 263.015015 
L 160.397332 261.491991 
L 161.195009 260.493316 
L 161.992687 216.183142 
L 162.790364 250.050354 
L 163.588041 273.919989 
L 164.385718 274.046861 
L 165.183395 259.038277 
L 165.981072 246.652129 
L 166.778749 271.669189 
L 167.576426 271.778587 
L 168.374103 272.079363 
L 169.969457 271.662943 
L 170.767134 271.81592 
L 171.564811 233.506987 
L 172.362488 256.14569 
L 173.160165 272.94123 
L 173.957842 272.986028 
L 174.755519 252.020893 
L 175.553196 220.94359 
L 176.350873 270.531878 
L 177.14855 270.515255 
L 177.946227 270.746705 
L 178.743904 270.70769 
L 179.541581 271.073398 
L 180.339258 271.178994 
L 181.136935 241.441201 
L 181.934612 260.681734 
L 182.732289 272.571891 
L 183.529966 272.637309 
L 184.327643 248.581533 
L 185.12532 220.040046 
L 185.922997 270.355635 
L 186.720674 270.244908 
L 187.518351 270.910883 
L 188.316028 270.968525 
L 189.911382 271.3953 
L 190.709059 228.26928 
L 192.304413 273.370569 
L 193.10209 273.387459 
L 193.899767 264.878388 
L 194.697444 253.618884 
L 195.495121 271.114369 
L 197.090475 271.805667 
L 198.685829 271.718544 
L 199.483506 271.454743 
L 200.281183 243.988712 
L 201.07886 262.758627 
L 201.876537 274.047746 
L 202.674214 274.143885 
L 203.471891 266.310355 
L 204.269568 253.347202 
L 205.067245 272.583162 
L 205.864922 272.429375 
L 206.662599 272.758163 
L 207.460276 272.851934 
L 208.257953 272.709716 
L 209.05563 272.860474 
L 209.853307 245.856307 
L 210.650984 264.672835 
L 211.448661 274.413288 
L 212.246339 274.333087 
L 213.044016 265.573333 
L 213.841693 251.44726 
L 214.63937 272.471811 
L 215.437047 272.324277 
L 216.234724 267.670803 
L 217.032401 265.379813 
L 217.830078 265.305507 
L 218.627755 262.481171 
L 219.425432 215.662313 
L 220.223109 242.828809 
L 221.020786 274.265384 
L 221.818463 274.289641 
L 222.61614 262.921425 
L 223.413817 243.177588 
L 224.211494 271.713579 
L 225.009171 271.535633 
L 225.806848 271.598188 
L 227.402202 271.27455 
L 228.199879 271.529533 
L 228.997556 247.97815 
L 229.795233 263.678478 
L 230.59291 273.973175 
L 231.390587 273.970129 
L 232.188264 264.859358 
L 232.985941 249.296327 
L 233.783618 272.755061 
L 235.378972 272.070042 
L 236.176649 271.877033 
L 236.974326 271.421446 
L 237.772003 270.682035 
L 238.56968 212.59909 
L 239.367357 251.839808 
L 240.165034 271.951699 
L 240.962711 271.926928 
L 241.760388 260.957441 
L 242.558065 237.305435 
L 243.355742 270.230907 
L 244.153419 270.064841 
L 244.951096 268.743085 
L 245.748773 269.214858 
L 246.54645 270.953476 
L 247.344127 270.71054 
L 248.141804 206.408215 
L 248.939481 249.166943 
L 249.737158 272.079475 
L 250.534835 272.033426 
L 251.332512 257.523161 
L 252.130189 225.787522 
L 252.927866 269.465413 
L 253.725543 269.159008 
L 254.52322 268.646091 
L 255.320897 268.438149 
L 256.118574 268.478942 
L 256.916251 268.666299 
L 257.713928 211.798639 
L 258.511605 245.093157 
L 259.309282 272.930148 
L 260.106959 273.034704 
L 260.904636 250.452643 
L 261.702313 208.560601 
L 262.499991 269.940731 
L 263.297668 269.917577 
L 264.095345 264.006894 
L 264.893022 259.734518 
L 266.488376 261.060602 
L 267.286053 210.648795 
L 268.08373 246.639507 
L 268.881407 263.457846 
L 269.679084 263.335733 
L 270.476761 218.307782 
L 271.274438 234.842793 
L 272.072115 261.539214 
L 273.667469 261.936477 
L 275.262823 261.866289 
L 276.0605 261.193396 
L 276.858177 34.414125 
L 277.655854 178.831618 
L 278.453531 274.399054 
L 279.251208 274.364348 
L 280.048885 259.827166 
L 280.846562 237.765105 
L 281.644239 269.766115 
L 282.441916 268.954429 
L 283.239593 268.54872 
L 284.03727 268.815507 
L 284.834947 268.304297 
L 285.632624 268.454439 
L 286.430301 235.325859 
L 287.227978 259.487708 
L 288.025655 272.56267 
L 288.823332 272.603986 
L 289.621009 259.84741 
L 290.418686 242.661409 
L 291.216363 271.118523 
L 292.811717 270.789158 
L 293.609394 270.3918 
L 294.407071 270.319623 
L 295.204748 270.47686 
L 296.002425 223.229844 
L 296.800102 258.919776 
L 297.597779 273.488167 
L 298.395456 273.5053 
L 299.193133 227.058273 
L 299.99081 149.910917 
L 300.788487 267.862594 
L 301.586164 267.89094 
L 303.181518 269.077528 
L 303.979195 269.132805 
L 304.776872 268.959025 
L 305.574549 247.138945 
L 306.372226 247.15601 
L 307.169903 270.913133 
L 307.96758 270.908509 
L 308.765257 260.372913 
L 309.562934 231.890629 
L 310.360611 268.579991 
L 311.955965 268.561553 
L 312.753643 268.486641 
L 313.55132 269.897911 
L 314.348997 270.967983 
L 315.146674 246.518292 
L 315.944351 262.874948 
L 316.742028 274.111242 
L 317.539705 273.980807 
L 318.337382 262.342331 
L 319.135059 246.558061 
L 319.932736 270.13378 
L 320.730413 271.03861 
L 321.52809 270.965153 
L 322.325767 268.951611 
L 323.123444 265.907952 
L 323.921121 266.130719 
L 324.718798 213.626485 
L 325.516475 252.414349 
L 326.314152 267.536921 
L 327.111829 267.578371 
L 327.909506 235.882158 
L 328.707183 163.88411 
L 329.50486 264.006817 
L 330.302537 260.43406 
L 331.100214 261.61498 
L 331.897891 263.913377 
L 332.695568 264.712257 
L 333.493245 264.907028 
L 334.290922 209.20194 
L 335.088599 246.146592 
L 335.886276 274.363423 
L 336.683953 274.361816 
L 337.48163 263.912394 
L 338.279307 244.499742 
L 339.076984 272.917796 
L 339.874661 272.731161 
L 340.672338 264.514699 
L 341.470015 261.576052 
L 343.065369 261.765283 
L 343.863046 211.090241 
L 344.660723 254.781128 
L 345.4584 262.904182 
L 346.256077 262.889493 
L 347.053754 212.058907 
L 347.851431 82.178184 
L 348.649108 272.837958 
L 349.446785 272.774403 
L 350.244462 272.876815 
L 351.042139 272.336447 
L 351.839816 271.387098 
L 352.637493 271.460221 
L 353.43517 251.896899 
L 354.232847 264.815196 
L 355.030524 274.501615 
L 355.828201 274.503502 
L 356.625878 267.114388 
L 357.423555 258.130865 
L 358.221232 273.392712 
L 359.018909 273.228173 
L 359.816586 273.202821 
L 360.614263 273.339989 
L 362.209617 273.284474 
L 363.007295 257.034737 
L 363.804972 270.242362 
L 364.602649 275.432046 
L 365.400326 275.554088 
L 366.198003 269.265424 
L 366.99568 257.453701 
L 367.793357 276.278666 
L 371.781742 276.228433 
L 372.579419 270.516298 
L 373.377096 274.035667 
L 374.174773 205.220292 
L 374.174773 205.220292 
" clip-path="url(#p380374cbf2)" style="fill: none; stroke: #1f77b4; stroke-width: 1.5; stroke-linecap: square"/>
   </g>
   <g id="patch_3">
    <path d="M 33.2875 288.430125 
L 33.2875 22.318125 
" style="fill: none; stroke: #000000; stroke-width: 0.8; stroke-linejoin: miter; stroke-linecap: square"/>
   </g>
   <g id="patch_4">
    <path d="M 390.4075 288.430125 
L 390.4075 22.318125 
" style="fill: none; stroke: #000000; stroke-width: 0.8; stroke-linejoin: miter; stroke-linecap: square"/>
   </g>
   <g id="patch_5">
    <path d="M 33.2875 288.430125 
L 390.4075 288.430125 
" style="fill: none; stroke: #000000; stroke-width: 0.8; stroke-linejoin: miter; stroke-linecap: square"/>
   </g>
   <g id="patch_6">
    <path d="M 33.2875 22.318125 
L 390.4075 22.318125 
" style="fill: none; stroke: #000000; stroke-width: 0.8; stroke-linejoin: miter; stroke-linecap: square"/>
   </g>
   <g id="text_17">
    <!-- Thermal Flux -->
    <g transform="translate(172.760313 16.318125) scale(0.12 -0.12)">
     <defs>
      <path id="DejaVuSans-54" d="M -19 4666 
L 3928 4666 
L 3928 4134 
L 2272 4134 
L 2272 0 
L 1638 0 
L 1638 4134 
L -19 4134 
L -19 4666 
z
" transform="scale(0.015625)"/>
      <path id="DejaVuSans-68" d="M 3513 2113 
L 3513 0 
L 2938 0 
L 2938 2094 
Q 2938 2591 2744 2837 
Q 2550 3084 2163 3084 
Q 1697 3084 1428 2787 
Q 1159 2491 1159 1978 
L 1159 0 
L 581 0 
L 581 4863 
L 1159 4863 
L 1159 2956 
Q 1366 3272 1645 3428 
Q 1925 3584 2291 3584 
Q 2894 3584 3203 3211 
Q 3513 2838 3513 2113 
z
" transform="scale(0.015625)"/>
      <path id="DejaVuSans-65" d="M 3597 1894 
L 3597 1613 
L 953 1613 
Q 991 1019 1311 708 
Q 1631 397 2203 397 
Q 2534 397 2845 478 
Q 3156 559 3463 722 
L 3463 178 
Q 3153 47 2828 -22 
Q 2503 -91 2169 -91 
Q 1331 -91 842 396 
Q 353 884 353 1716 
Q 353 2575 817 3079 
Q 1281 3584 2069 3584 
Q 2775 3584 3186 3129 
Q 3597 2675 3597 1894 
z
M 3022 2063 
Q 3016 2534 2758 2815 
Q 2500 3097 2075 3097 
Q 1594 3097 1305 2825 
Q 1016 2553 972 2059 
L 3022 2063 
z
" transform="scale(0.015625)"/>
      <path id="DejaVuSans-72" d="M 2631 2963 
Q 2534 3019 2420 3045 
Q 2306 3072 2169 3072 
Q 1681 3072 1420 2755 
Q 1159 2438 1159 1844 
L 1159 0 
L 581 0 
L 581 3500 
L 1159 3500 
L 1159 2956 
Q 1341 3275 1631 3429 
Q 1922 3584 2338 3584 
Q 2397 3584 2469 3576 
Q 2541 3569 2628 3553 
L 2631 2963 
z
" transform="scale(0.015625)"/>
      <path id="DejaVuSans-6d" d="M 3328 2828 
Q 3544 3216 3844 3400 
Q 4144 3584 4550 3584 
Q 5097 3584 5394 3201 
Q 5691 2819 5691 2113 
L 5691 0 
L 5113 0 
L 5113 2094 
Q 5113 2597 4934 2840 
Q 4756 3084 4391 3084 
Q 3944 3084 3684 2787 
Q 3425 2491 3425 1978 
L 3425 0 
L 2847 0 
L 2847 2094 
Q 2847 2600 2669 2842 
Q 2491 3084 2119 3084 
Q 1678 3084 1418 2786 
Q 1159 2488 1159 1978 
L 1159 0 
L 581 0 
L 581 3500 
L 1159 3500 
L 1159 2956 
Q 1356 3278 1631 3431 
Q 1906 3584 2284 3584 
Q 2666 3584 2933 3390 
Q 3200 3197 3328 2828 
z
" transform="scale(0.015625)"/>
      <path id="DejaVuSans-61" d="M 2194 1759 
Q 1497 1759 1228 1600 
Q 959 1441 959 1056 
Q 959 750 1161 570 
Q 1363 391 1709 391 
Q 2188 391 2477 730 
Q 2766 1069 2766 1631 
L 2766 1759 
L 2194 1759 
z
M 3341 1997 
L 3341 0 
L 2766 0 
L 2766 531 
Q 2569 213 2275 61 
Q 1981 -91 1556 -91 
Q 1019 -91 701 211 
Q 384 513 384 1019 
Q 384 1609 779 1909 
Q 1175 2209 1959 2209 
L 2766 2209 
L 2766 2266 
Q 2766 2663 2505 2880 
Q 2244 3097 1772 3097 
Q 1472 3097 1187 3025 
Q 903 2953 641 2809 
L 641 3341 
Q 956 3463 1253 3523 
Q 1550 3584 1831 3584 
Q 2591 3584 2966 3190 
Q 3341 2797 3341 1997 
z
" transform="scale(0.015625)"/>
      <path id="DejaVuSans-6c" d="M 603 4863 
L 1178 4863 
L 1178 0 
L 603 0 
L 603 4863 
z
" transform="scale(0.015625)"/>
      <path id="DejaVuSans-20" transform="scale(0.015625)"/>
      <path id="DejaVuSans-46" d="M 628 4666 
L 3309 4666 
L 3309 4134 
L 1259 4134 
L 1259 2759 
L 3109 2759 
L 3109 2228 
L 1259 2228 
L 1259 0 
L 628 0 
L 628 4666 
z
" transform="scale(0.015625)"/>
      <path id="DejaVuSans-75" d="M 544 1381 
L 544 3500 
L 1119 3500 
L 1119 1403 
Q 1119 906 1312 657 
Q 1506 409 1894 409 
Q 2359 409 2629 706 
Q 2900 1003 2900 1516 
L 2900 3500 
L 3475 3500 
L 3475 0 
L 2900 0 
L 2900 538 
Q 2691 219 2414 64 
Q 2138 -91 1772 -91 
Q 1169 -91 856 284 
Q 544 659 544 1381 
z
M 1991 3584 
L 1991 3584 
z
" transform="scale(0.015625)"/>
      <path id="DejaVuSans-78" d="M 3513 3500 
L 2247 1797 
L 3578 0 
L 2900 0 
L 1881 1375 
L 863 0 
L 184 0 
L 1544 1831 
L 300 3500 
L 978 3500 
L 1906 2253 
L 2834 3500 
L 3513 3500 
z
" transform="scale(0.015625)"/>
     </defs>
     <use xlink:href="#DejaVuSans-54"/>
     <use xlink:href="#DejaVuSans-68" x="61.083984"/>
     <use xlink:href="#DejaVuSans-65" x="124.462891"/>
     <use xlink:href="#DejaVuSans-72" x="185.986328"/>
     <use xlink:href="#DejaVuSans-6d" x="225.349609"/>
     <use xlink:href="#DejaVuSans-61" x="322.761719"/>
     <use xlink:href="#DejaVuSans-6c" x="384.041016"/>
     <use xlink:href="#DejaVuSans-20" x="411.824219"/>
     <use xlink:href="#DejaVuSans-46" x="443.611328"/>
     <use xlink:href="#DejaVuSans-6c" x="501.130859"/>
     <use xlink:href="#DejaVuSans-75" x="528.914062"/>
     <use xlink:href="#DejaVuSans-78" x="592.292969"/>
    </g>
   </g>
  </g>
 </g>
 <defs>
  <clipPath id="p380374cbf2">
   <rect x="33.2875" y="22.318125" width="357.12" height="266.112"/>
  </clipPath>
 </defs>
</svg>
