<?xml version="1.0" encoding="utf-8" standalone="no"?>
<!DOCTYPE svg PUBLIC "-//W3C//DTD SVG 1.1//EN"
  "http://www.w3.org/Graphics/SVG/1.1/DTD/svg11.dtd">
<svg xmlns:xlink="http://www.w3.org/1999/xlink" width="391.245pt" height="312.30825pt" viewBox="0 0 391.245 312.30825" xmlns="http://www.w3.org/2000/svg" version="1.1">
 <metadata>
  <rdf:RDF xmlns:dc="http://purl.org/dc/elements/1.1/" xmlns:cc="http://creativecommons.org/ns#" xmlns:rdf="http://www.w3.org/1999/02/22-rdf-syntax-ns#">
   <cc:Work>
    <dc:type rdf:resource="http://purl.org/dc/dcmitype/StillImage"/>
    <dc:date>2024-03-14T14:52:06.663918</dc:date>
    <dc:format>image/svg+xml</dc:format>
    <dc:creator>
     <cc:Agent>
      <dc:title>Matplotlib v3.8.3, https://matplotlib.org/</dc:title>
     </cc:Agent>
    </dc:creator>
   </cc:Work>
  </rdf:RDF>
 </metadata>
 <defs>
  <style type="text/css">*{stroke-linejoin: round; stroke-linecap: butt}</style>
 </defs>
 <g id="figure_1">
  <g id="patch_1">
   <path d="M 0 312.30825 
L 391.245 312.30825 
L 391.245 0 
L 0 0 
z
" style="fill: #ffffff"/>
  </g>
  <g id="axes_1">
   <g id="patch_2">
    <path d="M 26.925 288.430125 
L 384.045 288.430125 
L 384.045 22.318125 
L 26.925 22.318125 
z
" style="fill: #ffffff"/>
   </g>
   <g id="matplotlib.axis_1">
    <g id="xtick_1">
     <g id="line2d_1">
      <defs>
       <path id="m0858ad0fa4" d="M 0 0 
L 0 3.5 
" style="stroke: #000000; stroke-width: 0.8"/>
      </defs>
      <g>
       <use xlink:href="#m0858ad0fa4" x="43.157727" y="288.430125" style="stroke: #000000; stroke-width: 0.8"/>
      </g>
     </g>
     <g id="text_1">
      <!-- 0 -->
      <g transform="translate(39.976477 303.028562) scale(0.1 -0.1)">
       <defs>
        <path id="DejaVuSans-30" d="M 2034 4250 
Q 1547 4250 1301 3770 
Q 1056 3291 1056 2328 
Q 1056 1369 1301 889 
Q 1547 409 2034 409 
Q 2525 409 2770 889 
Q 3016 1369 3016 2328 
Q 3016 3291 2770 3770 
Q 2525 4250 2034 4250 
z
M 2034 4750 
Q 2819 4750 3233 4129 
Q 3647 3509 3647 2328 
Q 3647 1150 3233 529 
Q 2819 -91 2034 -91 
Q 1250 -91 836 529 
Q 422 1150 422 2328 
Q 422 3509 836 4129 
Q 1250 4750 2034 4750 
z
" transform="scale(0.015625)"/>
       </defs>
       <use xlink:href="#DejaVuSans-30"/>
      </g>
     </g>
    </g>
    <g id="xtick_2">
     <g id="line2d_2">
      <g>
       <use xlink:href="#m0858ad0fa4" x="86.677103" y="288.430125" style="stroke: #000000; stroke-width: 0.8"/>
      </g>
     </g>
     <g id="text_2">
      <!-- 50 -->
      <g transform="translate(80.314603 303.028562) scale(0.1 -0.1)">
       <defs>
        <path id="DejaVuSans-35" d="M 691 4666 
L 3169 4666 
L 3169 4134 
L 1269 4134 
L 1269 2991 
Q 1406 3038 1543 3061 
Q 1681 3084 1819 3084 
Q 2600 3084 3056 2656 
Q 3513 2228 3513 1497 
Q 3513 744 3044 326 
Q 2575 -91 1722 -91 
Q 1428 -91 1123 -41 
Q 819 9 494 109 
L 494 744 
Q 775 591 1075 516 
Q 1375 441 1709 441 
Q 2250 441 2565 725 
Q 2881 1009 2881 1497 
Q 2881 1984 2565 2268 
Q 2250 2553 1709 2553 
Q 1456 2553 1204 2497 
Q 953 2441 691 2322 
L 691 4666 
z
" transform="scale(0.015625)"/>
       </defs>
       <use xlink:href="#DejaVuSans-35"/>
       <use xlink:href="#DejaVuSans-30" x="63.623047"/>
      </g>
     </g>
    </g>
    <g id="xtick_3">
     <g id="line2d_3">
      <g>
       <use xlink:href="#m0858ad0fa4" x="130.196479" y="288.430125" style="stroke: #000000; stroke-width: 0.8"/>
      </g>
     </g>
     <g id="text_3">
      <!-- 100 -->
      <g transform="translate(120.652729 303.028562) scale(0.1 -0.1)">
       <defs>
        <path id="DejaVuSans-31" d="M 794 531 
L 1825 531 
L 1825 4091 
L 703 3866 
L 703 4441 
L 1819 4666 
L 2450 4666 
L 2450 531 
L 3481 531 
L 3481 0 
L 794 0 
L 794 531 
z
" transform="scale(0.015625)"/>
       </defs>
       <use xlink:href="#DejaVuSans-31"/>
       <use xlink:href="#DejaVuSans-30" x="63.623047"/>
       <use xlink:href="#DejaVuSans-30" x="127.246094"/>
      </g>
     </g>
    </g>
    <g id="xtick_4">
     <g id="line2d_4">
      <g>
       <use xlink:href="#m0858ad0fa4" x="173.715855" y="288.430125" style="stroke: #000000; stroke-width: 0.8"/>
      </g>
     </g>
     <g id="text_4">
      <!-- 150 -->
      <g transform="translate(164.172105 303.028562) scale(0.1 -0.1)">
       <use xlink:href="#DejaVuSans-31"/>
       <use xlink:href="#DejaVuSans-35" x="63.623047"/>
       <use xlink:href="#DejaVuSans-30" x="127.246094"/>
      </g>
     </g>
    </g>
    <g id="xtick_5">
     <g id="line2d_5">
      <g>
       <use xlink:href="#m0858ad0fa4" x="217.235232" y="288.430125" style="stroke: #000000; stroke-width: 0.8"/>
      </g>
     </g>
     <g id="text_5">
      <!-- 200 -->
      <g transform="translate(207.691482 303.028562) scale(0.1 -0.1)">
       <defs>
        <path id="DejaVuSans-32" d="M 1228 531 
L 3431 531 
L 3431 0 
L 469 0 
L 469 531 
Q 828 903 1448 1529 
Q 2069 2156 2228 2338 
Q 2531 2678 2651 2914 
Q 2772 3150 2772 3378 
Q 2772 3750 2511 3984 
Q 2250 4219 1831 4219 
Q 1534 4219 1204 4116 
Q 875 4013 500 3803 
L 500 4441 
Q 881 4594 1212 4672 
Q 1544 4750 1819 4750 
Q 2544 4750 2975 4387 
Q 3406 4025 3406 3419 
Q 3406 3131 3298 2873 
Q 3191 2616 2906 2266 
Q 2828 2175 2409 1742 
Q 1991 1309 1228 531 
z
" transform="scale(0.015625)"/>
       </defs>
       <use xlink:href="#DejaVuSans-32"/>
       <use xlink:href="#DejaVuSans-30" x="63.623047"/>
       <use xlink:href="#DejaVuSans-30" x="127.246094"/>
      </g>
     </g>
    </g>
    <g id="xtick_6">
     <g id="line2d_6">
      <g>
       <use xlink:href="#m0858ad0fa4" x="260.754608" y="288.430125" style="stroke: #000000; stroke-width: 0.8"/>
      </g>
     </g>
     <g id="text_6">
      <!-- 250 -->
      <g transform="translate(251.210858 303.028562) scale(0.1 -0.1)">
       <use xlink:href="#DejaVuSans-32"/>
       <use xlink:href="#DejaVuSans-35" x="63.623047"/>
       <use xlink:href="#DejaVuSans-30" x="127.246094"/>
      </g>
     </g>
    </g>
    <g id="xtick_7">
     <g id="line2d_7">
      <g>
       <use xlink:href="#m0858ad0fa4" x="304.273984" y="288.430125" style="stroke: #000000; stroke-width: 0.8"/>
      </g>
     </g>
     <g id="text_7">
      <!-- 300 -->
      <g transform="translate(294.730234 303.028562) scale(0.1 -0.1)">
       <defs>
        <path id="DejaVuSans-33" d="M 2597 2516 
Q 3050 2419 3304 2112 
Q 3559 1806 3559 1356 
Q 3559 666 3084 287 
Q 2609 -91 1734 -91 
Q 1441 -91 1130 -33 
Q 819 25 488 141 
L 488 750 
Q 750 597 1062 519 
Q 1375 441 1716 441 
Q 2309 441 2620 675 
Q 2931 909 2931 1356 
Q 2931 1769 2642 2001 
Q 2353 2234 1838 2234 
L 1294 2234 
L 1294 2753 
L 1863 2753 
Q 2328 2753 2575 2939 
Q 2822 3125 2822 3475 
Q 2822 3834 2567 4026 
Q 2313 4219 1838 4219 
Q 1578 4219 1281 4162 
Q 984 4106 628 3988 
L 628 4550 
Q 988 4650 1302 4700 
Q 1616 4750 1894 4750 
Q 2613 4750 3031 4423 
Q 3450 4097 3450 3541 
Q 3450 3153 3228 2886 
Q 3006 2619 2597 2516 
z
" transform="scale(0.015625)"/>
       </defs>
       <use xlink:href="#DejaVuSans-33"/>
       <use xlink:href="#DejaVuSans-30" x="63.623047"/>
       <use xlink:href="#DejaVuSans-30" x="127.246094"/>
      </g>
     </g>
    </g>
    <g id="xtick_8">
     <g id="line2d_8">
      <g>
       <use xlink:href="#m0858ad0fa4" x="347.79336" y="288.430125" style="stroke: #000000; stroke-width: 0.8"/>
      </g>
     </g>
     <g id="text_8">
      <!-- 350 -->
      <g transform="translate(338.24961 303.028562) scale(0.1 -0.1)">
       <use xlink:href="#DejaVuSans-33"/>
       <use xlink:href="#DejaVuSans-35" x="63.623047"/>
       <use xlink:href="#DejaVuSans-30" x="127.246094"/>
      </g>
     </g>
    </g>
   </g>
   <g id="matplotlib.axis_2">
    <g id="ytick_1">
     <g id="line2d_9">
      <defs>
       <path id="mbb681c1991" d="M 0 0 
L -3.5 0 
" style="stroke: #000000; stroke-width: 0.8"/>
      </defs>
      <g>
       <use xlink:href="#mbb681c1991" x="26.925" y="276.767657" style="stroke: #000000; stroke-width: 0.8"/>
      </g>
     </g>
     <g id="text_9">
      <!-- 0 -->
      <g transform="translate(13.5625 280.566876) scale(0.1 -0.1)">
       <use xlink:href="#DejaVuSans-30"/>
      </g>
     </g>
    </g>
    <g id="ytick_2">
     <g id="line2d_10">
      <g>
       <use xlink:href="#mbb681c1991" x="26.925" y="239.694441" style="stroke: #000000; stroke-width: 0.8"/>
      </g>
     </g>
     <g id="text_10">
      <!-- 10 -->
      <g transform="translate(7.2 243.49366) scale(0.1 -0.1)">
       <use xlink:href="#DejaVuSans-31"/>
       <use xlink:href="#DejaVuSans-30" x="63.623047"/>
      </g>
     </g>
    </g>
    <g id="ytick_3">
     <g id="line2d_11">
      <g>
       <use xlink:href="#mbb681c1991" x="26.925" y="202.621225" style="stroke: #000000; stroke-width: 0.8"/>
      </g>
     </g>
     <g id="text_11">
      <!-- 20 -->
      <g transform="translate(7.2 206.420443) scale(0.1 -0.1)">
       <use xlink:href="#DejaVuSans-32"/>
       <use xlink:href="#DejaVuSans-30" x="63.623047"/>
      </g>
     </g>
    </g>
    <g id="ytick_4">
     <g id="line2d_12">
      <g>
       <use xlink:href="#mbb681c1991" x="26.925" y="165.548008" style="stroke: #000000; stroke-width: 0.8"/>
      </g>
     </g>
     <g id="text_12">
      <!-- 30 -->
      <g transform="translate(7.2 169.347227) scale(0.1 -0.1)">
       <use xlink:href="#DejaVuSans-33"/>
       <use xlink:href="#DejaVuSans-30" x="63.623047"/>
      </g>
     </g>
    </g>
    <g id="ytick_5">
     <g id="line2d_13">
      <g>
       <use xlink:href="#mbb681c1991" x="26.925" y="128.474792" style="stroke: #000000; stroke-width: 0.8"/>
      </g>
     </g>
     <g id="text_13">
      <!-- 40 -->
      <g transform="translate(7.2 132.274011) scale(0.1 -0.1)">
       <defs>
        <path id="DejaVuSans-34" d="M 2419 4116 
L 825 1625 
L 2419 1625 
L 2419 4116 
z
M 2253 4666 
L 3047 4666 
L 3047 1625 
L 3713 1625 
L 3713 1100 
L 3047 1100 
L 3047 0 
L 2419 0 
L 2419 1100 
L 313 1100 
L 313 1709 
L 2253 4666 
z
" transform="scale(0.015625)"/>
       </defs>
       <use xlink:href="#DejaVuSans-34"/>
       <use xlink:href="#DejaVuSans-30" x="63.623047"/>
      </g>
     </g>
    </g>
    <g id="ytick_6">
     <g id="line2d_14">
      <g>
       <use xlink:href="#mbb681c1991" x="26.925" y="91.401576" style="stroke: #000000; stroke-width: 0.8"/>
      </g>
     </g>
     <g id="text_14">
      <!-- 50 -->
      <g transform="translate(7.2 95.200795) scale(0.1 -0.1)">
       <use xlink:href="#DejaVuSans-35"/>
       <use xlink:href="#DejaVuSans-30" x="63.623047"/>
      </g>
     </g>
    </g>
    <g id="ytick_7">
     <g id="line2d_15">
      <g>
       <use xlink:href="#mbb681c1991" x="26.925" y="54.32836" style="stroke: #000000; stroke-width: 0.8"/>
      </g>
     </g>
     <g id="text_15">
      <!-- 60 -->
      <g transform="translate(7.2 58.127579) scale(0.1 -0.1)">
       <defs>
        <path id="DejaVuSans-36" d="M 2113 2584 
Q 1688 2584 1439 2293 
Q 1191 2003 1191 1497 
Q 1191 994 1439 701 
Q 1688 409 2113 409 
Q 2538 409 2786 701 
Q 3034 994 3034 1497 
Q 3034 2003 2786 2293 
Q 2538 2584 2113 2584 
z
M 3366 4563 
L 3366 3988 
Q 3128 4100 2886 4159 
Q 2644 4219 2406 4219 
Q 1781 4219 1451 3797 
Q 1122 3375 1075 2522 
Q 1259 2794 1537 2939 
Q 1816 3084 2150 3084 
Q 2853 3084 3261 2657 
Q 3669 2231 3669 1497 
Q 3669 778 3244 343 
Q 2819 -91 2113 -91 
Q 1303 -91 875 529 
Q 447 1150 447 2328 
Q 447 3434 972 4092 
Q 1497 4750 2381 4750 
Q 2619 4750 2861 4703 
Q 3103 4656 3366 4563 
z
" transform="scale(0.015625)"/>
       </defs>
       <use xlink:href="#DejaVuSans-36"/>
       <use xlink:href="#DejaVuSans-30" x="63.623047"/>
      </g>
     </g>
    </g>
   </g>
   <g id="line2d_16">
    <path d="M 43.157727 238.840631 
L 44.028115 274.272317 
L 44.898502 268.608126 
L 45.76889 276.334125 
L 49.25044 276.330077 
L 50.120827 257.685934 
L 50.991215 272.466309 
L 51.861602 275.903095 
L 52.73199 275.871095 
L 53.602378 272.008968 
L 54.472765 247.477061 
L 55.343153 274.682965 
L 56.21354 274.383104 
L 57.083928 274.598838 
L 57.954315 274.430876 
L 58.824703 274.440795 
L 59.69509 250.381542 
L 60.565478 272.664794 
L 61.435865 275.368637 
L 62.306253 275.420635 
L 63.17664 270.657854 
L 64.047028 249.6611 
L 64.917415 275.048995 
L 65.787803 275.04531 
L 66.65819 274.268821 
L 67.528578 273.779906 
L 68.398965 273.866944 
L 69.269353 236.103925 
L 70.13974 267.380213 
L 71.010128 275.185505 
L 71.880515 275.259484 
L 72.750903 264.853961 
L 73.621291 237.588762 
L 74.491678 274.937276 
L 75.362066 274.758217 
L 76.232453 274.389358 
L 77.973228 274.412072 
L 78.843616 212.604697 
L 79.714003 254.575359 
L 80.584391 274.932808 
L 81.454778 274.894048 
L 82.325166 265.49487 
L 83.195553 146.291339 
L 84.065941 269.202464 
L 84.936328 269.249872 
L 85.806716 269.154577 
L 86.677103 269.199054 
L 87.547491 269.387016 
L 88.417878 229.330591 
L 89.288266 265.969955 
L 90.158653 275.37578 
L 91.029041 275.345089 
L 91.899428 270.014241 
L 92.769816 247.081323 
L 93.640204 274.946821 
L 94.510591 274.457781 
L 95.380979 274.768866 
L 96.251366 274.896199 
L 97.121754 274.833752 
L 97.992141 159.634942 
L 98.862529 258.104851 
L 99.732916 275.297438 
L 100.603304 275.296278 
L 101.473691 269.022268 
L 102.344079 240.344989 
L 103.214466 274.488241 
L 104.084854 274.167135 
L 104.955241 274.104671 
L 105.825629 273.755082 
L 106.696016 274.13513 
L 107.566404 201.083202 
L 108.436791 268.365567 
L 109.307179 275.350324 
L 110.177566 275.312764 
L 111.047954 265.438128 
L 111.918341 175.689118 
L 112.788729 274.784819 
L 113.659117 274.691227 
L 114.529504 274.817992 
L 116.270279 274.773453 
L 117.140667 226.314214 
L 118.011054 263.079572 
L 118.881442 274.44284 
L 119.751829 274.491985 
L 120.622217 265.666527 
L 121.492604 146.227937 
L 122.362992 275.062331 
L 123.233379 274.930759 
L 124.103767 274.931855 
L 124.974154 275.080775 
L 125.844542 275.379694 
L 126.714929 249.100474 
L 127.585317 249.587979 
L 128.455704 274.110355 
L 129.326092 274.192474 
L 130.196479 265.25278 
L 131.066867 229.947556 
L 131.937254 274.514971 
L 132.807642 274.439202 
L 135.418805 274.651369 
L 136.289192 238.883889 
L 137.15958 261.951079 
L 138.029967 268.168603 
L 138.900355 268.320451 
L 139.770742 236.771862 
L 140.64113 81.670775 
L 141.511517 274.032269 
L 142.381905 273.931984 
L 143.252292 274.145008 
L 144.12268 273.823328 
L 144.993067 274.18714 
L 145.863455 204.078901 
L 146.733842 252.624871 
L 147.60423 273.162603 
L 148.474617 273.058623 
L 149.345005 261.327754 
L 150.215392 244.393445 
L 151.08578 274.894711 
L 151.956167 274.639445 
L 152.826555 274.586122 
L 153.696942 273.358185 
L 154.56733 274.460635 
L 155.437718 235.225484 
L 156.308105 265.141196 
L 157.178493 275.050883 
L 158.04888 275.083258 
L 158.919268 268.231152 
L 159.789655 236.357139 
L 160.660043 271.928312 
L 163.271205 271.881386 
L 164.141593 272.050048 
L 165.01198 210.188501 
L 165.882368 268.049171 
L 166.752755 274.676608 
L 167.623143 274.677329 
L 168.49353 252.146313 
L 169.363918 225.631243 
L 170.234305 273.794452 
L 171.104693 273.630184 
L 172.845468 273.691452 
L 173.715855 274.288916 
L 174.586243 224.948796 
L 175.456631 265.900143 
L 176.327018 275.120068 
L 177.197406 275.193296 
L 178.067793 268.88124 
L 178.938181 241.978621 
L 179.808568 274.722627 
L 182.419731 274.49941 
L 183.290118 274.553759 
L 184.160506 244.869324 
L 185.030893 250.556836 
L 185.901281 273.141504 
L 186.771668 273.165468 
L 187.642056 256.598027 
L 188.512443 245.309784 
L 189.382831 275.376507 
L 191.123606 275.190955 
L 192.864381 275.357697 
L 193.734768 212.772859 
L 194.605156 265.250768 
L 195.475544 271.952523 
L 196.345931 272.060099 
L 197.216319 135.567907 
L 198.086706 246.090193 
L 198.957094 274.828357 
L 202.438644 275.020098 
L 203.309031 242.819597 
L 204.179419 268.754837 
L 205.049806 275.542656 
L 205.920194 275.443179 
L 206.790581 269.884361 
L 207.660969 238.318098 
L 208.531356 274.962813 
L 209.401744 274.763723 
L 211.142519 274.688049 
L 212.012906 274.818221 
L 212.883294 227.80384 
L 213.753681 260.227272 
L 214.624069 275.193826 
L 215.494456 275.161579 
L 216.364844 268.392779 
L 217.235232 234.175446 
L 218.105619 274.551848 
L 219.846394 274.81959 
L 220.716782 274.329767 
L 221.587169 274.83672 
L 222.457557 243.603871 
L 223.327944 263.442523 
L 224.198332 275.157752 
L 225.068719 275.191198 
L 225.939107 262.972781 
L 226.809494 229.333563 
L 227.679882 274.390679 
L 228.550269 274.110624 
L 230.291044 274.29865 
L 231.161432 274.357166 
L 232.031819 206.132982 
L 232.902207 264.010356 
L 233.772594 275.182861 
L 234.642982 275.337961 
L 235.513369 266.593048 
L 236.383757 241.990893 
L 237.254145 274.777807 
L 238.124532 274.606873 
L 239.865307 274.736173 
L 240.735695 274.808548 
L 241.606082 237.570952 
L 242.47647 264.463845 
L 243.346857 275.445538 
L 244.217245 275.458263 
L 245.087632 264.010279 
L 245.95802 34.414125 
L 246.828407 275.140347 
L 248.569182 274.991316 
L 249.43957 274.814551 
L 250.309957 274.981368 
L 251.180345 246.656071 
L 252.050732 269.628813 
L 252.92112 275.596554 
L 253.791507 275.572134 
L 254.661895 268.632157 
L 255.532282 244.570887 
L 256.40267 274.578405 
L 258.143445 274.439181 
L 259.013833 274.684036 
L 259.88422 274.711863 
L 260.754608 241.92116 
L 261.624995 264.096705 
L 262.495383 274.249472 
L 263.36577 274.310949 
L 264.236158 262.365191 
L 265.106545 220.864533 
L 265.976933 273.710542 
L 266.84732 273.589679 
L 267.717708 273.693256 
L 269.458483 273.760076 
L 270.32887 233.336263 
L 271.199258 267.206038 
L 272.069645 275.601253 
L 272.940033 275.603651 
L 273.81042 267.490684 
L 274.680808 225.833912 
L 275.551195 273.625908 
L 277.291971 273.304262 
L 278.162358 273.618586 
L 279.032746 273.736513 
L 279.903133 231.76452 
L 280.773521 143.384273 
L 281.643908 275.028494 
L 282.514296 275.145845 
L 283.384683 263.25652 
L 284.255071 241.786495 
L 285.125458 274.713193 
L 286.866233 274.728125 
L 287.736621 274.519344 
L 288.607008 274.786413 
L 289.477396 242.437883 
L 291.218171 275.050412 
L 292.088558 275.094028 
L 292.958946 263.054451 
L 293.829333 245.439894 
L 294.699721 273.928456 
L 295.570108 273.711063 
L 297.310883 273.636644 
L 298.181271 273.854156 
L 299.051659 229.800194 
L 299.922046 269.864486 
L 300.792434 275.612592 
L 301.662821 275.708514 
L 302.533209 268.71114 
L 303.403596 112.936493 
L 304.273984 272.054873 
L 305.144371 272.016208 
L 306.014759 268.3571 
L 306.885146 270.724808 
L 307.755534 270.676629 
L 308.625921 148.40078 
L 309.496309 270.339244 
L 310.366696 275.794496 
L 311.237084 275.707788 
L 312.107471 261.907957 
L 312.977859 123.159278 
L 313.848246 255.414312 
L 314.718634 255.212752 
L 315.589021 255.208675 
L 316.459409 255.460355 
L 317.329796 255.502473 
L 318.200184 224.847864 
L 319.070572 222.188518 
L 319.940959 274.367345 
L 320.811347 274.356103 
L 321.681734 236.903478 
L 322.552122 180.523524 
L 323.422509 271.080725 
L 324.292897 270.955548 
L 325.163284 271.063338 
L 326.904059 270.995477 
L 327.774447 246.334506 
L 328.644834 267.069487 
L 329.515222 275.297916 
L 330.385609 275.282893 
L 331.255997 269.274442 
L 332.126384 231.810721 
L 332.996772 274.749486 
L 333.867159 274.597564 
L 336.478322 274.878195 
L 337.348709 230.819266 
L 339.089485 272.522485 
L 339.959872 272.646564 
L 340.83026 264.663173 
L 341.700647 231.798618 
L 342.571035 273.385193 
L 343.441422 273.216927 
L 344.31181 272.45386 
L 345.182197 273.178494 
L 346.052585 273.24278 
L 346.922972 218.902975 
L 347.79336 261.717986 
L 348.663747 275.270236 
L 349.534135 275.247139 
L 350.404522 265.35421 
L 351.27491 253.815928 
L 352.145297 274.935604 
L 353.015685 274.641716 
L 353.886072 274.488592 
L 354.75646 274.53823 
L 355.626847 274.766351 
L 356.497235 248.591324 
L 357.367622 263.294605 
L 358.23801 273.962968 
L 359.108398 274.001818 
L 359.978785 263.272311 
L 360.849173 245.956714 
L 361.71956 275.851477 
L 362.589948 275.783663 
L 363.460335 275.453027 
L 365.20111 275.848145 
L 366.071498 268.894855 
L 366.941885 271.830532 
L 367.812273 134.82155 
L 367.812273 134.82155 
" clip-path="url(#p43fcde05cf)" style="fill: none; stroke: #1f77b4; stroke-width: 1.5; stroke-linecap: square"/>
   </g>
   <g id="patch_3">
    <path d="M 26.925 288.430125 
L 26.925 22.318125 
" style="fill: none; stroke: #000000; stroke-width: 0.8; stroke-linejoin: miter; stroke-linecap: square"/>
   </g>
   <g id="patch_4">
    <path d="M 384.045 288.430125 
L 384.045 22.318125 
" style="fill: none; stroke: #000000; stroke-width: 0.8; stroke-linejoin: miter; stroke-linecap: square"/>
   </g>
   <g id="patch_5">
    <path d="M 26.925 288.430125 
L 384.045 288.430125 
" style="fill: none; stroke: #000000; stroke-width: 0.8; stroke-linejoin: miter; stroke-linecap: square"/>
   </g>
   <g id="patch_6">
    <path d="M 26.925 22.318125 
L 384.045 22.318125 
" style="fill: none; stroke: #000000; stroke-width: 0.8; stroke-linejoin: miter; stroke-linecap: square"/>
   </g>
   <g id="text_16">
    <!-- Thermal Flux -->
    <g transform="translate(166.397813 16.318125) scale(0.12 -0.12)">
     <defs>
      <path id="DejaVuSans-54" d="M -19 4666 
L 3928 4666 
L 3928 4134 
L 2272 4134 
L 2272 0 
L 1638 0 
L 1638 4134 
L -19 4134 
L -19 4666 
z
" transform="scale(0.015625)"/>
      <path id="DejaVuSans-68" d="M 3513 2113 
L 3513 0 
L 2938 0 
L 2938 2094 
Q 2938 2591 2744 2837 
Q 2550 3084 2163 3084 
Q 1697 3084 1428 2787 
Q 1159 2491 1159 1978 
L 1159 0 
L 581 0 
L 581 4863 
L 1159 4863 
L 1159 2956 
Q 1366 3272 1645 3428 
Q 1925 3584 2291 3584 
Q 2894 3584 3203 3211 
Q 3513 2838 3513 2113 
z
" transform="scale(0.015625)"/>
      <path id="DejaVuSans-65" d="M 3597 1894 
L 3597 1613 
L 953 1613 
Q 991 1019 1311 708 
Q 1631 397 2203 397 
Q 2534 397 2845 478 
Q 3156 559 3463 722 
L 3463 178 
Q 3153 47 2828 -22 
Q 2503 -91 2169 -91 
Q 1331 -91 842 396 
Q 353 884 353 1716 
Q 353 2575 817 3079 
Q 1281 3584 2069 3584 
Q 2775 3584 3186 3129 
Q 3597 2675 3597 1894 
z
M 3022 2063 
Q 3016 2534 2758 2815 
Q 2500 3097 2075 3097 
Q 1594 3097 1305 2825 
Q 1016 2553 972 2059 
L 3022 2063 
z
" transform="scale(0.015625)"/>
      <path id="DejaVuSans-72" d="M 2631 2963 
Q 2534 3019 2420 3045 
Q 2306 3072 2169 3072 
Q 1681 3072 1420 2755 
Q 1159 2438 1159 1844 
L 1159 0 
L 581 0 
L 581 3500 
L 1159 3500 
L 1159 2956 
Q 1341 3275 1631 3429 
Q 1922 3584 2338 3584 
Q 2397 3584 2469 3576 
Q 2541 3569 2628 3553 
L 2631 2963 
z
" transform="scale(0.015625)"/>
      <path id="DejaVuSans-6d" d="M 3328 2828 
Q 3544 3216 3844 3400 
Q 4144 3584 4550 3584 
Q 5097 3584 5394 3201 
Q 5691 2819 5691 2113 
L 5691 0 
L 5113 0 
L 5113 2094 
Q 5113 2597 4934 2840 
Q 4756 3084 4391 3084 
Q 3944 3084 3684 2787 
Q 3425 2491 3425 1978 
L 3425 0 
L 2847 0 
L 2847 2094 
Q 2847 2600 2669 2842 
Q 2491 3084 2119 3084 
Q 1678 3084 1418 2786 
Q 1159 2488 1159 1978 
L 1159 0 
L 581 0 
L 581 3500 
L 1159 3500 
L 1159 2956 
Q 1356 3278 1631 3431 
Q 1906 3584 2284 3584 
Q 2666 3584 2933 3390 
Q 3200 3197 3328 2828 
z
" transform="scale(0.015625)"/>
      <path id="DejaVuSans-61" d="M 2194 1759 
Q 1497 1759 1228 1600 
Q 959 1441 959 1056 
Q 959 750 1161 570 
Q 1363 391 1709 391 
Q 2188 391 2477 730 
Q 2766 1069 2766 1631 
L 2766 1759 
L 2194 1759 
z
M 3341 1997 
L 3341 0 
L 2766 0 
L 2766 531 
Q 2569 213 2275 61 
Q 1981 -91 1556 -91 
Q 1019 -91 701 211 
Q 384 513 384 1019 
Q 384 1609 779 1909 
Q 1175 2209 1959 2209 
L 2766 2209 
L 2766 2266 
Q 2766 2663 2505 2880 
Q 2244 3097 1772 3097 
Q 1472 3097 1187 3025 
Q 903 2953 641 2809 
L 641 3341 
Q 956 3463 1253 3523 
Q 1550 3584 1831 3584 
Q 2591 3584 2966 3190 
Q 3341 2797 3341 1997 
z
" transform="scale(0.015625)"/>
      <path id="DejaVuSans-6c" d="M 603 4863 
L 1178 4863 
L 1178 0 
L 603 0 
L 603 4863 
z
" transform="scale(0.015625)"/>
      <path id="DejaVuSans-20" transform="scale(0.015625)"/>
      <path id="DejaVuSans-46" d="M 628 4666 
L 3309 4666 
L 3309 4134 
L 1259 4134 
L 1259 2759 
L 3109 2759 
L 3109 2228 
L 1259 2228 
L 1259 0 
L 628 0 
L 628 4666 
z
" transform="scale(0.015625)"/>
      <path id="DejaVuSans-75" d="M 544 1381 
L 544 3500 
L 1119 3500 
L 1119 1403 
Q 1119 906 1312 657 
Q 1506 409 1894 409 
Q 2359 409 2629 706 
Q 2900 1003 2900 1516 
L 2900 3500 
L 3475 3500 
L 3475 0 
L 2900 0 
L 2900 538 
Q 2691 219 2414 64 
Q 2138 -91 1772 -91 
Q 1169 -91 856 284 
Q 544 659 544 1381 
z
M 1991 3584 
L 1991 3584 
z
" transform="scale(0.015625)"/>
      <path id="DejaVuSans-78" d="M 3513 3500 
L 2247 1797 
L 3578 0 
L 2900 0 
L 1881 1375 
L 863 0 
L 184 0 
L 1544 1831 
L 300 3500 
L 978 3500 
L 1906 2253 
L 2834 3500 
L 3513 3500 
z
" transform="scale(0.015625)"/>
     </defs>
     <use xlink:href="#DejaVuSans-54"/>
     <use xlink:href="#DejaVuSans-68" x="61.083984"/>
     <use xlink:href="#DejaVuSans-65" x="124.462891"/>
     <use xlink:href="#DejaVuSans-72" x="185.986328"/>
     <use xlink:href="#DejaVuSans-6d" x="225.349609"/>
     <use xlink:href="#DejaVuSans-61" x="322.761719"/>
     <use xlink:href="#DejaVuSans-6c" x="384.041016"/>
     <use xlink:href="#DejaVuSans-20" x="411.824219"/>
     <use xlink:href="#DejaVuSans-46" x="443.611328"/>
     <use xlink:href="#DejaVuSans-6c" x="501.130859"/>
     <use xlink:href="#DejaVuSans-75" x="528.914062"/>
     <use xlink:href="#DejaVuSans-78" x="592.292969"/>
    </g>
   </g>
  </g>
 </g>
 <defs>
  <clipPath id="p43fcde05cf">
   <rect x="26.925" y="22.318125" width="357.12" height="266.112"/>
  </clipPath>
 </defs>
</svg>
