<?xml version="1.0" encoding="utf-8" standalone="no"?>
<!DOCTYPE svg PUBLIC "-//W3C//DTD SVG 1.1//EN"
  "http://www.w3.org/Graphics/SVG/1.1/DTD/svg11.dtd">
<svg xmlns:xlink="http://www.w3.org/1999/xlink" width="394.423125pt" height="312.30825pt" viewBox="0 0 394.423125 312.30825" xmlns="http://www.w3.org/2000/svg" version="1.1">
 <metadata>
  <rdf:RDF xmlns:dc="http://purl.org/dc/elements/1.1/" xmlns:cc="http://creativecommons.org/ns#" xmlns:rdf="http://www.w3.org/1999/02/22-rdf-syntax-ns#">
   <cc:Work>
    <dc:type rdf:resource="http://purl.org/dc/dcmitype/StillImage"/>
    <dc:date>2024-03-19T15:50:28.315921</dc:date>
    <dc:format>image/svg+xml</dc:format>
    <dc:creator>
     <cc:Agent>
      <dc:title>Matplotlib v3.8.3, https://matplotlib.org/</dc:title>
     </cc:Agent>
    </dc:creator>
   </cc:Work>
  </rdf:RDF>
 </metadata>
 <defs>
  <style type="text/css">*{stroke-linejoin: round; stroke-linecap: butt}</style>
 </defs>
 <g id="figure_1">
  <g id="patch_1">
   <path d="M 0 312.30825 
L 394.423125 312.30825 
L 394.423125 0 
L 0 0 
z
" style="fill: #ffffff"/>
  </g>
  <g id="axes_1">
   <g id="patch_2">
    <path d="M 30.103125 288.430125 
L 387.223125 288.430125 
L 387.223125 22.318125 
L 30.103125 22.318125 
z
" style="fill: #ffffff"/>
   </g>
   <g id="matplotlib.axis_1">
    <g id="xtick_1">
     <g id="line2d_1">
      <defs>
       <path id="m96273388bd" d="M 0 0 
L 0 3.5 
" style="stroke: #000000; stroke-width: 0.8"/>
      </defs>
      <g>
       <use xlink:href="#m96273388bd" x="30.103125" y="288.430125" style="stroke: #000000; stroke-width: 0.8"/>
      </g>
     </g>
     <g id="text_1">
      <!-- 0 -->
      <g transform="translate(26.921875 303.028562) scale(0.1 -0.1)">
       <defs>
        <path id="DejaVuSans-30" d="M 2034 4250 
Q 1547 4250 1301 3770 
Q 1056 3291 1056 2328 
Q 1056 1369 1301 889 
Q 1547 409 2034 409 
Q 2525 409 2770 889 
Q 3016 1369 3016 2328 
Q 3016 3291 2770 3770 
Q 2525 4250 2034 4250 
z
M 2034 4750 
Q 2819 4750 3233 4129 
Q 3647 3509 3647 2328 
Q 3647 1150 3233 529 
Q 2819 -91 2034 -91 
Q 1250 -91 836 529 
Q 422 1150 422 2328 
Q 422 3509 836 4129 
Q 1250 4750 2034 4750 
z
" transform="scale(0.015625)"/>
       </defs>
       <use xlink:href="#DejaVuSans-30"/>
      </g>
     </g>
    </g>
    <g id="xtick_2">
     <g id="line2d_2">
      <g>
       <use xlink:href="#m96273388bd" x="71.717742" y="288.430125" style="stroke: #000000; stroke-width: 0.8"/>
      </g>
     </g>
     <g id="text_2">
      <!-- 5 -->
      <g transform="translate(68.536492 303.028562) scale(0.1 -0.1)">
       <defs>
        <path id="DejaVuSans-35" d="M 691 4666 
L 3169 4666 
L 3169 4134 
L 1269 4134 
L 1269 2991 
Q 1406 3038 1543 3061 
Q 1681 3084 1819 3084 
Q 2600 3084 3056 2656 
Q 3513 2228 3513 1497 
Q 3513 744 3044 326 
Q 2575 -91 1722 -91 
Q 1428 -91 1123 -41 
Q 819 9 494 109 
L 494 744 
Q 775 591 1075 516 
Q 1375 441 1709 441 
Q 2250 441 2565 725 
Q 2881 1009 2881 1497 
Q 2881 1984 2565 2268 
Q 2250 2553 1709 2553 
Q 1456 2553 1204 2497 
Q 953 2441 691 2322 
L 691 4666 
z
" transform="scale(0.015625)"/>
       </defs>
       <use xlink:href="#DejaVuSans-35"/>
      </g>
     </g>
    </g>
    <g id="xtick_3">
     <g id="line2d_3">
      <g>
       <use xlink:href="#m96273388bd" x="113.33236" y="288.430125" style="stroke: #000000; stroke-width: 0.8"/>
      </g>
     </g>
     <g id="text_3">
      <!-- 10 -->
      <g transform="translate(106.96986 303.028562) scale(0.1 -0.1)">
       <defs>
        <path id="DejaVuSans-31" d="M 794 531 
L 1825 531 
L 1825 4091 
L 703 3866 
L 703 4441 
L 1819 4666 
L 2450 4666 
L 2450 531 
L 3481 531 
L 3481 0 
L 794 0 
L 794 531 
z
" transform="scale(0.015625)"/>
       </defs>
       <use xlink:href="#DejaVuSans-31"/>
       <use xlink:href="#DejaVuSans-30" x="63.623047"/>
      </g>
     </g>
    </g>
    <g id="xtick_4">
     <g id="line2d_4">
      <g>
       <use xlink:href="#m96273388bd" x="154.946977" y="288.430125" style="stroke: #000000; stroke-width: 0.8"/>
      </g>
     </g>
     <g id="text_4">
      <!-- 15 -->
      <g transform="translate(148.584477 303.028562) scale(0.1 -0.1)">
       <use xlink:href="#DejaVuSans-31"/>
       <use xlink:href="#DejaVuSans-35" x="63.623047"/>
      </g>
     </g>
    </g>
    <g id="xtick_5">
     <g id="line2d_5">
      <g>
       <use xlink:href="#m96273388bd" x="196.561594" y="288.430125" style="stroke: #000000; stroke-width: 0.8"/>
      </g>
     </g>
     <g id="text_5">
      <!-- 20 -->
      <g transform="translate(190.199094 303.028562) scale(0.1 -0.1)">
       <defs>
        <path id="DejaVuSans-32" d="M 1228 531 
L 3431 531 
L 3431 0 
L 469 0 
L 469 531 
Q 828 903 1448 1529 
Q 2069 2156 2228 2338 
Q 2531 2678 2651 2914 
Q 2772 3150 2772 3378 
Q 2772 3750 2511 3984 
Q 2250 4219 1831 4219 
Q 1534 4219 1204 4116 
Q 875 4013 500 3803 
L 500 4441 
Q 881 4594 1212 4672 
Q 1544 4750 1819 4750 
Q 2544 4750 2975 4387 
Q 3406 4025 3406 3419 
Q 3406 3131 3298 2873 
Q 3191 2616 2906 2266 
Q 2828 2175 2409 1742 
Q 1991 1309 1228 531 
z
" transform="scale(0.015625)"/>
       </defs>
       <use xlink:href="#DejaVuSans-32"/>
       <use xlink:href="#DejaVuSans-30" x="63.623047"/>
      </g>
     </g>
    </g>
    <g id="xtick_6">
     <g id="line2d_6">
      <g>
       <use xlink:href="#m96273388bd" x="238.176212" y="288.430125" style="stroke: #000000; stroke-width: 0.8"/>
      </g>
     </g>
     <g id="text_6">
      <!-- 25 -->
      <g transform="translate(231.813712 303.028562) scale(0.1 -0.1)">
       <use xlink:href="#DejaVuSans-32"/>
       <use xlink:href="#DejaVuSans-35" x="63.623047"/>
      </g>
     </g>
    </g>
    <g id="xtick_7">
     <g id="line2d_7">
      <g>
       <use xlink:href="#m96273388bd" x="279.790829" y="288.430125" style="stroke: #000000; stroke-width: 0.8"/>
      </g>
     </g>
     <g id="text_7">
      <!-- 30 -->
      <g transform="translate(273.428329 303.028562) scale(0.1 -0.1)">
       <defs>
        <path id="DejaVuSans-33" d="M 2597 2516 
Q 3050 2419 3304 2112 
Q 3559 1806 3559 1356 
Q 3559 666 3084 287 
Q 2609 -91 1734 -91 
Q 1441 -91 1130 -33 
Q 819 25 488 141 
L 488 750 
Q 750 597 1062 519 
Q 1375 441 1716 441 
Q 2309 441 2620 675 
Q 2931 909 2931 1356 
Q 2931 1769 2642 2001 
Q 2353 2234 1838 2234 
L 1294 2234 
L 1294 2753 
L 1863 2753 
Q 2328 2753 2575 2939 
Q 2822 3125 2822 3475 
Q 2822 3834 2567 4026 
Q 2313 4219 1838 4219 
Q 1578 4219 1281 4162 
Q 984 4106 628 3988 
L 628 4550 
Q 988 4650 1302 4700 
Q 1616 4750 1894 4750 
Q 2613 4750 3031 4423 
Q 3450 4097 3450 3541 
Q 3450 3153 3228 2886 
Q 3006 2619 2597 2516 
z
" transform="scale(0.015625)"/>
       </defs>
       <use xlink:href="#DejaVuSans-33"/>
       <use xlink:href="#DejaVuSans-30" x="63.623047"/>
      </g>
     </g>
    </g>
    <g id="xtick_8">
     <g id="line2d_8">
      <g>
       <use xlink:href="#m96273388bd" x="321.405446" y="288.430125" style="stroke: #000000; stroke-width: 0.8"/>
      </g>
     </g>
     <g id="text_8">
      <!-- 35 -->
      <g transform="translate(315.042946 303.028562) scale(0.1 -0.1)">
       <use xlink:href="#DejaVuSans-33"/>
       <use xlink:href="#DejaVuSans-35" x="63.623047"/>
      </g>
     </g>
    </g>
    <g id="xtick_9">
     <g id="line2d_9">
      <g>
       <use xlink:href="#m96273388bd" x="363.020064" y="288.430125" style="stroke: #000000; stroke-width: 0.8"/>
      </g>
     </g>
     <g id="text_9">
      <!-- 40 -->
      <g transform="translate(356.657564 303.028562) scale(0.1 -0.1)">
       <defs>
        <path id="DejaVuSans-34" d="M 2419 4116 
L 825 1625 
L 2419 1625 
L 2419 4116 
z
M 2253 4666 
L 3047 4666 
L 3047 1625 
L 3713 1625 
L 3713 1100 
L 3047 1100 
L 3047 0 
L 2419 0 
L 2419 1100 
L 313 1100 
L 313 1709 
L 2253 4666 
z
" transform="scale(0.015625)"/>
       </defs>
       <use xlink:href="#DejaVuSans-34"/>
       <use xlink:href="#DejaVuSans-30" x="63.623047"/>
      </g>
     </g>
    </g>
   </g>
   <g id="matplotlib.axis_2">
    <g id="ytick_1">
     <g id="line2d_10">
      <defs>
       <path id="me9ff09d61b" d="M 0 0 
L -3.5 0 
" style="stroke: #000000; stroke-width: 0.8"/>
      </defs>
      <g>
       <use xlink:href="#me9ff09d61b" x="30.103125" y="274.13149" style="stroke: #000000; stroke-width: 0.8"/>
      </g>
     </g>
     <g id="text_10">
      <!-- 2.4 -->
      <g transform="translate(7.2 277.930709) scale(0.1 -0.1)">
       <defs>
        <path id="DejaVuSans-2e" d="M 684 794 
L 1344 794 
L 1344 0 
L 684 0 
L 684 794 
z
" transform="scale(0.015625)"/>
       </defs>
       <use xlink:href="#DejaVuSans-32"/>
       <use xlink:href="#DejaVuSans-2e" x="63.623047"/>
       <use xlink:href="#DejaVuSans-34" x="95.410156"/>
      </g>
     </g>
    </g>
    <g id="ytick_2">
     <g id="line2d_11">
      <g>
       <use xlink:href="#me9ff09d61b" x="30.103125" y="231.561986" style="stroke: #000000; stroke-width: 0.8"/>
      </g>
     </g>
     <g id="text_11">
      <!-- 2.5 -->
      <g transform="translate(7.2 235.361205) scale(0.1 -0.1)">
       <use xlink:href="#DejaVuSans-32"/>
       <use xlink:href="#DejaVuSans-2e" x="63.623047"/>
       <use xlink:href="#DejaVuSans-35" x="95.410156"/>
      </g>
     </g>
    </g>
    <g id="ytick_3">
     <g id="line2d_12">
      <g>
       <use xlink:href="#me9ff09d61b" x="30.103125" y="188.992483" style="stroke: #000000; stroke-width: 0.8"/>
      </g>
     </g>
     <g id="text_12">
      <!-- 2.6 -->
      <g transform="translate(7.2 192.791702) scale(0.1 -0.1)">
       <defs>
        <path id="DejaVuSans-36" d="M 2113 2584 
Q 1688 2584 1439 2293 
Q 1191 2003 1191 1497 
Q 1191 994 1439 701 
Q 1688 409 2113 409 
Q 2538 409 2786 701 
Q 3034 994 3034 1497 
Q 3034 2003 2786 2293 
Q 2538 2584 2113 2584 
z
M 3366 4563 
L 3366 3988 
Q 3128 4100 2886 4159 
Q 2644 4219 2406 4219 
Q 1781 4219 1451 3797 
Q 1122 3375 1075 2522 
Q 1259 2794 1537 2939 
Q 1816 3084 2150 3084 
Q 2853 3084 3261 2657 
Q 3669 2231 3669 1497 
Q 3669 778 3244 343 
Q 2819 -91 2113 -91 
Q 1303 -91 875 529 
Q 447 1150 447 2328 
Q 447 3434 972 4092 
Q 1497 4750 2381 4750 
Q 2619 4750 2861 4703 
Q 3103 4656 3366 4563 
z
" transform="scale(0.015625)"/>
       </defs>
       <use xlink:href="#DejaVuSans-32"/>
       <use xlink:href="#DejaVuSans-2e" x="63.623047"/>
       <use xlink:href="#DejaVuSans-36" x="95.410156"/>
      </g>
     </g>
    </g>
    <g id="ytick_4">
     <g id="line2d_13">
      <g>
       <use xlink:href="#me9ff09d61b" x="30.103125" y="146.422979" style="stroke: #000000; stroke-width: 0.8"/>
      </g>
     </g>
     <g id="text_13">
      <!-- 2.7 -->
      <g transform="translate(7.2 150.222198) scale(0.1 -0.1)">
       <defs>
        <path id="DejaVuSans-37" d="M 525 4666 
L 3525 4666 
L 3525 4397 
L 1831 0 
L 1172 0 
L 2766 4134 
L 525 4134 
L 525 4666 
z
" transform="scale(0.015625)"/>
       </defs>
       <use xlink:href="#DejaVuSans-32"/>
       <use xlink:href="#DejaVuSans-2e" x="63.623047"/>
       <use xlink:href="#DejaVuSans-37" x="95.410156"/>
      </g>
     </g>
    </g>
    <g id="ytick_5">
     <g id="line2d_14">
      <g>
       <use xlink:href="#me9ff09d61b" x="30.103125" y="103.853476" style="stroke: #000000; stroke-width: 0.8"/>
      </g>
     </g>
     <g id="text_14">
      <!-- 2.8 -->
      <g transform="translate(7.2 107.652695) scale(0.1 -0.1)">
       <defs>
        <path id="DejaVuSans-38" d="M 2034 2216 
Q 1584 2216 1326 1975 
Q 1069 1734 1069 1313 
Q 1069 891 1326 650 
Q 1584 409 2034 409 
Q 2484 409 2743 651 
Q 3003 894 3003 1313 
Q 3003 1734 2745 1975 
Q 2488 2216 2034 2216 
z
M 1403 2484 
Q 997 2584 770 2862 
Q 544 3141 544 3541 
Q 544 4100 942 4425 
Q 1341 4750 2034 4750 
Q 2731 4750 3128 4425 
Q 3525 4100 3525 3541 
Q 3525 3141 3298 2862 
Q 3072 2584 2669 2484 
Q 3125 2378 3379 2068 
Q 3634 1759 3634 1313 
Q 3634 634 3220 271 
Q 2806 -91 2034 -91 
Q 1263 -91 848 271 
Q 434 634 434 1313 
Q 434 1759 690 2068 
Q 947 2378 1403 2484 
z
M 1172 3481 
Q 1172 3119 1398 2916 
Q 1625 2713 2034 2713 
Q 2441 2713 2670 2916 
Q 2900 3119 2900 3481 
Q 2900 3844 2670 4047 
Q 2441 4250 2034 4250 
Q 1625 4250 1398 4047 
Q 1172 3844 1172 3481 
z
" transform="scale(0.015625)"/>
       </defs>
       <use xlink:href="#DejaVuSans-32"/>
       <use xlink:href="#DejaVuSans-2e" x="63.623047"/>
       <use xlink:href="#DejaVuSans-38" x="95.410156"/>
      </g>
     </g>
    </g>
    <g id="ytick_6">
     <g id="line2d_15">
      <g>
       <use xlink:href="#me9ff09d61b" x="30.103125" y="61.283972" style="stroke: #000000; stroke-width: 0.8"/>
      </g>
     </g>
     <g id="text_15">
      <!-- 2.9 -->
      <g transform="translate(7.2 65.083191) scale(0.1 -0.1)">
       <defs>
        <path id="DejaVuSans-39" d="M 703 97 
L 703 672 
Q 941 559 1184 500 
Q 1428 441 1663 441 
Q 2288 441 2617 861 
Q 2947 1281 2994 2138 
Q 2813 1869 2534 1725 
Q 2256 1581 1919 1581 
Q 1219 1581 811 2004 
Q 403 2428 403 3163 
Q 403 3881 828 4315 
Q 1253 4750 1959 4750 
Q 2769 4750 3195 4129 
Q 3622 3509 3622 2328 
Q 3622 1225 3098 567 
Q 2575 -91 1691 -91 
Q 1453 -91 1209 -44 
Q 966 3 703 97 
z
M 1959 2075 
Q 2384 2075 2632 2365 
Q 2881 2656 2881 3163 
Q 2881 3666 2632 3958 
Q 2384 4250 1959 4250 
Q 1534 4250 1286 3958 
Q 1038 3666 1038 3163 
Q 1038 2656 1286 2365 
Q 1534 2075 1959 2075 
z
" transform="scale(0.015625)"/>
       </defs>
       <use xlink:href="#DejaVuSans-32"/>
       <use xlink:href="#DejaVuSans-2e" x="63.623047"/>
       <use xlink:href="#DejaVuSans-39" x="95.410156"/>
      </g>
     </g>
    </g>
    <g id="text_16">
     <!-- 1e16 -->
     <g transform="translate(30.103125 19.318125) scale(0.1 -0.1)">
      <defs>
       <path id="DejaVuSans-65" d="M 3597 1894 
L 3597 1613 
L 953 1613 
Q 991 1019 1311 708 
Q 1631 397 2203 397 
Q 2534 397 2845 478 
Q 3156 559 3463 722 
L 3463 178 
Q 3153 47 2828 -22 
Q 2503 -91 2169 -91 
Q 1331 -91 842 396 
Q 353 884 353 1716 
Q 353 2575 817 3079 
Q 1281 3584 2069 3584 
Q 2775 3584 3186 3129 
Q 3597 2675 3597 1894 
z
M 3022 2063 
Q 3016 2534 2758 2815 
Q 2500 3097 2075 3097 
Q 1594 3097 1305 2825 
Q 1016 2553 972 2059 
L 3022 2063 
z
" transform="scale(0.015625)"/>
      </defs>
      <use xlink:href="#DejaVuSans-31"/>
      <use xlink:href="#DejaVuSans-65" x="63.623047"/>
      <use xlink:href="#DejaVuSans-31" x="125.146484"/>
      <use xlink:href="#DejaVuSans-36" x="188.769531"/>
     </g>
    </g>
   </g>
   <g id="line2d_16">
    <path d="M 30.103125 77.741886 
L 31.060551 113.117969 
L 32.017978 158.731313 
L 32.975404 179.374605 
L 33.93283 202.763786 
L 34.890256 207.703154 
L 35.847683 198.86546 
L 36.805109 193.035647 
L 37.762535 152.933824 
L 38.719961 101.477823 
L 39.677388 94.789721 
L 40.634814 129.194105 
L 41.59224 131.092095 
L 42.549667 195.752718 
L 43.507093 214.178538 
L 44.464519 206.065333 
L 45.421945 233.103518 
L 46.379372 237.271452 
L 47.336798 228.23961 
L 48.294224 206.848514 
L 49.25165 153.687769 
L 50.209077 140.846747 
L 51.166503 150.979257 
L 52.123929 166.75018 
L 53.081356 190.422219 
L 54.038782 218.490568 
L 54.996208 240.249051 
L 55.953634 257.651392 
L 56.911061 221.849298 
L 57.868487 180.789663 
L 58.825913 152.951682 
L 59.783339 98.022965 
L 60.740766 85.108043 
L 61.698192 64.053706 
L 62.655618 70.813439 
L 63.613045 161.700831 
L 64.570471 202.609257 
L 65.527897 208.88103 
L 66.485323 188.88639 
L 67.44275 210.111698 
L 68.400176 205.270228 
L 69.357602 175.213978 
L 70.315028 132.067419 
L 71.272455 119.241144 
L 72.229881 115.168672 
L 73.187307 121.377952 
L 74.144734 181.081202 
L 75.10216 200.662495 
L 76.059586 203.398876 
L 77.017012 188.792989 
L 77.974439 191.450365 
L 79.889291 128.191185 
L 80.846717 122.219729 
L 81.804144 71.837082 
L 82.76157 68.242404 
L 84.676423 143.486669 
L 85.633849 193.712146 
L 86.591275 218.483692 
L 87.548701 205.470115 
L 88.506128 211.495639 
L 89.463554 171.060179 
L 90.42098 157.217999 
L 91.378407 121.472525 
L 92.335833 90.436829 
L 93.293259 84.235925 
L 94.250685 112.217599 
L 95.208112 174.23401 
L 96.165538 206.049929 
L 97.122964 217.758283 
L 98.08039 226.325792 
L 99.037817 228.035482 
L 99.995243 232.493918 
L 100.952669 211.80968 
L 101.910096 155.351785 
L 102.867522 134.297789 
L 103.824948 117.62823 
L 104.782374 139.452814 
L 105.739801 181.640271 
L 106.697227 205.565387 
L 107.654653 215.396128 
L 108.612079 192.944056 
L 109.569506 199.975266 
L 110.526932 187.914537 
L 111.484358 157.874642 
L 112.441785 119.927306 
L 113.399211 112.582709 
L 114.356637 100.713064 
L 115.314063 126.417645 
L 116.27149 184.807774 
L 117.228916 207.255175 
L 118.186342 226.397993 
L 119.143768 209.320122 
L 120.101195 223.011684 
L 121.058621 210.98853 
L 122.016047 159.685131 
L 122.973474 101.35216 
L 124.888326 49.99136 
L 125.845752 64.635547 
L 126.803179 132.412291 
L 127.760605 165.113284 
L 128.718031 186.716092 
L 129.675457 187.75643 
L 130.632884 207.41223 
L 131.59031 194.45733 
L 132.547736 162.615345 
L 133.505163 111.289684 
L 134.462589 97.888654 
L 135.420015 79.842441 
L 136.377441 114.141251 
L 137.334868 185.540914 
L 138.292294 206.67798 
L 139.24972 222.418713 
L 140.207146 221.732798 
L 141.164573 225.821662 
L 142.121999 207.316761 
L 143.079425 179.165239 
L 144.036852 113.498821 
L 144.994278 86.263964 
L 145.951704 101.809524 
L 146.90913 138.316233 
L 147.866557 186.143811 
L 148.823983 212.231983 
L 149.781409 213.553571 
L 150.738835 196.197994 
L 151.696262 197.129794 
L 152.653688 199.596048 
L 153.611114 168.324579 
L 154.568541 112.496359 
L 155.525967 72.102209 
L 156.483393 79.61887 
L 157.440819 102.873143 
L 158.398246 166.01181 
L 159.355672 211.155607 
L 160.313098 213.243395 
L 161.270524 206.076022 
L 162.227951 193.949938 
L 163.185377 201.197947 
L 164.142803 171.202346 
L 165.10023 120.279613 
L 166.057656 93.149161 
L 167.015082 86.350275 
L 167.972508 120.206101 
L 168.929935 177.970848 
L 169.887361 193.910797 
L 170.844787 199.568061 
L 171.802213 199.698111 
L 172.75964 203.044584 
L 173.717066 188.33119 
L 175.631919 101.749657 
L 176.589345 110.445547 
L 177.546771 140.187294 
L 178.504197 145.17662 
L 180.41905 249.547066 
L 181.376476 276.334125 
L 182.333902 254.250128 
L 183.291329 240.134076 
L 184.248755 221.532264 
L 185.206181 194.375706 
L 186.163608 126.897929 
L 187.121034 92.29385 
L 188.07846 99.479308 
L 189.035886 130.646203 
L 189.993313 144.899331 
L 190.950739 187.821381 
L 191.908165 191.492109 
L 192.865591 198.561643 
L 193.823018 192.297181 
L 194.780444 184.005084 
L 196.695297 57.294006 
L 197.652723 34.414125 
L 198.610149 43.263285 
L 199.567575 68.815522 
L 200.525002 141.028739 
L 201.482428 169.905333 
L 202.439854 190.483776 
L 203.39728 203.008684 
L 204.354707 217.281035 
L 205.312133 219.562821 
L 206.269559 197.141409 
L 207.226986 136.771397 
L 208.184412 103.420136 
L 209.141838 105.616226 
L 210.099264 113.399892 
L 211.056691 176.872789 
L 212.014117 192.729918 
L 212.971543 218.281612 
L 213.92897 199.978917 
L 214.886396 190.100295 
L 215.843822 187.51483 
L 217.758675 132.795935 
L 218.716101 85.555642 
L 219.673527 71.302277 
L 220.630953 89.179202 
L 221.58838 142.9276 
L 222.545806 171.075326 
L 223.503232 185.373112 
L 224.460659 202.836336 
L 225.418085 193.797693 
L 226.375511 207.990726 
L 227.332937 179.634066 
L 228.290364 118.305942 
L 229.24779 99.294932 
L 231.162642 118.791633 
L 232.120069 194.719917 
L 233.077495 225.482118 
L 234.034921 227.518186 
L 234.992348 217.71911 
L 235.949774 238.395987 
L 236.9072 236.99851 
L 237.864626 219.091132 
L 238.822053 163.765405 
L 239.779479 123.526956 
L 240.736905 139.715017 
L 241.694331 132.311719 
L 242.651758 192.572251 
L 243.609184 210.135815 
L 244.56661 242.715058 
L 245.524037 215.798753 
L 246.481463 198.424374 
L 247.438889 173.677924 
L 249.353742 94.914096 
L 250.311168 73.767512 
L 251.268594 89.177694 
L 252.22602 108.982111 
L 253.183447 159.62324 
L 254.140873 191.987164 
L 255.098299 212.88739 
L 256.055726 214.33942 
L 257.013152 226.963358 
L 257.970578 201.558122 
L 258.928004 181.666429 
L 259.885431 114.375543 
L 260.842857 101.583146 
L 261.800283 101.609888 
L 262.757709 122.128303 
L 263.715136 155.119634 
L 264.672562 201.464855 
L 265.629988 215.622517 
L 267.544841 202.555508 
L 268.502267 181.168515 
L 269.459693 144.431573 
L 270.41712 93.999312 
L 271.374546 87.727408 
L 272.331972 99.059961 
L 273.289398 108.612953 
L 274.246825 153.688811 
L 275.204251 175.940042 
L 276.161677 210.114454 
L 277.119104 220.881 
L 278.07653 186.153416 
L 279.991382 133.073684 
L 280.948809 81.081127 
L 281.906235 46.895559 
L 282.863661 62.712271 
L 283.821087 87.232475 
L 284.778514 150.656899 
L 285.73594 176.16796 
L 286.693366 187.73612 
L 287.650793 185.553897 
L 288.608219 179.469345 
L 289.565645 189.176987 
L 290.523071 164.445669 
L 291.480498 126.633535 
L 292.437924 127.054083 
L 293.39535 103.883834 
L 294.352776 92.166195 
L 295.310203 164.374969 
L 296.267629 187.343839 
L 297.225055 193.222968 
L 298.182482 192.005527 
L 299.139908 209.783383 
L 300.097334 192.885847 
L 301.05476 158.041632 
L 302.969613 71.414544 
L 303.927039 67.4043 
L 304.884465 95.762355 
L 305.841892 137.87487 
L 306.799318 192.069189 
L 307.756744 202.591845 
L 308.714171 203.027338 
L 309.671597 195.143288 
L 310.629023 189.674937 
L 311.586449 152.06664 
L 312.543876 68.597468 
L 313.501302 41.409694 
L 314.458728 61.023565 
L 315.416154 83.826231 
L 316.373581 149.03887 
L 317.331007 198.815334 
L 318.288433 200.102988 
L 319.24586 199.58925 
L 320.203286 187.627904 
L 321.160712 201.445504 
L 322.118138 168.735814 
L 323.075565 125.564631 
L 324.032991 90.003239 
L 324.990417 89.626126 
L 325.947843 107.88003 
L 326.90527 174.361429 
L 327.862696 218.616603 
L 328.820122 223.981907 
L 329.777549 217.343224 
L 330.734975 230.939865 
L 331.692401 206.040605 
L 332.649827 170.754531 
L 333.607254 148.675139 
L 334.56468 101.317749 
L 335.522106 92.393172 
L 336.479533 117.519944 
L 337.436959 155.379512 
L 338.394385 173.85034 
L 339.351811 209.463932 
L 340.309238 217.810436 
L 341.266664 232.881746 
L 342.22409 207.333577 
L 343.181516 132.026606 
L 344.138943 79.871065 
L 345.096369 89.652308 
L 346.053795 109.59947 
L 347.011222 135.176741 
L 347.968648 179.446717 
L 348.926074 202.711502 
L 349.8835 218.771393 
L 350.840927 217.557999 
L 351.798353 207.461659 
L 352.755779 208.301627 
L 354.670632 104.684806 
L 355.628058 91.752478 
L 356.585484 102.068969 
L 357.542911 126.81247 
L 358.500337 161.810294 
L 359.457763 192.000321 
L 360.415189 190.540836 
L 361.372616 211.236017 
L 362.330042 195.966275 
L 363.287468 191.93356 
L 364.244894 170.218736 
L 365.202321 99.896566 
L 366.159747 102.988418 
L 367.117173 73.228959 
L 368.0746 98.360803 
L 369.032026 154.22423 
L 369.989452 194.53472 
L 370.946878 203.891418 
L 371.904305 222.040464 
L 372.861731 203.732062 
L 373.819157 205.818376 
L 374.776583 165.335289 
L 375.73401 92.34695 
L 376.691436 90.940608 
L 377.648862 100.279636 
L 378.606289 136.34735 
L 379.563715 177.859542 
L 380.521141 209.161959 
L 381.478567 219.492122 
L 382.435994 206.165419 
L 384.350846 165.865312 
L 385.308272 138.81942 
L 386.265699 101.364975 
L 387.223125 89.013019 
L 387.223125 89.013019 
" clip-path="url(#p08c6650cd1)" style="fill: none; stroke: #1f77b4; stroke-width: 1.5; stroke-linecap: square"/>
   </g>
   <g id="line2d_17">
    <path d="M 30.103125 163.230801 
L 208.184412 163.230801 
L 209.141838 157.978769 
L 387.223125 157.978769 
L 387.223125 157.978769 
" clip-path="url(#p08c6650cd1)" style="fill: none; stroke: #ffa500; stroke-width: 1.5; stroke-linecap: square"/>
   </g>
   <g id="patch_3">
    <path d="M 30.103125 288.430125 
L 30.103125 22.318125 
" style="fill: none; stroke: #000000; stroke-width: 0.8; stroke-linejoin: miter; stroke-linecap: square"/>
   </g>
   <g id="patch_4">
    <path d="M 387.223125 288.430125 
L 387.223125 22.318125 
" style="fill: none; stroke: #000000; stroke-width: 0.8; stroke-linejoin: miter; stroke-linecap: square"/>
   </g>
   <g id="patch_5">
    <path d="M 30.103125 288.430125 
L 387.223125 288.430125 
" style="fill: none; stroke: #000000; stroke-width: 0.8; stroke-linejoin: miter; stroke-linecap: square"/>
   </g>
   <g id="patch_6">
    <path d="M 30.103125 22.318125 
L 387.223125 22.318125 
" style="fill: none; stroke: #000000; stroke-width: 0.8; stroke-linejoin: miter; stroke-linecap: square"/>
   </g>
   <g id="text_17">
    <!-- Thermal Flux -->
    <g transform="translate(169.575938 16.318125) scale(0.12 -0.12)">
     <defs>
      <path id="DejaVuSans-54" d="M -19 4666 
L 3928 4666 
L 3928 4134 
L 2272 4134 
L 2272 0 
L 1638 0 
L 1638 4134 
L -19 4134 
L -19 4666 
z
" transform="scale(0.015625)"/>
      <path id="DejaVuSans-68" d="M 3513 2113 
L 3513 0 
L 2938 0 
L 2938 2094 
Q 2938 2591 2744 2837 
Q 2550 3084 2163 3084 
Q 1697 3084 1428 2787 
Q 1159 2491 1159 1978 
L 1159 0 
L 581 0 
L 581 4863 
L 1159 4863 
L 1159 2956 
Q 1366 3272 1645 3428 
Q 1925 3584 2291 3584 
Q 2894 3584 3203 3211 
Q 3513 2838 3513 2113 
z
" transform="scale(0.015625)"/>
      <path id="DejaVuSans-72" d="M 2631 2963 
Q 2534 3019 2420 3045 
Q 2306 3072 2169 3072 
Q 1681 3072 1420 2755 
Q 1159 2438 1159 1844 
L 1159 0 
L 581 0 
L 581 3500 
L 1159 3500 
L 1159 2956 
Q 1341 3275 1631 3429 
Q 1922 3584 2338 3584 
Q 2397 3584 2469 3576 
Q 2541 3569 2628 3553 
L 2631 2963 
z
" transform="scale(0.015625)"/>
      <path id="DejaVuSans-6d" d="M 3328 2828 
Q 3544 3216 3844 3400 
Q 4144 3584 4550 3584 
Q 5097 3584 5394 3201 
Q 5691 2819 5691 2113 
L 5691 0 
L 5113 0 
L 5113 2094 
Q 5113 2597 4934 2840 
Q 4756 3084 4391 3084 
Q 3944 3084 3684 2787 
Q 3425 2491 3425 1978 
L 3425 0 
L 2847 0 
L 2847 2094 
Q 2847 2600 2669 2842 
Q 2491 3084 2119 3084 
Q 1678 3084 1418 2786 
Q 1159 2488 1159 1978 
L 1159 0 
L 581 0 
L 581 3500 
L 1159 3500 
L 1159 2956 
Q 1356 3278 1631 3431 
Q 1906 3584 2284 3584 
Q 2666 3584 2933 3390 
Q 3200 3197 3328 2828 
z
" transform="scale(0.015625)"/>
      <path id="DejaVuSans-61" d="M 2194 1759 
Q 1497 1759 1228 1600 
Q 959 1441 959 1056 
Q 959 750 1161 570 
Q 1363 391 1709 391 
Q 2188 391 2477 730 
Q 2766 1069 2766 1631 
L 2766 1759 
L 2194 1759 
z
M 3341 1997 
L 3341 0 
L 2766 0 
L 2766 531 
Q 2569 213 2275 61 
Q 1981 -91 1556 -91 
Q 1019 -91 701 211 
Q 384 513 384 1019 
Q 384 1609 779 1909 
Q 1175 2209 1959 2209 
L 2766 2209 
L 2766 2266 
Q 2766 2663 2505 2880 
Q 2244 3097 1772 3097 
Q 1472 3097 1187 3025 
Q 903 2953 641 2809 
L 641 3341 
Q 956 3463 1253 3523 
Q 1550 3584 1831 3584 
Q 2591 3584 2966 3190 
Q 3341 2797 3341 1997 
z
" transform="scale(0.015625)"/>
      <path id="DejaVuSans-6c" d="M 603 4863 
L 1178 4863 
L 1178 0 
L 603 0 
L 603 4863 
z
" transform="scale(0.015625)"/>
      <path id="DejaVuSans-20" transform="scale(0.015625)"/>
      <path id="DejaVuSans-46" d="M 628 4666 
L 3309 4666 
L 3309 4134 
L 1259 4134 
L 1259 2759 
L 3109 2759 
L 3109 2228 
L 1259 2228 
L 1259 0 
L 628 0 
L 628 4666 
z
" transform="scale(0.015625)"/>
      <path id="DejaVuSans-75" d="M 544 1381 
L 544 3500 
L 1119 3500 
L 1119 1403 
Q 1119 906 1312 657 
Q 1506 409 1894 409 
Q 2359 409 2629 706 
Q 2900 1003 2900 1516 
L 2900 3500 
L 3475 3500 
L 3475 0 
L 2900 0 
L 2900 538 
Q 2691 219 2414 64 
Q 2138 -91 1772 -91 
Q 1169 -91 856 284 
Q 544 659 544 1381 
z
M 1991 3584 
L 1991 3584 
z
" transform="scale(0.015625)"/>
      <path id="DejaVuSans-78" d="M 3513 3500 
L 2247 1797 
L 3578 0 
L 2900 0 
L 1881 1375 
L 863 0 
L 184 0 
L 1544 1831 
L 300 3500 
L 978 3500 
L 1906 2253 
L 2834 3500 
L 3513 3500 
z
" transform="scale(0.015625)"/>
     </defs>
     <use xlink:href="#DejaVuSans-54"/>
     <use xlink:href="#DejaVuSans-68" x="61.083984"/>
     <use xlink:href="#DejaVuSans-65" x="124.462891"/>
     <use xlink:href="#DejaVuSans-72" x="185.986328"/>
     <use xlink:href="#DejaVuSans-6d" x="225.349609"/>
     <use xlink:href="#DejaVuSans-61" x="322.761719"/>
     <use xlink:href="#DejaVuSans-6c" x="384.041016"/>
     <use xlink:href="#DejaVuSans-20" x="411.824219"/>
     <use xlink:href="#DejaVuSans-46" x="443.611328"/>
     <use xlink:href="#DejaVuSans-6c" x="501.130859"/>
     <use xlink:href="#DejaVuSans-75" x="528.914062"/>
     <use xlink:href="#DejaVuSans-78" x="592.292969"/>
    </g>
   </g>
  </g>
 </g>
 <defs>
  <clipPath id="p08c6650cd1">
   <rect x="30.103125" y="22.318125" width="357.12" height="266.112"/>
  </clipPath>
 </defs>
</svg>
