<?xml version="1.0" encoding="utf-8" standalone="no"?>
<!DOCTYPE svg PUBLIC "-//W3C//DTD SVG 1.1//EN"
  "http://www.w3.org/Graphics/SVG/1.1/DTD/svg11.dtd">
<svg xmlns:xlink="http://www.w3.org/1999/xlink" width="397.6075pt" height="312.30825pt" viewBox="0 0 397.6075 312.30825" xmlns="http://www.w3.org/2000/svg" version="1.1">
 <metadata>
  <rdf:RDF xmlns:dc="http://purl.org/dc/elements/1.1/" xmlns:cc="http://creativecommons.org/ns#" xmlns:rdf="http://www.w3.org/1999/02/22-rdf-syntax-ns#">
   <cc:Work>
    <dc:type rdf:resource="http://purl.org/dc/dcmitype/StillImage"/>
    <dc:date>2024-03-14T13:25:35.545800</dc:date>
    <dc:format>image/svg+xml</dc:format>
    <dc:creator>
     <cc:Agent>
      <dc:title>Matplotlib v3.8.3, https://matplotlib.org/</dc:title>
     </cc:Agent>
    </dc:creator>
   </cc:Work>
  </rdf:RDF>
 </metadata>
 <defs>
  <style type="text/css">*{stroke-linejoin: round; stroke-linecap: butt}</style>
 </defs>
 <g id="figure_1">
  <g id="patch_1">
   <path d="M 0 312.30825 
L 397.6075 312.30825 
L 397.6075 0 
L 0 0 
z
" style="fill: #ffffff"/>
  </g>
  <g id="axes_1">
   <g id="patch_2">
    <path d="M 33.2875 288.430125 
L 390.4075 288.430125 
L 390.4075 22.318125 
L 33.2875 22.318125 
z
" style="fill: #ffffff"/>
   </g>
   <g id="matplotlib.axis_1">
    <g id="xtick_1">
     <g id="line2d_1">
      <defs>
       <path id="mc3c1f84161" d="M 0 0 
L 0 3.5 
" style="stroke: #000000; stroke-width: 0.8"/>
      </defs>
      <g>
       <use xlink:href="#mc3c1f84161" x="49.520227" y="288.430125" style="stroke: #000000; stroke-width: 0.8"/>
      </g>
     </g>
     <g id="text_1">
      <!-- 0 -->
      <g transform="translate(46.338977 303.028562) scale(0.1 -0.1)">
       <defs>
        <path id="DejaVuSans-30" d="M 2034 4250 
Q 1547 4250 1301 3770 
Q 1056 3291 1056 2328 
Q 1056 1369 1301 889 
Q 1547 409 2034 409 
Q 2525 409 2770 889 
Q 3016 1369 3016 2328 
Q 3016 3291 2770 3770 
Q 2525 4250 2034 4250 
z
M 2034 4750 
Q 2819 4750 3233 4129 
Q 3647 3509 3647 2328 
Q 3647 1150 3233 529 
Q 2819 -91 2034 -91 
Q 1250 -91 836 529 
Q 422 1150 422 2328 
Q 422 3509 836 4129 
Q 1250 4750 2034 4750 
z
" transform="scale(0.015625)"/>
       </defs>
       <use xlink:href="#DejaVuSans-30"/>
      </g>
     </g>
    </g>
    <g id="xtick_2">
     <g id="line2d_2">
      <g>
       <use xlink:href="#mc3c1f84161" x="93.039603" y="288.430125" style="stroke: #000000; stroke-width: 0.8"/>
      </g>
     </g>
     <g id="text_2">
      <!-- 50 -->
      <g transform="translate(86.677103 303.028562) scale(0.1 -0.1)">
       <defs>
        <path id="DejaVuSans-35" d="M 691 4666 
L 3169 4666 
L 3169 4134 
L 1269 4134 
L 1269 2991 
Q 1406 3038 1543 3061 
Q 1681 3084 1819 3084 
Q 2600 3084 3056 2656 
Q 3513 2228 3513 1497 
Q 3513 744 3044 326 
Q 2575 -91 1722 -91 
Q 1428 -91 1123 -41 
Q 819 9 494 109 
L 494 744 
Q 775 591 1075 516 
Q 1375 441 1709 441 
Q 2250 441 2565 725 
Q 2881 1009 2881 1497 
Q 2881 1984 2565 2268 
Q 2250 2553 1709 2553 
Q 1456 2553 1204 2497 
Q 953 2441 691 2322 
L 691 4666 
z
" transform="scale(0.015625)"/>
       </defs>
       <use xlink:href="#DejaVuSans-35"/>
       <use xlink:href="#DejaVuSans-30" x="63.623047"/>
      </g>
     </g>
    </g>
    <g id="xtick_3">
     <g id="line2d_3">
      <g>
       <use xlink:href="#mc3c1f84161" x="136.558979" y="288.430125" style="stroke: #000000; stroke-width: 0.8"/>
      </g>
     </g>
     <g id="text_3">
      <!-- 100 -->
      <g transform="translate(127.015229 303.028562) scale(0.1 -0.1)">
       <defs>
        <path id="DejaVuSans-31" d="M 794 531 
L 1825 531 
L 1825 4091 
L 703 3866 
L 703 4441 
L 1819 4666 
L 2450 4666 
L 2450 531 
L 3481 531 
L 3481 0 
L 794 0 
L 794 531 
z
" transform="scale(0.015625)"/>
       </defs>
       <use xlink:href="#DejaVuSans-31"/>
       <use xlink:href="#DejaVuSans-30" x="63.623047"/>
       <use xlink:href="#DejaVuSans-30" x="127.246094"/>
      </g>
     </g>
    </g>
    <g id="xtick_4">
     <g id="line2d_4">
      <g>
       <use xlink:href="#mc3c1f84161" x="180.078355" y="288.430125" style="stroke: #000000; stroke-width: 0.8"/>
      </g>
     </g>
     <g id="text_4">
      <!-- 150 -->
      <g transform="translate(170.534605 303.028562) scale(0.1 -0.1)">
       <use xlink:href="#DejaVuSans-31"/>
       <use xlink:href="#DejaVuSans-35" x="63.623047"/>
       <use xlink:href="#DejaVuSans-30" x="127.246094"/>
      </g>
     </g>
    </g>
    <g id="xtick_5">
     <g id="line2d_5">
      <g>
       <use xlink:href="#mc3c1f84161" x="223.597732" y="288.430125" style="stroke: #000000; stroke-width: 0.8"/>
      </g>
     </g>
     <g id="text_5">
      <!-- 200 -->
      <g transform="translate(214.053982 303.028562) scale(0.1 -0.1)">
       <defs>
        <path id="DejaVuSans-32" d="M 1228 531 
L 3431 531 
L 3431 0 
L 469 0 
L 469 531 
Q 828 903 1448 1529 
Q 2069 2156 2228 2338 
Q 2531 2678 2651 2914 
Q 2772 3150 2772 3378 
Q 2772 3750 2511 3984 
Q 2250 4219 1831 4219 
Q 1534 4219 1204 4116 
Q 875 4013 500 3803 
L 500 4441 
Q 881 4594 1212 4672 
Q 1544 4750 1819 4750 
Q 2544 4750 2975 4387 
Q 3406 4025 3406 3419 
Q 3406 3131 3298 2873 
Q 3191 2616 2906 2266 
Q 2828 2175 2409 1742 
Q 1991 1309 1228 531 
z
" transform="scale(0.015625)"/>
       </defs>
       <use xlink:href="#DejaVuSans-32"/>
       <use xlink:href="#DejaVuSans-30" x="63.623047"/>
       <use xlink:href="#DejaVuSans-30" x="127.246094"/>
      </g>
     </g>
    </g>
    <g id="xtick_6">
     <g id="line2d_6">
      <g>
       <use xlink:href="#mc3c1f84161" x="267.117108" y="288.430125" style="stroke: #000000; stroke-width: 0.8"/>
      </g>
     </g>
     <g id="text_6">
      <!-- 250 -->
      <g transform="translate(257.573358 303.028562) scale(0.1 -0.1)">
       <use xlink:href="#DejaVuSans-32"/>
       <use xlink:href="#DejaVuSans-35" x="63.623047"/>
       <use xlink:href="#DejaVuSans-30" x="127.246094"/>
      </g>
     </g>
    </g>
    <g id="xtick_7">
     <g id="line2d_7">
      <g>
       <use xlink:href="#mc3c1f84161" x="310.636484" y="288.430125" style="stroke: #000000; stroke-width: 0.8"/>
      </g>
     </g>
     <g id="text_7">
      <!-- 300 -->
      <g transform="translate(301.092734 303.028562) scale(0.1 -0.1)">
       <defs>
        <path id="DejaVuSans-33" d="M 2597 2516 
Q 3050 2419 3304 2112 
Q 3559 1806 3559 1356 
Q 3559 666 3084 287 
Q 2609 -91 1734 -91 
Q 1441 -91 1130 -33 
Q 819 25 488 141 
L 488 750 
Q 750 597 1062 519 
Q 1375 441 1716 441 
Q 2309 441 2620 675 
Q 2931 909 2931 1356 
Q 2931 1769 2642 2001 
Q 2353 2234 1838 2234 
L 1294 2234 
L 1294 2753 
L 1863 2753 
Q 2328 2753 2575 2939 
Q 2822 3125 2822 3475 
Q 2822 3834 2567 4026 
Q 2313 4219 1838 4219 
Q 1578 4219 1281 4162 
Q 984 4106 628 3988 
L 628 4550 
Q 988 4650 1302 4700 
Q 1616 4750 1894 4750 
Q 2613 4750 3031 4423 
Q 3450 4097 3450 3541 
Q 3450 3153 3228 2886 
Q 3006 2619 2597 2516 
z
" transform="scale(0.015625)"/>
       </defs>
       <use xlink:href="#DejaVuSans-33"/>
       <use xlink:href="#DejaVuSans-30" x="63.623047"/>
       <use xlink:href="#DejaVuSans-30" x="127.246094"/>
      </g>
     </g>
    </g>
    <g id="xtick_8">
     <g id="line2d_8">
      <g>
       <use xlink:href="#mc3c1f84161" x="354.15586" y="288.430125" style="stroke: #000000; stroke-width: 0.8"/>
      </g>
     </g>
     <g id="text_8">
      <!-- 350 -->
      <g transform="translate(344.61211 303.028562) scale(0.1 -0.1)">
       <use xlink:href="#DejaVuSans-33"/>
       <use xlink:href="#DejaVuSans-35" x="63.623047"/>
       <use xlink:href="#DejaVuSans-30" x="127.246094"/>
      </g>
     </g>
    </g>
   </g>
   <g id="matplotlib.axis_2">
    <g id="ytick_1">
     <g id="line2d_9">
      <defs>
       <path id="m29722e1a1c" d="M 0 0 
L -3.5 0 
" style="stroke: #000000; stroke-width: 0.8"/>
      </defs>
      <g>
       <use xlink:href="#m29722e1a1c" x="33.2875" y="276.452716" style="stroke: #000000; stroke-width: 0.8"/>
      </g>
     </g>
     <g id="text_9">
      <!-- 0 -->
      <g transform="translate(19.925 280.251935) scale(0.1 -0.1)">
       <use xlink:href="#DejaVuSans-30"/>
      </g>
     </g>
    </g>
    <g id="ytick_2">
     <g id="line2d_10">
      <g>
       <use xlink:href="#m29722e1a1c" x="33.2875" y="219.150924" style="stroke: #000000; stroke-width: 0.8"/>
      </g>
     </g>
     <g id="text_10">
      <!-- 50 -->
      <g transform="translate(13.5625 222.950143) scale(0.1 -0.1)">
       <use xlink:href="#DejaVuSans-35"/>
       <use xlink:href="#DejaVuSans-30" x="63.623047"/>
      </g>
     </g>
    </g>
    <g id="ytick_3">
     <g id="line2d_11">
      <g>
       <use xlink:href="#m29722e1a1c" x="33.2875" y="161.849133" style="stroke: #000000; stroke-width: 0.8"/>
      </g>
     </g>
     <g id="text_11">
      <!-- 100 -->
      <g transform="translate(7.2 165.648352) scale(0.1 -0.1)">
       <use xlink:href="#DejaVuSans-31"/>
       <use xlink:href="#DejaVuSans-30" x="63.623047"/>
       <use xlink:href="#DejaVuSans-30" x="127.246094"/>
      </g>
     </g>
    </g>
    <g id="ytick_4">
     <g id="line2d_12">
      <g>
       <use xlink:href="#m29722e1a1c" x="33.2875" y="104.547342" style="stroke: #000000; stroke-width: 0.8"/>
      </g>
     </g>
     <g id="text_12">
      <!-- 150 -->
      <g transform="translate(7.2 108.346561) scale(0.1 -0.1)">
       <use xlink:href="#DejaVuSans-31"/>
       <use xlink:href="#DejaVuSans-35" x="63.623047"/>
       <use xlink:href="#DejaVuSans-30" x="127.246094"/>
      </g>
     </g>
    </g>
    <g id="ytick_5">
     <g id="line2d_13">
      <g>
       <use xlink:href="#m29722e1a1c" x="33.2875" y="47.24555" style="stroke: #000000; stroke-width: 0.8"/>
      </g>
     </g>
     <g id="text_13">
      <!-- 200 -->
      <g transform="translate(7.2 51.044769) scale(0.1 -0.1)">
       <use xlink:href="#DejaVuSans-32"/>
       <use xlink:href="#DejaVuSans-30" x="63.623047"/>
       <use xlink:href="#DejaVuSans-30" x="127.246094"/>
      </g>
     </g>
    </g>
   </g>
   <g id="line2d_14">
    <path d="M 49.520227 265.653312 
L 50.390615 275.958821 
L 51.261002 274.024864 
L 52.13139 276.334125 
L 55.61294 276.334098 
L 56.483327 269.452232 
L 57.353715 272.408113 
L 58.224102 276.019427 
L 59.09449 276.017658 
L 59.964878 274.152763 
L 60.835265 274.243171 
L 61.705653 276.152488 
L 65.187203 276.092131 
L 66.05759 269.706141 
L 66.927978 275.297973 
L 67.798365 276.109673 
L 68.668753 276.107711 
L 69.53914 273.293917 
L 70.409528 268.458956 
L 71.279915 275.80068 
L 73.891078 275.660451 
L 74.761465 275.75091 
L 75.631853 267.905034 
L 77.372628 276.131926 
L 78.243015 276.14937 
L 79.113403 273.507935 
L 79.983791 256.965581 
L 80.854178 275.630308 
L 84.335728 275.605232 
L 85.206116 263.76078 
L 86.076503 271.987629 
L 86.946891 275.859039 
L 87.817278 275.875681 
L 89.558053 261.564993 
L 90.428441 275.635475 
L 93.039603 275.695535 
L 93.909991 275.709582 
L 94.780378 262.200827 
L 95.650766 273.302333 
L 96.521153 275.98423 
L 97.391541 276.0111 
L 98.261928 271.787953 
L 99.132316 250.491719 
L 100.002704 275.742973 
L 100.873091 275.650151 
L 103.484254 275.751005 
L 104.354641 266.263849 
L 105.225029 272.917684 
L 106.095416 276.066422 
L 106.965804 276.074657 
L 107.836191 265.66058 
L 108.706579 257.085028 
L 109.576966 274.573017 
L 113.058516 274.57084 
L 113.928904 248.372663 
L 114.799291 274.201749 
L 115.669679 276.194858 
L 116.540066 276.181942 
L 117.410454 273.257442 
L 118.280841 259.143686 
L 119.151229 270.680186 
L 121.762392 270.57972 
L 122.632779 270.62329 
L 123.503167 88.126693 
L 124.373554 264.749752 
L 125.243942 271.117031 
L 126.114329 271.110051 
L 126.984717 255.827907 
L 127.855104 264.434912 
L 128.725492 275.560306 
L 132.207042 275.595852 
L 133.077429 221.719539 
L 133.947817 273.383287 
L 134.818204 275.544339 
L 135.688592 275.524684 
L 137.429367 263.390057 
L 138.299754 275.992563 
L 141.781305 276.017073 
L 142.651692 264.433129 
L 143.52208 273.780562 
L 144.392467 275.893629 
L 145.262855 275.909127 
L 146.133242 274.028958 
L 147.00363 263.591068 
L 147.874017 275.639169 
L 149.614792 275.539672 
L 151.355567 275.593122 
L 152.225955 260.637003 
L 153.096342 258.241226 
L 153.96673 273.641816 
L 154.837117 273.681259 
L 155.707505 270.809433 
L 156.577892 262.657575 
L 157.44828 275.920072 
L 160.059442 275.850526 
L 160.92983 275.88332 
L 161.800218 266.573444 
L 162.670605 270.703824 
L 163.540993 275.985902 
L 164.41138 276.006133 
L 165.281768 272.895471 
L 166.152155 264.799934 
L 167.022543 275.679717 
L 167.89293 275.847996 
L 170.504093 275.847081 
L 171.37448 263.647171 
L 172.244868 270.750459 
L 173.115255 275.926678 
L 173.985643 275.921893 
L 174.85603 273.098028 
L 175.726418 260.309467 
L 176.596805 275.752451 
L 180.078355 275.752828 
L 180.948743 264.475361 
L 181.819131 272.954165 
L 182.689518 275.325739 
L 183.559906 275.315181 
L 184.430293 270.074138 
L 185.300681 250.341165 
L 186.171068 275.7514 
L 189.652618 275.787012 
L 190.523006 265.801322 
L 191.393393 271.835203 
L 192.263781 275.61305 
L 193.134168 275.594632 
L 194.004556 273.151748 
L 194.874943 264.360806 
L 195.745331 275.927748 
L 197.486106 275.857819 
L 198.356493 275.39391 
L 199.226881 275.74034 
L 200.097268 266.161525 
L 200.967656 273.481769 
L 201.838044 276.042192 
L 202.708431 276.057375 
L 203.578819 273.966556 
L 204.449206 267.736452 
L 205.319594 275.945147 
L 208.801144 275.948927 
L 209.671531 256.95421 
L 210.541919 252.210295 
L 211.412306 255.132752 
L 212.282694 255.092725 
L 213.153081 34.414125 
L 214.023469 261.432427 
L 214.893856 275.302344 
L 217.505019 275.244888 
L 218.375406 275.235195 
L 219.245794 262.468169 
L 220.116181 272.028906 
L 220.986569 273.952963 
L 221.856956 273.952642 
L 222.727344 263.810545 
L 223.597732 210.931758 
L 224.468119 274.875856 
L 227.949669 274.910666 
L 228.820057 265.757353 
L 229.690444 274.46964 
L 230.560832 276.116144 
L 231.431219 276.156008 
L 232.301607 269.931609 
L 233.171994 239.93503 
L 234.042382 275.56778 
L 237.523932 275.651306 
L 238.394319 261.351597 
L 239.264707 269.469508 
L 240.135094 275.756863 
L 241.005482 275.774958 
L 241.875869 271.326723 
L 242.746257 259.108299 
L 243.616645 275.304449 
L 245.35742 275.264993 
L 247.098195 275.321543 
L 247.968582 257.976078 
L 248.83897 263.919916 
L 249.709357 275.270452 
L 250.579745 275.277759 
L 251.450132 272.979022 
L 252.32052 266.565509 
L 253.190907 275.864038 
L 256.672457 275.850404 
L 257.542845 268.182519 
L 259.28362 276.115122 
L 260.154007 276.104672 
L 261.024395 273.524914 
L 261.894782 259.983341 
L 262.76517 276.031582 
L 264.505945 275.967855 
L 265.376333 274.816529 
L 266.24672 271.519724 
L 267.117108 259.388068 
L 267.987495 273.398573 
L 268.857883 276.003309 
L 269.72827 276.017721 
L 270.598658 274.109174 
L 271.469045 265.731687 
L 272.339433 275.649492 
L 275.820983 275.676274 
L 276.69137 261.486358 
L 277.561758 274.393831 
L 278.432145 276.045302 
L 279.302533 276.070489 
L 280.17292 274.066116 
L 281.043308 266.554606 
L 281.913695 275.364844 
L 285.395246 275.351467 
L 286.265633 243.000107 
L 287.136021 273.425466 
L 288.006408 276.049019 
L 288.876796 276.067934 
L 289.747183 273.094988 
L 290.617571 269.435008 
L 291.487958 276.024199 
L 294.969508 275.997493 
L 295.839896 268.70029 
L 296.710283 274.24438 
L 297.580671 275.973654 
L 298.451058 275.95603 
L 299.321446 273.882512 
L 300.191833 259.028974 
L 301.062221 275.725119 
L 301.932608 275.619741 
L 302.802996 275.69269 
L 304.543771 275.630208 
L 305.414159 260.211113 
L 306.284546 174.324827 
L 307.154934 275.953882 
L 308.025321 275.996706 
L 308.895709 259.689217 
L 309.766096 264.869783 
L 310.636484 275.607403 
L 314.118034 275.526997 
L 314.988421 262.207299 
L 315.858809 274.142302 
L 316.729196 276.019376 
L 317.599584 276.011222 
L 318.469971 272.339832 
L 319.340359 265.365681 
L 320.210746 275.359624 
L 321.951521 275.32621 
L 323.692296 275.706833 
L 324.562684 250.409817 
L 325.433072 273.458751 
L 326.303459 275.965368 
L 327.173847 275.966544 
L 328.044234 273.823777 
L 328.914622 255.84284 
L 329.785009 275.668895 
L 333.266559 275.599741 
L 334.136947 265.37195 
L 335.007334 273.280656 
L 335.877722 276.050356 
L 336.748109 276.079518 
L 337.618497 273.306323 
L 338.488884 264.067287 
L 339.359272 275.806526 
L 342.840822 275.754324 
L 343.711209 268.271208 
L 344.581597 270.731714 
L 345.451985 275.514032 
L 346.322372 275.516602 
L 347.19276 273.719791 
L 348.063147 264.805233 
L 348.933535 275.899865 
L 352.415085 275.873472 
L 353.285472 264.610733 
L 354.15586 272.243683 
L 355.026247 276.076178 
L 355.896635 276.089336 
L 356.767022 267.236117 
L 357.63741 241.200745 
L 358.507797 273.909886 
L 361.989347 273.898408 
L 362.859735 263.879203 
L 363.730122 272.121607 
L 364.60051 275.855498 
L 365.470898 275.85513 
L 366.341285 274.85744 
L 367.211673 269.189972 
L 368.08206 276.267311 
L 371.56361 276.279181 
L 372.433998 275.431927 
L 373.304385 275.623856 
L 374.174773 233.072905 
L 374.174773 233.072905 
" clip-path="url(#pe9aafcdf64)" style="fill: none; stroke: #1f77b4; stroke-width: 1.5; stroke-linecap: square"/>
   </g>
   <g id="patch_3">
    <path d="M 33.2875 288.430125 
L 33.2875 22.318125 
" style="fill: none; stroke: #000000; stroke-width: 0.8; stroke-linejoin: miter; stroke-linecap: square"/>
   </g>
   <g id="patch_4">
    <path d="M 390.4075 288.430125 
L 390.4075 22.318125 
" style="fill: none; stroke: #000000; stroke-width: 0.8; stroke-linejoin: miter; stroke-linecap: square"/>
   </g>
   <g id="patch_5">
    <path d="M 33.2875 288.430125 
L 390.4075 288.430125 
" style="fill: none; stroke: #000000; stroke-width: 0.8; stroke-linejoin: miter; stroke-linecap: square"/>
   </g>
   <g id="patch_6">
    <path d="M 33.2875 22.318125 
L 390.4075 22.318125 
" style="fill: none; stroke: #000000; stroke-width: 0.8; stroke-linejoin: miter; stroke-linecap: square"/>
   </g>
   <g id="text_14">
    <!-- Thermal Flux -->
    <g transform="translate(172.760313 16.318125) scale(0.12 -0.12)">
     <defs>
      <path id="DejaVuSans-54" d="M -19 4666 
L 3928 4666 
L 3928 4134 
L 2272 4134 
L 2272 0 
L 1638 0 
L 1638 4134 
L -19 4134 
L -19 4666 
z
" transform="scale(0.015625)"/>
      <path id="DejaVuSans-68" d="M 3513 2113 
L 3513 0 
L 2938 0 
L 2938 2094 
Q 2938 2591 2744 2837 
Q 2550 3084 2163 3084 
Q 1697 3084 1428 2787 
Q 1159 2491 1159 1978 
L 1159 0 
L 581 0 
L 581 4863 
L 1159 4863 
L 1159 2956 
Q 1366 3272 1645 3428 
Q 1925 3584 2291 3584 
Q 2894 3584 3203 3211 
Q 3513 2838 3513 2113 
z
" transform="scale(0.015625)"/>
      <path id="DejaVuSans-65" d="M 3597 1894 
L 3597 1613 
L 953 1613 
Q 991 1019 1311 708 
Q 1631 397 2203 397 
Q 2534 397 2845 478 
Q 3156 559 3463 722 
L 3463 178 
Q 3153 47 2828 -22 
Q 2503 -91 2169 -91 
Q 1331 -91 842 396 
Q 353 884 353 1716 
Q 353 2575 817 3079 
Q 1281 3584 2069 3584 
Q 2775 3584 3186 3129 
Q 3597 2675 3597 1894 
z
M 3022 2063 
Q 3016 2534 2758 2815 
Q 2500 3097 2075 3097 
Q 1594 3097 1305 2825 
Q 1016 2553 972 2059 
L 3022 2063 
z
" transform="scale(0.015625)"/>
      <path id="DejaVuSans-72" d="M 2631 2963 
Q 2534 3019 2420 3045 
Q 2306 3072 2169 3072 
Q 1681 3072 1420 2755 
Q 1159 2438 1159 1844 
L 1159 0 
L 581 0 
L 581 3500 
L 1159 3500 
L 1159 2956 
Q 1341 3275 1631 3429 
Q 1922 3584 2338 3584 
Q 2397 3584 2469 3576 
Q 2541 3569 2628 3553 
L 2631 2963 
z
" transform="scale(0.015625)"/>
      <path id="DejaVuSans-6d" d="M 3328 2828 
Q 3544 3216 3844 3400 
Q 4144 3584 4550 3584 
Q 5097 3584 5394 3201 
Q 5691 2819 5691 2113 
L 5691 0 
L 5113 0 
L 5113 2094 
Q 5113 2597 4934 2840 
Q 4756 3084 4391 3084 
Q 3944 3084 3684 2787 
Q 3425 2491 3425 1978 
L 3425 0 
L 2847 0 
L 2847 2094 
Q 2847 2600 2669 2842 
Q 2491 3084 2119 3084 
Q 1678 3084 1418 2786 
Q 1159 2488 1159 1978 
L 1159 0 
L 581 0 
L 581 3500 
L 1159 3500 
L 1159 2956 
Q 1356 3278 1631 3431 
Q 1906 3584 2284 3584 
Q 2666 3584 2933 3390 
Q 3200 3197 3328 2828 
z
" transform="scale(0.015625)"/>
      <path id="DejaVuSans-61" d="M 2194 1759 
Q 1497 1759 1228 1600 
Q 959 1441 959 1056 
Q 959 750 1161 570 
Q 1363 391 1709 391 
Q 2188 391 2477 730 
Q 2766 1069 2766 1631 
L 2766 1759 
L 2194 1759 
z
M 3341 1997 
L 3341 0 
L 2766 0 
L 2766 531 
Q 2569 213 2275 61 
Q 1981 -91 1556 -91 
Q 1019 -91 701 211 
Q 384 513 384 1019 
Q 384 1609 779 1909 
Q 1175 2209 1959 2209 
L 2766 2209 
L 2766 2266 
Q 2766 2663 2505 2880 
Q 2244 3097 1772 3097 
Q 1472 3097 1187 3025 
Q 903 2953 641 2809 
L 641 3341 
Q 956 3463 1253 3523 
Q 1550 3584 1831 3584 
Q 2591 3584 2966 3190 
Q 3341 2797 3341 1997 
z
" transform="scale(0.015625)"/>
      <path id="DejaVuSans-6c" d="M 603 4863 
L 1178 4863 
L 1178 0 
L 603 0 
L 603 4863 
z
" transform="scale(0.015625)"/>
      <path id="DejaVuSans-20" transform="scale(0.015625)"/>
      <path id="DejaVuSans-46" d="M 628 4666 
L 3309 4666 
L 3309 4134 
L 1259 4134 
L 1259 2759 
L 3109 2759 
L 3109 2228 
L 1259 2228 
L 1259 0 
L 628 0 
L 628 4666 
z
" transform="scale(0.015625)"/>
      <path id="DejaVuSans-75" d="M 544 1381 
L 544 3500 
L 1119 3500 
L 1119 1403 
Q 1119 906 1312 657 
Q 1506 409 1894 409 
Q 2359 409 2629 706 
Q 2900 1003 2900 1516 
L 2900 3500 
L 3475 3500 
L 3475 0 
L 2900 0 
L 2900 538 
Q 2691 219 2414 64 
Q 2138 -91 1772 -91 
Q 1169 -91 856 284 
Q 544 659 544 1381 
z
M 1991 3584 
L 1991 3584 
z
" transform="scale(0.015625)"/>
      <path id="DejaVuSans-78" d="M 3513 3500 
L 2247 1797 
L 3578 0 
L 2900 0 
L 1881 1375 
L 863 0 
L 184 0 
L 1544 1831 
L 300 3500 
L 978 3500 
L 1906 2253 
L 2834 3500 
L 3513 3500 
z
" transform="scale(0.015625)"/>
     </defs>
     <use xlink:href="#DejaVuSans-54"/>
     <use xlink:href="#DejaVuSans-68" x="61.083984"/>
     <use xlink:href="#DejaVuSans-65" x="124.462891"/>
     <use xlink:href="#DejaVuSans-72" x="185.986328"/>
     <use xlink:href="#DejaVuSans-6d" x="225.349609"/>
     <use xlink:href="#DejaVuSans-61" x="322.761719"/>
     <use xlink:href="#DejaVuSans-6c" x="384.041016"/>
     <use xlink:href="#DejaVuSans-20" x="411.824219"/>
     <use xlink:href="#DejaVuSans-46" x="443.611328"/>
     <use xlink:href="#DejaVuSans-6c" x="501.130859"/>
     <use xlink:href="#DejaVuSans-75" x="528.914062"/>
     <use xlink:href="#DejaVuSans-78" x="592.292969"/>
    </g>
   </g>
  </g>
 </g>
 <defs>
  <clipPath id="pe9aafcdf64">
   <rect x="33.2875" y="22.318125" width="357.12" height="266.112"/>
  </clipPath>
 </defs>
</svg>
