<?xml version="1.0" encoding="utf-8" standalone="no"?>
<!DOCTYPE svg PUBLIC "-//W3C//DTD SVG 1.1//EN"
  "http://www.w3.org/Graphics/SVG/1.1/DTD/svg11.dtd">
<svg xmlns:xlink="http://www.w3.org/1999/xlink" width="394.423125pt" height="312.30825pt" viewBox="0 0 394.423125 312.30825" xmlns="http://www.w3.org/2000/svg" version="1.1">
 <metadata>
  <rdf:RDF xmlns:dc="http://purl.org/dc/elements/1.1/" xmlns:cc="http://creativecommons.org/ns#" xmlns:rdf="http://www.w3.org/1999/02/22-rdf-syntax-ns#">
   <cc:Work>
    <dc:type rdf:resource="http://purl.org/dc/dcmitype/StillImage"/>
    <dc:date>2024-03-15T10:05:35.531828</dc:date>
    <dc:format>image/svg+xml</dc:format>
    <dc:creator>
     <cc:Agent>
      <dc:title>Matplotlib v3.8.3, https://matplotlib.org/</dc:title>
     </cc:Agent>
    </dc:creator>
   </cc:Work>
  </rdf:RDF>
 </metadata>
 <defs>
  <style type="text/css">*{stroke-linejoin: round; stroke-linecap: butt}</style>
 </defs>
 <g id="figure_1">
  <g id="patch_1">
   <path d="M 0 312.30825 
L 394.423125 312.30825 
L 394.423125 0 
L 0 0 
z
" style="fill: #ffffff"/>
  </g>
  <g id="axes_1">
   <g id="patch_2">
    <path d="M 30.103125 288.430125 
L 387.223125 288.430125 
L 387.223125 22.318125 
L 30.103125 22.318125 
z
" style="fill: #ffffff"/>
   </g>
   <g id="matplotlib.axis_1">
    <g id="xtick_1">
     <g id="line2d_1">
      <defs>
       <path id="m5db31b3b83" d="M 0 0 
L 0 3.5 
" style="stroke: #000000; stroke-width: 0.8"/>
      </defs>
      <g>
       <use xlink:href="#m5db31b3b83" x="46.335852" y="288.430125" style="stroke: #000000; stroke-width: 0.8"/>
      </g>
     </g>
     <g id="text_1">
      <!-- 0 -->
      <g transform="translate(43.154602 303.028562) scale(0.1 -0.1)">
       <defs>
        <path id="DejaVuSans-30" d="M 2034 4250 
Q 1547 4250 1301 3770 
Q 1056 3291 1056 2328 
Q 1056 1369 1301 889 
Q 1547 409 2034 409 
Q 2525 409 2770 889 
Q 3016 1369 3016 2328 
Q 3016 3291 2770 3770 
Q 2525 4250 2034 4250 
z
M 2034 4750 
Q 2819 4750 3233 4129 
Q 3647 3509 3647 2328 
Q 3647 1150 3233 529 
Q 2819 -91 2034 -91 
Q 1250 -91 836 529 
Q 422 1150 422 2328 
Q 422 3509 836 4129 
Q 1250 4750 2034 4750 
z
" transform="scale(0.015625)"/>
       </defs>
       <use xlink:href="#DejaVuSans-30"/>
      </g>
     </g>
    </g>
    <g id="xtick_2">
     <g id="line2d_2">
      <g>
       <use xlink:href="#m5db31b3b83" x="89.855228" y="288.430125" style="stroke: #000000; stroke-width: 0.8"/>
      </g>
     </g>
     <g id="text_2">
      <!-- 50 -->
      <g transform="translate(83.492728 303.028562) scale(0.1 -0.1)">
       <defs>
        <path id="DejaVuSans-35" d="M 691 4666 
L 3169 4666 
L 3169 4134 
L 1269 4134 
L 1269 2991 
Q 1406 3038 1543 3061 
Q 1681 3084 1819 3084 
Q 2600 3084 3056 2656 
Q 3513 2228 3513 1497 
Q 3513 744 3044 326 
Q 2575 -91 1722 -91 
Q 1428 -91 1123 -41 
Q 819 9 494 109 
L 494 744 
Q 775 591 1075 516 
Q 1375 441 1709 441 
Q 2250 441 2565 725 
Q 2881 1009 2881 1497 
Q 2881 1984 2565 2268 
Q 2250 2553 1709 2553 
Q 1456 2553 1204 2497 
Q 953 2441 691 2322 
L 691 4666 
z
" transform="scale(0.015625)"/>
       </defs>
       <use xlink:href="#DejaVuSans-35"/>
       <use xlink:href="#DejaVuSans-30" x="63.623047"/>
      </g>
     </g>
    </g>
    <g id="xtick_3">
     <g id="line2d_3">
      <g>
       <use xlink:href="#m5db31b3b83" x="133.374604" y="288.430125" style="stroke: #000000; stroke-width: 0.8"/>
      </g>
     </g>
     <g id="text_3">
      <!-- 100 -->
      <g transform="translate(123.830854 303.028562) scale(0.1 -0.1)">
       <defs>
        <path id="DejaVuSans-31" d="M 794 531 
L 1825 531 
L 1825 4091 
L 703 3866 
L 703 4441 
L 1819 4666 
L 2450 4666 
L 2450 531 
L 3481 531 
L 3481 0 
L 794 0 
L 794 531 
z
" transform="scale(0.015625)"/>
       </defs>
       <use xlink:href="#DejaVuSans-31"/>
       <use xlink:href="#DejaVuSans-30" x="63.623047"/>
       <use xlink:href="#DejaVuSans-30" x="127.246094"/>
      </g>
     </g>
    </g>
    <g id="xtick_4">
     <g id="line2d_4">
      <g>
       <use xlink:href="#m5db31b3b83" x="176.89398" y="288.430125" style="stroke: #000000; stroke-width: 0.8"/>
      </g>
     </g>
     <g id="text_4">
      <!-- 150 -->
      <g transform="translate(167.35023 303.028562) scale(0.1 -0.1)">
       <use xlink:href="#DejaVuSans-31"/>
       <use xlink:href="#DejaVuSans-35" x="63.623047"/>
       <use xlink:href="#DejaVuSans-30" x="127.246094"/>
      </g>
     </g>
    </g>
    <g id="xtick_5">
     <g id="line2d_5">
      <g>
       <use xlink:href="#m5db31b3b83" x="220.413357" y="288.430125" style="stroke: #000000; stroke-width: 0.8"/>
      </g>
     </g>
     <g id="text_5">
      <!-- 200 -->
      <g transform="translate(210.869607 303.028562) scale(0.1 -0.1)">
       <defs>
        <path id="DejaVuSans-32" d="M 1228 531 
L 3431 531 
L 3431 0 
L 469 0 
L 469 531 
Q 828 903 1448 1529 
Q 2069 2156 2228 2338 
Q 2531 2678 2651 2914 
Q 2772 3150 2772 3378 
Q 2772 3750 2511 3984 
Q 2250 4219 1831 4219 
Q 1534 4219 1204 4116 
Q 875 4013 500 3803 
L 500 4441 
Q 881 4594 1212 4672 
Q 1544 4750 1819 4750 
Q 2544 4750 2975 4387 
Q 3406 4025 3406 3419 
Q 3406 3131 3298 2873 
Q 3191 2616 2906 2266 
Q 2828 2175 2409 1742 
Q 1991 1309 1228 531 
z
" transform="scale(0.015625)"/>
       </defs>
       <use xlink:href="#DejaVuSans-32"/>
       <use xlink:href="#DejaVuSans-30" x="63.623047"/>
       <use xlink:href="#DejaVuSans-30" x="127.246094"/>
      </g>
     </g>
    </g>
    <g id="xtick_6">
     <g id="line2d_6">
      <g>
       <use xlink:href="#m5db31b3b83" x="263.932733" y="288.430125" style="stroke: #000000; stroke-width: 0.8"/>
      </g>
     </g>
     <g id="text_6">
      <!-- 250 -->
      <g transform="translate(254.388983 303.028562) scale(0.1 -0.1)">
       <use xlink:href="#DejaVuSans-32"/>
       <use xlink:href="#DejaVuSans-35" x="63.623047"/>
       <use xlink:href="#DejaVuSans-30" x="127.246094"/>
      </g>
     </g>
    </g>
    <g id="xtick_7">
     <g id="line2d_7">
      <g>
       <use xlink:href="#m5db31b3b83" x="307.452109" y="288.430125" style="stroke: #000000; stroke-width: 0.8"/>
      </g>
     </g>
     <g id="text_7">
      <!-- 300 -->
      <g transform="translate(297.908359 303.028562) scale(0.1 -0.1)">
       <defs>
        <path id="DejaVuSans-33" d="M 2597 2516 
Q 3050 2419 3304 2112 
Q 3559 1806 3559 1356 
Q 3559 666 3084 287 
Q 2609 -91 1734 -91 
Q 1441 -91 1130 -33 
Q 819 25 488 141 
L 488 750 
Q 750 597 1062 519 
Q 1375 441 1716 441 
Q 2309 441 2620 675 
Q 2931 909 2931 1356 
Q 2931 1769 2642 2001 
Q 2353 2234 1838 2234 
L 1294 2234 
L 1294 2753 
L 1863 2753 
Q 2328 2753 2575 2939 
Q 2822 3125 2822 3475 
Q 2822 3834 2567 4026 
Q 2313 4219 1838 4219 
Q 1578 4219 1281 4162 
Q 984 4106 628 3988 
L 628 4550 
Q 988 4650 1302 4700 
Q 1616 4750 1894 4750 
Q 2613 4750 3031 4423 
Q 3450 4097 3450 3541 
Q 3450 3153 3228 2886 
Q 3006 2619 2597 2516 
z
" transform="scale(0.015625)"/>
       </defs>
       <use xlink:href="#DejaVuSans-33"/>
       <use xlink:href="#DejaVuSans-30" x="63.623047"/>
       <use xlink:href="#DejaVuSans-30" x="127.246094"/>
      </g>
     </g>
    </g>
    <g id="xtick_8">
     <g id="line2d_8">
      <g>
       <use xlink:href="#m5db31b3b83" x="350.971485" y="288.430125" style="stroke: #000000; stroke-width: 0.8"/>
      </g>
     </g>
     <g id="text_8">
      <!-- 350 -->
      <g transform="translate(341.427735 303.028562) scale(0.1 -0.1)">
       <use xlink:href="#DejaVuSans-33"/>
       <use xlink:href="#DejaVuSans-35" x="63.623047"/>
       <use xlink:href="#DejaVuSans-30" x="127.246094"/>
      </g>
     </g>
    </g>
   </g>
   <g id="matplotlib.axis_2">
    <g id="ytick_1">
     <g id="line2d_9">
      <defs>
       <path id="m6a79087764" d="M 0 0 
L -3.5 0 
" style="stroke: #000000; stroke-width: 0.8"/>
      </defs>
      <g>
       <use xlink:href="#m6a79087764" x="30.103125" y="276.334125" style="stroke: #000000; stroke-width: 0.8"/>
      </g>
     </g>
     <g id="text_9">
      <!-- 0.0 -->
      <g transform="translate(7.2 280.133344) scale(0.1 -0.1)">
       <defs>
        <path id="DejaVuSans-2e" d="M 684 794 
L 1344 794 
L 1344 0 
L 684 0 
L 684 794 
z
" transform="scale(0.015625)"/>
       </defs>
       <use xlink:href="#DejaVuSans-30"/>
       <use xlink:href="#DejaVuSans-2e" x="63.623047"/>
       <use xlink:href="#DejaVuSans-30" x="95.410156"/>
      </g>
     </g>
    </g>
    <g id="ytick_2">
     <g id="line2d_10">
      <g>
       <use xlink:href="#m6a79087764" x="30.103125" y="233.38948" style="stroke: #000000; stroke-width: 0.8"/>
      </g>
     </g>
     <g id="text_10">
      <!-- 0.5 -->
      <g transform="translate(7.2 237.188698) scale(0.1 -0.1)">
       <use xlink:href="#DejaVuSans-30"/>
       <use xlink:href="#DejaVuSans-2e" x="63.623047"/>
       <use xlink:href="#DejaVuSans-35" x="95.410156"/>
      </g>
     </g>
    </g>
    <g id="ytick_3">
     <g id="line2d_11">
      <g>
       <use xlink:href="#m6a79087764" x="30.103125" y="190.444834" style="stroke: #000000; stroke-width: 0.8"/>
      </g>
     </g>
     <g id="text_11">
      <!-- 1.0 -->
      <g transform="translate(7.2 194.244053) scale(0.1 -0.1)">
       <use xlink:href="#DejaVuSans-31"/>
       <use xlink:href="#DejaVuSans-2e" x="63.623047"/>
       <use xlink:href="#DejaVuSans-30" x="95.410156"/>
      </g>
     </g>
    </g>
    <g id="ytick_4">
     <g id="line2d_12">
      <g>
       <use xlink:href="#m6a79087764" x="30.103125" y="147.500189" style="stroke: #000000; stroke-width: 0.8"/>
      </g>
     </g>
     <g id="text_12">
      <!-- 1.5 -->
      <g transform="translate(7.2 151.299408) scale(0.1 -0.1)">
       <use xlink:href="#DejaVuSans-31"/>
       <use xlink:href="#DejaVuSans-2e" x="63.623047"/>
       <use xlink:href="#DejaVuSans-35" x="95.410156"/>
      </g>
     </g>
    </g>
    <g id="ytick_5">
     <g id="line2d_13">
      <g>
       <use xlink:href="#m6a79087764" x="30.103125" y="104.555543" style="stroke: #000000; stroke-width: 0.8"/>
      </g>
     </g>
     <g id="text_13">
      <!-- 2.0 -->
      <g transform="translate(7.2 108.354762) scale(0.1 -0.1)">
       <use xlink:href="#DejaVuSans-32"/>
       <use xlink:href="#DejaVuSans-2e" x="63.623047"/>
       <use xlink:href="#DejaVuSans-30" x="95.410156"/>
      </g>
     </g>
    </g>
    <g id="ytick_6">
     <g id="line2d_14">
      <g>
       <use xlink:href="#m6a79087764" x="30.103125" y="61.610898" style="stroke: #000000; stroke-width: 0.8"/>
      </g>
     </g>
     <g id="text_14">
      <!-- 2.5 -->
      <g transform="translate(7.2 65.410117) scale(0.1 -0.1)">
       <use xlink:href="#DejaVuSans-32"/>
       <use xlink:href="#DejaVuSans-2e" x="63.623047"/>
       <use xlink:href="#DejaVuSans-35" x="95.410156"/>
      </g>
     </g>
    </g>
   </g>
   <g id="line2d_15">
    <path d="M 46.335852 276.334125 
L 53.298952 276.334125 
L 54.16934 255.64298 
L 55.039727 241.524562 
L 55.910115 236.338287 
L 56.780503 252.914708 
L 57.65089 131.591717 
L 58.521278 89.160325 
L 59.391665 82.25004 
L 60.262053 82.256729 
L 61.13244 95.695754 
L 62.002828 115.419201 
L 62.873215 175.485199 
L 63.743603 262.574017 
L 64.61399 251.752101 
L 65.484378 250.298706 
L 66.354765 251.73103 
L 67.225153 129.26456 
L 68.09554 113.379681 
L 68.965928 81.113131 
L 69.836315 104.851043 
L 70.706703 100.383902 
L 71.57709 116.085166 
L 72.447478 150.471494 
L 73.317865 260.283793 
L 74.188253 246.864553 
L 75.05864 224.697687 
L 75.929028 237.901948 
L 76.799416 128.57807 
L 77.669803 86.681834 
L 78.540191 93.268159 
L 79.410578 111.57815 
L 80.280966 123.640619 
L 81.151353 115.567548 
L 82.021741 163.301236 
L 82.892128 259.150131 
L 84.632903 235.911729 
L 85.503291 248.455823 
L 86.373678 117.066093 
L 87.244066 83.628403 
L 88.114453 77.318734 
L 88.984841 64.998063 
L 89.855228 100.752575 
L 90.725616 115.811363 
L 91.596003 165.659364 
L 92.466391 254.136112 
L 93.336778 245.672883 
L 94.207166 241.815901 
L 95.077553 253.083938 
L 95.947941 100.008085 
L 97.688716 47.055169 
L 98.559104 57.288526 
L 99.429491 49.200136 
L 100.299879 103.783927 
L 101.170266 146.588331 
L 102.040654 266.982859 
L 102.911041 251.783515 
L 103.781429 241.340367 
L 104.651816 245.411603 
L 105.522204 136.054849 
L 106.392591 72.832528 
L 107.262979 53.47489 
L 108.133366 81.953263 
L 109.003754 60.909678 
L 109.874141 103.302486 
L 110.744529 158.875712 
L 111.614916 257.506142 
L 112.485304 244.125234 
L 113.355691 235.785634 
L 114.226079 243.160511 
L 115.096466 119.934676 
L 115.966854 81.520926 
L 116.837242 61.574986 
L 117.707629 79.893178 
L 118.578017 76.242645 
L 119.448404 96.387526 
L 120.318792 137.242464 
L 121.189179 262.265526 
L 122.059567 255.183664 
L 122.929954 245.667053 
L 123.800342 252.560729 
L 124.670729 123.864742 
L 125.541117 82.244409 
L 126.411504 34.414125 
L 127.281892 51.35712 
L 128.152279 50.144641 
L 129.022667 95.916558 
L 129.893054 156.673461 
L 130.763442 255.235181 
L 131.633829 243.331694 
L 132.504217 241.61604 
L 133.374604 242.450484 
L 134.244992 126.706884 
L 135.115379 90.078942 
L 135.985767 86.951801 
L 136.856154 91.048395 
L 137.726542 97.265773 
L 138.59693 122.443498 
L 139.467317 168.12146 
L 140.337705 261.653638 
L 141.208092 248.243661 
L 142.07848 245.320366 
L 142.948867 247.017341 
L 143.819255 115.925249 
L 144.689642 71.67703 
L 145.56003 42.563488 
L 147.300805 84.585268 
L 148.171192 105.390433 
L 149.04158 158.428313 
L 149.911967 263.640356 
L 150.782355 255.656063 
L 151.652742 245.689495 
L 152.52313 246.926964 
L 153.393517 135.678112 
L 154.263905 92.464675 
L 155.134292 71.692845 
L 156.00468 55.344765 
L 156.875067 96.545046 
L 157.745455 104.188204 
L 158.615843 164.904839 
L 159.48623 261.759083 
L 160.356618 248.365406 
L 161.227005 238.026888 
L 162.097393 240.589229 
L 162.96778 127.154078 
L 163.838168 84.887095 
L 164.708555 91.576441 
L 165.578943 76.406301 
L 166.44933 95.610793 
L 167.319718 106.084312 
L 168.190105 158.837434 
L 169.060493 254.622944 
L 169.93088 237.293493 
L 170.801268 230.322162 
L 171.671655 244.206377 
L 172.542043 124.949909 
L 173.41243 77.805528 
L 174.282818 67.0252 
L 175.153205 82.71715 
L 176.023593 81.967897 
L 176.89398 109.33576 
L 177.764368 144.55301 
L 178.634756 259.563388 
L 179.505143 236.804132 
L 180.375531 229.460148 
L 181.245918 237.67491 
L 182.116306 111.843866 
L 182.986693 47.612555 
L 183.857081 53.840681 
L 184.727468 71.223148 
L 185.597856 71.699586 
L 186.468243 107.832385 
L 187.338631 162.438386 
L 188.209018 262.291035 
L 189.079406 251.24935 
L 189.949793 243.350626 
L 190.820181 247.637149 
L 191.690568 121.096564 
L 192.560956 66.797706 
L 193.431343 54.318184 
L 194.301731 75.563772 
L 195.172118 87.089403 
L 196.042506 120.524063 
L 196.912893 165.919559 
L 197.783281 256.712198 
L 199.524056 223.196914 
L 200.394444 233.601062 
L 201.264831 142.802332 
L 202.135219 104.773096 
L 203.005606 84.839106 
L 203.875994 70.860037 
L 204.746381 101.11449 
L 205.616769 115.307004 
L 206.487156 172.15816 
L 207.357544 257.538742 
L 208.227931 241.575712 
L 209.098319 240.847543 
L 209.968706 241.159004 
L 210.839094 115.612484 
L 211.709481 78.335215 
L 212.579869 64.712163 
L 213.450256 84.658242 
L 214.320644 86.698216 
L 215.191031 101.779963 
L 216.061419 156.908308 
L 216.931806 256.843847 
L 217.802194 242.09757 
L 218.672581 242.67805 
L 219.542969 247.481096 
L 220.413357 97.846169 
L 221.283744 54.536413 
L 222.154132 64.146091 
L 223.024519 55.610807 
L 223.894907 73.840197 
L 224.765294 106.720155 
L 225.635682 145.609183 
L 226.506069 257.309701 
L 227.376457 247.112608 
L 228.246844 234.625686 
L 229.117232 240.045323 
L 229.987619 138.519108 
L 230.858007 77.123124 
L 231.728394 83.933647 
L 232.598782 83.911567 
L 233.469169 84.382354 
L 234.339557 123.063929 
L 235.209944 151.997437 
L 236.080332 256.186517 
L 236.950719 236.640704 
L 237.821107 240.085178 
L 238.691494 251.727223 
L 239.561882 135.217232 
L 240.43227 90.107628 
L 241.302657 82.311282 
L 242.173045 72.593528 
L 243.043432 74.557754 
L 243.91382 101.25852 
L 244.784207 157.486524 
L 245.654595 261.180422 
L 247.39537 236.929336 
L 248.265757 247.782355 
L 249.136145 115.542994 
L 250.006532 75.955996 
L 251.747307 63.837233 
L 252.617695 68.328334 
L 253.488082 103.830048 
L 254.35847 147.194557 
L 255.228857 257.816736 
L 256.099245 240.736913 
L 256.969632 233.672242 
L 257.84002 241.839037 
L 258.710407 118.907454 
L 259.580795 90.279542 
L 260.451183 70.291713 
L 261.32157 55.696039 
L 262.191958 47.422833 
L 263.062345 82.190638 
L 263.932733 147.815288 
L 264.80312 258.681069 
L 265.673508 245.951023 
L 266.543895 235.608221 
L 267.414283 242.278382 
L 268.28467 140.664894 
L 269.155058 104.487552 
L 270.025445 94.36554 
L 270.895833 80.639879 
L 271.76622 108.325068 
L 272.636608 110.808645 
L 273.506995 154.29801 
L 274.377383 259.654835 
L 275.24777 240.32131 
L 276.118158 232.837964 
L 276.988545 242.421865 
L 277.858933 104.104194 
L 278.72932 65.949896 
L 279.599708 42.988044 
L 280.470096 62.402419 
L 281.340483 72.725166 
L 282.210871 102.603364 
L 283.081258 160.296121 
L 283.951646 257.966972 
L 284.822033 242.631197 
L 285.692421 243.099275 
L 286.562808 246.492782 
L 287.433196 139.795684 
L 288.303583 89.409895 
L 289.173971 58.068266 
L 290.044358 57.749334 
L 290.914746 99.198029 
L 291.785133 127.687711 
L 292.655521 149.713473 
L 293.525908 259.970375 
L 294.396296 241.350245 
L 295.266683 237.552863 
L 296.137071 252.19636 
L 297.007458 121.975935 
L 297.877846 65.432516 
L 298.748233 46.270493 
L 299.618621 70.71226 
L 300.489008 90.415613 
L 301.359396 118.400167 
L 302.229784 154.895001 
L 303.100171 261.854033 
L 303.970559 244.027496 
L 304.840946 234.248741 
L 305.711334 247.245636 
L 306.581721 111.437136 
L 307.452109 59.284851 
L 308.322496 57.240244 
L 309.192884 43.933405 
L 310.063271 54.863738 
L 310.933659 82.077953 
L 311.804046 148.20024 
L 312.674434 258.820772 
L 313.544821 239.893441 
L 314.415209 234.527268 
L 315.285596 239.824176 
L 316.155984 124.517974 
L 317.026371 96.191252 
L 317.896759 76.454562 
L 318.767146 34.456532 
L 319.637534 61.649385 
L 320.507921 101.541147 
L 321.378309 131.661742 
L 322.248697 258.922092 
L 323.119084 251.022311 
L 323.989472 245.014006 
L 324.859859 250.90338 
L 325.730247 141.394384 
L 326.600634 86.271052 
L 327.471022 49.193524 
L 328.341409 54.054815 
L 329.211797 81.849797 
L 330.082184 93.54915 
L 330.952572 159.966079 
L 331.822959 257.775891 
L 332.693347 244.980925 
L 333.563734 239.460443 
L 334.434122 238.164296 
L 335.304509 139.111129 
L 336.174897 92.8324 
L 337.045284 75.891121 
L 337.915672 56.182787 
L 338.786059 83.709407 
L 339.656447 94.605414 
L 340.526834 149.426249 
L 341.397222 251.284544 
L 342.26761 239.671114 
L 343.137997 225.889823 
L 344.008385 233.566768 
L 344.878772 126.860803 
L 345.74916 58.69547 
L 346.619547 58.975982 
L 348.360322 73.638236 
L 349.23071 95.443539 
L 350.101097 142.454989 
L 350.971485 254.910376 
L 351.841872 246.080752 
L 352.71226 239.849096 
L 353.582647 246.820389 
L 354.453035 107.532214 
L 355.323422 68.426153 
L 356.19381 62.126319 
L 357.064197 80.22561 
L 357.934585 78.752633 
L 358.804972 97.271141 
L 359.67536 135.901727 
L 360.545747 257.513348 
L 361.416135 240.09526 
L 362.286523 239.323344 
L 363.15691 236.098027 
L 364.027298 125.321406 
L 364.897685 84.779624 
L 366.63846 65.840335 
L 367.508848 78.586141 
L 368.379235 106.351497 
L 369.249623 159.429313 
L 370.12001 276.334125 
L 370.990398 276.334125 
L 370.990398 276.334125 
" clip-path="url(#pa1caeeb876)" style="fill: none; stroke: #1f77b4; stroke-width: 1.5; stroke-linecap: square"/>
   </g>
   <g id="patch_3">
    <path d="M 30.103125 288.430125 
L 30.103125 22.318125 
" style="fill: none; stroke: #000000; stroke-width: 0.8; stroke-linejoin: miter; stroke-linecap: square"/>
   </g>
   <g id="patch_4">
    <path d="M 387.223125 288.430125 
L 387.223125 22.318125 
" style="fill: none; stroke: #000000; stroke-width: 0.8; stroke-linejoin: miter; stroke-linecap: square"/>
   </g>
   <g id="patch_5">
    <path d="M 30.103125 288.430125 
L 387.223125 288.430125 
" style="fill: none; stroke: #000000; stroke-width: 0.8; stroke-linejoin: miter; stroke-linecap: square"/>
   </g>
   <g id="patch_6">
    <path d="M 30.103125 22.318125 
L 387.223125 22.318125 
" style="fill: none; stroke: #000000; stroke-width: 0.8; stroke-linejoin: miter; stroke-linecap: square"/>
   </g>
   <g id="text_15">
    <!-- Thermal Flux -->
    <g transform="translate(169.575938 16.318125) scale(0.12 -0.12)">
     <defs>
      <path id="DejaVuSans-54" d="M -19 4666 
L 3928 4666 
L 3928 4134 
L 2272 4134 
L 2272 0 
L 1638 0 
L 1638 4134 
L -19 4134 
L -19 4666 
z
" transform="scale(0.015625)"/>
      <path id="DejaVuSans-68" d="M 3513 2113 
L 3513 0 
L 2938 0 
L 2938 2094 
Q 2938 2591 2744 2837 
Q 2550 3084 2163 3084 
Q 1697 3084 1428 2787 
Q 1159 2491 1159 1978 
L 1159 0 
L 581 0 
L 581 4863 
L 1159 4863 
L 1159 2956 
Q 1366 3272 1645 3428 
Q 1925 3584 2291 3584 
Q 2894 3584 3203 3211 
Q 3513 2838 3513 2113 
z
" transform="scale(0.015625)"/>
      <path id="DejaVuSans-65" d="M 3597 1894 
L 3597 1613 
L 953 1613 
Q 991 1019 1311 708 
Q 1631 397 2203 397 
Q 2534 397 2845 478 
Q 3156 559 3463 722 
L 3463 178 
Q 3153 47 2828 -22 
Q 2503 -91 2169 -91 
Q 1331 -91 842 396 
Q 353 884 353 1716 
Q 353 2575 817 3079 
Q 1281 3584 2069 3584 
Q 2775 3584 3186 3129 
Q 3597 2675 3597 1894 
z
M 3022 2063 
Q 3016 2534 2758 2815 
Q 2500 3097 2075 3097 
Q 1594 3097 1305 2825 
Q 1016 2553 972 2059 
L 3022 2063 
z
" transform="scale(0.015625)"/>
      <path id="DejaVuSans-72" d="M 2631 2963 
Q 2534 3019 2420 3045 
Q 2306 3072 2169 3072 
Q 1681 3072 1420 2755 
Q 1159 2438 1159 1844 
L 1159 0 
L 581 0 
L 581 3500 
L 1159 3500 
L 1159 2956 
Q 1341 3275 1631 3429 
Q 1922 3584 2338 3584 
Q 2397 3584 2469 3576 
Q 2541 3569 2628 3553 
L 2631 2963 
z
" transform="scale(0.015625)"/>
      <path id="DejaVuSans-6d" d="M 3328 2828 
Q 3544 3216 3844 3400 
Q 4144 3584 4550 3584 
Q 5097 3584 5394 3201 
Q 5691 2819 5691 2113 
L 5691 0 
L 5113 0 
L 5113 2094 
Q 5113 2597 4934 2840 
Q 4756 3084 4391 3084 
Q 3944 3084 3684 2787 
Q 3425 2491 3425 1978 
L 3425 0 
L 2847 0 
L 2847 2094 
Q 2847 2600 2669 2842 
Q 2491 3084 2119 3084 
Q 1678 3084 1418 2786 
Q 1159 2488 1159 1978 
L 1159 0 
L 581 0 
L 581 3500 
L 1159 3500 
L 1159 2956 
Q 1356 3278 1631 3431 
Q 1906 3584 2284 3584 
Q 2666 3584 2933 3390 
Q 3200 3197 3328 2828 
z
" transform="scale(0.015625)"/>
      <path id="DejaVuSans-61" d="M 2194 1759 
Q 1497 1759 1228 1600 
Q 959 1441 959 1056 
Q 959 750 1161 570 
Q 1363 391 1709 391 
Q 2188 391 2477 730 
Q 2766 1069 2766 1631 
L 2766 1759 
L 2194 1759 
z
M 3341 1997 
L 3341 0 
L 2766 0 
L 2766 531 
Q 2569 213 2275 61 
Q 1981 -91 1556 -91 
Q 1019 -91 701 211 
Q 384 513 384 1019 
Q 384 1609 779 1909 
Q 1175 2209 1959 2209 
L 2766 2209 
L 2766 2266 
Q 2766 2663 2505 2880 
Q 2244 3097 1772 3097 
Q 1472 3097 1187 3025 
Q 903 2953 641 2809 
L 641 3341 
Q 956 3463 1253 3523 
Q 1550 3584 1831 3584 
Q 2591 3584 2966 3190 
Q 3341 2797 3341 1997 
z
" transform="scale(0.015625)"/>
      <path id="DejaVuSans-6c" d="M 603 4863 
L 1178 4863 
L 1178 0 
L 603 0 
L 603 4863 
z
" transform="scale(0.015625)"/>
      <path id="DejaVuSans-20" transform="scale(0.015625)"/>
      <path id="DejaVuSans-46" d="M 628 4666 
L 3309 4666 
L 3309 4134 
L 1259 4134 
L 1259 2759 
L 3109 2759 
L 3109 2228 
L 1259 2228 
L 1259 0 
L 628 0 
L 628 4666 
z
" transform="scale(0.015625)"/>
      <path id="DejaVuSans-75" d="M 544 1381 
L 544 3500 
L 1119 3500 
L 1119 1403 
Q 1119 906 1312 657 
Q 1506 409 1894 409 
Q 2359 409 2629 706 
Q 2900 1003 2900 1516 
L 2900 3500 
L 3475 3500 
L 3475 0 
L 2900 0 
L 2900 538 
Q 2691 219 2414 64 
Q 2138 -91 1772 -91 
Q 1169 -91 856 284 
Q 544 659 544 1381 
z
M 1991 3584 
L 1991 3584 
z
" transform="scale(0.015625)"/>
      <path id="DejaVuSans-78" d="M 3513 3500 
L 2247 1797 
L 3578 0 
L 2900 0 
L 1881 1375 
L 863 0 
L 184 0 
L 1544 1831 
L 300 3500 
L 978 3500 
L 1906 2253 
L 2834 3500 
L 3513 3500 
z
" transform="scale(0.015625)"/>
     </defs>
     <use xlink:href="#DejaVuSans-54"/>
     <use xlink:href="#DejaVuSans-68" x="61.083984"/>
     <use xlink:href="#DejaVuSans-65" x="124.462891"/>
     <use xlink:href="#DejaVuSans-72" x="185.986328"/>
     <use xlink:href="#DejaVuSans-6d" x="225.349609"/>
     <use xlink:href="#DejaVuSans-61" x="322.761719"/>
     <use xlink:href="#DejaVuSans-6c" x="384.041016"/>
     <use xlink:href="#DejaVuSans-20" x="411.824219"/>
     <use xlink:href="#DejaVuSans-46" x="443.611328"/>
     <use xlink:href="#DejaVuSans-6c" x="501.130859"/>
     <use xlink:href="#DejaVuSans-75" x="528.914062"/>
     <use xlink:href="#DejaVuSans-78" x="592.292969"/>
    </g>
   </g>
  </g>
 </g>
 <defs>
  <clipPath id="pa1caeeb876">
   <rect x="30.103125" y="22.318125" width="357.12" height="266.112"/>
  </clipPath>
 </defs>
</svg>
