<?xml version="1.0" encoding="utf-8" standalone="no"?>
<!DOCTYPE svg PUBLIC "-//W3C//DTD SVG 1.1//EN"
  "http://www.w3.org/Graphics/SVG/1.1/DTD/svg11.dtd">
<svg xmlns:xlink="http://www.w3.org/1999/xlink" width="400.785625pt" height="312.30825pt" viewBox="0 0 400.785625 312.30825" xmlns="http://www.w3.org/2000/svg" version="1.1">
 <metadata>
  <rdf:RDF xmlns:dc="http://purl.org/dc/elements/1.1/" xmlns:cc="http://creativecommons.org/ns#" xmlns:rdf="http://www.w3.org/1999/02/22-rdf-syntax-ns#">
   <cc:Work>
    <dc:type rdf:resource="http://purl.org/dc/dcmitype/StillImage"/>
    <dc:date>2024-03-17T16:08:47.665068</dc:date>
    <dc:format>image/svg+xml</dc:format>
    <dc:creator>
     <cc:Agent>
      <dc:title>Matplotlib v3.8.3, https://matplotlib.org/</dc:title>
     </cc:Agent>
    </dc:creator>
   </cc:Work>
  </rdf:RDF>
 </metadata>
 <defs>
  <style type="text/css">*{stroke-linejoin: round; stroke-linecap: butt}</style>
 </defs>
 <g id="figure_1">
  <g id="patch_1">
   <path d="M 0 312.30825 
L 400.785625 312.30825 
L 400.785625 0 
L 0 0 
z
" style="fill: #ffffff"/>
  </g>
  <g id="axes_1">
   <g id="patch_2">
    <path d="M 36.465625 288.430125 
L 393.585625 288.430125 
L 393.585625 22.318125 
L 36.465625 22.318125 
z
" style="fill: #ffffff"/>
   </g>
   <g id="matplotlib.axis_1">
    <g id="xtick_1">
     <g id="line2d_1">
      <defs>
       <path id="m02620e5d59" d="M 0 0 
L 0 3.5 
" style="stroke: #000000; stroke-width: 0.8"/>
      </defs>
      <g>
       <use xlink:href="#m02620e5d59" x="36.465625" y="288.430125" style="stroke: #000000; stroke-width: 0.8"/>
      </g>
     </g>
     <g id="text_1">
      <!-- 0 -->
      <g transform="translate(33.284375 303.028562) scale(0.1 -0.1)">
       <defs>
        <path id="DejaVuSans-30" d="M 2034 4250 
Q 1547 4250 1301 3770 
Q 1056 3291 1056 2328 
Q 1056 1369 1301 889 
Q 1547 409 2034 409 
Q 2525 409 2770 889 
Q 3016 1369 3016 2328 
Q 3016 3291 2770 3770 
Q 2525 4250 2034 4250 
z
M 2034 4750 
Q 2819 4750 3233 4129 
Q 3647 3509 3647 2328 
Q 3647 1150 3233 529 
Q 2819 -91 2034 -91 
Q 1250 -91 836 529 
Q 422 1150 422 2328 
Q 422 3509 836 4129 
Q 1250 4750 2034 4750 
z
" transform="scale(0.015625)"/>
       </defs>
       <use xlink:href="#DejaVuSans-30"/>
      </g>
     </g>
    </g>
    <g id="xtick_2">
     <g id="line2d_2">
      <g>
       <use xlink:href="#m02620e5d59" x="77.748215" y="288.430125" style="stroke: #000000; stroke-width: 0.8"/>
      </g>
     </g>
     <g id="text_2">
      <!-- 10 -->
      <g transform="translate(71.385715 303.028562) scale(0.1 -0.1)">
       <defs>
        <path id="DejaVuSans-31" d="M 794 531 
L 1825 531 
L 1825 4091 
L 703 3866 
L 703 4441 
L 1819 4666 
L 2450 4666 
L 2450 531 
L 3481 531 
L 3481 0 
L 794 0 
L 794 531 
z
" transform="scale(0.015625)"/>
       </defs>
       <use xlink:href="#DejaVuSans-31"/>
       <use xlink:href="#DejaVuSans-30" x="63.623047"/>
      </g>
     </g>
    </g>
    <g id="xtick_3">
     <g id="line2d_3">
      <g>
       <use xlink:href="#m02620e5d59" x="119.030805" y="288.430125" style="stroke: #000000; stroke-width: 0.8"/>
      </g>
     </g>
     <g id="text_3">
      <!-- 20 -->
      <g transform="translate(112.668305 303.028562) scale(0.1 -0.1)">
       <defs>
        <path id="DejaVuSans-32" d="M 1228 531 
L 3431 531 
L 3431 0 
L 469 0 
L 469 531 
Q 828 903 1448 1529 
Q 2069 2156 2228 2338 
Q 2531 2678 2651 2914 
Q 2772 3150 2772 3378 
Q 2772 3750 2511 3984 
Q 2250 4219 1831 4219 
Q 1534 4219 1204 4116 
Q 875 4013 500 3803 
L 500 4441 
Q 881 4594 1212 4672 
Q 1544 4750 1819 4750 
Q 2544 4750 2975 4387 
Q 3406 4025 3406 3419 
Q 3406 3131 3298 2873 
Q 3191 2616 2906 2266 
Q 2828 2175 2409 1742 
Q 1991 1309 1228 531 
z
" transform="scale(0.015625)"/>
       </defs>
       <use xlink:href="#DejaVuSans-32"/>
       <use xlink:href="#DejaVuSans-30" x="63.623047"/>
      </g>
     </g>
    </g>
    <g id="xtick_4">
     <g id="line2d_4">
      <g>
       <use xlink:href="#m02620e5d59" x="160.313395" y="288.430125" style="stroke: #000000; stroke-width: 0.8"/>
      </g>
     </g>
     <g id="text_4">
      <!-- 30 -->
      <g transform="translate(153.950895 303.028562) scale(0.1 -0.1)">
       <defs>
        <path id="DejaVuSans-33" d="M 2597 2516 
Q 3050 2419 3304 2112 
Q 3559 1806 3559 1356 
Q 3559 666 3084 287 
Q 2609 -91 1734 -91 
Q 1441 -91 1130 -33 
Q 819 25 488 141 
L 488 750 
Q 750 597 1062 519 
Q 1375 441 1716 441 
Q 2309 441 2620 675 
Q 2931 909 2931 1356 
Q 2931 1769 2642 2001 
Q 2353 2234 1838 2234 
L 1294 2234 
L 1294 2753 
L 1863 2753 
Q 2328 2753 2575 2939 
Q 2822 3125 2822 3475 
Q 2822 3834 2567 4026 
Q 2313 4219 1838 4219 
Q 1578 4219 1281 4162 
Q 984 4106 628 3988 
L 628 4550 
Q 988 4650 1302 4700 
Q 1616 4750 1894 4750 
Q 2613 4750 3031 4423 
Q 3450 4097 3450 3541 
Q 3450 3153 3228 2886 
Q 3006 2619 2597 2516 
z
" transform="scale(0.015625)"/>
       </defs>
       <use xlink:href="#DejaVuSans-33"/>
       <use xlink:href="#DejaVuSans-30" x="63.623047"/>
      </g>
     </g>
    </g>
    <g id="xtick_5">
     <g id="line2d_5">
      <g>
       <use xlink:href="#m02620e5d59" x="201.595986" y="288.430125" style="stroke: #000000; stroke-width: 0.8"/>
      </g>
     </g>
     <g id="text_5">
      <!-- 40 -->
      <g transform="translate(195.233486 303.028562) scale(0.1 -0.1)">
       <defs>
        <path id="DejaVuSans-34" d="M 2419 4116 
L 825 1625 
L 2419 1625 
L 2419 4116 
z
M 2253 4666 
L 3047 4666 
L 3047 1625 
L 3713 1625 
L 3713 1100 
L 3047 1100 
L 3047 0 
L 2419 0 
L 2419 1100 
L 313 1100 
L 313 1709 
L 2253 4666 
z
" transform="scale(0.015625)"/>
       </defs>
       <use xlink:href="#DejaVuSans-34"/>
       <use xlink:href="#DejaVuSans-30" x="63.623047"/>
      </g>
     </g>
    </g>
    <g id="xtick_6">
     <g id="line2d_6">
      <g>
       <use xlink:href="#m02620e5d59" x="242.878576" y="288.430125" style="stroke: #000000; stroke-width: 0.8"/>
      </g>
     </g>
     <g id="text_6">
      <!-- 50 -->
      <g transform="translate(236.516076 303.028562) scale(0.1 -0.1)">
       <defs>
        <path id="DejaVuSans-35" d="M 691 4666 
L 3169 4666 
L 3169 4134 
L 1269 4134 
L 1269 2991 
Q 1406 3038 1543 3061 
Q 1681 3084 1819 3084 
Q 2600 3084 3056 2656 
Q 3513 2228 3513 1497 
Q 3513 744 3044 326 
Q 2575 -91 1722 -91 
Q 1428 -91 1123 -41 
Q 819 9 494 109 
L 494 744 
Q 775 591 1075 516 
Q 1375 441 1709 441 
Q 2250 441 2565 725 
Q 2881 1009 2881 1497 
Q 2881 1984 2565 2268 
Q 2250 2553 1709 2553 
Q 1456 2553 1204 2497 
Q 953 2441 691 2322 
L 691 4666 
z
" transform="scale(0.015625)"/>
       </defs>
       <use xlink:href="#DejaVuSans-35"/>
       <use xlink:href="#DejaVuSans-30" x="63.623047"/>
      </g>
     </g>
    </g>
    <g id="xtick_7">
     <g id="line2d_7">
      <g>
       <use xlink:href="#m02620e5d59" x="284.161166" y="288.430125" style="stroke: #000000; stroke-width: 0.8"/>
      </g>
     </g>
     <g id="text_7">
      <!-- 60 -->
      <g transform="translate(277.798666 303.028562) scale(0.1 -0.1)">
       <defs>
        <path id="DejaVuSans-36" d="M 2113 2584 
Q 1688 2584 1439 2293 
Q 1191 2003 1191 1497 
Q 1191 994 1439 701 
Q 1688 409 2113 409 
Q 2538 409 2786 701 
Q 3034 994 3034 1497 
Q 3034 2003 2786 2293 
Q 2538 2584 2113 2584 
z
M 3366 4563 
L 3366 3988 
Q 3128 4100 2886 4159 
Q 2644 4219 2406 4219 
Q 1781 4219 1451 3797 
Q 1122 3375 1075 2522 
Q 1259 2794 1537 2939 
Q 1816 3084 2150 3084 
Q 2853 3084 3261 2657 
Q 3669 2231 3669 1497 
Q 3669 778 3244 343 
Q 2819 -91 2113 -91 
Q 1303 -91 875 529 
Q 447 1150 447 2328 
Q 447 3434 972 4092 
Q 1497 4750 2381 4750 
Q 2619 4750 2861 4703 
Q 3103 4656 3366 4563 
z
" transform="scale(0.015625)"/>
       </defs>
       <use xlink:href="#DejaVuSans-36"/>
       <use xlink:href="#DejaVuSans-30" x="63.623047"/>
      </g>
     </g>
    </g>
    <g id="xtick_8">
     <g id="line2d_8">
      <g>
       <use xlink:href="#m02620e5d59" x="325.443756" y="288.430125" style="stroke: #000000; stroke-width: 0.8"/>
      </g>
     </g>
     <g id="text_8">
      <!-- 70 -->
      <g transform="translate(319.081256 303.028562) scale(0.1 -0.1)">
       <defs>
        <path id="DejaVuSans-37" d="M 525 4666 
L 3525 4666 
L 3525 4397 
L 1831 0 
L 1172 0 
L 2766 4134 
L 525 4134 
L 525 4666 
z
" transform="scale(0.015625)"/>
       </defs>
       <use xlink:href="#DejaVuSans-37"/>
       <use xlink:href="#DejaVuSans-30" x="63.623047"/>
      </g>
     </g>
    </g>
    <g id="xtick_9">
     <g id="line2d_9">
      <g>
       <use xlink:href="#m02620e5d59" x="366.726346" y="288.430125" style="stroke: #000000; stroke-width: 0.8"/>
      </g>
     </g>
     <g id="text_9">
      <!-- 80 -->
      <g transform="translate(360.363846 303.028562) scale(0.1 -0.1)">
       <defs>
        <path id="DejaVuSans-38" d="M 2034 2216 
Q 1584 2216 1326 1975 
Q 1069 1734 1069 1313 
Q 1069 891 1326 650 
Q 1584 409 2034 409 
Q 2484 409 2743 651 
Q 3003 894 3003 1313 
Q 3003 1734 2745 1975 
Q 2488 2216 2034 2216 
z
M 1403 2484 
Q 997 2584 770 2862 
Q 544 3141 544 3541 
Q 544 4100 942 4425 
Q 1341 4750 2034 4750 
Q 2731 4750 3128 4425 
Q 3525 4100 3525 3541 
Q 3525 3141 3298 2862 
Q 3072 2584 2669 2484 
Q 3125 2378 3379 2068 
Q 3634 1759 3634 1313 
Q 3634 634 3220 271 
Q 2806 -91 2034 -91 
Q 1263 -91 848 271 
Q 434 634 434 1313 
Q 434 1759 690 2068 
Q 947 2378 1403 2484 
z
M 1172 3481 
Q 1172 3119 1398 2916 
Q 1625 2713 2034 2713 
Q 2441 2713 2670 2916 
Q 2900 3119 2900 3481 
Q 2900 3844 2670 4047 
Q 2441 4250 2034 4250 
Q 1625 4250 1398 4047 
Q 1172 3844 1172 3481 
z
" transform="scale(0.015625)"/>
       </defs>
       <use xlink:href="#DejaVuSans-38"/>
       <use xlink:href="#DejaVuSans-30" x="63.623047"/>
      </g>
     </g>
    </g>
   </g>
   <g id="matplotlib.axis_2">
    <g id="ytick_1">
     <g id="line2d_10">
      <defs>
       <path id="m26ba7c284a" d="M 0 0 
L -3.5 0 
" style="stroke: #000000; stroke-width: 0.8"/>
      </defs>
      <g>
       <use xlink:href="#m26ba7c284a" x="36.465625" y="285.008706" style="stroke: #000000; stroke-width: 0.8"/>
      </g>
     </g>
     <g id="text_10">
      <!-- 12.0 -->
      <g transform="translate(7.2 288.807925) scale(0.1 -0.1)">
       <defs>
        <path id="DejaVuSans-2e" d="M 684 794 
L 1344 794 
L 1344 0 
L 684 0 
L 684 794 
z
" transform="scale(0.015625)"/>
       </defs>
       <use xlink:href="#DejaVuSans-31"/>
       <use xlink:href="#DejaVuSans-32" x="63.623047"/>
       <use xlink:href="#DejaVuSans-2e" x="127.246094"/>
       <use xlink:href="#DejaVuSans-30" x="159.033203"/>
      </g>
     </g>
    </g>
    <g id="ytick_2">
     <g id="line2d_11">
      <g>
       <use xlink:href="#m26ba7c284a" x="36.465625" y="254.88771" style="stroke: #000000; stroke-width: 0.8"/>
      </g>
     </g>
     <g id="text_11">
      <!-- 12.2 -->
      <g transform="translate(7.2 258.686929) scale(0.1 -0.1)">
       <use xlink:href="#DejaVuSans-31"/>
       <use xlink:href="#DejaVuSans-32" x="63.623047"/>
       <use xlink:href="#DejaVuSans-2e" x="127.246094"/>
       <use xlink:href="#DejaVuSans-32" x="159.033203"/>
      </g>
     </g>
    </g>
    <g id="ytick_3">
     <g id="line2d_12">
      <g>
       <use xlink:href="#m26ba7c284a" x="36.465625" y="224.766715" style="stroke: #000000; stroke-width: 0.8"/>
      </g>
     </g>
     <g id="text_12">
      <!-- 12.4 -->
      <g transform="translate(7.2 228.565933) scale(0.1 -0.1)">
       <use xlink:href="#DejaVuSans-31"/>
       <use xlink:href="#DejaVuSans-32" x="63.623047"/>
       <use xlink:href="#DejaVuSans-2e" x="127.246094"/>
       <use xlink:href="#DejaVuSans-34" x="159.033203"/>
      </g>
     </g>
    </g>
    <g id="ytick_4">
     <g id="line2d_13">
      <g>
       <use xlink:href="#m26ba7c284a" x="36.465625" y="194.645719" style="stroke: #000000; stroke-width: 0.8"/>
      </g>
     </g>
     <g id="text_13">
      <!-- 12.6 -->
      <g transform="translate(7.2 198.444937) scale(0.1 -0.1)">
       <use xlink:href="#DejaVuSans-31"/>
       <use xlink:href="#DejaVuSans-32" x="63.623047"/>
       <use xlink:href="#DejaVuSans-2e" x="127.246094"/>
       <use xlink:href="#DejaVuSans-36" x="159.033203"/>
      </g>
     </g>
    </g>
    <g id="ytick_5">
     <g id="line2d_14">
      <g>
       <use xlink:href="#m26ba7c284a" x="36.465625" y="164.524723" style="stroke: #000000; stroke-width: 0.8"/>
      </g>
     </g>
     <g id="text_14">
      <!-- 12.8 -->
      <g transform="translate(7.2 168.323942) scale(0.1 -0.1)">
       <use xlink:href="#DejaVuSans-31"/>
       <use xlink:href="#DejaVuSans-32" x="63.623047"/>
       <use xlink:href="#DejaVuSans-2e" x="127.246094"/>
       <use xlink:href="#DejaVuSans-38" x="159.033203"/>
      </g>
     </g>
    </g>
    <g id="ytick_6">
     <g id="line2d_15">
      <g>
       <use xlink:href="#m26ba7c284a" x="36.465625" y="134.403727" style="stroke: #000000; stroke-width: 0.8"/>
      </g>
     </g>
     <g id="text_15">
      <!-- 13.0 -->
      <g transform="translate(7.2 138.202946) scale(0.1 -0.1)">
       <use xlink:href="#DejaVuSans-31"/>
       <use xlink:href="#DejaVuSans-33" x="63.623047"/>
       <use xlink:href="#DejaVuSans-2e" x="127.246094"/>
       <use xlink:href="#DejaVuSans-30" x="159.033203"/>
      </g>
     </g>
    </g>
    <g id="ytick_7">
     <g id="line2d_16">
      <g>
       <use xlink:href="#m26ba7c284a" x="36.465625" y="104.282731" style="stroke: #000000; stroke-width: 0.8"/>
      </g>
     </g>
     <g id="text_16">
      <!-- 13.2 -->
      <g transform="translate(7.2 108.08195) scale(0.1 -0.1)">
       <use xlink:href="#DejaVuSans-31"/>
       <use xlink:href="#DejaVuSans-33" x="63.623047"/>
       <use xlink:href="#DejaVuSans-2e" x="127.246094"/>
       <use xlink:href="#DejaVuSans-32" x="159.033203"/>
      </g>
     </g>
    </g>
    <g id="ytick_8">
     <g id="line2d_17">
      <g>
       <use xlink:href="#m26ba7c284a" x="36.465625" y="74.161735" style="stroke: #000000; stroke-width: 0.8"/>
      </g>
     </g>
     <g id="text_17">
      <!-- 13.4 -->
      <g transform="translate(7.2 77.960954) scale(0.1 -0.1)">
       <use xlink:href="#DejaVuSans-31"/>
       <use xlink:href="#DejaVuSans-33" x="63.623047"/>
       <use xlink:href="#DejaVuSans-2e" x="127.246094"/>
       <use xlink:href="#DejaVuSans-34" x="159.033203"/>
      </g>
     </g>
    </g>
    <g id="ytick_9">
     <g id="line2d_18">
      <g>
       <use xlink:href="#m26ba7c284a" x="36.465625" y="44.040739" style="stroke: #000000; stroke-width: 0.8"/>
      </g>
     </g>
     <g id="text_18">
      <!-- 13.6 -->
      <g transform="translate(7.2 47.839958) scale(0.1 -0.1)">
       <use xlink:href="#DejaVuSans-31"/>
       <use xlink:href="#DejaVuSans-33" x="63.623047"/>
       <use xlink:href="#DejaVuSans-2e" x="127.246094"/>
       <use xlink:href="#DejaVuSans-36" x="159.033203"/>
      </g>
     </g>
    </g>
   </g>
   <g id="line2d_19">
    <path d="M 36.465625 48.257922 
L 37.423051 109.050442 
L 38.380478 211.383586 
L 39.337904 247.463994 
L 40.29533 264.297382 
L 41.252756 270.383779 
L 42.210183 266.649185 
L 43.167609 246.208605 
L 44.125035 213.983074 
L 45.082461 109.674191 
L 46.039888 43.163129 
L 46.997314 41.983239 
L 47.95474 111.440569 
L 48.912167 216.677029 
L 49.869593 251.265704 
L 50.827019 269.944124 
L 51.784445 271.513034 
L 52.741872 266.904793 
L 53.699298 252.688247 
L 54.656724 215.033367 
L 55.61415 113.722886 
L 56.571577 49.597829 
L 57.529003 49.165781 
L 58.486429 110.075869 
L 59.443856 214.030649 
L 60.401282 247.614863 
L 61.358708 266.46934 
L 62.316134 272.837372 
L 63.273561 267.060557 
L 64.230987 248.428068 
L 65.188413 212.025186 
L 66.145839 108.904084 
L 67.103266 44.283398 
L 68.060692 42.637533 
L 69.018118 110.23259 
L 69.975545 212.681546 
L 70.932971 246.172743 
L 71.890397 261.839343 
L 72.847823 268.378937 
L 73.80525 264.318029 
L 74.762676 247.693345 
L 75.720102 212.475242 
L 76.677528 108.971952 
L 77.634955 46.694249 
L 78.592381 43.143204 
L 79.549807 109.48725 
L 80.507234 212.688076 
L 81.46466 246.60387 
L 82.422086 265.126583 
L 83.379512 268.752939 
L 84.336939 263.180726 
L 85.294365 243.948754 
L 86.251791 208.100318 
L 87.209217 104.435569 
L 88.166644 40.489273 
L 89.12407 39.264711 
L 90.081496 103.671069 
L 91.038923 209.362801 
L 91.996349 243.10544 
L 92.953775 264.138868 
L 93.911201 268.316333 
L 94.868628 264.917078 
L 95.826054 248.202041 
L 96.78348 211.498981 
L 97.740907 106.350729 
L 98.698333 44.703754 
L 99.655759 43.968191 
L 100.613185 108.047133 
L 101.570612 211.932933 
L 102.528038 247.006563 
L 103.485464 266.844606 
L 104.44289 270.933236 
L 105.400317 264.640177 
L 106.357743 248.874156 
L 107.315169 214.530316 
L 108.272596 108.152382 
L 109.230022 46.359727 
L 110.187448 41.068562 
L 111.144874 110.144991 
L 112.102301 213.015697 
L 113.059727 249.050197 
L 114.017153 268.480215 
L 114.974579 272.589647 
L 115.932006 267.263684 
L 116.889432 244.351701 
L 117.846858 207.386051 
L 118.804285 103.880891 
L 119.761711 38.626021 
L 120.719137 40.823508 
L 121.676563 105.043905 
L 122.63399 208.454411 
L 123.591416 245.605562 
L 124.548842 262.648409 
L 125.506268 265.309998 
L 126.463695 261.62505 
L 127.421121 243.823466 
L 128.378547 207.001586 
L 129.335974 106.05095 
L 130.2934 40.192653 
L 131.250826 44.156675 
L 132.208252 107.4659 
L 133.165679 206.621343 
L 134.123105 245.072383 
L 135.080531 263.57727 
L 136.037957 268.985565 
L 136.995384 263.059316 
L 137.95281 243.193371 
L 138.910236 207.014884 
L 139.867663 106.196099 
L 140.825089 42.570726 
L 141.782515 44.719414 
L 142.739941 109.071309 
L 143.697368 210.133813 
L 144.654794 246.281326 
L 145.61222 259.179745 
L 146.569646 266.298215 
L 147.527073 264.046651 
L 148.484499 245.616834 
L 149.441925 209.772273 
L 150.399352 103.46989 
L 151.356778 36.041521 
L 152.314204 41.254259 
L 153.27163 106.578532 
L 154.229057 211.311879 
L 155.186483 247.747775 
L 156.143909 264.177664 
L 157.101335 270.264354 
L 158.058762 264.129162 
L 159.016188 245.347744 
L 159.973614 209.799345 
L 160.931041 108.699429 
L 161.888467 43.294329 
L 162.845893 43.908277 
L 163.803319 108.666656 
L 164.760746 214.844455 
L 165.718172 246.49086 
L 166.675598 264.25291 
L 167.633024 270.55505 
L 168.590451 265.49652 
L 169.547877 249.488254 
L 170.505303 211.443346 
L 171.46273 107.255381 
L 172.420156 43.850107 
L 173.377582 42.214586 
L 174.335008 108.880606 
L 175.292435 210.343587 
L 176.249861 247.018029 
L 177.207287 265.144845 
L 178.164713 275.477365 
L 179.12214 267.693597 
L 180.079566 245.919584 
L 181.036992 210.559251 
L 181.994419 107.443992 
L 182.951845 44.16611 
L 183.909271 45.544889 
L 184.866697 109.535907 
L 185.824124 214.132215 
L 186.78155 251.071687 
L 187.738976 268.658671 
L 188.696402 272.259956 
L 189.653829 266.486495 
L 190.611255 246.094931 
L 191.568681 211.164778 
L 192.526108 111.072247 
L 193.483534 44.788966 
L 194.44096 39.962013 
L 195.398386 107.045661 
L 196.355813 210.138275 
L 197.313239 246.333064 
L 198.270665 263.418508 
L 199.228091 265.023074 
L 200.185518 261.374128 
L 201.142944 245.555187 
L 202.10037 211.249336 
L 203.057797 104.960388 
L 204.015223 38.596131 
L 204.972649 38.174677 
L 205.930075 101.685359 
L 206.887502 206.69954 
L 207.844928 243.146781 
L 208.802354 265.513928 
L 209.75978 270.164834 
L 210.717207 266.125946 
L 211.674633 245.304393 
L 212.632059 211.331721 
L 213.589486 110.361875 
L 214.546912 46.60228 
L 215.504338 47.758146 
L 216.461764 112.418329 
L 217.419191 214.865033 
L 218.376617 246.788667 
L 219.334043 265.322151 
L 220.29147 270.781365 
L 221.248896 268.499247 
L 222.206322 250.603599 
L 223.163748 214.374511 
L 224.121175 109.382734 
L 225.078601 43.15056 
L 226.036027 39.581689 
L 226.993453 107.567578 
L 227.95088 209.593594 
L 228.908306 246.469049 
L 229.865732 263.637319 
L 230.823159 268.459455 
L 231.780585 264.135678 
L 232.738011 242.832829 
L 233.695437 205.05321 
L 234.652864 102.052802 
L 235.61029 38.487485 
L 236.567716 40.008052 
L 237.525142 104.35314 
L 238.482569 207.535766 
L 239.439995 243.749194 
L 240.397421 261.607617 
L 241.354848 267.898006 
L 242.312274 263.275331 
L 243.2697 245.328389 
L 244.227126 210.944559 
L 245.184553 107.307878 
L 246.141979 39.611476 
L 247.099405 44.049133 
L 248.056831 108.749688 
L 249.014258 208.842537 
L 249.971684 243.708115 
L 250.92911 261.899539 
L 251.886537 271.162802 
L 252.843963 265.472835 
L 253.801389 247.835408 
L 254.758815 210.443696 
L 255.716242 108.02145 
L 256.673668 44.583012 
L 257.631094 44.413458 
L 258.58852 106.198342 
L 259.545947 208.889954 
L 260.503373 243.896894 
L 261.460799 262.415669 
L 262.418226 267.645373 
L 263.375652 262.196649 
L 264.333078 244.762785 
L 265.290504 210.106792 
L 266.247931 105.740222 
L 267.205357 40.120728 
L 268.162783 39.680106 
L 269.120209 106.674756 
L 270.077636 210.584259 
L 271.035062 246.640179 
L 271.992488 265.241778 
L 272.949915 269.789914 
L 273.907341 264.667216 
L 274.864767 241.316646 
L 275.822193 206.114137 
L 276.77962 103.126808 
L 277.737046 42.443471 
L 278.694472 42.097317 
L 279.651898 106.899561 
L 280.609325 209.20411 
L 281.566751 244.966237 
L 282.524177 263.603416 
L 283.481604 269.598628 
L 284.43903 261.835015 
L 285.396456 245.055996 
L 286.353882 209.527206 
L 287.311309 106.692842 
L 288.268735 47.308252 
L 289.226161 44.921408 
L 290.183587 111.447357 
L 291.141014 212.334496 
L 292.09844 249.170153 
L 293.055866 268.115886 
L 294.013293 276.334125 
L 294.970719 267.334126 
L 295.928145 247.814165 
L 296.885571 211.705255 
L 297.842998 108.590564 
L 298.800424 43.776364 
L 299.75785 39.919627 
L 300.715276 105.153146 
L 301.672703 209.755452 
L 302.630129 244.284392 
L 303.587555 259.795703 
L 304.544982 263.612957 
L 305.502408 258.953054 
L 306.459834 241.572409 
L 307.41726 205.448451 
L 308.374687 102.526229 
L 309.332113 38.969706 
L 310.289539 41.11512 
L 311.246965 106.506452 
L 312.204392 206.358948 
L 313.161818 243.486662 
L 314.119244 260.198952 
L 315.076671 265.541585 
L 316.034097 259.939564 
L 316.991523 242.265544 
L 317.948949 207.092481 
L 318.906376 103.966014 
L 319.863802 43.607586 
L 320.821228 40.748775 
L 321.778654 104.970569 
L 322.736081 210.711202 
L 323.693507 240.738542 
L 324.650933 261.180112 
L 325.60836 267.192851 
L 326.565786 264.810046 
L 327.523212 246.300616 
L 328.480638 210.399755 
L 329.438065 108.358974 
L 330.395491 43.833008 
L 331.352917 47.032032 
L 332.310343 110.1937 
L 333.26777 213.960225 
L 334.225196 249.45316 
L 335.182622 267.613016 
L 336.140049 272.669858 
L 337.097475 266.170604 
L 338.054901 248.145842 
L 339.012327 210.791915 
L 339.969754 107.713218 
L 340.92718 47.871298 
L 341.884606 48.169611 
L 342.842033 108.88653 
L 343.799459 213.390779 
L 344.756885 249.340906 
L 345.714311 263.818462 
L 346.671738 270.336172 
L 347.629164 263.699506 
L 348.58659 244.589664 
L 349.544016 208.137309 
L 350.501443 107.443049 
L 351.458869 44.729277 
L 352.416295 46.533338 
L 353.373722 108.124016 
L 354.331148 214.660141 
L 355.288574 255.157531 
L 356.246 266.604005 
L 357.203427 270.524019 
L 358.160853 262.287735 
L 359.118279 244.738232 
L 360.075705 209.381759 
L 361.033132 107.179735 
L 361.990558 40.354095 
L 362.947984 41.096938 
L 363.905411 105.05145 
L 364.862837 205.230273 
L 365.820263 241.440428 
L 366.777689 260.101005 
L 367.735116 267.057208 
L 368.692542 263.048882 
L 369.649968 243.349098 
L 370.607394 207.956797 
L 371.564821 104.04044 
L 372.522247 41.855184 
L 373.479673 44.231019 
L 374.4371 109.164036 
L 375.394526 212.82135 
L 376.351952 246.586546 
L 377.309378 265.530684 
L 378.266805 272.350523 
L 379.224231 264.625743 
L 380.181657 247.88893 
L 381.139083 209.103735 
L 382.09651 104.290738 
L 383.053936 38.587401 
L 384.011362 41.072817 
L 384.968789 107.079859 
L 385.926215 206.494174 
L 386.883641 245.544237 
L 387.841067 261.565494 
L 388.798494 267.159595 
L 389.75592 260.837696 
L 390.713346 246.839216 
L 391.670772 209.472936 
L 392.628199 106.545282 
L 393.585625 34.414125 
L 393.585625 34.414125 
" clip-path="url(#pb525b88285)" style="fill: none; stroke: #1f77b4; stroke-width: 1.5; stroke-linecap: square"/>
   </g>
   <g id="patch_3">
    <path d="M 36.465625 288.430125 
L 36.465625 22.318125 
" style="fill: none; stroke: #000000; stroke-width: 0.8; stroke-linejoin: miter; stroke-linecap: square"/>
   </g>
   <g id="patch_4">
    <path d="M 393.585625 288.430125 
L 393.585625 22.318125 
" style="fill: none; stroke: #000000; stroke-width: 0.8; stroke-linejoin: miter; stroke-linecap: square"/>
   </g>
   <g id="patch_5">
    <path d="M 36.465625 288.430125 
L 393.585625 288.430125 
" style="fill: none; stroke: #000000; stroke-width: 0.8; stroke-linejoin: miter; stroke-linecap: square"/>
   </g>
   <g id="patch_6">
    <path d="M 36.465625 22.318125 
L 393.585625 22.318125 
" style="fill: none; stroke: #000000; stroke-width: 0.8; stroke-linejoin: miter; stroke-linecap: square"/>
   </g>
   <g id="text_19">
    <!-- Thermal Flux -->
    <g transform="translate(175.938438 16.318125) scale(0.12 -0.12)">
     <defs>
      <path id="DejaVuSans-54" d="M -19 4666 
L 3928 4666 
L 3928 4134 
L 2272 4134 
L 2272 0 
L 1638 0 
L 1638 4134 
L -19 4134 
L -19 4666 
z
" transform="scale(0.015625)"/>
      <path id="DejaVuSans-68" d="M 3513 2113 
L 3513 0 
L 2938 0 
L 2938 2094 
Q 2938 2591 2744 2837 
Q 2550 3084 2163 3084 
Q 1697 3084 1428 2787 
Q 1159 2491 1159 1978 
L 1159 0 
L 581 0 
L 581 4863 
L 1159 4863 
L 1159 2956 
Q 1366 3272 1645 3428 
Q 1925 3584 2291 3584 
Q 2894 3584 3203 3211 
Q 3513 2838 3513 2113 
z
" transform="scale(0.015625)"/>
      <path id="DejaVuSans-65" d="M 3597 1894 
L 3597 1613 
L 953 1613 
Q 991 1019 1311 708 
Q 1631 397 2203 397 
Q 2534 397 2845 478 
Q 3156 559 3463 722 
L 3463 178 
Q 3153 47 2828 -22 
Q 2503 -91 2169 -91 
Q 1331 -91 842 396 
Q 353 884 353 1716 
Q 353 2575 817 3079 
Q 1281 3584 2069 3584 
Q 2775 3584 3186 3129 
Q 3597 2675 3597 1894 
z
M 3022 2063 
Q 3016 2534 2758 2815 
Q 2500 3097 2075 3097 
Q 1594 3097 1305 2825 
Q 1016 2553 972 2059 
L 3022 2063 
z
" transform="scale(0.015625)"/>
      <path id="DejaVuSans-72" d="M 2631 2963 
Q 2534 3019 2420 3045 
Q 2306 3072 2169 3072 
Q 1681 3072 1420 2755 
Q 1159 2438 1159 1844 
L 1159 0 
L 581 0 
L 581 3500 
L 1159 3500 
L 1159 2956 
Q 1341 3275 1631 3429 
Q 1922 3584 2338 3584 
Q 2397 3584 2469 3576 
Q 2541 3569 2628 3553 
L 2631 2963 
z
" transform="scale(0.015625)"/>
      <path id="DejaVuSans-6d" d="M 3328 2828 
Q 3544 3216 3844 3400 
Q 4144 3584 4550 3584 
Q 5097 3584 5394 3201 
Q 5691 2819 5691 2113 
L 5691 0 
L 5113 0 
L 5113 2094 
Q 5113 2597 4934 2840 
Q 4756 3084 4391 3084 
Q 3944 3084 3684 2787 
Q 3425 2491 3425 1978 
L 3425 0 
L 2847 0 
L 2847 2094 
Q 2847 2600 2669 2842 
Q 2491 3084 2119 3084 
Q 1678 3084 1418 2786 
Q 1159 2488 1159 1978 
L 1159 0 
L 581 0 
L 581 3500 
L 1159 3500 
L 1159 2956 
Q 1356 3278 1631 3431 
Q 1906 3584 2284 3584 
Q 2666 3584 2933 3390 
Q 3200 3197 3328 2828 
z
" transform="scale(0.015625)"/>
      <path id="DejaVuSans-61" d="M 2194 1759 
Q 1497 1759 1228 1600 
Q 959 1441 959 1056 
Q 959 750 1161 570 
Q 1363 391 1709 391 
Q 2188 391 2477 730 
Q 2766 1069 2766 1631 
L 2766 1759 
L 2194 1759 
z
M 3341 1997 
L 3341 0 
L 2766 0 
L 2766 531 
Q 2569 213 2275 61 
Q 1981 -91 1556 -91 
Q 1019 -91 701 211 
Q 384 513 384 1019 
Q 384 1609 779 1909 
Q 1175 2209 1959 2209 
L 2766 2209 
L 2766 2266 
Q 2766 2663 2505 2880 
Q 2244 3097 1772 3097 
Q 1472 3097 1187 3025 
Q 903 2953 641 2809 
L 641 3341 
Q 956 3463 1253 3523 
Q 1550 3584 1831 3584 
Q 2591 3584 2966 3190 
Q 3341 2797 3341 1997 
z
" transform="scale(0.015625)"/>
      <path id="DejaVuSans-6c" d="M 603 4863 
L 1178 4863 
L 1178 0 
L 603 0 
L 603 4863 
z
" transform="scale(0.015625)"/>
      <path id="DejaVuSans-20" transform="scale(0.015625)"/>
      <path id="DejaVuSans-46" d="M 628 4666 
L 3309 4666 
L 3309 4134 
L 1259 4134 
L 1259 2759 
L 3109 2759 
L 3109 2228 
L 1259 2228 
L 1259 0 
L 628 0 
L 628 4666 
z
" transform="scale(0.015625)"/>
      <path id="DejaVuSans-75" d="M 544 1381 
L 544 3500 
L 1119 3500 
L 1119 1403 
Q 1119 906 1312 657 
Q 1506 409 1894 409 
Q 2359 409 2629 706 
Q 2900 1003 2900 1516 
L 2900 3500 
L 3475 3500 
L 3475 0 
L 2900 0 
L 2900 538 
Q 2691 219 2414 64 
Q 2138 -91 1772 -91 
Q 1169 -91 856 284 
Q 544 659 544 1381 
z
M 1991 3584 
L 1991 3584 
z
" transform="scale(0.015625)"/>
      <path id="DejaVuSans-78" d="M 3513 3500 
L 2247 1797 
L 3578 0 
L 2900 0 
L 1881 1375 
L 863 0 
L 184 0 
L 1544 1831 
L 300 3500 
L 978 3500 
L 1906 2253 
L 2834 3500 
L 3513 3500 
z
" transform="scale(0.015625)"/>
     </defs>
     <use xlink:href="#DejaVuSans-54"/>
     <use xlink:href="#DejaVuSans-68" x="61.083984"/>
     <use xlink:href="#DejaVuSans-65" x="124.462891"/>
     <use xlink:href="#DejaVuSans-72" x="185.986328"/>
     <use xlink:href="#DejaVuSans-6d" x="225.349609"/>
     <use xlink:href="#DejaVuSans-61" x="322.761719"/>
     <use xlink:href="#DejaVuSans-6c" x="384.041016"/>
     <use xlink:href="#DejaVuSans-20" x="411.824219"/>
     <use xlink:href="#DejaVuSans-46" x="443.611328"/>
     <use xlink:href="#DejaVuSans-6c" x="501.130859"/>
     <use xlink:href="#DejaVuSans-75" x="528.914062"/>
     <use xlink:href="#DejaVuSans-78" x="592.292969"/>
    </g>
   </g>
  </g>
 </g>
 <defs>
  <clipPath id="pb525b88285">
   <rect x="36.465625" y="22.318125" width="357.12" height="266.112"/>
  </clipPath>
 </defs>
</svg>
