<?xml version="1.0" encoding="utf-8" standalone="no"?>
<!DOCTYPE svg PUBLIC "-//W3C//DTD SVG 1.1//EN"
  "http://www.w3.org/Graphics/SVG/1.1/DTD/svg11.dtd">
<svg xmlns:xlink="http://www.w3.org/1999/xlink" width="404.631161pt" height="312.30825pt" viewBox="0 0 404.631161 312.30825" xmlns="http://www.w3.org/2000/svg" version="1.1">
 <metadata>
  <rdf:RDF xmlns:dc="http://purl.org/dc/elements/1.1/" xmlns:cc="http://creativecommons.org/ns#" xmlns:rdf="http://www.w3.org/1999/02/22-rdf-syntax-ns#">
   <cc:Work>
    <dc:type rdf:resource="http://purl.org/dc/dcmitype/StillImage"/>
    <dc:date>2024-03-16T16:52:32.816679</dc:date>
    <dc:format>image/svg+xml</dc:format>
    <dc:creator>
     <cc:Agent>
      <dc:title>Matplotlib v3.8.3, https://matplotlib.org/</dc:title>
     </cc:Agent>
    </dc:creator>
   </cc:Work>
  </rdf:RDF>
 </metadata>
 <defs>
  <style type="text/css">*{stroke-linejoin: round; stroke-linecap: butt}</style>
 </defs>
 <g id="figure_1">
  <g id="patch_1">
   <path d="M 0 312.30825 
L 404.631161 312.30825 
L 404.631161 0 
L 0 0 
z
" style="fill: #ffffff"/>
  </g>
  <g id="axes_1">
   <g id="patch_2">
    <path d="M 36.465625 288.430125 
L 393.585625 288.430125 
L 393.585625 22.318125 
L 36.465625 22.318125 
z
" style="fill: #ffffff"/>
   </g>
   <g id="matplotlib.axis_1">
    <g id="xtick_1">
     <g id="line2d_1">
      <defs>
       <path id="md62ae2e3c3" d="M 0 0 
L 0 3.5 
" style="stroke: #000000; stroke-width: 0.8"/>
      </defs>
      <g>
       <use xlink:href="#md62ae2e3c3" x="52.698352" y="288.430125" style="stroke: #000000; stroke-width: 0.8"/>
      </g>
     </g>
     <g id="text_1">
      <!-- 0 -->
      <g transform="translate(49.517102 303.028562) scale(0.1 -0.1)">
       <defs>
        <path id="DejaVuSans-30" d="M 2034 4250 
Q 1547 4250 1301 3770 
Q 1056 3291 1056 2328 
Q 1056 1369 1301 889 
Q 1547 409 2034 409 
Q 2525 409 2770 889 
Q 3016 1369 3016 2328 
Q 3016 3291 2770 3770 
Q 2525 4250 2034 4250 
z
M 2034 4750 
Q 2819 4750 3233 4129 
Q 3647 3509 3647 2328 
Q 3647 1150 3233 529 
Q 2819 -91 2034 -91 
Q 1250 -91 836 529 
Q 422 1150 422 2328 
Q 422 3509 836 4129 
Q 1250 4750 2034 4750 
z
" transform="scale(0.015625)"/>
       </defs>
       <use xlink:href="#DejaVuSans-30"/>
      </g>
     </g>
    </g>
    <g id="xtick_2">
     <g id="line2d_2">
      <g>
       <use xlink:href="#md62ae2e3c3" x="100.582504" y="288.430125" style="stroke: #000000; stroke-width: 0.8"/>
      </g>
     </g>
     <g id="text_2">
      <!-- 50 -->
      <g transform="translate(94.220004 303.028562) scale(0.1 -0.1)">
       <defs>
        <path id="DejaVuSans-35" d="M 691 4666 
L 3169 4666 
L 3169 4134 
L 1269 4134 
L 1269 2991 
Q 1406 3038 1543 3061 
Q 1681 3084 1819 3084 
Q 2600 3084 3056 2656 
Q 3513 2228 3513 1497 
Q 3513 744 3044 326 
Q 2575 -91 1722 -91 
Q 1428 -91 1123 -41 
Q 819 9 494 109 
L 494 744 
Q 775 591 1075 516 
Q 1375 441 1709 441 
Q 2250 441 2565 725 
Q 2881 1009 2881 1497 
Q 2881 1984 2565 2268 
Q 2250 2553 1709 2553 
Q 1456 2553 1204 2497 
Q 953 2441 691 2322 
L 691 4666 
z
" transform="scale(0.015625)"/>
       </defs>
       <use xlink:href="#DejaVuSans-35"/>
       <use xlink:href="#DejaVuSans-30" x="63.623047"/>
      </g>
     </g>
    </g>
    <g id="xtick_3">
     <g id="line2d_3">
      <g>
       <use xlink:href="#md62ae2e3c3" x="148.466655" y="288.430125" style="stroke: #000000; stroke-width: 0.8"/>
      </g>
     </g>
     <g id="text_3">
      <!-- 100 -->
      <g transform="translate(138.922905 303.028562) scale(0.1 -0.1)">
       <defs>
        <path id="DejaVuSans-31" d="M 794 531 
L 1825 531 
L 1825 4091 
L 703 3866 
L 703 4441 
L 1819 4666 
L 2450 4666 
L 2450 531 
L 3481 531 
L 3481 0 
L 794 0 
L 794 531 
z
" transform="scale(0.015625)"/>
       </defs>
       <use xlink:href="#DejaVuSans-31"/>
       <use xlink:href="#DejaVuSans-30" x="63.623047"/>
       <use xlink:href="#DejaVuSans-30" x="127.246094"/>
      </g>
     </g>
    </g>
    <g id="xtick_4">
     <g id="line2d_4">
      <g>
       <use xlink:href="#md62ae2e3c3" x="196.350806" y="288.430125" style="stroke: #000000; stroke-width: 0.8"/>
      </g>
     </g>
     <g id="text_4">
      <!-- 150 -->
      <g transform="translate(186.807056 303.028562) scale(0.1 -0.1)">
       <use xlink:href="#DejaVuSans-31"/>
       <use xlink:href="#DejaVuSans-35" x="63.623047"/>
       <use xlink:href="#DejaVuSans-30" x="127.246094"/>
      </g>
     </g>
    </g>
    <g id="xtick_5">
     <g id="line2d_5">
      <g>
       <use xlink:href="#md62ae2e3c3" x="244.234957" y="288.430125" style="stroke: #000000; stroke-width: 0.8"/>
      </g>
     </g>
     <g id="text_5">
      <!-- 200 -->
      <g transform="translate(234.691207 303.028562) scale(0.1 -0.1)">
       <defs>
        <path id="DejaVuSans-32" d="M 1228 531 
L 3431 531 
L 3431 0 
L 469 0 
L 469 531 
Q 828 903 1448 1529 
Q 2069 2156 2228 2338 
Q 2531 2678 2651 2914 
Q 2772 3150 2772 3378 
Q 2772 3750 2511 3984 
Q 2250 4219 1831 4219 
Q 1534 4219 1204 4116 
Q 875 4013 500 3803 
L 500 4441 
Q 881 4594 1212 4672 
Q 1544 4750 1819 4750 
Q 2544 4750 2975 4387 
Q 3406 4025 3406 3419 
Q 3406 3131 3298 2873 
Q 3191 2616 2906 2266 
Q 2828 2175 2409 1742 
Q 1991 1309 1228 531 
z
" transform="scale(0.015625)"/>
       </defs>
       <use xlink:href="#DejaVuSans-32"/>
       <use xlink:href="#DejaVuSans-30" x="63.623047"/>
       <use xlink:href="#DejaVuSans-30" x="127.246094"/>
      </g>
     </g>
    </g>
    <g id="xtick_6">
     <g id="line2d_6">
      <g>
       <use xlink:href="#md62ae2e3c3" x="292.119109" y="288.430125" style="stroke: #000000; stroke-width: 0.8"/>
      </g>
     </g>
     <g id="text_6">
      <!-- 250 -->
      <g transform="translate(282.575359 303.028562) scale(0.1 -0.1)">
       <use xlink:href="#DejaVuSans-32"/>
       <use xlink:href="#DejaVuSans-35" x="63.623047"/>
       <use xlink:href="#DejaVuSans-30" x="127.246094"/>
      </g>
     </g>
    </g>
    <g id="xtick_7">
     <g id="line2d_7">
      <g>
       <use xlink:href="#md62ae2e3c3" x="340.00326" y="288.430125" style="stroke: #000000; stroke-width: 0.8"/>
      </g>
     </g>
     <g id="text_7">
      <!-- 300 -->
      <g transform="translate(330.45951 303.028562) scale(0.1 -0.1)">
       <defs>
        <path id="DejaVuSans-33" d="M 2597 2516 
Q 3050 2419 3304 2112 
Q 3559 1806 3559 1356 
Q 3559 666 3084 287 
Q 2609 -91 1734 -91 
Q 1441 -91 1130 -33 
Q 819 25 488 141 
L 488 750 
Q 750 597 1062 519 
Q 1375 441 1716 441 
Q 2309 441 2620 675 
Q 2931 909 2931 1356 
Q 2931 1769 2642 2001 
Q 2353 2234 1838 2234 
L 1294 2234 
L 1294 2753 
L 1863 2753 
Q 2328 2753 2575 2939 
Q 2822 3125 2822 3475 
Q 2822 3834 2567 4026 
Q 2313 4219 1838 4219 
Q 1578 4219 1281 4162 
Q 984 4106 628 3988 
L 628 4550 
Q 988 4650 1302 4700 
Q 1616 4750 1894 4750 
Q 2613 4750 3031 4423 
Q 3450 4097 3450 3541 
Q 3450 3153 3228 2886 
Q 3006 2619 2597 2516 
z
" transform="scale(0.015625)"/>
       </defs>
       <use xlink:href="#DejaVuSans-33"/>
       <use xlink:href="#DejaVuSans-30" x="63.623047"/>
       <use xlink:href="#DejaVuSans-30" x="127.246094"/>
      </g>
     </g>
    </g>
    <g id="xtick_8">
     <g id="line2d_8">
      <g>
       <use xlink:href="#md62ae2e3c3" x="387.887411" y="288.430125" style="stroke: #000000; stroke-width: 0.8"/>
      </g>
     </g>
     <g id="text_8">
      <!-- 350 -->
      <g transform="translate(378.343661 303.028562) scale(0.1 -0.1)">
       <use xlink:href="#DejaVuSans-33"/>
       <use xlink:href="#DejaVuSans-35" x="63.623047"/>
       <use xlink:href="#DejaVuSans-30" x="127.246094"/>
      </g>
     </g>
    </g>
   </g>
   <g id="matplotlib.axis_2">
    <g id="ytick_1">
     <g id="line2d_9">
      <defs>
       <path id="mc41bc7ed88" d="M 0 0 
L -3.5 0 
" style="stroke: #000000; stroke-width: 0.8"/>
      </defs>
      <g>
       <use xlink:href="#mc41bc7ed88" x="36.465625" y="268.047074" style="stroke: #000000; stroke-width: 0.8"/>
      </g>
     </g>
     <g id="text_9">
      <!-- 11.8 -->
      <g transform="translate(7.2 271.846293) scale(0.1 -0.1)">
       <defs>
        <path id="DejaVuSans-2e" d="M 684 794 
L 1344 794 
L 1344 0 
L 684 0 
L 684 794 
z
" transform="scale(0.015625)"/>
        <path id="DejaVuSans-38" d="M 2034 2216 
Q 1584 2216 1326 1975 
Q 1069 1734 1069 1313 
Q 1069 891 1326 650 
Q 1584 409 2034 409 
Q 2484 409 2743 651 
Q 3003 894 3003 1313 
Q 3003 1734 2745 1975 
Q 2488 2216 2034 2216 
z
M 1403 2484 
Q 997 2584 770 2862 
Q 544 3141 544 3541 
Q 544 4100 942 4425 
Q 1341 4750 2034 4750 
Q 2731 4750 3128 4425 
Q 3525 4100 3525 3541 
Q 3525 3141 3298 2862 
Q 3072 2584 2669 2484 
Q 3125 2378 3379 2068 
Q 3634 1759 3634 1313 
Q 3634 634 3220 271 
Q 2806 -91 2034 -91 
Q 1263 -91 848 271 
Q 434 634 434 1313 
Q 434 1759 690 2068 
Q 947 2378 1403 2484 
z
M 1172 3481 
Q 1172 3119 1398 2916 
Q 1625 2713 2034 2713 
Q 2441 2713 2670 2916 
Q 2900 3119 2900 3481 
Q 2900 3844 2670 4047 
Q 2441 4250 2034 4250 
Q 1625 4250 1398 4047 
Q 1172 3844 1172 3481 
z
" transform="scale(0.015625)"/>
       </defs>
       <use xlink:href="#DejaVuSans-31"/>
       <use xlink:href="#DejaVuSans-31" x="63.623047"/>
       <use xlink:href="#DejaVuSans-2e" x="127.246094"/>
       <use xlink:href="#DejaVuSans-38" x="159.033203"/>
      </g>
     </g>
    </g>
    <g id="ytick_2">
     <g id="line2d_10">
      <g>
       <use xlink:href="#mc41bc7ed88" x="36.465625" y="236.158189" style="stroke: #000000; stroke-width: 0.8"/>
      </g>
     </g>
     <g id="text_10">
      <!-- 12.0 -->
      <g transform="translate(7.2 239.957408) scale(0.1 -0.1)">
       <use xlink:href="#DejaVuSans-31"/>
       <use xlink:href="#DejaVuSans-32" x="63.623047"/>
       <use xlink:href="#DejaVuSans-2e" x="127.246094"/>
       <use xlink:href="#DejaVuSans-30" x="159.033203"/>
      </g>
     </g>
    </g>
    <g id="ytick_3">
     <g id="line2d_11">
      <g>
       <use xlink:href="#mc41bc7ed88" x="36.465625" y="204.269305" style="stroke: #000000; stroke-width: 0.8"/>
      </g>
     </g>
     <g id="text_11">
      <!-- 12.2 -->
      <g transform="translate(7.2 208.068524) scale(0.1 -0.1)">
       <use xlink:href="#DejaVuSans-31"/>
       <use xlink:href="#DejaVuSans-32" x="63.623047"/>
       <use xlink:href="#DejaVuSans-2e" x="127.246094"/>
       <use xlink:href="#DejaVuSans-32" x="159.033203"/>
      </g>
     </g>
    </g>
    <g id="ytick_4">
     <g id="line2d_12">
      <g>
       <use xlink:href="#mc41bc7ed88" x="36.465625" y="172.380421" style="stroke: #000000; stroke-width: 0.8"/>
      </g>
     </g>
     <g id="text_12">
      <!-- 12.4 -->
      <g transform="translate(7.2 176.179639) scale(0.1 -0.1)">
       <defs>
        <path id="DejaVuSans-34" d="M 2419 4116 
L 825 1625 
L 2419 1625 
L 2419 4116 
z
M 2253 4666 
L 3047 4666 
L 3047 1625 
L 3713 1625 
L 3713 1100 
L 3047 1100 
L 3047 0 
L 2419 0 
L 2419 1100 
L 313 1100 
L 313 1709 
L 2253 4666 
z
" transform="scale(0.015625)"/>
       </defs>
       <use xlink:href="#DejaVuSans-31"/>
       <use xlink:href="#DejaVuSans-32" x="63.623047"/>
       <use xlink:href="#DejaVuSans-2e" x="127.246094"/>
       <use xlink:href="#DejaVuSans-34" x="159.033203"/>
      </g>
     </g>
    </g>
    <g id="ytick_5">
     <g id="line2d_13">
      <g>
       <use xlink:href="#mc41bc7ed88" x="36.465625" y="140.491536" style="stroke: #000000; stroke-width: 0.8"/>
      </g>
     </g>
     <g id="text_13">
      <!-- 12.6 -->
      <g transform="translate(7.2 144.290755) scale(0.1 -0.1)">
       <defs>
        <path id="DejaVuSans-36" d="M 2113 2584 
Q 1688 2584 1439 2293 
Q 1191 2003 1191 1497 
Q 1191 994 1439 701 
Q 1688 409 2113 409 
Q 2538 409 2786 701 
Q 3034 994 3034 1497 
Q 3034 2003 2786 2293 
Q 2538 2584 2113 2584 
z
M 3366 4563 
L 3366 3988 
Q 3128 4100 2886 4159 
Q 2644 4219 2406 4219 
Q 1781 4219 1451 3797 
Q 1122 3375 1075 2522 
Q 1259 2794 1537 2939 
Q 1816 3084 2150 3084 
Q 2853 3084 3261 2657 
Q 3669 2231 3669 1497 
Q 3669 778 3244 343 
Q 2819 -91 2113 -91 
Q 1303 -91 875 529 
Q 447 1150 447 2328 
Q 447 3434 972 4092 
Q 1497 4750 2381 4750 
Q 2619 4750 2861 4703 
Q 3103 4656 3366 4563 
z
" transform="scale(0.015625)"/>
       </defs>
       <use xlink:href="#DejaVuSans-31"/>
       <use xlink:href="#DejaVuSans-32" x="63.623047"/>
       <use xlink:href="#DejaVuSans-2e" x="127.246094"/>
       <use xlink:href="#DejaVuSans-36" x="159.033203"/>
      </g>
     </g>
    </g>
    <g id="ytick_6">
     <g id="line2d_14">
      <g>
       <use xlink:href="#mc41bc7ed88" x="36.465625" y="108.602652" style="stroke: #000000; stroke-width: 0.8"/>
      </g>
     </g>
     <g id="text_14">
      <!-- 12.8 -->
      <g transform="translate(7.2 112.401871) scale(0.1 -0.1)">
       <use xlink:href="#DejaVuSans-31"/>
       <use xlink:href="#DejaVuSans-32" x="63.623047"/>
       <use xlink:href="#DejaVuSans-2e" x="127.246094"/>
       <use xlink:href="#DejaVuSans-38" x="159.033203"/>
      </g>
     </g>
    </g>
    <g id="ytick_7">
     <g id="line2d_15">
      <g>
       <use xlink:href="#mc41bc7ed88" x="36.465625" y="76.713768" style="stroke: #000000; stroke-width: 0.8"/>
      </g>
     </g>
     <g id="text_15">
      <!-- 13.0 -->
      <g transform="translate(7.2 80.512986) scale(0.1 -0.1)">
       <use xlink:href="#DejaVuSans-31"/>
       <use xlink:href="#DejaVuSans-33" x="63.623047"/>
       <use xlink:href="#DejaVuSans-2e" x="127.246094"/>
       <use xlink:href="#DejaVuSans-30" x="159.033203"/>
      </g>
     </g>
    </g>
    <g id="ytick_8">
     <g id="line2d_16">
      <g>
       <use xlink:href="#mc41bc7ed88" x="36.465625" y="44.824883" style="stroke: #000000; stroke-width: 0.8"/>
      </g>
     </g>
     <g id="text_16">
      <!-- 13.2 -->
      <g transform="translate(7.2 48.624102) scale(0.1 -0.1)">
       <use xlink:href="#DejaVuSans-31"/>
       <use xlink:href="#DejaVuSans-33" x="63.623047"/>
       <use xlink:href="#DejaVuSans-2e" x="127.246094"/>
       <use xlink:href="#DejaVuSans-32" x="159.033203"/>
      </g>
     </g>
    </g>
   </g>
   <g id="line2d_17">
    <path d="M 52.698352 71.629906 
L 53.656035 226.894231 
L 54.613718 110.448783 
L 55.571401 245.00822 
L 56.529084 263.358544 
L 57.486767 259.011668 
L 58.44445 232.942938 
L 59.402133 98.276138 
L 60.359816 215.138265 
L 61.317499 72.87388 
L 62.275183 69.105648 
L 63.232866 228.204025 
L 64.190549 101.467668 
L 65.148232 230.629804 
L 66.105915 253.797451 
L 67.063598 250.905657 
L 68.021281 222.378078 
L 68.978964 100.346002 
L 69.936647 210.065061 
L 70.89433 69.756023 
L 71.852013 65.682478 
L 72.809696 219.522077 
L 73.767379 90.238873 
L 74.725062 220.75149 
L 75.682745 246.918136 
L 76.640428 251.983918 
L 77.598111 225.706051 
L 78.555794 98.855713 
L 79.513477 219.409914 
L 80.47116 55.830193 
L 81.428843 70.915912 
L 82.386526 226.061774 
L 83.344209 92.285414 
L 84.301892 222.669751 
L 85.259575 249.018391 
L 86.217258 244.198089 
L 87.174941 212.391504 
L 88.132624 86.966147 
L 89.090307 196.761049 
L 90.04799 46.532445 
L 91.005673 51.598437 
L 91.963356 216.732155 
L 92.921039 100.714632 
L 93.878722 232.897761 
L 94.836405 249.944763 
L 95.794088 242.364359 
L 96.751771 223.899638 
L 97.709454 96.360139 
L 98.667137 223.305155 
L 99.62482 61.193823 
L 100.582504 51.934306 
L 101.540187 206.899214 
L 102.49787 80.934472 
L 103.455553 225.286981 
L 104.413236 261.125517 
L 105.370919 255.252491 
L 106.328602 236.812112 
L 107.286285 95.166343 
L 108.243968 220.719692 
L 109.201651 61.756344 
L 110.159334 53.992466 
L 111.117017 205.50047 
L 112.0747 83.590677 
L 113.032383 222.897473 
L 113.990066 257.320643 
L 114.947749 259.280551 
L 115.905432 228.75314 
L 116.863115 106.404923 
L 117.820798 248.64872 
L 118.778481 81.913713 
L 119.736164 69.859293 
L 120.693847 239.19354 
L 121.65153 106.973793 
L 122.609213 227.891304 
L 123.566896 253.746693 
L 124.524579 241.645626 
L 125.482262 222.102984 
L 126.439945 89.433871 
L 127.397628 208.563567 
L 128.355311 69.91244 
L 129.312994 75.027134 
L 130.270677 229.014439 
L 131.22836 99.877111 
L 132.186043 231.754668 
L 133.143726 268.293786 
L 134.101409 270.094431 
L 135.059092 231.275892 
L 136.016775 100.986594 
L 136.974458 222.773764 
L 137.932141 72.021701 
L 138.889825 51.883367 
L 139.847508 207.918369 
L 140.805191 85.205783 
L 141.762874 211.274531 
L 142.720557 243.056824 
L 143.67824 241.490653 
L 144.635923 216.100219 
L 145.593606 83.153669 
L 146.551289 209.487646 
L 147.508972 57.299216 
L 148.466655 48.072688 
L 149.424338 212.426675 
L 150.382021 107.299402 
L 151.339704 229.483462 
L 152.297387 256.951072 
L 153.25507 257.736483 
L 154.212753 233.777107 
L 155.170436 92.350349 
L 156.128119 216.92955 
L 157.085802 64.969012 
L 158.043485 60.79814 
L 159.001168 204.884454 
L 159.958851 79.583427 
L 160.916534 217.244249 
L 161.874217 229.535114 
L 162.8319 231.042962 
L 163.789583 211.169277 
L 164.747266 100.096498 
L 165.704949 218.17244 
L 166.662632 57.387717 
L 167.620315 54.554989 
L 168.577998 216.341575 
L 169.535681 97.713112 
L 170.493364 218.796191 
L 171.451047 248.123471 
L 172.40873 249.8186 
L 173.366413 217.711866 
L 174.324096 93.619125 
L 175.281779 215.197328 
L 176.239462 70.534125 
L 177.197146 72.865717 
L 178.154829 229.479764 
L 179.112512 100.605057 
L 180.070195 234.44463 
L 181.027878 269.207425 
L 181.985561 262.881675 
L 182.943244 229.034935 
L 183.900927 99.36267 
L 184.85861 230.975023 
L 185.816293 69.922095 
L 186.773976 76.622649 
L 187.731659 223.795067 
L 188.689342 100.921029 
L 189.647025 235.626585 
L 190.604708 253.462752 
L 191.562391 248.810496 
L 192.520074 223.342001 
L 193.477757 101.383506 
L 194.43544 210.597052 
L 195.393123 41.708066 
L 196.350806 34.414125 
L 197.308489 190.907306 
L 198.266172 83.934032 
L 199.223855 213.257412 
L 200.181538 232.190745 
L 201.139221 244.152178 
L 202.096904 207.931142 
L 203.054587 81.574124 
L 204.01227 207.533708 
L 204.969953 42.42205 
L 205.927636 36.439643 
L 206.885319 198.063816 
L 207.843002 89.771821 
L 208.800685 217.444675 
L 209.758368 249.410258 
L 210.716051 252.873489 
L 211.673734 216.044773 
L 212.631417 81.82419 
L 213.5891 209.836047 
L 214.546783 51.412308 
L 215.504467 49.9942 
L 216.46215 212.436412 
L 217.419833 96.894776 
L 218.377516 227.045082 
L 219.335199 253.733795 
L 220.292882 254.191278 
L 221.250565 219.431501 
L 222.208248 88.047066 
L 223.165931 221.052443 
L 224.123614 70.041976 
L 225.081297 65.99947 
L 226.03898 216.763104 
L 226.996663 92.864895 
L 227.954346 217.620469 
L 228.912029 251.48682 
L 229.869712 253.902844 
L 230.827395 221.791021 
L 231.785078 91.798577 
L 232.742761 203.185745 
L 233.700444 39.70216 
L 234.658127 53.086769 
L 235.61581 206.39698 
L 236.573493 96.012424 
L 237.531176 225.436037 
L 238.488859 246.901304 
L 239.446542 245.511377 
L 240.404225 212.126708 
L 241.361908 86.690362 
L 242.319591 213.639069 
L 243.277274 54.795236 
L 244.234957 46.512307 
L 245.19264 207.413143 
L 246.150323 81.670212 
L 247.108006 210.979972 
L 248.065689 252.135168 
L 249.023372 256.02123 
L 249.981055 228.307937 
L 250.938738 83.879474 
L 251.896421 204.975986 
L 252.854104 50.489102 
L 253.811788 52.943175 
L 254.769471 209.181185 
L 255.727154 89.845089 
L 256.684837 217.839109 
L 257.64252 237.706041 
L 258.600203 243.317417 
L 259.557886 210.478627 
L 260.515569 74.921874 
L 261.473252 219.592538 
L 262.430935 62.557763 
L 263.388618 51.868468 
L 264.346301 210.229768 
L 265.303984 85.503867 
L 266.261667 215.402636 
L 267.21935 253.511021 
L 268.177033 264.779994 
L 269.134716 219.643175 
L 270.092399 93.779032 
L 271.050082 201.596979 
L 272.007765 47.764428 
L 272.965448 55.517515 
L 273.923131 211.710929 
L 274.880814 86.030039 
L 275.838497 216.105843 
L 276.79618 240.489974 
L 277.753863 239.40025 
L 278.711546 215.63337 
L 279.669229 83.989752 
L 280.626912 212.485616 
L 281.584595 50.910847 
L 282.542278 64.847334 
L 283.499961 222.165739 
L 284.457644 93.193979 
L 285.415327 226.781952 
L 286.37301 262.100933 
L 287.330693 254.127474 
L 288.288376 223.129846 
L 289.246059 104.19956 
L 290.203742 216.6522 
L 291.161425 59.216304 
L 292.119109 72.192277 
L 293.076792 228.902743 
L 294.034475 95.793204 
L 294.992158 221.794476 
L 295.949841 256.515033 
L 296.907524 276.334125 
L 297.865207 243.579854 
L 298.82289 101.740266 
L 299.780573 220.403605 
L 300.738256 76.95825 
L 301.695939 74.214792 
L 302.653622 226.328151 
L 303.611305 102.253168 
L 304.568988 228.130092 
L 305.526671 245.74875 
L 306.484354 259.501437 
L 307.442037 218.134145 
L 308.39972 90.906116 
L 309.357403 219.21273 
L 310.315086 69.273043 
L 311.272769 57.268878 
L 312.230452 216.577544 
L 313.188135 88.550203 
L 314.145818 223.084646 
L 315.103501 249.043679 
L 316.061184 254.157654 
L 317.018867 218.375914 
L 317.97655 80.25041 
L 318.934233 208.35324 
L 319.891916 66.282899 
L 320.849599 68.951849 
L 321.807282 231.601247 
L 322.764965 107.183971 
L 323.722648 229.765629 
L 324.680331 253.421475 
L 325.638014 252.74395 
L 326.595697 226.73367 
L 327.55338 110.305693 
L 328.511063 237.153158 
L 329.468746 78.125842 
L 330.42643 78.242422 
L 331.384113 235.992433 
L 332.341796 102.518526 
L 333.299479 233.322971 
L 334.257162 251.610871 
L 335.214845 246.471339 
L 336.172528 235.480064 
L 337.130211 106.882014 
L 338.087894 218.528055 
L 339.045577 63.631322 
L 340.00326 62.110641 
L 340.960943 218.032682 
L 341.918626 106.798057 
L 342.876309 239.687907 
L 343.833992 263.421549 
L 344.791675 255.407692 
L 345.749358 230.066655 
L 346.707041 90.561485 
L 347.664724 206.462903 
L 348.622407 61.802346 
L 349.58009 53.828398 
L 350.537773 207.126467 
L 351.495456 88.69399 
L 352.453139 222.719784 
L 353.410822 251.721436 
L 354.368505 241.229651 
L 355.326188 218.505398 
L 356.283871 79.454347 
L 357.241554 207.235468 
L 358.199237 51.135174 
L 359.15692 54.377624 
L 360.114603 206.210046 
L 361.072286 89.880629 
L 362.029969 220.00598 
L 362.987652 254.277517 
L 363.945335 241.796382 
L 364.903018 220.7785 
L 365.860701 86.211289 
L 366.818384 201.646274 
L 367.776067 41.034423 
L 368.733751 48.397096 
L 369.691434 205.151317 
L 370.649117 87.27627 
L 371.6068 223.833248 
L 372.564483 251.853917 
L 373.522166 253.723157 
L 374.479849 215.984662 
L 375.437532 101.2421 
L 376.395215 214.346342 
L 377.352898 47.126874 
L 377.352898 47.126874 
" clip-path="url(#pfac9a05cc9)" style="fill: none; stroke: #1f77b4; stroke-width: 1.5; stroke-linecap: square"/>
   </g>
   <g id="patch_3">
    <path d="M 36.465625 288.430125 
L 36.465625 22.318125 
" style="fill: none; stroke: #000000; stroke-width: 0.8; stroke-linejoin: miter; stroke-linecap: square"/>
   </g>
   <g id="patch_4">
    <path d="M 393.585625 288.430125 
L 393.585625 22.318125 
" style="fill: none; stroke: #000000; stroke-width: 0.8; stroke-linejoin: miter; stroke-linecap: square"/>
   </g>
   <g id="patch_5">
    <path d="M 36.465625 288.430125 
L 393.585625 288.430125 
" style="fill: none; stroke: #000000; stroke-width: 0.8; stroke-linejoin: miter; stroke-linecap: square"/>
   </g>
   <g id="patch_6">
    <path d="M 36.465625 22.318125 
L 393.585625 22.318125 
" style="fill: none; stroke: #000000; stroke-width: 0.8; stroke-linejoin: miter; stroke-linecap: square"/>
   </g>
   <g id="text_17">
    <!-- Thermal Flux -->
    <g transform="translate(175.938438 16.318125) scale(0.12 -0.12)">
     <defs>
      <path id="DejaVuSans-54" d="M -19 4666 
L 3928 4666 
L 3928 4134 
L 2272 4134 
L 2272 0 
L 1638 0 
L 1638 4134 
L -19 4134 
L -19 4666 
z
" transform="scale(0.015625)"/>
      <path id="DejaVuSans-68" d="M 3513 2113 
L 3513 0 
L 2938 0 
L 2938 2094 
Q 2938 2591 2744 2837 
Q 2550 3084 2163 3084 
Q 1697 3084 1428 2787 
Q 1159 2491 1159 1978 
L 1159 0 
L 581 0 
L 581 4863 
L 1159 4863 
L 1159 2956 
Q 1366 3272 1645 3428 
Q 1925 3584 2291 3584 
Q 2894 3584 3203 3211 
Q 3513 2838 3513 2113 
z
" transform="scale(0.015625)"/>
      <path id="DejaVuSans-65" d="M 3597 1894 
L 3597 1613 
L 953 1613 
Q 991 1019 1311 708 
Q 1631 397 2203 397 
Q 2534 397 2845 478 
Q 3156 559 3463 722 
L 3463 178 
Q 3153 47 2828 -22 
Q 2503 -91 2169 -91 
Q 1331 -91 842 396 
Q 353 884 353 1716 
Q 353 2575 817 3079 
Q 1281 3584 2069 3584 
Q 2775 3584 3186 3129 
Q 3597 2675 3597 1894 
z
M 3022 2063 
Q 3016 2534 2758 2815 
Q 2500 3097 2075 3097 
Q 1594 3097 1305 2825 
Q 1016 2553 972 2059 
L 3022 2063 
z
" transform="scale(0.015625)"/>
      <path id="DejaVuSans-72" d="M 2631 2963 
Q 2534 3019 2420 3045 
Q 2306 3072 2169 3072 
Q 1681 3072 1420 2755 
Q 1159 2438 1159 1844 
L 1159 0 
L 581 0 
L 581 3500 
L 1159 3500 
L 1159 2956 
Q 1341 3275 1631 3429 
Q 1922 3584 2338 3584 
Q 2397 3584 2469 3576 
Q 2541 3569 2628 3553 
L 2631 2963 
z
" transform="scale(0.015625)"/>
      <path id="DejaVuSans-6d" d="M 3328 2828 
Q 3544 3216 3844 3400 
Q 4144 3584 4550 3584 
Q 5097 3584 5394 3201 
Q 5691 2819 5691 2113 
L 5691 0 
L 5113 0 
L 5113 2094 
Q 5113 2597 4934 2840 
Q 4756 3084 4391 3084 
Q 3944 3084 3684 2787 
Q 3425 2491 3425 1978 
L 3425 0 
L 2847 0 
L 2847 2094 
Q 2847 2600 2669 2842 
Q 2491 3084 2119 3084 
Q 1678 3084 1418 2786 
Q 1159 2488 1159 1978 
L 1159 0 
L 581 0 
L 581 3500 
L 1159 3500 
L 1159 2956 
Q 1356 3278 1631 3431 
Q 1906 3584 2284 3584 
Q 2666 3584 2933 3390 
Q 3200 3197 3328 2828 
z
" transform="scale(0.015625)"/>
      <path id="DejaVuSans-61" d="M 2194 1759 
Q 1497 1759 1228 1600 
Q 959 1441 959 1056 
Q 959 750 1161 570 
Q 1363 391 1709 391 
Q 2188 391 2477 730 
Q 2766 1069 2766 1631 
L 2766 1759 
L 2194 1759 
z
M 3341 1997 
L 3341 0 
L 2766 0 
L 2766 531 
Q 2569 213 2275 61 
Q 1981 -91 1556 -91 
Q 1019 -91 701 211 
Q 384 513 384 1019 
Q 384 1609 779 1909 
Q 1175 2209 1959 2209 
L 2766 2209 
L 2766 2266 
Q 2766 2663 2505 2880 
Q 2244 3097 1772 3097 
Q 1472 3097 1187 3025 
Q 903 2953 641 2809 
L 641 3341 
Q 956 3463 1253 3523 
Q 1550 3584 1831 3584 
Q 2591 3584 2966 3190 
Q 3341 2797 3341 1997 
z
" transform="scale(0.015625)"/>
      <path id="DejaVuSans-6c" d="M 603 4863 
L 1178 4863 
L 1178 0 
L 603 0 
L 603 4863 
z
" transform="scale(0.015625)"/>
      <path id="DejaVuSans-20" transform="scale(0.015625)"/>
      <path id="DejaVuSans-46" d="M 628 4666 
L 3309 4666 
L 3309 4134 
L 1259 4134 
L 1259 2759 
L 3109 2759 
L 3109 2228 
L 1259 2228 
L 1259 0 
L 628 0 
L 628 4666 
z
" transform="scale(0.015625)"/>
      <path id="DejaVuSans-75" d="M 544 1381 
L 544 3500 
L 1119 3500 
L 1119 1403 
Q 1119 906 1312 657 
Q 1506 409 1894 409 
Q 2359 409 2629 706 
Q 2900 1003 2900 1516 
L 2900 3500 
L 3475 3500 
L 3475 0 
L 2900 0 
L 2900 538 
Q 2691 219 2414 64 
Q 2138 -91 1772 -91 
Q 1169 -91 856 284 
Q 544 659 544 1381 
z
M 1991 3584 
L 1991 3584 
z
" transform="scale(0.015625)"/>
      <path id="DejaVuSans-78" d="M 3513 3500 
L 2247 1797 
L 3578 0 
L 2900 0 
L 1881 1375 
L 863 0 
L 184 0 
L 1544 1831 
L 300 3500 
L 978 3500 
L 1906 2253 
L 2834 3500 
L 3513 3500 
z
" transform="scale(0.015625)"/>
     </defs>
     <use xlink:href="#DejaVuSans-54"/>
     <use xlink:href="#DejaVuSans-68" x="61.083984"/>
     <use xlink:href="#DejaVuSans-65" x="124.462891"/>
     <use xlink:href="#DejaVuSans-72" x="185.986328"/>
     <use xlink:href="#DejaVuSans-6d" x="225.349609"/>
     <use xlink:href="#DejaVuSans-61" x="322.761719"/>
     <use xlink:href="#DejaVuSans-6c" x="384.041016"/>
     <use xlink:href="#DejaVuSans-20" x="411.824219"/>
     <use xlink:href="#DejaVuSans-46" x="443.611328"/>
     <use xlink:href="#DejaVuSans-6c" x="501.130859"/>
     <use xlink:href="#DejaVuSans-75" x="528.914062"/>
     <use xlink:href="#DejaVuSans-78" x="592.292969"/>
    </g>
   </g>
  </g>
 </g>
 <defs>
  <clipPath id="pfac9a05cc9">
   <rect x="36.465625" y="22.318125" width="357.12" height="266.112"/>
  </clipPath>
 </defs>
</svg>
