<?xml version="1.0" encoding="utf-8" standalone="no"?>
<!DOCTYPE svg PUBLIC "-//W3C//DTD SVG 1.1//EN"
  "http://www.w3.org/Graphics/SVG/1.1/DTD/svg11.dtd">
<svg xmlns:xlink="http://www.w3.org/1999/xlink" width="394.423125pt" height="312.30825pt" viewBox="0 0 394.423125 312.30825" xmlns="http://www.w3.org/2000/svg" version="1.1">
 <metadata>
  <rdf:RDF xmlns:dc="http://purl.org/dc/elements/1.1/" xmlns:cc="http://creativecommons.org/ns#" xmlns:rdf="http://www.w3.org/1999/02/22-rdf-syntax-ns#">
   <cc:Work>
    <dc:type rdf:resource="http://purl.org/dc/dcmitype/StillImage"/>
    <dc:date>2024-03-15T09:45:44.434199</dc:date>
    <dc:format>image/svg+xml</dc:format>
    <dc:creator>
     <cc:Agent>
      <dc:title>Matplotlib v3.8.3, https://matplotlib.org/</dc:title>
     </cc:Agent>
    </dc:creator>
   </cc:Work>
  </rdf:RDF>
 </metadata>
 <defs>
  <style type="text/css">*{stroke-linejoin: round; stroke-linecap: butt}</style>
 </defs>
 <g id="figure_1">
  <g id="patch_1">
   <path d="M 0 312.30825 
L 394.423125 312.30825 
L 394.423125 0 
L 0 0 
z
" style="fill: #ffffff"/>
  </g>
  <g id="axes_1">
   <g id="patch_2">
    <path d="M 30.103125 288.430125 
L 387.223125 288.430125 
L 387.223125 22.318125 
L 30.103125 22.318125 
z
" style="fill: #ffffff"/>
   </g>
   <g id="matplotlib.axis_1">
    <g id="xtick_1">
     <g id="line2d_1">
      <defs>
       <path id="mb762e6915e" d="M 0 0 
L 0 3.5 
" style="stroke: #000000; stroke-width: 0.8"/>
      </defs>
      <g>
       <use xlink:href="#mb762e6915e" x="46.335852" y="288.430125" style="stroke: #000000; stroke-width: 0.8"/>
      </g>
     </g>
     <g id="text_1">
      <!-- 0 -->
      <g transform="translate(43.154602 303.028562) scale(0.1 -0.1)">
       <defs>
        <path id="DejaVuSans-30" d="M 2034 4250 
Q 1547 4250 1301 3770 
Q 1056 3291 1056 2328 
Q 1056 1369 1301 889 
Q 1547 409 2034 409 
Q 2525 409 2770 889 
Q 3016 1369 3016 2328 
Q 3016 3291 2770 3770 
Q 2525 4250 2034 4250 
z
M 2034 4750 
Q 2819 4750 3233 4129 
Q 3647 3509 3647 2328 
Q 3647 1150 3233 529 
Q 2819 -91 2034 -91 
Q 1250 -91 836 529 
Q 422 1150 422 2328 
Q 422 3509 836 4129 
Q 1250 4750 2034 4750 
z
" transform="scale(0.015625)"/>
       </defs>
       <use xlink:href="#DejaVuSans-30"/>
      </g>
     </g>
    </g>
    <g id="xtick_2">
     <g id="line2d_2">
      <g>
       <use xlink:href="#mb762e6915e" x="89.855228" y="288.430125" style="stroke: #000000; stroke-width: 0.8"/>
      </g>
     </g>
     <g id="text_2">
      <!-- 50 -->
      <g transform="translate(83.492728 303.028562) scale(0.1 -0.1)">
       <defs>
        <path id="DejaVuSans-35" d="M 691 4666 
L 3169 4666 
L 3169 4134 
L 1269 4134 
L 1269 2991 
Q 1406 3038 1543 3061 
Q 1681 3084 1819 3084 
Q 2600 3084 3056 2656 
Q 3513 2228 3513 1497 
Q 3513 744 3044 326 
Q 2575 -91 1722 -91 
Q 1428 -91 1123 -41 
Q 819 9 494 109 
L 494 744 
Q 775 591 1075 516 
Q 1375 441 1709 441 
Q 2250 441 2565 725 
Q 2881 1009 2881 1497 
Q 2881 1984 2565 2268 
Q 2250 2553 1709 2553 
Q 1456 2553 1204 2497 
Q 953 2441 691 2322 
L 691 4666 
z
" transform="scale(0.015625)"/>
       </defs>
       <use xlink:href="#DejaVuSans-35"/>
       <use xlink:href="#DejaVuSans-30" x="63.623047"/>
      </g>
     </g>
    </g>
    <g id="xtick_3">
     <g id="line2d_3">
      <g>
       <use xlink:href="#mb762e6915e" x="133.374604" y="288.430125" style="stroke: #000000; stroke-width: 0.8"/>
      </g>
     </g>
     <g id="text_3">
      <!-- 100 -->
      <g transform="translate(123.830854 303.028562) scale(0.1 -0.1)">
       <defs>
        <path id="DejaVuSans-31" d="M 794 531 
L 1825 531 
L 1825 4091 
L 703 3866 
L 703 4441 
L 1819 4666 
L 2450 4666 
L 2450 531 
L 3481 531 
L 3481 0 
L 794 0 
L 794 531 
z
" transform="scale(0.015625)"/>
       </defs>
       <use xlink:href="#DejaVuSans-31"/>
       <use xlink:href="#DejaVuSans-30" x="63.623047"/>
       <use xlink:href="#DejaVuSans-30" x="127.246094"/>
      </g>
     </g>
    </g>
    <g id="xtick_4">
     <g id="line2d_4">
      <g>
       <use xlink:href="#mb762e6915e" x="176.89398" y="288.430125" style="stroke: #000000; stroke-width: 0.8"/>
      </g>
     </g>
     <g id="text_4">
      <!-- 150 -->
      <g transform="translate(167.35023 303.028562) scale(0.1 -0.1)">
       <use xlink:href="#DejaVuSans-31"/>
       <use xlink:href="#DejaVuSans-35" x="63.623047"/>
       <use xlink:href="#DejaVuSans-30" x="127.246094"/>
      </g>
     </g>
    </g>
    <g id="xtick_5">
     <g id="line2d_5">
      <g>
       <use xlink:href="#mb762e6915e" x="220.413357" y="288.430125" style="stroke: #000000; stroke-width: 0.8"/>
      </g>
     </g>
     <g id="text_5">
      <!-- 200 -->
      <g transform="translate(210.869607 303.028562) scale(0.1 -0.1)">
       <defs>
        <path id="DejaVuSans-32" d="M 1228 531 
L 3431 531 
L 3431 0 
L 469 0 
L 469 531 
Q 828 903 1448 1529 
Q 2069 2156 2228 2338 
Q 2531 2678 2651 2914 
Q 2772 3150 2772 3378 
Q 2772 3750 2511 3984 
Q 2250 4219 1831 4219 
Q 1534 4219 1204 4116 
Q 875 4013 500 3803 
L 500 4441 
Q 881 4594 1212 4672 
Q 1544 4750 1819 4750 
Q 2544 4750 2975 4387 
Q 3406 4025 3406 3419 
Q 3406 3131 3298 2873 
Q 3191 2616 2906 2266 
Q 2828 2175 2409 1742 
Q 1991 1309 1228 531 
z
" transform="scale(0.015625)"/>
       </defs>
       <use xlink:href="#DejaVuSans-32"/>
       <use xlink:href="#DejaVuSans-30" x="63.623047"/>
       <use xlink:href="#DejaVuSans-30" x="127.246094"/>
      </g>
     </g>
    </g>
    <g id="xtick_6">
     <g id="line2d_6">
      <g>
       <use xlink:href="#mb762e6915e" x="263.932733" y="288.430125" style="stroke: #000000; stroke-width: 0.8"/>
      </g>
     </g>
     <g id="text_6">
      <!-- 250 -->
      <g transform="translate(254.388983 303.028562) scale(0.1 -0.1)">
       <use xlink:href="#DejaVuSans-32"/>
       <use xlink:href="#DejaVuSans-35" x="63.623047"/>
       <use xlink:href="#DejaVuSans-30" x="127.246094"/>
      </g>
     </g>
    </g>
    <g id="xtick_7">
     <g id="line2d_7">
      <g>
       <use xlink:href="#mb762e6915e" x="307.452109" y="288.430125" style="stroke: #000000; stroke-width: 0.8"/>
      </g>
     </g>
     <g id="text_7">
      <!-- 300 -->
      <g transform="translate(297.908359 303.028562) scale(0.1 -0.1)">
       <defs>
        <path id="DejaVuSans-33" d="M 2597 2516 
Q 3050 2419 3304 2112 
Q 3559 1806 3559 1356 
Q 3559 666 3084 287 
Q 2609 -91 1734 -91 
Q 1441 -91 1130 -33 
Q 819 25 488 141 
L 488 750 
Q 750 597 1062 519 
Q 1375 441 1716 441 
Q 2309 441 2620 675 
Q 2931 909 2931 1356 
Q 2931 1769 2642 2001 
Q 2353 2234 1838 2234 
L 1294 2234 
L 1294 2753 
L 1863 2753 
Q 2328 2753 2575 2939 
Q 2822 3125 2822 3475 
Q 2822 3834 2567 4026 
Q 2313 4219 1838 4219 
Q 1578 4219 1281 4162 
Q 984 4106 628 3988 
L 628 4550 
Q 988 4650 1302 4700 
Q 1616 4750 1894 4750 
Q 2613 4750 3031 4423 
Q 3450 4097 3450 3541 
Q 3450 3153 3228 2886 
Q 3006 2619 2597 2516 
z
" transform="scale(0.015625)"/>
       </defs>
       <use xlink:href="#DejaVuSans-33"/>
       <use xlink:href="#DejaVuSans-30" x="63.623047"/>
       <use xlink:href="#DejaVuSans-30" x="127.246094"/>
      </g>
     </g>
    </g>
    <g id="xtick_8">
     <g id="line2d_8">
      <g>
       <use xlink:href="#mb762e6915e" x="350.971485" y="288.430125" style="stroke: #000000; stroke-width: 0.8"/>
      </g>
     </g>
     <g id="text_8">
      <!-- 350 -->
      <g transform="translate(341.427735 303.028562) scale(0.1 -0.1)">
       <use xlink:href="#DejaVuSans-33"/>
       <use xlink:href="#DejaVuSans-35" x="63.623047"/>
       <use xlink:href="#DejaVuSans-30" x="127.246094"/>
      </g>
     </g>
    </g>
   </g>
   <g id="matplotlib.axis_2">
    <g id="ytick_1">
     <g id="line2d_9">
      <defs>
       <path id="mb466adecdf" d="M 0 0 
L -3.5 0 
" style="stroke: #000000; stroke-width: 0.8"/>
      </defs>
      <g>
       <use xlink:href="#mb466adecdf" x="30.103125" y="276.334125" style="stroke: #000000; stroke-width: 0.8"/>
      </g>
     </g>
     <g id="text_9">
      <!-- 0.0 -->
      <g transform="translate(7.2 280.133344) scale(0.1 -0.1)">
       <defs>
        <path id="DejaVuSans-2e" d="M 684 794 
L 1344 794 
L 1344 0 
L 684 0 
L 684 794 
z
" transform="scale(0.015625)"/>
       </defs>
       <use xlink:href="#DejaVuSans-30"/>
       <use xlink:href="#DejaVuSans-2e" x="63.623047"/>
       <use xlink:href="#DejaVuSans-30" x="95.410156"/>
      </g>
     </g>
    </g>
    <g id="ytick_2">
     <g id="line2d_10">
      <g>
       <use xlink:href="#mb466adecdf" x="30.103125" y="235.345511" style="stroke: #000000; stroke-width: 0.8"/>
      </g>
     </g>
     <g id="text_10">
      <!-- 0.5 -->
      <g transform="translate(7.2 239.14473) scale(0.1 -0.1)">
       <use xlink:href="#DejaVuSans-30"/>
       <use xlink:href="#DejaVuSans-2e" x="63.623047"/>
       <use xlink:href="#DejaVuSans-35" x="95.410156"/>
      </g>
     </g>
    </g>
    <g id="ytick_3">
     <g id="line2d_11">
      <g>
       <use xlink:href="#mb466adecdf" x="30.103125" y="194.356897" style="stroke: #000000; stroke-width: 0.8"/>
      </g>
     </g>
     <g id="text_11">
      <!-- 1.0 -->
      <g transform="translate(7.2 198.156116) scale(0.1 -0.1)">
       <use xlink:href="#DejaVuSans-31"/>
       <use xlink:href="#DejaVuSans-2e" x="63.623047"/>
       <use xlink:href="#DejaVuSans-30" x="95.410156"/>
      </g>
     </g>
    </g>
    <g id="ytick_4">
     <g id="line2d_12">
      <g>
       <use xlink:href="#mb466adecdf" x="30.103125" y="153.368284" style="stroke: #000000; stroke-width: 0.8"/>
      </g>
     </g>
     <g id="text_12">
      <!-- 1.5 -->
      <g transform="translate(7.2 157.167502) scale(0.1 -0.1)">
       <use xlink:href="#DejaVuSans-31"/>
       <use xlink:href="#DejaVuSans-2e" x="63.623047"/>
       <use xlink:href="#DejaVuSans-35" x="95.410156"/>
      </g>
     </g>
    </g>
    <g id="ytick_5">
     <g id="line2d_13">
      <g>
       <use xlink:href="#mb466adecdf" x="30.103125" y="112.37967" style="stroke: #000000; stroke-width: 0.8"/>
      </g>
     </g>
     <g id="text_13">
      <!-- 2.0 -->
      <g transform="translate(7.2 116.178889) scale(0.1 -0.1)">
       <use xlink:href="#DejaVuSans-32"/>
       <use xlink:href="#DejaVuSans-2e" x="63.623047"/>
       <use xlink:href="#DejaVuSans-30" x="95.410156"/>
      </g>
     </g>
    </g>
    <g id="ytick_6">
     <g id="line2d_14">
      <g>
       <use xlink:href="#mb466adecdf" x="30.103125" y="71.391056" style="stroke: #000000; stroke-width: 0.8"/>
      </g>
     </g>
     <g id="text_14">
      <!-- 2.5 -->
      <g transform="translate(7.2 75.190275) scale(0.1 -0.1)">
       <use xlink:href="#DejaVuSans-32"/>
       <use xlink:href="#DejaVuSans-2e" x="63.623047"/>
       <use xlink:href="#DejaVuSans-35" x="95.410156"/>
      </g>
     </g>
    </g>
    <g id="ytick_7">
     <g id="line2d_15">
      <g>
       <use xlink:href="#mb466adecdf" x="30.103125" y="30.402442" style="stroke: #000000; stroke-width: 0.8"/>
      </g>
     </g>
     <g id="text_15">
      <!-- 3.0 -->
      <g transform="translate(7.2 34.201661) scale(0.1 -0.1)">
       <use xlink:href="#DejaVuSans-33"/>
       <use xlink:href="#DejaVuSans-2e" x="63.623047"/>
       <use xlink:href="#DejaVuSans-30" x="95.410156"/>
      </g>
     </g>
    </g>
   </g>
   <g id="line2d_16">
    <path d="M 46.335852 276.334125 
L 53.298952 276.334125 
L 54.16934 256.35503 
L 55.039727 244.97181 
L 55.910115 242.793535 
L 56.780503 239.750677 
L 57.65089 120.48826 
L 58.521278 73.749294 
L 59.391665 101.368284 
L 60.262053 101.504444 
L 61.13244 82.574379 
L 62.873215 161.89763 
L 63.743603 260.60607 
L 64.61399 242.914923 
L 65.484378 236.053367 
L 66.354765 243.336722 
L 67.225153 140.870991 
L 68.09554 89.519007 
L 68.965928 76.146722 
L 69.836315 67.201574 
L 70.706703 79.304155 
L 71.57709 97.433374 
L 72.447478 138.459623 
L 73.317865 265.025252 
L 74.188253 255.548729 
L 75.05864 251.912187 
L 75.929028 246.643614 
L 76.799416 134.612422 
L 77.669803 84.408457 
L 78.540191 50.686215 
L 79.410578 65.446879 
L 81.151353 99.399007 
L 82.021741 164.346227 
L 82.892128 260.000872 
L 84.632903 246.174711 
L 85.503291 250.135842 
L 86.373678 121.35413 
L 87.244066 84.63443 
L 88.114453 84.265329 
L 88.984841 72.072483 
L 89.855228 73.858602 
L 90.725616 118.973379 
L 91.596003 147.933356 
L 92.466391 261.343993 
L 93.336778 253.391113 
L 94.207166 241.074796 
L 95.077553 242.961582 
L 95.947941 137.125335 
L 96.818329 100.476929 
L 97.688716 90.750264 
L 98.559104 90.907928 
L 99.429491 109.062356 
L 100.299879 112.269927 
L 101.170266 166.095402 
L 102.040654 264.475695 
L 102.911041 254.220855 
L 103.781429 248.74192 
L 104.651816 247.903188 
L 105.522204 136.363812 
L 106.392591 97.231982 
L 107.262979 97.314061 
L 108.133366 79.053534 
L 109.874141 135.223226 
L 110.744529 168.780624 
L 111.614916 256.154959 
L 112.485304 237.435707 
L 113.355691 232.527043 
L 114.226079 243.299761 
L 115.096466 126.101882 
L 115.966854 77.304582 
L 116.837242 111.728932 
L 117.707629 104.190963 
L 118.578017 121.107108 
L 119.448404 141.824005 
L 120.318792 176.735512 
L 121.189179 263.895764 
L 122.059567 252.464438 
L 122.929954 247.113238 
L 123.800342 254.276757 
L 124.670729 136.286459 
L 125.541117 77.774889 
L 126.411504 70.582661 
L 128.152279 97.467575 
L 129.022667 132.688883 
L 129.893054 176.325003 
L 130.763442 257.087062 
L 131.633829 246.410206 
L 132.504217 242.91681 
L 133.374604 243.003205 
L 134.244992 121.227847 
L 135.115379 89.693032 
L 135.985767 81.665114 
L 136.856154 88.823056 
L 137.726542 80.050326 
L 138.59693 131.294751 
L 139.467317 170.618495 
L 140.337705 254.859406 
L 141.208092 246.143447 
L 142.07848 233.53496 
L 142.948867 243.11413 
L 143.819255 127.197826 
L 145.56003 85.530246 
L 146.430417 89.147098 
L 147.300805 90.435065 
L 148.171192 103.802178 
L 149.04158 149.607435 
L 149.911967 264.432383 
L 150.782355 261.073551 
L 151.652742 260.760554 
L 152.52313 254.590072 
L 153.393517 123.449084 
L 154.263905 93.087083 
L 155.134292 81.306536 
L 156.00468 56.321061 
L 156.875067 64.958439 
L 157.745455 91.414472 
L 158.615843 147.98716 
L 159.48623 262.840724 
L 160.356618 251.965458 
L 161.227005 238.997532 
L 162.097393 240.326119 
L 162.96778 137.818568 
L 163.838168 96.038584 
L 164.708555 73.509745 
L 165.578943 89.272561 
L 166.44933 95.797537 
L 168.190105 172.345355 
L 169.060493 264.046454 
L 169.93088 253.330169 
L 170.801268 250.649151 
L 171.671655 247.110463 
L 172.542043 138.852265 
L 173.41243 99.136928 
L 174.282818 76.066048 
L 175.153205 82.935674 
L 176.023593 92.348315 
L 176.89398 105.5884 
L 177.764368 157.150925 
L 178.634756 263.154388 
L 180.375531 245.533849 
L 181.245918 248.687453 
L 182.116306 150.86221 
L 182.986693 97.702276 
L 183.857081 82.829693 
L 184.727468 82.226422 
L 185.597856 91.379339 
L 186.468243 120.881552 
L 187.338631 160.395874 
L 188.209018 257.189382 
L 189.079406 247.504875 
L 189.949793 244.818336 
L 190.820181 246.000538 
L 191.690568 136.25172 
L 192.560956 71.509528 
L 193.431343 70.909355 
L 194.301731 77.430551 
L 195.172118 91.17109 
L 196.912893 164.928239 
L 197.783281 261.985471 
L 198.653669 254.366961 
L 199.524056 245.752001 
L 200.394444 251.088575 
L 201.264831 127.811391 
L 202.135219 118.167407 
L 203.005606 130.641926 
L 203.875994 111.205074 
L 204.746381 105.066322 
L 205.616769 127.831091 
L 206.487156 156.683304 
L 207.357544 260.86279 
L 208.227931 238.194584 
L 209.098319 229.19302 
L 209.968706 241.475526 
L 210.839094 147.510848 
L 211.709481 90.382399 
L 212.579869 70.793012 
L 214.320644 102.989997 
L 216.061419 163.718653 
L 216.931806 260.673396 
L 217.802194 250.114844 
L 218.672581 249.528141 
L 219.542969 254.383065 
L 220.413357 131.543201 
L 221.283744 100.266369 
L 222.154132 91.272672 
L 223.024519 94.521663 
L 223.894907 94.917501 
L 224.765294 106.754988 
L 225.635682 158.267262 
L 226.506069 255.900734 
L 227.376457 236.925435 
L 228.246844 227.904479 
L 229.117232 233.676222 
L 229.987619 128.048631 
L 230.858007 98.703586 
L 231.728394 77.134096 
L 232.598782 80.420841 
L 233.469169 85.794003 
L 234.339557 109.154947 
L 235.209944 154.778614 
L 236.080332 254.822074 
L 236.950719 245.731059 
L 237.821107 251.470969 
L 238.691494 249.862388 
L 239.561882 135.743891 
L 240.43227 99.758631 
L 241.302657 87.259824 
L 242.173045 95.756839 
L 243.043432 94.378587 
L 243.91382 115.767546 
L 244.784207 161.723151 
L 245.654595 256.148091 
L 246.524982 241.949329 
L 247.39537 239.388856 
L 248.265757 239.091127 
L 249.136145 131.490591 
L 250.006532 100.771877 
L 250.87692 105.266058 
L 251.747307 95.3177 
L 252.617695 98.918548 
L 253.488082 114.021296 
L 254.35847 169.276775 
L 255.228857 259.458817 
L 256.099245 251.005826 
L 256.969632 239.501563 
L 257.84002 242.94805 
L 258.710407 121.876988 
L 259.580795 101.76352 
L 260.451183 72.117606 
L 261.32157 80.963967 
L 262.191958 79.02386 
L 263.062345 112.195916 
L 263.932733 167.461385 
L 264.80312 255.862947 
L 265.673508 242.218657 
L 266.543895 238.472048 
L 267.414283 253.474619 
L 268.28467 146.361921 
L 269.155058 91.133124 
L 270.025445 68.391745 
L 270.895833 76.451816 
L 271.76622 90.35737 
L 272.636608 120.785319 
L 273.506995 162.317758 
L 274.377383 256.773077 
L 276.118158 228.549346 
L 276.988545 246.667595 
L 277.858933 115.415785 
L 278.72932 66.713486 
L 279.599708 66.786638 
L 280.470096 59.018465 
L 281.340483 82.676531 
L 282.210871 110.74696 
L 283.081258 147.389828 
L 283.951646 262.745953 
L 284.822033 255.35568 
L 286.562808 244.094206 
L 287.433196 132.297139 
L 288.303583 90.212596 
L 290.044358 66.830383 
L 290.914746 67.084458 
L 291.785133 100.154167 
L 292.655521 161.906676 
L 293.525908 264.203056 
L 294.396296 250.462012 
L 295.266683 238.73619 
L 296.137071 239.439814 
L 297.007458 152.815615 
L 298.748233 103.767634 
L 299.618621 102.367787 
L 300.489008 107.97793 
L 301.359396 124.197606 
L 302.229784 166.881423 
L 303.100171 258.208047 
L 303.970559 248.897971 
L 304.840946 243.06507 
L 305.711334 254.311286 
L 306.581721 129.793994 
L 307.452109 91.064273 
L 308.322496 72.740005 
L 310.063271 105.901595 
L 310.933659 127.862527 
L 311.804046 168.907934 
L 312.674434 263.115892 
L 313.544821 251.01665 
L 314.415209 252.059708 
L 315.285596 248.877497 
L 316.155984 126.853544 
L 317.026371 89.910088 
L 317.896759 68.312617 
L 318.767146 85.877698 
L 320.507921 101.624 
L 321.378309 158.85025 
L 322.248697 253.760029 
L 323.119084 239.643477 
L 323.989472 231.039913 
L 324.859859 244.386992 
L 325.730247 131.791126 
L 326.600634 85.526636 
L 327.471022 70.887023 
L 328.341409 77.968107 
L 330.082184 110.212864 
L 330.952572 147.696107 
L 331.822959 259.754266 
L 333.563734 241.010844 
L 334.434122 242.332865 
L 335.304509 144.440105 
L 337.045284 73.146728 
L 337.915672 85.726918 
L 338.786059 84.773878 
L 339.656447 121.287882 
L 340.526834 165.247666 
L 341.397222 255.676467 
L 342.26761 240.127102 
L 343.137997 232.124416 
L 344.008385 241.864318 
L 344.878772 134.026168 
L 345.74916 76.353351 
L 346.619547 65.039775 
L 347.489935 34.414125 
L 348.360322 57.078697 
L 349.23071 65.679663 
L 350.101097 141.608394 
L 350.971485 261.539867 
L 351.841872 246.232817 
L 352.71226 245.091809 
L 353.582647 251.906217 
L 354.453035 133.897779 
L 355.323422 94.303632 
L 356.19381 74.301967 
L 357.064197 70.135652 
L 357.934585 90.61966 
L 358.804972 98.631089 
L 359.67536 153.084748 
L 360.545747 263.184097 
L 361.416135 250.226875 
L 362.286523 243.819338 
L 363.15691 256.260781 
L 364.027298 120.701937 
L 365.768073 74.072833 
L 366.63846 72.68324 
L 367.508848 89.11898 
L 369.249623 168.827183 
L 370.12001 276.334125 
L 370.990398 276.334125 
L 370.990398 276.334125 
" clip-path="url(#p1f5331c65c)" style="fill: none; stroke: #1f77b4; stroke-width: 1.5; stroke-linecap: square"/>
   </g>
   <g id="patch_3">
    <path d="M 30.103125 288.430125 
L 30.103125 22.318125 
" style="fill: none; stroke: #000000; stroke-width: 0.8; stroke-linejoin: miter; stroke-linecap: square"/>
   </g>
   <g id="patch_4">
    <path d="M 387.223125 288.430125 
L 387.223125 22.318125 
" style="fill: none; stroke: #000000; stroke-width: 0.8; stroke-linejoin: miter; stroke-linecap: square"/>
   </g>
   <g id="patch_5">
    <path d="M 30.103125 288.430125 
L 387.223125 288.430125 
" style="fill: none; stroke: #000000; stroke-width: 0.8; stroke-linejoin: miter; stroke-linecap: square"/>
   </g>
   <g id="patch_6">
    <path d="M 30.103125 22.318125 
L 387.223125 22.318125 
" style="fill: none; stroke: #000000; stroke-width: 0.8; stroke-linejoin: miter; stroke-linecap: square"/>
   </g>
   <g id="text_16">
    <!-- Thermal Flux -->
    <g transform="translate(169.575938 16.318125) scale(0.12 -0.12)">
     <defs>
      <path id="DejaVuSans-54" d="M -19 4666 
L 3928 4666 
L 3928 4134 
L 2272 4134 
L 2272 0 
L 1638 0 
L 1638 4134 
L -19 4134 
L -19 4666 
z
" transform="scale(0.015625)"/>
      <path id="DejaVuSans-68" d="M 3513 2113 
L 3513 0 
L 2938 0 
L 2938 2094 
Q 2938 2591 2744 2837 
Q 2550 3084 2163 3084 
Q 1697 3084 1428 2787 
Q 1159 2491 1159 1978 
L 1159 0 
L 581 0 
L 581 4863 
L 1159 4863 
L 1159 2956 
Q 1366 3272 1645 3428 
Q 1925 3584 2291 3584 
Q 2894 3584 3203 3211 
Q 3513 2838 3513 2113 
z
" transform="scale(0.015625)"/>
      <path id="DejaVuSans-65" d="M 3597 1894 
L 3597 1613 
L 953 1613 
Q 991 1019 1311 708 
Q 1631 397 2203 397 
Q 2534 397 2845 478 
Q 3156 559 3463 722 
L 3463 178 
Q 3153 47 2828 -22 
Q 2503 -91 2169 -91 
Q 1331 -91 842 396 
Q 353 884 353 1716 
Q 353 2575 817 3079 
Q 1281 3584 2069 3584 
Q 2775 3584 3186 3129 
Q 3597 2675 3597 1894 
z
M 3022 2063 
Q 3016 2534 2758 2815 
Q 2500 3097 2075 3097 
Q 1594 3097 1305 2825 
Q 1016 2553 972 2059 
L 3022 2063 
z
" transform="scale(0.015625)"/>
      <path id="DejaVuSans-72" d="M 2631 2963 
Q 2534 3019 2420 3045 
Q 2306 3072 2169 3072 
Q 1681 3072 1420 2755 
Q 1159 2438 1159 1844 
L 1159 0 
L 581 0 
L 581 3500 
L 1159 3500 
L 1159 2956 
Q 1341 3275 1631 3429 
Q 1922 3584 2338 3584 
Q 2397 3584 2469 3576 
Q 2541 3569 2628 3553 
L 2631 2963 
z
" transform="scale(0.015625)"/>
      <path id="DejaVuSans-6d" d="M 3328 2828 
Q 3544 3216 3844 3400 
Q 4144 3584 4550 3584 
Q 5097 3584 5394 3201 
Q 5691 2819 5691 2113 
L 5691 0 
L 5113 0 
L 5113 2094 
Q 5113 2597 4934 2840 
Q 4756 3084 4391 3084 
Q 3944 3084 3684 2787 
Q 3425 2491 3425 1978 
L 3425 0 
L 2847 0 
L 2847 2094 
Q 2847 2600 2669 2842 
Q 2491 3084 2119 3084 
Q 1678 3084 1418 2786 
Q 1159 2488 1159 1978 
L 1159 0 
L 581 0 
L 581 3500 
L 1159 3500 
L 1159 2956 
Q 1356 3278 1631 3431 
Q 1906 3584 2284 3584 
Q 2666 3584 2933 3390 
Q 3200 3197 3328 2828 
z
" transform="scale(0.015625)"/>
      <path id="DejaVuSans-61" d="M 2194 1759 
Q 1497 1759 1228 1600 
Q 959 1441 959 1056 
Q 959 750 1161 570 
Q 1363 391 1709 391 
Q 2188 391 2477 730 
Q 2766 1069 2766 1631 
L 2766 1759 
L 2194 1759 
z
M 3341 1997 
L 3341 0 
L 2766 0 
L 2766 531 
Q 2569 213 2275 61 
Q 1981 -91 1556 -91 
Q 1019 -91 701 211 
Q 384 513 384 1019 
Q 384 1609 779 1909 
Q 1175 2209 1959 2209 
L 2766 2209 
L 2766 2266 
Q 2766 2663 2505 2880 
Q 2244 3097 1772 3097 
Q 1472 3097 1187 3025 
Q 903 2953 641 2809 
L 641 3341 
Q 956 3463 1253 3523 
Q 1550 3584 1831 3584 
Q 2591 3584 2966 3190 
Q 3341 2797 3341 1997 
z
" transform="scale(0.015625)"/>
      <path id="DejaVuSans-6c" d="M 603 4863 
L 1178 4863 
L 1178 0 
L 603 0 
L 603 4863 
z
" transform="scale(0.015625)"/>
      <path id="DejaVuSans-20" transform="scale(0.015625)"/>
      <path id="DejaVuSans-46" d="M 628 4666 
L 3309 4666 
L 3309 4134 
L 1259 4134 
L 1259 2759 
L 3109 2759 
L 3109 2228 
L 1259 2228 
L 1259 0 
L 628 0 
L 628 4666 
z
" transform="scale(0.015625)"/>
      <path id="DejaVuSans-75" d="M 544 1381 
L 544 3500 
L 1119 3500 
L 1119 1403 
Q 1119 906 1312 657 
Q 1506 409 1894 409 
Q 2359 409 2629 706 
Q 2900 1003 2900 1516 
L 2900 3500 
L 3475 3500 
L 3475 0 
L 2900 0 
L 2900 538 
Q 2691 219 2414 64 
Q 2138 -91 1772 -91 
Q 1169 -91 856 284 
Q 544 659 544 1381 
z
M 1991 3584 
L 1991 3584 
z
" transform="scale(0.015625)"/>
      <path id="DejaVuSans-78" d="M 3513 3500 
L 2247 1797 
L 3578 0 
L 2900 0 
L 1881 1375 
L 863 0 
L 184 0 
L 1544 1831 
L 300 3500 
L 978 3500 
L 1906 2253 
L 2834 3500 
L 3513 3500 
z
" transform="scale(0.015625)"/>
     </defs>
     <use xlink:href="#DejaVuSans-54"/>
     <use xlink:href="#DejaVuSans-68" x="61.083984"/>
     <use xlink:href="#DejaVuSans-65" x="124.462891"/>
     <use xlink:href="#DejaVuSans-72" x="185.986328"/>
     <use xlink:href="#DejaVuSans-6d" x="225.349609"/>
     <use xlink:href="#DejaVuSans-61" x="322.761719"/>
     <use xlink:href="#DejaVuSans-6c" x="384.041016"/>
     <use xlink:href="#DejaVuSans-20" x="411.824219"/>
     <use xlink:href="#DejaVuSans-46" x="443.611328"/>
     <use xlink:href="#DejaVuSans-6c" x="501.130859"/>
     <use xlink:href="#DejaVuSans-75" x="528.914062"/>
     <use xlink:href="#DejaVuSans-78" x="592.292969"/>
    </g>
   </g>
  </g>
 </g>
 <defs>
  <clipPath id="p1f5331c65c">
   <rect x="30.103125" y="22.318125" width="357.12" height="266.112"/>
  </clipPath>
 </defs>
</svg>
