<?xml version="1.0" encoding="utf-8" standalone="no"?>
<!DOCTYPE svg PUBLIC "-//W3C//DTD SVG 1.1//EN"
  "http://www.w3.org/Graphics/SVG/1.1/DTD/svg11.dtd">
<svg xmlns:xlink="http://www.w3.org/1999/xlink" width="400.785625pt" height="312.30825pt" viewBox="0 0 400.785625 312.30825" xmlns="http://www.w3.org/2000/svg" version="1.1">
 <metadata>
  <rdf:RDF xmlns:dc="http://purl.org/dc/elements/1.1/" xmlns:cc="http://creativecommons.org/ns#" xmlns:rdf="http://www.w3.org/1999/02/22-rdf-syntax-ns#">
   <cc:Work>
    <dc:type rdf:resource="http://purl.org/dc/dcmitype/StillImage"/>
    <dc:date>2024-03-16T15:28:09.868313</dc:date>
    <dc:format>image/svg+xml</dc:format>
    <dc:creator>
     <cc:Agent>
      <dc:title>Matplotlib v3.8.3, https://matplotlib.org/</dc:title>
     </cc:Agent>
    </dc:creator>
   </cc:Work>
  </rdf:RDF>
 </metadata>
 <defs>
  <style type="text/css">*{stroke-linejoin: round; stroke-linecap: butt}</style>
 </defs>
 <g id="figure_1">
  <g id="patch_1">
   <path d="M 0 312.30825 
L 400.785625 312.30825 
L 400.785625 0 
L 0 0 
z
" style="fill: #ffffff"/>
  </g>
  <g id="axes_1">
   <g id="patch_2">
    <path d="M 36.465625 288.430125 
L 393.585625 288.430125 
L 393.585625 22.318125 
L 36.465625 22.318125 
z
" style="fill: #ffffff"/>
   </g>
   <g id="matplotlib.axis_1">
    <g id="xtick_1">
     <g id="line2d_1">
      <defs>
       <path id="m3997b1b1cf" d="M 0 0 
L 0 3.5 
" style="stroke: #000000; stroke-width: 0.8"/>
      </defs>
      <g>
       <use xlink:href="#m3997b1b1cf" x="52.698352" y="288.430125" style="stroke: #000000; stroke-width: 0.8"/>
      </g>
     </g>
     <g id="text_1">
      <!-- 0 -->
      <g transform="translate(49.517102 303.028562) scale(0.1 -0.1)">
       <defs>
        <path id="DejaVuSans-30" d="M 2034 4250 
Q 1547 4250 1301 3770 
Q 1056 3291 1056 2328 
Q 1056 1369 1301 889 
Q 1547 409 2034 409 
Q 2525 409 2770 889 
Q 3016 1369 3016 2328 
Q 3016 3291 2770 3770 
Q 2525 4250 2034 4250 
z
M 2034 4750 
Q 2819 4750 3233 4129 
Q 3647 3509 3647 2328 
Q 3647 1150 3233 529 
Q 2819 -91 2034 -91 
Q 1250 -91 836 529 
Q 422 1150 422 2328 
Q 422 3509 836 4129 
Q 1250 4750 2034 4750 
z
" transform="scale(0.015625)"/>
       </defs>
       <use xlink:href="#DejaVuSans-30"/>
      </g>
     </g>
    </g>
    <g id="xtick_2">
     <g id="line2d_2">
      <g>
       <use xlink:href="#m3997b1b1cf" x="92.582203" y="288.430125" style="stroke: #000000; stroke-width: 0.8"/>
      </g>
     </g>
     <g id="text_2">
      <!-- 50 -->
      <g transform="translate(86.219703 303.028562) scale(0.1 -0.1)">
       <defs>
        <path id="DejaVuSans-35" d="M 691 4666 
L 3169 4666 
L 3169 4134 
L 1269 4134 
L 1269 2991 
Q 1406 3038 1543 3061 
Q 1681 3084 1819 3084 
Q 2600 3084 3056 2656 
Q 3513 2228 3513 1497 
Q 3513 744 3044 326 
Q 2575 -91 1722 -91 
Q 1428 -91 1123 -41 
Q 819 9 494 109 
L 494 744 
Q 775 591 1075 516 
Q 1375 441 1709 441 
Q 2250 441 2565 725 
Q 2881 1009 2881 1497 
Q 2881 1984 2565 2268 
Q 2250 2553 1709 2553 
Q 1456 2553 1204 2497 
Q 953 2441 691 2322 
L 691 4666 
z
" transform="scale(0.015625)"/>
       </defs>
       <use xlink:href="#DejaVuSans-35"/>
       <use xlink:href="#DejaVuSans-30" x="63.623047"/>
      </g>
     </g>
    </g>
    <g id="xtick_3">
     <g id="line2d_3">
      <g>
       <use xlink:href="#m3997b1b1cf" x="132.466054" y="288.430125" style="stroke: #000000; stroke-width: 0.8"/>
      </g>
     </g>
     <g id="text_3">
      <!-- 100 -->
      <g transform="translate(122.922304 303.028562) scale(0.1 -0.1)">
       <defs>
        <path id="DejaVuSans-31" d="M 794 531 
L 1825 531 
L 1825 4091 
L 703 3866 
L 703 4441 
L 1819 4666 
L 2450 4666 
L 2450 531 
L 3481 531 
L 3481 0 
L 794 0 
L 794 531 
z
" transform="scale(0.015625)"/>
       </defs>
       <use xlink:href="#DejaVuSans-31"/>
       <use xlink:href="#DejaVuSans-30" x="63.623047"/>
       <use xlink:href="#DejaVuSans-30" x="127.246094"/>
      </g>
     </g>
    </g>
    <g id="xtick_4">
     <g id="line2d_4">
      <g>
       <use xlink:href="#m3997b1b1cf" x="172.349905" y="288.430125" style="stroke: #000000; stroke-width: 0.8"/>
      </g>
     </g>
     <g id="text_4">
      <!-- 150 -->
      <g transform="translate(162.806155 303.028562) scale(0.1 -0.1)">
       <use xlink:href="#DejaVuSans-31"/>
       <use xlink:href="#DejaVuSans-35" x="63.623047"/>
       <use xlink:href="#DejaVuSans-30" x="127.246094"/>
      </g>
     </g>
    </g>
    <g id="xtick_5">
     <g id="line2d_5">
      <g>
       <use xlink:href="#m3997b1b1cf" x="212.233755" y="288.430125" style="stroke: #000000; stroke-width: 0.8"/>
      </g>
     </g>
     <g id="text_5">
      <!-- 200 -->
      <g transform="translate(202.690005 303.028562) scale(0.1 -0.1)">
       <defs>
        <path id="DejaVuSans-32" d="M 1228 531 
L 3431 531 
L 3431 0 
L 469 0 
L 469 531 
Q 828 903 1448 1529 
Q 2069 2156 2228 2338 
Q 2531 2678 2651 2914 
Q 2772 3150 2772 3378 
Q 2772 3750 2511 3984 
Q 2250 4219 1831 4219 
Q 1534 4219 1204 4116 
Q 875 4013 500 3803 
L 500 4441 
Q 881 4594 1212 4672 
Q 1544 4750 1819 4750 
Q 2544 4750 2975 4387 
Q 3406 4025 3406 3419 
Q 3406 3131 3298 2873 
Q 3191 2616 2906 2266 
Q 2828 2175 2409 1742 
Q 1991 1309 1228 531 
z
" transform="scale(0.015625)"/>
       </defs>
       <use xlink:href="#DejaVuSans-32"/>
       <use xlink:href="#DejaVuSans-30" x="63.623047"/>
       <use xlink:href="#DejaVuSans-30" x="127.246094"/>
      </g>
     </g>
    </g>
    <g id="xtick_6">
     <g id="line2d_6">
      <g>
       <use xlink:href="#m3997b1b1cf" x="252.117606" y="288.430125" style="stroke: #000000; stroke-width: 0.8"/>
      </g>
     </g>
     <g id="text_6">
      <!-- 250 -->
      <g transform="translate(242.573856 303.028562) scale(0.1 -0.1)">
       <use xlink:href="#DejaVuSans-32"/>
       <use xlink:href="#DejaVuSans-35" x="63.623047"/>
       <use xlink:href="#DejaVuSans-30" x="127.246094"/>
      </g>
     </g>
    </g>
    <g id="xtick_7">
     <g id="line2d_7">
      <g>
       <use xlink:href="#m3997b1b1cf" x="292.001457" y="288.430125" style="stroke: #000000; stroke-width: 0.8"/>
      </g>
     </g>
     <g id="text_7">
      <!-- 300 -->
      <g transform="translate(282.457707 303.028562) scale(0.1 -0.1)">
       <defs>
        <path id="DejaVuSans-33" d="M 2597 2516 
Q 3050 2419 3304 2112 
Q 3559 1806 3559 1356 
Q 3559 666 3084 287 
Q 2609 -91 1734 -91 
Q 1441 -91 1130 -33 
Q 819 25 488 141 
L 488 750 
Q 750 597 1062 519 
Q 1375 441 1716 441 
Q 2309 441 2620 675 
Q 2931 909 2931 1356 
Q 2931 1769 2642 2001 
Q 2353 2234 1838 2234 
L 1294 2234 
L 1294 2753 
L 1863 2753 
Q 2328 2753 2575 2939 
Q 2822 3125 2822 3475 
Q 2822 3834 2567 4026 
Q 2313 4219 1838 4219 
Q 1578 4219 1281 4162 
Q 984 4106 628 3988 
L 628 4550 
Q 988 4650 1302 4700 
Q 1616 4750 1894 4750 
Q 2613 4750 3031 4423 
Q 3450 4097 3450 3541 
Q 3450 3153 3228 2886 
Q 3006 2619 2597 2516 
z
" transform="scale(0.015625)"/>
       </defs>
       <use xlink:href="#DejaVuSans-33"/>
       <use xlink:href="#DejaVuSans-30" x="63.623047"/>
       <use xlink:href="#DejaVuSans-30" x="127.246094"/>
      </g>
     </g>
    </g>
    <g id="xtick_8">
     <g id="line2d_8">
      <g>
       <use xlink:href="#m3997b1b1cf" x="331.885308" y="288.430125" style="stroke: #000000; stroke-width: 0.8"/>
      </g>
     </g>
     <g id="text_8">
      <!-- 350 -->
      <g transform="translate(322.341558 303.028562) scale(0.1 -0.1)">
       <use xlink:href="#DejaVuSans-33"/>
       <use xlink:href="#DejaVuSans-35" x="63.623047"/>
       <use xlink:href="#DejaVuSans-30" x="127.246094"/>
      </g>
     </g>
    </g>
    <g id="xtick_9">
     <g id="line2d_9">
      <g>
       <use xlink:href="#m3997b1b1cf" x="371.769159" y="288.430125" style="stroke: #000000; stroke-width: 0.8"/>
      </g>
     </g>
     <g id="text_9">
      <!-- 400 -->
      <g transform="translate(362.225409 303.028562) scale(0.1 -0.1)">
       <defs>
        <path id="DejaVuSans-34" d="M 2419 4116 
L 825 1625 
L 2419 1625 
L 2419 4116 
z
M 2253 4666 
L 3047 4666 
L 3047 1625 
L 3713 1625 
L 3713 1100 
L 3047 1100 
L 3047 0 
L 2419 0 
L 2419 1100 
L 313 1100 
L 313 1709 
L 2253 4666 
z
" transform="scale(0.015625)"/>
       </defs>
       <use xlink:href="#DejaVuSans-34"/>
       <use xlink:href="#DejaVuSans-30" x="63.623047"/>
       <use xlink:href="#DejaVuSans-30" x="127.246094"/>
      </g>
     </g>
    </g>
   </g>
   <g id="matplotlib.axis_2">
    <g id="ytick_1">
     <g id="line2d_10">
      <defs>
       <path id="m5e63af1777" d="M 0 0 
L -3.5 0 
" style="stroke: #000000; stroke-width: 0.8"/>
      </defs>
      <g>
       <use xlink:href="#m5e63af1777" x="36.465625" y="280.080621" style="stroke: #000000; stroke-width: 0.8"/>
      </g>
     </g>
     <g id="text_10">
      <!-- 10.5 -->
      <g transform="translate(7.2 283.87984) scale(0.1 -0.1)">
       <defs>
        <path id="DejaVuSans-2e" d="M 684 794 
L 1344 794 
L 1344 0 
L 684 0 
L 684 794 
z
" transform="scale(0.015625)"/>
       </defs>
       <use xlink:href="#DejaVuSans-31"/>
       <use xlink:href="#DejaVuSans-30" x="63.623047"/>
       <use xlink:href="#DejaVuSans-2e" x="127.246094"/>
       <use xlink:href="#DejaVuSans-35" x="159.033203"/>
      </g>
     </g>
    </g>
    <g id="ytick_2">
     <g id="line2d_11">
      <g>
       <use xlink:href="#m5e63af1777" x="36.465625" y="246.944075" style="stroke: #000000; stroke-width: 0.8"/>
      </g>
     </g>
     <g id="text_11">
      <!-- 11.0 -->
      <g transform="translate(7.2 250.743294) scale(0.1 -0.1)">
       <use xlink:href="#DejaVuSans-31"/>
       <use xlink:href="#DejaVuSans-31" x="63.623047"/>
       <use xlink:href="#DejaVuSans-2e" x="127.246094"/>
       <use xlink:href="#DejaVuSans-30" x="159.033203"/>
      </g>
     </g>
    </g>
    <g id="ytick_3">
     <g id="line2d_12">
      <g>
       <use xlink:href="#m5e63af1777" x="36.465625" y="213.80753" style="stroke: #000000; stroke-width: 0.8"/>
      </g>
     </g>
     <g id="text_12">
      <!-- 11.5 -->
      <g transform="translate(7.2 217.606748) scale(0.1 -0.1)">
       <use xlink:href="#DejaVuSans-31"/>
       <use xlink:href="#DejaVuSans-31" x="63.623047"/>
       <use xlink:href="#DejaVuSans-2e" x="127.246094"/>
       <use xlink:href="#DejaVuSans-35" x="159.033203"/>
      </g>
     </g>
    </g>
    <g id="ytick_4">
     <g id="line2d_13">
      <g>
       <use xlink:href="#m5e63af1777" x="36.465625" y="180.670984" style="stroke: #000000; stroke-width: 0.8"/>
      </g>
     </g>
     <g id="text_13">
      <!-- 12.0 -->
      <g transform="translate(7.2 184.470202) scale(0.1 -0.1)">
       <use xlink:href="#DejaVuSans-31"/>
       <use xlink:href="#DejaVuSans-32" x="63.623047"/>
       <use xlink:href="#DejaVuSans-2e" x="127.246094"/>
       <use xlink:href="#DejaVuSans-30" x="159.033203"/>
      </g>
     </g>
    </g>
    <g id="ytick_5">
     <g id="line2d_14">
      <g>
       <use xlink:href="#m5e63af1777" x="36.465625" y="147.534438" style="stroke: #000000; stroke-width: 0.8"/>
      </g>
     </g>
     <g id="text_14">
      <!-- 12.5 -->
      <g transform="translate(7.2 151.333657) scale(0.1 -0.1)">
       <use xlink:href="#DejaVuSans-31"/>
       <use xlink:href="#DejaVuSans-32" x="63.623047"/>
       <use xlink:href="#DejaVuSans-2e" x="127.246094"/>
       <use xlink:href="#DejaVuSans-35" x="159.033203"/>
      </g>
     </g>
    </g>
    <g id="ytick_6">
     <g id="line2d_15">
      <g>
       <use xlink:href="#m5e63af1777" x="36.465625" y="114.397892" style="stroke: #000000; stroke-width: 0.8"/>
      </g>
     </g>
     <g id="text_15">
      <!-- 13.0 -->
      <g transform="translate(7.2 118.197111) scale(0.1 -0.1)">
       <use xlink:href="#DejaVuSans-31"/>
       <use xlink:href="#DejaVuSans-33" x="63.623047"/>
       <use xlink:href="#DejaVuSans-2e" x="127.246094"/>
       <use xlink:href="#DejaVuSans-30" x="159.033203"/>
      </g>
     </g>
    </g>
    <g id="ytick_7">
     <g id="line2d_16">
      <g>
       <use xlink:href="#m5e63af1777" x="36.465625" y="81.261346" style="stroke: #000000; stroke-width: 0.8"/>
      </g>
     </g>
     <g id="text_16">
      <!-- 13.5 -->
      <g transform="translate(7.2 85.060565) scale(0.1 -0.1)">
       <use xlink:href="#DejaVuSans-31"/>
       <use xlink:href="#DejaVuSans-33" x="63.623047"/>
       <use xlink:href="#DejaVuSans-2e" x="127.246094"/>
       <use xlink:href="#DejaVuSans-35" x="159.033203"/>
      </g>
     </g>
    </g>
    <g id="ytick_8">
     <g id="line2d_17">
      <g>
       <use xlink:href="#m5e63af1777" x="36.465625" y="48.124801" style="stroke: #000000; stroke-width: 0.8"/>
      </g>
     </g>
     <g id="text_17">
      <!-- 14.0 -->
      <g transform="translate(7.2 51.924019) scale(0.1 -0.1)">
       <use xlink:href="#DejaVuSans-31"/>
       <use xlink:href="#DejaVuSans-34" x="63.623047"/>
       <use xlink:href="#DejaVuSans-2e" x="127.246094"/>
       <use xlink:href="#DejaVuSans-30" x="159.033203"/>
      </g>
     </g>
    </g>
   </g>
   <g id="line2d_18">
    <path d="M 52.698352 167.870491 
L 53.496029 236.937611 
L 54.293706 118.381418 
L 55.091383 197.469788 
L 55.88906 212.905799 
L 56.686737 186.206839 
L 57.484414 194.60177 
L 58.282091 177.998115 
L 59.079768 178.316982 
L 59.877445 111.065965 
L 60.675122 148.169886 
L 61.472799 78.648089 
L 62.270476 114.382284 
L 63.068153 207.234787 
L 63.86583 134.459772 
L 64.663508 161.775167 
L 65.461185 173.74105 
L 66.258862 198.630454 
L 67.056539 235.483454 
L 67.854216 209.267135 
L 68.651893 192.772908 
L 69.44957 141.26333 
L 70.247247 166.85135 
L 71.044924 100.970044 
L 71.842601 117.39027 
L 72.640278 106.417931 
L 73.437955 59.787126 
L 75.033309 159.153284 
L 75.830986 175.404969 
L 76.628663 188.551642 
L 77.42634 180.950602 
L 78.224017 188.161771 
L 79.021694 97.194625 
L 79.819371 189.751545 
L 80.617048 107.340925 
L 81.414725 87.513732 
L 82.212402 180.024331 
L 83.010079 104.342823 
L 83.807756 174.116104 
L 84.605433 210.255101 
L 85.40311 184.909502 
L 86.200787 190.557395 
L 86.998464 192.670645 
L 87.796141 183.163953 
L 88.593818 119.97205 
L 89.391495 123.750584 
L 90.189172 48.876758 
L 90.986849 67.175022 
L 91.784526 190.760496 
L 92.582203 138.772466 
L 93.37988 186.18534 
L 94.177557 215.097679 
L 94.975234 138.647308 
L 95.772911 156.384546 
L 96.570588 148.344669 
L 97.368265 147.026233 
L 98.165942 47.158266 
L 98.963619 144.57309 
L 99.761296 102.436106 
L 100.558973 52.596493 
L 101.35665 99.503009 
L 102.154327 84.723496 
L 102.952004 175.350996 
L 103.749681 205.816398 
L 104.547358 211.018021 
L 105.345035 232.51493 
L 106.142712 155.650338 
L 106.940389 157.658007 
L 107.738066 57.053944 
L 108.535743 143.609841 
L 109.33342 107.645323 
L 110.131097 101.675586 
L 110.928774 138.987353 
L 111.726451 54.802994 
L 112.524128 174.960622 
L 113.321805 191.795885 
L 114.119482 193.862329 
L 114.91716 158.324171 
L 115.714837 137.894294 
L 116.512514 105.936561 
L 117.310191 36.18709 
L 118.107868 146.493064 
L 118.905545 76.762221 
L 119.703222 78.318311 
L 120.500899 171.805283 
L 121.298576 97.598012 
L 122.096253 151.905271 
L 122.89393 160.698148 
L 123.691607 125.151392 
L 124.489284 118.671378 
L 125.286961 136.060695 
L 126.084638 171.946305 
L 126.882315 93.546446 
L 127.679992 169.569426 
L 128.477669 113.436215 
L 130.073023 196.310047 
L 130.8707 147.559172 
L 131.668377 212.089798 
L 132.466054 213.158339 
L 133.263731 247.47976 
L 134.061408 196.649067 
L 135.656762 163.471676 
L 136.454439 61.369982 
L 137.252116 168.91921 
L 138.049793 82.353204 
L 138.84747 34.414125 
L 139.645147 119.336901 
L 140.442824 80.505627 
L 141.240501 110.3712 
L 142.038178 193.73667 
L 142.835855 180.347605 
L 143.633532 189.49893 
L 144.431209 181.688264 
L 145.228886 176.574839 
L 146.026563 82.741148 
L 146.82424 156.435916 
L 147.621917 57.580118 
L 148.419594 75.724382 
L 149.217271 178.649784 
L 150.014948 95.134172 
L 150.812625 149.344775 
L 151.610302 154.33013 
L 152.407979 175.774427 
L 153.205656 174.234717 
L 154.003333 191.697161 
L 154.80101 154.756373 
L 155.598687 91.900074 
L 156.396364 131.705163 
L 157.194041 93.950106 
L 157.991718 127.486509 
L 158.789395 249.090933 
L 159.587072 170.006832 
L 160.384749 207.078028 
L 161.182426 263.174159 
L 161.980103 276.334125 
L 162.77778 254.006727 
L 163.575457 242.613971 
L 164.373134 180.214567 
L 165.170812 141.730882 
L 165.968489 213.24477 
L 166.766166 156.218641 
L 167.563843 148.819396 
L 168.36152 124.149235 
L 169.159197 49.606535 
L 169.956874 137.407728 
L 170.754551 159.555043 
L 171.552228 178.020404 
L 172.349905 171.369377 
L 173.147582 138.663801 
L 173.945259 161.27623 
L 174.742936 43.336275 
L 175.540613 167.192149 
L 176.33829 85.171068 
L 177.135967 64.255212 
L 177.933644 148.125311 
L 178.731321 78.602511 
L 179.528998 178.194796 
L 180.326675 196.86355 
L 181.124352 203.531946 
L 181.922029 212.500592 
L 182.719706 209.516822 
L 183.517383 219.002555 
L 184.31506 177.488479 
L 185.112737 222.193836 
L 185.910414 161.141556 
L 186.708091 123.394045 
L 187.505768 186.294731 
L 188.303445 134.534084 
L 189.101122 163.878761 
L 189.898799 200.601272 
L 190.696476 206.035564 
L 191.494153 197.897603 
L 192.29183 193.703962 
L 193.089507 206.346655 
L 193.887184 158.674173 
L 194.684861 193.136588 
L 195.482538 131.366451 
L 196.280215 101.01504 
L 197.077892 181.327738 
L 197.875569 115.970231 
L 198.673246 191.27432 
L 199.470923 138.532625 
L 200.2686 171.526422 
L 201.066277 165.060894 
L 201.863954 190.052984 
L 202.661631 242.899571 
L 203.459308 172.540255 
L 204.256985 219.349802 
L 205.054662 117.963726 
L 205.852339 56.980127 
L 206.650016 92.197637 
L 207.447693 80.501909 
L 208.24537 111.60029 
L 209.043047 165.633098 
L 209.840724 108.473063 
L 210.638401 179.339358 
L 211.436078 163.564118 
L 212.233755 151.643862 
L 213.031432 94.788106 
L 213.829109 225.206334 
L 214.626786 180.721822 
L 215.424464 159.03037 
L 216.222141 236.557616 
L 217.019818 213.372829 
L 217.817495 212.449363 
L 218.615172 229.280836 
L 219.412849 267.652395 
L 220.210526 245.506026 
L 221.008203 264.492216 
L 221.80588 241.638736 
L 222.603557 132.197133 
L 223.401234 227.751743 
L 224.198911 150.806703 
L 224.996588 153.636295 
L 225.794265 182.237389 
L 226.591942 108.50186 
L 227.389619 186.742415 
L 228.187296 195.750671 
L 228.984973 217.783534 
L 229.78265 196.346235 
L 230.580327 200.179534 
L 231.378004 162.254548 
L 232.175681 100.436223 
L 232.973358 221.616702 
L 233.771035 168.461691 
L 234.568712 158.954909 
L 235.366389 195.631414 
L 236.164066 105.007102 
L 236.961743 160.862557 
L 237.75942 173.138073 
L 238.557097 165.47643 
L 239.354774 212.090148 
L 240.152451 216.834247 
L 240.950128 192.212883 
L 241.747805 148.991696 
L 242.545482 158.646012 
L 243.343159 85.929948 
L 244.938513 145.493813 
L 245.73619 82.406846 
L 246.533867 97.120407 
L 247.331544 182.987849 
L 248.129221 200.99027 
L 248.926898 230.12936 
L 249.724575 198.901053 
L 250.522252 175.336519 
L 251.319929 127.092499 
L 252.117606 114.130741 
L 252.915283 57.103819 
L 253.71296 118.071296 
L 254.510637 215.897456 
L 255.308314 115.848093 
L 256.105991 216.191626 
L 256.903668 231.678909 
L 257.701345 176.383692 
L 258.499022 219.004103 
L 259.296699 224.820151 
L 260.094376 238.044653 
L 260.892053 204.381623 
L 261.68973 272.096591 
L 262.487407 190.351482 
L 263.285084 210.815671 
L 264.082761 225.845705 
L 264.880438 161.810911 
L 266.475793 235.349871 
L 267.27347 236.471071 
L 268.071147 232.286781 
L 268.868824 207.924712 
L 269.666501 212.600654 
L 270.464178 123.273846 
L 271.261855 223.422698 
L 272.059532 158.201203 
L 272.857209 148.203276 
L 273.654886 219.32339 
L 274.452563 167.941396 
L 275.25024 183.213684 
L 276.047917 215.236398 
L 276.845594 172.640763 
L 277.643271 199.001177 
L 278.440948 243.165676 
L 279.238625 162.676852 
L 280.036302 130.270065 
L 280.833979 197.113748 
L 281.631656 177.784104 
L 283.22701 263.65428 
L 284.024687 133.457421 
L 284.822364 196.834552 
L 285.620041 211.737677 
L 286.417718 170.17528 
L 287.215395 238.360276 
L 288.013072 227.19218 
L 288.810749 212.562566 
L 289.608426 148.99858 
L 290.406103 225.651067 
L 291.20378 90.941184 
L 292.001457 68.360941 
L 292.799134 149.171907 
L 293.596811 122.666087 
L 294.394488 182.030165 
L 295.192165 169.364068 
L 295.989842 134.618056 
L 296.787519 129.978145 
L 297.585196 139.777056 
L 298.382873 143.219543 
L 299.18055 97.315407 
L 299.978227 162.933854 
L 300.775904 106.673791 
L 301.573581 133.291334 
L 302.371258 128.492915 
L 303.168935 107.210646 
L 303.966612 156.394208 
L 304.764289 143.612018 
L 305.561966 150.738094 
L 306.359643 177.979384 
L 307.15732 190.053735 
L 307.954997 197.906534 
L 308.752674 116.021423 
L 309.550351 127.467269 
L 310.348028 34.6471 
L 311.145705 69.963135 
L 311.943382 184.555688 
L 312.741059 109.208116 
L 313.538736 167.751024 
L 314.336413 179.990051 
L 315.13409 178.090851 
L 315.931768 188.41026 
L 316.729445 207.068564 
L 317.527122 204.892723 
L 318.324799 131.254274 
L 319.122476 197.826199 
L 319.920153 132.658719 
L 320.71783 117.748289 
L 321.515507 172.827799 
L 322.313184 48.344674 
L 323.110861 126.864119 
L 323.908538 184.421119 
L 324.706215 189.988243 
L 325.503892 182.452755 
L 326.301569 178.699286 
L 327.099246 146.223934 
L 327.896923 93.663582 
L 328.6946 173.721663 
L 329.492277 73.864157 
L 330.289954 102.478873 
L 331.087631 234.602515 
L 331.885308 163.626938 
L 332.682985 229.006086 
L 333.480662 253.291546 
L 334.278339 247.058437 
L 335.076016 236.803313 
L 335.873693 187.418677 
L 336.67137 211.515216 
L 337.469047 146.88304 
L 338.266724 182.598107 
L 339.064401 100.246645 
L 339.862078 67.147052 
L 340.659755 156.563767 
L 341.457432 146.801702 
L 342.255109 149.744933 
L 343.052786 125.170219 
L 343.850463 137.801778 
L 344.64814 182.873185 
L 345.445817 192.490099 
L 346.243494 183.519912 
L 347.041171 82.648358 
L 347.838848 162.360134 
L 348.636525 88.82826 
L 349.434202 99.080752 
L 350.231879 159.214399 
L 351.029556 110.755308 
L 351.827233 163.041277 
L 352.62491 191.586588 
L 353.422587 238.709673 
L 355.017941 128.727412 
L 355.815618 144.876695 
L 356.613295 103.052363 
L 357.410972 232.118143 
L 358.208649 135.657842 
L 359.006326 130.844846 
L 359.804003 222.661789 
L 360.60168 202.336719 
L 361.399357 262.496088 
L 362.994711 231.996126 
L 363.792388 213.733985 
L 364.590065 243.312423 
L 365.387742 226.289258 
L 366.18542 166.214085 
L 366.983097 273.356651 
L 367.780774 198.467577 
L 368.578451 174.616538 
L 369.376128 230.928899 
L 370.173805 165.687194 
L 370.971482 185.482145 
L 371.769159 186.252343 
L 372.566836 219.085654 
L 373.364513 125.425015 
L 374.16219 153.376798 
L 374.959867 114.193681 
L 375.757544 50.756134 
L 376.555221 177.088436 
L 377.352898 128.355329 
L 377.352898 128.355329 
" clip-path="url(#pb10fe60c06)" style="fill: none; stroke: #1f77b4; stroke-width: 1.5; stroke-linecap: square"/>
   </g>
   <g id="patch_3">
    <path d="M 36.465625 288.430125 
L 36.465625 22.318125 
" style="fill: none; stroke: #000000; stroke-width: 0.8; stroke-linejoin: miter; stroke-linecap: square"/>
   </g>
   <g id="patch_4">
    <path d="M 393.585625 288.430125 
L 393.585625 22.318125 
" style="fill: none; stroke: #000000; stroke-width: 0.8; stroke-linejoin: miter; stroke-linecap: square"/>
   </g>
   <g id="patch_5">
    <path d="M 36.465625 288.430125 
L 393.585625 288.430125 
" style="fill: none; stroke: #000000; stroke-width: 0.8; stroke-linejoin: miter; stroke-linecap: square"/>
   </g>
   <g id="patch_6">
    <path d="M 36.465625 22.318125 
L 393.585625 22.318125 
" style="fill: none; stroke: #000000; stroke-width: 0.8; stroke-linejoin: miter; stroke-linecap: square"/>
   </g>
   <g id="text_18">
    <!-- Thermal Flux -->
    <g transform="translate(175.938438 16.318125) scale(0.12 -0.12)">
     <defs>
      <path id="DejaVuSans-54" d="M -19 4666 
L 3928 4666 
L 3928 4134 
L 2272 4134 
L 2272 0 
L 1638 0 
L 1638 4134 
L -19 4134 
L -19 4666 
z
" transform="scale(0.015625)"/>
      <path id="DejaVuSans-68" d="M 3513 2113 
L 3513 0 
L 2938 0 
L 2938 2094 
Q 2938 2591 2744 2837 
Q 2550 3084 2163 3084 
Q 1697 3084 1428 2787 
Q 1159 2491 1159 1978 
L 1159 0 
L 581 0 
L 581 4863 
L 1159 4863 
L 1159 2956 
Q 1366 3272 1645 3428 
Q 1925 3584 2291 3584 
Q 2894 3584 3203 3211 
Q 3513 2838 3513 2113 
z
" transform="scale(0.015625)"/>
      <path id="DejaVuSans-65" d="M 3597 1894 
L 3597 1613 
L 953 1613 
Q 991 1019 1311 708 
Q 1631 397 2203 397 
Q 2534 397 2845 478 
Q 3156 559 3463 722 
L 3463 178 
Q 3153 47 2828 -22 
Q 2503 -91 2169 -91 
Q 1331 -91 842 396 
Q 353 884 353 1716 
Q 353 2575 817 3079 
Q 1281 3584 2069 3584 
Q 2775 3584 3186 3129 
Q 3597 2675 3597 1894 
z
M 3022 2063 
Q 3016 2534 2758 2815 
Q 2500 3097 2075 3097 
Q 1594 3097 1305 2825 
Q 1016 2553 972 2059 
L 3022 2063 
z
" transform="scale(0.015625)"/>
      <path id="DejaVuSans-72" d="M 2631 2963 
Q 2534 3019 2420 3045 
Q 2306 3072 2169 3072 
Q 1681 3072 1420 2755 
Q 1159 2438 1159 1844 
L 1159 0 
L 581 0 
L 581 3500 
L 1159 3500 
L 1159 2956 
Q 1341 3275 1631 3429 
Q 1922 3584 2338 3584 
Q 2397 3584 2469 3576 
Q 2541 3569 2628 3553 
L 2631 2963 
z
" transform="scale(0.015625)"/>
      <path id="DejaVuSans-6d" d="M 3328 2828 
Q 3544 3216 3844 3400 
Q 4144 3584 4550 3584 
Q 5097 3584 5394 3201 
Q 5691 2819 5691 2113 
L 5691 0 
L 5113 0 
L 5113 2094 
Q 5113 2597 4934 2840 
Q 4756 3084 4391 3084 
Q 3944 3084 3684 2787 
Q 3425 2491 3425 1978 
L 3425 0 
L 2847 0 
L 2847 2094 
Q 2847 2600 2669 2842 
Q 2491 3084 2119 3084 
Q 1678 3084 1418 2786 
Q 1159 2488 1159 1978 
L 1159 0 
L 581 0 
L 581 3500 
L 1159 3500 
L 1159 2956 
Q 1356 3278 1631 3431 
Q 1906 3584 2284 3584 
Q 2666 3584 2933 3390 
Q 3200 3197 3328 2828 
z
" transform="scale(0.015625)"/>
      <path id="DejaVuSans-61" d="M 2194 1759 
Q 1497 1759 1228 1600 
Q 959 1441 959 1056 
Q 959 750 1161 570 
Q 1363 391 1709 391 
Q 2188 391 2477 730 
Q 2766 1069 2766 1631 
L 2766 1759 
L 2194 1759 
z
M 3341 1997 
L 3341 0 
L 2766 0 
L 2766 531 
Q 2569 213 2275 61 
Q 1981 -91 1556 -91 
Q 1019 -91 701 211 
Q 384 513 384 1019 
Q 384 1609 779 1909 
Q 1175 2209 1959 2209 
L 2766 2209 
L 2766 2266 
Q 2766 2663 2505 2880 
Q 2244 3097 1772 3097 
Q 1472 3097 1187 3025 
Q 903 2953 641 2809 
L 641 3341 
Q 956 3463 1253 3523 
Q 1550 3584 1831 3584 
Q 2591 3584 2966 3190 
Q 3341 2797 3341 1997 
z
" transform="scale(0.015625)"/>
      <path id="DejaVuSans-6c" d="M 603 4863 
L 1178 4863 
L 1178 0 
L 603 0 
L 603 4863 
z
" transform="scale(0.015625)"/>
      <path id="DejaVuSans-20" transform="scale(0.015625)"/>
      <path id="DejaVuSans-46" d="M 628 4666 
L 3309 4666 
L 3309 4134 
L 1259 4134 
L 1259 2759 
L 3109 2759 
L 3109 2228 
L 1259 2228 
L 1259 0 
L 628 0 
L 628 4666 
z
" transform="scale(0.015625)"/>
      <path id="DejaVuSans-75" d="M 544 1381 
L 544 3500 
L 1119 3500 
L 1119 1403 
Q 1119 906 1312 657 
Q 1506 409 1894 409 
Q 2359 409 2629 706 
Q 2900 1003 2900 1516 
L 2900 3500 
L 3475 3500 
L 3475 0 
L 2900 0 
L 2900 538 
Q 2691 219 2414 64 
Q 2138 -91 1772 -91 
Q 1169 -91 856 284 
Q 544 659 544 1381 
z
M 1991 3584 
L 1991 3584 
z
" transform="scale(0.015625)"/>
      <path id="DejaVuSans-78" d="M 3513 3500 
L 2247 1797 
L 3578 0 
L 2900 0 
L 1881 1375 
L 863 0 
L 184 0 
L 1544 1831 
L 300 3500 
L 978 3500 
L 1906 2253 
L 2834 3500 
L 3513 3500 
z
" transform="scale(0.015625)"/>
     </defs>
     <use xlink:href="#DejaVuSans-54"/>
     <use xlink:href="#DejaVuSans-68" x="61.083984"/>
     <use xlink:href="#DejaVuSans-65" x="124.462891"/>
     <use xlink:href="#DejaVuSans-72" x="185.986328"/>
     <use xlink:href="#DejaVuSans-6d" x="225.349609"/>
     <use xlink:href="#DejaVuSans-61" x="322.761719"/>
     <use xlink:href="#DejaVuSans-6c" x="384.041016"/>
     <use xlink:href="#DejaVuSans-20" x="411.824219"/>
     <use xlink:href="#DejaVuSans-46" x="443.611328"/>
     <use xlink:href="#DejaVuSans-6c" x="501.130859"/>
     <use xlink:href="#DejaVuSans-75" x="528.914062"/>
     <use xlink:href="#DejaVuSans-78" x="592.292969"/>
    </g>
   </g>
  </g>
 </g>
 <defs>
  <clipPath id="pb10fe60c06">
   <rect x="36.465625" y="22.318125" width="357.12" height="266.112"/>
  </clipPath>
 </defs>
</svg>
