<?xml version="1.0" encoding="utf-8" standalone="no"?>
<!DOCTYPE svg PUBLIC "-//W3C//DTD SVG 1.1//EN"
  "http://www.w3.org/Graphics/SVG/1.1/DTD/svg11.dtd">
<svg xmlns:xlink="http://www.w3.org/1999/xlink" width="400.785625pt" height="312.30825pt" viewBox="0 0 400.785625 312.30825" xmlns="http://www.w3.org/2000/svg" version="1.1">
 <metadata>
  <rdf:RDF xmlns:dc="http://purl.org/dc/elements/1.1/" xmlns:cc="http://creativecommons.org/ns#" xmlns:rdf="http://www.w3.org/1999/02/22-rdf-syntax-ns#">
   <cc:Work>
    <dc:type rdf:resource="http://purl.org/dc/dcmitype/StillImage"/>
    <dc:date>2024-03-16T22:25:48.598747</dc:date>
    <dc:format>image/svg+xml</dc:format>
    <dc:creator>
     <cc:Agent>
      <dc:title>Matplotlib v3.8.3, https://matplotlib.org/</dc:title>
     </cc:Agent>
    </dc:creator>
   </cc:Work>
  </rdf:RDF>
 </metadata>
 <defs>
  <style type="text/css">*{stroke-linejoin: round; stroke-linecap: butt}</style>
 </defs>
 <g id="figure_1">
  <g id="patch_1">
   <path d="M 0 312.30825 
L 400.785625 312.30825 
L 400.785625 0 
L 0 0 
z
" style="fill: #ffffff"/>
  </g>
  <g id="axes_1">
   <g id="patch_2">
    <path d="M 36.465625 288.430125 
L 393.585625 288.430125 
L 393.585625 22.318125 
L 36.465625 22.318125 
z
" style="fill: #ffffff"/>
   </g>
   <g id="matplotlib.axis_1">
    <g id="xtick_1">
     <g id="line2d_1">
      <defs>
       <path id="m27e5f86998" d="M 0 0 
L 0 3.5 
" style="stroke: #000000; stroke-width: 0.8"/>
      </defs>
      <g>
       <use xlink:href="#m27e5f86998" x="36.465625" y="288.430125" style="stroke: #000000; stroke-width: 0.8"/>
      </g>
     </g>
     <g id="text_1">
      <!-- 0 -->
      <g transform="translate(33.284375 303.028562) scale(0.1 -0.1)">
       <defs>
        <path id="DejaVuSans-30" d="M 2034 4250 
Q 1547 4250 1301 3770 
Q 1056 3291 1056 2328 
Q 1056 1369 1301 889 
Q 1547 409 2034 409 
Q 2525 409 2770 889 
Q 3016 1369 3016 2328 
Q 3016 3291 2770 3770 
Q 2525 4250 2034 4250 
z
M 2034 4750 
Q 2819 4750 3233 4129 
Q 3647 3509 3647 2328 
Q 3647 1150 3233 529 
Q 2819 -91 2034 -91 
Q 1250 -91 836 529 
Q 422 1150 422 2328 
Q 422 3509 836 4129 
Q 1250 4750 2034 4750 
z
" transform="scale(0.015625)"/>
       </defs>
       <use xlink:href="#DejaVuSans-30"/>
      </g>
     </g>
    </g>
    <g id="xtick_2">
     <g id="line2d_2">
      <g>
       <use xlink:href="#m27e5f86998" x="77.748215" y="288.430125" style="stroke: #000000; stroke-width: 0.8"/>
      </g>
     </g>
     <g id="text_2">
      <!-- 10 -->
      <g transform="translate(71.385715 303.028562) scale(0.1 -0.1)">
       <defs>
        <path id="DejaVuSans-31" d="M 794 531 
L 1825 531 
L 1825 4091 
L 703 3866 
L 703 4441 
L 1819 4666 
L 2450 4666 
L 2450 531 
L 3481 531 
L 3481 0 
L 794 0 
L 794 531 
z
" transform="scale(0.015625)"/>
       </defs>
       <use xlink:href="#DejaVuSans-31"/>
       <use xlink:href="#DejaVuSans-30" x="63.623047"/>
      </g>
     </g>
    </g>
    <g id="xtick_3">
     <g id="line2d_3">
      <g>
       <use xlink:href="#m27e5f86998" x="119.030805" y="288.430125" style="stroke: #000000; stroke-width: 0.8"/>
      </g>
     </g>
     <g id="text_3">
      <!-- 20 -->
      <g transform="translate(112.668305 303.028562) scale(0.1 -0.1)">
       <defs>
        <path id="DejaVuSans-32" d="M 1228 531 
L 3431 531 
L 3431 0 
L 469 0 
L 469 531 
Q 828 903 1448 1529 
Q 2069 2156 2228 2338 
Q 2531 2678 2651 2914 
Q 2772 3150 2772 3378 
Q 2772 3750 2511 3984 
Q 2250 4219 1831 4219 
Q 1534 4219 1204 4116 
Q 875 4013 500 3803 
L 500 4441 
Q 881 4594 1212 4672 
Q 1544 4750 1819 4750 
Q 2544 4750 2975 4387 
Q 3406 4025 3406 3419 
Q 3406 3131 3298 2873 
Q 3191 2616 2906 2266 
Q 2828 2175 2409 1742 
Q 1991 1309 1228 531 
z
" transform="scale(0.015625)"/>
       </defs>
       <use xlink:href="#DejaVuSans-32"/>
       <use xlink:href="#DejaVuSans-30" x="63.623047"/>
      </g>
     </g>
    </g>
    <g id="xtick_4">
     <g id="line2d_4">
      <g>
       <use xlink:href="#m27e5f86998" x="160.313395" y="288.430125" style="stroke: #000000; stroke-width: 0.8"/>
      </g>
     </g>
     <g id="text_4">
      <!-- 30 -->
      <g transform="translate(153.950895 303.028562) scale(0.1 -0.1)">
       <defs>
        <path id="DejaVuSans-33" d="M 2597 2516 
Q 3050 2419 3304 2112 
Q 3559 1806 3559 1356 
Q 3559 666 3084 287 
Q 2609 -91 1734 -91 
Q 1441 -91 1130 -33 
Q 819 25 488 141 
L 488 750 
Q 750 597 1062 519 
Q 1375 441 1716 441 
Q 2309 441 2620 675 
Q 2931 909 2931 1356 
Q 2931 1769 2642 2001 
Q 2353 2234 1838 2234 
L 1294 2234 
L 1294 2753 
L 1863 2753 
Q 2328 2753 2575 2939 
Q 2822 3125 2822 3475 
Q 2822 3834 2567 4026 
Q 2313 4219 1838 4219 
Q 1578 4219 1281 4162 
Q 984 4106 628 3988 
L 628 4550 
Q 988 4650 1302 4700 
Q 1616 4750 1894 4750 
Q 2613 4750 3031 4423 
Q 3450 4097 3450 3541 
Q 3450 3153 3228 2886 
Q 3006 2619 2597 2516 
z
" transform="scale(0.015625)"/>
       </defs>
       <use xlink:href="#DejaVuSans-33"/>
       <use xlink:href="#DejaVuSans-30" x="63.623047"/>
      </g>
     </g>
    </g>
    <g id="xtick_5">
     <g id="line2d_5">
      <g>
       <use xlink:href="#m27e5f86998" x="201.595986" y="288.430125" style="stroke: #000000; stroke-width: 0.8"/>
      </g>
     </g>
     <g id="text_5">
      <!-- 40 -->
      <g transform="translate(195.233486 303.028562) scale(0.1 -0.1)">
       <defs>
        <path id="DejaVuSans-34" d="M 2419 4116 
L 825 1625 
L 2419 1625 
L 2419 4116 
z
M 2253 4666 
L 3047 4666 
L 3047 1625 
L 3713 1625 
L 3713 1100 
L 3047 1100 
L 3047 0 
L 2419 0 
L 2419 1100 
L 313 1100 
L 313 1709 
L 2253 4666 
z
" transform="scale(0.015625)"/>
       </defs>
       <use xlink:href="#DejaVuSans-34"/>
       <use xlink:href="#DejaVuSans-30" x="63.623047"/>
      </g>
     </g>
    </g>
    <g id="xtick_6">
     <g id="line2d_6">
      <g>
       <use xlink:href="#m27e5f86998" x="242.878576" y="288.430125" style="stroke: #000000; stroke-width: 0.8"/>
      </g>
     </g>
     <g id="text_6">
      <!-- 50 -->
      <g transform="translate(236.516076 303.028562) scale(0.1 -0.1)">
       <defs>
        <path id="DejaVuSans-35" d="M 691 4666 
L 3169 4666 
L 3169 4134 
L 1269 4134 
L 1269 2991 
Q 1406 3038 1543 3061 
Q 1681 3084 1819 3084 
Q 2600 3084 3056 2656 
Q 3513 2228 3513 1497 
Q 3513 744 3044 326 
Q 2575 -91 1722 -91 
Q 1428 -91 1123 -41 
Q 819 9 494 109 
L 494 744 
Q 775 591 1075 516 
Q 1375 441 1709 441 
Q 2250 441 2565 725 
Q 2881 1009 2881 1497 
Q 2881 1984 2565 2268 
Q 2250 2553 1709 2553 
Q 1456 2553 1204 2497 
Q 953 2441 691 2322 
L 691 4666 
z
" transform="scale(0.015625)"/>
       </defs>
       <use xlink:href="#DejaVuSans-35"/>
       <use xlink:href="#DejaVuSans-30" x="63.623047"/>
      </g>
     </g>
    </g>
    <g id="xtick_7">
     <g id="line2d_7">
      <g>
       <use xlink:href="#m27e5f86998" x="284.161166" y="288.430125" style="stroke: #000000; stroke-width: 0.8"/>
      </g>
     </g>
     <g id="text_7">
      <!-- 60 -->
      <g transform="translate(277.798666 303.028562) scale(0.1 -0.1)">
       <defs>
        <path id="DejaVuSans-36" d="M 2113 2584 
Q 1688 2584 1439 2293 
Q 1191 2003 1191 1497 
Q 1191 994 1439 701 
Q 1688 409 2113 409 
Q 2538 409 2786 701 
Q 3034 994 3034 1497 
Q 3034 2003 2786 2293 
Q 2538 2584 2113 2584 
z
M 3366 4563 
L 3366 3988 
Q 3128 4100 2886 4159 
Q 2644 4219 2406 4219 
Q 1781 4219 1451 3797 
Q 1122 3375 1075 2522 
Q 1259 2794 1537 2939 
Q 1816 3084 2150 3084 
Q 2853 3084 3261 2657 
Q 3669 2231 3669 1497 
Q 3669 778 3244 343 
Q 2819 -91 2113 -91 
Q 1303 -91 875 529 
Q 447 1150 447 2328 
Q 447 3434 972 4092 
Q 1497 4750 2381 4750 
Q 2619 4750 2861 4703 
Q 3103 4656 3366 4563 
z
" transform="scale(0.015625)"/>
       </defs>
       <use xlink:href="#DejaVuSans-36"/>
       <use xlink:href="#DejaVuSans-30" x="63.623047"/>
      </g>
     </g>
    </g>
    <g id="xtick_8">
     <g id="line2d_8">
      <g>
       <use xlink:href="#m27e5f86998" x="325.443756" y="288.430125" style="stroke: #000000; stroke-width: 0.8"/>
      </g>
     </g>
     <g id="text_8">
      <!-- 70 -->
      <g transform="translate(319.081256 303.028562) scale(0.1 -0.1)">
       <defs>
        <path id="DejaVuSans-37" d="M 525 4666 
L 3525 4666 
L 3525 4397 
L 1831 0 
L 1172 0 
L 2766 4134 
L 525 4134 
L 525 4666 
z
" transform="scale(0.015625)"/>
       </defs>
       <use xlink:href="#DejaVuSans-37"/>
       <use xlink:href="#DejaVuSans-30" x="63.623047"/>
      </g>
     </g>
    </g>
    <g id="xtick_9">
     <g id="line2d_9">
      <g>
       <use xlink:href="#m27e5f86998" x="366.726346" y="288.430125" style="stroke: #000000; stroke-width: 0.8"/>
      </g>
     </g>
     <g id="text_9">
      <!-- 80 -->
      <g transform="translate(360.363846 303.028562) scale(0.1 -0.1)">
       <defs>
        <path id="DejaVuSans-38" d="M 2034 2216 
Q 1584 2216 1326 1975 
Q 1069 1734 1069 1313 
Q 1069 891 1326 650 
Q 1584 409 2034 409 
Q 2484 409 2743 651 
Q 3003 894 3003 1313 
Q 3003 1734 2745 1975 
Q 2488 2216 2034 2216 
z
M 1403 2484 
Q 997 2584 770 2862 
Q 544 3141 544 3541 
Q 544 4100 942 4425 
Q 1341 4750 2034 4750 
Q 2731 4750 3128 4425 
Q 3525 4100 3525 3541 
Q 3525 3141 3298 2862 
Q 3072 2584 2669 2484 
Q 3125 2378 3379 2068 
Q 3634 1759 3634 1313 
Q 3634 634 3220 271 
Q 2806 -91 2034 -91 
Q 1263 -91 848 271 
Q 434 634 434 1313 
Q 434 1759 690 2068 
Q 947 2378 1403 2484 
z
M 1172 3481 
Q 1172 3119 1398 2916 
Q 1625 2713 2034 2713 
Q 2441 2713 2670 2916 
Q 2900 3119 2900 3481 
Q 2900 3844 2670 4047 
Q 2441 4250 2034 4250 
Q 1625 4250 1398 4047 
Q 1172 3844 1172 3481 
z
" transform="scale(0.015625)"/>
       </defs>
       <use xlink:href="#DejaVuSans-38"/>
       <use xlink:href="#DejaVuSans-30" x="63.623047"/>
      </g>
     </g>
    </g>
   </g>
   <g id="matplotlib.axis_2">
    <g id="ytick_1">
     <g id="line2d_10">
      <defs>
       <path id="mb26f763058" d="M 0 0 
L -3.5 0 
" style="stroke: #000000; stroke-width: 0.8"/>
      </defs>
      <g>
       <use xlink:href="#mb26f763058" x="36.465625" y="276.181266" style="stroke: #000000; stroke-width: 0.8"/>
      </g>
     </g>
     <g id="text_10">
      <!-- 4.00 -->
      <g transform="translate(7.2 279.980485) scale(0.1 -0.1)">
       <defs>
        <path id="DejaVuSans-2e" d="M 684 794 
L 1344 794 
L 1344 0 
L 684 0 
L 684 794 
z
" transform="scale(0.015625)"/>
       </defs>
       <use xlink:href="#DejaVuSans-34"/>
       <use xlink:href="#DejaVuSans-2e" x="63.623047"/>
       <use xlink:href="#DejaVuSans-30" x="95.410156"/>
       <use xlink:href="#DejaVuSans-30" x="159.033203"/>
      </g>
     </g>
    </g>
    <g id="ytick_2">
     <g id="line2d_11">
      <g>
       <use xlink:href="#mb26f763058" x="36.465625" y="243.901567" style="stroke: #000000; stroke-width: 0.8"/>
      </g>
     </g>
     <g id="text_11">
      <!-- 4.25 -->
      <g transform="translate(7.2 247.700786) scale(0.1 -0.1)">
       <use xlink:href="#DejaVuSans-34"/>
       <use xlink:href="#DejaVuSans-2e" x="63.623047"/>
       <use xlink:href="#DejaVuSans-32" x="95.410156"/>
       <use xlink:href="#DejaVuSans-35" x="159.033203"/>
      </g>
     </g>
    </g>
    <g id="ytick_3">
     <g id="line2d_12">
      <g>
       <use xlink:href="#mb26f763058" x="36.465625" y="211.621868" style="stroke: #000000; stroke-width: 0.8"/>
      </g>
     </g>
     <g id="text_12">
      <!-- 4.50 -->
      <g transform="translate(7.2 215.421087) scale(0.1 -0.1)">
       <use xlink:href="#DejaVuSans-34"/>
       <use xlink:href="#DejaVuSans-2e" x="63.623047"/>
       <use xlink:href="#DejaVuSans-35" x="95.410156"/>
       <use xlink:href="#DejaVuSans-30" x="159.033203"/>
      </g>
     </g>
    </g>
    <g id="ytick_4">
     <g id="line2d_13">
      <g>
       <use xlink:href="#mb26f763058" x="36.465625" y="179.34217" style="stroke: #000000; stroke-width: 0.8"/>
      </g>
     </g>
     <g id="text_13">
      <!-- 4.75 -->
      <g transform="translate(7.2 183.141388) scale(0.1 -0.1)">
       <use xlink:href="#DejaVuSans-34"/>
       <use xlink:href="#DejaVuSans-2e" x="63.623047"/>
       <use xlink:href="#DejaVuSans-37" x="95.410156"/>
       <use xlink:href="#DejaVuSans-35" x="159.033203"/>
      </g>
     </g>
    </g>
    <g id="ytick_5">
     <g id="line2d_14">
      <g>
       <use xlink:href="#mb26f763058" x="36.465625" y="147.062471" style="stroke: #000000; stroke-width: 0.8"/>
      </g>
     </g>
     <g id="text_14">
      <!-- 5.00 -->
      <g transform="translate(7.2 150.861689) scale(0.1 -0.1)">
       <use xlink:href="#DejaVuSans-35"/>
       <use xlink:href="#DejaVuSans-2e" x="63.623047"/>
       <use xlink:href="#DejaVuSans-30" x="95.410156"/>
       <use xlink:href="#DejaVuSans-30" x="159.033203"/>
      </g>
     </g>
    </g>
    <g id="ytick_6">
     <g id="line2d_15">
      <g>
       <use xlink:href="#mb26f763058" x="36.465625" y="114.782772" style="stroke: #000000; stroke-width: 0.8"/>
      </g>
     </g>
     <g id="text_15">
      <!-- 5.25 -->
      <g transform="translate(7.2 118.581991) scale(0.1 -0.1)">
       <use xlink:href="#DejaVuSans-35"/>
       <use xlink:href="#DejaVuSans-2e" x="63.623047"/>
       <use xlink:href="#DejaVuSans-32" x="95.410156"/>
       <use xlink:href="#DejaVuSans-35" x="159.033203"/>
      </g>
     </g>
    </g>
    <g id="ytick_7">
     <g id="line2d_16">
      <g>
       <use xlink:href="#mb26f763058" x="36.465625" y="82.503073" style="stroke: #000000; stroke-width: 0.8"/>
      </g>
     </g>
     <g id="text_16">
      <!-- 5.50 -->
      <g transform="translate(7.2 86.302292) scale(0.1 -0.1)">
       <use xlink:href="#DejaVuSans-35"/>
       <use xlink:href="#DejaVuSans-2e" x="63.623047"/>
       <use xlink:href="#DejaVuSans-35" x="95.410156"/>
       <use xlink:href="#DejaVuSans-30" x="159.033203"/>
      </g>
     </g>
    </g>
    <g id="ytick_8">
     <g id="line2d_17">
      <g>
       <use xlink:href="#mb26f763058" x="36.465625" y="50.223374" style="stroke: #000000; stroke-width: 0.8"/>
      </g>
     </g>
     <g id="text_17">
      <!-- 5.75 -->
      <g transform="translate(7.2 54.022593) scale(0.1 -0.1)">
       <use xlink:href="#DejaVuSans-35"/>
       <use xlink:href="#DejaVuSans-2e" x="63.623047"/>
       <use xlink:href="#DejaVuSans-37" x="95.410156"/>
       <use xlink:href="#DejaVuSans-35" x="159.033203"/>
      </g>
     </g>
    </g>
    <g id="text_18">
     <!-- 1e13 -->
     <g transform="translate(36.465625 19.318125) scale(0.1 -0.1)">
      <defs>
       <path id="DejaVuSans-65" d="M 3597 1894 
L 3597 1613 
L 953 1613 
Q 991 1019 1311 708 
Q 1631 397 2203 397 
Q 2534 397 2845 478 
Q 3156 559 3463 722 
L 3463 178 
Q 3153 47 2828 -22 
Q 2503 -91 2169 -91 
Q 1331 -91 842 396 
Q 353 884 353 1716 
Q 353 2575 817 3079 
Q 1281 3584 2069 3584 
Q 2775 3584 3186 3129 
Q 3597 2675 3597 1894 
z
M 3022 2063 
Q 3016 2534 2758 2815 
Q 2500 3097 2075 3097 
Q 1594 3097 1305 2825 
Q 1016 2553 972 2059 
L 3022 2063 
z
" transform="scale(0.015625)"/>
      </defs>
      <use xlink:href="#DejaVuSans-31"/>
      <use xlink:href="#DejaVuSans-65" x="63.623047"/>
      <use xlink:href="#DejaVuSans-31" x="125.146484"/>
      <use xlink:href="#DejaVuSans-33" x="188.769531"/>
     </g>
    </g>
   </g>
   <g id="line2d_18">
    <path d="M 36.465625 159.254172 
L 37.519076 185.970449 
L 38.572528 169.087312 
L 39.625979 180.061835 
L 40.67943 208.880467 
L 41.732882 214.637755 
L 42.786333 207.646908 
L 43.839784 202.715633 
L 44.893236 131.821173 
L 45.946687 125.132603 
L 47.000138 128.514447 
L 48.05359 140.658568 
L 49.107041 187.534807 
L 50.160492 199.75173 
L 51.213944 184.941983 
L 52.267395 190.646763 
L 53.320846 168.042071 
L 54.374298 185.109434 
L 55.427749 156.536539 
L 56.4812 152.331281 
L 57.534652 112.887742 
L 58.588103 152.615757 
L 59.641554 162.929206 
L 60.695006 177.640695 
L 61.748457 210.273203 
L 62.801908 211.090929 
L 63.85536 221.120477 
L 64.908811 205.953663 
L 65.962262 168.736489 
L 67.015713 125.837691 
L 68.069165 127.483973 
L 69.122616 134.792641 
L 70.176067 198.12688 
L 71.229519 213.311476 
L 72.28297 247.149659 
L 73.336421 237.730613 
L 74.389873 224.538106 
L 75.443324 220.221899 
L 76.496775 175.448717 
L 77.550227 142.254358 
L 78.603678 102.137923 
L 79.657129 116.738223 
L 80.710581 138.610726 
L 81.764032 174.838369 
L 82.817483 163.307432 
L 83.870935 177.948447 
L 84.924386 140.420362 
L 85.977837 168.391434 
L 87.031289 148.412511 
L 88.08474 152.606915 
L 89.138191 116.792085 
L 90.191643 104.243339 
L 91.245094 140.00064 
L 92.298545 162.142392 
L 93.351997 203.143263 
L 96.512351 144.514336 
L 97.565802 119.344886 
L 98.619253 116.197571 
L 99.672705 94.034715 
L 100.726156 110.612486 
L 101.779607 171.87494 
L 102.833059 141.850082 
L 103.88651 146.540691 
L 104.939961 174.93261 
L 105.993413 158.150101 
L 107.046864 135.896218 
L 108.100315 57.027886 
L 109.153767 62.760495 
L 110.207218 62.919816 
L 111.260669 109.232345 
L 112.314121 176.763836 
L 113.367572 174.488817 
L 114.421023 177.223954 
L 115.474475 221.255255 
L 116.527926 194.376297 
L 117.581377 215.692405 
L 118.634829 183.349017 
L 120.741731 226.919956 
L 121.795183 238.930229 
L 122.848634 235.752261 
L 123.902085 249.815581 
L 124.955537 226.730315 
L 126.008988 245.663579 
L 127.062439 241.264428 
L 128.11589 187.425205 
L 129.169342 158.756118 
L 130.222793 192.1865 
L 131.276244 140.13226 
L 132.329696 157.0642 
L 133.383147 157.843026 
L 134.436598 162.639661 
L 135.49005 172.886624 
L 136.543501 181.22614 
L 137.596952 186.642755 
L 138.650404 223.961213 
L 139.703855 191.470104 
L 140.757306 166.404018 
L 141.810758 159.060277 
L 142.864209 192.888991 
L 143.91766 201.433729 
L 144.971112 218.901669 
L 146.024563 217.157389 
L 147.078014 214.581396 
L 148.131466 217.496371 
L 149.184917 191.262418 
L 150.238368 135.160577 
L 151.29182 99.185646 
L 152.345271 70.522486 
L 153.398722 127.05139 
L 154.452174 161.658269 
L 155.505625 170.560451 
L 156.559076 182.975182 
L 157.612528 224.253111 
L 158.665979 221.833729 
L 159.71943 190.727909 
L 160.772882 164.789616 
L 161.826333 126.16107 
L 162.879784 127.210457 
L 163.933236 112.423102 
L 164.986687 138.869492 
L 166.040138 137.147143 
L 167.09359 172.274474 
L 168.147041 199.905462 
L 170.253944 181.444644 
L 171.307395 140.28003 
L 172.360846 149.736297 
L 173.414298 149.358088 
L 174.467749 171.497644 
L 175.5212 205.527843 
L 176.574652 220.231519 
L 177.628103 209.362922 
L 178.681554 231.084783 
L 179.735006 227.893621 
L 180.788457 249.124538 
L 181.841908 170.668887 
L 182.89536 161.913473 
L 183.948811 180.877649 
L 185.002262 147.947141 
L 186.055713 187.491603 
L 187.109165 231.975073 
L 188.162616 257.362583 
L 189.216067 241.057587 
L 190.269519 229.054995 
L 192.376421 215.684411 
L 193.429873 209.899821 
L 194.483324 231.193577 
L 195.536775 224.392326 
L 196.590227 276.334125 
L 197.643678 258.150003 
L 198.697129 260.551938 
L 199.750581 246.978922 
L 200.804032 206.630346 
L 201.857483 212.789638 
L 202.910935 170.440578 
L 203.964386 158.741802 
L 205.017837 160.601218 
L 206.071289 196.229345 
L 207.12474 204.585177 
L 208.178191 208.152627 
L 209.231643 201.273078 
L 210.285094 184.495696 
L 211.338545 177.293116 
L 212.391997 138.141688 
L 213.445448 141.72493 
L 214.498899 101.211999 
L 215.552351 121.01188 
L 216.605802 138.600226 
L 217.659253 164.075789 
L 218.712705 196.108531 
L 219.766156 218.832398 
L 220.819607 193.963678 
L 221.873059 225.644148 
L 222.92651 183.207246 
L 223.979961 159.93016 
L 225.033413 147.121984 
L 226.086864 130.175206 
L 227.140315 144.073014 
L 228.193767 202.46645 
L 229.247218 209.717593 
L 230.300669 211.774506 
L 231.354121 201.271917 
L 232.407572 222.807936 
L 233.461023 193.525355 
L 234.514475 152.125462 
L 236.621377 96.661421 
L 237.674829 146.586579 
L 238.72828 217.600635 
L 239.781731 233.894775 
L 240.835183 226.995428 
L 241.888634 251.821345 
L 242.942085 243.202533 
L 245.048988 180.607767 
L 246.102439 156.882896 
L 247.15589 202.609821 
L 248.209342 179.608928 
L 249.262793 214.866139 
L 250.316244 212.368769 
L 251.369696 217.944505 
L 252.423147 207.645546 
L 253.476598 183.312143 
L 254.53005 201.261889 
L 255.583501 155.607827 
L 256.636952 129.452683 
L 257.690404 108.275456 
L 258.743855 166.626698 
L 259.797306 176.025133 
L 260.850758 178.786825 
L 261.904209 201.727609 
L 262.95766 197.145334 
L 264.011112 197.773587 
L 265.064563 205.051719 
L 266.118014 138.509424 
L 267.171466 144.915106 
L 268.224917 175.944055 
L 269.278368 191.823792 
L 270.33182 212.181251 
L 271.385271 201.020844 
L 272.438722 219.296638 
L 273.492174 224.117874 
L 274.545625 211.506801 
L 275.599076 194.290121 
L 276.652528 182.712936 
L 277.705979 174.211556 
L 278.75943 190.946338 
L 279.812882 222.343362 
L 280.866333 241.174034 
L 281.919784 212.612392 
L 282.973236 199.232307 
L 284.026687 204.612635 
L 285.080138 212.117387 
L 286.13359 196.589003 
L 287.187041 154.278092 
L 288.240492 145.355233 
L 289.293944 128.809622 
L 290.347395 119.342859 
L 291.400846 152.80289 
L 292.454298 151.705185 
L 293.507749 166.134257 
L 294.5612 186.527854 
L 295.614652 201.885894 
L 296.668103 163.212702 
L 297.721554 147.946969 
L 298.775006 121.79923 
L 299.828457 107.737238 
L 300.881908 135.132677 
L 301.93536 185.127401 
L 302.988811 169.380308 
L 304.042262 171.656578 
L 305.095713 187.018311 
L 306.149165 159.006352 
L 307.202616 156.50347 
L 308.256067 96.751417 
L 309.309519 88.261037 
L 310.36297 149.4819 
L 311.416421 149.311158 
L 312.469873 180.205943 
L 313.523324 158.774639 
L 314.576775 178.263591 
L 315.630227 178.848331 
L 316.683678 160.944311 
L 317.737129 161.968442 
L 318.790581 56.151497 
L 319.844032 58.405407 
L 320.897483 34.414125 
L 321.950935 40.822853 
L 323.004386 84.940542 
L 324.057837 103.026361 
L 325.111289 140.947041 
L 326.16474 116.404757 
L 327.218191 124.258725 
L 328.271643 125.910232 
L 329.325094 72.629211 
L 330.378545 83.081421 
L 331.431997 78.753284 
L 332.485448 120.035403 
L 333.538899 180.126362 
L 334.592351 189.668274 
L 335.645802 185.292832 
L 336.699253 184.210501 
L 337.752705 167.558952 
L 338.806156 138.449036 
L 339.859607 91.951393 
L 340.913059 67.47872 
L 341.96651 98.34834 
L 343.019961 159.628935 
L 344.073413 203.603753 
L 345.126864 213.960512 
L 347.233767 165.982383 
L 348.287218 198.568267 
L 349.340669 155.667113 
L 350.394121 137.347544 
L 351.447572 103.625723 
L 352.501023 129.266575 
L 353.554475 163.844941 
L 354.607926 230.75149 
L 355.661377 249.320647 
L 356.714829 204.889549 
L 357.76828 218.740592 
L 358.821731 209.097299 
L 360.928634 162.245681 
L 361.982085 141.416747 
L 363.035537 123.930325 
L 364.088988 163.233956 
L 365.142439 169.10697 
L 366.19589 166.513619 
L 367.249342 155.626732 
L 368.302793 159.900234 
L 369.356244 185.878263 
L 370.409696 184.09462 
L 371.463147 185.0904 
L 372.516598 165.247162 
L 373.57005 173.582804 
L 374.623501 159.276703 
L 375.676952 221.235171 
L 376.730404 225.168932 
L 377.783855 235.311817 
L 378.837306 227.877665 
L 379.890758 204.525676 
L 380.944209 173.086316 
L 381.99766 172.799274 
L 383.051112 139.385013 
L 384.104563 135.766809 
L 385.158014 131.643625 
L 386.211466 139.04265 
L 387.264917 174.15203 
L 388.318368 194.005304 
L 389.37182 182.714859 
L 390.425271 173.160634 
L 391.478722 179.433766 
L 393.585625 70.211824 
L 393.585625 70.211824 
" clip-path="url(#p37eec108a4)" style="fill: none; stroke: #1f77b4; stroke-width: 1.5; stroke-linecap: square"/>
   </g>
   <g id="patch_3">
    <path d="M 36.465625 288.430125 
L 36.465625 22.318125 
" style="fill: none; stroke: #000000; stroke-width: 0.8; stroke-linejoin: miter; stroke-linecap: square"/>
   </g>
   <g id="patch_4">
    <path d="M 393.585625 288.430125 
L 393.585625 22.318125 
" style="fill: none; stroke: #000000; stroke-width: 0.8; stroke-linejoin: miter; stroke-linecap: square"/>
   </g>
   <g id="patch_5">
    <path d="M 36.465625 288.430125 
L 393.585625 288.430125 
" style="fill: none; stroke: #000000; stroke-width: 0.8; stroke-linejoin: miter; stroke-linecap: square"/>
   </g>
   <g id="patch_6">
    <path d="M 36.465625 22.318125 
L 393.585625 22.318125 
" style="fill: none; stroke: #000000; stroke-width: 0.8; stroke-linejoin: miter; stroke-linecap: square"/>
   </g>
   <g id="text_19">
    <!-- Thermal Flux -->
    <g transform="translate(175.938438 16.318125) scale(0.12 -0.12)">
     <defs>
      <path id="DejaVuSans-54" d="M -19 4666 
L 3928 4666 
L 3928 4134 
L 2272 4134 
L 2272 0 
L 1638 0 
L 1638 4134 
L -19 4134 
L -19 4666 
z
" transform="scale(0.015625)"/>
      <path id="DejaVuSans-68" d="M 3513 2113 
L 3513 0 
L 2938 0 
L 2938 2094 
Q 2938 2591 2744 2837 
Q 2550 3084 2163 3084 
Q 1697 3084 1428 2787 
Q 1159 2491 1159 1978 
L 1159 0 
L 581 0 
L 581 4863 
L 1159 4863 
L 1159 2956 
Q 1366 3272 1645 3428 
Q 1925 3584 2291 3584 
Q 2894 3584 3203 3211 
Q 3513 2838 3513 2113 
z
" transform="scale(0.015625)"/>
      <path id="DejaVuSans-72" d="M 2631 2963 
Q 2534 3019 2420 3045 
Q 2306 3072 2169 3072 
Q 1681 3072 1420 2755 
Q 1159 2438 1159 1844 
L 1159 0 
L 581 0 
L 581 3500 
L 1159 3500 
L 1159 2956 
Q 1341 3275 1631 3429 
Q 1922 3584 2338 3584 
Q 2397 3584 2469 3576 
Q 2541 3569 2628 3553 
L 2631 2963 
z
" transform="scale(0.015625)"/>
      <path id="DejaVuSans-6d" d="M 3328 2828 
Q 3544 3216 3844 3400 
Q 4144 3584 4550 3584 
Q 5097 3584 5394 3201 
Q 5691 2819 5691 2113 
L 5691 0 
L 5113 0 
L 5113 2094 
Q 5113 2597 4934 2840 
Q 4756 3084 4391 3084 
Q 3944 3084 3684 2787 
Q 3425 2491 3425 1978 
L 3425 0 
L 2847 0 
L 2847 2094 
Q 2847 2600 2669 2842 
Q 2491 3084 2119 3084 
Q 1678 3084 1418 2786 
Q 1159 2488 1159 1978 
L 1159 0 
L 581 0 
L 581 3500 
L 1159 3500 
L 1159 2956 
Q 1356 3278 1631 3431 
Q 1906 3584 2284 3584 
Q 2666 3584 2933 3390 
Q 3200 3197 3328 2828 
z
" transform="scale(0.015625)"/>
      <path id="DejaVuSans-61" d="M 2194 1759 
Q 1497 1759 1228 1600 
Q 959 1441 959 1056 
Q 959 750 1161 570 
Q 1363 391 1709 391 
Q 2188 391 2477 730 
Q 2766 1069 2766 1631 
L 2766 1759 
L 2194 1759 
z
M 3341 1997 
L 3341 0 
L 2766 0 
L 2766 531 
Q 2569 213 2275 61 
Q 1981 -91 1556 -91 
Q 1019 -91 701 211 
Q 384 513 384 1019 
Q 384 1609 779 1909 
Q 1175 2209 1959 2209 
L 2766 2209 
L 2766 2266 
Q 2766 2663 2505 2880 
Q 2244 3097 1772 3097 
Q 1472 3097 1187 3025 
Q 903 2953 641 2809 
L 641 3341 
Q 956 3463 1253 3523 
Q 1550 3584 1831 3584 
Q 2591 3584 2966 3190 
Q 3341 2797 3341 1997 
z
" transform="scale(0.015625)"/>
      <path id="DejaVuSans-6c" d="M 603 4863 
L 1178 4863 
L 1178 0 
L 603 0 
L 603 4863 
z
" transform="scale(0.015625)"/>
      <path id="DejaVuSans-20" transform="scale(0.015625)"/>
      <path id="DejaVuSans-46" d="M 628 4666 
L 3309 4666 
L 3309 4134 
L 1259 4134 
L 1259 2759 
L 3109 2759 
L 3109 2228 
L 1259 2228 
L 1259 0 
L 628 0 
L 628 4666 
z
" transform="scale(0.015625)"/>
      <path id="DejaVuSans-75" d="M 544 1381 
L 544 3500 
L 1119 3500 
L 1119 1403 
Q 1119 906 1312 657 
Q 1506 409 1894 409 
Q 2359 409 2629 706 
Q 2900 1003 2900 1516 
L 2900 3500 
L 3475 3500 
L 3475 0 
L 2900 0 
L 2900 538 
Q 2691 219 2414 64 
Q 2138 -91 1772 -91 
Q 1169 -91 856 284 
Q 544 659 544 1381 
z
M 1991 3584 
L 1991 3584 
z
" transform="scale(0.015625)"/>
      <path id="DejaVuSans-78" d="M 3513 3500 
L 2247 1797 
L 3578 0 
L 2900 0 
L 1881 1375 
L 863 0 
L 184 0 
L 1544 1831 
L 300 3500 
L 978 3500 
L 1906 2253 
L 2834 3500 
L 3513 3500 
z
" transform="scale(0.015625)"/>
     </defs>
     <use xlink:href="#DejaVuSans-54"/>
     <use xlink:href="#DejaVuSans-68" x="61.083984"/>
     <use xlink:href="#DejaVuSans-65" x="124.462891"/>
     <use xlink:href="#DejaVuSans-72" x="185.986328"/>
     <use xlink:href="#DejaVuSans-6d" x="225.349609"/>
     <use xlink:href="#DejaVuSans-61" x="322.761719"/>
     <use xlink:href="#DejaVuSans-6c" x="384.041016"/>
     <use xlink:href="#DejaVuSans-20" x="411.824219"/>
     <use xlink:href="#DejaVuSans-46" x="443.611328"/>
     <use xlink:href="#DejaVuSans-6c" x="501.130859"/>
     <use xlink:href="#DejaVuSans-75" x="528.914062"/>
     <use xlink:href="#DejaVuSans-78" x="592.292969"/>
    </g>
   </g>
  </g>
 </g>
 <defs>
  <clipPath id="p37eec108a4">
   <rect x="36.465625" y="22.318125" width="357.12" height="266.112"/>
  </clipPath>
 </defs>
</svg>
