<?xml version="1.0" encoding="utf-8" standalone="no"?>
<!DOCTYPE svg PUBLIC "-//W3C//DTD SVG 1.1//EN"
  "http://www.w3.org/Graphics/SVG/1.1/DTD/svg11.dtd">
<svg xmlns:xlink="http://www.w3.org/1999/xlink" width="397.6075pt" height="312.30825pt" viewBox="0 0 397.6075 312.30825" xmlns="http://www.w3.org/2000/svg" version="1.1">
 <metadata>
  <rdf:RDF xmlns:dc="http://purl.org/dc/elements/1.1/" xmlns:cc="http://creativecommons.org/ns#" xmlns:rdf="http://www.w3.org/1999/02/22-rdf-syntax-ns#">
   <cc:Work>
    <dc:type rdf:resource="http://purl.org/dc/dcmitype/StillImage"/>
    <dc:date>2024-03-14T10:56:25.311749</dc:date>
    <dc:format>image/svg+xml</dc:format>
    <dc:creator>
     <cc:Agent>
      <dc:title>Matplotlib v3.8.3, https://matplotlib.org/</dc:title>
     </cc:Agent>
    </dc:creator>
   </cc:Work>
  </rdf:RDF>
 </metadata>
 <defs>
  <style type="text/css">*{stroke-linejoin: round; stroke-linecap: butt}</style>
 </defs>
 <g id="figure_1">
  <g id="patch_1">
   <path d="M 0 312.30825 
L 397.6075 312.30825 
L 397.6075 0 
L 0 0 
z
" style="fill: #ffffff"/>
  </g>
  <g id="axes_1">
   <g id="patch_2">
    <path d="M 33.2875 288.430125 
L 390.4075 288.430125 
L 390.4075 22.318125 
L 33.2875 22.318125 
z
" style="fill: #ffffff"/>
   </g>
   <g id="matplotlib.axis_1">
    <g id="xtick_1">
     <g id="line2d_1">
      <defs>
       <path id="mb245cddd4c" d="M 0 0 
L 0 3.5 
" style="stroke: #000000; stroke-width: 0.8"/>
      </defs>
      <g>
       <use xlink:href="#mb245cddd4c" x="49.520227" y="288.430125" style="stroke: #000000; stroke-width: 0.8"/>
      </g>
     </g>
     <g id="text_1">
      <!-- 0 -->
      <g transform="translate(46.338977 303.028562) scale(0.1 -0.1)">
       <defs>
        <path id="DejaVuSans-30" d="M 2034 4250 
Q 1547 4250 1301 3770 
Q 1056 3291 1056 2328 
Q 1056 1369 1301 889 
Q 1547 409 2034 409 
Q 2525 409 2770 889 
Q 3016 1369 3016 2328 
Q 3016 3291 2770 3770 
Q 2525 4250 2034 4250 
z
M 2034 4750 
Q 2819 4750 3233 4129 
Q 3647 3509 3647 2328 
Q 3647 1150 3233 529 
Q 2819 -91 2034 -91 
Q 1250 -91 836 529 
Q 422 1150 422 2328 
Q 422 3509 836 4129 
Q 1250 4750 2034 4750 
z
" transform="scale(0.015625)"/>
       </defs>
       <use xlink:href="#DejaVuSans-30"/>
      </g>
     </g>
    </g>
    <g id="xtick_2">
     <g id="line2d_2">
      <g>
       <use xlink:href="#mb245cddd4c" x="89.404078" y="288.430125" style="stroke: #000000; stroke-width: 0.8"/>
      </g>
     </g>
     <g id="text_2">
      <!-- 50 -->
      <g transform="translate(83.041578 303.028562) scale(0.1 -0.1)">
       <defs>
        <path id="DejaVuSans-35" d="M 691 4666 
L 3169 4666 
L 3169 4134 
L 1269 4134 
L 1269 2991 
Q 1406 3038 1543 3061 
Q 1681 3084 1819 3084 
Q 2600 3084 3056 2656 
Q 3513 2228 3513 1497 
Q 3513 744 3044 326 
Q 2575 -91 1722 -91 
Q 1428 -91 1123 -41 
Q 819 9 494 109 
L 494 744 
Q 775 591 1075 516 
Q 1375 441 1709 441 
Q 2250 441 2565 725 
Q 2881 1009 2881 1497 
Q 2881 1984 2565 2268 
Q 2250 2553 1709 2553 
Q 1456 2553 1204 2497 
Q 953 2441 691 2322 
L 691 4666 
z
" transform="scale(0.015625)"/>
       </defs>
       <use xlink:href="#DejaVuSans-35"/>
       <use xlink:href="#DejaVuSans-30" x="63.623047"/>
      </g>
     </g>
    </g>
    <g id="xtick_3">
     <g id="line2d_3">
      <g>
       <use xlink:href="#mb245cddd4c" x="129.287929" y="288.430125" style="stroke: #000000; stroke-width: 0.8"/>
      </g>
     </g>
     <g id="text_3">
      <!-- 100 -->
      <g transform="translate(119.744179 303.028562) scale(0.1 -0.1)">
       <defs>
        <path id="DejaVuSans-31" d="M 794 531 
L 1825 531 
L 1825 4091 
L 703 3866 
L 703 4441 
L 1819 4666 
L 2450 4666 
L 2450 531 
L 3481 531 
L 3481 0 
L 794 0 
L 794 531 
z
" transform="scale(0.015625)"/>
       </defs>
       <use xlink:href="#DejaVuSans-31"/>
       <use xlink:href="#DejaVuSans-30" x="63.623047"/>
       <use xlink:href="#DejaVuSans-30" x="127.246094"/>
      </g>
     </g>
    </g>
    <g id="xtick_4">
     <g id="line2d_4">
      <g>
       <use xlink:href="#mb245cddd4c" x="169.17178" y="288.430125" style="stroke: #000000; stroke-width: 0.8"/>
      </g>
     </g>
     <g id="text_4">
      <!-- 150 -->
      <g transform="translate(159.62803 303.028562) scale(0.1 -0.1)">
       <use xlink:href="#DejaVuSans-31"/>
       <use xlink:href="#DejaVuSans-35" x="63.623047"/>
       <use xlink:href="#DejaVuSans-30" x="127.246094"/>
      </g>
     </g>
    </g>
    <g id="xtick_5">
     <g id="line2d_5">
      <g>
       <use xlink:href="#mb245cddd4c" x="209.05563" y="288.430125" style="stroke: #000000; stroke-width: 0.8"/>
      </g>
     </g>
     <g id="text_5">
      <!-- 200 -->
      <g transform="translate(199.51188 303.028562) scale(0.1 -0.1)">
       <defs>
        <path id="DejaVuSans-32" d="M 1228 531 
L 3431 531 
L 3431 0 
L 469 0 
L 469 531 
Q 828 903 1448 1529 
Q 2069 2156 2228 2338 
Q 2531 2678 2651 2914 
Q 2772 3150 2772 3378 
Q 2772 3750 2511 3984 
Q 2250 4219 1831 4219 
Q 1534 4219 1204 4116 
Q 875 4013 500 3803 
L 500 4441 
Q 881 4594 1212 4672 
Q 1544 4750 1819 4750 
Q 2544 4750 2975 4387 
Q 3406 4025 3406 3419 
Q 3406 3131 3298 2873 
Q 3191 2616 2906 2266 
Q 2828 2175 2409 1742 
Q 1991 1309 1228 531 
z
" transform="scale(0.015625)"/>
       </defs>
       <use xlink:href="#DejaVuSans-32"/>
       <use xlink:href="#DejaVuSans-30" x="63.623047"/>
       <use xlink:href="#DejaVuSans-30" x="127.246094"/>
      </g>
     </g>
    </g>
    <g id="xtick_6">
     <g id="line2d_6">
      <g>
       <use xlink:href="#mb245cddd4c" x="248.939481" y="288.430125" style="stroke: #000000; stroke-width: 0.8"/>
      </g>
     </g>
     <g id="text_6">
      <!-- 250 -->
      <g transform="translate(239.395731 303.028562) scale(0.1 -0.1)">
       <use xlink:href="#DejaVuSans-32"/>
       <use xlink:href="#DejaVuSans-35" x="63.623047"/>
       <use xlink:href="#DejaVuSans-30" x="127.246094"/>
      </g>
     </g>
    </g>
    <g id="xtick_7">
     <g id="line2d_7">
      <g>
       <use xlink:href="#mb245cddd4c" x="288.823332" y="288.430125" style="stroke: #000000; stroke-width: 0.8"/>
      </g>
     </g>
     <g id="text_7">
      <!-- 300 -->
      <g transform="translate(279.279582 303.028562) scale(0.1 -0.1)">
       <defs>
        <path id="DejaVuSans-33" d="M 2597 2516 
Q 3050 2419 3304 2112 
Q 3559 1806 3559 1356 
Q 3559 666 3084 287 
Q 2609 -91 1734 -91 
Q 1441 -91 1130 -33 
Q 819 25 488 141 
L 488 750 
Q 750 597 1062 519 
Q 1375 441 1716 441 
Q 2309 441 2620 675 
Q 2931 909 2931 1356 
Q 2931 1769 2642 2001 
Q 2353 2234 1838 2234 
L 1294 2234 
L 1294 2753 
L 1863 2753 
Q 2328 2753 2575 2939 
Q 2822 3125 2822 3475 
Q 2822 3834 2567 4026 
Q 2313 4219 1838 4219 
Q 1578 4219 1281 4162 
Q 984 4106 628 3988 
L 628 4550 
Q 988 4650 1302 4700 
Q 1616 4750 1894 4750 
Q 2613 4750 3031 4423 
Q 3450 4097 3450 3541 
Q 3450 3153 3228 2886 
Q 3006 2619 2597 2516 
z
" transform="scale(0.015625)"/>
       </defs>
       <use xlink:href="#DejaVuSans-33"/>
       <use xlink:href="#DejaVuSans-30" x="63.623047"/>
       <use xlink:href="#DejaVuSans-30" x="127.246094"/>
      </g>
     </g>
    </g>
    <g id="xtick_8">
     <g id="line2d_8">
      <g>
       <use xlink:href="#mb245cddd4c" x="328.707183" y="288.430125" style="stroke: #000000; stroke-width: 0.8"/>
      </g>
     </g>
     <g id="text_8">
      <!-- 350 -->
      <g transform="translate(319.163433 303.028562) scale(0.1 -0.1)">
       <use xlink:href="#DejaVuSans-33"/>
       <use xlink:href="#DejaVuSans-35" x="63.623047"/>
       <use xlink:href="#DejaVuSans-30" x="127.246094"/>
      </g>
     </g>
    </g>
    <g id="xtick_9">
     <g id="line2d_9">
      <g>
       <use xlink:href="#mb245cddd4c" x="368.591034" y="288.430125" style="stroke: #000000; stroke-width: 0.8"/>
      </g>
     </g>
     <g id="text_9">
      <!-- 400 -->
      <g transform="translate(359.047284 303.028562) scale(0.1 -0.1)">
       <defs>
        <path id="DejaVuSans-34" d="M 2419 4116 
L 825 1625 
L 2419 1625 
L 2419 4116 
z
M 2253 4666 
L 3047 4666 
L 3047 1625 
L 3713 1625 
L 3713 1100 
L 3047 1100 
L 3047 0 
L 2419 0 
L 2419 1100 
L 313 1100 
L 313 1709 
L 2253 4666 
z
" transform="scale(0.015625)"/>
       </defs>
       <use xlink:href="#DejaVuSans-34"/>
       <use xlink:href="#DejaVuSans-30" x="63.623047"/>
       <use xlink:href="#DejaVuSans-30" x="127.246094"/>
      </g>
     </g>
    </g>
   </g>
   <g id="matplotlib.axis_2">
    <g id="ytick_1">
     <g id="line2d_10">
      <defs>
       <path id="m2385c5dd62" d="M 0 0 
L -3.5 0 
" style="stroke: #000000; stroke-width: 0.8"/>
      </defs>
      <g>
       <use xlink:href="#m2385c5dd62" x="33.2875" y="276.561869" style="stroke: #000000; stroke-width: 0.8"/>
      </g>
     </g>
     <g id="text_10">
      <!-- 0 -->
      <g transform="translate(19.925 280.361088) scale(0.1 -0.1)">
       <use xlink:href="#DejaVuSans-30"/>
      </g>
     </g>
    </g>
    <g id="ytick_2">
     <g id="line2d_11">
      <g>
       <use xlink:href="#m2385c5dd62" x="33.2875" y="243.986581" style="stroke: #000000; stroke-width: 0.8"/>
      </g>
     </g>
     <g id="text_11">
      <!-- 20 -->
      <g transform="translate(13.5625 247.7858) scale(0.1 -0.1)">
       <use xlink:href="#DejaVuSans-32"/>
       <use xlink:href="#DejaVuSans-30" x="63.623047"/>
      </g>
     </g>
    </g>
    <g id="ytick_3">
     <g id="line2d_12">
      <g>
       <use xlink:href="#m2385c5dd62" x="33.2875" y="211.411293" style="stroke: #000000; stroke-width: 0.8"/>
      </g>
     </g>
     <g id="text_12">
      <!-- 40 -->
      <g transform="translate(13.5625 215.210512) scale(0.1 -0.1)">
       <use xlink:href="#DejaVuSans-34"/>
       <use xlink:href="#DejaVuSans-30" x="63.623047"/>
      </g>
     </g>
    </g>
    <g id="ytick_4">
     <g id="line2d_13">
      <g>
       <use xlink:href="#m2385c5dd62" x="33.2875" y="178.836005" style="stroke: #000000; stroke-width: 0.8"/>
      </g>
     </g>
     <g id="text_13">
      <!-- 60 -->
      <g transform="translate(13.5625 182.635224) scale(0.1 -0.1)">
       <defs>
        <path id="DejaVuSans-36" d="M 2113 2584 
Q 1688 2584 1439 2293 
Q 1191 2003 1191 1497 
Q 1191 994 1439 701 
Q 1688 409 2113 409 
Q 2538 409 2786 701 
Q 3034 994 3034 1497 
Q 3034 2003 2786 2293 
Q 2538 2584 2113 2584 
z
M 3366 4563 
L 3366 3988 
Q 3128 4100 2886 4159 
Q 2644 4219 2406 4219 
Q 1781 4219 1451 3797 
Q 1122 3375 1075 2522 
Q 1259 2794 1537 2939 
Q 1816 3084 2150 3084 
Q 2853 3084 3261 2657 
Q 3669 2231 3669 1497 
Q 3669 778 3244 343 
Q 2819 -91 2113 -91 
Q 1303 -91 875 529 
Q 447 1150 447 2328 
Q 447 3434 972 4092 
Q 1497 4750 2381 4750 
Q 2619 4750 2861 4703 
Q 3103 4656 3366 4563 
z
" transform="scale(0.015625)"/>
       </defs>
       <use xlink:href="#DejaVuSans-36"/>
       <use xlink:href="#DejaVuSans-30" x="63.623047"/>
      </g>
     </g>
    </g>
    <g id="ytick_5">
     <g id="line2d_14">
      <g>
       <use xlink:href="#m2385c5dd62" x="33.2875" y="146.260717" style="stroke: #000000; stroke-width: 0.8"/>
      </g>
     </g>
     <g id="text_14">
      <!-- 80 -->
      <g transform="translate(13.5625 150.059935) scale(0.1 -0.1)">
       <defs>
        <path id="DejaVuSans-38" d="M 2034 2216 
Q 1584 2216 1326 1975 
Q 1069 1734 1069 1313 
Q 1069 891 1326 650 
Q 1584 409 2034 409 
Q 2484 409 2743 651 
Q 3003 894 3003 1313 
Q 3003 1734 2745 1975 
Q 2488 2216 2034 2216 
z
M 1403 2484 
Q 997 2584 770 2862 
Q 544 3141 544 3541 
Q 544 4100 942 4425 
Q 1341 4750 2034 4750 
Q 2731 4750 3128 4425 
Q 3525 4100 3525 3541 
Q 3525 3141 3298 2862 
Q 3072 2584 2669 2484 
Q 3125 2378 3379 2068 
Q 3634 1759 3634 1313 
Q 3634 634 3220 271 
Q 2806 -91 2034 -91 
Q 1263 -91 848 271 
Q 434 634 434 1313 
Q 434 1759 690 2068 
Q 947 2378 1403 2484 
z
M 1172 3481 
Q 1172 3119 1398 2916 
Q 1625 2713 2034 2713 
Q 2441 2713 2670 2916 
Q 2900 3119 2900 3481 
Q 2900 3844 2670 4047 
Q 2441 4250 2034 4250 
Q 1625 4250 1398 4047 
Q 1172 3844 1172 3481 
z
" transform="scale(0.015625)"/>
       </defs>
       <use xlink:href="#DejaVuSans-38"/>
       <use xlink:href="#DejaVuSans-30" x="63.623047"/>
      </g>
     </g>
    </g>
    <g id="ytick_6">
     <g id="line2d_15">
      <g>
       <use xlink:href="#m2385c5dd62" x="33.2875" y="113.685428" style="stroke: #000000; stroke-width: 0.8"/>
      </g>
     </g>
     <g id="text_15">
      <!-- 100 -->
      <g transform="translate(7.2 117.484647) scale(0.1 -0.1)">
       <use xlink:href="#DejaVuSans-31"/>
       <use xlink:href="#DejaVuSans-30" x="63.623047"/>
       <use xlink:href="#DejaVuSans-30" x="127.246094"/>
      </g>
     </g>
    </g>
    <g id="ytick_7">
     <g id="line2d_16">
      <g>
       <use xlink:href="#m2385c5dd62" x="33.2875" y="81.11014" style="stroke: #000000; stroke-width: 0.8"/>
      </g>
     </g>
     <g id="text_16">
      <!-- 120 -->
      <g transform="translate(7.2 84.909359) scale(0.1 -0.1)">
       <use xlink:href="#DejaVuSans-31"/>
       <use xlink:href="#DejaVuSans-32" x="63.623047"/>
       <use xlink:href="#DejaVuSans-30" x="127.246094"/>
      </g>
     </g>
    </g>
    <g id="ytick_8">
     <g id="line2d_17">
      <g>
       <use xlink:href="#m2385c5dd62" x="33.2875" y="48.534852" style="stroke: #000000; stroke-width: 0.8"/>
      </g>
     </g>
     <g id="text_17">
      <!-- 140 -->
      <g transform="translate(7.2 52.334071) scale(0.1 -0.1)">
       <use xlink:href="#DejaVuSans-31"/>
       <use xlink:href="#DejaVuSans-34" x="63.623047"/>
       <use xlink:href="#DejaVuSans-30" x="127.246094"/>
      </g>
     </g>
    </g>
   </g>
   <g id="line2d_18">
    <path d="M 49.520227 265.822793 
L 50.317904 276.21748 
L 51.115581 275.292314 
L 51.913258 275.911764 
L 52.710935 276.334125 
L 53.508612 276.280868 
L 54.306289 275.313644 
L 55.103966 275.857388 
L 55.901643 276.240231 
L 56.69932 267.658816 
L 57.496997 268.610438 
L 58.294674 271.456678 
L 59.092351 265.6327 
L 59.890028 213.004569 
L 61.485383 267.57985 
L 62.28306 265.711927 
L 63.080737 267.708547 
L 63.878414 265.631849 
L 64.676091 264.815539 
L 65.473768 267.871807 
L 66.271445 268.647464 
L 67.069122 260.868879 
L 67.866799 245.747726 
L 68.664476 254.368216 
L 69.462153 264.755025 
L 70.25983 265.559959 
L 71.057507 270.83404 
L 71.855184 271.522286 
L 72.652861 270.945678 
L 73.450538 272.306018 
L 74.248215 268.717851 
L 75.045892 271.51877 
L 75.843569 166.178016 
L 76.641246 251.13822 
L 77.438923 247.095685 
L 78.2366 235.473614 
L 79.034277 270.620094 
L 79.831954 265.055555 
L 80.629631 273.040874 
L 81.427308 272.950285 
L 82.224985 273.42355 
L 83.022662 271.82464 
L 83.820339 271.108102 
L 84.618016 271.377468 
L 85.415693 228.395207 
L 86.21337 251.608459 
L 87.011047 237.303072 
L 87.808724 257.775648 
L 88.606401 262.008134 
L 89.404078 259.848816 
L 90.201755 272.32459 
L 90.999432 271.857219 
L 91.797109 269.343502 
L 92.594786 271.443251 
L 93.392463 270.39034 
L 94.19014 270.656973 
L 94.987817 254.070851 
L 95.785494 264.602051 
L 96.583171 247.551257 
L 97.380848 253.45333 
L 98.178525 261.601265 
L 98.976202 263.477856 
L 99.773879 271.835648 
L 100.571556 271.338679 
L 101.369233 272.59124 
L 102.16691 271.61842 
L 102.964587 269.348386 
L 103.762264 270.947527 
L 104.559941 265.828013 
L 105.357618 262.245634 
L 106.155295 242.016442 
L 106.952972 247.978783 
L 107.750649 269.046869 
L 108.548326 206.457534 
L 109.346003 272.728862 
L 110.14368 271.143042 
L 110.941357 270.918903 
L 111.739035 270.932976 
L 112.536712 269.20436 
L 113.334389 271.01595 
L 114.132066 263.827177 
L 115.72742 244.841231 
L 116.525097 246.41847 
L 117.322774 270.75621 
L 118.120451 266.367872 
L 118.918128 272.663578 
L 119.715805 270.823783 
L 120.513482 271.379854 
L 121.311159 273.062307 
L 122.108836 272.374646 
L 122.906513 271.934848 
L 123.70419 264.178645 
L 124.501867 251.524548 
L 125.299544 242.780015 
L 126.097221 245.544904 
L 126.894898 261.725947 
L 127.692575 261.820972 
L 128.490252 272.023151 
L 129.287929 271.888799 
L 130.085606 271.07995 
L 130.883283 267.76803 
L 131.68096 270.264419 
L 132.478637 270.01699 
L 133.276314 266.880434 
L 134.073991 259.628708 
L 134.871668 244.323371 
L 135.669345 242.127028 
L 136.467022 266.386722 
L 137.264699 265.683822 
L 138.062376 271.108535 
L 138.860053 271.815973 
L 139.65773 271.391591 
L 140.455407 269.794834 
L 141.253084 271.557598 
L 142.050761 271.284183 
L 142.848438 263.640487 
L 143.646115 249.132965 
L 144.443792 243.835192 
L 145.241469 247.976088 
L 146.039146 260.494898 
L 146.836823 262.581762 
L 147.6345 272.274512 
L 149.229854 272.688915 
L 150.027531 270.510957 
L 150.825208 269.731823 
L 151.622885 272.23584 
L 152.420562 265.00066 
L 153.218239 263.509169 
L 154.015916 253.236131 
L 154.813593 254.449101 
L 155.61127 261.022134 
L 156.408947 265.012358 
L 157.206624 271.812427 
L 158.004301 271.43347 
L 158.801978 272.412718 
L 159.599655 271.897694 
L 160.397332 268.483438 
L 161.195009 270.576949 
L 161.992687 261.210014 
L 163.588041 247.076159 
L 165.981072 263.079545 
L 166.778749 272.968823 
L 168.374103 271.181652 
L 169.17178 269.425506 
L 169.969457 269.629557 
L 170.767134 270.948381 
L 171.564811 183.512685 
L 172.362488 258.11664 
L 173.160165 246.267896 
L 173.957842 240.21935 
L 174.755519 258.402363 
L 175.553196 263.821345 
L 176.350873 272.008495 
L 177.14855 272.835773 
L 177.946227 272.242413 
L 178.743904 272.573422 
L 179.541581 264.70266 
L 180.339258 258.717797 
L 181.136935 238.240535 
L 181.934612 257.041355 
L 182.732289 242.600377 
L 183.529966 250.312307 
L 184.327643 266.451552 
L 185.12532 266.412411 
L 185.922997 272.367046 
L 186.720674 273.283221 
L 187.518351 270.653222 
L 188.316028 270.502332 
L 189.113705 268.794264 
L 189.911382 269.939583 
L 190.709059 257.59693 
L 191.506736 258.449291 
L 192.304413 251.742229 
L 193.10209 247.714907 
L 193.899767 264.079706 
L 194.697444 227.110513 
L 195.495121 273.061979 
L 196.292798 272.407913 
L 197.090475 272.105169 
L 197.888152 271.01374 
L 198.685829 270.327773 
L 199.483506 271.687773 
L 200.281183 268.3441 
L 201.07886 252.464172 
L 201.876537 249.426809 
L 202.674214 250.106934 
L 203.471891 260.912094 
L 204.269568 187.702466 
L 205.067245 272.099813 
L 205.864922 272.758296 
L 206.662599 272.72417 
L 207.460276 271.085137 
L 208.257953 272.133558 
L 209.853307 265.810859 
L 211.448661 241.663912 
L 212.246339 250.31237 
L 213.044016 263.71211 
L 213.841693 264.103767 
L 214.63937 272.748002 
L 215.437047 270.14751 
L 217.032401 270.553337 
L 217.830078 269.665728 
L 218.627755 271.314841 
L 219.425432 263.778905 
L 220.223109 260.291723 
L 221.020786 239.401995 
L 221.818463 253.100149 
L 222.61614 258.928661 
L 223.413817 251.925874 
L 224.211494 269.375639 
L 225.009171 270.4469 
L 225.806848 270.584363 
L 226.604525 271.073629 
L 227.402202 268.344555 
L 228.199879 269.485522 
L 228.997556 263.603132 
L 229.795233 248.84102 
L 230.59291 243.481442 
L 231.390587 244.163879 
L 232.188264 262.762004 
L 233.783618 272.254923 
L 234.581295 273.373424 
L 235.378972 269.415242 
L 236.176649 270.238687 
L 236.974326 272.173054 
L 237.772003 268.984203 
L 238.56968 265.10652 
L 240.165034 244.035524 
L 240.962711 246.394507 
L 241.760388 259.319682 
L 242.558065 264.984649 
L 243.355742 272.005146 
L 244.153419 271.464228 
L 244.951096 272.43881 
L 245.748773 270.194739 
L 246.54645 270.787634 
L 247.344127 271.685046 
L 248.141804 254.02533 
L 248.939481 251.117389 
L 249.737158 237.651878 
L 250.534835 254.026636 
L 251.332512 266.369916 
L 252.130189 263.523177 
L 252.927866 272.131249 
L 253.725543 272.889666 
L 254.52322 271.6197 
L 255.320897 272.288938 
L 256.118574 272.298279 
L 256.916251 272.523234 
L 257.713928 267.419385 
L 258.511605 251.524952 
L 259.309282 247.800661 
L 260.106959 243.009609 
L 260.904636 267.869366 
L 261.702313 267.692445 
L 262.499991 271.571902 
L 263.297668 272.87693 
L 264.095345 273.214303 
L 264.893022 269.707546 
L 265.690699 273.145688 
L 266.488376 269.652659 
L 267.286053 267.58317 
L 268.881407 237.582816 
L 269.679084 250.126196 
L 270.476761 268.313851 
L 271.274438 267.620657 
L 272.072115 271.997583 
L 272.869792 271.822981 
L 273.667469 270.808847 
L 274.465146 270.820216 
L 275.262823 273.277579 
L 276.858177 266.250878 
L 277.655854 260.784451 
L 278.453531 244.65244 
L 279.251208 258.328501 
L 280.048885 250.98266 
L 280.846562 252.803188 
L 281.644239 271.882274 
L 283.239593 270.27359 
L 285.632624 269.594155 
L 286.430301 265.752282 
L 287.227978 247.903015 
L 288.025655 246.004014 
L 288.823332 242.654035 
L 289.621009 264.996394 
L 290.418686 266.909353 
L 291.216363 273.259442 
L 292.01404 273.023744 
L 293.609394 271.848243 
L 294.407071 270.735349 
L 295.204748 270.150864 
L 296.002425 261.370216 
L 296.800102 258.789209 
L 297.597779 242.799086 
L 298.395456 247.382477 
L 299.193133 263.172125 
L 299.99081 202.482148 
L 300.788487 269.761015 
L 301.586164 268.427033 
L 302.383841 267.816081 
L 303.181518 269.55433 
L 303.979195 268.594685 
L 304.776872 268.07756 
L 305.574549 260.488381 
L 306.372226 256.1556 
L 307.169903 236.643817 
L 307.96758 251.486268 
L 308.765257 263.517661 
L 309.562934 261.181327 
L 310.360611 271.750649 
L 311.158288 272.428835 
L 312.753643 270.607943 
L 313.55132 270.883254 
L 314.348997 272.323598 
L 315.146674 260.748808 
L 315.944351 261.094529 
L 316.742028 246.331082 
L 317.539705 252.600442 
L 318.337382 260.418136 
L 319.135059 239.050604 
L 319.932736 273.533789 
L 320.730413 271.239832 
L 321.52809 269.737529 
L 322.325767 269.744237 
L 323.123444 270.371958 
L 323.921121 269.973512 
L 324.718798 238.4816 
L 325.516475 259.972849 
L 326.314152 242.453646 
L 327.111829 255.237268 
L 327.909506 264.578122 
L 328.707183 264.552663 
L 329.50486 272.716027 
L 330.302537 269.85806 
L 331.100214 270.374429 
L 331.897891 271.160097 
L 332.695568 270.743062 
L 333.493245 269.418654 
L 334.290922 264.044533 
L 335.088599 256.643582 
L 335.886276 246.973742 
L 336.683953 251.409295 
L 337.48163 256.999361 
L 338.279307 263.46652 
L 339.076984 272.283653 
L 339.874661 273.340085 
L 340.672338 271.484089 
L 341.470015 271.073063 
L 342.267692 270.410924 
L 343.065369 270.82421 
L 343.863046 264.581646 
L 344.660723 256.314631 
L 345.4584 251.281885 
L 346.256077 257.822527 
L 347.053754 260.80493 
L 347.851431 251.808663 
L 348.649108 258.393192 
L 349.446785 258.141902 
L 350.244462 256.08512 
L 351.042139 253.242221 
L 351.839816 255.652593 
L 352.637493 255.300319 
L 353.43517 34.414125 
L 354.232847 165.707617 
L 355.030524 250.034045 
L 355.828201 245.027465 
L 356.625878 262.583607 
L 357.423555 193.275675 
L 358.221232 273.010634 
L 359.018909 274.235525 
L 360.614263 269.939234 
L 361.41194 270.309976 
L 362.209617 270.33683 
L 363.007295 263.84999 
L 363.804972 251.60199 
L 364.602649 243.52725 
L 365.400326 247.320797 
L 366.198003 266.818588 
L 367.793357 271.887032 
L 368.591034 272.564603 
L 369.388711 270.136958 
L 370.186388 271.735761 
L 370.984065 270.572744 
L 371.781742 271.720613 
L 372.579419 271.693906 
L 373.377096 268.082843 
L 374.174773 178.532478 
L 374.174773 178.532478 
" clip-path="url(#p3cdc83fa6c)" style="fill: none; stroke: #1f77b4; stroke-width: 1.5; stroke-linecap: square"/>
   </g>
   <g id="patch_3">
    <path d="M 33.2875 288.430125 
L 33.2875 22.318125 
" style="fill: none; stroke: #000000; stroke-width: 0.8; stroke-linejoin: miter; stroke-linecap: square"/>
   </g>
   <g id="patch_4">
    <path d="M 390.4075 288.430125 
L 390.4075 22.318125 
" style="fill: none; stroke: #000000; stroke-width: 0.8; stroke-linejoin: miter; stroke-linecap: square"/>
   </g>
   <g id="patch_5">
    <path d="M 33.2875 288.430125 
L 390.4075 288.430125 
" style="fill: none; stroke: #000000; stroke-width: 0.8; stroke-linejoin: miter; stroke-linecap: square"/>
   </g>
   <g id="patch_6">
    <path d="M 33.2875 22.318125 
L 390.4075 22.318125 
" style="fill: none; stroke: #000000; stroke-width: 0.8; stroke-linejoin: miter; stroke-linecap: square"/>
   </g>
   <g id="text_18">
    <!-- Thermal Flux -->
    <g transform="translate(172.760313 16.318125) scale(0.12 -0.12)">
     <defs>
      <path id="DejaVuSans-54" d="M -19 4666 
L 3928 4666 
L 3928 4134 
L 2272 4134 
L 2272 0 
L 1638 0 
L 1638 4134 
L -19 4134 
L -19 4666 
z
" transform="scale(0.015625)"/>
      <path id="DejaVuSans-68" d="M 3513 2113 
L 3513 0 
L 2938 0 
L 2938 2094 
Q 2938 2591 2744 2837 
Q 2550 3084 2163 3084 
Q 1697 3084 1428 2787 
Q 1159 2491 1159 1978 
L 1159 0 
L 581 0 
L 581 4863 
L 1159 4863 
L 1159 2956 
Q 1366 3272 1645 3428 
Q 1925 3584 2291 3584 
Q 2894 3584 3203 3211 
Q 3513 2838 3513 2113 
z
" transform="scale(0.015625)"/>
      <path id="DejaVuSans-65" d="M 3597 1894 
L 3597 1613 
L 953 1613 
Q 991 1019 1311 708 
Q 1631 397 2203 397 
Q 2534 397 2845 478 
Q 3156 559 3463 722 
L 3463 178 
Q 3153 47 2828 -22 
Q 2503 -91 2169 -91 
Q 1331 -91 842 396 
Q 353 884 353 1716 
Q 353 2575 817 3079 
Q 1281 3584 2069 3584 
Q 2775 3584 3186 3129 
Q 3597 2675 3597 1894 
z
M 3022 2063 
Q 3016 2534 2758 2815 
Q 2500 3097 2075 3097 
Q 1594 3097 1305 2825 
Q 1016 2553 972 2059 
L 3022 2063 
z
" transform="scale(0.015625)"/>
      <path id="DejaVuSans-72" d="M 2631 2963 
Q 2534 3019 2420 3045 
Q 2306 3072 2169 3072 
Q 1681 3072 1420 2755 
Q 1159 2438 1159 1844 
L 1159 0 
L 581 0 
L 581 3500 
L 1159 3500 
L 1159 2956 
Q 1341 3275 1631 3429 
Q 1922 3584 2338 3584 
Q 2397 3584 2469 3576 
Q 2541 3569 2628 3553 
L 2631 2963 
z
" transform="scale(0.015625)"/>
      <path id="DejaVuSans-6d" d="M 3328 2828 
Q 3544 3216 3844 3400 
Q 4144 3584 4550 3584 
Q 5097 3584 5394 3201 
Q 5691 2819 5691 2113 
L 5691 0 
L 5113 0 
L 5113 2094 
Q 5113 2597 4934 2840 
Q 4756 3084 4391 3084 
Q 3944 3084 3684 2787 
Q 3425 2491 3425 1978 
L 3425 0 
L 2847 0 
L 2847 2094 
Q 2847 2600 2669 2842 
Q 2491 3084 2119 3084 
Q 1678 3084 1418 2786 
Q 1159 2488 1159 1978 
L 1159 0 
L 581 0 
L 581 3500 
L 1159 3500 
L 1159 2956 
Q 1356 3278 1631 3431 
Q 1906 3584 2284 3584 
Q 2666 3584 2933 3390 
Q 3200 3197 3328 2828 
z
" transform="scale(0.015625)"/>
      <path id="DejaVuSans-61" d="M 2194 1759 
Q 1497 1759 1228 1600 
Q 959 1441 959 1056 
Q 959 750 1161 570 
Q 1363 391 1709 391 
Q 2188 391 2477 730 
Q 2766 1069 2766 1631 
L 2766 1759 
L 2194 1759 
z
M 3341 1997 
L 3341 0 
L 2766 0 
L 2766 531 
Q 2569 213 2275 61 
Q 1981 -91 1556 -91 
Q 1019 -91 701 211 
Q 384 513 384 1019 
Q 384 1609 779 1909 
Q 1175 2209 1959 2209 
L 2766 2209 
L 2766 2266 
Q 2766 2663 2505 2880 
Q 2244 3097 1772 3097 
Q 1472 3097 1187 3025 
Q 903 2953 641 2809 
L 641 3341 
Q 956 3463 1253 3523 
Q 1550 3584 1831 3584 
Q 2591 3584 2966 3190 
Q 3341 2797 3341 1997 
z
" transform="scale(0.015625)"/>
      <path id="DejaVuSans-6c" d="M 603 4863 
L 1178 4863 
L 1178 0 
L 603 0 
L 603 4863 
z
" transform="scale(0.015625)"/>
      <path id="DejaVuSans-20" transform="scale(0.015625)"/>
      <path id="DejaVuSans-46" d="M 628 4666 
L 3309 4666 
L 3309 4134 
L 1259 4134 
L 1259 2759 
L 3109 2759 
L 3109 2228 
L 1259 2228 
L 1259 0 
L 628 0 
L 628 4666 
z
" transform="scale(0.015625)"/>
      <path id="DejaVuSans-75" d="M 544 1381 
L 544 3500 
L 1119 3500 
L 1119 1403 
Q 1119 906 1312 657 
Q 1506 409 1894 409 
Q 2359 409 2629 706 
Q 2900 1003 2900 1516 
L 2900 3500 
L 3475 3500 
L 3475 0 
L 2900 0 
L 2900 538 
Q 2691 219 2414 64 
Q 2138 -91 1772 -91 
Q 1169 -91 856 284 
Q 544 659 544 1381 
z
M 1991 3584 
L 1991 3584 
z
" transform="scale(0.015625)"/>
      <path id="DejaVuSans-78" d="M 3513 3500 
L 2247 1797 
L 3578 0 
L 2900 0 
L 1881 1375 
L 863 0 
L 184 0 
L 1544 1831 
L 300 3500 
L 978 3500 
L 1906 2253 
L 2834 3500 
L 3513 3500 
z
" transform="scale(0.015625)"/>
     </defs>
     <use xlink:href="#DejaVuSans-54"/>
     <use xlink:href="#DejaVuSans-68" x="61.083984"/>
     <use xlink:href="#DejaVuSans-65" x="124.462891"/>
     <use xlink:href="#DejaVuSans-72" x="185.986328"/>
     <use xlink:href="#DejaVuSans-6d" x="225.349609"/>
     <use xlink:href="#DejaVuSans-61" x="322.761719"/>
     <use xlink:href="#DejaVuSans-6c" x="384.041016"/>
     <use xlink:href="#DejaVuSans-20" x="411.824219"/>
     <use xlink:href="#DejaVuSans-46" x="443.611328"/>
     <use xlink:href="#DejaVuSans-6c" x="501.130859"/>
     <use xlink:href="#DejaVuSans-75" x="528.914062"/>
     <use xlink:href="#DejaVuSans-78" x="592.292969"/>
    </g>
   </g>
  </g>
 </g>
 <defs>
  <clipPath id="p3cdc83fa6c">
   <rect x="33.2875" y="22.318125" width="357.12" height="266.112"/>
  </clipPath>
 </defs>
</svg>
