<?xml version="1.0" encoding="utf-8" standalone="no"?>
<!DOCTYPE svg PUBLIC "-//W3C//DTD SVG 1.1//EN"
  "http://www.w3.org/Graphics/SVG/1.1/DTD/svg11.dtd">
<svg xmlns:xlink="http://www.w3.org/1999/xlink" width="400.785625pt" height="312.30825pt" viewBox="0 0 400.785625 312.30825" xmlns="http://www.w3.org/2000/svg" version="1.1">
 <metadata>
  <rdf:RDF xmlns:dc="http://purl.org/dc/elements/1.1/" xmlns:cc="http://creativecommons.org/ns#" xmlns:rdf="http://www.w3.org/1999/02/22-rdf-syntax-ns#">
   <cc:Work>
    <dc:type rdf:resource="http://purl.org/dc/dcmitype/StillImage"/>
    <dc:date>2024-03-22T10:08:29.470276</dc:date>
    <dc:format>image/svg+xml</dc:format>
    <dc:creator>
     <cc:Agent>
      <dc:title>Matplotlib v3.8.3, https://matplotlib.org/</dc:title>
     </cc:Agent>
    </dc:creator>
   </cc:Work>
  </rdf:RDF>
 </metadata>
 <defs>
  <style type="text/css">*{stroke-linejoin: round; stroke-linecap: butt}</style>
 </defs>
 <g id="figure_1">
  <g id="patch_1">
   <path d="M 0 312.30825 
L 400.785625 312.30825 
L 400.785625 0 
L 0 0 
z
" style="fill: #ffffff"/>
  </g>
  <g id="axes_1">
   <g id="patch_2">
    <path d="M 36.465625 288.430125 
L 393.585625 288.430125 
L 393.585625 22.318125 
L 36.465625 22.318125 
z
" style="fill: #ffffff"/>
   </g>
   <g id="matplotlib.axis_1">
    <g id="xtick_1">
     <g id="line2d_1">
      <defs>
       <path id="mb38d3d8a15" d="M 0 0 
L 0 3.5 
" style="stroke: #000000; stroke-width: 0.8"/>
      </defs>
      <g>
       <use xlink:href="#mb38d3d8a15" x="36.465625" y="288.430125" style="stroke: #000000; stroke-width: 0.8"/>
      </g>
     </g>
     <g id="text_1">
      <!-- 0 -->
      <g transform="translate(33.284375 303.028562) scale(0.1 -0.1)">
       <defs>
        <path id="DejaVuSans-30" d="M 2034 4250 
Q 1547 4250 1301 3770 
Q 1056 3291 1056 2328 
Q 1056 1369 1301 889 
Q 1547 409 2034 409 
Q 2525 409 2770 889 
Q 3016 1369 3016 2328 
Q 3016 3291 2770 3770 
Q 2525 4250 2034 4250 
z
M 2034 4750 
Q 2819 4750 3233 4129 
Q 3647 3509 3647 2328 
Q 3647 1150 3233 529 
Q 2819 -91 2034 -91 
Q 1250 -91 836 529 
Q 422 1150 422 2328 
Q 422 3509 836 4129 
Q 1250 4750 2034 4750 
z
" transform="scale(0.015625)"/>
       </defs>
       <use xlink:href="#DejaVuSans-30"/>
      </g>
     </g>
    </g>
    <g id="xtick_2">
     <g id="line2d_2">
      <g>
       <use xlink:href="#mb38d3d8a15" x="78.080242" y="288.430125" style="stroke: #000000; stroke-width: 0.8"/>
      </g>
     </g>
     <g id="text_2">
      <!-- 5 -->
      <g transform="translate(74.898992 303.028562) scale(0.1 -0.1)">
       <defs>
        <path id="DejaVuSans-35" d="M 691 4666 
L 3169 4666 
L 3169 4134 
L 1269 4134 
L 1269 2991 
Q 1406 3038 1543 3061 
Q 1681 3084 1819 3084 
Q 2600 3084 3056 2656 
Q 3513 2228 3513 1497 
Q 3513 744 3044 326 
Q 2575 -91 1722 -91 
Q 1428 -91 1123 -41 
Q 819 9 494 109 
L 494 744 
Q 775 591 1075 516 
Q 1375 441 1709 441 
Q 2250 441 2565 725 
Q 2881 1009 2881 1497 
Q 2881 1984 2565 2268 
Q 2250 2553 1709 2553 
Q 1456 2553 1204 2497 
Q 953 2441 691 2322 
L 691 4666 
z
" transform="scale(0.015625)"/>
       </defs>
       <use xlink:href="#DejaVuSans-35"/>
      </g>
     </g>
    </g>
    <g id="xtick_3">
     <g id="line2d_3">
      <g>
       <use xlink:href="#mb38d3d8a15" x="119.69486" y="288.430125" style="stroke: #000000; stroke-width: 0.8"/>
      </g>
     </g>
     <g id="text_3">
      <!-- 10 -->
      <g transform="translate(113.33236 303.028562) scale(0.1 -0.1)">
       <defs>
        <path id="DejaVuSans-31" d="M 794 531 
L 1825 531 
L 1825 4091 
L 703 3866 
L 703 4441 
L 1819 4666 
L 2450 4666 
L 2450 531 
L 3481 531 
L 3481 0 
L 794 0 
L 794 531 
z
" transform="scale(0.015625)"/>
       </defs>
       <use xlink:href="#DejaVuSans-31"/>
       <use xlink:href="#DejaVuSans-30" x="63.623047"/>
      </g>
     </g>
    </g>
    <g id="xtick_4">
     <g id="line2d_4">
      <g>
       <use xlink:href="#mb38d3d8a15" x="161.309477" y="288.430125" style="stroke: #000000; stroke-width: 0.8"/>
      </g>
     </g>
     <g id="text_4">
      <!-- 15 -->
      <g transform="translate(154.946977 303.028562) scale(0.1 -0.1)">
       <use xlink:href="#DejaVuSans-31"/>
       <use xlink:href="#DejaVuSans-35" x="63.623047"/>
      </g>
     </g>
    </g>
    <g id="xtick_5">
     <g id="line2d_5">
      <g>
       <use xlink:href="#mb38d3d8a15" x="202.924094" y="288.430125" style="stroke: #000000; stroke-width: 0.8"/>
      </g>
     </g>
     <g id="text_5">
      <!-- 20 -->
      <g transform="translate(196.561594 303.028562) scale(0.1 -0.1)">
       <defs>
        <path id="DejaVuSans-32" d="M 1228 531 
L 3431 531 
L 3431 0 
L 469 0 
L 469 531 
Q 828 903 1448 1529 
Q 2069 2156 2228 2338 
Q 2531 2678 2651 2914 
Q 2772 3150 2772 3378 
Q 2772 3750 2511 3984 
Q 2250 4219 1831 4219 
Q 1534 4219 1204 4116 
Q 875 4013 500 3803 
L 500 4441 
Q 881 4594 1212 4672 
Q 1544 4750 1819 4750 
Q 2544 4750 2975 4387 
Q 3406 4025 3406 3419 
Q 3406 3131 3298 2873 
Q 3191 2616 2906 2266 
Q 2828 2175 2409 1742 
Q 1991 1309 1228 531 
z
" transform="scale(0.015625)"/>
       </defs>
       <use xlink:href="#DejaVuSans-32"/>
       <use xlink:href="#DejaVuSans-30" x="63.623047"/>
      </g>
     </g>
    </g>
    <g id="xtick_6">
     <g id="line2d_6">
      <g>
       <use xlink:href="#mb38d3d8a15" x="244.538712" y="288.430125" style="stroke: #000000; stroke-width: 0.8"/>
      </g>
     </g>
     <g id="text_6">
      <!-- 25 -->
      <g transform="translate(238.176212 303.028562) scale(0.1 -0.1)">
       <use xlink:href="#DejaVuSans-32"/>
       <use xlink:href="#DejaVuSans-35" x="63.623047"/>
      </g>
     </g>
    </g>
    <g id="xtick_7">
     <g id="line2d_7">
      <g>
       <use xlink:href="#mb38d3d8a15" x="286.153329" y="288.430125" style="stroke: #000000; stroke-width: 0.8"/>
      </g>
     </g>
     <g id="text_7">
      <!-- 30 -->
      <g transform="translate(279.790829 303.028562) scale(0.1 -0.1)">
       <defs>
        <path id="DejaVuSans-33" d="M 2597 2516 
Q 3050 2419 3304 2112 
Q 3559 1806 3559 1356 
Q 3559 666 3084 287 
Q 2609 -91 1734 -91 
Q 1441 -91 1130 -33 
Q 819 25 488 141 
L 488 750 
Q 750 597 1062 519 
Q 1375 441 1716 441 
Q 2309 441 2620 675 
Q 2931 909 2931 1356 
Q 2931 1769 2642 2001 
Q 2353 2234 1838 2234 
L 1294 2234 
L 1294 2753 
L 1863 2753 
Q 2328 2753 2575 2939 
Q 2822 3125 2822 3475 
Q 2822 3834 2567 4026 
Q 2313 4219 1838 4219 
Q 1578 4219 1281 4162 
Q 984 4106 628 3988 
L 628 4550 
Q 988 4650 1302 4700 
Q 1616 4750 1894 4750 
Q 2613 4750 3031 4423 
Q 3450 4097 3450 3541 
Q 3450 3153 3228 2886 
Q 3006 2619 2597 2516 
z
" transform="scale(0.015625)"/>
       </defs>
       <use xlink:href="#DejaVuSans-33"/>
       <use xlink:href="#DejaVuSans-30" x="63.623047"/>
      </g>
     </g>
    </g>
    <g id="xtick_8">
     <g id="line2d_8">
      <g>
       <use xlink:href="#mb38d3d8a15" x="327.767946" y="288.430125" style="stroke: #000000; stroke-width: 0.8"/>
      </g>
     </g>
     <g id="text_8">
      <!-- 35 -->
      <g transform="translate(321.405446 303.028562) scale(0.1 -0.1)">
       <use xlink:href="#DejaVuSans-33"/>
       <use xlink:href="#DejaVuSans-35" x="63.623047"/>
      </g>
     </g>
    </g>
    <g id="xtick_9">
     <g id="line2d_9">
      <g>
       <use xlink:href="#mb38d3d8a15" x="369.382564" y="288.430125" style="stroke: #000000; stroke-width: 0.8"/>
      </g>
     </g>
     <g id="text_9">
      <!-- 40 -->
      <g transform="translate(363.020064 303.028562) scale(0.1 -0.1)">
       <defs>
        <path id="DejaVuSans-34" d="M 2419 4116 
L 825 1625 
L 2419 1625 
L 2419 4116 
z
M 2253 4666 
L 3047 4666 
L 3047 1625 
L 3713 1625 
L 3713 1100 
L 3047 1100 
L 3047 0 
L 2419 0 
L 2419 1100 
L 313 1100 
L 313 1709 
L 2253 4666 
z
" transform="scale(0.015625)"/>
       </defs>
       <use xlink:href="#DejaVuSans-34"/>
       <use xlink:href="#DejaVuSans-30" x="63.623047"/>
      </g>
     </g>
    </g>
   </g>
   <g id="matplotlib.axis_2">
    <g id="ytick_1">
     <g id="line2d_10">
      <defs>
       <path id="m3b300a613a" d="M 0 0 
L -3.5 0 
" style="stroke: #000000; stroke-width: 0.8"/>
      </defs>
      <g>
       <use xlink:href="#m3b300a613a" x="36.465625" y="261.402043" style="stroke: #000000; stroke-width: 0.8"/>
      </g>
     </g>
     <g id="text_10">
      <!-- 2.45 -->
      <g transform="translate(7.2 265.201262) scale(0.1 -0.1)">
       <defs>
        <path id="DejaVuSans-2e" d="M 684 794 
L 1344 794 
L 1344 0 
L 684 0 
L 684 794 
z
" transform="scale(0.015625)"/>
       </defs>
       <use xlink:href="#DejaVuSans-32"/>
       <use xlink:href="#DejaVuSans-2e" x="63.623047"/>
       <use xlink:href="#DejaVuSans-34" x="95.410156"/>
       <use xlink:href="#DejaVuSans-35" x="159.033203"/>
      </g>
     </g>
    </g>
    <g id="ytick_2">
     <g id="line2d_11">
      <g>
       <use xlink:href="#m3b300a613a" x="36.465625" y="218.292257" style="stroke: #000000; stroke-width: 0.8"/>
      </g>
     </g>
     <g id="text_11">
      <!-- 2.50 -->
      <g transform="translate(7.2 222.091476) scale(0.1 -0.1)">
       <use xlink:href="#DejaVuSans-32"/>
       <use xlink:href="#DejaVuSans-2e" x="63.623047"/>
       <use xlink:href="#DejaVuSans-35" x="95.410156"/>
       <use xlink:href="#DejaVuSans-30" x="159.033203"/>
      </g>
     </g>
    </g>
    <g id="ytick_3">
     <g id="line2d_12">
      <g>
       <use xlink:href="#m3b300a613a" x="36.465625" y="175.182471" style="stroke: #000000; stroke-width: 0.8"/>
      </g>
     </g>
     <g id="text_12">
      <!-- 2.55 -->
      <g transform="translate(7.2 178.98169) scale(0.1 -0.1)">
       <use xlink:href="#DejaVuSans-32"/>
       <use xlink:href="#DejaVuSans-2e" x="63.623047"/>
       <use xlink:href="#DejaVuSans-35" x="95.410156"/>
       <use xlink:href="#DejaVuSans-35" x="159.033203"/>
      </g>
     </g>
    </g>
    <g id="ytick_4">
     <g id="line2d_13">
      <g>
       <use xlink:href="#m3b300a613a" x="36.465625" y="132.072685" style="stroke: #000000; stroke-width: 0.8"/>
      </g>
     </g>
     <g id="text_13">
      <!-- 2.60 -->
      <g transform="translate(7.2 135.871903) scale(0.1 -0.1)">
       <defs>
        <path id="DejaVuSans-36" d="M 2113 2584 
Q 1688 2584 1439 2293 
Q 1191 2003 1191 1497 
Q 1191 994 1439 701 
Q 1688 409 2113 409 
Q 2538 409 2786 701 
Q 3034 994 3034 1497 
Q 3034 2003 2786 2293 
Q 2538 2584 2113 2584 
z
M 3366 4563 
L 3366 3988 
Q 3128 4100 2886 4159 
Q 2644 4219 2406 4219 
Q 1781 4219 1451 3797 
Q 1122 3375 1075 2522 
Q 1259 2794 1537 2939 
Q 1816 3084 2150 3084 
Q 2853 3084 3261 2657 
Q 3669 2231 3669 1497 
Q 3669 778 3244 343 
Q 2819 -91 2113 -91 
Q 1303 -91 875 529 
Q 447 1150 447 2328 
Q 447 3434 972 4092 
Q 1497 4750 2381 4750 
Q 2619 4750 2861 4703 
Q 3103 4656 3366 4563 
z
" transform="scale(0.015625)"/>
       </defs>
       <use xlink:href="#DejaVuSans-32"/>
       <use xlink:href="#DejaVuSans-2e" x="63.623047"/>
       <use xlink:href="#DejaVuSans-36" x="95.410156"/>
       <use xlink:href="#DejaVuSans-30" x="159.033203"/>
      </g>
     </g>
    </g>
    <g id="ytick_5">
     <g id="line2d_14">
      <g>
       <use xlink:href="#m3b300a613a" x="36.465625" y="88.962898" style="stroke: #000000; stroke-width: 0.8"/>
      </g>
     </g>
     <g id="text_14">
      <!-- 2.65 -->
      <g transform="translate(7.2 92.762117) scale(0.1 -0.1)">
       <use xlink:href="#DejaVuSans-32"/>
       <use xlink:href="#DejaVuSans-2e" x="63.623047"/>
       <use xlink:href="#DejaVuSans-36" x="95.410156"/>
       <use xlink:href="#DejaVuSans-35" x="159.033203"/>
      </g>
     </g>
    </g>
    <g id="ytick_6">
     <g id="line2d_15">
      <g>
       <use xlink:href="#m3b300a613a" x="36.465625" y="45.853112" style="stroke: #000000; stroke-width: 0.8"/>
      </g>
     </g>
     <g id="text_15">
      <!-- 2.70 -->
      <g transform="translate(7.2 49.652331) scale(0.1 -0.1)">
       <defs>
        <path id="DejaVuSans-37" d="M 525 4666 
L 3525 4666 
L 3525 4397 
L 1831 0 
L 1172 0 
L 2766 4134 
L 525 4134 
L 525 4666 
z
" transform="scale(0.015625)"/>
       </defs>
       <use xlink:href="#DejaVuSans-32"/>
       <use xlink:href="#DejaVuSans-2e" x="63.623047"/>
       <use xlink:href="#DejaVuSans-37" x="95.410156"/>
       <use xlink:href="#DejaVuSans-30" x="159.033203"/>
      </g>
     </g>
    </g>
    <g id="text_16">
     <!-- 1e16 -->
     <g transform="translate(36.465625 19.318125) scale(0.1 -0.1)">
      <defs>
       <path id="DejaVuSans-65" d="M 3597 1894 
L 3597 1613 
L 953 1613 
Q 991 1019 1311 708 
Q 1631 397 2203 397 
Q 2534 397 2845 478 
Q 3156 559 3463 722 
L 3463 178 
Q 3153 47 2828 -22 
Q 2503 -91 2169 -91 
Q 1331 -91 842 396 
Q 353 884 353 1716 
Q 353 2575 817 3079 
Q 1281 3584 2069 3584 
Q 2775 3584 3186 3129 
Q 3597 2675 3597 1894 
z
M 3022 2063 
Q 3016 2534 2758 2815 
Q 2500 3097 2075 3097 
Q 1594 3097 1305 2825 
Q 1016 2553 972 2059 
L 3022 2063 
z
" transform="scale(0.015625)"/>
      </defs>
      <use xlink:href="#DejaVuSans-31"/>
      <use xlink:href="#DejaVuSans-65" x="63.623047"/>
      <use xlink:href="#DejaVuSans-31" x="125.146484"/>
      <use xlink:href="#DejaVuSans-36" x="188.769531"/>
     </g>
    </g>
   </g>
   <g id="line2d_16">
    <path d="M 36.465625 37.504681 
L 37.423051 76.989601 
L 38.380478 177.529331 
L 39.337904 236.890295 
L 40.29533 264.181616 
L 41.252756 273.778616 
L 42.210183 264.835083 
L 43.167609 237.333587 
L 44.125035 178.484847 
L 45.082461 77.251863 
L 46.039888 40.359883 
L 46.997314 39.546672 
L 47.95474 77.402075 
L 48.912167 178.691878 
L 49.869593 238.403001 
L 50.827019 265.87155 
L 51.784445 273.894198 
L 52.741872 267.032766 
L 53.699298 238.618146 
L 54.656724 178.673484 
L 55.61415 76.138241 
L 56.571577 39.431795 
L 57.529003 38.822236 
L 58.486429 77.450561 
L 59.443856 179.023579 
L 60.401282 239.190244 
L 61.358708 265.661719 
L 62.316134 273.983245 
L 63.273561 266.01079 
L 64.230987 237.596749 
L 65.188413 179.222574 
L 66.145839 76.257287 
L 67.103266 38.084849 
L 68.060692 37.286412 
L 69.018118 76.248648 
L 69.975545 179.442781 
L 70.932971 237.773892 
L 71.890397 265.792565 
L 72.847823 274.860749 
L 73.80525 265.790321 
L 74.762676 238.111394 
L 75.720102 177.798325 
L 76.677528 74.552785 
L 77.634955 37.091074 
L 78.592381 37.540716 
L 79.549807 75.525468 
L 80.507234 177.921811 
L 81.46466 239.06314 
L 82.422086 266.016341 
L 83.379512 274.228896 
L 84.336939 265.435939 
L 85.294365 237.194281 
L 86.251791 176.067135 
L 87.209217 74.199649 
L 88.166644 37.324705 
L 89.12407 37.127877 
L 90.081496 74.330132 
L 91.038923 177.552493 
L 91.996349 236.536886 
L 92.953775 264.639489 
L 93.911201 271.472202 
L 94.868628 262.976586 
L 95.826054 236.263171 
L 96.78348 177.25763 
L 97.740907 75.490212 
L 98.698333 36.055902 
L 99.655759 36.179983 
L 100.613185 74.476437 
L 101.570612 176.897692 
L 102.528038 237.183273 
L 103.485464 263.771111 
L 104.44289 271.044861 
L 105.400317 262.970031 
L 106.357743 234.864906 
L 107.315169 175.303644 
L 108.272596 72.45425 
L 109.230022 34.758376 
L 110.187448 34.414125 
L 111.144874 73.687359 
L 112.102301 176.625034 
L 113.059727 237.459904 
L 114.017153 264.221853 
L 114.974579 272.751962 
L 115.932006 265.362977 
L 116.889432 238.031099 
L 117.846858 177.748758 
L 118.804285 74.019428 
L 119.761711 36.421275 
L 120.719137 36.992712 
L 121.676563 74.858739 
L 122.63399 178.271504 
L 123.591416 237.749953 
L 124.548842 264.676072 
L 125.506268 272.798722 
L 126.463695 264.859065 
L 127.421121 237.135749 
L 128.378547 177.388039 
L 129.335974 73.317804 
L 130.2934 37.076865 
L 131.250826 36.474213 
L 132.208252 73.712905 
L 133.165679 177.306266 
L 134.123105 238.115541 
L 135.080531 264.90794 
L 136.037957 273.125298 
L 136.995384 265.270331 
L 137.95281 235.94213 
L 138.910236 175.042319 
L 139.867663 73.584334 
L 140.825089 35.922903 
L 141.782515 35.674628 
L 142.739941 72.918656 
L 143.697368 174.472079 
L 144.654794 235.890784 
L 145.61222 262.471096 
L 146.569646 271.219654 
L 147.527073 262.969647 
L 148.484499 236.657117 
L 149.441925 177.624326 
L 150.399352 75.435351 
L 151.356778 38.117641 
L 152.314204 36.565168 
L 153.27163 76.23161 
L 154.229057 178.540581 
L 155.186483 238.02499 
L 156.143909 265.452884 
L 157.101335 272.099242 
L 158.058762 263.558167 
L 159.016188 236.223563 
L 159.973614 176.174336 
L 160.931041 72.479185 
L 161.888467 36.402579 
L 162.845893 36.275376 
L 163.803319 72.273572 
L 164.760746 176.379294 
L 165.718172 235.829246 
L 166.675598 263.113486 
L 167.633024 271.969663 
L 168.590451 263.469939 
L 169.547877 237.049223 
L 170.505303 176.125987 
L 171.46273 74.336894 
L 172.420156 37.279327 
L 173.377582 36.439158 
L 174.335008 74.368998 
L 175.292435 176.314165 
L 176.249861 235.958761 
L 177.207287 262.847044 
L 178.164713 270.250524 
L 179.12214 263.36439 
L 180.079566 237.237196 
L 181.036992 177.070951 
L 181.994419 74.404125 
L 182.951845 35.945015 
L 183.909271 34.88993 
L 184.866697 72.831447 
L 185.824124 176.235427 
L 186.78155 235.241792 
L 187.738976 264.394551 
L 188.696402 272.383112 
L 189.653829 263.069143 
L 190.611255 236.673176 
L 191.568681 177.834768 
L 192.526108 75.992775 
L 193.483534 38.045216 
L 194.44096 38.098991 
L 195.398386 77.999697 
L 196.355813 179.924784 
L 197.313239 239.421809 
L 198.270665 266.236432 
L 199.228091 275.888597 
L 200.185518 265.760226 
L 201.142944 239.131469 
L 202.10037 179.644108 
L 203.057797 76.28989 
L 204.015223 37.862194 
L 204.972649 38.68901 
L 205.930075 77.605963 
L 206.887502 180.279664 
L 207.844928 238.937063 
L 208.802354 266.110658 
L 209.75978 276.334125 
L 210.717207 267.47592 
L 211.674633 240.325441 
L 212.632059 180.516402 
L 213.589486 77.260814 
L 214.546912 37.700987 
L 215.504338 38.047402 
L 216.461764 75.076101 
L 217.419191 177.271651 
L 218.376617 237.761709 
L 219.334043 264.338098 
L 220.29147 274.336162 
L 221.248896 264.606854 
L 222.206322 238.002145 
L 223.163748 178.223955 
L 224.121175 75.231083 
L 225.078601 38.684945 
L 226.036027 38.583796 
L 226.993453 76.254986 
L 227.95088 177.317738 
L 228.908306 236.272273 
L 229.865732 264.36351 
L 230.823159 271.682044 
L 231.780585 262.726696 
L 232.738011 234.877579 
L 233.695437 175.456134 
L 234.652864 72.939687 
L 235.61029 37.847752 
L 236.567716 37.329315 
L 237.525142 74.657184 
L 238.482569 176.211218 
L 239.439995 236.495248 
L 240.397421 263.342774 
L 241.354848 273.741002 
L 242.312274 265.166506 
L 243.2697 237.714406 
L 244.227126 178.729606 
L 245.184553 75.700684 
L 246.141979 36.736755 
L 247.099405 36.242854 
L 248.056831 75.849727 
L 249.014258 178.16325 
L 249.971684 237.436688 
L 250.92911 264.538017 
L 251.886537 274.340257 
L 252.843963 264.928846 
L 253.801389 237.180791 
L 254.758815 177.452856 
L 255.716242 74.961558 
L 256.673668 38.644005 
L 257.631094 37.312242 
L 258.58852 76.163474 
L 259.545947 178.189729 
L 260.503373 238.90259 
L 261.460799 266.261704 
L 262.418226 274.008479 
L 263.375652 265.287922 
L 264.333078 237.70222 
L 265.290504 177.346293 
L 266.247931 75.55771 
L 267.205357 36.865374 
L 268.162783 37.176947 
L 269.120209 73.645617 
L 270.077636 176.379298 
L 271.035062 238.587475 
L 271.992488 266.854543 
L 272.949915 275.561658 
L 273.907341 265.764944 
L 274.864767 237.260476 
L 275.822193 177.036806 
L 276.77962 74.917715 
L 277.737046 36.450772 
L 278.694472 37.429562 
L 279.651898 74.557213 
L 280.609325 176.895451 
L 281.566751 235.69787 
L 282.524177 265.846115 
L 283.481604 274.434805 
L 284.43903 266.611098 
L 285.396456 238.347249 
L 286.353882 178.007333 
L 287.311309 75.356647 
L 288.268735 38.115163 
L 289.226161 38.386445 
L 290.183587 75.56519 
L 291.141014 178.378505 
L 292.09844 237.018089 
L 293.055866 265.031407 
L 294.013293 273.451112 
L 294.970719 265.522029 
L 295.928145 236.422223 
L 296.885571 179.049521 
L 297.842998 76.140592 
L 298.800424 37.264054 
L 299.75785 37.330727 
L 300.715276 75.159181 
L 301.672703 177.20102 
L 302.630129 237.522941 
L 303.587555 264.939449 
L 304.544982 273.551401 
L 305.502408 266.036164 
L 306.459834 239.230995 
L 307.41726 178.286846 
L 308.374687 74.699599 
L 309.332113 35.774072 
L 310.289539 35.810542 
L 311.246965 74.962371 
L 312.204392 176.96056 
L 313.161818 237.779567 
L 314.119244 266.052096 
L 315.076671 274.331929 
L 316.034097 266.26916 
L 316.991523 238.263012 
L 317.948949 178.023506 
L 318.906376 75.281966 
L 319.863802 38.914525 
L 320.821228 37.277202 
L 321.778654 74.823008 
L 322.736081 177.016747 
L 323.693507 238.270173 
L 324.650933 265.45011 
L 325.60836 272.902894 
L 326.565786 265.189175 
L 327.523212 239.560948 
L 328.480638 178.280171 
L 329.438065 75.145986 
L 330.395491 36.336463 
L 331.352917 36.931216 
L 332.310343 73.902435 
L 333.26777 177.575816 
L 334.225196 238.484627 
L 335.182622 264.612972 
L 336.140049 272.415428 
L 337.097475 264.863625 
L 338.054901 238.153681 
L 339.012327 178.515776 
L 339.969754 74.516292 
L 340.92718 38.842346 
L 341.884606 38.01258 
L 342.842033 76.611919 
L 343.799459 179.145672 
L 344.756885 239.703464 
L 345.714311 265.518707 
L 346.671738 274.287275 
L 347.629164 265.219156 
L 348.58659 238.118936 
L 349.544016 178.673917 
L 350.501443 77.519847 
L 351.458869 38.240664 
L 352.416295 40.015548 
L 353.373722 75.664965 
L 354.331148 177.561881 
L 355.288574 239.254636 
L 356.246 265.208211 
L 357.203427 274.666648 
L 358.160853 266.221112 
L 359.118279 238.662837 
L 360.075705 178.531716 
L 361.033132 75.792743 
L 361.990558 35.563301 
L 362.947984 35.064589 
L 363.905411 75.07016 
L 364.862837 177.555609 
L 365.820263 238.103333 
L 366.777689 266.668598 
L 367.735116 274.274997 
L 368.692542 263.982633 
L 369.649968 237.61874 
L 370.607394 177.685131 
L 371.564821 74.802584 
L 372.522247 37.264071 
L 373.479673 35.587344 
L 374.4371 75.09402 
L 375.394526 176.019119 
L 376.351952 237.814221 
L 377.309378 265.728075 
L 378.266805 273.890693 
L 379.224231 265.412342 
L 380.181657 238.224732 
L 381.139083 178.525571 
L 382.09651 76.559902 
L 383.053936 36.446451 
L 384.011362 36.491197 
L 384.968789 76.211452 
L 385.926215 178.210872 
L 386.883641 238.31854 
L 387.841067 263.923495 
L 388.798494 272.4779 
L 389.75592 264.5037 
L 390.713346 237.100295 
L 391.670772 176.32544 
L 392.628199 75.819197 
L 393.585625 38.523473 
L 393.585625 38.523473 
" clip-path="url(#p53833dfc0b)" style="fill: none; stroke: #1f77b4; stroke-width: 1.5; stroke-linecap: square"/>
   </g>
   <g id="line2d_17">
    <path d="M 36.465625 168.81757 
L 214.546912 168.81757 
L 215.504338 169.129254 
L 393.585625 169.129254 
L 393.585625 169.129254 
" clip-path="url(#p53833dfc0b)" style="fill: none; stroke: #ffa500; stroke-width: 1.5; stroke-linecap: square"/>
   </g>
   <g id="patch_3">
    <path d="M 36.465625 288.430125 
L 36.465625 22.318125 
" style="fill: none; stroke: #000000; stroke-width: 0.8; stroke-linejoin: miter; stroke-linecap: square"/>
   </g>
   <g id="patch_4">
    <path d="M 393.585625 288.430125 
L 393.585625 22.318125 
" style="fill: none; stroke: #000000; stroke-width: 0.8; stroke-linejoin: miter; stroke-linecap: square"/>
   </g>
   <g id="patch_5">
    <path d="M 36.465625 288.430125 
L 393.585625 288.430125 
" style="fill: none; stroke: #000000; stroke-width: 0.8; stroke-linejoin: miter; stroke-linecap: square"/>
   </g>
   <g id="patch_6">
    <path d="M 36.465625 22.318125 
L 393.585625 22.318125 
" style="fill: none; stroke: #000000; stroke-width: 0.8; stroke-linejoin: miter; stroke-linecap: square"/>
   </g>
   <g id="text_17">
    <!-- Thermal Flux -->
    <g transform="translate(175.938438 16.318125) scale(0.12 -0.12)">
     <defs>
      <path id="DejaVuSans-54" d="M -19 4666 
L 3928 4666 
L 3928 4134 
L 2272 4134 
L 2272 0 
L 1638 0 
L 1638 4134 
L -19 4134 
L -19 4666 
z
" transform="scale(0.015625)"/>
      <path id="DejaVuSans-68" d="M 3513 2113 
L 3513 0 
L 2938 0 
L 2938 2094 
Q 2938 2591 2744 2837 
Q 2550 3084 2163 3084 
Q 1697 3084 1428 2787 
Q 1159 2491 1159 1978 
L 1159 0 
L 581 0 
L 581 4863 
L 1159 4863 
L 1159 2956 
Q 1366 3272 1645 3428 
Q 1925 3584 2291 3584 
Q 2894 3584 3203 3211 
Q 3513 2838 3513 2113 
z
" transform="scale(0.015625)"/>
      <path id="DejaVuSans-72" d="M 2631 2963 
Q 2534 3019 2420 3045 
Q 2306 3072 2169 3072 
Q 1681 3072 1420 2755 
Q 1159 2438 1159 1844 
L 1159 0 
L 581 0 
L 581 3500 
L 1159 3500 
L 1159 2956 
Q 1341 3275 1631 3429 
Q 1922 3584 2338 3584 
Q 2397 3584 2469 3576 
Q 2541 3569 2628 3553 
L 2631 2963 
z
" transform="scale(0.015625)"/>
      <path id="DejaVuSans-6d" d="M 3328 2828 
Q 3544 3216 3844 3400 
Q 4144 3584 4550 3584 
Q 5097 3584 5394 3201 
Q 5691 2819 5691 2113 
L 5691 0 
L 5113 0 
L 5113 2094 
Q 5113 2597 4934 2840 
Q 4756 3084 4391 3084 
Q 3944 3084 3684 2787 
Q 3425 2491 3425 1978 
L 3425 0 
L 2847 0 
L 2847 2094 
Q 2847 2600 2669 2842 
Q 2491 3084 2119 3084 
Q 1678 3084 1418 2786 
Q 1159 2488 1159 1978 
L 1159 0 
L 581 0 
L 581 3500 
L 1159 3500 
L 1159 2956 
Q 1356 3278 1631 3431 
Q 1906 3584 2284 3584 
Q 2666 3584 2933 3390 
Q 3200 3197 3328 2828 
z
" transform="scale(0.015625)"/>
      <path id="DejaVuSans-61" d="M 2194 1759 
Q 1497 1759 1228 1600 
Q 959 1441 959 1056 
Q 959 750 1161 570 
Q 1363 391 1709 391 
Q 2188 391 2477 730 
Q 2766 1069 2766 1631 
L 2766 1759 
L 2194 1759 
z
M 3341 1997 
L 3341 0 
L 2766 0 
L 2766 531 
Q 2569 213 2275 61 
Q 1981 -91 1556 -91 
Q 1019 -91 701 211 
Q 384 513 384 1019 
Q 384 1609 779 1909 
Q 1175 2209 1959 2209 
L 2766 2209 
L 2766 2266 
Q 2766 2663 2505 2880 
Q 2244 3097 1772 3097 
Q 1472 3097 1187 3025 
Q 903 2953 641 2809 
L 641 3341 
Q 956 3463 1253 3523 
Q 1550 3584 1831 3584 
Q 2591 3584 2966 3190 
Q 3341 2797 3341 1997 
z
" transform="scale(0.015625)"/>
      <path id="DejaVuSans-6c" d="M 603 4863 
L 1178 4863 
L 1178 0 
L 603 0 
L 603 4863 
z
" transform="scale(0.015625)"/>
      <path id="DejaVuSans-20" transform="scale(0.015625)"/>
      <path id="DejaVuSans-46" d="M 628 4666 
L 3309 4666 
L 3309 4134 
L 1259 4134 
L 1259 2759 
L 3109 2759 
L 3109 2228 
L 1259 2228 
L 1259 0 
L 628 0 
L 628 4666 
z
" transform="scale(0.015625)"/>
      <path id="DejaVuSans-75" d="M 544 1381 
L 544 3500 
L 1119 3500 
L 1119 1403 
Q 1119 906 1312 657 
Q 1506 409 1894 409 
Q 2359 409 2629 706 
Q 2900 1003 2900 1516 
L 2900 3500 
L 3475 3500 
L 3475 0 
L 2900 0 
L 2900 538 
Q 2691 219 2414 64 
Q 2138 -91 1772 -91 
Q 1169 -91 856 284 
Q 544 659 544 1381 
z
M 1991 3584 
L 1991 3584 
z
" transform="scale(0.015625)"/>
      <path id="DejaVuSans-78" d="M 3513 3500 
L 2247 1797 
L 3578 0 
L 2900 0 
L 1881 1375 
L 863 0 
L 184 0 
L 1544 1831 
L 300 3500 
L 978 3500 
L 1906 2253 
L 2834 3500 
L 3513 3500 
z
" transform="scale(0.015625)"/>
     </defs>
     <use xlink:href="#DejaVuSans-54"/>
     <use xlink:href="#DejaVuSans-68" x="61.083984"/>
     <use xlink:href="#DejaVuSans-65" x="124.462891"/>
     <use xlink:href="#DejaVuSans-72" x="185.986328"/>
     <use xlink:href="#DejaVuSans-6d" x="225.349609"/>
     <use xlink:href="#DejaVuSans-61" x="322.761719"/>
     <use xlink:href="#DejaVuSans-6c" x="384.041016"/>
     <use xlink:href="#DejaVuSans-20" x="411.824219"/>
     <use xlink:href="#DejaVuSans-46" x="443.611328"/>
     <use xlink:href="#DejaVuSans-6c" x="501.130859"/>
     <use xlink:href="#DejaVuSans-75" x="528.914062"/>
     <use xlink:href="#DejaVuSans-78" x="592.292969"/>
    </g>
   </g>
  </g>
 </g>
 <defs>
  <clipPath id="p53833dfc0b">
   <rect x="36.465625" y="22.318125" width="357.12" height="266.112"/>
  </clipPath>
 </defs>
</svg>
