<?xml version="1.0" encoding="utf-8" standalone="no"?>
<!DOCTYPE svg PUBLIC "-//W3C//DTD SVG 1.1//EN"
  "http://www.w3.org/Graphics/SVG/1.1/DTD/svg11.dtd">
<svg xmlns:xlink="http://www.w3.org/1999/xlink" width="400.785625pt" height="312.30825pt" viewBox="0 0 400.785625 312.30825" xmlns="http://www.w3.org/2000/svg" version="1.1">
 <metadata>
  <rdf:RDF xmlns:dc="http://purl.org/dc/elements/1.1/" xmlns:cc="http://creativecommons.org/ns#" xmlns:rdf="http://www.w3.org/1999/02/22-rdf-syntax-ns#">
   <cc:Work>
    <dc:type rdf:resource="http://purl.org/dc/dcmitype/StillImage"/>
    <dc:date>2024-03-18T12:15:15.531935</dc:date>
    <dc:format>image/svg+xml</dc:format>
    <dc:creator>
     <cc:Agent>
      <dc:title>Matplotlib v3.8.2, https://matplotlib.org/</dc:title>
     </cc:Agent>
    </dc:creator>
   </cc:Work>
  </rdf:RDF>
 </metadata>
 <defs>
  <style type="text/css">*{stroke-linejoin: round; stroke-linecap: butt}</style>
 </defs>
 <g id="figure_1">
  <g id="patch_1">
   <path d="M 0 312.30825 
L 400.785625 312.30825 
L 400.785625 0 
L 0 0 
z
" style="fill: #ffffff"/>
  </g>
  <g id="axes_1">
   <g id="patch_2">
    <path d="M 36.465625 288.430125 
L 393.585625 288.430125 
L 393.585625 22.318125 
L 36.465625 22.318125 
z
" style="fill: #ffffff"/>
   </g>
   <g id="matplotlib.axis_1">
    <g id="xtick_1">
     <g id="line2d_1">
      <defs>
       <path id="mc1d0eeeb45" d="M 0 0 
L 0 3.5 
" style="stroke: #000000; stroke-width: 0.8"/>
      </defs>
      <g>
       <use xlink:href="#mc1d0eeeb45" x="36.465625" y="288.430125" style="stroke: #000000; stroke-width: 0.8"/>
      </g>
     </g>
     <g id="text_1">
      <!-- 0 -->
      <g transform="translate(33.284375 303.028562) scale(0.1 -0.1)">
       <defs>
        <path id="DejaVuSans-30" d="M 2034 4250 
Q 1547 4250 1301 3770 
Q 1056 3291 1056 2328 
Q 1056 1369 1301 889 
Q 1547 409 2034 409 
Q 2525 409 2770 889 
Q 3016 1369 3016 2328 
Q 3016 3291 2770 3770 
Q 2525 4250 2034 4250 
z
M 2034 4750 
Q 2819 4750 3233 4129 
Q 3647 3509 3647 2328 
Q 3647 1150 3233 529 
Q 2819 -91 2034 -91 
Q 1250 -91 836 529 
Q 422 1150 422 2328 
Q 422 3509 836 4129 
Q 1250 4750 2034 4750 
z
" transform="scale(0.015625)"/>
       </defs>
       <use xlink:href="#DejaVuSans-30"/>
      </g>
     </g>
    </g>
    <g id="xtick_2">
     <g id="line2d_2">
      <g>
       <use xlink:href="#mc1d0eeeb45" x="78.080242" y="288.430125" style="stroke: #000000; stroke-width: 0.8"/>
      </g>
     </g>
     <g id="text_2">
      <!-- 5 -->
      <g transform="translate(74.898992 303.028562) scale(0.1 -0.1)">
       <defs>
        <path id="DejaVuSans-35" d="M 691 4666 
L 3169 4666 
L 3169 4134 
L 1269 4134 
L 1269 2991 
Q 1406 3038 1543 3061 
Q 1681 3084 1819 3084 
Q 2600 3084 3056 2656 
Q 3513 2228 3513 1497 
Q 3513 744 3044 326 
Q 2575 -91 1722 -91 
Q 1428 -91 1123 -41 
Q 819 9 494 109 
L 494 744 
Q 775 591 1075 516 
Q 1375 441 1709 441 
Q 2250 441 2565 725 
Q 2881 1009 2881 1497 
Q 2881 1984 2565 2268 
Q 2250 2553 1709 2553 
Q 1456 2553 1204 2497 
Q 953 2441 691 2322 
L 691 4666 
z
" transform="scale(0.015625)"/>
       </defs>
       <use xlink:href="#DejaVuSans-35"/>
      </g>
     </g>
    </g>
    <g id="xtick_3">
     <g id="line2d_3">
      <g>
       <use xlink:href="#mc1d0eeeb45" x="119.69486" y="288.430125" style="stroke: #000000; stroke-width: 0.8"/>
      </g>
     </g>
     <g id="text_3">
      <!-- 10 -->
      <g transform="translate(113.33236 303.028562) scale(0.1 -0.1)">
       <defs>
        <path id="DejaVuSans-31" d="M 794 531 
L 1825 531 
L 1825 4091 
L 703 3866 
L 703 4441 
L 1819 4666 
L 2450 4666 
L 2450 531 
L 3481 531 
L 3481 0 
L 794 0 
L 794 531 
z
" transform="scale(0.015625)"/>
       </defs>
       <use xlink:href="#DejaVuSans-31"/>
       <use xlink:href="#DejaVuSans-30" x="63.623047"/>
      </g>
     </g>
    </g>
    <g id="xtick_4">
     <g id="line2d_4">
      <g>
       <use xlink:href="#mc1d0eeeb45" x="161.309477" y="288.430125" style="stroke: #000000; stroke-width: 0.8"/>
      </g>
     </g>
     <g id="text_4">
      <!-- 15 -->
      <g transform="translate(154.946977 303.028562) scale(0.1 -0.1)">
       <use xlink:href="#DejaVuSans-31"/>
       <use xlink:href="#DejaVuSans-35" x="63.623047"/>
      </g>
     </g>
    </g>
    <g id="xtick_5">
     <g id="line2d_5">
      <g>
       <use xlink:href="#mc1d0eeeb45" x="202.924094" y="288.430125" style="stroke: #000000; stroke-width: 0.8"/>
      </g>
     </g>
     <g id="text_5">
      <!-- 20 -->
      <g transform="translate(196.561594 303.028562) scale(0.1 -0.1)">
       <defs>
        <path id="DejaVuSans-32" d="M 1228 531 
L 3431 531 
L 3431 0 
L 469 0 
L 469 531 
Q 828 903 1448 1529 
Q 2069 2156 2228 2338 
Q 2531 2678 2651 2914 
Q 2772 3150 2772 3378 
Q 2772 3750 2511 3984 
Q 2250 4219 1831 4219 
Q 1534 4219 1204 4116 
Q 875 4013 500 3803 
L 500 4441 
Q 881 4594 1212 4672 
Q 1544 4750 1819 4750 
Q 2544 4750 2975 4387 
Q 3406 4025 3406 3419 
Q 3406 3131 3298 2873 
Q 3191 2616 2906 2266 
Q 2828 2175 2409 1742 
Q 1991 1309 1228 531 
z
" transform="scale(0.015625)"/>
       </defs>
       <use xlink:href="#DejaVuSans-32"/>
       <use xlink:href="#DejaVuSans-30" x="63.623047"/>
      </g>
     </g>
    </g>
    <g id="xtick_6">
     <g id="line2d_6">
      <g>
       <use xlink:href="#mc1d0eeeb45" x="244.538712" y="288.430125" style="stroke: #000000; stroke-width: 0.8"/>
      </g>
     </g>
     <g id="text_6">
      <!-- 25 -->
      <g transform="translate(238.176212 303.028562) scale(0.1 -0.1)">
       <use xlink:href="#DejaVuSans-32"/>
       <use xlink:href="#DejaVuSans-35" x="63.623047"/>
      </g>
     </g>
    </g>
    <g id="xtick_7">
     <g id="line2d_7">
      <g>
       <use xlink:href="#mc1d0eeeb45" x="286.153329" y="288.430125" style="stroke: #000000; stroke-width: 0.8"/>
      </g>
     </g>
     <g id="text_7">
      <!-- 30 -->
      <g transform="translate(279.790829 303.028562) scale(0.1 -0.1)">
       <defs>
        <path id="DejaVuSans-33" d="M 2597 2516 
Q 3050 2419 3304 2112 
Q 3559 1806 3559 1356 
Q 3559 666 3084 287 
Q 2609 -91 1734 -91 
Q 1441 -91 1130 -33 
Q 819 25 488 141 
L 488 750 
Q 750 597 1062 519 
Q 1375 441 1716 441 
Q 2309 441 2620 675 
Q 2931 909 2931 1356 
Q 2931 1769 2642 2001 
Q 2353 2234 1838 2234 
L 1294 2234 
L 1294 2753 
L 1863 2753 
Q 2328 2753 2575 2939 
Q 2822 3125 2822 3475 
Q 2822 3834 2567 4026 
Q 2313 4219 1838 4219 
Q 1578 4219 1281 4162 
Q 984 4106 628 3988 
L 628 4550 
Q 988 4650 1302 4700 
Q 1616 4750 1894 4750 
Q 2613 4750 3031 4423 
Q 3450 4097 3450 3541 
Q 3450 3153 3228 2886 
Q 3006 2619 2597 2516 
z
" transform="scale(0.015625)"/>
       </defs>
       <use xlink:href="#DejaVuSans-33"/>
       <use xlink:href="#DejaVuSans-30" x="63.623047"/>
      </g>
     </g>
    </g>
    <g id="xtick_8">
     <g id="line2d_8">
      <g>
       <use xlink:href="#mc1d0eeeb45" x="327.767946" y="288.430125" style="stroke: #000000; stroke-width: 0.8"/>
      </g>
     </g>
     <g id="text_8">
      <!-- 35 -->
      <g transform="translate(321.405446 303.028562) scale(0.1 -0.1)">
       <use xlink:href="#DejaVuSans-33"/>
       <use xlink:href="#DejaVuSans-35" x="63.623047"/>
      </g>
     </g>
    </g>
    <g id="xtick_9">
     <g id="line2d_9">
      <g>
       <use xlink:href="#mc1d0eeeb45" x="369.382564" y="288.430125" style="stroke: #000000; stroke-width: 0.8"/>
      </g>
     </g>
     <g id="text_9">
      <!-- 40 -->
      <g transform="translate(363.020064 303.028562) scale(0.1 -0.1)">
       <defs>
        <path id="DejaVuSans-34" d="M 2419 4116 
L 825 1625 
L 2419 1625 
L 2419 4116 
z
M 2253 4666 
L 3047 4666 
L 3047 1625 
L 3713 1625 
L 3713 1100 
L 3047 1100 
L 3047 0 
L 2419 0 
L 2419 1100 
L 313 1100 
L 313 1709 
L 2253 4666 
z
" transform="scale(0.015625)"/>
       </defs>
       <use xlink:href="#DejaVuSans-34"/>
       <use xlink:href="#DejaVuSans-30" x="63.623047"/>
      </g>
     </g>
    </g>
   </g>
   <g id="matplotlib.axis_2">
    <g id="ytick_1">
     <g id="line2d_10">
      <defs>
       <path id="m00e0a19e36" d="M 0 0 
L -3.5 0 
" style="stroke: #000000; stroke-width: 0.8"/>
      </defs>
      <g>
       <use xlink:href="#m00e0a19e36" x="36.465625" y="285.025632" style="stroke: #000000; stroke-width: 0.8"/>
      </g>
     </g>
     <g id="text_10">
      <!-- 2.55 -->
      <g transform="translate(7.2 288.824851) scale(0.1 -0.1)">
       <defs>
        <path id="DejaVuSans-2e" d="M 684 794 
L 1344 794 
L 1344 0 
L 684 0 
L 684 794 
z
" transform="scale(0.015625)"/>
       </defs>
       <use xlink:href="#DejaVuSans-32"/>
       <use xlink:href="#DejaVuSans-2e" x="63.623047"/>
       <use xlink:href="#DejaVuSans-35" x="95.410156"/>
       <use xlink:href="#DejaVuSans-35" x="159.033203"/>
      </g>
     </g>
    </g>
    <g id="ytick_2">
     <g id="line2d_11">
      <g>
       <use xlink:href="#m00e0a19e36" x="36.465625" y="246.29082" style="stroke: #000000; stroke-width: 0.8"/>
      </g>
     </g>
     <g id="text_11">
      <!-- 2.60 -->
      <g transform="translate(7.2 250.090038) scale(0.1 -0.1)">
       <defs>
        <path id="DejaVuSans-36" d="M 2113 2584 
Q 1688 2584 1439 2293 
Q 1191 2003 1191 1497 
Q 1191 994 1439 701 
Q 1688 409 2113 409 
Q 2538 409 2786 701 
Q 3034 994 3034 1497 
Q 3034 2003 2786 2293 
Q 2538 2584 2113 2584 
z
M 3366 4563 
L 3366 3988 
Q 3128 4100 2886 4159 
Q 2644 4219 2406 4219 
Q 1781 4219 1451 3797 
Q 1122 3375 1075 2522 
Q 1259 2794 1537 2939 
Q 1816 3084 2150 3084 
Q 2853 3084 3261 2657 
Q 3669 2231 3669 1497 
Q 3669 778 3244 343 
Q 2819 -91 2113 -91 
Q 1303 -91 875 529 
Q 447 1150 447 2328 
Q 447 3434 972 4092 
Q 1497 4750 2381 4750 
Q 2619 4750 2861 4703 
Q 3103 4656 3366 4563 
z
" transform="scale(0.015625)"/>
       </defs>
       <use xlink:href="#DejaVuSans-32"/>
       <use xlink:href="#DejaVuSans-2e" x="63.623047"/>
       <use xlink:href="#DejaVuSans-36" x="95.410156"/>
       <use xlink:href="#DejaVuSans-30" x="159.033203"/>
      </g>
     </g>
    </g>
    <g id="ytick_3">
     <g id="line2d_12">
      <g>
       <use xlink:href="#m00e0a19e36" x="36.465625" y="207.556007" style="stroke: #000000; stroke-width: 0.8"/>
      </g>
     </g>
     <g id="text_12">
      <!-- 2.65 -->
      <g transform="translate(7.2 211.355226) scale(0.1 -0.1)">
       <use xlink:href="#DejaVuSans-32"/>
       <use xlink:href="#DejaVuSans-2e" x="63.623047"/>
       <use xlink:href="#DejaVuSans-36" x="95.410156"/>
       <use xlink:href="#DejaVuSans-35" x="159.033203"/>
      </g>
     </g>
    </g>
    <g id="ytick_4">
     <g id="line2d_13">
      <g>
       <use xlink:href="#m00e0a19e36" x="36.465625" y="168.821195" style="stroke: #000000; stroke-width: 0.8"/>
      </g>
     </g>
     <g id="text_13">
      <!-- 2.70 -->
      <g transform="translate(7.2 172.620414) scale(0.1 -0.1)">
       <defs>
        <path id="DejaVuSans-37" d="M 525 4666 
L 3525 4666 
L 3525 4397 
L 1831 0 
L 1172 0 
L 2766 4134 
L 525 4134 
L 525 4666 
z
" transform="scale(0.015625)"/>
       </defs>
       <use xlink:href="#DejaVuSans-32"/>
       <use xlink:href="#DejaVuSans-2e" x="63.623047"/>
       <use xlink:href="#DejaVuSans-37" x="95.410156"/>
       <use xlink:href="#DejaVuSans-30" x="159.033203"/>
      </g>
     </g>
    </g>
    <g id="ytick_5">
     <g id="line2d_14">
      <g>
       <use xlink:href="#m00e0a19e36" x="36.465625" y="130.086383" style="stroke: #000000; stroke-width: 0.8"/>
      </g>
     </g>
     <g id="text_14">
      <!-- 2.75 -->
      <g transform="translate(7.2 133.885601) scale(0.1 -0.1)">
       <use xlink:href="#DejaVuSans-32"/>
       <use xlink:href="#DejaVuSans-2e" x="63.623047"/>
       <use xlink:href="#DejaVuSans-37" x="95.410156"/>
       <use xlink:href="#DejaVuSans-35" x="159.033203"/>
      </g>
     </g>
    </g>
    <g id="ytick_6">
     <g id="line2d_15">
      <g>
       <use xlink:href="#m00e0a19e36" x="36.465625" y="91.35157" style="stroke: #000000; stroke-width: 0.8"/>
      </g>
     </g>
     <g id="text_15">
      <!-- 2.80 -->
      <g transform="translate(7.2 95.150789) scale(0.1 -0.1)">
       <defs>
        <path id="DejaVuSans-38" d="M 2034 2216 
Q 1584 2216 1326 1975 
Q 1069 1734 1069 1313 
Q 1069 891 1326 650 
Q 1584 409 2034 409 
Q 2484 409 2743 651 
Q 3003 894 3003 1313 
Q 3003 1734 2745 1975 
Q 2488 2216 2034 2216 
z
M 1403 2484 
Q 997 2584 770 2862 
Q 544 3141 544 3541 
Q 544 4100 942 4425 
Q 1341 4750 2034 4750 
Q 2731 4750 3128 4425 
Q 3525 4100 3525 3541 
Q 3525 3141 3298 2862 
Q 3072 2584 2669 2484 
Q 3125 2378 3379 2068 
Q 3634 1759 3634 1313 
Q 3634 634 3220 271 
Q 2806 -91 2034 -91 
Q 1263 -91 848 271 
Q 434 634 434 1313 
Q 434 1759 690 2068 
Q 947 2378 1403 2484 
z
M 1172 3481 
Q 1172 3119 1398 2916 
Q 1625 2713 2034 2713 
Q 2441 2713 2670 2916 
Q 2900 3119 2900 3481 
Q 2900 3844 2670 4047 
Q 2441 4250 2034 4250 
Q 1625 4250 1398 4047 
Q 1172 3844 1172 3481 
z
" transform="scale(0.015625)"/>
       </defs>
       <use xlink:href="#DejaVuSans-32"/>
       <use xlink:href="#DejaVuSans-2e" x="63.623047"/>
       <use xlink:href="#DejaVuSans-38" x="95.410156"/>
       <use xlink:href="#DejaVuSans-30" x="159.033203"/>
      </g>
     </g>
    </g>
    <g id="ytick_7">
     <g id="line2d_16">
      <g>
       <use xlink:href="#m00e0a19e36" x="36.465625" y="52.616758" style="stroke: #000000; stroke-width: 0.8"/>
      </g>
     </g>
     <g id="text_16">
      <!-- 2.85 -->
      <g transform="translate(7.2 56.415977) scale(0.1 -0.1)">
       <use xlink:href="#DejaVuSans-32"/>
       <use xlink:href="#DejaVuSans-2e" x="63.623047"/>
       <use xlink:href="#DejaVuSans-38" x="95.410156"/>
       <use xlink:href="#DejaVuSans-35" x="159.033203"/>
      </g>
     </g>
    </g>
    <g id="text_17">
     <!-- 1e16 -->
     <g transform="translate(36.465625 19.318125) scale(0.1 -0.1)">
      <defs>
       <path id="DejaVuSans-65" d="M 3597 1894 
L 3597 1613 
L 953 1613 
Q 991 1019 1311 708 
Q 1631 397 2203 397 
Q 2534 397 2845 478 
Q 3156 559 3463 722 
L 3463 178 
Q 3153 47 2828 -22 
Q 2503 -91 2169 -91 
Q 1331 -91 842 396 
Q 353 884 353 1716 
Q 353 2575 817 3079 
Q 1281 3584 2069 3584 
Q 2775 3584 3186 3129 
Q 3597 2675 3597 1894 
z
M 3022 2063 
Q 3016 2534 2758 2815 
Q 2500 3097 2075 3097 
Q 1594 3097 1305 2825 
Q 1016 2553 972 2059 
L 3022 2063 
z
" transform="scale(0.015625)"/>
      </defs>
      <use xlink:href="#DejaVuSans-31"/>
      <use xlink:href="#DejaVuSans-65" x="63.623047"/>
      <use xlink:href="#DejaVuSans-31" x="125.146484"/>
      <use xlink:href="#DejaVuSans-36" x="188.769531"/>
     </g>
    </g>
   </g>
   <g id="line2d_17">
    <path d="M 36.465625 43.37132 
L 37.423051 80.974086 
L 38.380478 177.200943 
L 39.337904 230.239577 
L 40.29533 257.042774 
L 41.252756 267.322332 
L 42.210183 260.697607 
L 43.167609 232.949905 
L 44.125035 175.970781 
L 45.082461 78.381089 
L 46.039888 45.171263 
L 46.997314 46.354373 
L 47.95474 81.72622 
L 48.912167 176.139821 
L 49.869593 229.092295 
L 50.827019 256.678615 
L 51.784445 269.062323 
L 52.741872 261.508132 
L 53.699298 236.443535 
L 54.656724 177.373545 
L 55.61415 81.670461 
L 56.571577 46.730228 
L 57.529003 49.64312 
L 58.486429 86.689134 
L 59.443856 179.11772 
L 60.401282 233.610262 
L 61.358708 261.957322 
L 62.316134 273.176084 
L 63.273561 265.969065 
L 64.230987 241.091347 
L 65.188413 182.532175 
L 66.145839 91.450755 
L 67.103266 52.646653 
L 68.060692 55.59879 
L 69.018118 88.671896 
L 69.975545 181.419145 
L 70.932971 237.611629 
L 71.890397 261.692002 
L 72.847823 270.441179 
L 73.80525 258.42785 
L 74.762676 232.48885 
L 75.720102 175.947141 
L 76.677528 81.887606 
L 77.634955 43.898117 
L 78.592381 48.877212 
L 79.549807 78.498311 
L 80.507234 176.912432 
L 81.46466 235.847332 
L 82.422086 265.965969 
L 83.379512 275.089395 
L 84.336939 264.210966 
L 85.294365 241.432165 
L 86.251791 181.074317 
L 87.209217 77.892422 
L 88.166644 46.771193 
L 89.12407 43.312381 
L 90.081496 83.145401 
L 91.038923 177.22232 
L 91.996349 230.893295 
L 92.953775 258.413979 
L 93.911201 267.345906 
L 94.868628 258.372063 
L 95.826054 235.125236 
L 96.78348 178.745089 
L 97.740907 75.8448 
L 98.698333 44.092121 
L 99.655759 45.826936 
L 100.613185 84.950669 
L 101.570612 179.126989 
L 102.528038 237.238461 
L 103.485464 264.025896 
L 104.44289 274.426564 
L 105.400317 269.134323 
L 106.357743 241.601432 
L 107.315169 195.637291 
L 108.272596 98.095912 
L 109.230022 59.08488 
L 110.187448 56.390981 
L 111.144874 89.342313 
L 112.102301 184.460331 
L 113.059727 239.558544 
L 114.017153 262.682812 
L 114.974579 271.453578 
L 115.932006 264.345319 
L 116.889432 237.347582 
L 117.846858 179.206983 
L 118.804285 87.380911 
L 119.761711 53.792982 
L 120.719137 47.661282 
L 121.676563 78.910216 
L 122.63399 181.53882 
L 123.591416 241.173426 
L 124.548842 265.593019 
L 125.506268 275.545607 
L 126.463695 263.596634 
L 127.421121 238.102219 
L 128.378547 182.545809 
L 129.335974 85.920357 
L 130.2934 48.554223 
L 131.250826 48.957079 
L 132.208252 84.548395 
L 133.165679 176.422858 
L 134.123105 232.02828 
L 135.080531 262.433125 
L 136.037957 270.703898 
L 136.995384 263.507781 
L 137.95281 238.204637 
L 138.910236 182.724448 
L 139.867663 88.139954 
L 140.825089 48.189426 
L 141.782515 48.927033 
L 142.739941 86.060747 
L 143.697368 179.332657 
L 144.654794 236.029554 
L 145.61222 264.880909 
L 146.569646 273.629242 
L 147.527073 265.366971 
L 148.484499 235.110693 
L 149.441925 177.24274 
L 150.399352 73.89135 
L 151.356778 43.9615 
L 152.314204 45.357956 
L 153.27163 79.853202 
L 154.229057 177.219385 
L 155.186483 236.15445 
L 156.143909 261.687631 
L 157.101335 269.730373 
L 158.058762 257.067786 
L 159.016188 234.882411 
L 159.973614 177.50146 
L 160.931041 75.855209 
L 161.888467 47.506101 
L 162.845893 44.011032 
L 163.803319 80.747521 
L 164.760746 174.721377 
L 165.718172 233.606083 
L 166.675598 259.724859 
L 167.633024 264.678647 
L 168.590451 254.631598 
L 169.547877 226.997384 
L 170.505303 169.501218 
L 171.46273 67.999758 
L 172.420156 38.310166 
L 173.377582 40.802633 
L 174.335008 76.802466 
L 175.292435 171.235307 
L 176.249861 229.654844 
L 177.207287 254.887553 
L 178.164713 266.352728 
L 179.12214 258.687671 
L 180.079566 233.752211 
L 181.036992 176.089843 
L 181.994419 80.199242 
L 182.951845 42.55492 
L 183.909271 44.801564 
L 184.866697 79.531367 
L 185.824124 176.838195 
L 186.78155 230.399631 
L 187.738976 257.472252 
L 188.696402 271.728168 
L 189.653829 261.438562 
L 190.611255 235.895344 
L 191.568681 178.980869 
L 192.526108 81.989904 
L 193.483534 45.737395 
L 194.44096 48.643827 
L 195.398386 79.397823 
L 196.355813 179.34308 
L 197.313239 233.848884 
L 198.270665 257.757074 
L 199.228091 263.158729 
L 200.185518 258.751005 
L 201.142944 234.425329 
L 202.10037 177.622872 
L 203.057797 75.999202 
L 204.015223 44.130547 
L 204.972649 46.431866 
L 205.930075 88.390428 
L 206.887502 178.570134 
L 207.844928 235.701955 
L 208.802354 261.148197 
L 209.75978 272.318562 
L 210.717207 262.409194 
L 211.674633 236.391641 
L 212.632059 180.441034 
L 213.589486 86.027713 
L 214.546912 47.283665 
L 215.504338 45.937185 
L 216.461764 84.097511 
L 217.419191 176.472332 
L 218.376617 236.544542 
L 219.334043 262.574662 
L 220.29147 269.641057 
L 221.248896 258.270151 
L 222.206322 231.489183 
L 223.163748 171.746847 
L 224.121175 72.75998 
L 225.078601 40.654223 
L 226.036027 43.256472 
L 226.993453 78.393605 
L 227.95088 177.644681 
L 228.908306 232.803332 
L 229.865732 260.049789 
L 230.823159 268.90246 
L 231.780585 259.657227 
L 232.738011 238.197881 
L 233.695437 180.255633 
L 234.652864 78.491822 
L 235.61029 45.751457 
L 236.567716 47.595183 
L 237.525142 89.305544 
L 238.482569 180.332555 
L 239.439995 233.434074 
L 240.397421 259.626247 
L 241.354848 264.507521 
L 242.312274 256.155559 
L 243.2697 234.67969 
L 244.227126 177.389196 
L 245.184553 83.011176 
L 246.141979 45.31688 
L 247.099405 49.103934 
L 248.056831 82.07912 
L 249.014258 184.054838 
L 249.971684 237.470941 
L 250.92911 264.378352 
L 251.886537 274.974021 
L 252.843963 265.968541 
L 253.801389 237.252075 
L 254.758815 181.448389 
L 255.716242 87.344033 
L 256.673668 50.928894 
L 257.631094 51.601817 
L 258.58852 87.572703 
L 259.545947 182.677987 
L 260.503373 238.739831 
L 261.460799 260.662528 
L 262.418226 268.039691 
L 263.375652 257.968257 
L 264.333078 235.006583 
L 265.290504 178.409759 
L 266.247931 81.109385 
L 267.205357 48.967245 
L 268.162783 48.816297 
L 269.120209 82.735371 
L 270.077636 178.129787 
L 271.035062 237.869847 
L 271.992488 260.016157 
L 272.949915 266.595497 
L 273.907341 264.252925 
L 274.864767 237.950856 
L 275.822193 179.134468 
L 276.77962 84.246589 
L 277.737046 45.634162 
L 278.694472 47.184358 
L 279.651898 77.381363 
L 280.609325 175.593272 
L 281.566751 231.168973 
L 282.524177 258.727096 
L 283.481604 264.284078 
L 284.43903 257.732233 
L 285.396456 229.388171 
L 286.353882 172.112892 
L 287.311309 72.321545 
L 288.268735 38.312253 
L 289.226161 43.061741 
L 290.183587 81.958064 
L 291.141014 177.912821 
L 292.09844 232.768493 
L 293.055866 257.205016 
L 294.013293 263.601354 
L 294.970719 254.848898 
L 295.928145 231.678323 
L 296.885571 174.557174 
L 297.842998 72.226285 
L 298.800424 38.854763 
L 299.75785 40.513876 
L 300.715276 71.105029 
L 301.672703 167.376006 
L 302.630129 227.503188 
L 303.587555 258.896634 
L 304.544982 265.261182 
L 305.502408 256.215585 
L 306.459834 233.558768 
L 307.41726 178.327309 
L 308.374687 78.593341 
L 309.332113 46.247093 
L 310.289539 43.616187 
L 311.246965 76.835662 
L 312.204392 176.499397 
L 313.161818 237.431389 
L 314.119244 265.87496 
L 315.076671 271.917813 
L 316.034097 266.064239 
L 316.991523 234.686602 
L 317.948949 177.809369 
L 318.906376 76.102734 
L 319.863802 41.812738 
L 320.821228 46.024072 
L 321.778654 87.54283 
L 322.736081 182.603914 
L 323.693507 240.460503 
L 324.650933 263.370308 
L 325.60836 272.037598 
L 326.565786 262.232755 
L 327.523212 240.366041 
L 328.480638 185.218264 
L 329.438065 84.158088 
L 330.395491 47.423262 
L 331.352917 45.885916 
L 332.310343 84.247666 
L 333.26777 181.317169 
L 334.225196 240.535056 
L 335.182622 266.589254 
L 336.140049 276.334125 
L 337.097475 263.42053 
L 338.054901 237.634278 
L 339.012327 180.916859 
L 339.969754 84.976215 
L 340.92718 51.153383 
L 341.884606 53.630991 
L 342.842033 86.635367 
L 343.799459 180.345249 
L 344.756885 235.085063 
L 345.714311 256.243581 
L 346.671738 264.003231 
L 347.629164 256.464375 
L 348.58659 230.683661 
L 349.544016 174.149326 
L 350.501443 78.427074 
L 351.458869 40.370234 
L 352.416295 39.219912 
L 353.373722 76.11832 
L 354.331148 176.574035 
L 355.288574 227.02409 
L 356.246 257.158939 
L 357.203427 265.490126 
L 358.160853 257.803561 
L 359.118279 236.629392 
L 360.075705 176.681867 
L 361.033132 80.298272 
L 361.990558 44.034633 
L 362.947984 46.366721 
L 363.905411 83.881037 
L 364.862837 175.981028 
L 365.820263 233.724611 
L 366.777689 257.902304 
L 367.735116 269.58928 
L 368.692542 259.957481 
L 369.649968 234.217681 
L 370.607394 172.195678 
L 371.564821 72.347068 
L 372.522247 41.658472 
L 373.479673 43.799614 
L 374.4371 74.681685 
L 375.394526 172.517646 
L 376.351952 228.170283 
L 377.309378 256.759591 
L 378.266805 269.884389 
L 379.224231 259.487788 
L 380.181657 235.775477 
L 381.139083 176.214083 
L 382.09651 79.95785 
L 383.053936 49.720142 
L 384.011362 42.661607 
L 384.968789 76.780811 
L 385.926215 176.034901 
L 386.883641 234.132715 
L 387.841067 258.919329 
L 388.798494 261.958064 
L 389.75592 255.243714 
L 390.713346 226.064697 
L 391.670772 173.227816 
L 392.628199 73.195035 
L 393.585625 34.414125 
L 393.585625 34.414125 
" clip-path="url(#pc33d1c7424)" style="fill: none; stroke: #1f77b4; stroke-width: 1.5; stroke-linecap: square"/>
   </g>
   <g id="patch_3">
    <path d="M 36.465625 288.430125 
L 36.465625 22.318125 
" style="fill: none; stroke: #000000; stroke-width: 0.8; stroke-linejoin: miter; stroke-linecap: square"/>
   </g>
   <g id="patch_4">
    <path d="M 393.585625 288.430125 
L 393.585625 22.318125 
" style="fill: none; stroke: #000000; stroke-width: 0.8; stroke-linejoin: miter; stroke-linecap: square"/>
   </g>
   <g id="patch_5">
    <path d="M 36.465625 288.430125 
L 393.585625 288.430125 
" style="fill: none; stroke: #000000; stroke-width: 0.8; stroke-linejoin: miter; stroke-linecap: square"/>
   </g>
   <g id="patch_6">
    <path d="M 36.465625 22.318125 
L 393.585625 22.318125 
" style="fill: none; stroke: #000000; stroke-width: 0.8; stroke-linejoin: miter; stroke-linecap: square"/>
   </g>
   <g id="text_18">
    <!-- Thermal Flux -->
    <g transform="translate(175.938438 16.318125) scale(0.12 -0.12)">
     <defs>
      <path id="DejaVuSans-54" d="M -19 4666 
L 3928 4666 
L 3928 4134 
L 2272 4134 
L 2272 0 
L 1638 0 
L 1638 4134 
L -19 4134 
L -19 4666 
z
" transform="scale(0.015625)"/>
      <path id="DejaVuSans-68" d="M 3513 2113 
L 3513 0 
L 2938 0 
L 2938 2094 
Q 2938 2591 2744 2837 
Q 2550 3084 2163 3084 
Q 1697 3084 1428 2787 
Q 1159 2491 1159 1978 
L 1159 0 
L 581 0 
L 581 4863 
L 1159 4863 
L 1159 2956 
Q 1366 3272 1645 3428 
Q 1925 3584 2291 3584 
Q 2894 3584 3203 3211 
Q 3513 2838 3513 2113 
z
" transform="scale(0.015625)"/>
      <path id="DejaVuSans-72" d="M 2631 2963 
Q 2534 3019 2420 3045 
Q 2306 3072 2169 3072 
Q 1681 3072 1420 2755 
Q 1159 2438 1159 1844 
L 1159 0 
L 581 0 
L 581 3500 
L 1159 3500 
L 1159 2956 
Q 1341 3275 1631 3429 
Q 1922 3584 2338 3584 
Q 2397 3584 2469 3576 
Q 2541 3569 2628 3553 
L 2631 2963 
z
" transform="scale(0.015625)"/>
      <path id="DejaVuSans-6d" d="M 3328 2828 
Q 3544 3216 3844 3400 
Q 4144 3584 4550 3584 
Q 5097 3584 5394 3201 
Q 5691 2819 5691 2113 
L 5691 0 
L 5113 0 
L 5113 2094 
Q 5113 2597 4934 2840 
Q 4756 3084 4391 3084 
Q 3944 3084 3684 2787 
Q 3425 2491 3425 1978 
L 3425 0 
L 2847 0 
L 2847 2094 
Q 2847 2600 2669 2842 
Q 2491 3084 2119 3084 
Q 1678 3084 1418 2786 
Q 1159 2488 1159 1978 
L 1159 0 
L 581 0 
L 581 3500 
L 1159 3500 
L 1159 2956 
Q 1356 3278 1631 3431 
Q 1906 3584 2284 3584 
Q 2666 3584 2933 3390 
Q 3200 3197 3328 2828 
z
" transform="scale(0.015625)"/>
      <path id="DejaVuSans-61" d="M 2194 1759 
Q 1497 1759 1228 1600 
Q 959 1441 959 1056 
Q 959 750 1161 570 
Q 1363 391 1709 391 
Q 2188 391 2477 730 
Q 2766 1069 2766 1631 
L 2766 1759 
L 2194 1759 
z
M 3341 1997 
L 3341 0 
L 2766 0 
L 2766 531 
Q 2569 213 2275 61 
Q 1981 -91 1556 -91 
Q 1019 -91 701 211 
Q 384 513 384 1019 
Q 384 1609 779 1909 
Q 1175 2209 1959 2209 
L 2766 2209 
L 2766 2266 
Q 2766 2663 2505 2880 
Q 2244 3097 1772 3097 
Q 1472 3097 1187 3025 
Q 903 2953 641 2809 
L 641 3341 
Q 956 3463 1253 3523 
Q 1550 3584 1831 3584 
Q 2591 3584 2966 3190 
Q 3341 2797 3341 1997 
z
" transform="scale(0.015625)"/>
      <path id="DejaVuSans-6c" d="M 603 4863 
L 1178 4863 
L 1178 0 
L 603 0 
L 603 4863 
z
" transform="scale(0.015625)"/>
      <path id="DejaVuSans-20" transform="scale(0.015625)"/>
      <path id="DejaVuSans-46" d="M 628 4666 
L 3309 4666 
L 3309 4134 
L 1259 4134 
L 1259 2759 
L 3109 2759 
L 3109 2228 
L 1259 2228 
L 1259 0 
L 628 0 
L 628 4666 
z
" transform="scale(0.015625)"/>
      <path id="DejaVuSans-75" d="M 544 1381 
L 544 3500 
L 1119 3500 
L 1119 1403 
Q 1119 906 1312 657 
Q 1506 409 1894 409 
Q 2359 409 2629 706 
Q 2900 1003 2900 1516 
L 2900 3500 
L 3475 3500 
L 3475 0 
L 2900 0 
L 2900 538 
Q 2691 219 2414 64 
Q 2138 -91 1772 -91 
Q 1169 -91 856 284 
Q 544 659 544 1381 
z
M 1991 3584 
L 1991 3584 
z
" transform="scale(0.015625)"/>
      <path id="DejaVuSans-78" d="M 3513 3500 
L 2247 1797 
L 3578 0 
L 2900 0 
L 1881 1375 
L 863 0 
L 184 0 
L 1544 1831 
L 300 3500 
L 978 3500 
L 1906 2253 
L 2834 3500 
L 3513 3500 
z
" transform="scale(0.015625)"/>
     </defs>
     <use xlink:href="#DejaVuSans-54"/>
     <use xlink:href="#DejaVuSans-68" x="61.083984"/>
     <use xlink:href="#DejaVuSans-65" x="124.462891"/>
     <use xlink:href="#DejaVuSans-72" x="185.986328"/>
     <use xlink:href="#DejaVuSans-6d" x="225.349609"/>
     <use xlink:href="#DejaVuSans-61" x="322.761719"/>
     <use xlink:href="#DejaVuSans-6c" x="384.041016"/>
     <use xlink:href="#DejaVuSans-20" x="411.824219"/>
     <use xlink:href="#DejaVuSans-46" x="443.611328"/>
     <use xlink:href="#DejaVuSans-6c" x="501.130859"/>
     <use xlink:href="#DejaVuSans-75" x="528.914062"/>
     <use xlink:href="#DejaVuSans-78" x="592.292969"/>
    </g>
   </g>
  </g>
 </g>
 <defs>
  <clipPath id="pc33d1c7424">
   <rect x="36.465625" y="22.318125" width="357.12" height="266.112"/>
  </clipPath>
 </defs>
</svg>
